<?xml version="1.0" encoding="utf-8"?>

<!DOCTYPE svg PUBLIC "-//W3C//DTD SVG 1.1//EN" "http://www.w3.org/Graphics/SVG/1.1/DTD/svg11.dtd">
<svg version="1.1" id="Layer_1" xmlns="http://www.w3.org/2000/svg" xmlns:xlink="http://www.w3.org/1999/xlink" x="0px" y="0px"
	 viewBox="0 0 1668.098 1668.098" enable-background="new 0 0 1668.098 1668.098" xml:space="preserve">
<g>
	<path d="M1126.872,230.178c0,0-40.649,40.201-96.24,9.362c-9.399-7.049-35.751-27.609-30.509-63.404c0,0,9.986-11.124,19.363,5.896
		c0,0,2.948,13.51-10.581,13.51c19.972,22.872,70.416,21.125,65.772-30.509c-4.13,12.886-42.275,35.773-57.529-13.532
		c-1.164-7.614-2.864-37.998,23.551-55.584l-23.203-0.587c0,0-23.808,17.461-32.609,54.409c-7.622,1.175-20.156,9.325-15.273,28.159
		c3.855,14.861-40.348,52.096-56.34,29.921c10.889,15.1,42.25,36.97,71.591-8.789c-4.112,21.147,55.063,110.374,154.243,48.755
		C1139.108,247.786,1136.806,233.688,1126.872,230.178z"/>
	<path d="M230.178,541.226c0,0,40.201,40.649,9.362,96.24c-7.049,9.399-27.609,35.751-63.404,30.509c0,0-11.124-9.986,5.896-19.363
		c0,0,13.51-2.948,13.51,10.581c22.872-19.972,21.125-70.416-30.509-65.772c12.886,4.13,35.773,42.275-13.532,57.529
		c-7.614,1.164-37.998,2.864-55.584-23.551l-0.587,23.202c0,0,17.461,23.809,54.409,32.609c1.175,7.622,9.325,20.155,28.159,15.273
		c14.861-3.855,52.096,40.348,29.921,56.34c15.1-10.889,36.97-42.25-8.789-71.591c21.147,4.112,110.374-55.063,48.755-154.243
		C247.786,528.989,233.688,531.291,230.178,541.226z"/>
	<path d="M541.226,1437.92c0,0,40.649-40.201,96.24-9.362c9.399,7.049,35.751,27.609,30.509,63.404c0,0-9.986,11.124-19.363-5.896
		c0,0-2.948-13.51,10.581-13.51c-19.972-22.872-70.416-21.125-65.772,30.509c4.13-12.886,42.275-35.773,57.529,13.532
		c1.164,7.614,2.864,37.998-23.551,55.584l23.202,0.587c0,0,23.809-17.461,32.609-54.409c7.622-1.175,20.155-9.325,15.273-28.159
		c-3.855-14.861,40.348-52.096,56.34-29.921c-10.889-15.1-42.25-36.97-71.591,8.789c4.112-21.147-55.063-110.374-154.243-48.755
		C528.989,1420.312,531.291,1434.41,541.226,1437.92z"/>
	<path d="M1437.92,1126.872c0,0-40.201-40.649-9.362-96.24c7.049-9.399,27.609-35.751,63.404-30.509c0,0,11.124,9.986-5.896,19.363
		c0,0-13.51,2.948-13.51-10.581c-22.872,19.972-21.125,70.416,30.509,65.772c-12.886-4.13-35.773-42.275,13.532-57.529
		c7.614-1.164,37.998-2.864,55.584,23.551l0.587-23.203c0,0-17.461-23.808-54.409-32.609c-1.175-7.622-9.325-20.156-28.159-15.273
		c-14.861,3.855-52.096-40.348-29.921-56.34c-15.1,10.889-36.97,42.25,8.789,71.591c-21.147-4.112-110.374,55.063-48.755,154.243
		C1420.312,1139.108,1434.41,1136.806,1437.92,1126.872z"/>
	<path d="M1437.92,541.226c0,0-40.201,40.649-9.362,96.24c7.049,9.399,27.609,35.751,63.404,30.509c0,0,11.124-9.986-5.896-19.363
		c0,0-13.51-2.948-13.51,10.581c-22.872-19.972-21.125-70.416,30.509-65.772c-12.886,4.13-35.773,42.275,13.532,57.529
		c7.614,1.164,37.998,2.864,55.584-23.551l0.587,23.202c0,0-17.461,23.809-54.409,32.609c-1.175,7.622-9.325,20.155-28.159,15.273
		c-14.861-3.855-52.096,40.348-29.921,56.34c-15.1-10.889-36.97-42.25,8.789-71.591c-21.147,4.112-110.374-55.063-48.755-154.243
		C1420.312,528.989,1434.41,531.291,1437.92,541.226z"/>
	<path d="M541.226,230.178c0,0,40.649,40.201,96.24,9.362c9.399-7.049,35.751-27.609,30.509-63.404c0,0-9.986-11.124-19.363,5.896
		c0,0-2.948,13.51,10.581,13.51c-19.972,22.872-70.416,21.125-65.772-30.509c4.13,12.886,42.275,35.773,57.529-13.532
		c1.164-7.614,2.864-37.998-23.551-55.584l23.202-0.587c0,0,23.809,17.461,32.609,54.409c7.622,1.175,20.155,9.325,15.273,28.159
		c-3.855,14.861,40.348,52.096,56.34,29.921c-10.889,15.1-42.25,36.97-71.591-8.789c4.112,21.147-55.063,110.374-154.243,48.755
		C528.989,247.786,531.291,233.688,541.226,230.178z"/>
	<path d="M230.178,1126.872c0,0,40.201-40.649,9.362-96.24c-7.049-9.399-27.609-35.751-63.404-30.509c0,0-11.124,9.986,5.896,19.363
		c0,0,13.51,2.948,13.51-10.581c22.872,19.972,21.125,70.416-30.509,65.772c12.886-4.13,35.773-42.275-13.532-57.529
		c-7.614-1.164-37.998-2.864-55.584,23.551l-0.587-23.203c0,0,17.461-23.808,54.409-32.609c1.175-7.622,9.325-20.156,28.159-15.273
		c14.861,3.855,52.096-40.348,29.921-56.34c15.1,10.889,36.97,42.25-8.789,71.591c21.147-4.112,110.374,55.063,48.755,154.243
		C247.786,1139.108,233.688,1136.806,230.178,1126.872z"/>
	<path d="M1126.872,1437.92c0,0-40.649-40.201-96.24-9.362c-9.399,7.049-35.751,27.609-30.509,63.404c0,0,9.986,11.124,19.363-5.896
		c0,0,2.948-13.51-10.581-13.51c19.972-22.872,70.416-21.125,65.772,30.509c-4.13-12.886-42.275-35.773-57.529,13.532
		c-1.164,7.614-2.864,37.998,23.551,55.584l-23.203,0.587c0,0-23.808-17.461-32.609-54.409c-7.622-1.175-20.156-9.325-15.273-28.159
		c3.855-14.861-40.348-52.096-56.34-29.921c10.889-15.1,42.25-36.97,71.591,8.789c-4.112-21.147,55.063-110.374,154.243-48.755
		C1139.108,1420.312,1136.806,1434.41,1126.872,1437.92z"/>
	<path d="M1315.258,148.675c-63.342-43.432-79.172-72.773-137.289-90.424c-73.243-22.248-140.538,19.164-140.538,19.164
		l31.225,3.021c32.282-13.474,62.944,0.121,69.406,5.958c29.921,29.995,40.869,21.375,47.544,12.372
		c-0.588,8.202-25.259,41.648-1.193,74.506c24.029,32.88,60.999-2.9,60.999-2.9c-9.52,36.203,15.056,53.778,26.397,55.753
		c59.703,8.749,47.543-57.478,47.543-57.478C1315.258,159.836,1315.258,148.675,1315.258,148.675z M1179.731,94.067
		c-14.08,5.852-40.495-31.118-59.836-31.133c0,0,36.376-0.573,62.772,11.176C1182.668,74.11,1193.792,88.208,1179.731,94.067z
		 M1287.668,208.245c-29.363,10.552-42.257-33.761-29.04-47.272c2.643-2.327,17.622-14.649,27.884,4.721
		c0.881,2.915,1.744,14.663-9.388,14.076c2.027-1.483,9.498-3.377,4.688-12.901c-4.248-8.503-24.477-2.445-16.448,12.886
		c8.712,16.609,27.315,5.323,28.747-4.097c1.781-24.047-17.384-31.662-29.8-28.736c-10.926,2.581-14.193,11.701-32.355,16.385
		c-44.632,7.049-49.324-31.683-38.751-49.879c10.573-18.188-1.138-35.81-1.138-35.81c12.593,7.064,88.883,55.782,104.111,83.684
		C1298.535,166.576,1317.02,197.687,1287.668,208.245z"/>
	<path d="M148.675,352.839c-43.432,63.342-72.773,79.172-90.424,137.289c-22.248,73.243,19.164,140.538,19.164,140.538l3.021-31.225
		c-13.474-32.282,0.121-62.945,5.958-69.406c29.995-29.921,21.375-40.869,12.372-47.544c8.202,0.588,41.648,25.259,74.506,1.193
		c32.88-24.029-2.9-60.999-2.9-60.999c36.203,9.52,53.778-15.056,55.753-26.397c8.749-59.703-57.478-47.543-57.478-47.543
		C159.836,352.839,148.675,352.839,148.675,352.839z M94.067,488.366c5.852,14.08-31.118,40.495-31.133,59.836
		c0,0-0.573-36.376,11.176-62.772C74.11,485.429,88.208,474.305,94.067,488.366z M208.245,380.429
		c10.552,29.363-33.761,42.257-47.272,29.04c-2.327-2.643-14.649-17.622,4.721-27.884c2.915-0.881,14.663-1.744,14.076,9.388
		c-1.483-2.027-3.377-9.498-12.901-4.688c-8.503,4.248-2.445,24.477,12.886,16.448c16.609-8.712,5.323-27.315-4.097-28.747
		c-24.047-1.78-31.662,17.384-28.736,29.8c2.581,10.926,11.701,14.193,16.385,32.355c7.049,44.632-31.683,49.325-49.879,38.751
		c-18.188-10.573-35.81,1.138-35.81,1.138c7.064-12.593,55.782-88.883,83.684-104.112
		C166.576,369.562,197.687,351.077,208.245,380.429z"/>
	<path d="M352.839,1519.423c63.342,43.432,79.172,72.773,137.289,90.424c73.243,22.248,140.538-19.164,140.538-19.164l-31.225-3.021
		c-32.282,13.474-62.945-0.121-69.406-5.958c-29.921-29.995-40.869-21.375-47.544-12.372c0.588-8.202,25.259-41.648,1.193-74.506
		c-24.029-32.88-60.999,2.9-60.999,2.9c9.52-36.203-15.056-53.778-26.397-55.753c-59.703-8.749-47.543,57.478-47.543,57.478
		C352.839,1508.262,352.839,1519.423,352.839,1519.423z M488.366,1574.03c14.08-5.852,40.495,31.118,59.836,31.133
		c0,0-36.376,0.573-62.772-11.176C485.429,1593.987,474.305,1579.889,488.366,1574.03z M380.429,1459.852
		c29.363-10.552,42.257,33.761,29.04,47.272c-2.643,2.328-17.622,14.649-27.884-4.721c-0.881-2.915-1.744-14.663,9.388-14.076
		c-2.027,1.483-9.498,3.377-4.688,12.901c4.248,8.503,24.477,2.445,16.448-12.886c-8.712-16.609-27.315-5.323-28.747,4.097
		c-1.78,24.047,17.384,31.662,29.8,28.736c10.926-2.581,14.193-11.7,32.355-16.385c44.632-7.049,49.325,31.683,38.751,49.879
		c-10.573,18.188,1.138,35.81,1.138,35.81c-12.593-7.064-88.883-55.782-104.112-83.684
		C369.562,1501.521,351.077,1470.411,380.429,1459.852z"/>
	<path d="M1519.423,1315.258c43.432-63.342,72.773-79.172,90.424-137.289c22.248-73.243-19.164-140.538-19.164-140.538
		l-3.021,31.225c13.474,32.282-0.121,62.944-5.958,69.406c-29.995,29.921-21.375,40.869-12.372,47.544
		c-8.202-0.588-41.648-25.259-74.506-1.193c-32.88,24.029,2.9,60.999,2.9,60.999c-36.203-9.52-53.778,15.056-55.753,26.397
		c-8.749,59.703,57.478,47.543,57.478,47.543C1508.262,1315.258,1519.423,1315.258,1519.423,1315.258z M1574.03,1179.731
		c-5.852-14.08,31.118-40.495,31.133-59.836c0,0,0.573,36.376-11.176,62.772C1593.987,1182.668,1579.889,1193.792,1574.03,1179.731z
		 M1459.852,1287.668c-10.552-29.363,33.761-42.257,47.272-29.04c2.328,2.643,14.649,17.622-4.721,27.884
		c-2.915,0.881-14.663,1.744-14.076-9.388c1.483,2.027,3.377,9.498,12.901,4.688c8.503-4.248,2.445-24.477-12.886-16.448
		c-16.609,8.712-5.323,27.315,4.097,28.747c24.047,1.781,31.662-17.384,28.736-29.8c-2.581-10.926-11.7-14.193-16.385-32.355
		c-7.049-44.632,31.683-49.324,49.879-38.751c18.188,10.573,35.81-1.138,35.81-1.138c-7.064,12.593-55.782,88.883-83.684,104.111
		C1501.521,1298.535,1470.411,1317.02,1459.852,1287.668z"/>
	<path d="M1519.423,352.839c43.432,63.342,72.773,79.172,90.424,137.289c22.248,73.243-19.164,140.538-19.164,140.538l-3.021-31.225
		c13.474-32.282-0.121-62.945-5.958-69.406c-29.995-29.921-21.375-40.869-12.372-47.544c-8.202,0.588-41.648,25.259-74.506,1.193
		c-32.88-24.029,2.9-60.999,2.9-60.999c-36.203,9.52-53.778-15.056-55.753-26.397c-8.749-59.703,57.478-47.543,57.478-47.543
		C1508.262,352.839,1519.423,352.839,1519.423,352.839z M1574.03,488.366c-5.852,14.08,31.118,40.495,31.133,59.836
		c0,0,0.573-36.376-11.176-62.772C1593.987,485.429,1579.889,474.305,1574.03,488.366z M1459.852,380.429
		c-10.552,29.363,33.761,42.257,47.272,29.04c2.328-2.643,14.649-17.622-4.721-27.884c-2.915-0.881-14.663-1.744-14.076,9.388
		c1.483-2.027,3.377-9.498,12.901-4.688c8.503,4.248,2.445,24.477-12.886,16.448c-16.609-8.712-5.323-27.315,4.097-28.747
		c24.047-1.78,31.662,17.384,28.736,29.8c-2.581,10.926-11.7,14.193-16.385,32.355c-7.049,44.632,31.683,49.325,49.879,38.751
		c18.188-10.573,35.81,1.138,35.81,1.138c-7.064-12.593-55.782-88.883-83.684-104.112
		C1501.521,369.562,1470.411,351.077,1459.852,380.429z"/>
	<path d="M352.839,148.675c63.342-43.432,79.172-72.773,137.289-90.424c73.243-22.248,140.538,19.164,140.538,19.164l-31.225,3.021
		c-32.282-13.474-62.945,0.121-69.406,5.958c-29.921,29.995-40.869,21.375-47.544,12.372c0.588,8.202,25.259,41.648,1.193,74.506
		c-24.029,32.88-60.999-2.9-60.999-2.9c9.52,36.203-15.056,53.778-26.397,55.753c-59.703,8.749-47.543-57.478-47.543-57.478
		C352.839,159.836,352.839,148.675,352.839,148.675z M488.366,94.067c14.08,5.852,40.495-31.118,59.836-31.133
		c0,0-36.376-0.573-62.772,11.176C485.429,74.11,474.305,88.208,488.366,94.067z M380.429,208.245
		c29.363,10.552,42.257-33.761,29.04-47.272c-2.643-2.327-17.622-14.649-27.884,4.721c-0.881,2.915-1.744,14.663,9.388,14.076
		c-2.027-1.483-9.498-3.377-4.688-12.901c4.248-8.503,24.477-2.445,16.448,12.886c-8.712,16.609-27.315,5.323-28.747-4.097
		c-1.78-24.047,17.384-31.662,29.8-28.736c10.926,2.581,14.193,11.701,32.355,16.385c44.632,7.049,49.325-31.683,38.751-49.879
		c-10.573-18.188,1.138-35.81,1.138-35.81c-12.593,7.064-88.883,55.782-104.112,83.684
		C369.562,166.576,351.077,197.687,380.429,208.245z"/>
	<path d="M148.675,1315.258c-43.432-63.342-72.773-79.172-90.424-137.289c-22.248-73.243,19.164-140.538,19.164-140.538
		l3.021,31.225c-13.474,32.282,0.121,62.944,5.958,69.406c29.995,29.921,21.375,40.869,12.372,47.544
		c8.202-0.588,41.648-25.259,74.506-1.193c32.88,24.029-2.9,60.999-2.9,60.999c36.203-9.52,53.778,15.056,55.753,26.397
		c8.749,59.703-57.478,47.543-57.478,47.543C159.836,1315.258,148.675,1315.258,148.675,1315.258z M94.067,1179.731
		c5.852-14.08-31.118-40.495-31.133-59.836c0,0-0.573,36.376,11.176,62.772C74.11,1182.668,88.208,1193.792,94.067,1179.731z
		 M208.245,1287.668c10.552-29.363-33.761-42.257-47.272-29.04c-2.327,2.643-14.649,17.622,4.721,27.884
		c2.915,0.881,14.663,1.744,14.076-9.388c-1.483,2.027-3.377,9.498-12.901,4.688c-8.503-4.248-2.445-24.477,12.886-16.448
		c16.609,8.712,5.323,27.315-4.097,28.747c-24.047,1.781-31.662-17.384-28.736-29.8c2.581-10.926,11.701-14.193,16.385-32.355
		c7.049-44.632-31.683-49.324-49.879-38.751c-18.188,10.573-35.81-1.138-35.81-1.138c7.064,12.593,55.782,88.883,83.684,104.111
		C166.576,1298.535,197.687,1317.02,208.245,1287.668z"/>
	<path d="M1315.258,1519.423c-63.342,43.432-79.172,72.773-137.289,90.424c-73.243,22.248-140.538-19.164-140.538-19.164
		l31.225-3.021c32.282,13.474,62.944-0.121,69.406-5.958c29.921-29.995,40.869-21.375,47.544-12.372
		c-0.588-8.202-25.259-41.648-1.193-74.506c24.029-32.88,60.999,2.9,60.999,2.9c-9.52-36.203,15.056-53.778,26.397-55.753
		c59.703-8.749,47.543,57.478,47.543,57.478C1315.258,1508.262,1315.258,1519.423,1315.258,1519.423z M1179.731,1574.03
		c-14.08-5.852-40.495,31.118-59.836,31.133c0,0,36.376,0.573,62.772-11.176C1182.668,1593.987,1193.792,1579.889,1179.731,1574.03z
		 M1287.668,1459.852c-29.363-10.552-42.257,33.761-29.04,47.272c2.643,2.328,17.622,14.649,27.884-4.721
		c0.881-2.915,1.744-14.663-9.388-14.076c2.027,1.483,9.498,3.377,4.688,12.901c-4.248,8.503-24.477,2.445-16.448-12.886
		c8.712-16.609,27.315-5.323,28.747,4.097c1.781,24.047-17.384,31.662-29.8,28.736c-10.926-2.581-14.193-11.7-32.355-16.385
		c-44.632-7.049-49.324,31.683-38.751,49.879c10.573,18.188-1.138,35.81-1.138,35.81c12.593-7.064,88.883-55.782,104.111-83.684
		C1298.535,1501.521,1317.02,1470.411,1287.668,1459.852z"/>
	<path d="M1485.516,1485.516c20.56,14.712,40.371,20.932,57.307,23.569c0.036-0.006,0.074-0.013,0.11-0.018v0.037
		c-0.036-0.006-0.074-0.013-0.11-0.018c-8.296,1.291-17.282,3.443-26.707,7.031c-3.588,9.426-5.74,18.411-7.031,26.707
		c0.006,0.036,0.013,0.074,0.018,0.11h-0.037c0.006-0.036,0.013-0.074,0.018-0.11
		C1506.449,1525.887,1500.229,1506.077,1485.516,1485.516z M182.581,1485.516c-14.712,20.56-20.932,40.371-23.569,57.307
		c0.006,0.036,0.013,0.074,0.018,0.11h-0.037c0.006-0.036,0.013-0.074,0.018-0.11c-1.291-8.296-3.443-17.282-7.031-26.707
		c-9.426-3.588-18.411-5.74-26.707-7.031c-0.036,0.006-0.074,0.013-0.11,0.018v-0.037c0.036,0.006,0.074,0.013,0.11,0.018
		C142.21,1506.449,162.021,1500.229,182.581,1485.516z M182.581,182.581c-20.56-14.712-40.371-20.932-57.307-23.569
		c-0.036,0.006-0.074,0.013-0.11,0.018v-0.037c0.036,0.006,0.074,0.013,0.11,0.018c8.296-1.291,17.282-3.443,26.707-7.031
		c3.588-9.426,5.739-18.411,7.031-26.707c-0.006-0.036-0.013-0.074-0.018-0.11h0.037c-0.006,0.036-0.013,0.074-0.018,0.11
		C161.649,142.21,167.869,162.021,182.581,182.581z M1485.516,182.581c14.712-20.56,20.932-40.371,23.569-57.307
		c-0.006-0.036-0.013-0.074-0.018-0.11h0.037c-0.006,0.036-0.013,0.074-0.018,0.11c1.291,8.296,3.443,17.282,7.031,26.707
		c9.426,3.588,18.411,5.739,26.707,7.031c0.036-0.006,0.074-0.013,0.11-0.018v0.037c-0.036-0.006-0.074-0.013-0.11-0.018
		C1525.887,161.649,1506.077,167.869,1485.516,182.581z M1354.531,1354.531c10.459,5.41,20.341,12.379,29.324,19.945
		c21.894,18.433,41.792,46.694,62.179,71.558c-24.864-20.387-53.125-40.286-71.558-62.179
		C1366.911,1374.872,1359.941,1364.99,1354.531,1354.531z M313.566,1354.531c-5.41,10.459-12.379,20.341-19.945,29.324
		c-18.433,21.894-46.694,41.792-71.558,62.179c20.387-24.864,40.286-53.125,62.179-71.558
		C293.225,1366.911,303.107,1359.941,313.566,1354.531z M313.566,313.566c-10.459-5.41-20.341-12.379-29.324-19.945
		c-21.893-18.433-41.792-46.694-62.179-71.558c24.864,20.387,53.125,40.286,71.558,62.179
		C301.187,293.225,308.157,303.107,313.566,313.566z M1354.531,313.566c5.41-10.459,12.379-20.341,19.945-29.324
		c18.433-21.893,46.694-41.792,71.558-62.179c-20.387,24.864-40.286,53.125-62.179,71.558
		C1374.872,301.187,1364.99,308.157,1354.531,313.566z M1607.903,60.194c-15.674,0.844-32.023,8.772-44.684,31.612
		c-1.361,2.155-3.901,8.881-4.913,17.986c9.105-1.013,15.831-3.553,17.986-4.913C1599.132,92.217,1607.059,75.868,1607.903,60.194z
		 M60.194,60.194c0.844,15.674,8.772,32.023,31.612,44.684c2.155,1.361,8.881,3.901,17.986,4.913
		c-1.013-9.105-3.553-15.831-4.913-17.986C92.217,68.966,75.868,61.038,60.194,60.194z M60.194,1607.903
		c15.674-0.844,32.023-8.772,44.684-31.612c1.361-2.155,3.901-8.881,4.913-17.986c-9.105,1.013-15.831,3.553-17.986,4.913
		C68.966,1575.881,61.038,1592.229,60.194,1607.903z M1607.903,1607.903c-0.844-15.674-8.772-32.023-31.612-44.684
		c-2.155-1.361-8.881-3.901-17.986-4.913c1.013,9.105,3.553,15.831,4.913,17.986
		C1575.881,1599.132,1592.229,1607.059,1607.903,1607.903z M1532.5,135.597c-4.979-15.163-6.678-28.899-6.233-35.567
		c1.167-17.586,18.54-50.194,64.909-51.388c0.307,0,10.718-0.001,28.283-0.004c-0.002,17.564-0.004,27.975-0.004,28.283
		c-1.193,46.369-33.802,63.742-51.388,64.909C1561.399,142.275,1547.663,140.576,1532.5,135.597z M135.597,135.597
		c-15.163,4.979-28.899,6.678-35.567,6.233c-17.586-1.167-50.194-18.54-51.388-64.909c0-0.307-0.001-10.718-0.004-28.283
		c17.564,0.002,27.975,0.004,28.283,0.004c46.369,1.193,63.742,33.802,64.909,51.388
		C142.275,106.698,140.576,120.434,135.597,135.597z M135.597,1532.5c4.979,15.163,6.678,28.899,6.233,35.567
		c-1.167,17.586-18.54,50.194-64.909,51.388c-0.307,0-10.718,0.001-28.283,0.004c0.002-17.564,0.004-27.975,0.004-28.283
		c1.193-46.369,33.802-63.742,51.388-64.909C106.698,1525.822,120.434,1527.522,135.597,1532.5z M1532.5,1532.5
		c15.163-4.979,28.899-6.678,35.567-6.233c17.586,1.167,50.194,18.54,51.388,64.909c0,0.307,0.001,10.718,0.004,28.283
		c-17.564-0.002-27.975-0.004-28.283-0.004c-46.369-1.193-63.742-33.802-64.909-51.388
		C1525.822,1561.399,1527.522,1547.663,1532.5,1532.5z M1634.041,34.057l-58.725-0.008c0,0-29.242,4.545-45.672,21.595
		c-7.836,8.059-16.943,16.356-20.559,37.796c-3.616-21.44-12.723-29.737-20.559-37.796c-16.429-17.049-45.671-21.595-45.671-21.595
		l-496.297,0.066l-112.509,1.833l-112.51-1.833l-496.297-0.066c0,0-29.242,4.545-45.671,21.595
		C171.735,63.703,162.628,72,159.012,93.44c-3.616-21.44-12.723-29.737-20.559-37.796c-16.429-17.049-45.671-21.595-45.671-21.595
		l-58.725,0.008l-0.008,58.725c0,0,4.545,29.242,21.595,45.671c8.059,7.836,16.356,16.943,37.796,20.559
		c-21.44,3.616-29.737,12.723-37.796,20.559c-17.049,16.429-21.595,45.671-21.595,45.671l0.066,496.297l1.833,112.51l-1.833,112.509
		l-0.066,496.297c0,0,4.545,29.242,21.595,45.671c8.059,7.837,16.356,16.943,37.796,20.559
		c-21.44,3.616-29.737,12.723-37.796,20.559c-17.049,16.429-21.595,45.672-21.595,45.672l0.008,58.725l58.725,0.008
		c0,0,29.242-4.545,45.671-21.594c7.836-8.059,16.943-16.356,20.559-37.797c3.616,21.44,12.723,29.737,20.559,37.797
		c16.429,17.049,45.671,21.594,45.671,21.594l496.297-0.066l112.51-1.833l112.509,1.833l496.297,0.066
		c0,0,29.242-4.545,45.671-21.594c7.837-8.059,16.943-16.356,20.559-37.797c3.616,21.44,12.723,29.737,20.559,37.797
		c16.429,17.049,45.672,21.594,45.672,21.594l58.725-0.008l0.008-58.725c0,0-4.545-29.242-21.594-45.672
		c-8.059-7.836-16.356-16.943-37.797-20.559c21.44-3.616,29.737-12.723,37.797-20.559c17.049-16.429,21.594-45.671,21.594-45.671
		l-0.066-496.297l-1.833-112.509l1.833-112.51l0.066-496.297c0,0-4.545-29.242-21.594-45.671
		c-8.059-7.837-16.356-16.943-37.797-20.559c21.44-3.616,29.737-12.723,37.797-20.559c17.049-16.429,21.594-45.671,21.594-45.671
		L1634.041,34.057z M834.049,46.747l109.695,1.787c2.947-0.377,5.91-0.367,8.729,0.047c54.763,0.007,472.549,0.062,474.522,0.062
		c46.369,1.193,63.742,33.802,64.909,51.388c1.175,17.608-12.6,84.488-62.222,96.813c-68.533,17.028-85.788-25.222-88.604-32.307
		c-13.723-34.444,18.518-74.029,51.67-83.402c38.769-10.959,56.671,34.595,42.294,57.566
		c-26.228,41.908-88.101,27.597-88.101,27.597c2.919,8.797,11.737,18.195,11.737,18.195c34.018,7.064,58.679-4.685,66.884-8.797
		c48.249-29.554,33.482-77.406,29.389-83.889c-34.786-62.75-97.4-12.938-97.4-12.938c-1.193-12.908-12.016-19.811-26.415-9.986
		c-38.74,26.397-48.124,8.202-53.388-1.784c2.816,59.549,48.388,42.918,57.262,31.169c-41.945,63.426,10.28,117.849,34.253,107.372
		c-18.228,21.698,25.211,24.634,32.822,15.251c16.436-23.46,27.003-11.726,27.003-11.726
		c-32.418,25.486-65.368,57.581-81.614,79.778c-13.416,18.412-20.366,36.742-22.381,54.063c17.321-2.014,35.651-8.965,54.063-22.381
		c22.197-16.246,54.292-49.196,79.778-81.614c0,0,11.734,10.566-11.726,27.002c-9.384,7.611-6.447,51.05,15.251,32.822
		c-10.478,23.974,43.946,76.198,107.372,34.253c-11.748,8.874-28.38,54.446,31.169,57.262c-9.986-5.265-28.181-14.649-1.784-53.388
		c9.825-14.399,2.922-25.222-9.986-26.415c0,0,49.812-62.614-12.938-97.4c-6.484-4.093-54.335-18.86-83.89,29.389
		c-4.112,8.205-15.86,32.866-8.797,66.884c0,0,9.399,8.818,18.195,11.737c0,0-14.311-61.873,27.597-88.101
		c22.971-14.377,68.525,3.524,57.566,42.294c-9.373,33.152-48.957,65.394-83.402,51.67c-7.086-2.816-49.335-20.071-32.307-88.604
		c12.325-49.621,79.205-63.396,96.813-62.222c17.586,1.168,50.194,18.54,51.388,64.909c0,1.973,0.054,419.759,0.062,474.522
		c0.413,2.82,0.423,5.783,0.047,8.729l1.787,109.695l-1.787,109.695c0.376,2.947,0.367,5.91-0.047,8.729
		c-0.007,54.763-0.062,472.549-0.062,474.522c-1.193,46.369-33.802,63.742-51.388,64.909c-17.608,1.175-84.488-12.6-96.813-62.222
		c-17.028-68.533,25.222-85.788,32.307-88.604c34.444-13.723,74.029,18.518,83.402,51.67c10.959,38.769-34.595,56.671-57.566,42.294
		c-41.908-26.228-27.597-88.101-27.597-88.101c-8.797,2.919-18.195,11.737-18.195,11.737c-7.064,34.018,4.685,58.679,8.797,66.884
		c29.554,48.249,77.406,33.482,83.89,29.389c62.75-34.786,12.938-97.4,12.938-97.4c12.908-1.193,19.811-12.016,9.986-26.415
		c-26.397-38.74-8.202-48.124,1.784-53.388c-59.549,2.816-42.918,48.388-31.169,57.262c-63.426-41.945-117.849,10.28-107.372,34.253
		c-21.698-18.228-24.634,25.211-15.251,32.822c23.46,16.436,11.726,27.003,11.726,27.003
		c-25.486-32.418-57.581-65.368-79.778-81.614c-18.412-13.416-36.742-20.366-54.063-22.381c2.014,17.321,8.965,35.651,22.381,54.063
		c16.246,22.197,49.196,54.292,81.614,79.778c0,0-10.566,11.734-27.003-11.726c-7.611-9.384-51.05-6.447-32.822,15.251
		c-23.974-10.478-76.198,43.946-34.253,107.372c-8.874-11.748-54.446-28.38-57.262,31.169c5.265-9.986,14.649-28.181,53.388-1.784
		c14.399,9.825,25.222,2.922,26.415-9.986c0,0,62.614,49.812,97.4-12.938c4.093-6.484,18.86-54.335-29.389-83.89
		c-8.205-4.112-32.866-15.86-66.884-8.797c0,0-8.818,9.399-11.737,18.195c0,0,61.873-14.311,88.101,27.597
		c14.377,22.971-3.524,68.525-42.294,57.566c-33.152-9.373-65.394-48.957-51.67-83.402c2.816-7.086,20.071-49.335,88.604-32.307
		c49.621,12.325,63.396,79.205,62.222,96.813c-1.168,17.586-18.54,50.194-64.909,51.388c-1.973,0-419.759,0.054-474.522,0.062
		c-2.82,0.413-5.783,0.423-8.729,0.047l-109.695,1.787l-109.695-1.787c-2.947,0.376-5.91,0.367-8.729-0.047
		c-54.763-0.007-472.549-0.062-474.522-0.062c-46.369-1.193-63.742-33.802-64.909-51.388c-1.175-17.608,12.6-84.488,62.222-96.813
		c68.533-17.028,85.788,25.222,88.604,32.307c13.723,34.444-18.518,74.029-51.67,83.402c-38.769,10.959-56.67-34.595-42.294-57.566
		c26.228-41.908,88.101-27.597,88.101-27.597c-2.919-8.797-11.737-18.195-11.737-18.195c-34.018-7.064-58.679,4.685-66.884,8.797
		c-48.249,29.554-33.482,77.406-29.389,83.89c34.786,62.75,97.4,12.938,97.4,12.938c1.193,12.908,12.016,19.811,26.415,9.986
		c38.74-26.397,48.124-8.202,53.388,1.784c-2.816-59.549-48.388-42.918-57.262-31.169c41.945-63.426-10.28-117.849-34.253-107.372
		c18.228-21.698-25.211-24.634-32.822-15.251c-16.436,23.46-27.002,11.726-27.002,11.726c32.418-25.486,65.368-57.581,81.614-79.778
		c13.416-18.412,20.366-36.742,22.381-54.063c-17.321,2.014-35.651,8.965-54.063,22.381c-22.197,16.246-54.292,49.196-79.778,81.614
		c0,0-11.734-10.566,11.726-27.003c9.384-7.611,6.447-51.05-15.251-32.822c10.478-23.974-43.946-76.198-107.372-34.253
		c11.748-8.874,28.379-54.446-31.169-57.262c9.986,5.265,28.181,14.649,1.784,53.388c-9.824,14.399-2.922,25.222,9.986,26.415
		c0,0-49.812,62.614,12.938,97.4c6.483,4.093,54.335,18.86,83.889-29.389c4.112-8.205,15.86-32.866,8.797-66.884
		c0,0-9.399-8.818-18.195-11.737c0,0,14.311,61.873-27.597,88.101c-22.971,14.377-68.525-3.524-57.566-42.294
		c9.373-33.152,48.957-65.394,83.402-51.67c7.086,2.816,49.335,20.071,32.307,88.604c-12.325,49.621-79.205,63.396-96.813,62.222
		c-17.586-1.168-50.194-18.54-51.388-64.909c0-1.973-0.054-419.759-0.062-474.522c-0.413-2.82-0.423-5.783-0.047-8.729
		l-1.787-109.695l1.787-109.695c-0.377-2.947-0.367-5.91,0.047-8.729c0.007-54.763,0.062-472.549,0.062-474.522
		c1.193-46.369,33.802-63.742,51.388-64.909c17.608-1.175,84.488,12.6,96.813,62.222c17.028,68.533-25.222,85.788-32.307,88.604
		c-34.444,13.723-74.029-18.518-83.402-51.67c-10.959-38.769,34.595-56.67,57.566-42.294c41.908,26.228,27.597,88.101,27.597,88.101
		c8.797-2.919,18.195-11.737,18.195-11.737c7.064-34.018-4.685-58.679-8.797-66.884c-29.554-48.249-77.406-33.482-83.889-29.389
		c-62.75,34.786-12.938,97.4-12.938,97.4c-12.908,1.193-19.811,12.016-9.986,26.415c26.397,38.74,8.202,48.124-1.784,53.388
		c59.549-2.816,42.918-48.388,31.169-57.262c63.426,41.945,117.849-10.28,107.372-34.253c21.698,18.228,24.634-25.211,15.251-32.822
		c-23.46-16.436-11.726-27.002-11.726-27.002c25.486,32.418,57.581,65.368,79.778,81.614c18.412,13.416,36.742,20.366,54.063,22.381
		c-2.014-17.321-8.965-35.651-22.381-54.063c-16.246-22.197-49.196-54.292-81.614-79.778c0,0,10.566-11.734,27.002,11.726
		c7.611,9.384,51.05,6.447,32.822-15.251c23.974,10.478,76.198-43.946,34.253-107.372c8.874,11.748,54.446,28.379,57.262-31.169
		c-5.265,9.986-14.649,28.181-53.388,1.784c-14.399-9.824-25.222-2.922-26.415,9.986c0,0-62.614-49.812-97.4,12.938
		c-4.093,6.483-18.86,54.335,29.389,83.889c8.205,4.112,32.866,15.86,66.884,8.797c0,0,8.818-9.399,11.737-18.195
		c0,0-61.873,14.311-88.101-27.597c-14.377-22.971,3.524-68.525,42.294-57.566c33.152,9.373,65.394,48.957,51.67,83.402
		c-2.816,7.086-20.071,49.335-88.604,32.307c-49.621-12.325-63.396-79.205-62.222-96.813c1.168-17.586,18.54-50.194,64.909-51.388
		c1.973,0,419.759-0.054,474.522-0.062c2.82-0.413,5.783-0.423,8.729-0.047L834.049,46.747z"/>
	<path d="M834.049,169.413c53.435,7.756,70.895-30.282,75.491-44.492c-4.358,24.62,25.553,47.176,51.289,27.755
		c36.511-27.572,7.636-53.418,7.636-53.418c44.037-5.837,96.831-15.214,153.156,19.443c9.384,8.202,44.012,32.873,26.959,78.618
		c0,0,11.161,4.112,16.447,14.098c0,0,49.324-122.622-129.065-132.058c-16.998-2.364-53.693,5.801-82.44,5.177
		c-11.282,0-26.041-3.458-25.167-14.171c1.615-19.869,31.262-17.27,33.953-8.15c1.439,4.883,0,6.719,0,6.719
		c1.872-10.471-16.789-10.463-17.193-0.808c-0.606,14.428,24.708,16.653,24.708-0.808c0-11.363-7.855-17.346-17.351-18.738
		c-2.82-0.413-5.783-0.423-8.729-0.047c-12.225,1.562-24.144,9.743-24.144,23.091c0,18.265,21.881,21.76,32.62,21.76
		c-27.503,10.716-73.858,19.325-118.171,18.812c-44.313,0.513-90.668-8.096-118.171-18.812c10.739,0,32.62-3.495,32.62-21.76
		c0-13.347-11.919-21.529-24.144-23.091c-2.947-0.377-5.91-0.367-8.729,0.047c-9.496,1.392-17.351,7.375-17.351,18.738
		c0,17.461,25.314,15.236,24.708,0.808c-0.404-9.656-19.065-9.663-17.193,0.808c0,0-1.439-1.836,0-6.719
		c2.691-9.12,32.337-11.719,33.953,8.15c0.874,10.713-13.885,14.171-25.167,14.171c-28.747,0.624-65.441-7.541-82.44-5.177
		C453.746,88.795,503.07,211.418,503.07,211.418c5.286-9.986,16.447-14.098,16.447-14.098
		c-17.053-45.745,17.575-70.416,26.959-78.618c56.325-34.657,109.119-25.281,153.156-19.443c0,0-28.875,25.846,7.637,53.418
		c25.736,19.421,55.646-3.135,51.288-27.755C763.154,139.131,780.614,177.169,834.049,169.413z M1498.684,834.049
		c-7.756,53.435,30.282,70.895,44.492,75.491c-24.62-4.358-47.176,25.553-27.755,51.289c27.572,36.511,53.418,7.636,53.418,7.636
		c5.837,44.037,15.214,96.831-19.443,153.156c-8.202,9.384-32.873,44.012-78.618,26.959c0,0-4.112,11.161-14.098,16.447
		c0,0,122.622,49.324,132.058-129.065c2.364-16.998-5.801-53.693-5.177-82.44c0-11.282,3.458-26.041,14.171-25.167
		c19.869,1.615,17.27,31.262,8.15,33.953c-4.883,1.439-6.719,0-6.719,0c10.471,1.872,10.463-16.789,0.808-17.193
		c-14.428-0.606-16.653,24.708,0.808,24.708c11.363,0,17.346-7.855,18.738-17.351c0.413-2.82,0.423-5.783,0.047-8.729
		c-1.562-12.225-9.744-24.144-23.091-24.144c-18.265,0-21.76,21.881-21.76,32.62c-10.716-27.503-19.325-73.858-18.812-118.171
		c-0.513-44.313,8.096-90.668,18.812-118.171c0,10.739,3.495,32.62,21.76,32.62c13.347,0,21.529-11.919,23.091-24.144
		c0.376-2.947,0.367-5.91-0.047-8.729c-1.392-9.496-7.375-17.351-18.738-17.351c-17.461,0-15.236,25.314-0.808,24.708
		c9.656-0.404,9.663-19.065-0.808-17.193c0,0,1.836-1.439,6.719,0c9.12,2.691,11.719,32.337-8.15,33.953
		c-10.713,0.874-14.171-13.885-14.171-25.167c-0.624-28.747,7.541-65.441,5.177-82.44
		c-9.435-178.389-132.058-129.065-132.058-129.065c9.986,5.286,14.098,16.447,14.098,16.447
		c45.745-17.053,70.416,17.575,78.618,26.959c34.657,56.325,25.281,109.119,19.443,153.156c0,0-25.846-28.875-53.418,7.637
		c-19.421,25.736,3.135,55.646,27.755,51.288C1528.966,763.154,1490.928,780.614,1498.684,834.049z M834.049,1498.684
		c-53.435-7.756-70.895,30.282-75.492,44.492c4.358-24.62-25.552-47.176-51.288-27.755c-36.511,27.572-7.637,53.418-7.637,53.418
		c-44.037,5.837-96.831,15.214-153.156-19.443c-9.384-8.202-44.012-32.873-26.959-78.618c0,0-11.161-4.112-16.447-14.098
		c0,0-49.324,122.622,129.065,132.058c16.998,2.364,53.693-5.801,82.44-5.177c11.282,0,26.041,3.458,25.167,14.171
		c-1.615,19.869-31.262,17.27-33.953,8.15c-1.439-4.883,0-6.719,0-6.719c-1.872,10.471,16.789,10.463,17.193,0.808
		c0.606-14.428-24.708-16.653-24.708,0.808c0,11.363,7.855,17.346,17.351,18.738c2.82,0.413,5.783,0.423,8.729,0.047
		c12.225-1.562,24.144-9.744,24.144-23.091c0-18.265-21.881-21.76-32.62-21.76c27.503-10.716,73.858-19.325,118.171-18.812
		c44.313-0.513,90.668,8.096,118.171,18.812c-10.739,0-32.62,3.495-32.62,21.76c0,13.347,11.919,21.529,24.144,23.091
		c2.947,0.376,5.91,0.367,8.729-0.047c9.496-1.392,17.351-7.375,17.351-18.738c0-17.461-25.314-15.236-24.708-0.808
		c0.404,9.656,19.065,9.663,17.193-0.808c0,0,1.439,1.836,0,6.719c-2.691,9.12-32.337,11.719-33.953-8.15
		c-0.874-10.713,13.885-14.171,25.167-14.171c28.747-0.624,65.441,7.541,82.44,5.177c178.389-9.435,129.065-132.058,129.065-132.058
		c-5.286,9.986-16.447,14.098-16.447,14.098c17.053,45.745-17.575,70.416-26.959,78.618
		c-56.325,34.657-109.119,25.281-153.156,19.443c0,0,28.875-25.846-7.636-53.418c-25.736-19.421-55.646,3.135-51.289,27.755
		C904.944,1528.966,887.484,1490.928,834.049,1498.684z M169.413,834.049c7.756-53.435-30.282-70.895-44.492-75.492
		c24.62,4.358,47.176-25.552,27.755-51.288c-27.572-36.511-53.418-7.637-53.418-7.637c-5.837-44.037-15.214-96.831,19.443-153.156
		c8.202-9.384,32.873-44.012,78.618-26.959c0,0,4.112-11.161,14.098-16.447c0,0-122.622-49.324-132.058,129.065
		c-2.364,16.998,5.801,53.693,5.177,82.44c0,11.282-3.458,26.041-14.171,25.167c-19.869-1.615-17.27-31.262-8.15-33.953
		c4.883-1.439,6.719,0,6.719,0c-10.471-1.872-10.463,16.789-0.808,17.193c14.428,0.606,16.653-24.708-0.808-24.708
		c-11.363,0-17.346,7.855-18.738,17.351c-0.413,2.82-0.423,5.783-0.047,8.729c1.562,12.225,9.743,24.144,23.091,24.144
		c18.265,0,21.76-21.881,21.76-32.62c10.716,27.503,19.325,73.858,18.812,118.171c0.513,44.313-8.096,90.668-18.812,118.171
		c0-10.739-3.495-32.62-21.76-32.62c-13.347,0-21.529,11.919-23.091,24.144c-0.377,2.947-0.367,5.91,0.047,8.729
		c1.392,9.496,7.375,17.351,18.738,17.351c17.461,0,15.236-25.314,0.808-24.708c-9.656,0.404-9.663,19.065,0.808,17.193
		c0,0-1.836,1.439-6.719,0c-9.12-2.691-11.719-32.337,8.15-33.953c10.713-0.874,14.171,13.885,14.171,25.167
		c0.624,28.747-7.541,65.441-5.177,82.44c9.435,178.389,132.058,129.065,132.058,129.065c-9.986-5.286-14.098-16.447-14.098-16.447
		c-45.745,17.053-70.416-17.575-78.618-26.959c-34.657-56.325-25.281-109.119-19.443-153.156c0,0,25.846,28.875,53.418-7.636
		c19.421-25.736-3.135-55.646-27.755-51.289C139.131,904.944,177.169,887.484,169.413,834.049z M834.049,128.819
		c17.81,0.123,38.883-1.995,63.413-7.863c0,0-6.389,36.741-63.413,30.985c-57.024,5.756-63.413-30.985-63.413-30.985
		C795.165,126.824,816.239,128.942,834.049,128.819z M1539.278,834.049c-0.123,17.81,1.995,38.883,7.863,63.413
		c0,0-36.741-6.389-30.985-63.413c-5.756-57.024,30.985-63.413,30.985-63.413C1541.273,795.165,1539.155,816.239,1539.278,834.049z
		 M834.049,1539.278c-17.81-0.123-38.883,1.995-63.413,7.863c0,0,6.389-36.741,63.413-30.985
		c57.024-5.756,63.413,30.985,63.413,30.985C872.932,1541.273,851.859,1539.155,834.049,1539.278z M128.819,834.049
		c0.123-17.81-1.995-38.883-7.863-63.413c0,0,36.741,6.389,30.985,63.413c5.756,57.024-30.985,63.413-30.985,63.413
		C126.824,872.932,128.942,851.859,128.819,834.049z M958.497,108.657c3.517,5.859,11.124,23.46-11.179,32.271
		c-22.274,8.796-30.997-18.922-21.092-25.846c9.912-6.928,18.779-8.202,18.779-8.202S954.973,102.783,958.497,108.657z
		 M108.657,709.6c5.859-3.517,23.46-11.124,32.271,11.179c8.796,22.274-18.922,30.997-25.846,21.092
		c-6.928-9.912-8.202-18.779-8.202-18.779S102.783,713.125,108.657,709.6z M709.6,1559.44c-3.517-5.859-11.124-23.46,11.179-32.271
		c22.274-8.796,30.997,18.922,21.092,25.846c-9.912,6.928-18.779,8.202-18.779,8.202S713.125,1565.314,709.6,1559.44z
		 M1559.44,958.497c-5.859,3.517-23.46,11.124-32.271-11.179c-8.796-22.274,18.922-30.997,25.846-21.092
		c6.928,9.912,8.202,18.779,8.202,18.779S1565.314,954.973,1559.44,958.497z M1561.217,723.092c0,0-1.274,8.866-8.202,18.779
		c-6.924,9.905-34.642,1.182-25.846-21.092c8.811-22.303,26.411-14.696,32.271-11.179
		C1565.314,713.125,1561.217,723.092,1561.217,723.092z M723.092,106.88c0,0,8.866,1.274,18.779,8.202
		c9.905,6.924,1.182,34.642-21.092,25.846c-22.303-8.811-14.696-26.412-11.179-32.271
		C713.125,102.783,723.092,106.88,723.092,106.88z M106.88,945.005c0,0,1.274-8.866,8.202-18.779
		c6.924-9.905,34.642-1.182,25.846,21.092c-8.811,22.303-26.412,14.696-32.271,11.179
		C102.783,954.973,106.88,945.005,106.88,945.005z M945.005,1561.217c0,0-8.866-1.274-18.779-8.202
		c-9.905-6.924-1.182-34.642,21.092-25.846c22.303,8.811,14.696,26.411,11.179,32.271
		C954.973,1565.314,945.005,1561.217,945.005,1561.217z"/>
	<path d="M1117.385,206.19c-15.772,15.199-7.857,35.821-7.857,35.821s2.291-5.305,5.081-8.323
		c11.557-12.475,19.487-3.524,22.652,0.698c4.857,6.469,5.316,13.866-1.384,18.481c-6.7,4.618-15.482,5.323-15.482,5.323
		s25.347,10.236,41.365-8.554c13.4-15.713,4.277-34.084-4.16-42.521C1149.168,198.678,1130.095,193.935,1117.385,206.19z"/>
	<path d="M206.19,550.712c15.199,15.772,35.821,7.857,35.821,7.857s-5.305-2.291-8.323-5.081
		c-12.475-11.557-3.524-19.487,0.698-22.652c6.469-4.857,13.866-5.316,18.481,1.384c4.618,6.7,5.323,15.482,5.323,15.482
		s10.236-25.346-8.554-41.365c-15.713-13.4-34.084-4.277-42.521,4.16C198.678,518.93,193.935,538.003,206.19,550.712z"/>
	<path d="M550.712,1461.908c15.772-15.199,7.857-35.821,7.857-35.821s-2.291,5.305-5.081,8.323
		c-11.557,12.475-19.487,3.525-22.652-0.698c-4.857-6.469-5.316-13.866,1.384-18.481c6.7-4.618,15.482-5.323,15.482-5.323
		s-25.346-10.236-41.365,8.554c-13.4,15.713-4.277,34.085,4.16,42.521C518.93,1469.419,538.003,1474.163,550.712,1461.908z"/>
	<path d="M1461.908,1117.385c-15.199-15.772-35.821-7.857-35.821-7.857s5.305,2.291,8.323,5.081
		c12.475,11.557,3.525,19.487-0.698,22.652c-6.469,4.857-13.866,5.316-18.481-1.384c-4.618-6.7-5.323-15.482-5.323-15.482
		s-10.236,25.347,8.554,41.365c15.713,13.4,34.085,4.277,42.521-4.16C1469.419,1149.168,1474.163,1130.095,1461.908,1117.385z"/>
	<path d="M1461.908,550.712c-15.199,15.772-35.821,7.857-35.821,7.857s5.305-2.291,8.323-5.081
		c12.475-11.557,3.525-19.487-0.698-22.652c-6.469-4.857-13.866-5.316-18.481,1.384c-4.618,6.7-5.323,15.482-5.323,15.482
		s-10.236-25.346,8.554-41.365c15.713-13.4,34.085-4.277,42.521,4.16C1469.419,518.93,1474.163,538.003,1461.908,550.712z"/>
	<path d="M550.712,206.19c15.772,15.199,7.857,35.821,7.857,35.821s-2.291-5.305-5.081-8.323
		c-11.557-12.475-19.487-3.524-22.652,0.698c-4.857,6.469-5.316,13.866,1.384,18.481c6.7,4.618,15.482,5.323,15.482,5.323
		s-25.346,10.236-41.365-8.554c-13.4-15.713-4.277-34.084,4.16-42.521C518.93,198.678,538.003,193.935,550.712,206.19z"/>
	<path d="M206.19,1117.385c15.199-15.772,35.821-7.857,35.821-7.857s-5.305,2.291-8.323,5.081
		c-12.475,11.557-3.524,19.487,0.698,22.652c6.469,4.857,13.866,5.316,18.481-1.384c4.618-6.7,5.323-15.482,5.323-15.482
		s10.236,25.347-8.554,41.365c-15.713,13.4-34.084,4.277-42.521-4.16C198.678,1149.168,193.935,1130.095,206.19,1117.385z"/>
	<path d="M1117.385,1461.908c-15.772-15.199-7.857-35.821-7.857-35.821s2.291,5.305,5.081,8.323
		c11.557,12.475,19.487,3.525,22.652-0.698c4.857-6.469,5.316-13.866-1.384-18.481c-6.7-4.618-15.482-5.323-15.482-5.323
		s25.347-10.236,41.365,8.554c13.4,15.713,4.277,34.085-4.16,42.521C1149.168,1469.419,1130.095,1474.163,1117.385,1461.908z"/>
</g>
</svg>
