<?xml version="1.0" encoding="utf-8"?>

<!DOCTYPE svg PUBLIC "-//W3C//DTD SVG 1.1//EN" "http://www.w3.org/Graphics/SVG/1.1/DTD/svg11.dtd">
<svg version="1.1" id="Layer_1" xmlns="http://www.w3.org/2000/svg" xmlns:xlink="http://www.w3.org/1999/xlink" x="0px" y="0px"
	 viewBox="0 0 1647.099 1647.099" enable-background="new 0 0 1647.099 1647.099" xml:space="preserve">
<g>
	<path d="M1309.446,153.464c4.41-17.01-6.91-24.37-13.793-25.431c-7.948-33.369-29.45-49.138-29.45-49.138l-20.955,0.53
		c23.856,15.882,22.321,43.323,21.27,50.199c-13.777,44.529-48.226,23.86-51.957,12.222c-4.194,46.632,41.363,48.21,59.401,27.553
		c-12.219,0-9.556-12.202-9.556-12.202c8.468-15.372,17.487-5.325,17.487-5.325c4.735,32.328-19.065,50.896-27.553,57.262
		c-50.206,27.852-86.917-8.455-86.917-8.455c-8.972,3.17-11.051,15.902-11.051,15.902c89.573,55.65,143.015-24.934,139.301-44.032
		c26.499,41.326,54.822,21.575,64.656,7.938C1345.885,200.514,1305.964,166.886,1309.446,153.464z"/>
	<path d="M153.464,337.653c-17.01-4.41-24.37,6.91-25.431,13.793c-33.369,7.948-49.138,29.45-49.138,29.45l0.53,20.955
		c15.882-23.856,43.323-22.321,50.199-21.27c44.529,13.777,23.86,48.226,12.222,51.957c46.632,4.194,48.21-41.363,27.553-59.401
		c0,12.219-12.202,9.556-12.202,9.556c-15.372-8.468-5.325-17.487-5.325-17.487c32.328-4.735,50.896,19.065,57.262,27.553
		c27.852,50.206-8.455,86.917-8.455,86.917c3.17,8.972,15.902,11.051,15.902,11.051c55.65-89.573-24.934-143.015-44.032-139.301
		c41.326-26.499,21.575-54.822,7.938-64.656C200.514,301.213,166.886,341.134,153.464,337.653z"/>
	<path d="M337.653,1493.634c-4.41,17.01,6.91,24.37,13.793,25.432c7.948,33.369,29.45,49.138,29.45,49.138l20.955-0.53
		c-23.856-15.882-22.321-43.323-21.27-50.199c13.777-44.529,48.226-23.859,51.957-12.222c4.194-46.632-41.363-48.21-59.401-27.553
		c12.219,0,9.556,12.202,9.556,12.202c-8.468,15.372-17.487,5.325-17.487,5.325c-4.735-32.328,19.065-50.896,27.553-57.262
		c50.206-27.852,86.917,8.455,86.917,8.455c8.972-3.17,11.051-15.902,11.051-15.902c-89.573-55.65-143.015,24.934-139.301,44.032
		c-26.499-41.326-54.822-21.575-64.656-7.938C301.213,1446.585,341.134,1480.213,337.653,1493.634z"/>
	<path d="M1493.634,1309.446c17.01,4.41,24.37-6.91,25.432-13.793c33.369-7.948,49.138-29.45,49.138-29.45l-0.53-20.955
		c-15.882,23.856-43.323,22.321-50.199,21.27c-44.529-13.777-23.859-48.226-12.222-51.957c-46.632-4.194-48.21,41.363-27.553,59.401
		c0-12.219,12.202-9.556,12.202-9.556c15.372,8.468,5.325,17.487,5.325,17.487c-32.328,4.735-50.896-19.065-57.262-27.553
		c-27.852-50.206,8.455-86.917,8.455-86.917c-3.17-8.972-15.902-11.051-15.902-11.051c-55.65,89.573,24.934,143.015,44.032,139.301
		c-41.326,26.499-21.575,54.822-7.938,64.656C1446.585,1345.885,1480.213,1305.964,1493.634,1309.446z"/>
	<path d="M1493.634,337.653c17.01-4.41,24.37,6.91,25.432,13.793c33.369,7.948,49.138,29.45,49.138,29.45l-0.53,20.955
		c-15.882-23.856-43.323-22.321-50.199-21.27c-44.529,13.777-23.859,48.226-12.222,51.957c-46.632,4.194-48.21-41.363-27.553-59.401
		c0,12.219,12.202,9.556,12.202,9.556c15.372-8.468,5.325-17.487,5.325-17.487c-32.328-4.735-50.896,19.065-57.262,27.553
		c-27.852,50.206,8.455,86.917,8.455,86.917c-3.17,8.972-15.902,11.051-15.902,11.051c-55.65-89.573,24.934-143.015,44.032-139.301
		c-41.326-26.499-21.575-54.822-7.938-64.656C1446.585,301.213,1480.213,341.134,1493.634,337.653z"/>
	<path d="M337.653,153.464c-4.41-17.01,6.91-24.37,13.793-25.431c7.948-33.369,29.45-49.138,29.45-49.138l20.955,0.53
		c-23.856,15.882-22.321,43.323-21.27,50.199c13.777,44.529,48.226,23.86,51.957,12.222c4.194,46.632-41.363,48.21-59.401,27.553
		c12.219,0,9.556-12.202,9.556-12.202c-8.468-15.372-17.487-5.325-17.487-5.325c-4.735,32.328,19.065,50.896,27.553,57.262
		c50.206,27.852,86.917-8.455,86.917-8.455c8.972,3.17,11.051,15.902,11.051,15.902c-89.573,55.65-143.015-24.934-139.301-44.032
		c-26.499,41.326-54.822,21.575-64.656,7.938C301.213,200.514,341.134,166.886,337.653,153.464z"/>
	<path d="M153.464,1309.446c-17.01,4.41-24.37-6.91-25.431-13.793c-33.369-7.948-49.138-29.45-49.138-29.45l0.53-20.955
		c15.882,23.856,43.323,22.321,50.199,21.27c44.529-13.777,23.86-48.226,12.222-51.957c46.632-4.194,48.21,41.363,27.553,59.401
		c0-12.219-12.202-9.556-12.202-9.556c-15.372,8.468-5.325,17.487-5.325,17.487c32.328,4.735,50.896-19.065,57.262-27.553
		c27.852-50.206-8.455-86.917-8.455-86.917c3.17-8.972,15.902-11.051,15.902-11.051c55.65,89.573-24.934,143.015-44.032,139.301
		c41.326,26.499,21.575,54.822,7.938,64.656C200.514,1345.885,166.886,1305.964,153.464,1309.446z"/>
	<path d="M1309.446,1493.634c4.41,17.01-6.91,24.37-13.793,25.432c-7.948,33.369-29.45,49.138-29.45,49.138l-20.955-0.53
		c23.856-15.882,22.321-43.323,21.27-50.199c-13.777-44.529-48.226-23.859-51.957-12.222c-4.194-46.632,41.363-48.21,59.401-27.553
		c-12.219,0-9.556,12.202-9.556,12.202c8.468,15.372,17.487,5.325,17.487,5.325c4.735-32.328-19.065-50.896-27.553-57.262
		c-50.206-27.852-86.917,8.455-86.917,8.455c-8.972-3.17-11.051-15.902-11.051-15.902c89.573-55.65,143.015,24.934,139.301,44.032
		c26.499-41.326,54.822-21.575,64.656-7.938C1345.885,1446.585,1305.964,1480.213,1309.446,1493.634z"/>
	<path d="M1157.316,70.824c5.835-5.272,33.528-17.55,62.683-5.381l28.2-2.729c0,0-60.776-37.401-126.924-17.308
		c-52.487,15.942-66.785,42.441-123.99,81.665c0,0,0,10.08-3.697,18.037c0,0-12.308,61.41,42.938,51.91
		c8.616-1.595,32.794-15.532,23.84-50.352c0,0,33.389,32.315,55.09,2.619c21.734-29.675-0.547-59.881-1.078-67.289
		C1120.406,90.128,1130.293,97.913,1157.316,70.824z M1072.518,140.288c-16.402-4.231-19.354-12.467-29.221-14.798
		c-11.214-2.642-30.478,5.01-26.914,25.952c1.293,8.508,18.221,16.689,25.962,3.7c8-13.427-11.018-19.317-14.854-11.638
		c-4.344,8.601,2.404,10.312,4.234,11.651c-10.053,0.531-9.274-10.079-8.478-12.712c9.267-17.494,22.795-6.366,25.183-4.264
		c11.936,12.202,0.292,52.222-26.227,42.693c-26.509-9.536-9.815-37.633-7.686-42.394c13.754-25.199,82.653-69.198,94.026-75.578
		c0,0-10.577,15.915-1.028,32.341C1117.064,111.673,1112.826,146.654,1072.518,140.288z M1117.031,59.73
		c23.839-10.61,56.691-10.093,56.691-10.093c-17.467,0.013-41.323,33.402-54.039,28.117
		C1106.984,72.462,1117.031,59.73,1117.031,59.73z"/>
	<path d="M70.824,489.782c-5.272-5.835-17.55-33.528-5.381-62.683l-2.729-28.2c0,0-37.401,60.776-17.308,126.924
		c15.942,52.487,42.441,66.785,81.665,123.99c0,0,10.08,0,18.037,3.697c0,0,61.41,12.308,51.91-42.938
		c-1.595-8.616-15.532-32.794-50.352-23.84c0,0,32.315-33.389,2.619-55.09c-29.675-21.734-59.881,0.547-67.289,1.078
		C90.128,526.693,97.913,516.805,70.824,489.782z M140.288,574.581c-4.231,16.402-12.467,19.354-14.798,29.221
		c-2.642,11.214,5.01,30.478,25.952,26.914c8.508-1.293,16.689-18.221,3.7-25.962c-13.427-8-19.317,11.018-11.638,14.854
		c8.601,4.344,10.312-2.404,11.651-4.234c0.531,10.053-10.079,9.274-12.712,8.478c-17.494-9.267-6.366-22.795-4.264-25.183
		c12.202-11.936,52.222-0.292,42.693,26.227c-9.536,26.509-37.633,9.815-42.394,7.686c-25.199-13.753-69.198-82.653-75.578-94.026
		c0,0,15.915,10.577,32.341,1.028C111.673,530.035,146.654,534.272,140.288,574.581z M59.73,530.068
		c-10.61-23.839-10.093-56.691-10.093-56.691c0.013,17.467,33.402,41.323,28.117,54.039C72.462,540.114,59.73,530.068,59.73,530.068
		z"/>
	<path d="M489.782,1576.274c-5.835,5.272-33.528,17.55-62.683,5.381l-28.2,2.729c0,0,60.776,37.401,126.924,17.308
		c52.487-15.942,66.785-42.441,123.99-81.665c0,0,0-10.08,3.697-18.037c0,0,12.308-61.41-42.938-51.91
		c-8.616,1.595-32.794,15.532-23.84,50.352c0,0-33.389-32.315-55.09-2.62c-21.734,29.675,0.547,59.881,1.078,67.289
		C526.693,1556.97,516.805,1549.185,489.782,1576.274z M574.581,1506.811c16.402,4.231,19.354,12.467,29.221,14.798
		c11.214,2.642,30.478-5.01,26.914-25.952c-1.293-8.508-18.221-16.689-25.962-3.7c-8,13.427,11.018,19.317,14.854,11.638
		c4.344-8.601-2.404-10.312-4.234-11.651c10.053-0.531,9.274,10.079,8.478,12.712c-9.267,17.494-22.795,6.366-25.183,4.264
		c-11.936-12.202-0.292-52.222,26.227-42.693c26.509,9.536,9.815,37.633,7.686,42.394c-13.753,25.199-82.653,69.198-94.026,75.578
		c0,0,10.577-15.915,1.028-32.341C530.035,1535.425,534.272,1500.445,574.581,1506.811z M530.068,1587.368
		c-23.839,10.61-56.691,10.093-56.691,10.093c17.467-0.013,41.323-33.402,54.039-28.117
		C540.114,1574.636,530.068,1587.368,530.068,1587.368z"/>
	<path d="M1576.274,1157.316c5.272,5.835,17.55,33.528,5.381,62.683l2.729,28.2c0,0,37.401-60.776,17.308-126.924
		c-15.942-52.487-42.441-66.785-81.665-123.99c0,0-10.08,0-18.037-3.697c0,0-61.41-12.308-51.91,42.938
		c1.595,8.616,15.532,32.794,50.352,23.84c0,0-32.315,33.389-2.62,55.09c29.675,21.734,59.881-0.547,67.289-1.078
		C1556.97,1120.406,1549.185,1130.293,1576.274,1157.316z M1506.811,1072.518c4.231-16.402,12.467-19.354,14.798-29.221
		c2.642-11.214-5.01-30.478-25.952-26.914c-8.508,1.293-16.689,18.221-3.7,25.962c13.427,8,19.317-11.018,11.638-14.854
		c-8.601-4.344-10.312,2.404-11.651,4.234c-0.531-10.053,10.079-9.274,12.712-8.478c17.494,9.267,6.366,22.795,4.264,25.183
		c-12.202,11.936-52.222,0.292-42.693-26.227c9.536-26.509,37.633-9.815,42.394-7.686c25.199,13.754,69.198,82.653,75.578,94.026
		c0,0-15.915-10.577-32.341-1.028C1535.425,1117.064,1500.445,1112.826,1506.811,1072.518z M1587.368,1117.031
		c10.61,23.839,10.093,56.691,10.093,56.691c-0.013-17.467-33.402-41.323-28.117-54.039
		C1574.636,1106.984,1587.368,1117.031,1587.368,1117.031z"/>
	<path d="M1576.274,489.782c5.272-5.835,17.55-33.528,5.381-62.683l2.729-28.2c0,0,37.401,60.776,17.308,126.924
		c-15.942,52.487-42.441,66.785-81.665,123.99c0,0-10.08,0-18.037,3.697c0,0-61.41,12.308-51.91-42.938
		c1.595-8.616,15.532-32.794,50.352-23.84c0,0-32.315-33.389-2.62-55.09c29.675-21.734,59.881,0.547,67.289,1.078
		C1556.97,526.693,1549.185,516.805,1576.274,489.782z M1506.811,574.581c4.231,16.402,12.467,19.354,14.798,29.221
		c2.642,11.214-5.01,30.478-25.952,26.914c-8.508-1.293-16.689-18.221-3.7-25.962c13.427-8,19.317,11.018,11.638,14.854
		c-8.601,4.344-10.312-2.404-11.651-4.234c-0.531,10.053,10.079,9.274,12.712,8.478c17.494-9.267,6.366-22.795,4.264-25.183
		c-12.202-11.936-52.222-0.292-42.693,26.227c9.536,26.509,37.633,9.815,42.394,7.686c25.199-13.753,69.198-82.653,75.578-94.026
		c0,0-15.915,10.577-32.341,1.028C1535.425,530.035,1500.445,534.272,1506.811,574.581z M1587.368,530.068
		c10.61-23.839,10.093-56.691,10.093-56.691c-0.013,17.467-33.402,41.323-28.117,54.039
		C1574.636,540.114,1587.368,530.068,1587.368,530.068z"/>
	<path d="M489.782,70.824c-5.835-5.272-33.528-17.55-62.683-5.381l-28.2-2.729c0,0,60.776-37.401,126.924-17.308
		c52.487,15.942,66.785,42.441,123.99,81.665c0,0,0,10.08,3.697,18.037c0,0,12.308,61.41-42.938,51.91
		c-8.616-1.595-32.794-15.532-23.84-50.352c0,0-33.389,32.315-55.09,2.619c-21.734-29.675,0.547-59.881,1.078-67.289
		C526.693,90.128,516.805,97.913,489.782,70.824z M574.581,140.288c16.402-4.231,19.354-12.467,29.221-14.798
		c11.214-2.642,30.478,5.01,26.914,25.952c-1.293,8.508-18.221,16.689-25.962,3.7c-8-13.427,11.018-19.317,14.854-11.638
		c4.344,8.601-2.404,10.312-4.234,11.651c10.053,0.531,9.274-10.079,8.478-12.712c-9.267-17.494-22.795-6.366-25.183-4.264
		c-11.936,12.202-0.292,52.222,26.227,42.693c26.509-9.536,9.815-37.633,7.686-42.394c-13.753-25.199-82.653-69.198-94.026-75.578
		c0,0,10.577,15.915,1.028,32.341C530.035,111.673,534.272,146.654,574.581,140.288z M530.068,59.73
		c-23.839-10.61-56.691-10.093-56.691-10.093c17.467,0.013,41.323,33.402,54.039,28.117C540.114,72.462,530.068,59.73,530.068,59.73
		z"/>
	<path d="M70.824,1157.316c-5.272,5.835-17.55,33.528-5.381,62.683l-2.729,28.2c0,0-37.401-60.776-17.308-126.924
		c15.942-52.487,42.441-66.785,81.665-123.99c0,0,10.08,0,18.037-3.697c0,0,61.41-12.308,51.91,42.938
		c-1.595,8.616-15.532,32.794-50.352,23.84c0,0,32.315,33.389,2.619,55.09c-29.675,21.734-59.881-0.547-67.289-1.078
		C90.128,1120.406,97.913,1130.293,70.824,1157.316z M140.288,1072.518c-4.231-16.402-12.467-19.354-14.798-29.221
		c-2.642-11.214,5.01-30.478,25.952-26.914c8.508,1.293,16.689,18.221,3.7,25.962c-13.427,8-19.317-11.018-11.638-14.854
		c8.601-4.344,10.312,2.404,11.651,4.234c0.531-10.053-10.079-9.274-12.712-8.478c-17.494,9.267-6.366,22.795-4.264,25.183
		c12.202,11.936,52.222,0.292,42.693-26.227c-9.536-26.509-37.633-9.815-42.394-7.686c-25.199,13.754-69.198,82.653-75.578,94.026
		c0,0,15.915-10.577,32.341-1.028C111.673,1117.064,146.654,1112.826,140.288,1072.518z M59.73,1117.031
		c-10.61,23.839-10.093,56.691-10.093,56.691c0.013-17.467,33.402-41.323,28.117-54.039
		C72.462,1106.984,59.73,1117.031,59.73,1117.031z"/>
	<path d="M1157.316,1576.274c5.835,5.272,33.528,17.55,62.683,5.381l28.2,2.729c0,0-60.776,37.401-126.924,17.308
		c-52.487-15.942-66.785-42.441-123.99-81.665c0,0,0-10.08-3.697-18.037c0,0-12.308-61.41,42.938-51.91
		c8.616,1.595,32.794,15.532,23.84,50.352c0,0,33.389-32.315,55.09-2.62c21.734,29.675-0.547,59.881-1.078,67.289
		C1120.406,1556.97,1130.293,1549.185,1157.316,1576.274z M1072.518,1506.811c-16.402,4.231-19.354,12.467-29.221,14.798
		c-11.214,2.642-30.478-5.01-26.914-25.952c1.293-8.508,18.221-16.689,25.962-3.7c8,13.427-11.018,19.317-14.854,11.638
		c-4.344-8.601,2.404-10.312,4.234-11.651c-10.053-0.531-9.274,10.079-8.478,12.712c9.267,17.494,22.795,6.366,25.183,4.264
		c11.936-12.202,0.292-52.222-26.227-42.693c-26.509,9.536-9.815,37.633-7.686,42.394c13.754,25.199,82.653,69.198,94.026,75.578
		c0,0-10.577-15.915-1.028-32.341C1117.064,1535.425,1112.826,1500.445,1072.518,1506.811z M1117.031,1587.368
		c23.839,10.61,56.691,10.093,56.691,10.093c-17.467-0.013-41.323-33.402-54.039-28.117
		C1106.984,1574.636,1117.031,1587.368,1117.031,1587.368z"/>
	<path d="M1585.069,62.029c-20.359-3.444-46.163-2.748-74.269,14.511c-46.635,28.634-142.193,17.527-185.645,0.597
		c9.698,0,29.46-3.157,29.46-19.652c0-12.054-10.764-19.443-21.805-20.854l-2.542,0.041c0,0-1.872,0-5.341,0.001
		c-8.576,1.257-15.67,6.66-15.67,16.923c0,15.769,22.862,13.76,22.314,0.73c-0.365-8.72-17.218-8.727-15.527,0.729
		c0,0-1.3-1.658,0-6.068c2.43-8.236,29.205-10.584,30.663,7.361c0.789,9.675-12.54,12.798-22.729,12.798
		c-25.962,0.564-59.102-6.811-74.453-4.675c-161.109,8.521-116.563,119.265-116.563,119.265
		c4.775-9.019,14.854-12.732,14.854-12.732c-15.401-41.313,15.872-63.595,24.347-71.002c50.87-31.3,98.549-22.832,138.32-17.56
		c0,0-26.078,23.342,6.896,48.243c23.243,17.54,50.256-2.832,46.32-25.066c4.211,13.017,20.375,48.177,70.276,39.854
		c47.706-7.971,67.292-45.073,87.958-59.914c18.141-13.045,25.333-20.485,58.426-18.821c1.664,33.093-5.776,40.285-18.821,58.426
		c-14.841,20.667-51.943,40.252-59.914,87.958c-8.322,49.901,26.837,66.065,39.854,70.276c-22.235-3.936-42.606,23.077-25.066,46.32
		c24.901,32.974,48.243,6.896,48.243,6.896c5.272,39.772,13.74,87.451-17.56,138.32c-7.407,8.475-29.688,39.748-71.002,24.347
		c0,0-3.713,10.08-12.732,14.854c0,0,110.744,44.546,119.265-116.563c2.135-15.352-5.239-48.492-4.675-74.453
		c0-10.189,3.123-23.518,12.798-22.729c17.944,1.459,15.597,28.233,7.361,30.663c-4.41,1.3-6.068,0-6.068,0
		c9.456,1.691,9.45-15.163,0.729-15.527c-13.03-0.547-15.04,22.314,0.73,22.314c10.262,0,15.665-7.094,16.923-15.67
		c0-3.469,0.001-5.341,0.001-5.341l0.042-2.542c-1.411-11.041-8.8-21.805-20.854-21.805c-16.495,0-19.652,19.761-19.652,29.46
		c-16.93-43.452-28.037-139.01,0.597-185.645C1587.817,108.193,1588.513,82.389,1585.069,62.029z M1585.069,1585.069
		c3.444-20.359,2.748-46.163-14.511-74.269c-28.634-46.635-17.527-142.193-0.597-185.645c0,9.698,3.157,29.46,19.652,29.46
		c12.054,0,19.443-10.764,20.854-21.805l-0.042-2.542c0,0,0-1.872-0.001-5.341c-1.257-8.576-6.661-15.67-16.923-15.67
		c-15.769,0-13.76,22.862-0.73,22.314c8.72-0.365,8.727-17.218-0.729-15.527c0,0,1.658-1.3,6.068,0
		c8.236,2.43,10.584,29.205-7.361,30.663c-9.675,0.789-12.798-12.54-12.798-22.729c-0.564-25.962,6.811-59.102,4.675-74.453
		c-8.521-161.109-119.265-116.563-119.265-116.563c9.019,4.775,12.732,14.854,12.732,14.854
		c41.313-15.401,63.595,15.872,71.002,24.347c31.3,50.87,22.832,98.549,17.56,138.32c0,0-23.342-26.078-48.243,6.896
		c-17.54,23.243,2.832,50.256,25.066,46.32c-13.017,4.211-48.177,20.375-39.854,70.276c7.971,47.706,45.073,67.292,59.914,87.958
		c13.045,18.141,20.485,25.333,18.821,58.426c-33.093,1.664-40.285-5.776-58.426-18.821c-20.667-14.841-40.252-51.943-87.958-59.914
		c-49.901-8.322-66.065,26.837-70.276,39.854c3.936-22.235-23.077-42.606-46.32-25.066c-32.974,24.901-6.896,48.243-6.896,48.243
		c-39.772,5.272-87.451,13.74-138.32-17.56c-8.475-7.407-39.748-29.688-24.347-71.002c0,0-10.079-3.713-14.854-12.732
		c0,0-44.546,110.744,116.563,119.265c15.352,2.135,48.492-5.239,74.453-4.675c10.189,0,23.518,3.123,22.729,12.798
		c-1.459,17.944-28.233,15.597-30.663,7.361c-1.3-4.41,0-6.068,0-6.068c-1.691,9.456,15.163,9.45,15.527,0.729
		c0.547-13.03-22.314-15.04-22.314,0.73c0,10.262,7.094,15.665,15.67,16.923c3.469,0,5.341,0.001,5.341,0.001l2.542,0.042
		c11.041-1.411,21.805-8.8,21.805-20.854c0-16.495-19.761-19.652-29.46-19.652c43.452-16.93,139.01-28.037,185.645,0.597
		C1538.906,1587.817,1564.71,1588.513,1585.069,1585.069z M62.029,1585.069c20.359,3.444,46.163,2.748,74.269-14.511
		c46.635-28.634,142.193-17.527,185.645-0.597c-9.698,0-29.46,3.157-29.46,19.652c0,12.054,10.764,19.443,21.805,20.854l2.542-0.042
		c0,0,1.872,0,5.341-0.001c8.576-1.257,15.67-6.661,15.67-16.923c0-15.769-22.862-13.76-22.314-0.73
		c0.365,8.72,17.218,8.727,15.527-0.729c0,0,1.3,1.658,0,6.068c-2.43,8.236-29.205,10.584-30.663-7.361
		c-0.789-9.675,12.54-12.798,22.729-12.798c25.962-0.564,59.102,6.811,74.453,4.675c161.109-8.521,116.563-119.265,116.563-119.265
		c-4.775,9.019-14.854,12.732-14.854,12.732c15.401,41.313-15.872,63.595-24.347,71.002c-50.869,31.3-98.549,22.832-138.32,17.56
		c0,0,26.078-23.342-6.896-48.243c-23.243-17.54-50.256,2.832-46.32,25.066c-4.211-13.017-20.375-48.177-70.276-39.854
		c-47.706,7.971-67.291,45.073-87.958,59.914c-18.141,13.045-25.333,20.485-58.426,18.821c-1.664-33.093,5.776-40.285,18.821-58.426
		c14.841-20.667,51.943-40.252,59.914-87.958c8.322-49.901-26.837-66.065-39.854-70.276c22.235,3.936,42.606-23.077,25.066-46.32
		c-24.901-32.974-48.243-6.896-48.243-6.896c-5.272-39.772-13.74-87.451,17.56-138.32c7.407-8.475,29.688-39.748,71.002-24.347
		c0,0,3.713-10.079,12.732-14.854c0,0-110.744-44.546-119.265,116.563c-2.135,15.352,5.239,48.492,4.675,74.453
		c0,10.189-3.123,23.518-12.798,22.729c-17.945-1.459-15.597-28.233-7.361-30.663c4.41-1.3,6.068,0,6.068,0
		c-9.456-1.691-9.45,15.163-0.729,15.527c13.03,0.547,15.04-22.314-0.73-22.314c-10.262,0-15.665,7.094-16.923,15.67
		c0,3.469-0.001,5.341-0.001,5.341l-0.041,2.542c1.411,11.041,8.8,21.805,20.854,21.805c16.496,0,19.652-19.761,19.652-29.46
		c16.93,43.452,28.037,139.01-0.597,185.645C59.281,1538.906,58.586,1564.71,62.029,1585.069z M62.029,62.029
		c-3.444,20.359-2.748,46.163,14.511,74.269c28.634,46.635,17.527,142.193,0.597,185.645c0-9.698-3.157-29.46-19.652-29.46
		c-12.054,0-19.443,10.764-20.854,21.805l0.041,2.542c0,0,0,1.872,0.001,5.341c1.257,8.576,6.66,15.67,16.923,15.67
		c15.769,0,13.76-22.862,0.73-22.314c-8.72,0.365-8.727,17.218,0.729,15.527c0,0-1.658,1.3-6.068,0
		c-8.236-2.43-10.584-29.205,7.361-30.663c9.675-0.789,12.798,12.54,12.798,22.729c0.564,25.962-6.811,59.102-4.675,74.453
		c8.521,161.109,119.265,116.563,119.265,116.563c-9.019-4.775-12.732-14.854-12.732-14.854
		c-41.313,15.401-63.595-15.872-71.002-24.347c-31.3-50.869-22.832-98.549-17.56-138.32c0,0,23.342,26.078,48.243-6.896
		c17.54-23.243-2.832-50.256-25.066-46.32c13.017-4.211,48.177-20.375,39.854-70.276c-7.971-47.706-45.073-67.291-59.914-87.958
		c-13.045-18.141-20.485-25.333-18.821-58.426c33.093-1.664,40.285,5.776,58.426,18.821c20.667,14.841,40.252,51.943,87.958,59.914
		c49.901,8.322,66.065-26.837,70.276-39.854c-3.936,22.235,23.077,42.606,46.32,25.066c32.974-24.901,6.896-48.243,6.896-48.243
		c39.772-5.272,87.451-13.74,138.32,17.56c8.475,7.407,39.748,29.688,24.347,71.002c0,0,10.08,3.713,14.854,12.732
		c0,0,44.546-110.744-116.563-119.265c-15.352-2.135-48.492,5.239-74.453,4.675c-10.189,0-23.518-3.123-22.729-12.798
		c1.459-17.945,28.233-15.597,30.663-7.361c1.3,4.41,0,6.068,0,6.068c1.691-9.456-15.163-9.45-15.527-0.729
		c-0.547,13.03,22.314,15.04,22.314-0.73c0-10.262-7.094-15.665-15.67-16.923c-3.469,0-5.341-0.001-5.341-0.001l-2.542-0.041
		c-11.041,1.411-21.805,8.8-21.805,20.854c0,16.496,19.761,19.652,29.46,19.652c-43.452,16.93-139.01,28.037-185.645-0.597
		C108.193,59.281,82.389,58.586,62.029,62.029z M1501.799,90.32c-22.249,26.525-38.677,32.361-54.046,37.136
		c-66.231,14.337-73.144-25.418-73.144-25.418C1463.121,123.212,1501.799,90.32,1501.799,90.32z M90.32,145.3
		c26.525,22.248,32.361,38.677,37.136,54.046c14.337,66.231-25.418,73.144-25.418,73.144C123.212,183.977,90.32,145.3,90.32,145.3z
		 M145.3,1556.778c22.248-26.525,38.677-32.361,54.046-37.135c66.231-14.337,73.144,25.418,73.144,25.418
		C183.977,1523.887,145.3,1556.778,145.3,1556.778z M1556.778,1501.799c-26.525-22.249-32.361-38.677-37.135-54.046
		c-14.337-66.231,25.418-73.144,25.418-73.144C1523.887,1463.121,1556.778,1501.799,1556.778,1501.799z M1545.061,272.49
		c0,0-39.755-6.913-25.418-73.144c4.774-15.368,10.61-31.797,37.135-54.046C1556.778,145.3,1523.887,183.977,1545.061,272.49z
		 M272.49,102.038c0,0-6.913,39.755-73.144,25.418c-15.368-4.774-31.797-10.61-54.046-37.136
		C145.3,90.32,183.977,123.212,272.49,102.038z M102.038,1374.609c0,0,39.755,6.913,25.418,73.144
		c-4.774,15.368-10.61,31.797-37.136,54.046C90.32,1501.799,123.212,1463.121,102.038,1374.609z M1374.609,1545.061
		c0,0,6.913-39.755,73.144-25.418c15.368,4.774,31.797,10.61,54.046,37.135C1501.799,1556.778,1463.121,1523.887,1374.609,1545.061z
		 M1331.671,89.326c0,0,8.007,1.151,16.96,7.407c8.946,6.253,1.068,31.287-19.048,23.342c-20.143-7.958-13.273-23.853-10.096-29.145
		C1322.669,85.625,1331.671,89.326,1331.671,89.326z M89.326,315.428c0,0,1.151-8.007,7.407-16.96
		c6.253-8.946,31.287-1.068,23.342,19.048c-7.958,20.143-23.853,13.273-29.145,10.096C85.625,324.429,89.326,315.428,89.326,315.428
		z M315.428,1557.773c0,0-8.007-1.151-16.96-7.407c-8.946-6.253-1.068-31.287,19.048-23.342
		c20.143,7.958,13.273,23.853,10.096,29.145C324.429,1561.473,315.428,1557.773,315.428,1557.773z M1557.773,1331.671
		c0,0-1.151,8.007-7.407,16.96c-6.253,8.946-31.287,1.068-23.342-19.048c7.958-20.143,23.853-13.273,29.145-10.096
		C1561.473,1322.669,1557.773,1331.671,1557.773,1331.671z M1556.168,327.613c-5.292,3.177-21.187,10.047-29.145-10.096
		c-7.944-20.116,17.089-27.994,23.342-19.048c6.257,8.952,7.407,16.96,7.407,16.96S1561.473,324.429,1556.168,327.613z
		 M327.613,90.93c3.177,5.292,10.047,21.187-10.096,29.145c-20.116,7.944-27.994-17.089-19.048-23.342
		c8.952-6.257,16.96-7.407,16.96-7.407S324.429,85.625,327.613,90.93z M90.93,1319.486c5.292-3.177,21.187-10.047,29.145,10.096
		c7.944,20.116-17.089,27.994-23.342,19.048c-6.257-8.952-7.407-16.96-7.407-16.96S85.625,1322.669,90.93,1319.486z
		 M1319.486,1556.168c-3.177-5.292-10.047-21.187,10.096-29.145c20.116-7.944,27.994,17.089,19.048,23.342
		c-8.952,6.257-16.96,7.407-16.96,7.407S1322.669,1561.473,1319.486,1556.168z"/>
	<path d="M1158.039,204.479c2.858-3.813,10.02-11.897,20.458-0.63c2.52,2.726,4.589,7.517,4.589,7.517s7.149-18.624-7.095-32.351
		c-11.479-11.068-28.704-6.784-36.32,0.836c-7.619,7.619-15.859,24.211-3.756,38.402c14.466,16.97,37.358,7.726,37.358,7.726
		s-7.931-0.637-13.982-4.808C1153.238,217.002,1153.652,210.321,1158.039,204.479z"/>
	<path d="M204.479,489.06c-3.813-2.858-11.897-10.02-0.63-20.458c2.726-2.52,7.517-4.589,7.517-4.589s-18.624-7.149-32.351,7.095
		c-11.068,11.479-6.784,28.704,0.836,36.32c7.619,7.619,24.211,15.859,38.402,3.757c16.97-14.466,7.726-37.358,7.726-37.358
		s-0.637,7.931-4.808,13.982C217.002,493.861,210.321,493.446,204.479,489.06z"/>
	<path d="M489.06,1442.619c-2.858,3.813-10.02,11.897-20.458,0.63c-2.52-2.726-4.589-7.517-4.589-7.517s-7.149,18.624,7.095,32.351
		c11.479,11.068,28.704,6.784,36.32-0.836c7.619-7.619,15.859-24.211,3.757-38.402c-14.466-16.97-37.358-7.726-37.358-7.726
		s7.931,0.637,13.982,4.808C493.861,1430.096,493.446,1436.777,489.06,1442.619z"/>
	<path d="M1442.619,1158.039c3.813,2.858,11.897,10.02,0.63,20.458c-2.726,2.52-7.517,4.589-7.517,4.589s18.624,7.149,32.351-7.095
		c11.068-11.479,6.784-28.704-0.836-36.32c-7.619-7.619-24.211-15.859-38.402-3.756c-16.97,14.466-7.726,37.358-7.726,37.358
		s0.637-7.931,4.808-13.982C1430.096,1153.238,1436.777,1153.652,1442.619,1158.039z"/>
	<path d="M1442.619,489.06c3.813-2.858,11.897-10.02,0.63-20.458c-2.726-2.52-7.517-4.589-7.517-4.589s18.624-7.149,32.351,7.095
		c11.068,11.479,6.784,28.704-0.836,36.32c-7.619,7.619-24.211,15.859-38.402,3.757c-16.97-14.466-7.726-37.358-7.726-37.358
		s0.637,7.931,4.808,13.982C1430.096,493.861,1436.777,493.446,1442.619,489.06z"/>
	<path d="M489.06,204.479c-2.858-3.813-10.02-11.897-20.458-0.63c-2.52,2.726-4.589,7.517-4.589,7.517s-7.149-18.624,7.095-32.351
		c11.479-11.068,28.704-6.784,36.32,0.836c7.619,7.619,15.859,24.211,3.757,38.402c-14.466,16.97-37.358,7.726-37.358,7.726
		s7.931-0.637,13.982-4.808C493.861,217.002,493.446,210.321,489.06,204.479z"/>
	<path d="M204.479,1158.039c-3.813,2.858-11.897,10.02-0.63,20.458c2.726,2.52,7.517,4.589,7.517,4.589s-18.624,7.149-32.351-7.095
		c-11.068-11.479-6.784-28.704,0.836-36.32c7.619-7.619,24.211-15.859,38.402-3.756c16.97,14.466,7.726,37.358,7.726,37.358
		s-0.637-7.931-4.808-13.982C217.002,1153.238,210.321,1153.652,204.479,1158.039z"/>
	<path d="M1158.039,1442.619c2.858,3.813,10.02,11.897,20.458,0.63c2.52-2.726,4.589-7.517,4.589-7.517s7.149,18.624-7.095,32.351
		c-11.479,11.068-28.704,6.784-36.32-0.836c-7.619-7.619-15.859-24.211-3.756-38.402c14.466-16.97,37.358-7.726,37.358-7.726
		s-7.931,0.637-13.982,4.808C1153.238,1430.096,1153.652,1436.777,1158.039,1442.619z"/>
	<path d="M857.42,289.56c33.641-34.185,64.4-0.033,64.4-0.033c-16.96-2.885-18.816,5.305-18.816,5.305
		c-1.044-10.047-17.48-3.415-17.48-3.415c16.436,5.285,8.468,23.575,8.468,23.575c-2.388-22.003-28.605-10.862-28.605-10.862
		c12.185,0.796,14.291,9.005,14.821,14.045c-1.293,24.105-21.966,16.711-27.288,11.671
		C834.104,309.699,853.981,293.538,857.42,289.56z M289.56,789.679c-34.185-33.641-0.033-64.4-0.033-64.4
		c-2.885,16.96,5.305,18.817,5.305,18.817c-10.047,1.044-3.415,17.48-3.415,17.48c5.285-16.436,23.575-8.468,23.575-8.468
		c-22.003,2.388-10.862,28.605-10.862,28.605c0.796-12.185,9.005-14.291,14.045-14.821c24.105,1.293,16.711,21.966,11.671,27.288
		C309.699,812.995,293.538,793.117,289.56,789.679z M789.679,1357.539c-33.641,34.185-64.4,0.033-64.4,0.033
		c16.96,2.885,18.817-5.305,18.817-5.305c1.044,10.047,17.48,3.415,17.48,3.415c-16.436-5.285-8.468-23.575-8.468-23.575
		c2.388,22.003,28.605,10.862,28.605,10.862c-12.185-0.796-14.291-9.005-14.821-14.045c1.293-24.105,21.966-16.711,27.288-11.671
		C812.995,1337.4,793.117,1353.56,789.679,1357.539z M1357.539,857.42c34.185,33.641,0.033,64.4,0.033,64.4
		c2.885-16.96-5.305-18.816-5.305-18.816c10.047-1.044,3.415-17.48,3.415-17.48c-5.285,16.436-23.575,8.468-23.575,8.468
		c22.003-2.388,10.862-28.605,10.862-28.605c-0.796,12.185-9.005,14.291-14.045,14.821c-24.105-1.293-16.711-21.966-11.671-27.288
		C1337.4,834.104,1353.56,853.981,1357.539,857.42z M1317.254,794.178c-5.04-5.322-12.434-25.995,11.671-27.288
		c5.04,0.531,13.25,2.636,14.045,14.821c0,0,11.141-26.217-10.862-28.605c0,0,18.289-7.967,23.575,8.468
		c0,0,6.631-16.436-3.415-17.48c0,0,8.19-1.857,5.305-18.817c0,0,34.151,30.759-0.033,64.4
		C1353.56,793.117,1337.4,812.995,1317.254,794.178z M794.178,329.845c-5.322,5.04-25.995,12.434-27.288-11.671
		c0.531-5.04,2.636-13.25,14.821-14.045c0,0-26.217-11.141-28.605,10.862c0,0-7.967-18.289,8.468-23.575
		c0,0-16.436-6.631-17.48,3.415c0,0-1.857-8.19-18.817-5.305c0,0,30.759-34.152,64.4,0.033
		C793.117,293.538,812.995,309.699,794.178,329.845z M329.845,852.92c5.04,5.322,12.434,25.995-11.671,27.288
		c-5.04-0.531-13.25-2.636-14.045-14.821c0,0-11.141,26.217,10.862,28.605c0,0-18.289,7.967-23.575-8.468
		c0,0-6.631,16.436,3.415,17.48c0,0-8.19,1.857-5.305,18.816c0,0-34.152-30.759,0.033-64.4
		C293.538,853.981,309.699,834.104,329.845,852.92z M852.92,1317.254c5.322-5.04,25.995-12.434,27.288,11.671
		c-0.531,5.04-2.636,13.25-14.821,14.045c0,0,26.217,11.141,28.605-10.862c0,0,7.967,18.289-8.468,23.575
		c0,0,16.436,6.631,17.48-3.415c0,0,1.857,8.19,18.816,5.305c0,0-30.759,34.151-64.4-0.033
		C853.981,1353.56,834.104,1337.4,852.92,1317.254z M823.549,113.038c3.08,14.276,9.256,30.38,21.655,46.958
		c23.382,31.277,72.172,58.124,98.598,89.51c28.405,33.727,47.504,81.473-5.229,122.428c-21.538,10.322-66.101,21.645-94.649-30.968
		c0,0,41.621,36.293,55.63-13.793c3.707-16.691,31.798-47.693,47.719-7.958c-0.023-12.202-24.161-81.347-90.392-46.864
		c6.349-9.019,8.992-9.814,7.443-15.119c20.534-16.439,8.976-42.925-8.504-32.593c0.763-2.64,1.293-3.979,5.786-4.244
		c7.46-8.475-2.354-29.132-15.319-18.024c1.558-3.163,6.864-10.325-3.713-20.657c-3.757-3.65-15.031-9.576-19.026-24.287
		c-3.996,14.711-15.269,20.637-19.026,24.287c-10.577,10.332-5.272,17.493-3.713,20.657c-12.964-11.108-22.779,9.549-15.319,18.024
		c4.493,0.265,5.023,1.605,5.786,4.244c-17.48-10.332-29.039,16.154-8.504,32.593c-1.549,5.305,1.094,6.101,7.443,15.119
		c-66.231-34.483-90.369,34.662-90.392,46.864c15.922-39.735,44.012-8.733,47.719,7.958c14.009,50.086,55.63,13.793,55.63,13.793
		c-28.548,52.613-73.111,41.29-94.649,30.968c-52.733-40.955-33.634-88.701-5.229-122.428c26.426-31.386,75.216-58.233,98.599-89.51
		C814.293,143.418,820.469,127.315,823.549,113.038z M1534.06,823.549c-14.276,3.08-30.38,9.256-46.958,21.655
		c-31.277,23.382-58.124,72.172-89.51,98.598c-33.727,28.405-81.473,47.504-122.428-5.229
		c-10.322-21.538-21.645-66.101,30.969-94.649c0,0-36.293,41.621,13.793,55.63c16.691,3.707,47.693,31.798,7.958,47.719
		c12.202-0.023,81.347-24.161,46.864-90.392c9.019,6.349,9.814,8.992,15.119,7.443c16.439,20.534,42.925,8.976,32.593-8.504
		c2.639,0.763,3.979,1.293,4.244,5.786c8.475,7.46,29.132-2.354,18.024-15.319c3.163,1.558,10.325,6.864,20.657-3.713
		c3.65-3.757,9.576-15.031,24.287-19.026c-14.711-3.996-20.637-15.269-24.287-19.026c-10.332-10.577-17.493-5.272-20.657-3.713
		c11.108-12.964-9.549-22.779-18.024-15.319c-0.265,4.493-1.605,5.023-4.244,5.786c10.332-17.48-16.154-29.039-32.593-8.504
		c-5.305-1.549-6.101,1.094-15.119,7.443c34.483-66.231-34.662-90.369-46.864-90.392c39.735,15.922,8.733,44.012-7.958,47.719
		c-50.086,14.009-13.793,55.63-13.793,55.63c-52.613-28.548-41.29-73.111-30.969-94.649c40.955-52.733,88.701-33.634,122.428-5.229
		c31.386,26.426,58.233,75.216,89.51,98.599C1503.68,814.293,1519.784,820.469,1534.06,823.549z M823.549,1534.06
		c-3.08-14.276-9.256-30.38-21.655-46.958c-23.382-31.277-72.172-58.124-98.599-89.51c-28.405-33.727-47.504-81.473,5.229-122.428
		c21.538-10.322,66.101-21.645,94.649,30.969c0,0-41.621-36.293-55.63,13.793c-3.707,16.691-31.798,47.693-47.719,7.958
		c0.023,12.202,24.161,81.347,90.392,46.864c-6.349,9.019-8.992,9.814-7.443,15.119c-20.534,16.439-8.976,42.925,8.504,32.593
		c-0.763,2.639-1.293,3.979-5.786,4.244c-7.46,8.475,2.354,29.132,15.319,18.024c-1.558,3.163-6.864,10.325,3.713,20.657
		c3.757,3.65,15.031,9.576,19.026,24.287c3.996-14.711,15.27-20.637,19.026-24.287c10.577-10.332,5.272-17.493,3.713-20.657
		c12.964,11.108,22.779-9.549,15.319-18.024c-4.493-0.265-5.023-1.605-5.786-4.244c17.48,10.332,29.039-16.154,8.504-32.593
		c1.549-5.305-1.094-6.101-7.443-15.119c66.231,34.483,90.369-34.662,90.392-46.864c-15.922,39.735-44.012,8.733-47.719-7.958
		c-14.009-50.086-55.63-13.793-55.63-13.793c28.548-52.613,73.111-41.29,94.649-30.969c52.733,40.955,33.634,88.701,5.229,122.428
		c-26.426,31.386-75.216,58.233-98.598,89.51C832.805,1503.68,826.629,1519.784,823.549,1534.06z M113.038,823.549
		c14.276-3.08,30.38-9.256,46.958-21.655c31.277-23.382,58.124-72.172,89.51-98.599c33.727-28.405,81.473-47.504,122.428,5.229
		c10.322,21.538,21.645,66.101-30.968,94.649c0,0,36.293-41.621-13.793-55.63c-16.691-3.707-47.693-31.798-7.958-47.719
		c-12.202,0.023-81.347,24.161-46.864,90.392c-9.019-6.349-9.814-8.992-15.119-7.443c-16.439-20.534-42.925-8.976-32.593,8.504
		c-2.64-0.763-3.979-1.293-4.244-5.786c-8.475-7.46-29.132,2.354-18.024,15.319c-3.163-1.558-10.325-6.864-20.657,3.713
		c-3.65,3.757-9.576,15.031-24.287,19.026c14.711,3.996,20.637,15.27,24.287,19.026c10.332,10.577,17.493,5.272,20.657,3.713
		c-11.108,12.964,9.549,22.779,18.024,15.319c0.265-4.493,1.605-5.023,4.244-5.786c-10.332,17.48,16.154,29.039,32.593,8.504
		c5.305,1.549,6.101-1.094,15.119-7.443c-34.483,66.231,34.662,90.369,46.864,90.392c-39.735-15.922-8.733-44.012,7.958-47.719
		c50.086-14.009,13.793-55.63,13.793-55.63c52.613,28.548,41.29,73.111,30.968,94.649c-40.955,52.733-88.701,33.634-122.428,5.229
		c-31.386-26.426-58.233-75.216-89.51-98.598C143.418,832.805,127.315,826.629,113.038,823.549z M823.549,209.469
		c10.429,7.36,23.28,17.773,23.28,45.276c0,17.357-18.257,34.288-23.28,55.979c-5.023-21.691-23.28-38.622-23.28-55.979
		C800.269,227.241,813.12,216.828,823.549,209.469z M209.469,823.549c7.36-10.429,17.773-23.28,45.276-23.28
		c17.357,0,34.288,18.257,55.979,23.28c-21.691,5.023-38.622,23.28-55.979,23.28C227.241,846.829,216.828,833.978,209.469,823.549z
		 M823.549,1437.63c-10.429-7.36-23.28-17.773-23.28-45.276c0-17.357,18.257-34.288,23.28-55.979
		c5.023,21.691,23.28,38.622,23.28,55.979C846.829,1419.857,833.978,1430.27,823.549,1437.63z M1437.63,823.549
		c-7.36,10.429-17.773,23.28-45.276,23.28c-17.357,0-34.288-18.257-55.979-23.28c21.691-5.023,38.622-23.28,55.979-23.28
		C1419.857,800.269,1430.27,813.12,1437.63,823.549z M823.549,331.001c6.927,29.647,42.318,84.967,107.047,62.671
		c46.148-15.902,83.157-77.388,37.593-139.921c-14.672-20.047-44.43-49.032-73.708-72.05c0,0,9.542-10.597,24.387,10.59
		c6.873,8.475,46.104,5.822,29.642-13.773c21.651,9.463,68.817-39.689,30.935-96.97c8.014,10.61,49.171,25.63,51.714-28.15
		c-4.754,9.019-13.229,25.451-48.216,1.611c-13.004-8.873-22.779-2.639-23.856,9.019c0,0-56.549-44.987-87.965,11.684
		c-3.697,5.855-17.033,49.072,26.542,75.763c7.411,3.714,29.682,14.324,60.405,7.945c0,0,7.964-8.488,10.6-16.433
		c0,0-55.879,12.925-79.566-24.924c-12.984-20.746,3.183-61.887,38.197-51.99c29.941,8.465,59.059,44.215,46.665,75.322
		c-2.543,6.399-18.127,44.556-80.02,29.178c-44.815-11.131-57.255-71.532-56.194-87.434c1.054-15.882,16.744-45.332,58.621-46.41
		c1.781,0,379.098-0.049,428.555-0.056c3.469,0,5.341-0.001,5.341-0.001l2.542-0.041l282.255-4.598l-4.598,282.255l-0.042,2.542
		c0,0,0,1.872-0.001,5.341c-0.007,49.457-0.056,426.773-0.056,428.555c-1.078,41.877-30.527,57.567-46.41,58.621
		c-15.902,1.061-76.304-11.38-87.434-56.194c-15.378-61.894,22.778-77.477,29.178-80.02c31.108-12.394,66.857,16.724,75.322,46.665
		c9.897,35.014-31.244,51.181-51.99,38.197c-37.849-23.687-24.924-79.566-24.924-79.566c-7.945,2.636-16.433,10.6-16.433,10.6
		c-6.379,30.723,4.231,52.995,7.945,60.405c26.691,43.575,69.908,30.239,75.763,26.542c56.672-31.416,11.684-87.965,11.684-87.965
		c11.658-1.078,17.892-10.852,9.019-23.856c-23.84-34.987-7.407-43.462,1.611-48.216c-53.78,2.543-38.76,43.701-28.15,51.714
		c-57.282-37.882-106.433,9.284-96.97,30.935c-19.596-16.462-22.248,22.769-13.773,29.642c21.187,14.844,10.59,24.387,10.59,24.387
		c-23.017-29.277-52.003-59.036-72.05-73.708c-62.534-45.564-124.02-8.554-139.922,37.593
		c-22.295,64.729,33.024,100.12,62.671,107.047c-29.647,6.927-84.967,42.318-62.671,107.047
		c15.902,46.148,77.388,83.157,139.922,37.593c20.047-14.672,49.032-44.43,72.05-73.708c0,0,10.597,9.542-10.59,24.387
		c-8.475,6.873-5.823,46.104,13.773,29.642c-9.463,21.651,39.689,68.817,96.97,30.935c-10.61,8.014-25.63,49.171,28.15,51.714
		c-9.019-4.754-25.451-13.229-1.611-48.216c8.873-13.004,2.639-22.779-9.019-23.856c0,0,44.987-56.549-11.684-87.965
		c-5.855-3.697-49.072-17.033-75.763,26.542c-3.714,7.411-14.324,29.682-7.945,60.405c0,0,8.488,7.964,16.433,10.6
		c0,0-12.925-55.879,24.924-79.566c20.746-12.984,61.887,3.183,51.99,38.197c-8.465,29.941-44.215,59.059-75.322,46.665
		c-6.399-2.543-44.556-18.127-29.178-80.02c11.131-44.815,71.532-57.255,87.434-56.194c15.882,1.054,45.332,16.744,46.41,58.621
		c0,1.781,0.049,379.098,0.056,428.555c0,3.469,0.001,5.341,0.001,5.341l0.042,2.542l4.598,282.255l-282.255-4.598l-2.542-0.042
		c0,0-1.872,0-5.341-0.001c-49.457-0.007-426.773-0.056-428.555-0.056c-41.877-1.078-57.567-30.527-58.621-46.41
		c-1.061-15.902,11.38-76.304,56.194-87.434c61.894-15.378,77.477,22.778,80.02,29.178c12.394,31.108-16.724,66.857-46.665,75.322
		c-35.014,9.897-51.181-31.244-38.197-51.99c23.687-37.849,79.566-24.924,79.566-24.924c-2.636-7.945-10.6-16.433-10.6-16.433
		c-30.723-6.379-52.994,4.231-60.405,7.945c-43.575,26.691-30.239,69.908-26.542,75.763c31.416,56.672,87.965,11.684,87.965,11.684
		c1.078,11.658,10.852,17.892,23.856,9.019c34.987-23.84,43.462-7.407,48.216,1.611c-2.543-53.78-43.701-38.76-51.714-28.15
		c37.882-57.282-9.284-106.433-30.935-96.97c16.462-19.596-22.769-22.248-29.642-13.773c-14.844,21.187-24.387,10.59-24.387,10.59
		c29.277-23.017,59.036-52.003,73.708-72.05c45.564-62.534,8.554-124.02-37.593-139.922
		c-64.729-22.295-100.12,33.024-107.047,62.671c-6.927-29.647-42.318-84.967-107.047-62.671
		c-46.148,15.902-83.157,77.388-37.593,139.922c14.672,20.047,44.43,49.032,73.708,72.05c0,0-9.542,10.597-24.387-10.59
		c-6.873-8.475-46.104-5.823-29.642,13.773c-21.651-9.463-68.817,39.689-30.935,96.97c-8.014-10.61-49.171-25.63-51.714,28.15
		c4.754-9.019,13.229-25.451,48.216-1.611c13.004,8.873,22.779,2.639,23.856-9.019c0,0,56.549,44.987,87.965-11.684
		c3.697-5.855,17.033-49.072-26.542-75.763c-7.41-3.714-29.682-14.324-60.405-7.945c0,0-7.964,8.488-10.6,16.433
		c0,0,55.879-12.925,79.566,24.924c12.984,20.746-3.183,61.887-38.197,51.99c-29.941-8.465-59.059-44.215-46.665-75.322
		c2.543-6.399,18.127-44.556,80.02-29.178c44.815,11.131,57.255,71.532,56.194,87.434c-1.054,15.882-16.744,45.332-58.621,46.41
		c-1.781,0-379.098,0.049-428.555,0.056c-3.469,0-5.341,0.001-5.341,0.001l-2.542,0.042l-282.255,4.598l4.598-282.255l0.041-2.542
		c0,0,0-1.872,0.001-5.341c0.006-49.457,0.056-426.773,0.056-428.555c1.078-41.877,30.527-57.567,46.41-58.621
		c15.902-1.061,76.304,11.38,87.434,56.194c15.378,61.894-22.778,77.477-29.178,80.02c-31.108,12.394-66.857-16.724-75.322-46.665
		c-9.897-35.014,31.244-51.181,51.99-38.197c37.849,23.687,24.924,79.566,24.924,79.566c7.945-2.636,16.433-10.6,16.433-10.6
		c6.379-30.723-4.231-52.994-7.945-60.405c-26.691-43.575-69.908-30.239-75.763-26.542c-56.672,31.416-11.684,87.965-11.684,87.965
		c-11.658,1.078-17.892,10.852-9.019,23.856c23.84,34.987,7.407,43.462-1.611,48.216c53.78-2.543,38.76-43.701,28.15-51.714
		c57.282,37.882,106.433-9.284,96.97-30.935c19.596,16.462,22.248-22.769,13.773-29.642c-21.187-14.844-10.59-24.387-10.59-24.387
		c23.017,29.277,52.003,59.036,72.05,73.708c62.534,45.564,124.019,8.554,139.921-37.593
		c22.295-64.729-33.024-100.12-62.671-107.047c29.647-6.927,84.967-42.318,62.671-107.047
		c-15.902-46.148-77.388-83.157-139.921-37.593c-20.047,14.672-49.032,44.43-72.05,73.708c0,0-10.597-9.542,10.59-24.387
		c8.475-6.873,5.822-46.104-13.773-29.642c9.463-21.651-39.689-68.817-96.97-30.935c10.61-8.014,25.63-49.171-28.15-51.714
		c9.019,4.754,25.451,13.229,1.611,48.216c-8.873,13.004-2.639,22.779,9.019,23.856c0,0-44.987,56.549,11.684,87.965
		c5.855,3.697,49.072,17.033,75.763-26.542c3.714-7.41,14.324-29.682,7.945-60.405c0,0-8.488-7.964-16.433-10.6
		c0,0,12.925,55.879-24.924,79.566c-20.746,12.984-61.887-3.183-51.99-38.197c8.465-29.941,44.215-59.059,75.322-46.665
		c6.399,2.543,44.556,18.127,29.178,80.02c-11.131,44.815-71.532,57.255-87.434,56.194c-15.882-1.054-45.332-16.744-46.41-58.621
		c0-1.781-0.049-379.098-0.056-428.555c0-3.469-0.001-5.341-0.001-5.341l-0.041-2.542L32.033,32.033l282.255,4.598l2.542,0.041
		c0,0,1.872,0,5.341,0.001c49.457,0.006,426.773,0.056,428.555,0.056c41.877,1.078,57.567,30.527,58.621,46.41
		c1.061,15.902-11.38,76.304-56.194,87.434c-61.894,15.378-77.477-22.778-80.02-29.178c-12.394-31.108,16.724-66.857,46.665-75.322
		c35.014-9.897,51.181,31.244,38.197,51.99c-23.687,37.849-79.566,24.924-79.566,24.924c2.636,7.945,10.6,16.433,10.6,16.433
		c30.723,6.379,52.995-4.231,60.405-7.945c43.575-26.691,30.239-69.908,26.542-75.763C744.559,19.04,688.01,64.027,688.01,64.027
		c-1.078-11.658-10.852-17.892-23.856-9.019c-34.987,23.84-43.462,7.407-48.216-1.611c2.543,53.78,43.701,38.76,51.714,28.15
		c-37.882,57.282,9.284,106.433,30.935,96.97c-16.462,19.596,22.769,22.248,29.642,13.773c14.844-21.187,24.387-10.59,24.387-10.59
		c-29.277,23.017-59.036,52.003-73.708,72.05c-45.564,62.534-8.554,124.019,37.593,139.921
		C781.231,415.967,816.622,360.647,823.549,331.001z M1618.79,28.309l-288.521-4.7l-448.22-0.06c0,0-26.409,4.105-41.247,19.503
		c-6.263,6.441-13.423,13.05-17.252,27.902c-3.829-14.853-10.99-21.462-17.252-27.902c-14.838-15.398-41.247-19.503-41.247-19.503
		l-448.22,0.06l-288.521,4.7l-4.7,288.521l-0.06,448.22c0,0,4.105,26.409,19.503,41.247c6.441,6.263,13.05,13.423,27.902,17.252
		c-14.853,3.829-21.462,10.99-27.902,17.252c-15.398,14.838-19.503,41.247-19.503,41.247l0.06,448.22l4.7,288.521l288.521,4.7
		l448.22,0.06c0,0,26.409-4.105,41.247-19.503c6.263-6.441,13.423-13.05,17.252-27.902c3.829,14.853,10.99,21.462,17.252,27.902
		c14.838,15.398,41.247,19.503,41.247,19.503l448.22-0.06l288.521-4.7l4.7-288.521l0.06-448.22c0,0-4.105-26.409-19.503-41.247
		c-6.441-6.263-13.05-13.423-27.902-17.252c14.853-3.829,21.462-10.99,27.902-17.252c15.398-14.838,19.503-41.247,19.503-41.247
		l-0.06-448.22L1618.79,28.309z"/>
</g>
</svg>
