<?xml version="1.0" encoding="utf-8"?>

<!DOCTYPE svg PUBLIC "-//W3C//DTD SVG 1.1//EN" "http://www.w3.org/Graphics/SVG/1.1/DTD/svg11.dtd">
<svg version="1.1" id="Layer_1" xmlns="http://www.w3.org/2000/svg" xmlns:xlink="http://www.w3.org/1999/xlink" x="0px" y="0px"
	 viewBox="0 0 1624.771 1624.771" enable-background="new 0 0 1624.771 1624.771" xml:space="preserve">
<g>
	<path fill="#231F20" d="M1224.8785,399.8924l-0.6969,0.0858l-14.4657,3.2231c-19.1132,4.9729-37.3608,12.7184-54.1666,22.2892
		c-16.8015,9.6125-32.0123,21.1005-46.1122,33.2086c-14.0845,12.1409-26.953,25.1102-38.9032,37.9788
		c-5.7913,6.3192-11.5408,12.6054-17.2552,18.8458c-5.469,5.642-10.6509,11.2885-16.1967,16.3939
		c-21.8369,20.66-45.4133,36.7867-68.3257,44.3044c-21.6813,7.3931-41.9138,7.3113-59.4289,2.125
		c-16.0523-8.7178-30.4167-22.9664-40.52-43.5252c-10.8857-21.5175-16.1536-49.5917-16.9857-79.6416
		c-0.3115-7.5315,0.0171-15.1883,0.1394-23.045c0.3719-8.4534,0.7514-16.9639,1.1248-25.5273
		c0.6494-17.5495,0.7206-35.8196-0.6537-54.3637c-1.4084-18.5319-4.0408-37.4108-9.1242-56.0883
		c-5.1159-18.6511-12.5421-37.031-22.5408-54.0625l-7.9496-12.5078l-0.4321-0.5535l-0.4322,0.5535l-7.9496,12.5078
		c-9.9987,17.0315-17.4248,35.4114-22.5408,54.0625c-5.0834,18.6775-7.7158,37.5564-9.1242,56.0883
		c-1.3743,18.5441-1.303,36.8142-0.6536,54.3637c0.3733,8.5634,0.7528,17.0739,1.1247,25.5273
		c0.1223,7.8567,0.4509,15.5135,0.1395,23.045c-0.8322,30.0498-6.0999,58.1241-16.9857,79.6416
		c-10.1033,20.5588-24.4677,34.8074-40.52,43.5252c-17.5151,5.1863-37.7476,5.2681-59.4289-2.125
		c-22.9125-7.5178-46.489-23.6444-68.3258-44.3044c-5.5458-5.1053-10.7276-10.7518-16.1967-16.3939
		c-5.7145-6.2404-11.464-12.5266-17.2552-18.8458c-11.9503-12.8685-24.8188-25.8378-38.9032-37.9788
		c-14.0999-12.1082-29.3107-23.5962-46.1122-33.2086c-16.8058-9.5708-35.0534-17.3163-54.1667-22.2892l-14.4656-3.2231
		l-0.697-0.0858l0.0858,0.697l3.2231,14.4656c4.9729,19.1133,12.7184,37.3609,22.2892,54.1667
		c9.6125,16.8015,21.1005,32.0123,33.2086,46.1122c12.1409,14.0844,25.1102,26.9529,37.9788,38.9032
		c6.3192,5.7912,12.6054,11.5407,18.8458,17.2552c5.642,5.4691,11.2885,10.6509,16.3939,16.1967
		c20.66,21.8369,36.7867,45.4133,44.3044,68.3258c7.3931,21.6813,7.3113,41.9138,2.125,59.4289
		c-8.7178,16.0523-22.9664,30.4167-43.5252,40.52c-21.5175,10.8857-49.5917,16.1535-79.6416,16.9857
		c-7.5315,0.3114-15.1883-0.0172-23.045-0.1395c-8.4534-0.3719-16.9639-0.7514-25.5273-1.1247
		c-17.5495-0.6494-35.8196-0.7206-54.3637,0.6536c-18.5319,1.4084-37.4108,4.0408-56.0883,9.1242
		c-18.6511,5.116-37.031,12.5421-54.0625,22.5408l-12.5078,7.9496l-0.5535,0.4322l0.5535,0.4321l12.5078,7.9496
		c17.0315,9.9987,35.4114,17.4249,54.0625,22.5408c18.6775,5.0834,37.5564,7.7158,56.0883,9.1242
		c18.5441,1.3743,36.8142,1.303,54.3637,0.6537c8.5634-0.3734,17.0739-0.7529,25.5273-1.1248
		c7.8567-0.1223,15.5135-0.4509,23.045-0.1394c30.0498,0.8321,58.1241,6.0999,79.6416,16.9857
		c20.5588,10.1032,34.8074,24.4677,43.5252,40.52c5.1863,17.5151,5.2681,37.7476-2.125,59.4289
		c-7.5178,22.9125-23.6444,46.4889-44.3044,68.3257c-5.1053,5.5458-10.7518,10.7277-16.3939,16.1967
		c-6.2404,5.7145-12.5266,11.464-18.8458,17.2552c-12.8685,11.9502-25.8378,24.8187-37.9788,38.9032
		c-12.1082,14.0999-23.5962,29.3107-33.2086,46.1122c-9.5708,16.8058-17.3163,35.0535-22.2892,54.1666l-3.2231,14.4657
		l-0.0858,0.6969l0.697-0.0858l14.4656-3.223c19.1133-4.973,37.3609-12.7185,54.1667-22.2893
		c16.8015-9.6124,32.0123-21.1005,46.1122-33.2086c14.0844-12.1409,26.9529-25.1102,38.9032-37.9788
		c5.7912-6.3192,11.5407-12.6053,17.2552-18.8458c5.4691-5.642,10.6509-11.2885,16.1967-16.3938
		c21.8369-20.66,45.4133-36.7867,68.3258-44.3044c21.6813-7.3932,41.9138-7.3113,59.4289-2.125
		c16.0523,8.7178,30.4167,22.9664,40.52,43.5251c10.8857,21.5175,16.1535,49.5918,16.9857,79.6416
		c0.3114,7.5315-0.0172,15.1882-0.1395,23.0449c-0.3719,8.4535-0.7514,16.964-1.1247,25.5273
		c-0.6494,17.5494-0.7206,35.8196,0.6536,54.3638c1.4084,18.5319,4.0408,37.4108,9.1242,56.0883
		c5.116,18.6511,12.5421,37.031,22.5408,54.0625l7.9496,12.5078l0.4322,0.5535l0.4321-0.5535l7.9496-12.5078
		c9.9987-17.0315,17.4249-35.4114,22.5408-54.0625c5.0834-18.6775,7.7158-37.5564,9.1242-56.0883
		c1.3743-18.5442,1.303-36.8143,0.6537-54.3638c-0.3734-8.5634-0.7529-17.0739-1.1248-25.5273
		c-0.1223-7.8567-0.4509-15.5134-0.1394-23.0449c0.8321-30.0498,6.0999-58.1241,16.9857-79.6416
		c10.1032-20.5587,24.4677-34.8074,40.52-43.5251c17.5151-5.1863,37.7476-5.2682,59.4289,2.125
		c22.9125,7.5177,46.4889,23.6444,68.3257,44.3044c5.5458,5.1053,10.7277,10.7518,16.1967,16.3938
		c5.7145,6.2405,11.464,12.5266,17.2552,18.8458c11.9502,12.8685,24.8187,25.8379,38.9032,37.9788
		c14.0999,12.1082,29.3107,23.5962,46.1122,33.2086c16.8058,9.5708,35.0535,17.3163,54.1666,22.2893l14.4657,3.223l0.6969,0.0858
		l-0.0858-0.6969l-3.223-14.4657c-4.973-19.1132-12.7185-37.3608-22.2893-54.1666c-9.6124-16.8015-21.1005-32.0123-33.2086-46.1122
		c-12.1409-14.0845-25.1102-26.953-37.9788-38.9032c-6.3192-5.7913-12.6053-11.5408-18.8458-17.2552
		c-5.642-5.469-11.2885-10.6509-16.3938-16.1967c-20.66-21.8369-36.7867-45.4133-44.3044-68.3257
		c-7.3932-21.6813-7.3113-41.9138-2.125-59.4289c8.7178-16.0523,22.9664-30.4167,43.5251-40.52
		c21.5175-10.8857,49.5918-16.1536,79.6416-16.9857c7.5315-0.3115,15.1882,0.0171,23.0449,0.1394
		c8.4535,0.3719,16.964,0.7514,25.5273,1.1248c17.5494,0.6494,35.8196,0.7206,54.3638-0.6537
		c18.5319-1.4084,37.4108-4.0408,56.0883-9.1242c18.6511-5.1159,37.031-12.5421,54.0625-22.5408l12.5078-7.9496l0.5535-0.4321
		l-0.5535-0.4322l-12.5078-7.9496c-17.0315-9.9987-35.4114-17.4248-54.0625-22.5408c-18.6775-5.0834-37.5564-7.7158-56.0883-9.1242
		c-18.5442-1.3743-36.8143-1.303-54.3638-0.6536c-8.5634,0.3733-17.0739,0.7528-25.5273,1.1247
		c-7.8567,0.1223-15.5134,0.4509-23.0449,0.1395c-30.0498-0.8322-58.1241-6.0999-79.6416-16.9857
		c-20.5587-10.1033-34.8074-24.4677-43.5251-40.52c-5.1863-17.5151-5.2682-37.7476,2.125-59.4289
		c7.5177-22.9125,23.6444-46.489,44.3044-68.3258c5.1053-5.5458,10.7518-10.7276,16.3938-16.1967
		c6.2405-5.7145,12.5266-11.464,18.8458-17.2552c12.8685-11.9503,25.8379-24.8188,37.9788-38.9032
		c12.1082-14.0999,23.5962-29.3107,33.2086-46.1122c9.5708-16.8058,17.3163-35.0534,22.2893-54.1667l3.223-14.4656
		L1224.8785,399.8924z M916.726,560.4851c13.9569-2.2605,28.466-6.2374,43.0292-12.6381
		c15.3707-6.7639,30.485-16.3478,43.761-28.5328c13.3155-12.1606,24.6808-26.8017,33.6184-42.6654
		c9.0055-15.8682,15.6271-32.9282,20.1868-50.3431c4.5225-17.404,7.717-35.2233,9.0056-53.0854
		c0.8696-8.9232,1.0276-17.9277,1.3693-26.8269c0.1162-8.3022,0.2345-16.6656,0.3462-25.0795
		c0.344-16.4051,1.2424-32.558,3.3436-48.495c2.132-15.9054,5.274-31.6354,10.2874-46.5755
		c5.0352-14.9052,11.7642-29.0423,20.3096-41.9227c8.2274-13.0393,19.7002-24.0979,31.2957-33.6085
		c1.7178-1.2598,3.5956-2.7499,5.1754-3.8201l4.3143-2.6743c2.6512-1.9271,6.3477-3.4445,9.5358-5.2106
		c3.3656-1.5293,6.8057-2.9141,10.261-4.1818c3.532-0.9639,7.0028-2.375,10.6028-2.9152
		c28.6205-6.8285,58.8535,2.7575,75.4359,25.8378l1.5973,2.1088l0.8109,1.0508l0.4052,0.5257
		c-0.8217-1.4788-0.114-0.2179-0.2498-0.4622l0.1885,0.3374l3.0282,5.3562c0.6244,0.9881,0.7581,1.5654,0.9968,2.2118l0.7582,1.9195
		l0.8239,1.9336l0.6135,2.3676c1.9019,6.2303,2.3599,13.0492,1.8954,19.8593c-0.7802,13.6965-5.7605,27.3373-12.6276,39.2
		c-13.609,24.2679-38.2853,38.3831-62.5825,42.0488c-12.001,1.7977-24.1857,0.8806-33.3489-4.0701
		c-4.6014-2.4037-8.1775-5.9445-10.4824-10.1306c-2.2524-4.2289-3.2428-9.091-3.1991-13.9695
		c0.0658-1.2237,0.1293-2.4409,0.1885-3.6505c0.0723-0.8984,0.3702-2.4858,0.5389-3.6754c0.4712-2.3402,1.0409-4.3669,1.9108-6.5635
		c1.6893-4.2312,4.2157-7.9483,7.27-10.9479c6.131-6.03,14.1241-9.0812,21.3767-9.6892c7.27-0.6145,14.0471,1.2982,18.1841,5.1381
		c2.0792,1.8932,3.4226,4.207,4.2047,6.4989c0.5917,2.3337,0.9006,4.5892,0.6661,6.6019c-0.2871,4.0427-1.4132,7.0545-2.178,9.0166
		c-0.848,1.9545-1.2885,2.9646-1.2885,2.9646s0.5149-0.9729,1.5032-2.865c0.918-1.9184,2.2917-4.8488,2.9097-9.0197
		c0.3879-2.0761,0.2675-4.4831-0.2059-7.086c-0.653-2.5637-1.9611-5.2774-4.1432-7.59c-4.3715-4.6979-11.7467-7.3524-19.8123-7.281
		c-8.0479,0.0821-17.2267,2.7223-24.9283,9.207c-3.8346,3.2265-7.1869,7.419-9.597,12.3316
		c-1.1766,2.3817-2.1978,5.2103-2.9296,7.9131c-0.2981,1.3608-0.5916,2.327-0.8917,4.0351
		c-0.1863,1.4153-0.4187,2.8363-0.559,4.2913c-0.4841,5.8063,0.1842,12.2197,2.8639,18.2967
		c2.6929,6.0333,7.4761,11.429,13.2848,15.0443c11.6985,7.4213,26.0326,9.2728,40.0756,8.3055
		c14.2073-1.0595,28.4473-5.0943,42.2799-12.4501c1.8888-0.9563,3.1968-1.8087,4.8226-2.7223
		c1.902-1.1625,3.359-2.2558,5.0769-3.4039c3.4137-2.1802,6.2971-4.9411,9.4106-7.5341c5.87-5.5074,11.2516-11.6513,15.9974-18.4056
		c9.2618-13.574,16.624-29.397,19.1198-47.3698c1.2861-8.9232,1.4374-18.4217-0.6005-27.9324l-0.6857-3.5769l-1.1898-3.8246
		l-1.2927-3.8345c-0.4492-1.2753-0.9159-2.6546-1.3431-3.4347l-2.6184-5.5642l-0.1644-0.3462
		c-0.2607-0.4712,0.3374,0.5499-0.6135-1.1438l-0.4711-0.7418l-0.9487-1.4844l-1.9084-2.9787
		c-1.3126-1.9666-2.5001-4.0252-3.9592-5.9205l-4.595-5.5599c-2.9117-3.8706-6.7858-6.9283-10.3048-10.3619
		c-1.79-1.6915-3.8958-3.0007-5.8568-4.5137c-2.0377-1.3913-3.9199-3.0786-6.1375-4.2092
		c-4.3317-2.4254-8.6285-5.0701-13.3285-6.7969c-9.1786-4.1531-19.0868-6.2238-29.028-7.6448
		c-4.9673-0.2542-10.0287-0.9882-15.0134-0.6332l-7.5288,0.2497l-7.4563,0.928c-5.0286,0.4591-9.825,1.8439-14.7551,2.878
		c-4.8093,1.3289-9.6057,2.854-14.3165,4.5947c-4.6432,2.0411-9.1941,3.5704-13.973,6.305l-7.0837,3.8323
		c-2.1233,1.2412-3.771,2.3698-5.6796,3.565l-2.7738,1.7692l-1.3914,0.8885l-1.0342,0.7516l-0.3572,0.2838l-0.7231,0.5663
		l-5.7889,4.5456c-1.7539,1.4541-3.5869,2.8298-5.3862,4.2464c-0.2706-2.2741-0.594-4.5429-0.806-6.8113l-0.8793-7.3076
		l-0.1108-0.9118l-0.0519-0.4533l-0.1998-1.2627l-0.3555-1.6121l-0.7104-3.2124c-0.5044-2.1947-0.8715-4.1578-1.4951-6.5369
		l-2.2993-7.7188c-1.4454-5.3128-3.582-9.6122-5.422-14.3387c-2.1002-4.5619-4.4135-9.0319-6.8744-13.3723
		c-2.7549-4.2173-5.1672-8.5881-8.3984-12.4685l-4.6162-5.9286l-5.147-5.5002c-3.2738-3.7758-7.3717-6.8357-11.064-10.1684
		c-8.0342-6.0247-16.5045-11.5667-25.9315-15.1202c-4.5443-2.1023-9.4528-3.2707-14.2308-4.6186
		c-2.3675-0.7685-4.8915-0.9064-7.3162-1.3635c-2.4564-0.3168-4.8712-0.8801-7.333-0.9497
		c-4.9161-0.0604-9.8176-0.6376-14.6136,0.0403l-7.1805,0.6824c-2.3719,0.3084-4.6673,0.9243-6.986,1.3868l-3.4558,0.7568
		l-1.7205,0.3789l-0.8577,0.1913c-1.8701,0.5253-0.725,0.2262-1.2426,0.3751l-0.3611,0.1285l-5.7859,2.083
		c-0.8537,0.2495-2.1589,0.8948-3.3784,1.479l-3.6255,1.7973l-3.5458,1.8631l-3.0141,2.0444
		c-8.166,5.2841-14.7755,12.1075-20.1757,19.3266c-10.944,14.4734-16.9266,30.8679-19.9758,47.0152
		c-1.4201,8.1318-1.9592,16.2815-1.7028,24.3266c0.3681,4.0352,0.4547,8.0263,1.327,11.9818
		c0.4028,2.0265,0.66,3.8299,1.1829,5.9968c0.5036,1.7957,0.8258,3.3233,1.4852,5.3351c4.5799,14.9825,11.796,27.9047,21.0929,38.7
		c9.2459,10.6138,20.6909,19.4404,34.2106,22.4648c6.6638,1.551,13.8613,1.1179,20.0317-1.2442
		c6.1919-2.4023,11.1995-6.4647,14.9628-10.9127c0.9297-1.128,1.7701-2.2971,2.6392-3.4296
		c0.9955-1.4201,1.4712-2.3108,2.2227-3.4837c1.3937-2.4286,2.6718-5.1509,3.5239-7.6669
		c1.7695-5.178,2.3636-10.5131,1.9337-15.5059c-0.8605-10.0314-5.484-18.3886-11.1168-24.1375
		c-5.6526-5.7536-12.7448-9.0917-19.1577-8.8608c-3.1783,0.0922-6.0222,1.0862-8.2967,2.4373
		c-2.1753,1.5058-3.9625,3.1226-5.1563,4.865c-2.5123,3.3862-3.613,6.4298-4.3204,8.4353
		c-0.6391,2.0368-0.9629,3.0888-0.9629,3.0888s0.4028-1.0257,1.1851-3.0074c0.8467-1.9281,2.1801-4.854,4.8356-7.9157
		c1.2573-1.5889,3.0707-2.9654,5.1393-4.1972c2.1737-1.0676,4.7596-1.7538,7.5686-1.6222
		c5.6404,0.2101,11.7851,3.6497,16.4913,9.2249c4.6984,5.5583,8.1929,13.3679,8.2643,21.9669
		c0.0387,4.2808-0.8033,8.6956-2.6006,12.8821c-0.9381,2.1683-1.9684,4.0043-3.29,5.9922c-0.7219,0.9605-1.6337,2.2937-2.2178,2.98
		c-0.8134,0.8972-1.6292,1.8028-2.448,2.7146c-3.4187,3.4806-7.557,6.2183-12.1401,7.6159
		c-4.5898,1.3302-9.6222,1.3052-14.5756-0.2488c-9.9801-2.9787-19.2444-10.9462-26.4592-20.7032
		c-14.5887-19.7729-22.0565-47.2026-14.5195-73.9856c3.5324-13.244,9.6563-26.4111,18.7896-36.6476
		c4.4871-5.1439,9.6325-9.6417,15.3829-12.7023l2.1078-1.2403l1.9499-0.7847l1.8934-0.8212
		c0.6259-0.2883,1.1287-0.6019,2.2689-0.8591l5.9286-1.6462l0.3719-0.1053c-0.2688,0.0768,1.1232-0.3145-0.5034,0.1502
		l0.6583-0.0852l1.3163-0.1696l2.6206-0.3617c28.0458-4.5948,56.2021,10.0049,71.6114,35.0711
		c2.1636,2.9276,3.62,6.3796,5.4359,9.5587c1.5469,3.3397,3.0001,6.7514,4.2986,10.2126c1.0056,3.5031,2.5464,7.1899,3.0583,10.4272
		l1.1598,4.9418c0.3604,1.8739,0.6345,4.2553,0.9583,6.3608c1.4742,14.9243,1.7671,30.8563-1.6354,45.8942
		c-3.0653,15.1503-8.3036,29.905-15.2828,44.0049c-7.0193,14.1093-15.9203,27.4538-25.6596,40.2082
		c-9.7834,12.755-20.5699,24.8121-31.9269,36.6554c-5.8705,6.0285-11.7007,12.026-17.4891,17.9787
		c-6.051,6.5343-12.3065,13.0131-18.0012,19.9377c-11.7193,13.5416-22.0605,28.4007-31.1692,43.905
		c-9.0901,15.5384-16.4711,32.2838-21.3237,49.8722c-4.8975,17.5371-7.2138,35.9264-6.3972,53.9408
		c0.7715,18.0036,4.682,35.4679,10.768,51.1194C901.0081,535.9462,908.4554,549.0177,916.726,560.4851z M708.0449,560.4851
		c8.2706-11.4674,15.718-24.5389,21.4897-39.3627c6.0859-15.6515,9.9965-33.1158,10.768-51.1194
		c0.8166-18.0143-1.4998-36.4036-6.3973-53.9408c-4.8526-17.5884-12.2336-34.3338-21.3237-49.8722
		c-9.1086-15.5043-19.4498-30.3634-31.1691-43.905c-5.6948-6.9246-11.9502-13.4034-18.0012-19.9377
		c-5.7883-5.9527-11.6186-11.9501-17.4891-17.9787c-11.3569-11.8434-22.1435-23.9004-31.9269-36.6554
		c-9.7393-12.7543-18.6403-26.0989-25.6596-40.2082c-6.9792-14.0999-12.2175-28.8546-15.2828-44.0049
		c-3.4025-15.0379-3.1096-30.9699-1.6354-45.8942c0.3238-2.1055,0.598-4.4869,0.9583-6.3608l1.1598-4.9418
		c0.512-3.2373,2.0528-6.9241,3.0583-10.4272c1.2985-3.4612,2.7517-6.8729,4.2986-10.2126c1.816-3.1791,3.2724-6.6311,5.436-9.5587
		c15.4092-25.0662,43.5656-39.6659,71.6113-35.0711l2.6206,0.3617l1.3164,0.1696l0.6583,0.0852
		c-1.6267-0.4647-0.2347-0.0735-0.5034-0.1502l0.3718,0.1053l5.9286,1.6462c1.1402,0.2572,1.643,0.5708,2.2689,0.8591l1.8934,0.8212
		l1.9499,0.7847l2.1079,1.2403c5.7504,3.0606,10.8958,7.5585,15.3829,12.7023c9.1332,10.2365,15.2571,23.4037,18.7896,36.6476
		c7.537,26.783,0.0692,54.2127-14.5195,73.9856c-7.2148,9.7571-16.4791,17.7245-26.4592,20.7032
		c-4.9534,1.554-9.9857,1.5789-14.5756,0.2488c-4.583-1.3976-8.7214-4.1353-12.14-7.6159
		c-0.8188-0.9118-1.6346-1.8174-2.4481-2.7146c-0.5842-0.6863-1.496-2.0195-2.2178-2.98c-1.3216-1.9879-2.3519-3.8239-3.29-5.9922
		c-1.7974-4.1864-2.6393-8.6013-2.6007-12.8821c0.0714-8.5991,3.5659-16.4086,8.2643-21.9669
		c4.7061-5.5753,10.8508-9.0149,16.4913-9.2249c2.809-0.1315,5.3948,0.5546,7.5686,1.6222
		c2.0685,1.2318,3.8819,2.6083,5.1392,4.1972c2.6556,3.0617,3.9889,5.9876,4.8356,7.9157c0.7823,1.9818,1.1852,3.0074,1.1852,3.0074
		s-0.3239-1.052-0.9629-3.0888c-0.7075-2.0056-1.8082-5.0491-4.3205-8.4353c-1.1937-1.7423-2.9809-3.3592-5.1563-4.865
		c-2.2744-1.3511-5.1183-2.3451-8.2966-2.4373c-6.413-0.2308-13.5051,3.1073-19.1578,8.8608
		c-5.6327,5.7488-10.2562,14.1061-11.1167,24.1375c-0.43,4.9928,0.1642,10.3279,1.9337,15.5059
		c0.8521,2.5161,2.1302,5.2383,3.5239,7.6669c0.7515,1.1729,1.2272,2.0636,2.2227,3.4837c0.8691,1.1325,1.7095,2.3016,2.6392,3.4296
		c3.7632,4.448,8.7709,8.5104,14.9628,10.9127c6.1703,2.362,13.3679,2.7952,20.0316,1.2442
		c13.5197-3.0244,24.9647-11.851,34.2106-22.4648c9.297-10.7953,16.5131-23.7175,21.0929-38.7
		c0.6594-2.0117,0.9816-3.5394,1.4852-5.3351c0.5229-2.1669,0.7801-3.9703,1.1829-5.9968c0.8723-3.9555,0.9589-7.9466,1.327-11.9818
		c0.2564-8.045-0.2827-16.1948-1.7028-24.3266c-3.0492-16.1473-9.0319-32.5418-19.9758-47.0152
		c-5.4003-7.2191-12.0098-14.0425-20.1757-19.3266l-3.0142-2.0444l-3.5457-1.8631L679.52,20.174
		c-1.2194-0.5841-2.5247-1.2294-3.3784-1.479l-5.7859-2.083l-0.3611-0.1285c-0.5175-0.1488,0.6275,0.1502-1.2426-0.3751
		l-0.8577-0.1913l-1.7205-0.3789l-3.4557-0.7568c-2.3188-0.4625-4.6141-1.0784-6.986-1.3868l-7.1805-0.6824
		c-4.7959-0.6779-9.6974-0.1007-14.6136-0.0403c-2.4619,0.0697-4.8766,0.6329-7.333,0.9497
		c-2.4247,0.4571-4.9487,0.595-7.3162,1.3635c-4.778,1.3479-9.6865,2.5163-14.2308,4.6186
		c-9.4269,3.5535-17.8973,9.0955-25.9315,15.1202c-3.6922,3.3327-7.7901,6.3926-11.0639,10.1684l-5.1471,5.5002l-4.6161,5.9286
		c-3.2311,3.8804-5.6435,8.2511-8.3984,12.4685c-2.4611,4.3405-4.7742,8.8104-6.8745,13.3723
		c-1.8399,4.7265-3.9765,9.0258-5.422,14.3387l-2.2993,7.7188c-0.6237,2.379-0.9908,4.3422-1.4951,6.5369l-0.7104,3.2124
		l-0.3556,1.6121l-0.1997,1.2627l-0.0519,0.4533l-0.1109,0.9118l-0.8793,7.3076c-0.212,2.2684-0.5353,4.5372-0.806,6.8113
		c-1.7994-1.4167-3.6323-2.7923-5.3862-4.2464l-5.789-4.5456l-0.7231-0.5663l-0.3572-0.2838l-1.0341-0.7516l-1.3914-0.8885
		l-2.7739-1.7692c-1.9085-1.1952-3.5563-2.3238-5.6795-3.565l-7.0838-3.8323c-4.7789-2.7346-9.3298-4.2639-13.9729-6.305
		c-4.7109-1.7407-9.5073-3.2657-14.3167-4.5947c-4.9301-1.0341-9.7265-2.4189-14.7551-2.878l-7.4563-0.928l-7.5288-0.2497
		c-4.9848-0.355-10.0461,0.379-15.0135,0.6332c-9.9412,1.4209-19.8494,3.4917-29.028,7.6448
		c-4.6999,1.7268-8.9968,4.3714-13.3285,6.7969c-2.2174,1.1306-4.0997,2.8179-6.1374,4.2092
		c-1.961,1.5129-4.0667,2.8221-5.8568,4.5137c-3.519,3.4335-7.393,6.4913-10.3049,10.3619l-4.5949,5.5599
		c-1.4591,1.8953-2.6467,3.9538-3.9593,5.9205l-1.9085,2.9787l-0.9486,1.4844l-0.4712,0.7418
		c-0.9509,1.6938-0.3527,0.6727-0.6134,1.1438l-0.1645,0.3462l-2.6184,5.5642c-0.4272,0.7801-0.8939,2.1593-1.3431,3.4347
		l-1.2928,3.8345l-1.1898,3.8246l-0.6857,3.5769c-2.0377,9.5106-1.8865,19.0091-0.6004,27.9324
		c2.4957,17.9728,9.8579,33.7958,19.1197,47.3698c4.7459,6.7542,10.1274,12.8981,15.9974,18.4056
		c3.1136,2.593,5.997,5.3539,9.4108,7.5341c1.7178,1.1481,3.1748,2.2415,5.0768,3.4039c1.6258,0.9136,2.9339,1.766,4.8226,2.7223
		c13.8327,7.3558,28.0726,11.3906,42.2799,12.4501c14.0429,0.9673,28.3771-0.8842,40.0755-8.3055
		c5.8087-3.6153,10.5919-9.011,13.2848-15.0443c2.6797-6.0771,3.3481-12.4905,2.8639-18.2967
		c-0.1403-1.455-0.3727-2.876-0.5589-4.2913c-0.3002-1.7081-0.5937-2.6743-0.8917-4.0351c-0.7319-2.7028-1.753-5.5314-2.9296-7.9131
		c-2.4102-4.9126-5.7625-9.1052-9.597-12.3316c-7.7017-6.4848-16.8805-9.1249-24.9284-9.207
		c-8.0655-0.0714-15.4407,2.5832-19.8122,7.281c-2.1822,2.3126-3.4903,5.0264-4.1432,7.59c-0.4734,2.6029-0.5939,5.01-0.206,7.086
		c0.6179,4.1709,1.9917,7.1013,2.9096,9.0197c0.9883,1.8922,1.5033,2.865,1.5033,2.865s-0.4404-1.0101-1.2885-2.9646
		c-0.7646-1.9621-1.8908-4.9738-2.178-9.0166c-0.2345-2.0126,0.0745-4.2682,0.6662-6.6019
		c0.7822-2.2919,2.1255-4.6057,4.2047-6.4989c4.1369-3.8399,10.9141-5.7526,18.1841-5.1381
		c7.2526,0.608,15.2458,3.6592,21.3767,9.6892c3.0543,2.9996,5.5807,6.7168,7.2701,10.9479
		c0.8699,2.1966,1.4396,4.2233,1.9107,6.5635c0.1687,1.1896,0.4667,2.777,0.5389,3.6754c0.0592,1.2096,0.1227,2.4268,0.1885,3.6505
		c0.0438,4.8785-0.9466,9.7406-3.1991,13.9695c-2.305,4.1861-5.881,7.7269-10.4824,10.1306
		c-9.1633,4.9507-21.348,5.8677-33.3489,4.0701c-24.2973-3.6658-48.9736-17.7809-62.5826-42.0488
		c-6.8671-11.8627-11.8474-25.5036-12.6276-39.2c-0.4644-6.8101-0.0065-13.6289,1.8954-19.8593l0.6135-2.3676l0.8239-1.9336
		l0.7581-1.9195c0.2387-0.6464,0.3725-1.2237,0.9969-2.2118l3.0281-5.3562l0.1885-0.3374
		c-0.1357,0.2443,0.5719-1.0166-0.2497,0.4622l0.4052-0.5257l0.8109-1.0508l1.5973-2.1088
		c16.5824-23.0803,46.8154-32.6664,75.4359-25.8378c3.6,0.5403,7.0708,1.9513,10.6029,2.9152
		c3.4553,1.2677,6.8954,2.6525,10.2609,4.1818c3.1881,1.766,6.8846,3.2834,9.5357,5.2106l4.3144,2.6743
		c1.5798,1.0703,3.4576,2.5603,5.1754,3.8201c11.5955,9.5106,23.0682,20.5692,31.2957,33.6085
		c8.5453,12.8804,15.2745,27.0176,20.3096,41.9227c5.0134,14.9402,8.1555,30.6701,10.2874,46.5755
		c2.1012,15.937,2.9996,32.0899,3.3436,48.495c0.1118,8.4139,0.23,16.7773,0.3462,25.0795
		c0.3417,8.8992,0.4997,17.9037,1.3693,26.8269c1.2886,17.8622,4.4832,35.6814,9.0056,53.0854
		c4.5597,17.415,11.1813,34.475,20.1868,50.3431c8.9376,15.8637,20.3029,30.5048,33.6184,42.6654
		c13.276,12.1849,28.3903,21.7689,43.761,28.5328C679.579,554.2477,694.0881,558.2246,708.0449,560.4851z M560.4851,708.0449
		c-2.2605-13.9568-6.2374-28.4659-12.6381-43.0292c-6.7639-15.3707-16.3478-30.485-28.5328-43.761
		c-12.1606-13.3155-26.8017-24.6808-42.6654-33.6184c-15.8682-9.0055-32.9282-15.6271-50.3431-20.1868
		c-17.404-4.5224-35.2233-7.717-53.0854-9.0056c-8.9232-0.8696-17.9277-1.0276-26.8269-1.3693
		c-8.3022-0.1162-16.6656-0.2344-25.0795-0.3462c-16.4051-0.344-32.558-1.2424-48.495-3.3436
		c-15.9054-2.132-31.6354-5.274-46.5755-10.2874c-14.9052-5.0351-29.0423-11.7642-41.9227-20.3096
		c-13.0393-8.2275-24.0979-19.7002-33.6085-31.2957c-1.2598-1.7178-2.7499-3.5956-3.8201-5.1754l-2.6743-4.3144
		c-1.9271-2.6512-3.4445-6.3477-5.2106-9.5357c-1.5293-3.3656-2.9141-6.8056-4.1818-10.2609
		c-0.9639-3.532-2.375-7.0028-2.9152-10.6029c-6.8285-28.6205,2.7575-58.8535,25.8378-75.4359l2.1088-1.5973l1.0508-0.8109
		l0.5257-0.4052c-1.4788,0.8216-0.2179,0.114-0.4622,0.2497l0.3374-0.1885l5.3562-3.0281c0.9881-0.6244,1.5654-0.7581,2.2118-0.9969
		l1.9195-0.7581l1.9336-0.8239l2.3676-0.6135c6.2303-1.9019,13.0492-2.3599,19.8593-1.8954
		c13.6965,0.7802,27.3373,5.7605,39.2,12.6276c24.2679,13.6089,38.3831,38.2852,42.0488,62.5826
		c1.7977,12.0009,0.8806,24.1856-4.0701,33.3489c-2.4037,4.6014-5.9445,8.1774-10.1306,10.4824
		c-4.2289,2.2524-9.091,3.2428-13.9695,3.1991c-1.2237-0.0657-2.4409-0.1292-3.6505-0.1885
		c-0.8984-0.0722-2.4858-0.3702-3.6754-0.5389c-2.3402-0.4712-4.3669-1.0408-6.5635-1.9107
		c-4.2312-1.6893-7.9483-4.2157-10.9479-7.2701c-6.03-6.1309-9.0812-14.1241-9.6892-21.3767
		c-0.6145-7.2701,1.2982-14.0472,5.1381-18.1841c1.8932-2.0793,4.207-3.4225,6.4989-4.2047
		c2.3337-0.5917,4.5892-0.9006,6.6019-0.6662c4.0427,0.2872,7.0545,1.4133,9.0166,2.178c1.9545,0.8481,2.9646,1.2885,2.9646,1.2885
		s-0.9729-0.5149-2.865-1.5033c-1.9184-0.9179-4.8488-2.2917-9.0197-2.9096c-2.0761-0.3879-4.4831-0.2675-7.086,0.206
		c-2.5637,0.6529-5.2774,1.961-7.59,4.1432c-4.6979,4.3714-7.3524,11.7467-7.281,19.8122
		c0.0821,8.0479,2.7223,17.2267,9.207,24.9284c3.2265,3.8345,7.419,7.1869,12.3316,9.597c2.3817,1.1766,5.2103,2.1977,7.9131,2.9296
		c1.3608,0.298,2.327,0.5915,4.0351,0.8917c1.4153,0.1862,2.8363,0.4186,4.2913,0.5589c5.8063,0.4842,12.2197-0.1842,18.2967-2.8639
		c6.0333-2.6929,11.429-7.476,15.0443-13.2848c7.4213-11.6985,9.2728-26.0326,8.3055-40.0755
		c-1.0595-14.2074-5.0943-28.4473-12.4501-42.2799c-0.9563-1.8888-1.8087-3.1968-2.7223-4.8226
		c-1.1625-1.902-2.2558-3.359-3.4039-5.0768c-2.1802-3.4138-4.9411-6.2972-7.5341-9.4108
		c-5.5074-5.87-11.6513-11.2515-18.4056-15.9974c-13.574-9.2618-29.397-16.6241-47.3698-19.1197
		c-8.9232-1.2861-18.4217-1.4373-27.9324,0.6004l-3.5769,0.6857l-3.8246,1.1898l-3.8345,1.2928
		c-1.2753,0.4492-2.6546,0.9159-3.4347,1.3431l-5.5642,2.6184l-0.3462,0.1645c-0.4712,0.2607,0.5499-0.3374-1.1438,0.6134
		l-0.7418,0.4712l-1.4844,0.9486l-2.9787,1.9085c-1.9666,1.3126-4.0252,2.5002-5.9205,3.9593l-5.5599,4.5949
		c-3.8706,2.9119-6.9283,6.7859-10.3619,10.3049c-1.6915,1.7901-3.0007,3.8958-4.5137,5.8568
		c-1.3913,2.0377-3.0786,3.92-4.2092,6.1374c-2.4254,4.3317-5.0701,8.6286-6.7969,13.3285
		c-4.1531,9.1786-6.2238,19.0868-7.6448,29.028c-0.2542,4.9673-0.9882,10.0287-0.6332,15.0135l0.2497,7.5288l0.928,7.4563
		c0.4591,5.0286,1.8439,9.825,2.878,14.7551c1.3289,4.8094,2.854,9.6057,4.5947,14.3167c2.0411,4.6431,3.5704,9.194,6.305,13.9729
		l3.8323,7.0838c1.2412,2.1232,2.3698,3.771,3.565,5.6795l1.7692,2.7739l0.8885,1.3914l0.7516,1.0341l0.2838,0.3572l0.5663,0.7231
		l4.5456,5.789c1.4541,1.7539,2.8298,3.5869,4.2464,5.3862c-2.2741,0.2706-4.5429,0.594-6.8113,0.806l-7.3076,0.8793l-0.9118,0.1109
		l-0.4533,0.0519l-1.2627,0.1997l-1.6121,0.3556l-3.2124,0.7104c-2.1947,0.5043-4.1578,0.8715-6.5369,1.4951l-7.7188,2.2993
		c-5.3128,1.4455-9.6122,3.5821-14.3387,5.422c-4.5619,2.1002-9.0319,4.4134-13.3723,6.8745
		c-4.2173,2.7549-8.5881,5.1672-12.4685,8.3984l-5.9286,4.6161l-5.5002,5.1471c-3.7758,3.2738-6.8357,7.3717-10.1684,11.0639
		c-6.0247,8.0342-11.5667,16.5046-15.1202,25.9315c-2.1023,4.5443-3.2707,9.4528-4.6186,14.2308
		c-0.7685,2.3674-0.9064,4.8915-1.3635,7.3162c-0.3168,2.4564-0.8801,4.8712-0.9497,7.333
		c-0.0604,4.9162-0.6376,9.8177,0.0403,14.6136l0.6824,7.1805c0.3084,2.3719,0.9243,4.6672,1.3868,6.986l0.7568,3.4557
		l0.3789,1.7205l0.1913,0.8577c0.5253,1.8701,0.2262,0.725,0.3751,1.2426l0.1285,0.3611l2.083,5.7859
		c0.2495,0.8537,0.8948,2.159,1.479,3.3784l1.7973,3.6255l1.8631,3.5457l2.0444,3.0142
		c5.2841,8.1659,12.1075,14.7754,19.3266,20.1757c14.4734,10.944,30.8679,16.9266,47.0152,19.9758
		c8.1318,1.4201,16.2815,1.9592,24.3266,1.7028c4.0352-0.368,8.0263-0.4547,11.9818-1.327c2.0265-0.4028,3.8299-0.66,5.9968-1.1829
		c1.7957-0.5035,3.3233-0.8258,5.3351-1.4852c14.9825-4.5798,27.9047-11.7959,38.7-21.0929
		c10.6138-9.2458,19.4404-20.6909,22.4648-34.2106c1.551-6.6638,1.1179-13.8613-1.2442-20.0316
		c-2.4023-6.192-6.4647-11.1996-10.9127-14.9628c-1.128-0.9297-2.2971-1.7701-3.4296-2.6392
		c-1.4201-0.9955-2.3108-1.4712-3.4837-2.2227c-2.4286-1.3936-5.1509-2.6718-7.6669-3.5239
		c-5.178-1.7695-10.5131-2.3636-15.5059-1.9337c-10.0314,0.8605-18.3886,5.484-24.1375,11.1167
		c-5.7536,5.6526-9.0917,12.7448-8.8608,19.1578c0.0922,3.1783,1.0862,6.0222,2.4373,8.2966
		c1.5058,2.1754,3.1226,3.9626,4.865,5.1563c3.3862,2.5123,6.4298,3.613,8.4353,4.3205c2.0368,0.639,3.0888,0.9629,3.0888,0.9629
		s-1.0257-0.4028-3.0074-1.1852c-1.9281-0.8467-4.854-2.1801-7.9157-4.8356c-1.5889-1.2573-2.9654-3.0707-4.1972-5.1392
		c-1.0676-2.1738-1.7538-4.7596-1.6222-7.5686c0.2101-5.6405,3.6497-11.7852,9.2249-16.4913
		c5.5583-4.6984,13.3679-8.1929,21.9669-8.2643c4.2808-0.0386,8.6956,0.8033,12.8821,2.6007
		c2.1683,0.9381,4.0043,1.9684,5.9922,3.29c0.9605,0.7219,2.2937,1.6337,2.98,2.2178c0.8972,0.8134,1.8028,1.6292,2.7146,2.4481
		c3.4806,3.4186,6.2183,7.557,7.6159,12.14c1.3302,4.5898,1.3052,9.6222-0.2488,14.5756
		c-2.9787,9.9801-10.9462,19.2444-20.7032,26.4592c-19.7729,14.5887-47.2026,22.0566-73.9856,14.5195
		c-13.244-3.5324-26.4111-9.6563-36.6476-18.7896c-5.1439-4.4871-9.6417-9.6325-12.7023-15.3829l-1.2403-2.1079l-0.7847-1.9499
		l-0.8212-1.8934c-0.2883-0.6259-0.6019-1.1287-0.8591-2.2689l-1.6462-5.9286l-0.1053-0.3718
		c0.0768,0.2687-0.3145-1.1233,0.1502,0.5034l-0.0852-0.6583l-0.1696-1.3164l-0.3617-2.6206
		c-4.5948-28.0458,10.0049-56.2021,35.0711-71.6113c2.9276-2.1636,6.3796-3.62,9.5587-5.436
		c3.3397-1.5469,6.7514-3.0001,10.2126-4.2986c3.5031-1.0056,7.1899-2.5464,10.4272-3.0583l4.9418-1.1598
		c1.8739-0.3603,4.2553-0.6345,6.3608-0.9583c14.9243-1.4742,30.8563-1.7671,45.8942,1.6354
		c15.1503,3.0654,29.905,8.3036,44.0049,15.2828c14.1093,7.0193,27.4538,15.9203,40.2082,25.6596
		c12.755,9.7834,24.8121,20.5699,36.6554,31.9269c6.0285,5.8705,12.026,11.7007,17.9787,17.4891
		c6.5343,6.051,13.0131,12.3065,19.9377,18.0012c13.5416,11.7193,28.4007,22.0605,43.905,31.1691
		c15.5384,9.0901,32.2838,16.4711,49.8722,21.3237c17.5371,4.8975,35.9264,7.2139,53.9408,6.3973
		c18.0036-0.7715,35.4679-4.6821,51.1194-10.768C535.9462,723.7629,549.0177,716.3155,560.4851,708.0449z M560.4851,916.726
		c-11.4674-8.2706-24.5389-15.718-39.3627-21.4897c-15.6515-6.086-33.1158-9.9965-51.1194-10.768
		c-18.0143-0.8166-36.4036,1.4998-53.9408,6.3972c-17.5884,4.8526-34.3338,12.2336-49.8722,21.3237
		c-15.5043,9.1086-30.3634,19.4499-43.905,31.1692c-6.9246,5.6947-13.4034,11.9501-19.9377,18.0012
		c-5.9527,5.7883-11.9501,11.6186-17.9787,17.4891c-11.8434,11.3569-23.9004,22.1435-36.6554,31.9269
		c-12.7543,9.7393-26.0989,18.6403-40.2082,25.6596c-14.0999,6.9792-28.8546,12.2175-44.0049,15.2828
		c-15.0379,3.4025-30.9699,3.1096-45.8942,1.6354c-2.1055-0.3237-4.4869-0.5979-6.3608-0.9583l-4.9418-1.1598
		c-3.2373-0.512-6.9241-2.0527-10.4272-3.0583c-3.4612-1.2985-6.8729-2.7517-10.2126-4.2986
		c-3.1791-1.8159-6.6311-3.2723-9.5587-5.4359c-25.0662-15.4093-39.6659-43.5656-35.0711-71.6114l0.3617-2.6206l0.1696-1.3163
		l0.0852-0.6583c-0.4647,1.6266-0.0735,0.2346-0.1502,0.5034l0.1053-0.3719l1.6462-5.9286c0.2572-1.1403,0.5708-1.643,0.8591-2.2689
		l0.8212-1.8934l0.7847-1.9499l1.2403-2.1078c3.0606-5.7504,7.5585-10.8959,12.7023-15.3829
		c10.2365-9.1332,23.4037-15.2571,36.6476-18.7896c26.783-7.537,54.2127-0.0692,73.9856,14.5195
		c9.7571,7.2148,17.7245,16.4791,20.7032,26.4592c1.554,4.9534,1.5789,9.9857,0.2488,14.5756
		c-1.3976,4.5831-4.1353,8.7214-7.6159,12.1401c-0.9118,0.8188-1.8174,1.6346-2.7146,2.448c-0.6863,0.5842-2.0195,1.496-2.98,2.2178
		c-1.9879,1.3216-3.8239,2.3519-5.9922,3.29c-4.1864,1.7974-8.6013,2.6393-12.8821,2.6006
		c-8.5991-0.0714-16.4086-3.5659-21.9669-8.2643c-5.5753-4.7062-9.0149-10.8508-9.2249-16.4913
		c-0.1315-2.809,0.5546-5.3949,1.6222-7.5686c1.2318-2.0685,2.6083-3.882,4.1972-5.1393c3.0617-2.6556,5.9876-3.9889,7.9157-4.8356
		c1.9818-0.7823,3.0074-1.1851,3.0074-1.1851s-1.052,0.3238-3.0888,0.9629c-2.0056,0.7074-5.0491,1.8082-8.4353,4.3204
		c-1.7423,1.1937-3.3592,2.981-4.865,5.1563c-1.3511,2.2745-2.3451,5.1183-2.4373,8.2967
		c-0.2308,6.4129,3.1073,13.5051,8.8608,19.1577c5.7488,5.6328,14.1061,10.2562,24.1375,11.1168
		c4.9928,0.4299,10.3279-0.1642,15.5059-1.9337c2.5161-0.8521,5.2383-2.1302,7.6669-3.5239
		c1.1729-0.7515,2.0636-1.2272,3.4837-2.2227c1.1325-0.8691,2.3016-1.7095,3.4296-2.6392
		c4.448-3.7632,8.5104-8.7709,10.9127-14.9628c2.362-6.1704,2.7952-13.3679,1.2442-20.0317
		c-3.0244-13.5197-11.851-24.9647-22.4648-34.2106c-10.7953-9.2969-23.7175-16.513-38.7-21.0929
		c-2.0117-0.6594-3.5394-0.9816-5.3351-1.4852c-2.1669-0.5229-3.9703-0.7801-5.9968-1.1829
		c-3.9555-0.8723-7.9466-0.9589-11.9818-1.327c-8.045-0.2563-16.1948,0.2827-24.3266,1.7028
		c-16.1473,3.0492-32.5418,9.0319-47.0152,19.9758c-7.2191,5.4003-14.0425,12.0098-19.3266,20.1757l-2.0444,3.0141l-1.8631,3.5458
		l-1.7973,3.6255c-0.5841,1.2195-1.2294,2.5247-1.479,3.3784l-2.083,5.7859l-0.1285,0.3611
		c-0.1488,0.5176,0.1502-0.6274-0.3751,1.2426l-0.1913,0.8577l-0.3789,1.7205l-0.7568,3.4558
		c-0.4625,2.3187-1.0784,4.6141-1.3868,6.986l-0.6824,7.1805c-0.6779,4.796-0.1007,9.6974-0.0403,14.6136
		c0.0697,2.4619,0.6329,4.8766,0.9497,7.333c0.4571,2.4247,0.595,4.9487,1.3635,7.3162c1.3479,4.778,2.5163,9.6865,4.6186,14.2308
		c3.5535,9.4269,9.0955,17.8973,15.1202,25.9315c3.3327,3.6923,6.3926,7.7902,10.1684,11.064l5.5002,5.147l5.9286,4.6162
		c3.8804,3.2312,8.2511,5.6436,12.4685,8.3984c4.3405,2.4609,8.8104,4.7742,13.3723,6.8744c4.7265,1.84,9.0258,3.9766,14.3387,5.422
		l7.7188,2.2993c2.379,0.6237,4.3422,0.9907,6.5369,1.4951l3.2124,0.7104l1.6121,0.3555l1.2627,0.1998l0.4533,0.0519l0.9118,0.1108
		l7.3076,0.8793c2.2684,0.212,4.5372,0.5354,6.8113,0.806c-1.4167,1.7993-2.7923,3.6323-4.2464,5.3862l-4.5456,5.7889
		l-0.5663,0.7231l-0.2838,0.3572l-0.7516,1.0342l-0.8885,1.3914l-1.7692,2.7738c-1.1952,1.9086-2.3238,3.5563-3.565,5.6796
		l-3.8323,7.0837c-2.7346,4.7789-4.2639,9.3298-6.305,13.973c-1.7407,4.7108-3.2657,9.5072-4.5947,14.3165
		c-1.0341,4.9302-2.4189,9.7266-2.878,14.7551l-0.928,7.4563l-0.2497,7.5288c-0.355,4.9847,0.379,10.0461,0.6332,15.0134
		c1.4209,9.9412,3.4917,19.8494,7.6448,29.028c1.7268,4.7,4.3714,8.9968,6.7969,13.3285c1.1306,2.2175,2.8179,4.0997,4.2092,6.1375
		c1.5129,1.9611,2.8221,4.0668,4.5137,5.8568c3.4335,3.519,6.4913,7.3931,10.3619,10.3048l5.5599,4.595
		c1.8953,1.4591,3.9538,2.6466,5.9205,3.9592l2.9787,1.9084l1.4844,0.9487l0.7418,0.4711c1.6938,0.9509,0.6727,0.3528,1.1438,0.6135
		l0.3462,0.1644l5.5642,2.6184c0.7801,0.4272,2.1593,0.8939,3.4347,1.3431l3.8345,1.2927l3.8246,1.1898l3.5769,0.6857
		c9.5106,2.0378,19.0091,1.8866,27.9324,0.6005c17.9728-2.4957,33.7958-9.8579,47.3698-19.1198
		c6.7542-4.7458,12.8981-10.1274,18.4056-15.9974c2.593-3.1135,5.3539-5.9969,7.5341-9.4106
		c1.1481-1.7179,2.2415-3.1749,3.4039-5.0769c0.9136-1.6259,1.766-2.9338,2.7223-4.8226
		c7.3558-13.8326,11.3906-28.0726,12.4501-42.2799c0.9673-14.043-0.8842-28.3771-8.3055-40.0756
		c-3.6153-5.8087-9.011-10.5919-15.0443-13.2848c-6.0771-2.6797-12.4905-3.348-18.2967-2.8639
		c-1.455,0.1403-2.876,0.3727-4.2913,0.559c-1.7081,0.3002-2.6743,0.5936-4.0351,0.8917c-2.7028,0.7318-5.5314,1.7529-7.9131,2.9296
		c-4.9126,2.4102-9.1052,5.7625-12.3316,9.597c-6.4848,7.7017-9.1249,16.8805-9.207,24.9283
		c-0.0714,8.0656,2.5832,15.4408,7.281,19.8123c2.3126,2.1821,5.0264,3.4902,7.59,4.1432c2.6029,0.4734,5.01,0.5939,7.086,0.2059
		c4.1709-0.6179,7.1013-1.9917,9.0197-2.9097c1.8922-0.9883,2.865-1.5032,2.865-1.5032s-1.0101,0.4404-2.9646,1.2885
		c-1.9621,0.7648-4.9738,1.8909-9.0166,2.178c-2.0126,0.2345-4.2682-0.0745-6.6019-0.6661
		c-2.2919-0.7821-4.6057-2.1255-6.4989-4.2047c-3.8399-4.137-5.7526-10.9141-5.1381-18.1841
		c0.608-7.2526,3.6592-15.2457,9.6892-21.3767c2.9996-3.0543,6.7168-5.5807,10.9479-7.27c2.1966-0.8699,4.2233-1.4396,6.5635-1.9108
		c1.1896-0.1687,2.777-0.4667,3.6754-0.5389c1.2096-0.0592,2.4268-0.1227,3.6505-0.1885c4.8785-0.0437,9.7406,0.9467,13.9695,3.1991
		c4.1861,2.3049,7.7269,5.881,10.1306,10.4824c4.9507,9.1632,5.8677,21.3479,4.0701,33.3489
		c-3.6658,24.2972-17.7809,48.9735-42.0488,62.5825c-11.8627,6.8671-25.5036,11.8474-39.2,12.6276
		c-6.8101,0.4645-13.6289,0.0065-19.8593-1.8954l-2.3676-0.6135l-1.9336-0.8239l-1.9195-0.7582
		c-0.6464-0.2388-1.2237-0.3724-2.2118-0.9968l-5.3562-3.0282l-0.3374-0.1885c0.2443,0.1357-1.0166-0.5719,0.4622,0.2498
		l-0.5257-0.4052l-1.0508-0.8109l-2.1088-1.5973c-23.0803-16.5824-32.6664-46.8154-25.8378-75.4359
		c0.5403-3.6,1.9513-7.0708,2.9152-10.6028c1.2677-3.4553,2.6525-6.8954,4.1818-10.261c1.766-3.1881,3.2834-6.8845,5.2106-9.5358
		l2.6743-4.3143c1.0703-1.5798,2.5603-3.4576,3.8201-5.1754c9.5106-11.5955,20.5692-23.0682,33.6085-31.2957
		c12.8804-8.5454,27.0176-15.2744,41.9227-20.3096c14.9402-5.0133,30.6701-8.1554,46.5755-10.2874
		c15.937-2.1012,32.0899-2.9996,48.495-3.3436c8.4139-0.1117,16.7773-0.23,25.0795-0.3462
		c8.8992-0.3417,17.9037-0.4996,26.8269-1.3693c17.8622-1.2886,35.6814-4.4832,53.0854-9.0056
		c17.415-4.5597,34.475-11.1813,50.3431-20.1868c15.8637-8.9376,30.5048-20.3029,42.6654-33.6184
		c12.1849-13.2761,21.7689-28.3903,28.5328-43.761C554.2477,945.192,558.2246,930.6829,560.4851,916.726z M708.0449,1064.2859
		c-13.9568,2.2605-28.4659,6.2373-43.0292,12.6381c-15.3707,6.7639-30.485,16.3479-43.761,28.5328
		c-13.3155,12.1606-24.6808,26.8016-33.6184,42.6654c-9.0055,15.8682-15.6271,32.9281-20.1868,50.3431
		c-4.5224,17.4039-7.717,35.2233-9.0056,53.0853c-0.8696,8.9233-1.0276,17.9277-1.3693,26.8269
		c-0.1162,8.3022-0.2344,16.6656-0.3462,25.0795c-0.344,16.4052-1.2424,32.558-3.3436,48.4951
		c-2.132,15.9054-5.274,31.6353-10.2874,46.5754c-5.0351,14.9052-11.7642,29.0424-20.3096,41.9227
		c-8.2275,13.0393-19.7002,24.0979-31.2957,33.6085c-1.7178,1.2599-3.5956,2.7499-5.1754,3.8202l-4.3144,2.6742
		c-2.6512,1.9271-6.3477,3.4446-9.5357,5.2106c-3.3656,1.5293-6.8056,2.9142-10.2609,4.1819
		c-3.532,0.9639-7.0028,2.3749-10.6029,2.9152c-28.6205,6.8286-58.8535-2.7574-75.4359-25.8378l-1.5973-2.1089l-0.8109-1.0508
		l-0.4052-0.5256c0.8216,1.4788,0.114,0.2179,0.2497,0.4622l-0.1885-0.3374l-3.0281-5.3562
		c-0.6244-0.9882-0.7581-1.5654-0.9969-2.2118l-0.7581-1.9196l-0.8239-1.9336l-0.6135-2.3676
		c-1.9019-6.2303-2.3599-13.0492-1.8954-19.8593c0.7802-13.6965,5.7605-27.3374,12.6276-39.2001
		c13.6089-24.2679,38.2852-38.3831,62.5826-42.0488c12.0009-1.7976,24.1856-0.8806,33.3489,4.0701
		c4.6014,2.4037,8.1774,5.9445,10.4824,10.1306c2.2524,4.2289,3.2428,9.0909,3.1991,13.9695
		c-0.0657,1.2238-0.1292,2.4409-0.1885,3.6505c-0.0722,0.8984-0.3702,2.4858-0.5389,3.6754
		c-0.4712,2.3402-1.0408,4.3669-1.9107,6.5635c-1.6893,4.2312-4.2157,7.9484-7.2701,10.948
		c-6.1309,6.0299-14.1241,9.0812-21.3767,9.6892c-7.2701,0.6145-14.0472-1.2982-18.1841-5.1381
		c-2.0793-1.8933-3.4225-4.207-4.2047-6.4989c-0.5917-2.3337-0.9006-4.5892-0.6662-6.6019c0.2872-4.0427,1.4133-7.0544,2.178-9.0165
		c0.8481-1.9546,1.2885-2.9647,1.2885-2.9647s-0.5149,0.9729-1.5033,2.8651c-0.9179,1.9183-2.2917,4.8488-2.9096,9.0197
		c-0.3879,2.076-0.2675,4.4832,0.206,7.0861c0.6529,2.5636,1.961,5.2775,4.1432,7.59c4.3714,4.6979,11.7467,7.3524,19.8122,7.2811
		c8.0479-0.0822,17.2267-2.7223,24.9284-9.207c3.8345-3.2266,7.1869-7.4191,9.597-12.3317
		c1.1766-2.3817,2.1977-5.2103,2.9296-7.9131c0.298-1.3608,0.5915-2.327,0.8917-4.0352c0.1862-1.4153,0.4186-2.8362,0.5589-4.2913
		c0.4842-5.8063-0.1842-12.2197-2.8639-18.2968c-2.6929-6.0333-7.476-11.429-13.2848-15.0443
		c-11.6985-7.4213-26.0326-9.2728-40.0755-8.3055c-14.2074,1.0594-28.4473,5.0944-42.2799,12.4501
		c-1.8888,0.9563-3.1968,1.8087-4.8226,2.7223c-1.902,1.1625-3.359,2.2559-5.0768,3.4039
		c-3.4138,2.1803-6.2972,4.9412-9.4108,7.5342c-5.87,5.5074-11.2515,11.6514-15.9974,18.4056
		c-9.2618,13.574-16.6241,29.397-19.1197,47.3698c-1.2861,8.9232-1.4373,18.4218,0.6004,27.9324l0.6857,3.5769l1.1898,3.8246
		l1.2928,3.8345c0.4492,1.2754,0.9159,2.6545,1.3431,3.4347l2.6184,5.5642l0.1645,0.3462c0.2607,0.4712-0.3374-0.5499,0.6134,1.1438
		l0.4712,0.7418l0.9486,1.4844l1.9085,2.9788c1.3126,1.9667,2.5002,4.0253,3.9593,5.9205l4.5949,5.5598
		c2.9119,3.8706,6.7859,6.9283,10.3049,10.3619c1.7901,1.6915,3.8958,3.0007,5.8568,4.5137c2.0377,1.3914,3.92,3.0786,6.1374,4.2092
		c4.3317,2.4254,8.6286,5.0701,13.3285,6.7968c9.1786,4.1532,19.0868,6.2239,29.028,7.6448
		c4.9673,0.2543,10.0287,0.9882,15.0135,0.6332l7.5288-0.2496l7.4563-0.9281c5.0286-0.459,9.825-1.8439,14.7551-2.8779
		c4.8094-1.329,9.6057-2.854,14.3167-4.5947c4.6431-2.041,9.194-3.5703,13.9729-6.3051l7.0838-3.8322
		c2.1232-1.2412,3.771-2.3699,5.6795-3.5651l2.7739-1.7692l1.3914-0.8885l1.0341-0.7516l0.3572-0.2838l0.7231-0.5663l5.789-4.5455
		c1.7539-1.4542,3.5869-2.8298,5.3862-4.2465c0.2706,2.274,0.594,4.5428,0.806,6.8113l0.8793,7.3076l0.1109,0.9117l0.0519,0.4534
		l0.1997,1.2627l0.3556,1.6121l0.7104,3.2124c0.5043,2.1947,0.8715,4.1578,1.4951,6.5369l2.2993,7.7189
		c1.4455,5.3129,3.5821,9.6122,5.422,14.3386c2.1002,4.562,4.4134,9.0319,6.8745,13.3723
		c2.7549,4.2174,5.1672,8.5881,8.3984,12.4685l4.6161,5.9286l5.1471,5.5002c3.2738,3.7758,7.3717,6.8357,11.0639,10.1685
		c8.0342,6.0247,16.5046,11.5667,25.9315,15.1201c4.5443,2.1024,9.4528,3.2708,14.2308,4.6187
		c2.3674,0.7684,4.8915,0.9064,7.3162,1.3634c2.4564,0.3169,4.8712,0.8801,7.333,0.9497c4.9162,0.0604,9.8177,0.6377,14.6136-0.0403
		l7.1805-0.6824c2.3719-0.3083,4.6672-0.9243,6.986-1.3867l3.4557-0.7568l1.7205-0.3789l0.8577-0.1913
		c1.8701-0.5253,0.725-0.2262,1.2426-0.3751l0.3611-0.1284l5.7859-2.083c0.8537-0.2495,2.159-0.8948,3.3784-1.479l3.6255-1.7972
		l3.5457-1.863l3.0142-2.0444c8.1659-5.2841,14.7754-12.1075,20.1757-19.3265c10.944-14.4734,16.9266-30.8679,19.9758-47.0153
		c1.4201-8.1318,1.9592-16.2815,1.7028-24.3265c-0.368-4.0353-0.4547-8.0264-1.327-11.9818c-0.4028-2.0266-0.66-3.83-1.1829-5.9968
		c-0.5035-1.7957-0.8258-3.3234-1.4852-5.3351c-4.5798-14.9825-11.7959-27.9048-21.0929-38.7001
		c-9.2458-10.6138-20.6909-19.4403-34.2106-22.4647c-6.6638-1.551-13.8613-1.1179-20.0316,1.2441
		c-6.192,2.4023-11.1996,6.4647-14.9628,10.9127c-0.9297,1.1281-1.7701,2.2971-2.6392,3.4296
		c-0.9955,1.4202-1.4712,2.3109-2.2227,3.4838c-1.3936,2.4287-2.6718,5.1509-3.5239,7.667
		c-1.7695,5.178-2.3636,10.5131-1.9337,15.5059c0.8605,10.0314,5.484,18.3887,11.1167,24.1375
		c5.6526,5.7537,12.7448,9.0917,19.1578,8.8608c3.1783-0.0922,6.0222-1.0862,8.2966-2.4373
		c2.1754-1.5057,3.9626-3.1226,5.1563-4.865c2.5123-3.3861,3.613-6.4297,4.3205-8.4353c0.639-2.0367,0.9629-3.0887,0.9629-3.0887
		s-0.4028,1.0256-1.1852,3.0073c-0.8467,1.9282-2.1801,4.8541-4.8356,7.9158c-1.2573,1.589-3.0707,2.9655-5.1392,4.1971
		c-2.1738,1.0676-4.7596,1.7538-7.5686,1.6223c-5.6405-0.2101-11.7852-3.6497-16.4913-9.225
		c-4.6984-5.5582-8.1929-13.3678-8.2643-21.9669c-0.0386-4.2808,0.8033-8.6957,2.6007-12.8821
		c0.9381-2.1683,1.9684-4.0043,3.29-5.9922c0.7219-0.9604,1.6337-2.2936,2.2178-2.98c0.8134-0.8972,1.6292-1.8027,2.4481-2.7146
		c3.4186-3.4805,7.557-6.2183,12.14-7.6158c4.5898-1.3302,9.6222-1.3052,14.5756,0.2488
		c9.9801,2.9788,19.2444,10.9462,26.4592,20.7032c14.5887,19.7728,22.0566,47.2025,14.5195,73.9856
		c-3.5324,13.2439-9.6563,26.4111-18.7896,36.6476c-4.4871,5.1439-9.6325,9.6417-15.3829,12.7024l-2.1079,1.2404l-1.9499,0.7847
		l-1.8934,0.8212c-0.6259,0.2883-1.1287,0.6019-2.2689,0.8591l-5.9286,1.6462l-0.3718,0.1053
		c0.2687-0.0768-1.1233,0.3145,0.5034-0.1503l-0.6583,0.0852l-1.3164,0.1696l-2.6206,0.3618
		c-28.0458,4.5947-56.2021-10.0049-71.6113-35.0712c-2.1636-2.9276-3.62-6.3796-5.436-9.5587
		c-1.5469-3.3397-3.0001-6.7513-4.2986-10.2125c-1.0056-3.5032-2.5464-7.1899-3.0583-10.4272l-1.1598-4.9418
		c-0.3603-1.8739-0.6345-4.2552-0.9583-6.3607c-1.4742-14.9243-1.7671-30.8563,1.6354-45.8942
		c3.0654-15.1504,8.3036-29.905,15.2828-44.0049c7.0193-14.1094,15.9203-27.4539,25.6596-40.2083
		c9.7834-12.755,20.5699-24.812,31.9269-36.6554c5.8705-6.0286,11.7007-12.026,17.4891-17.9786
		c6.051-6.5343,12.3065-13.0132,18.0012-19.9377c11.7193-13.5416,22.0605-28.4006,31.1691-43.9049
		c9.0901-15.5385,16.4711-32.2839,21.3237-49.8723c4.8975-17.5371,7.2139-35.9264,6.3973-53.9408
		c-0.7715-18.0035-4.6821-35.4679-10.768-51.1194C723.7629,1088.8248,716.3155,1075.7533,708.0449,1064.2859z M916.726,1064.2859
		c-8.2706,11.4674-15.718,24.5389-21.4897,39.3627c-6.086,15.6515-9.9965,33.1158-10.768,51.1194
		c-0.8166,18.0144,1.4998,36.4037,6.3972,53.9408c4.8526,17.5884,12.2336,34.3339,21.3237,49.8723
		c9.1086,15.5043,19.4499,30.3633,31.1692,43.9049c5.6947,6.9246,11.9501,13.4034,18.0012,19.9377
		c5.7883,5.9526,11.6186,11.9501,17.4891,17.9786c11.3569,11.8434,22.1435,23.9004,31.9269,36.6554
		c9.7393,12.7544,18.6403,26.0989,25.6596,40.2083c6.9792,14.0999,12.2175,28.8545,15.2828,44.0049
		c3.4025,15.0378,3.1096,30.9698,1.6354,45.8942c-0.3237,2.1055-0.5979,4.4868-0.9583,6.3607l-1.1598,4.9418
		c-0.512,3.2373-2.0527,6.9241-3.0583,10.4272c-1.2985,3.4612-2.7517,6.8728-4.2986,10.2125
		c-1.8159,3.1791-3.2723,6.6311-5.4359,9.5587c-15.4093,25.0663-43.5656,39.6659-71.6114,35.0712l-2.6206-0.3618l-1.3163-0.1696
		l-0.6583-0.0852c1.6266,0.4647,0.2346,0.0735,0.5034,0.1503l-0.3719-0.1053l-5.9286-1.6462
		c-1.1403-0.2572-1.643-0.5708-2.2689-0.8591l-1.8934-0.8212l-1.9499-0.7847l-2.1078-1.2404
		c-5.7504-3.0607-10.8959-7.5585-15.3829-12.7024c-9.1332-10.2365-15.2571-23.4037-18.7896-36.6476
		c-7.537-26.7831-0.0692-54.2128,14.5195-73.9856c7.2148-9.7571,16.4791-17.7245,26.4592-20.7032
		c4.9534-1.554,9.9857-1.579,14.5756-0.2488c4.5831,1.3976,8.7214,4.1354,12.1401,7.6158c0.8188,0.9119,1.6346,1.8174,2.448,2.7146
		c0.5842,0.6864,1.496,2.0195,2.2178,2.98c1.3216,1.9879,2.3519,3.8239,3.29,5.9922c1.7974,4.1864,2.6393,8.6013,2.6006,12.8821
		c-0.0714,8.5991-3.5659,16.4087-8.2643,21.9669c-4.7062,5.5753-10.8508,9.0149-16.4913,9.225
		c-2.809,0.1315-5.3949-0.5547-7.5686-1.6223c-2.0685-1.2317-3.882-2.6082-5.1393-4.1971
		c-2.6556-3.0616-3.9889-5.9875-4.8356-7.9158c-0.7823-1.9817-1.1851-3.0073-1.1851-3.0073s0.3238,1.052,0.9629,3.0887
		c0.7074,2.0056,1.8082,5.0492,4.3204,8.4353c1.1937,1.7424,2.981,3.3593,5.1563,4.865c2.2745,1.3511,5.1183,2.3451,8.2967,2.4373
		c6.4129,0.2308,13.5051-3.1072,19.1577-8.8608c5.6328-5.7488,10.2562-14.1061,11.1168-24.1375
		c0.4299-4.9928-0.1642-10.3279-1.9337-15.5059c-0.8521-2.5161-2.1302-5.2383-3.5239-7.667
		c-0.7515-1.1729-1.2272-2.0636-2.2227-3.4838c-0.8691-1.1324-1.7095-2.3015-2.6392-3.4296
		c-3.7632-4.448-8.7709-8.5104-14.9628-10.9127c-6.1704-2.3621-13.3679-2.7952-20.0317-1.2441
		c-13.5197,3.0244-24.9647,11.851-34.2106,22.4647c-9.2969,10.7953-16.513,23.7175-21.0929,38.7001
		c-0.6594,2.0117-0.9816,3.5394-1.4852,5.3351c-0.5229,2.1669-0.7801,3.9702-1.1829,5.9968
		c-0.8723,3.9554-0.9589,7.9465-1.327,11.9818c-0.2563,8.045,0.2827,16.1947,1.7028,24.3265
		c3.0492,16.1473,9.0319,32.5419,19.9758,47.0153c5.4003,7.219,12.0098,14.0425,20.1757,19.3265l3.0141,2.0444l3.5458,1.863
		l3.6255,1.7972c1.2195,0.5842,2.5247,1.2295,3.3784,1.479l5.7859,2.083l0.3611,0.1284c0.5176,0.1489-0.6274-0.1501,1.2426,0.3751
		l0.8577,0.1913l1.7205,0.3789l3.4558,0.7568c2.3187,0.4624,4.6141,1.0784,6.986,1.3867l7.1805,0.6824
		c4.796,0.678,9.6974,0.1007,14.6136,0.0403c2.4619-0.0696,4.8766-0.6328,7.333-0.9497c2.4247-0.457,4.9487-0.595,7.3162-1.3634
		c4.778-1.3479,9.6865-2.5162,14.2308-4.6187c9.4269-3.5535,17.8973-9.0955,25.9315-15.1201
		c3.6923-3.3328,7.7902-6.3927,11.064-10.1685l5.147-5.5002l4.6162-5.9286c3.2312-3.8804,5.6436-8.2511,8.3984-12.4685
		c2.4609-4.3405,4.7742-8.8103,6.8744-13.3723c1.84-4.7264,3.9766-9.0258,5.422-14.3386l2.2993-7.7189
		c0.6237-2.379,0.9907-4.3422,1.4951-6.5369l0.7104-3.2124l0.3555-1.6121l0.1998-1.2627l0.0519-0.4534l0.1108-0.9117l0.8793-7.3076
		c0.212-2.2684,0.5354-4.5372,0.806-6.8113c1.7993,1.4166,3.6323,2.7922,5.3862,4.2465l5.7889,4.5455l0.7231,0.5663l0.3572,0.2838
		l1.0342,0.7516l1.3914,0.8885l2.7738,1.7692c1.9086,1.1952,3.5563,2.3239,5.6796,3.5651l7.0837,3.8322
		c4.7789,2.7347,9.3298,4.264,13.973,6.3051c4.7108,1.7407,9.5072,3.2657,14.3165,4.5947
		c4.9302,1.0341,9.7266,2.4189,14.7551,2.8779l7.4563,0.9281l7.5288,0.2496c4.9847,0.355,10.0461-0.3789,15.0134-0.6332
		c9.9412-1.4209,19.8494-3.4916,29.028-7.6448c4.7-1.7267,8.9968-4.3713,13.3285-6.7968c2.2175-1.1306,4.0997-2.8179,6.1375-4.2092
		c1.9611-1.5129,4.0668-2.8221,5.8568-4.5137c3.519-3.4336,7.3931-6.4913,10.3048-10.3619l4.595-5.5598
		c1.4591-1.8953,2.6466-3.9539,3.9592-5.9205l1.9084-2.9788l0.9487-1.4844l0.4711-0.7418c0.9509-1.6937,0.3528-0.6726,0.6135-1.1438
		l0.1644-0.3462l2.6184-5.5642c0.4272-0.7802,0.8939-2.1593,1.3431-3.4347l1.2927-3.8345l1.1898-3.8246l0.6857-3.5769
		c2.0378-9.5106,1.8866-19.0092,0.6005-27.9324c-2.4957-17.9728-9.8579-33.7958-19.1198-47.3698
		c-4.7458-6.7543-10.1274-12.8982-15.9974-18.4056c-3.1135-2.593-5.9969-5.3539-9.4106-7.5342
		c-1.7179-1.1481-3.1749-2.2415-5.0769-3.4039c-1.6259-0.9136-2.9338-1.766-4.8226-2.7223
		c-13.8326-7.3557-28.0726-11.3906-42.2799-12.4501c-14.043-0.9673-28.3771,0.8843-40.0756,8.3055
		c-5.8087,3.6154-10.5919,9.011-13.2848,15.0443c-2.6797,6.077-3.348,12.4905-2.8639,18.2968
		c0.1403,1.4551,0.3727,2.876,0.559,4.2913c0.3002,1.7081,0.5936,2.6743,0.8917,4.0352c0.7318,2.7028,1.7529,5.5314,2.9296,7.9131
		c2.4102,4.9126,5.7625,9.1051,9.597,12.3317c7.7017,6.4847,16.8805,9.1249,24.9283,9.207
		c8.0656,0.0713,15.4408-2.5833,19.8123-7.2811c2.1821-2.3125,3.4902-5.0264,4.1432-7.59c0.4734-2.6029,0.5939-5.01,0.2059-7.0861
		c-0.6179-4.1709-1.9917-7.1013-2.9097-9.0197c-0.9883-1.8922-1.5032-2.8651-1.5032-2.8651s0.4404,1.0101,1.2885,2.9647
		c0.7648,1.962,1.8909,4.9738,2.178,9.0165c0.2345,2.0127-0.0745,4.2682-0.6661,6.6019c-0.7821,2.2919-2.1255,4.6056-4.2047,6.4989
		c-4.137,3.8398-10.9141,5.7526-18.1841,5.1381c-7.2526-0.608-15.2457-3.6593-21.3767-9.6892
		c-3.0543-2.9996-5.5807-6.7168-7.27-10.948c-0.8699-2.1965-1.4396-4.2233-1.9108-6.5635c-0.1687-1.1896-0.4667-2.777-0.5389-3.6754
		c-0.0592-1.2096-0.1227-2.4268-0.1885-3.6505c-0.0437-4.8785,0.9467-9.7406,3.1991-13.9695
		c2.3049-4.1862,5.881-7.7269,10.4824-10.1306c9.1632-4.9507,21.3479-5.8677,33.3489-4.0701
		c24.2972,3.6658,48.9735,17.7809,62.5825,42.0488c6.8671,11.8627,11.8474,25.5035,12.6276,39.2001
		c0.4645,6.8101,0.0065,13.6289-1.8954,19.8593l-0.6135,2.3676l-0.8239,1.9336l-0.7582,1.9196
		c-0.2388,0.6464-0.3724,1.2236-0.9968,2.2118l-3.0282,5.3562l-0.1885,0.3374c0.1357-0.2443-0.5719,1.0166,0.2498-0.4622
		l-0.4052,0.5256l-0.8109,1.0508l-1.5973,2.1089c-16.5824,23.0803-46.8154,32.6664-75.4359,25.8378
		c-3.6-0.5403-7.0708-1.9513-10.6028-2.9152c-3.4553-1.2677-6.8954-2.6526-10.261-4.1819c-3.1881-1.766-6.8845-3.2834-9.5358-5.2106
		l-4.3143-2.6742c-1.5798-1.0703-3.4576-2.5603-5.1754-3.8202c-11.5955-9.5106-23.0682-20.5692-31.2957-33.6085
		c-8.5454-12.8804-15.2744-27.0176-20.3096-41.9227c-5.0133-14.9402-8.1554-30.67-10.2874-46.5754
		c-2.1012-15.9371-2.9996-32.09-3.3436-48.4951c-0.1117-8.4138-0.23-16.7772-0.3462-25.0795
		c-0.3417-8.8992-0.4996-17.9036-1.3693-26.8269c-1.2886-17.8621-4.4832-35.6814-9.0056-53.0853
		c-4.5597-17.415-11.1813-34.475-20.1868-50.3431c-8.9376-15.8638-20.3029-30.5048-33.6184-42.6654
		c-13.2761-12.1849-28.3903-21.7689-43.761-28.5328C945.192,1070.5232,930.6829,1066.5464,916.726,1064.2859z M1064.2859,916.726
		c2.2605,13.9569,6.2373,28.466,12.6381,43.0292c6.7639,15.3707,16.3479,30.485,28.5328,43.761
		c12.1606,13.3155,26.8016,24.6808,42.6654,33.6184c15.8682,9.0055,32.9281,15.6271,50.3431,20.1868
		c17.4039,4.5225,35.2233,7.717,53.0853,9.0056c8.9233,0.8696,17.9277,1.0276,26.8269,1.3693
		c8.3022,0.1162,16.6656,0.2345,25.0795,0.3462c16.4052,0.344,32.558,1.2424,48.4951,3.3436
		c15.9054,2.132,31.6353,5.274,46.5754,10.2874c14.9052,5.0352,29.0424,11.7642,41.9227,20.3096
		c13.0393,8.2274,24.0979,19.7002,33.6085,31.2957c1.2599,1.7178,2.7499,3.5956,3.8202,5.1754l2.6742,4.3143
		c1.9271,2.6512,3.4446,6.3477,5.2106,9.5358c1.5293,3.3656,2.9142,6.8057,4.1819,10.261c0.9639,3.532,2.3749,7.0028,2.9152,10.6028
		c6.8286,28.6205-2.7574,58.8535-25.8378,75.4359l-2.1089,1.5973l-1.0508,0.8109l-0.5256,0.4052
		c1.4788-0.8217,0.2179-0.114,0.4622-0.2498l-0.3374,0.1885l-5.3562,3.0282c-0.9882,0.6244-1.5654,0.7581-2.2118,0.9968
		l-1.9196,0.7582l-1.9336,0.8239l-2.3676,0.6135c-6.2303,1.9019-13.0492,2.3599-19.8593,1.8954
		c-13.6965-0.7802-27.3374-5.7605-39.2001-12.6276c-24.2679-13.609-38.3831-38.2853-42.0488-62.5825
		c-1.7976-12.001-0.8806-24.1857,4.0701-33.3489c2.4037-4.6014,5.9445-8.1775,10.1306-10.4824
		c4.2289-2.2524,9.0909-3.2428,13.9695-3.1991c1.2238,0.0658,2.4409,0.1293,3.6505,0.1885
		c0.8984,0.0723,2.4858,0.3702,3.6754,0.5389c2.3402,0.4712,4.3669,1.0409,6.5635,1.9108c4.2312,1.6893,7.9484,4.2157,10.948,7.27
		c6.0299,6.131,9.0812,14.1241,9.6892,21.3767c0.6145,7.27-1.2982,14.0471-5.1381,18.1841
		c-1.8933,2.0792-4.207,3.4226-6.4989,4.2047c-2.3337,0.5917-4.5892,0.9006-6.6019,0.6661
		c-4.0427-0.2871-7.0544-1.4132-9.0165-2.178c-1.9546-0.848-2.9647-1.2885-2.9647-1.2885s0.9729,0.5149,2.8651,1.5032
		c1.9183,0.918,4.8488,2.2917,9.0197,2.9097c2.076,0.3879,4.4832,0.2675,7.0861-0.2059c2.5636-0.653,5.2775-1.9611,7.59-4.1432
		c4.6979-4.3715,7.3524-11.7467,7.2811-19.8123c-0.0822-8.0479-2.7223-17.2267-9.207-24.9283
		c-3.2266-3.8346-7.4191-7.1869-12.3317-9.597c-2.3817-1.1766-5.2103-2.1978-7.9131-2.9296
		c-1.3608-0.2981-2.327-0.5916-4.0352-0.8917c-1.4153-0.1863-2.8362-0.4187-4.2913-0.559
		c-5.8063-0.4841-12.2197,0.1842-18.2968,2.8639c-6.0333,2.6929-11.429,7.4761-15.0443,13.2848
		c-7.4213,11.6985-9.2728,26.0326-8.3055,40.0756c1.0594,14.2073,5.0944,28.4473,12.4501,42.2799
		c0.9563,1.8888,1.8087,3.1968,2.7223,4.8226c1.1625,1.902,2.2559,3.359,3.4039,5.0769c2.1803,3.4137,4.9412,6.2971,7.5342,9.4106
		c5.5074,5.87,11.6514,11.2516,18.4056,15.9974c13.574,9.2618,29.397,16.624,47.3698,19.1198
		c8.9232,1.2861,18.4218,1.4374,27.9324-0.6005l3.5769-0.6857l3.8246-1.1898l3.8345-1.2927
		c1.2754-0.4492,2.6545-0.9159,3.4347-1.3431l5.5642-2.6184l0.3462-0.1644c0.4712-0.2607-0.5499,0.3374,1.1438-0.6135l0.7418-0.4711
		l1.4844-0.9487l2.9788-1.9084c1.9667-1.3126,4.0253-2.5001,5.9205-3.9592l5.5598-4.595
		c3.8706-2.9117,6.9283-6.7858,10.3619-10.3048c1.6915-1.79,3.0007-3.8958,4.5137-5.8568c1.3914-2.0377,3.0786-3.9199,4.2092-6.1375
		c2.4254-4.3317,5.0701-8.6285,6.7968-13.3285c4.1532-9.1786,6.2239-19.0868,7.6448-29.028
		c0.2543-4.9673,0.9882-10.0287,0.6332-15.0134l-0.2496-7.5288l-0.9281-7.4563c-0.459-5.0286-1.8439-9.825-2.8779-14.7551
		c-1.329-4.8093-2.854-9.6057-4.5947-14.3165c-2.041-4.6432-3.5703-9.1941-6.3051-13.973l-3.8322-7.0837
		c-1.2412-2.1233-2.3699-3.771-3.5651-5.6796l-1.7692-2.7738l-0.8885-1.3914l-0.7516-1.0342l-0.2838-0.3572l-0.5663-0.7231
		l-4.5455-5.7889c-1.4542-1.7539-2.8298-3.5869-4.2465-5.3862c2.274-0.2706,4.5428-0.594,6.8113-0.806l7.3076-0.8793l0.9117-0.1108
		l0.4534-0.0519l1.2627-0.1998l1.6121-0.3555l3.2124-0.7104c2.1947-0.5044,4.1578-0.8715,6.5369-1.4951l7.7189-2.2993
		c5.3129-1.4454,9.6122-3.582,14.3386-5.422c4.562-2.1002,9.0319-4.4135,13.3723-6.8744c4.2174-2.7549,8.5881-5.1672,12.4685-8.3984
		l5.9286-4.6162l5.5002-5.147c3.7758-3.2738,6.8357-7.3717,10.1685-11.064c6.0247-8.0342,11.5667-16.5045,15.1201-25.9315
		c2.1024-4.5443,3.2708-9.4528,4.6187-14.2308c0.7684-2.3675,0.9064-4.8915,1.3634-7.3162c0.3169-2.4564,0.8801-4.8712,0.9497-7.333
		c0.0604-4.9161,0.6377-9.8176-0.0403-14.6136l-0.6824-7.1805c-0.3083-2.3719-0.9243-4.6673-1.3867-6.986l-0.7568-3.4558
		l-0.3789-1.7205l-0.1913-0.8577c-0.5253-1.8701-0.2262-0.725-0.3751-1.2426l-0.1284-0.3611l-2.083-5.7859
		c-0.2495-0.8537-0.8948-2.1589-1.479-3.3784l-1.7972-3.6255l-1.863-3.5458l-2.0444-3.0141
		c-5.2841-8.166-12.1075-14.7755-19.3265-20.1757c-14.4734-10.944-30.8679-16.9266-47.0153-19.9758
		c-8.1318-1.4201-16.2815-1.9592-24.3265-1.7028c-4.0353,0.3681-8.0264,0.4547-11.9818,1.327
		c-2.0266,0.4028-3.83,0.66-5.9968,1.1829c-1.7957,0.5036-3.3234,0.8258-5.3351,1.4852
		c-14.9825,4.5799-27.9048,11.796-38.7001,21.0929c-10.6138,9.2459-19.4403,20.6909-22.4647,34.2106
		c-1.551,6.6638-1.1179,13.8613,1.2441,20.0317c2.4023,6.1919,6.4647,11.1995,10.9127,14.9628
		c1.1281,0.9297,2.2971,1.7701,3.4296,2.6392c1.4202,0.9955,2.3109,1.4712,3.4838,2.2227c2.4287,1.3937,5.1509,2.6718,7.667,3.5239
		c5.178,1.7695,10.5131,2.3636,15.5059,1.9337c10.0314-0.8605,18.3887-5.484,24.1375-11.1168
		c5.7537-5.6526,9.0917-12.7448,8.8608-19.1577c-0.0922-3.1783-1.0862-6.0222-2.4373-8.2967
		c-1.5057-2.1753-3.1226-3.9625-4.865-5.1563c-3.3861-2.5123-6.4297-3.613-8.4353-4.3204
		c-2.0367-0.6391-3.0887-0.9629-3.0887-0.9629s1.0256,0.4028,3.0073,1.1851c1.9282,0.8467,4.8541,2.1801,7.9158,4.8356
		c1.589,1.2573,2.9655,3.0707,4.1971,5.1393c1.0676,2.1737,1.7538,4.7596,1.6223,7.5686
		c-0.2101,5.6404-3.6497,11.7851-9.225,16.4913c-5.5582,4.6984-13.3678,8.1929-21.9669,8.2643
		c-4.2808,0.0387-8.6957-0.8033-12.8821-2.6006c-2.1683-0.9381-4.0043-1.9684-5.9922-3.29c-0.9604-0.7219-2.2936-1.6337-2.98-2.2178
		c-0.8972-0.8134-1.8027-1.6292-2.7146-2.448c-3.4805-3.4187-6.2183-7.557-7.6158-12.1401
		c-1.3302-4.5898-1.3052-9.6222,0.2488-14.5756c2.9788-9.9801,10.9462-19.2444,20.7032-26.4592
		c19.7728-14.5887,47.2025-22.0565,73.9856-14.5195c13.2439,3.5324,26.4111,9.6563,36.6476,18.7896
		c5.1439,4.4871,9.6417,9.6325,12.7024,15.3829l1.2404,2.1078l0.7847,1.9499l0.8212,1.8934
		c0.2883,0.6259,0.6019,1.1287,0.8591,2.2689l1.6462,5.9286l0.1053,0.3719c-0.0768-0.2688,0.3145,1.1232-0.1503-0.5034
		l0.0852,0.6583l0.1696,1.3163l0.3618,2.6206c4.5947,28.0458-10.0049,56.2021-35.0712,71.6114
		c-2.9276,2.1636-6.3796,3.62-9.5587,5.4359c-3.3397,1.5469-6.7513,3.0001-10.2125,4.2986
		c-3.5032,1.0056-7.1899,2.5464-10.4272,3.0583l-4.9418,1.1598c-1.8739,0.3604-4.2552,0.6345-6.3607,0.9583
		c-14.9243,1.4742-30.8563,1.7671-45.8942-1.6354c-15.1504-3.0653-29.905-8.3036-44.0049-15.2828
		c-14.1094-7.0193-27.4539-15.9203-40.2083-25.6596c-12.755-9.7834-24.812-20.5699-36.6554-31.9269
		c-6.0286-5.8705-12.026-11.7007-17.9786-17.4891c-6.5343-6.051-13.0132-12.3065-19.9377-18.0012
		c-13.5416-11.7193-28.4006-22.0605-43.9049-31.1692c-15.5385-9.0901-32.2839-16.4711-49.8723-21.3237
		c-17.5371-4.8975-35.9264-7.2138-53.9408-6.3972c-18.0035,0.7715-35.4679,4.682-51.1194,10.768
		C1088.8248,901.0081,1075.7533,908.4554,1064.2859,916.726z M1064.2859,708.0449c11.4674,8.2706,24.5389,15.718,39.3627,21.4897
		c15.6515,6.0859,33.1158,9.9965,51.1194,10.768c18.0144,0.8166,36.4037-1.4998,53.9408-6.3973
		c17.5884-4.8526,34.3339-12.2336,49.8723-21.3237c15.5043-9.1086,30.3633-19.4498,43.9049-31.1691
		c6.9246-5.6948,13.4034-11.9502,19.9377-18.0012c5.9526-5.7883,11.9501-11.6186,17.9786-17.4891
		c11.8434-11.3569,23.9004-22.1435,36.6554-31.9269c12.7544-9.7393,26.0989-18.6403,40.2083-25.6596
		c14.0999-6.9792,28.8545-12.2175,44.0049-15.2828c15.0378-3.4025,30.9698-3.1096,45.8942-1.6354
		c2.1055,0.3238,4.4868,0.598,6.3607,0.9583l4.9418,1.1598c3.2373,0.512,6.9241,2.0528,10.4272,3.0583
		c3.4612,1.2985,6.8728,2.7517,10.2125,4.2986c3.1791,1.816,6.6311,3.2724,9.5587,5.436
		c25.0663,15.4092,39.6659,43.5656,35.0712,71.6113l-0.3618,2.6206l-0.1696,1.3164l-0.0852,0.6583
		c0.4647-1.6267,0.0735-0.2347,0.1503-0.5034l-0.1053,0.3718l-1.6462,5.9286c-0.2572,1.1402-0.5708,1.643-0.8591,2.2689
		l-0.8212,1.8934l-0.7847,1.9499l-1.2404,2.1079c-3.0607,5.7504-7.5585,10.8958-12.7024,15.3829
		c-10.2365,9.1332-23.4037,15.2571-36.6476,18.7896c-26.7831,7.537-54.2128,0.0692-73.9856-14.5195
		c-9.7571-7.2148-17.7245-16.4791-20.7032-26.4592c-1.554-4.9534-1.579-9.9857-0.2488-14.5756
		c1.3976-4.583,4.1354-8.7214,7.6158-12.14c0.9119-0.8188,1.8174-1.6346,2.7146-2.4481c0.6864-0.5842,2.0195-1.496,2.98-2.2178
		c1.9879-1.3216,3.8239-2.3519,5.9922-3.29c4.1864-1.7974,8.6013-2.6393,12.8821-2.6007
		c8.5991,0.0714,16.4087,3.5659,21.9669,8.2643c5.5753,4.7061,9.0149,10.8508,9.225,16.4913
		c0.1315,2.809-0.5547,5.3948-1.6223,7.5686c-1.2317,2.0685-2.6082,3.8819-4.1971,5.1392
		c-3.0616,2.6556-5.9875,3.9889-7.9158,4.8356c-1.9817,0.7823-3.0073,1.1852-3.0073,1.1852s1.052-0.3239,3.0887-0.9629
		c2.0056-0.7075,5.0492-1.8082,8.4353-4.3205c1.7424-1.1937,3.3593-2.9809,4.865-5.1563c1.3511-2.2744,2.3451-5.1183,2.4373-8.2966
		c0.2308-6.413-3.1072-13.5051-8.8608-19.1578c-5.7488-5.6327-14.1061-10.2562-24.1375-11.1167
		c-4.9928-0.43-10.3279,0.1642-15.5059,1.9337c-2.5161,0.8521-5.2383,2.1302-7.667,3.5239
		c-1.1729,0.7515-2.0636,1.2272-3.4838,2.2227c-1.1324,0.8691-2.3015,1.7095-3.4296,2.6392
		c-4.448,3.7632-8.5104,8.7709-10.9127,14.9628c-2.3621,6.1703-2.7952,13.3679-1.2441,20.0316
		c3.0244,13.5197,11.851,24.9647,22.4647,34.2106c10.7953,9.297,23.7175,16.5131,38.7001,21.0929
		c2.0117,0.6594,3.5394,0.9816,5.3351,1.4852c2.1669,0.5229,3.9702,0.7801,5.9968,1.1829c3.9554,0.8723,7.9465,0.9589,11.9818,1.327
		c8.045,0.2564,16.1947-0.2827,24.3265-1.7028c16.1473-3.0492,32.5419-9.0319,47.0153-19.9758
		c7.219-5.4003,14.0425-12.0098,19.3265-20.1757l2.0444-3.0142l1.863-3.5457l1.7972-3.6255
		c0.5842-1.2194,1.2295-2.5247,1.479-3.3784l2.083-5.7859l0.1284-0.3611c0.1489-0.5175-0.1501,0.6275,0.3751-1.2426l0.1913-0.8577
		l0.3789-1.7205l0.7568-3.4557c0.4624-2.3188,1.0784-4.6141,1.3867-6.986l0.6824-7.1805c0.678-4.7959,0.1007-9.6974,0.0403-14.6136
		c-0.0696-2.4619-0.6328-4.8766-0.9497-7.333c-0.457-2.4247-0.595-4.9487-1.3634-7.3162c-1.3479-4.778-2.5162-9.6865-4.6187-14.2308
		c-3.5535-9.4269-9.0955-17.8973-15.1201-25.9315c-3.3328-3.6922-6.3927-7.7901-10.1685-11.0639l-5.5002-5.1471l-5.9286-4.6161
		c-3.8804-3.2311-8.2511-5.6435-12.4685-8.3984c-4.3405-2.4611-8.8103-4.7742-13.3723-6.8745
		c-4.7264-1.8399-9.0258-3.9765-14.3386-5.422l-7.7189-2.2993c-2.379-0.6237-4.3422-0.9908-6.5369-1.4951l-3.2124-0.7104
		l-1.6121-0.3556l-1.2627-0.1997l-0.4534-0.0519l-0.9117-0.1109l-7.3076-0.8793c-2.2684-0.212-4.5372-0.5353-6.8113-0.806
		c1.4166-1.7994,2.7922-3.6323,4.2465-5.3862l4.5455-5.789l0.5663-0.7231l0.2838-0.3572l0.7516-1.0341l0.8885-1.3914l1.7692-2.7739
		c1.1952-1.9085,2.3239-3.5563,3.5651-5.6795l3.8322-7.0838c2.7347-4.7789,4.264-9.3298,6.3051-13.9729
		c1.7407-4.7109,3.2657-9.5073,4.5947-14.3167c1.0341-4.9301,2.4189-9.7265,2.8779-14.7551l0.9281-7.4563l0.2496-7.5288
		c0.355-4.9848-0.3789-10.0461-0.6332-15.0135c-1.4209-9.9412-3.4916-19.8494-7.6448-29.028
		c-1.7267-4.6999-4.3713-8.9968-6.7968-13.3285c-1.1306-2.2174-2.8179-4.0997-4.2092-6.1374
		c-1.5129-1.961-2.8221-4.0667-4.5137-5.8568c-3.4336-3.519-6.4913-7.393-10.3619-10.3049l-5.5598-4.5949
		c-1.8953-1.4591-3.9539-2.6467-5.9205-3.9593l-2.9788-1.9085l-1.4844-0.9486l-0.7418-0.4712
		c-1.6937-0.9509-0.6726-0.3527-1.1438-0.6134l-0.3462-0.1645l-5.5642-2.6184c-0.7802-0.4272-2.1593-0.8939-3.4347-1.3431
		l-3.8345-1.2928l-3.8246-1.1898l-3.5769-0.6857c-9.5106-2.0377-19.0092-1.8865-27.9324-0.6004
		c-17.9728,2.4957-33.7958,9.8579-47.3698,19.1197c-6.7543,4.7459-12.8982,10.1274-18.4056,15.9974
		c-2.593,3.1136-5.3539,5.997-7.5342,9.4108c-1.1481,1.7178-2.2415,3.1748-3.4039,5.0768c-0.9136,1.6258-1.766,2.9339-2.7223,4.8226
		c-7.3557,13.8327-11.3906,28.0726-12.4501,42.2799c-0.9673,14.0429,0.8843,28.3771,8.3055,40.0755
		c3.6154,5.8087,9.011,10.5919,15.0443,13.2848c6.077,2.6797,12.4905,3.3481,18.2968,2.8639
		c1.4551-0.1403,2.876-0.3727,4.2913-0.5589c1.7081-0.3002,2.6743-0.5937,4.0352-0.8917c2.7028-0.7319,5.5314-1.753,7.9131-2.9296
		c4.9126-2.4102,9.1051-5.7625,12.3317-9.597c6.4847-7.7017,9.1249-16.8805,9.207-24.9284
		c0.0713-8.0655-2.5833-15.4407-7.2811-19.8122c-2.3125-2.1822-5.0264-3.4903-7.59-4.1432c-2.6029-0.4734-5.01-0.5939-7.0861-0.206
		c-4.1709,0.6179-7.1013,1.9917-9.0197,2.9096c-1.8922,0.9883-2.8651,1.5033-2.8651,1.5033s1.0101-0.4404,2.9647-1.2885
		c1.962-0.7646,4.9738-1.8908,9.0165-2.178c2.0127-0.2345,4.2682,0.0745,6.6019,0.6662c2.2919,0.7822,4.6056,2.1255,6.4989,4.2047
		c3.8398,4.1369,5.7526,10.9141,5.1381,18.1841c-0.608,7.2526-3.6593,15.2458-9.6892,21.3767
		c-2.9996,3.0543-6.7168,5.5807-10.948,7.2701c-2.1965,0.8699-4.2233,1.4396-6.5635,1.9107
		c-1.1896,0.1687-2.777,0.4667-3.6754,0.5389c-1.2096,0.0592-2.4268,0.1227-3.6505,0.1885
		c-4.8785,0.0438-9.7406-0.9466-13.9695-3.1991c-4.1862-2.305-7.7269-5.881-10.1306-10.4824
		c-4.9507-9.1633-5.8677-21.348-4.0701-33.3489c3.6658-24.2973,17.7809-48.9736,42.0488-62.5826
		c11.8627-6.8671,25.5035-11.8474,39.2001-12.6276c6.8101-0.4644,13.6289-0.0065,19.8593,1.8954l2.3676,0.6135l1.9336,0.8239
		l1.9196,0.7581c0.6464,0.2387,1.2236,0.3725,2.2118,0.9969l5.3562,3.0281l0.3374,0.1885
		c-0.2443-0.1357,1.0166,0.5719-0.4622-0.2497l0.5256,0.4052l1.0508,0.8109l2.1089,1.5973
		c23.0803,16.5824,32.6664,46.8154,25.8378,75.4359c-0.5403,3.6-1.9513,7.0708-2.9152,10.6029
		c-1.2677,3.4553-2.6526,6.8954-4.1819,10.2609c-1.766,3.1881-3.2834,6.8846-5.2106,9.5357l-2.6742,4.3144
		c-1.0703,1.5798-2.5603,3.4576-3.8202,5.1754c-9.5106,11.5955-20.5692,23.0682-33.6085,31.2957
		c-12.8804,8.5453-27.0176,15.2745-41.9227,20.3096c-14.9402,5.0134-30.67,8.1555-46.5754,10.2874
		c-15.9371,2.1012-32.09,2.9996-48.4951,3.3436c-8.4138,0.1118-16.7772,0.23-25.0795,0.3462
		c-8.8992,0.3417-17.9036,0.4997-26.8269,1.3693c-17.8621,1.2886-35.6814,4.4832-53.0853,9.0056
		c-17.415,4.5597-34.475,11.1813-50.3431,20.1868c-15.8638,8.9376-30.5048,20.3029-42.6654,33.6184
		c-12.1849,13.276-21.7689,28.3903-28.5328,43.761C1070.5232,679.579,1066.5464,694.0881,1064.2859,708.0449z M1013.4547,326.9615
		c-0.4938,5.5527-0.9855,11.0822-1.4763,16.5855c-0.9158,7.7971-1.6017,15.4342-2.9053,22.8546
		c-4.7964,29.6809-13.7362,56.8124-27.3627,76.7011c-8.2177,12.2877-17.8467,21.735-28.2274,28.6434
		c-2.4553-12.2253-2.5837-25.7142,0.2942-40.2137c4.428-23.6988,17.2915-49.2051,34.8875-73.5842
		c4.3253-6.1688,9.2405-12.0541,14.1063-18.2151C1006.3152,335.4947,1009.8776,331.237,1013.4547,326.9615z M611.3163,326.9615
		c3.5771,4.2755,7.1394,8.5331,10.6838,12.7716c4.8658,6.161,9.781,12.0463,14.1063,18.2151
		c17.596,24.3791,30.4595,49.8854,34.8875,73.5842c2.878,14.4995,2.7495,27.9884,0.2942,40.2137
		c-10.3807-6.9084-20.0096-16.3557-28.2274-28.6434c-13.6265-19.8887-22.5663-47.0202-27.3627-76.7011
		c-1.3036-7.4204-1.9895-15.0575-2.9054-22.8546C612.3018,338.0437,611.8101,332.5142,611.3163,326.9615z M326.9615,611.3163
		c5.5527,0.4938,11.0822,0.9855,16.5855,1.4763c7.7971,0.9159,15.4342,1.6018,22.8546,2.9054
		c29.6809,4.7963,56.8124,13.7362,76.7011,27.3627c12.2877,8.2177,21.735,17.8466,28.6434,28.2274
		c-12.2253,2.4553-25.7142,2.5838-40.2137-0.2942c-23.6988-4.428-49.2051-17.2915-73.5842-34.8875
		c-6.1688-4.3253-12.0541-9.2405-18.2151-14.1063C335.4947,618.4557,331.237,614.8934,326.9615,611.3163z M326.9615,1013.4547
		c4.2755-3.5771,8.5331-7.1394,12.7716-10.6838c6.161-4.8658,12.0463-9.781,18.2151-14.1063
		c24.3791-17.596,49.8854-30.4595,73.5842-34.8875c14.4995-2.8779,27.9884-2.7495,40.2137-0.2942
		c-6.9084,10.3807-16.3557,20.0097-28.6434,28.2274c-19.8887,13.6265-47.0202,22.5663-76.7011,27.3627
		c-7.4204,1.3036-15.0575,1.9895-22.8546,2.9053C338.0437,1012.4692,332.5142,1012.9608,326.9615,1013.4547z M611.3163,1297.8094
		c0.4938-5.5526,0.9855-11.0822,1.4763-16.5854c0.9159-7.7971,1.6018-15.4342,2.9054-22.8546
		c4.7963-29.6809,13.7362-56.8125,27.3627-76.7012c8.2177-12.2877,17.8466-21.735,28.2274-28.6434
		c2.4553,12.2253,2.5838,25.7142-0.2942,40.2137c-4.428,23.6989-17.2915,49.2052-34.8875,73.5842
		c-4.3253,6.1688-9.2405,12.0541-14.1063,18.2151C618.4557,1289.2762,614.8934,1293.5339,611.3163,1297.8094z M1013.4547,1297.8094
		c-3.5771-4.2755-7.1394-8.5332-10.6838-12.7716c-4.8658-6.161-9.781-12.0463-14.1063-18.2151
		c-17.596-24.379-30.4595-49.8854-34.8875-73.5842c-2.8779-14.4995-2.7495-27.9884-0.2942-40.2137
		c10.3807,6.9084,20.0097,16.3557,28.2274,28.6434c13.6265,19.8887,22.5663,47.0203,27.3627,76.7012
		c1.3036,7.4204,1.9895,15.0575,2.9053,22.8546C1012.4692,1286.7273,1012.9608,1292.2568,1013.4547,1297.8094z M1297.8094,1013.4547
		c-5.5526-0.4938-11.0822-0.9855-16.5854-1.4763c-7.7971-0.9158-15.4342-1.6017-22.8546-2.9053
		c-29.6809-4.7964-56.8125-13.7362-76.7012-27.3627c-12.2877-8.2177-21.735-17.8467-28.6434-28.2274
		c12.2253-2.4553,25.7142-2.5837,40.2137,0.2942c23.6989,4.428,49.2052,17.2915,73.5842,34.8875
		c6.1688,4.3253,12.0541,9.2405,18.2151,14.1063C1289.2762,1006.3152,1293.5339,1009.8776,1297.8094,1013.4547z M1297.8094,611.3163
		c-4.2755,3.5771-8.5332,7.1394-12.7716,10.6838c-6.161,4.8658-12.0463,9.781-18.2151,14.1063
		c-24.379,17.596-49.8854,30.4595-73.5842,34.8875c-14.4995,2.878-27.9884,2.7495-40.2137,0.2942
		c6.9084-10.3807,16.3557-20.0096,28.6434-28.2274c19.8887-13.6265,47.0203-22.5663,76.7012-27.3627
		c7.4204-1.3036,15.0575-1.9895,22.8546-2.9054C1286.7273,612.3018,1292.2568,611.8101,1297.8094,611.3163z M846.0449,731.1244
		c3.3139,1.3525,6.6674,2.606,10.0506,3.7589c8.7353,3.0053,17.6617,5.3581,26.6773,7.1149
		c1.7568,9.0156,4.1096,17.9421,7.1149,26.6774c1.1528,3.3832,2.4064,6.7366,3.7589,10.0505
		c1.387,3.2996,2.8718,6.5573,4.4489,9.7648c4.0517,8.3019,8.7,16.2775,13.8328,23.8947
		c-5.1328,7.6172-9.7811,15.5928-13.8328,23.8947c-1.5771,3.2075-3.062,6.4651-4.4489,9.7648
		c-1.3524,3.3139-2.606,6.6674-3.7589,10.0506c-3.0053,8.7353-5.3581,17.6617-7.1149,26.6773
		c-9.0156,1.7568-17.942,4.1096-26.6773,7.1149c-3.3832,1.1528-6.7367,2.4064-10.0506,3.7589
		c-3.2996,1.387-6.5573,2.8718-9.7648,4.4489c-8.3018,4.0517-16.2774,8.7-23.8947,13.8328
		c-7.6172-5.1328-15.5928-9.7811-23.8947-13.8328c-3.2075-1.5771-6.4651-3.062-9.7648-4.4489
		c-3.3139-1.3524-6.6674-2.606-10.0505-3.7589c-8.7353-3.0053-17.6617-5.3581-26.6774-7.1149
		c-1.7568-9.0156-4.1096-17.942-7.1149-26.6773c-1.1528-3.3832-2.4064-6.7367-3.7589-10.0506
		c-1.387-3.2996-2.8718-6.5573-4.4489-9.7648c-4.0517-8.3018-8.7-16.2774-13.8328-23.8947
		c5.1328-7.6172,9.7811-15.5928,13.8328-23.8947c1.5771-3.2075,3.062-6.4651,4.4489-9.7648
		c1.3525-3.3139,2.606-6.6674,3.7589-10.0505c3.0053-8.7353,5.3581-17.6617,7.1149-26.6774
		c9.0156-1.7568,17.9421-4.1096,26.6774-7.1149c3.3832-1.1528,6.7366-2.4064,10.0505-3.7589
		c3.2996-1.387,6.5573-2.8718,9.7648-4.4489c8.3019-4.0517,16.2775-8.7,23.8947-13.8328
		c7.6172,5.1328,15.5928,9.7811,23.8947,13.8328C839.4876,728.2526,842.7453,729.7374,846.0449,731.1244z M937.9807,686.7903
		c-21.9839-1.1687-42.3311-5.1437-59.0712-12.5464c-2.6917-1.1548-5.284-2.3843-7.7783-3.6831
		c-2.6821-0.8453-5.3846-1.809-8.1045-2.8958c-17.0715-6.6025-34.2699-18.1794-50.6412-32.898
		c-16.3713,14.7186-33.5697,26.2955-50.6412,32.898c-2.7198,1.0867-5.4223,2.0504-8.1044,2.8958
		c-2.4944,1.2988-5.0867,2.5283-7.7784,3.6831c-16.7401,7.4027-37.0873,11.3777-59.0711,12.5464
		c-1.1687,21.9838-5.1437,42.3311-12.5464,59.0711c-1.1548,2.6917-2.3843,5.284-3.6831,7.7784
		c-0.8453,2.6821-1.809,5.3846-2.8958,8.1044c-6.6025,17.0715-18.1794,34.2699-32.898,50.6412
		c14.7186,16.3713,26.2955,33.5696,32.898,50.6412c1.0867,2.7199,2.0504,5.4224,2.8958,8.1045
		c1.2988,2.4943,2.5283,5.0867,3.6831,7.7783c7.4027,16.7401,11.3777,37.0873,12.5464,59.0712
		c21.9838,1.1686,42.3311,5.1436,59.0711,12.5463c2.6917,1.1548,5.284,2.3843,7.7784,3.6831
		c2.6821,0.8454,5.3846,1.809,8.1044,2.8958c17.0715,6.6025,34.2699,18.1794,50.6412,32.8979
		c16.3713-14.7186,33.5696-26.2955,50.6412-32.8979c2.7199-1.0868,5.4224-2.0504,8.1045-2.8958
		c2.4943-1.2988,5.0867-2.5283,7.7783-3.6831c16.7401-7.4027,37.0873-11.3777,59.0712-12.5463
		c1.1686-21.9839,5.1436-42.3311,12.5463-59.0712c1.1548-2.6917,2.3843-5.284,3.6831-7.7783
		c0.8454-2.6821,1.809-5.3846,2.8958-8.1045c6.6025-17.0715,18.1794-34.2699,32.8979-50.6412
		c-14.7186-16.3713-26.2955-33.5697-32.8979-50.6412c-1.0868-2.7198-2.0504-5.4223-2.8958-8.1044
		c-1.2988-2.4944-2.5283-5.0867-3.6831-7.7784C943.1243,729.1214,939.1493,708.7742,937.9807,686.7903z M881.8928,644.5798
		c1.9102,0.5357,3.8445,1.0427,5.803,1.5193c16.3129,3.9615,34.1463,5.5281,52.1027,3.9133
		c15.4668-1.3494,30.9077-5.0463,45.5888-10.6287c-5.5824,14.6811-9.2794,30.1219-10.6287,45.5887
		c-1.6148,17.9564-0.0483,35.7898,3.9132,52.1027c0.4766,1.9585,0.9836,3.8928,1.5193,5.803
		c0.9719,1.7295,1.9812,3.4558,3.0291,5.1777c8.7338,14.3361,20.2362,28.054,34.0751,39.6092
		c11.8908,9.9825,25.4233,18.2867,39.7518,24.7205c-14.3285,6.4338-27.861,14.7379-39.7518,24.7205
		c-13.8389,11.5552-25.3413,25.2731-34.0751,39.6093c-1.0479,1.7219-2.0571,3.4481-3.0291,5.1776
		c-0.5357,1.9102-1.0427,3.8445-1.5193,5.803c-3.9615,16.3129-5.528,34.1463-3.9132,52.1027
		c1.3494,15.4668,5.0463,30.9077,10.6287,45.5888c-14.6812-5.5824-30.122-9.2794-45.5888-10.6287
		c-17.9564-1.6148-35.7898-0.0483-52.1027,3.9132c-1.9585,0.4766-3.8928,0.9836-5.803,1.5193
		c-1.7295,0.9719-3.4557,1.9812-5.1776,3.0291c-14.3362,8.7338-28.054,20.2362-39.6093,34.0751
		c-9.9825,11.8908-18.2867,25.4233-24.7205,39.7518c-6.4338-14.3285-14.738-27.861-24.7205-39.7518
		c-11.5552-13.8389-25.2731-25.3413-39.6092-34.0751c-1.7219-1.0479-3.4482-2.0571-5.1777-3.0291
		c-1.9102-0.5357-3.8445-1.0427-5.803-1.5193c-16.3129-3.9615-34.1463-5.528-52.1027-3.9132
		c-15.4668,1.3494-30.9077,5.0463-45.5887,10.6287c5.5824-14.6812,9.2794-30.122,10.6287-45.5888
		c1.6148-17.9564,0.0482-35.7898-3.9133-52.1027c-0.4766-1.9585-0.9836-3.8928-1.5193-5.803
		c-0.9719-1.7295-1.9811-3.4557-3.0291-5.1776c-8.7338-14.3362-20.2361-28.054-34.0751-39.6093
		c-11.8908-9.9825-25.4233-18.2867-39.7518-24.7205c14.3285-6.4338,27.861-14.738,39.7518-24.7205
		c13.8389-11.5552,25.3413-25.2731,34.0751-39.6092c1.0479-1.7219,2.0571-3.4482,3.0291-5.1777
		c0.5357-1.9102,1.0427-3.8445,1.5193-5.803c3.9615-16.3129,5.5281-34.1463,3.9133-52.1027
		c-1.3494-15.4668-5.0463-30.9077-10.6287-45.5887c14.6811,5.5824,30.1219,9.2794,45.5887,10.6287
		c17.9564,1.6148,35.7898,0.0482,52.1027-3.9133c1.9585-0.4766,3.8928-0.9836,5.803-1.5193
		c1.7295-0.9719,3.4558-1.9811,5.1777-3.0291c14.3361-8.7338,28.054-20.2361,39.6092-34.0751
		c9.9825-11.8908,18.2867-25.4233,24.7205-39.7518c6.4338,14.3285,14.7379,27.861,24.7205,39.7518
		c11.5552,13.8389,25.2731,25.3413,39.6093,34.0751C878.4371,642.5987,880.1633,643.6079,881.8928,644.5798z"/>
</g>
</svg>
