<?xml version="1.0" encoding="UTF-8" standalone="no"?>
<!-- Created with Inkscape (http://www.inkscape.org/) -->

<svg
   xmlns:dc="http://purl.org/dc/elements/1.1/"
   xmlns:cc="http://creativecommons.org/ns#"
   xmlns:rdf="http://www.w3.org/1999/02/22-rdf-syntax-ns#"
   xmlns:svg="http://www.w3.org/2000/svg"
   xmlns="http://www.w3.org/2000/svg"
   xmlns:sodipodi="http://sodipodi.sourceforge.net/DTD/sodipodi-0.dtd"
   xmlns:inkscape="http://www.inkscape.org/namespaces/inkscape"
   id="svg3378"
   version="1.1"
   inkscape:version="0.91 r13725"
   width="1076.25"
   height="642.1875"
   viewBox="0 0 1076.25 642.1875"
   sodipodi:docname="FloralDesign59.svg">
  <metadata
     id="metadata3384">
    <rdf:RDF>
      <cc:Work
         rdf:about="">
        <dc:format>image/svg+xml</dc:format>
        <dc:type
           rdf:resource="http://purl.org/dc/dcmitype/StillImage" />
        <dc:title></dc:title>
      </cc:Work>
    </rdf:RDF>
  </metadata>
  <defs
     id="defs3382" />
  <sodipodi:namedview
     pagecolor="#ffffff"
     bordercolor="#666666"
     borderopacity="1"
     objecttolerance="10"
     gridtolerance="10"
     guidetolerance="10"
     inkscape:pageopacity="0"
     inkscape:pageshadow="2"
     inkscape:window-width="1600"
     inkscape:window-height="837"
     id="namedview3380"
     showgrid="false"
     inkscape:zoom="1.043309"
     inkscape:cx="538.125"
     inkscape:cy="321.09375"
     inkscape:window-x="-8"
     inkscape:window-y="-8"
     inkscape:window-maximized="1"
     inkscape:current-layer="svg3378" />
  <path
     style="fill:#000000"
     d="m 542.67756,629.53751 c -2.40214,-1.32594 -4.55256,-5.57124 -4.55256,-8.98756 0,-3.52541 -4.99654,-16.79995 -6.3235,-16.79995 -0.73635,0 -4.3609,2.06527 -8.05453,4.58947 -14.38836,9.83293 -22.19619,2.58577 -10.03477,-9.31417 6.14256,-6.0105 6.93125,-7.53731 12.22686,-23.66989 1.99512,-6.07796 4.76028,-13.0389 6.1448,-15.46875 5.78937,-10.16044 5.0295,-11.53804 -5.19897,-9.42539 -7.04705,1.45556 -10.00013,0.64016 -10.79542,-2.98075 -1.56916,-7.14435 1.39462,-12.16802 7.17869,-12.16802 1.06145,0 3.13539,-1.01434 4.60875,-2.25408 1.47334,-1.23974 3.20306,-2.42883 3.8438,-2.64241 0.81462,-0.27154 -0.14569,-3.4705 -3.19304,-10.63654 -2.3969,-5.63653 -5.49645,-13.20135 -6.88785,-16.81072 -13.70756,-35.55808 -56.72478,-66.96195 -85.46455,-62.39171 -23.65192,3.76115 -39.50405,18.76648 -42.65352,40.37499 -3.45973,23.73723 16.76448,48.60373 39.60325,48.69382 5.44664,0.0215 6.01507,-1.31472 1.14382,-2.68881 -6.02864,-1.70058 -11.25296,-5.38845 -13.31546,-9.39947 -0.94427,-1.83635 -3.12709,-4.1112 -4.85073,-5.05522 -10.01805,-5.48681 -12.89157,-24.62652 -4.73895,-31.56485 1.51467,-1.28906 3.26917,-3.93405 3.8989,-5.87776 3.63621,-11.22343 20.0811,-18.49607 30.10372,-13.31317 1.70933,0.88393 5.6063,1.76048 8.65994,1.9479 10.96814,0.67317 19.88001,9.21723 19.88001,19.05952 0,5.09914 0.38548,6.84722 1.875,8.50271 1.56923,1.7441 1.85079,3.27223 1.72658,9.37075 l -0.14842,7.2868 9.52342,-0.46232 c 11.68937,-0.56746 16.08592,1.42035 16.08592,7.27291 0,4.57287 -3.67778,4.96214 -9.11358,0.96461 -6.45531,-4.74728 -12.55046,-3.45757 -25.57392,5.41134 -4.125,2.8091 -8.90596,5.69959 -10.62436,6.4233 -3.18446,1.34114 -2.87456,4.03841 0.464,4.03841 0.73084,0 2.94643,0.82525 4.92353,1.83389 11.14782,5.68719 11.84371,18.79111 0.99791,18.79111 -6.45975,0 -8.6522,-6.1089 -2.85304,-7.94948 2.68509,-0.85222 2.42902,-1.89919 -1.11116,-4.54303 -5.06098,-3.77957 -18.39055,-5.46729 -35.18432,-4.45483 -0.8071,0.0487 -0.54112,0.96345 0.81243,2.79423 8.35764,11.3043 -0.6071,26.84221 -12.99525,22.52368 -6.651,-2.31855 -4.69674,-11.64099 2.2055,-10.52091 11.09901,1.80112 5.52374,-12.43906 -9.44774,-24.13118 -2.57812,-2.0134 -6.16406,-5.76335 -7.96875,-8.33319 -4.03526,-5.74616 -4.92105,-5.82663 -7.91436,-0.71893 -7.71153,13.15875 -21.14814,12.90645 -21.14814,-0.3971 0,-6.68622 6.21716,-11.03803 7.95353,-5.56721 0.7377,2.32429 3.61569,3.25731 6.04202,1.95878 3.81834,-2.04351 5.86979,-16.0118 4.17141,-28.40288 l -0.58304,-4.25376 -4.17882,1.42388 c -7.05317,2.40325 -14.30005,0.35842 -15.54048,-4.38501 -0.86313,-3.30063 0.80969,-4.42663 3.88101,-2.61236 6.23121,3.68087 13.53568,1.31181 18.33601,-5.9469 8.04573,-12.1662 10.62244,-15.72682 13.85102,-19.14005 4.70861,-4.97791 4.09049,-6.50944 -4.70479,-11.65718 -3.64202,-2.13163 -3.05588,-13.12582 1.01616,-19.06009 3.69369,-5.38288 11.62864,-6.99044 17.3341,-3.51175 5.72672,3.49165 3.11747,5.83395 -5.59277,5.02058 -7.99331,-0.74643 -9.79565,1.25836 -8.79497,9.78282 1.02922,8.76771 6.34553,10.49986 21.18461,6.90235 23.35716,-5.6626 37.65584,-4.60201 55.83419,4.14142 3.68847,1.77408 7.00938,3.2256 7.3798,3.2256 2.73073,0 -5.87985,-10.60049 -21.96399,-27.03991 l -7.96875,-8.14476 -20.625,-1.76441 c -63.29568,-5.41474 -87.22791,6.1276 -72.77894,35.10071 6.71578,13.46651 7.23617,18.72337 1.85347,18.72337 -2.50998,0 -2.77256,1.31288 -1.96873,9.84375 1.37905,14.6355 -2.2597,16.9541 -15.92478,10.14722 -2.34957,-1.17037 -2.89808,-1.06189 -6.42188,1.27005 -5.61471,3.71564 -13.64135,-3.31667 -13.92333,-12.19852 -0.088,-2.77208 -2.05128,-1.31501 -3.63308,2.69635 -6.76067,17.14466 -19.15712,27.66306 -22.65367,19.22166 -0.63636,-1.53633 -1.67877,-3.22635 -2.31645,-3.75557 -1.61496,-1.3403 -12.34043,3.08012 -16.02724,6.60552 -4.28829,4.10054 -8.86162,3.27963 -8.86162,-1.59065 0,-2.91393 4.61492,-19.97216 6.27837,-23.2069 1.60987,-3.13054 1.19818,-3.63579 -4.21856,-5.17735 -2.21866,-0.63141 -4.22257,-1.75722 -4.45313,-2.50179 -1.38737,-4.48055 -1.11099,-4.38929 -5.50111,-1.81651 -13.7409,8.0527 -28.06056,3.61848 -33.26889,-10.30203 C 226.39217,436.43459 237.09884,420 251.50945,420 c 7.71879,0 7.83551,5.06318 0.14438,6.26254 -10.05685,1.56827 -16.75787,12.68826 -13.02697,21.61757 4.91722,11.76856 17.32895,11.93688 35.37695,0.47978 2.45991,-1.56157 7.99782,-3.96175 12.3065,-5.33372 11.09656,-3.53337 12.50934,-4.73512 7.10353,-6.04246 -15.11684,-3.65584 -17.92414,-6.4607 -13.16116,-13.1497 2.54064,-3.568 2.6452,-3.01682 -2.46094,-12.97308 -5.96092,-11.62297 -5.49217,-12.2354 8.17548,-10.68124 9.46448,1.07623 9.54583,1.06824 12.24397,-1.20211 5.66937,-4.77045 11.2271,-4.28839 22.02897,1.91071 20.9057,11.99763 26.33363,12.60831 44.91609,5.05334 14.55423,-5.91722 26.65038,-7.49752 57.42187,-7.50185 18.92921,-0.003 19.59755,-0.44739 10.07813,-6.70604 -3.35156,-2.20353 -6.09375,-4.29754 -6.09375,-4.65337 0,-1.23934 -5.93954,-2.70537 -10.96067,-2.70537 -5.44859,0 -14.08948,-1.56136 -28.78737,-5.20172 -15.99667,-3.96203 -19.15554,-3.3838 -21.56813,3.94803 -2.52797,7.68243 -7.3123,7.17406 -11.00289,-1.16913 -2.267,-5.12491 -3.61844,-5.29325 -3.61844,-0.45071 0,10.86746 -9.31949,11.71563 -11.87324,1.08058 -2.64203,-11.00275 -7.10492,-13.7923 -6.70526,-4.19116 0.48715,11.7028 -5.52683,12.65268 -10.65985,1.68367 -3.87194,-8.27414 -5.86898,-8.0254 -5.55282,0.69165 0.28257,7.79097 0.47835,7.70833 -10.08935,4.25855 l -8.78676,-2.86839 -3.86949,2.04942 c -6.16198,3.26361 -8.96965,2.30148 -6.88124,-2.35806 1.9524,-4.35607 13.22783,-6.40918 19.8964,-3.62287 3.82462,1.59803 3.91891,1.4839 4.02259,-4.86915 0.15052,-9.22167 7.318,-9.84769 11.82204,-1.03256 1.7342,3.39409 2.87552,2.42634 3.36448,-2.85281 0.52803,-5.70092 2.04928,-7.28796 6.02855,-6.28922 4.62237,1.16013 6.95833,4.71716 11.34079,17.26892 0.93746,2.68493 2.31816,-0.2082 2.31816,-4.85744 0,-9.87076 5.18976,-10.93149 10.18434,-2.08157 3.84651,6.81565 4.21235,6.89559 7.45313,1.62866 4.01243,-6.52103 6.39394,-6.67576 32.05003,-2.08237 5.92969,1.06164 10.88672,1.93304 11.01562,1.93646 5.25009,0.13926 -41.58627,-22.47596 -58.82812,-28.40551 -2.32031,-0.79797 -7.07603,-2.53646 -10.56828,-3.86331 -6.888,-2.61705 -10.60965,-2.95541 -15.68791,-1.42631 -1.80128,0.54237 -10.11303,1.37413 -18.47057,1.84834 -35.11544,1.99248 -60.84852,28.37387 -38.79875,39.77624 10.29257,5.3225 18.76784,-4.47414 11.26416,-13.02035 -3.75266,-4.27405 -3.35755,-6.5298 1.21035,-6.91002 9.56472,-0.79616 10.6948,20.44793 1.38878,26.10725 -17.89478,10.88247 -36.90244,-14.12117 -26.10198,-34.33586 5.60387,-10.48849 15.23338,-18.04722 28.05611,-22.02277 9.75954,-3.02584 9.39067,-2.8121 6.77059,-3.92315 -1.28906,-0.54663 -9.97817,-1.18216 -19.30912,-1.41229 l -16.96538,-0.41841 -0.59564,5.69875 c -1.47544,14.11618 -12.79858,26.37612 -24.36069,26.37612 -2.89846,0 -4.59666,0.54487 -5.78264,1.85535 -7.7667,8.58211 -30.00887,6.36787 -36.63654,-3.6472 -3.03039,-4.57924 -3.56002,-4.64025 -9.00013,-1.03688 -11.4489,7.58344 -10.02397,17.43186 4.58397,31.68212 9.52179,9.28865 10.43838,11.62615 6.33628,16.15891 -1.80196,1.99116 -1.76187,3.20437 0.15845,4.79479 2.01634,1.66992 7.82144,13.7793 7.82144,16.3154 0,4.00605 -2.06601,5.39407 -7.09748,4.76835 -14.64655,-1.82144 -15.78834,-1.80434 -17.66073,0.26464 -3.97397,4.39119 -7.22675,2.77993 -13.94577,-6.90803 -4.19603,-6.05014 -4.93104,-5.79466 -5.31176,1.8463 -0.69066,13.86165 -7.30721,21.83736 -14.45252,17.42131 l -3.10647,-1.91991 -6.47826,4.34173 c -3.56305,2.38795 -8.33189,5.75561 -10.59745,7.48367 -9.56764,7.29779 -13.684516,1.2317 -9.47456,-13.96045 2.58861,-9.34129 2.50559,-9.84797 -1.90235,-11.61168 -7.075666,-2.83112 -6.872275,-5.9826 0.92302,-14.30193 2.60113,-2.77599 4.72933,-5.34142 4.72933,-5.70095 0,-0.35954 1.03231,-1.20618 2.29402,-1.88143 5.19791,-2.78183 3.79389,-3.94585 -3.94516,-3.27076 -10.210841,0.89071 -12.349888,-0.73049 -10.702729,-8.1117 l 1.127025,-5.0504 -5.495468,-5.85938 c -6.888971,-7.34515 -6.865012,-7.34886 -9.088624,1.40625 -2.463336,9.69899 -3.87102,9.92526 -10.781045,1.73295 -8.267976,-9.80226 -8.817087,-7.76862 -1.750855,6.48435 7.797401,15.72776 2.592728,24.24309 -7.320134,11.97642 -11.307813,-13.99286 -17.313797,-17.36412 -11.489209,-6.44908 5.587152,10.47008 -1.269941,15.16716 -11.513298,7.88656 -3.000993,-2.133 -4.459523,-1.59093 -4.459523,1.65737 0,13.12017 -17.231322,15.31685 -27.2967411,3.47985 C 6.161779,409.46376 3.9960938,407.76295 2.578125,407.12947 L 0,405.9777 0,394.31078 c 0,-11.07694 0.11851934,-11.80777 2.34375,-14.45231 1.2890625,-1.53197 2.34375,-3.49051 2.34375,-4.35231 0,-2.64693 1.8462384,-5.19366 3.7651235,-5.19366 2.6778795,0 3.2867695,3.9006 1.9991115,12.80649 -0.9312894,6.44112 -0.8900366,8.1868 0.255167,10.79777 0.751329,1.71296 1.632094,4.35949 1.957256,5.88116 2.661246,12.45385 17.362021,13.28642 15.02915,0.85116 -1.125195,-5.9978 4.250939,-8.1239 9.500387,-3.75711 7.206992,5.99519 8.907899,5.0438 5.492043,-3.07191 -6.007638,-14.27351 2.122157,-16.62179 14.523302,-4.19503 7.143865,7.15862 8.017199,7.41225 5.528118,1.60546 -2.164931,-5.05059 -3.339768,-12.01144 -2.144518,-12.70617 3.363823,-1.95523 9.482372,-1.61567 11.940732,0.66266 3.622643,3.35735 3.690974,3.30596 8.188305,-6.15762 3.460504,-7.28184 4.850558,-9.15806 9.479241,-12.79455 5.674516,-4.45815 6.883929,-6.46972 3.314707,-5.51321 -1.160156,0.31092 -3.279973,0.57106 -4.710704,0.5781 -1.821083,0.009 -2.848963,0.64549 -3.426938,2.12218 -3.513232,8.97607 -18.815483,16.62787 -18.815483,9.40857 0,-0.8476 -0.394654,-2.83665 -0.87701,-4.42014 -0.482355,-1.58348 -1.348854,-4.69143 -1.925555,-6.90657 -0.779004,-2.99218 -1.698293,-4.28742 -3.576116,-5.0386 -6.603613,-2.64162 -6.746319,-2.78726 -6.746319,-6.88451 0,-2.72441 0.570215,-4.43106 1.875,-5.61188 4.079961,-3.69232 1.522097,-4.2149 -6.876565,-1.40492 -13.375848,4.47522 -17.27576,3.47478 -18.280954,-4.68961 -0.704985,-5.72602 0.342126,-4.91871 -16.326856,-12.58781 C 1.2179532,313.4847 0.88123347,306.84359 13.125,305.4187 c 2.320313,-0.27003 6.692505,-1.63401 9.715984,-3.03108 3.023478,-1.39706 6.90632,-2.76877 8.62854,-3.04825 3.076572,-0.49925 3.136161,-0.60035 3.409016,-5.78313 l 0.27771,-5.27499 6.09375,0.0129 c 4.877352,0.0103 7.164547,0.56141 11.458085,2.76066 5.632218,2.88495 7.575868,2.67881 5.536226,-0.58717 -0.668779,-1.07089 -1.443678,-4.15344 -1.722,-6.85011 l -0.506038,-4.90305 3.756821,-0.60074 c 4.037007,-0.64554 5.565132,-3.42038 7.30788,-13.27002 0.842079,-4.75925 1.949942,-6.16061 4.209527,-5.32474 1.767209,0.65373 12.109184,12.1837 12.134012,13.52786 0.02209,1.19574 5.18215,0.7744 7.02575,-0.57367 1.656286,-1.21111 1.572276,-1.45066 -1.632735,-4.65567 -3.62294,-3.62295 -9.130028,-14.13893 -9.130028,-17.43412 0,-3.43742 -2.495723,-3.18333 -7.758153,0.78985 -8.224147,6.20928 -11.448239,5.14575 -10.817904,-3.56854 0.473544,-6.5467 0.497337,-6.52717 -4.125329,-3.38598 -8.006032,5.44024 -14.798614,0.94331 -14.798614,-9.79719 0,-5.50454 -0.96931,-5.90189 -4.6875,-1.92156 -3.446769,3.68977 -4.863131,3.55338 -9.735163,-0.9375 -4.914025,-4.52959 -5.917894,-4.64081 -6.921728,-0.76689 -1.094799,4.22496 -2.644854,4.26593 -4.721152,0.12477 -0.98629,-1.96715 -2.483364,-4.84225 -3.32683,-6.38913 -6.2307135,-11.42681 10.361886,-11.2907 17.855811,0.14648 2.188574,3.34019 4.193906,2.6867 9.063294,-2.95349 8.890688,-10.29805 13.406991,-7.96911 10.020299,5.1672 -4.264123,16.53969 2.817765,18.60041 12.830829,3.73356 8.709596,-12.93153 13.410638,-9.05202 7.324542,6.04453 -5.029011,12.47445 -4.377553,13.7464 3.146279,6.14297 6.398122,-6.46581 9.646884,-6.2922 10.717969,0.57274 2.019025,12.9406 10.93335,28.50095 10.93335,19.08465 0,-1.04781 0.643397,-3.44497 1.429763,-5.32702 1.428337,-3.41849 1.426387,-3.42536 -1.948782,-6.88185 -4.822078,-4.93826 -4.345116,-8.19344 1.456519,-9.9405 11.2813,-3.39715 14.25394,-6.31756 9.39182,-9.22677 -12.703711,-7.60117 -19.335389,-24.87817 -10.081979,-26.2658 l 3.992456,-0.5987 0.01725,-12.81776 c 0.02813,-20.89535 1.167963,-23.6174 7.231973,-17.27087 1.84752,1.9336 5.75393,5.41407 8.68093,7.73438 2.92698,2.32031 7.02024,5.68526 9.09612,7.47767 l 3.77433,3.25892 2.93292,-3.49333 c 6.31905,-7.52648 13.71418,0.94683 13.71418,15.71362 0,4.2862 1.82924,4.29047 5.09269,0.0119 4.21899,-5.53138 7.74144,-4.42257 9.98802,3.1441 l 1.21184,4.0816 4.2756,-0.59748 c 2.35158,-0.32863 6.56187,-1.38642 9.35619,-2.35065 9.226,-3.18361 9.872,0.41072 2.50393,13.93186 -4.95304,9.08933 -4.90143,8.84865 -2.42827,11.32182 3.07853,3.07853 2.32177,6.72705 -2.6251,12.65625 -7.31382,8.76618 -7.67956,25.3208 -0.87508,39.60937 1.39126,2.92151 1.62909,2.81544 7.72983,-3.44764 3.39815,-3.48859 7.36967,-6.43387 10.66979,-7.91272 14.93645,-6.69336 21.3948,-5.67066 28.84428,4.56758 1.98092,2.7225 2.06635,2.74558 3.92741,1.06134 8.12792,-7.35566 25.78796,7.80336 29.2739,25.12811 1.62852,8.0936 3.29481,9.6242 10.71122,9.83904 1.54687,0.0448 4.90198,0.71528 7.45578,1.48996 2.5538,0.77466 7.19443,1.839 10.3125,2.36519 3.11808,0.52618 7.46219,1.3077 9.65359,1.73672 3.07351,0.60171 3.98438,0.49636 3.98438,-0.46081 0,-0.68247 -1.79297,-2.29444 -3.98438,-3.58217 -8.72514,-5.12711 -22.72213,-23.09244 -24.97313,-32.05337 -0.63425,-2.52483 -1.55014,-6.11611 -2.03533,-7.98062 -4.85276,-18.6485 2.90801,-34.58654 16.83586,-34.57523 13.43961,0.011 19.43407,19.42102 8.41993,27.26379 -5.3585,3.81558 -8.35287,0.44996 -4.09825,-4.60636 6.01005,-7.14254 2.68067,-15.03962 -5.84784,-13.87066 -12.90486,1.76881 -12.85006,20.77707 0.10557,36.61297 1.71683,2.09853 3.42131,4.76473 3.78772,5.92488 0.36641,1.16016 1.16512,2.11522 1.7749,2.12236 0.60978,0.007 3.83129,2.32746 7.15891,5.15625 3.32763,2.8288 6.35525,5.14327 6.72807,5.14327 1.14448,0 16.08394,9.40654 19.56547,12.31927 13.59466,11.37366 16.36432,13.25336 23.23099,15.76631 8.1923,2.99809 20.18384,7.77942 26.45651,10.54888 12.61119,5.568 35.48988,16.01798 37.64465,17.19443 4.77358,2.60626 4.045,0.0383 -1.69738,-5.98282 -1.80434,-1.89191 -3.89884,-4.61428 -4.65445,-6.04971 -2.02427,-3.84556 -10.58224,-16.30826 -12.01545,-17.49772 -1.45585,-1.20824 -4.04229,-0.25856 -8.86913,3.25654 -6.12415,4.45984 -9.70755,2.45565 -7.87629,-4.4052 l 0.9677,-3.62548 -2.98182,0.5594 c -5.0057,0.93907 -6.67156,-4.87252 -2.21043,-7.71135 1.63536,-1.04067 3.83726,-5.04039 3.15203,-5.72561 -0.72029,-0.7203 -5.52858,1.8091 -11.15337,5.86721 -7.22292,5.21113 -11.70431,-0.49044 -6.00919,-7.64534 2.13302,-2.67977 5.39632,-7.29616 6.67797,-9.44694 1.35824,-2.27931 -1.22967,-1.12891 -4.75079,2.11187 -11.21205,10.3194 -20.73585,6.78998 -14.46863,-5.36193 4.30256,-8.3425 4.25013,-8.4462 -5.19828,-10.279 -12.14927,-2.35672 -22.76526,-14.0816 -16.34339,-18.05053 1.57247,-0.97184 4.78625,0.33059 4.78625,1.9397 0,4.74529 7.44902,10.02122 15.6926,11.11464 8.93523,1.18515 11.77579,7.62026 6.50851,14.74465 -4.63392,6.2677 4.19092,4.19862 11.66653,-2.73533 8.46688,-7.85342 13.86399,1.96766 5.78172,10.52095 -7.95269,8.41615 -7.37088,9.22059 2.01924,2.79186 9.20597,-6.30266 19.31213,-3.3681 11.30015,3.28125 -2.35487,1.95437 -1.58689,2.90778 2.10937,2.6187 4.39678,-0.34387 5.44255,3.38595 2.18482,7.79227 -3.32803,4.50139 -2.4254,5.70283 2.39552,3.18855 6.46099,-3.36964 8.44691,-1.98815 16.83786,11.71298 4.17203,6.81229 8.16399,11.56735 16.97905,20.22475 6.33855,6.22518 11.52463,11.80034 11.52463,12.38925 0,1.34641 5.51767,7.6985 6.6872,7.6985 0.47737,0 3.00281,1.6875 5.61207,3.75 8.27779,6.54321 9.65204,4.85187 2.9351,-3.61232 -2.44921,-3.08633 -7.0644,-8.91505 -10.25597,-12.95272 -8.58772,-10.86438 -16.65028,-23.57752 -23.97874,-37.81 -19.52186,-37.91306 -21.70699,-40.15913 -47.94625,-49.28338 -8.91271,-3.09925 -11.20072,-5.04693 -10.45824,-8.9027 1.60245,-8.32164 1.88858,-7.58374 -4.70201,-12.12642 -11.69611,-8.06176 -11.31551,-10.91664 2.01413,-15.108 l 9.76414,-3.07023 0.59928,-4.51751 c 0.62166,-4.68633 0.90958,-4.92742 6.73042,-5.63556 l 2.15738,-0.26245 -2.42373,-3.27235 c -3.45651,-4.66674 -6.10978,-14.05085 -6.10978,-21.60913 0,-16.35236 -14.6636,-24.86117 -25.01144,-14.51333 -6.54037,6.54037 -1.87272,18.44687 6.60794,16.85589 3.93246,-0.73773 4.84823,1.72211 1.70136,4.56999 -13.11284,11.86696 -24.64562,-14.90424 -11.86007,-27.53096 l 5.08652,-5.02333 7.25857,0.23173 c 16.52599,0.52758 21.08544,5.91823 22.74649,26.89316 0.85952,10.8536 1.22979,12.7164 4.06434,20.44717 1.18789,3.23978 2.89746,5.24024 4.51269,5.28056 0.31632,0.008 0.17284,-2.19902 -0.31885,-4.90425 -2.24253,-12.33812 0.56741,-19.63007 6.77495,-17.5814 4.052,1.33728 6.55911,0.30904 6.56601,-2.69291 0.0107,-4.64878 11.47018,-16.99459 15.77456,-16.99459 4.09048,0 4.60641,1.10981 8.92315,19.19443 1.03078,4.31838 1.4121,4.76896 5.15704,6.09375 6.04594,2.13879 6.33003,3.38699 2.93924,12.91419 C 413.85635,240.46649 413.9521,240 415.7524,240 c 0.87786,0 4.31888,-0.72552 7.64671,-1.61226 7.80524,-2.0798 9.15513,-1.33932 9.54083,5.23363 0.27656,4.71314 0.39425,4.89257 4.6875,7.14648 12.25955,6.43617 12.18436,9.88022 -0.35099,16.07552 -6.40578,3.16591 -6.76514,3.51505 -7.2367,7.03075 -0.81816,6.09986 -1.87763,6.73943 -15.46014,9.33279 -19.83869,3.78786 -14.09785,26.42013 18.1712,71.63684 4.11462,5.76557 4.52341,5.92822 6.62629,2.63633 0.92626,-1.44998 3.69535,-4.6021 6.15351,-7.0047 5.12786,-5.01196 5.08191,-4.86969 2.59439,-8.03206 -4.05875,-5.15986 -1.85591,-8.17977 6.95494,-9.53465 5.02684,-0.773 5.11769,-2.22481 0.36521,-5.83614 -10.73338,-8.15611 -17.99258,-20.51003 -12.05176,-20.51003 6.2706,0 7.67665,-5.10408 4.64865,-16.875 -2.4303,-9.44745 -1.15843,-10.68277 7.37683,-7.1648 13.58597,5.59971 14.92832,5.87763 17.35916,3.59397 5.71962,-5.3733 18.64744,10.79459 17.37136,21.7251 -0.21884,1.87453 -0.13966,3.40823 0.17596,3.40823 1.04377,0 5.37248,-5.10546 6.90471,-8.14368 2.42828,-4.815 6.6302,-4.69561 8.88468,0.25244 1.16418,2.55512 4.80181,3.77563 7.31357,2.4539 0.95037,-0.50011 3.94278,-1.20838 6.64981,-1.57394 5.6858,-0.76783 5.48106,-0.40482 2.98638,-5.2948 -1.06453,-2.08665 -3.1387,-7.65969 -4.60927,-12.38454 -10.32655,-33.17834 -19.71669,-43.75023 -38.94896,-43.85063 -11.90812,-0.0622 -17.15014,2.64837 -19.18631,9.92084 -2.61416,9.33688 5.76286,14.41209 18.00697,10.9095 8.36672,-2.39341 10.70803,2.24446 2.84494,5.63551 -20.11764,8.67596 -37.11902,-12.02679 -22.16061,-26.9852 16.31505,-16.31505 51.84921,-6.70103 66.26756,17.92918 3.38556,5.78337 3.74043,5.20793 2.34425,-3.80125 -0.63168,-4.07609 -1.06255,-9.40798 -0.95749,-11.84865 0.17847,-4.14605 0.0222,-4.47219 -2.3779,-4.96451 -12.59792,-2.58403 -23.63786,-8.71943 -27.93327,-15.5238 -1.81598,-2.87669 -2.29191,-4.88067 -2.29191,-9.65039 0,-5.87389 -0.0787,-6.0662 -3.24702,-7.93557 -9.90632,-5.84487 -6.81699,-38.38158 3.6653,-38.60276 0.54339,-0.0114 1.98474,-0.78742 3.203,-1.72435 l 2.21503,-1.70351 -4.39776,-4.13502 c -16.42437,-15.44307 -29.77683,-13.4202 -42.66071,6.463 -3.81907,5.89384 -5.53991,6.54506 -10.48467,3.9677 l -3.81925,-1.9907 -4.81509,3.30075 c -11.97136,8.20638 -15.05206,6.54487 -14.51872,-7.83041 l 0.32864,-8.85784 -2.92898,-0.76189 c -6.92738,-1.80196 -6.46694,-5.72846 1.5708,-13.39515 6.00495,-5.72777 6.11779,-7.01719 0.61671,-7.04738 -12.73892,-0.0698 -22.87653,-10.5939 -13.99992,-14.53353 2.8256,-1.25407 2.67401,-1.86785 -1.68404,-6.81886 -13.27926,-15.086038 -13.42903,-27.912146 -0.27825,-23.827557 11.14637,3.462023 15.09147,3.64188 16.19539,0.738345 1.8814,-4.948466 7.67821,-3.131153 19.47254,6.10468 3.21159,2.514919 6.04231,4.572572 6.29049,4.572572 0.43613,0 1.04894,-2.066334 3.39798,-11.457479 1.33411,-5.3336 3.43402,-6.357954 7.61152,-3.712951 4.12193,2.609821 7.39304,1.296552 10.15721,-4.077866 1.17393,-2.282509 2.91639,-4.3982 3.87212,-4.701536 2.92827,-0.929399 1.94828,-2.251038 -2.56402,-3.457894 -5.93719,-1.587955 -7.15348,-4.585956 -4.5699,-11.264149 1.23733,-3.19834 -2.1176,-1.683257 -5.55109,2.506863 -8.01509,9.781357 -16.21318,6.329184 -10.67997,-4.497277 1.79429,-3.510754 2.10143,-4.028684 3.90153,-6.579218 1.98311,-2.809847 1.32712,-4.380866 -1.10946,-2.657027 -10.16916,7.194486 -16.04766,5.837992 -22.16986,-5.115811 -5.1537,-9.220975 -2.37406,-16.194051 8.85861,-22.222913 8.9819,-4.820811 25.21037,-4.131163 24.19402,1.028153 -0.54844,2.784126 -3.26717,3.650734 -5.39941,1.72109 -4.70216,-4.255397 -21.10007,3.734612 -21.89558,10.668787 -1.1272,9.825608 7.37464,14.876739 14.54956,8.644212 9.50924,-8.260236 15.98848,-2.92364 8.5766,7.064078 -2.79812,3.770542 -4.27307,7.575161 -3.195,8.241447 0.45332,0.280163 1.80828,-0.779112 3.01105,-2.353944 6.83461,-8.948836 10.26977,-10.965968 13.37935,-7.856383 1.93133,1.931323 1.38707,6.279661 -1.49244,11.92398 -2.36045,4.626862 -1.94185,5.607278 3.09095,7.239395 2.24619,0.728434 5.06095,1.81922 6.25501,2.423969 2.96833,1.503341 16.32648,13.588721 15.70584,14.209364 -0.27468,0.274676 0.8641,2.080105 2.53061,4.012065 11.13471,12.908265 22.21502,34.949625 25.66427,51.052295 1.15605,5.39697 6.51331,5.79609 6.29186,0.46875 -0.20505,-4.93286 -2.0372,-21.31918 -3.0552,-27.3249 -1.8179,-10.72493 -9.85018,-21.082218 -19.75741,-25.476374 -2.78817,-1.236638 -7.73762,-5.069423 -12.54486,-9.71457 -4.36691,-4.219653 -9.67942,-8.770253 -11.80558,-10.112445 -9.01836,-5.693034 -6.39352,-12.0404 5.81507,-14.062021 l 3.51563,-0.582152 0,-5.113769 c 0,-5.829607 1.28639,-6.439169 7.82415,-3.707519 1.85109,0.773437 3.59012,1.40625 3.86449,1.40625 0.89103,0 0.52643,-3.347429 -0.47351,-4.347365 -0.53479,-0.534799 -1.22941,-4.614766 -1.54358,-9.06659 -0.78243,-11.087202 0.3507,-12.12666 10.25582,-9.408015 1.82858,0.50189 3.76724,-3.218104 8.09737,-15.5376622 4.86341,-13.8367475 20.72526,-4.8139475 20.72526,11.7892792 0,2.012569 0.28045,2.121044 4.12231,1.594459 7.06725,-0.968676 10.59211,16.030561 4.98417,24.037023 -2.37538,3.391323 -2.07743,3.608923 3.31539,2.421388 6.7142,-1.478509 9.15065,-0.949958 10.35732,2.246859 0.95811,2.53835 1.21326,2.627452 7.15406,2.498301 9.08953,-0.197603 7.37063,8.83442 -3.49072,18.342134 -2.45982,2.15325 -2.82269,3.014902 -2.39071,5.676864 0.75427,4.648009 -2.65393,8.16548 -11.09955,11.455442 -15.12632,5.892396 -18.56455,14.203703 -18.52555,44.782253 l 0.0153,11.95313 5.08978,0 c 6.23041,0 6.62703,-0.5875 7.27836,-10.78125 0.26357,-4.125 1.32409,-10.03125 2.35671,-13.125 2.96246,-8.87556 8.81946,-23.300016 10.08772,-24.84375 1.06966,-1.302037 6.05793,-11.723652 6.05793,-12.656438 0,-0.744996 10.95983,-14.960432 12.80185,-16.604629 2.82056,-2.517637 9.91775,-5.338541 15.42571,-6.131213 7.02953,-1.011645 6.93433,-2.801625 -0.34267,-6.443494 -12.93058,-6.471268 -10.37376,-12.916584 3.67259,-9.257976 14.67649,3.822743 19.16954,-0.74352 5.44091,-5.529585 -8.02985,-2.799356 -13.90725,-10.876665 -7.91435,-10.876665 1.56548,0 7.94533,-4.820438 9.08586,-6.865027 3.56531,-6.391399 -4.06937,-12.3677789 -15.3338,-12.003193 -4.72784,0.153023 -6.40906,-2.2139375 -2.60091,-3.661792 3.0171,-1.1471005 8.54949,-1.1779542 9.24564,-0.051563 0.29095,0.4707592 2.31975,1.1293026 4.50846,1.4634296 8.32239,1.270495 11.94821,4.3746929 11.94821,10.2293069 0,5.155215 -3.86669,11.16546 -8.27932,12.869074 -3.94229,1.522021 0.82611,5.229097 7.00829,5.448441 12.48705,0.443041 8.33728,15.071323 -4.27544,15.071323 -5.15976,0 -5.31342,0.973607 -0.61517,3.897866 8.93572,5.561742 7.27765,8.580893 -5.5716,10.145187 -14.16395,1.724349 -14.9091,2.723083 -5.64866,7.570889 l 6.0556,3.170081 2.84207,-2.101232 c 5.9559,-4.403387 12.23423,-2.864799 12.23423,2.998157 0,3.910414 2.75212,3.7896 6.22996,-0.273487 3.17911,-3.714069 10.22131,-8.27965 13.24131,-8.584563 5.61763,-0.56718 6.83716,0.0087 8.54834,4.036477 l 1.69271,3.984375 12.45444,0 c 14.01877,0 16.03579,0.860334 13.14574,5.607153 -5.49411,9.023899 -9.46249,14.488863 -13.00397,17.908103 l -4.09773,3.956284 2.45711,2.13642 c 2.64929,2.30354 3.1605,4.77764 1.28522,6.22012 -1.73639,1.33564 -15.81495,6.69194 -18.4422,7.01648 -3.781,0.46705 -3.19608,2.25101 1.30118,3.96853 2.33771,0.89278 4.25327,1.90475 4.25679,2.24883 0.004,0.34407 1.48009,1.62918 3.28125,2.8558 4.22128,2.87475 4.30103,5.78557 0.25751,9.39846 l -3.01735,2.69599 2.15655,6.57806 c 3.74811,11.43281 1.38016,13.61896 -10.43108,9.63024 -6.83931,-2.30967 -8.51751,-2.39853 -10.06578,-0.53297 -2.60925,3.14396 -14.30642,-0.75347 -19.6875,-6.55976 -9.67893,-10.44376 -22.33059,-9.0366 -35.39062,3.93627 -7.46655,7.41671 -8.08836,8.71724 -4.16792,8.71724 15.59654,0 25.84545,35.07058 13.18033,45.10155 -2.83349,2.24416 -3.62292,3.51453 -3.62702,5.8366 -0.0127,7.18149 -2.19978,10.92433 -10.8265,18.52737 -5.71887,5.04024 -16.37408,8.46912 -20.10798,6.4708 -2.85101,-1.52582 -3.02744,-1.08399 -3.26226,8.16952 -0.11497,4.53085 -0.53187,12.71746 -0.92645,18.19246 -0.89741,12.45213 0.15491,13.43466 4.16278,3.88673 14.83424,-35.33951 65.82395,-54.53078 78.66099,-29.60604 6.69795,13.00493 -13.73993,28.18048 -26.40982,19.60985 -3.42865,-2.31934 -2.99752,-4.8636 0.77146,-4.55275 14.97527,1.23507 18.84183,0.007 20.49614,-6.50824 2.06302,-8.12535 -7.03374,-13.02732 -19.68375,-10.60698 -19.62231,3.75437 -35.24584,22.18772 -44.90346,52.97913 -1.37466,4.38281 -3.27594,10.23003 -4.2251,12.99381 l -1.72573,5.02504 2.97684,-0.60318 c 1.63725,-0.33176 5.43444,-0.86349 8.43819,-1.18163 4.32869,-0.45847 5.7607,-1.03529 6.9047,-2.78123 2.04604,-3.12267 4.82098,-2.73635 8.89082,1.23774 3.93213,3.83962 3.80948,3.948 5.48575,-4.8468 2.85499,-14.97924 7.1871,-20.05883 12.07953,-14.16381 1.85896,2.23991 4.54881,2.37378 6.35894,0.31648 2.48701,-2.82662 18.23731,-12.87142 20.18244,-12.87142 2.3329,0 2.5013,21.91862 0.20255,26.3639 -1.74706,3.37845 -0.78876,5.05534 4.04327,7.07515 4.16282,1.74008 3.93377,3.93712 -1.17187,11.2408 -4.99848,7.15039 -4.94139,6.88265 -1.46728,6.88265 6.67723,0 9.89574,4.09386 6.15747,7.83213 -1.38784,1.38784 -1.02329,4.35537 0.53504,4.35537 0.44324,0 3.71397,2.99583 7.2683,6.65739 l 6.46241,6.65739 1.85386,-2.67301 c 25.16439,-36.28355 24.452,-67.84596 -1.59105,-70.4915 l -6.09375,-0.61902 0,-4.07105 c 0,-3.81002 -0.21039,-4.1443 -3.28125,-5.2135 -4.35622,-1.51672 -11.25,-5.94693 -11.25,-7.22966 0,-3.08289 5.39494,-10.22381 9.56323,-12.65822 4.1086,-2.39956 4.49927,-2.93335 4.49927,-6.14778 0,-4.59802 1.59171,-5.3287 9.84375,-4.5188 7.75622,0.76124 8.70862,0.25122 5.98845,-3.20693 -2.23124,-2.83656 -9.20387,-19.70769 -9.24437,-22.36789 -0.0323,-2.12099 4.20875,-3.79084 8.06719,-3.17634 4.05477,0.64578 5.03248,-0.74452 5.03248,-7.15616 0,-5.23826 1.87115,-13.66056 3.66351,-16.48994 1.59059,-2.51086 5.23774,-0.0492 13.68024,9.23359 8.73947,9.60931 9.30544,9.97314 16.54206,10.63383 l 4.35454,0.39756 2.46014,-6.27047 c 12.14755,-30.96206 54.79123,-35.14346 54.90392,-5.38356 0.0563,14.8735 -21.31664,21.80518 -24.72883,8.02006 -1.53499,-6.20129 4.05138,-8.16724 6.33054,-2.22785 2.46486,6.42332 12.79388,1.96192 12.79388,-5.52603 0,-26.5843 -37.01108,-12.80443 -47.63182,17.73414 -0.7173,2.0625 -2.05914,4.59375 -2.98186,5.625 -1.51188,1.6897 -3.15477,9.02779 -1.92477,8.59715 0.27897,-0.0977 3.69967,-1.83028 7.60158,-3.85025 9.081,-4.70113 10.24937,-4.33721 10.24937,3.19243 0,5.65903 2.96328,8.26523 5.22913,4.59899 0.86477,-1.39923 10.61886,-0.40482 12.13749,1.23739 2.05906,2.22665 -0.27355,7.07968 -6.41198,13.34016 l -5.85312,5.96949 2.16763,3.14481 c 4.05347,5.88083 0.75743,10.34327 -9.6129,13.01474 -22.29793,5.74409 -31.69361,15.04096 -37.3984,37.00509 -3.9898,15.36116 -15.53985,42.41493 -24.03085,56.28757 -8.41059,13.74129 -9.59073,17.59305 -4.08781,13.34179 4.29618,-3.31897 4.58565,-3.70157 7.94936,-10.50664 1.93009,-3.90477 6.34717,-10.01359 11.1693,-15.44717 10.41273,-11.73309 17.64073,-21.55968 21.55547,-29.30498 5.42484,-10.73306 6.0775,-11.20644 13.48661,-9.78188 l 3.64369,0.70057 -2.47182,-4.21782 c -4.92742,-8.40802 -2.51922,-11.59695 5.71529,-7.56817 6.48034,3.17053 6.58066,2.92292 1.54372,-3.81027 -5.33313,-7.12912 -5.49045,-11.07845 -0.46046,-11.55895 4.84034,-0.46238 6.95362,0.38188 12.7261,5.08412 6.33694,5.16203 7.46179,4.71612 3.93406,-1.55956 -5.11118,-9.09256 -0.0222,-14.37752 8.48009,-8.80661 3.18198,2.0849 4.11985,0.75609 2.83659,-4.019 -1.38532,-5.15489 -0.63275,-5.87879 7.47982,-7.1949 5.90367,-0.95777 6.4839,-1.2669 7.97756,-4.2503 3.31051,-6.61232 6.95474,-5.43664 6.46588,2.08597 -0.14544,2.23817 -7.62874,6.85875 -12.32412,7.60957 -4.62438,0.73947 -5.60583,2.72528 -2.8151,5.69587 6.2422,6.64452 1.23113,10.46556 -8.60707,6.56307 -5.44109,-2.1583 -6.30643,-1.48945 -3.29818,2.54927 7.00696,9.40719 1.43274,14.81681 -8.73931,8.48125 -10.31857,-6.42679 -11.83947,-5.68923 -4.26547,2.06854 10.02973,10.27307 6.46385,16.66209 -6.30749,11.30123 -1.5636,-0.65634 -1.66151,-0.3474 -1.09251,3.44696 0.87185,5.81393 -0.53058,6.81709 -8.35843,5.97879 l -6.02414,-0.64512 -4.87095,8.24668 c -5.55171,9.39925 -11.43023,17.33472 -18.13077,24.47491 -2.54572,2.71275 -4.39123,5.16965 -4.10112,5.45975 0.69492,0.69493 5.66299,-1.90018 7.21291,-3.76772 0.67011,-0.80744 1.53292,-1.46807 1.91735,-1.46807 0.38443,0 5.60282,-2.95312 11.59642,-6.5625 5.99361,-3.60937 11.17447,-6.5625 11.51303,-6.5625 0.33856,0 4.24429,-1.9925 8.67941,-4.42778 7.54371,-4.14218 11.12933,-5.68517 21.65759,-9.31983 2.32031,-0.80104 4.66479,-1.81659 5.20997,-2.25677 0.54516,-0.44019 3.42448,-1.43412 6.39848,-2.20875 7.57927,-1.97415 11.64911,-4.7367 13.39073,-9.08944 1.88745,-4.71721 8.23001,-10.31656 18.98451,-16.75993 20.50548,-12.28551 28.51437,-21.63356 30.11988,-35.15625 1.36243,-11.47523 -1.60444,-16.40625 -9.87124,-16.40625 -9.2381,0 -13.154,10.17903 -5.33268,13.8618 4.70156,2.21379 4.97448,6.14623 0.45693,6.58377 -14.13608,1.36915 -16.11084,-20.84952 -2.36359,-26.59349 12.56981,-5.252 25.34871,3.04338 26.24684,17.03805 1.28524,20.02674 -4.58278,31.64598 -24.64608,48.80164 -6.36249,5.44042 -6.32167,6.59979 0.17896,5.08278 13.67974,-3.19234 19.49031,-4.12434 28.13537,-4.51283 11.60938,-0.5217 12.83454,-1.36638 9.8037,-6.75904 -6.96431,-12.39133 4.93796,-34.53614 18.65591,-34.71031 3.83611,-0.0487 6.21245,-1.56852 6.6626,-4.26112 1.74508,-10.43834 30.2225,-11.26016 38.68354,-1.11635 4.13614,4.95878 5.08399,4.4711 10.15142,-5.22302 6.96672,-13.3275 5.91754,-18.78467 -5.78702,-30.10053 -7.94197,-7.67822 -8.89417,-10.10052 -5.28573,-13.44646 l 2.54227,-2.35733 -2.3346,-2.4719 c -2.56016,-2.71074 -7.62637,-12.26203 -8.61002,-16.23238 -1.61929,-6.53612 1.70873,-7.74103 13.60985,-4.9274 6.05075,1.4305 6.10367,1.42559 7.5,-0.69663 5.06692,-7.70098 8.46843,-7.3568 13.48156,1.36415 4.32793,7.52895 4.55254,7.44165 5.37147,-2.08778 0.78849,-9.17518 5.47237,-19.68436 9.37469,-21.03391 3.30365,-1.1425 7.14022,-0.0511 7.86672,2.23797 1.27364,4.01287 3.98603,2.07855 15.36531,-10.9576 2.15288,-2.46629 8.18034,-3.84394 9.78216,-2.2358 0.75543,0.75845 1.10184,5.99846 1.10184,16.66762 l 0,15.5614 3.00553,1.02797 c 4.94841,1.69248 5.51466,2.78038 3.62644,6.96767 -1.85194,4.10691 -12.63806,15.1289 -16.94447,17.31503 l -2.8125,1.42775 2.34375,0.50613 c 1.28906,0.27837 4.46869,0.92375 7.06594,1.43416 10.17131,1.99895 11.92275,4.19726 8.27025,10.38048 -1.78463,3.02103 -1.00969,4.467 5.47087,10.20895 5.817,5.15402 6.38044,4.1693 6.38044,-11.15065 0,-18.93936 4.32113,-22.52215 15.05466,-12.48223 4.863,4.54878 6.64143,4.82958 4.78509,0.75554 -3.98409,-8.74428 -0.0816,-11.30167 12.61135,-8.2636 2.9495,0.70598 3.4778,-1.98866 1.3385,-6.82515 -3.1934,-7.21923 -3.401,-10.40943 -0.8569,-13.16935 8.534,-9.25785 31.1234,-4.51597 33.9264,7.12169 1.1019,4.57433 -3.1387,7.65472 -5.9216,4.30156 -0.6419,-0.77344 -1.5579,-1.40625 -2.0356,-1.40625 -0.4776,0 -3.3256,-1.73278 -6.3287,-3.85063 -9.8628,-6.95539 -14.1155,-3.94269 -11.3328,8.02817 2.5923,11.15137 0.1473,14.3769 -9.036,11.92073 -3.327,-0.88984 -6.8919,-0.73787 -6.8919,0.29379 0,0.13967 0.6328,1.76849 1.4063,3.61959 4.5704,10.93861 -2.6204,13.6772 -12.52655,4.77068 -7.29112,-6.55529 -7.98694,-5.94616 -8.64919,7.57126 -0.327,6.67544 -1.21668,13.30057 -2.19075,16.31373 -2.8215,8.72842 1.92535,13.05868 5.0115,4.57164 6.49444,-17.86044 13.89069,-22.41519 15.92469,-9.80673 1.0224,6.33798 3.7875,12.81777 5.4695,12.81777 0.3977,0 2.0215,-0.37235 3.6083,-0.82745 4.8118,-1.38 7.2882,1.15026 5.1806,5.2933 -0.4555,0.89535 -1.3485,2.89353 -1.9844,4.4404 -0.6359,1.54688 -1.4752,3.45916 -1.8652,4.24952 -2.0474,4.15032 -2.1347,7.66894 -0.164,6.61429 1.0482,-0.56103 3.0606,-1.02006 4.4719,-1.02006 1.4113,0 3.2972,-0.66182 4.1911,-1.47069 5.4006,-4.88757 19.5132,-3.31973 20.658,2.295 0.744,3.64882 1.7878,4.48037 6.6559,5.30285 4.3463,0.73429 18.5882,11.98918 19.9034,15.72889 1.3723,3.90234 -2.1115,5.74676 -15.4136,8.16013 -7.3546,1.33433 -7.7696,1.67148 -7.1129,5.77816 1.2442,7.78078 -1.072,8.78241 -15.1058,6.53229 -5.7751,-0.92593 -10.2739,-1.31755 -9.9975,-0.87026 0.2764,0.4473 0.034,1.37833 -0.5395,2.06896 -0.787,0.94824 -0.6885,1.3914 0.4021,1.80991 4.5139,1.73215 3.6999,8.3764 -1.1736,9.58038 l -3.5041,0.86563 -0.661,6.62521 c -1.501,15.04291 -3.7864,15.18721 -17.56536,1.10916 -3.9059,-3.99059 -5.94937,-5.39062 -7.86834,-5.39062 -5.01844,0 -12.39666,-5.97757 -16.01512,-12.9749 -1.84135,-3.56072 -8.11885,-8.92873 -13.6005,-11.63 -4.64185,-2.28742 -42.88748,-2.87959 -46.91085,-0.72635 -1.52829,0.81792 -6.1436,8.34376 -5.4693,8.91838 1.35465,1.15437 6.66703,3.28787 8.18676,3.28787 1.04946,0 3.70713,0.40468 5.90593,0.89929 2.1988,0.49461 6.42361,1.33836 9.38846,1.875 13.81978,2.50141 16.62703,3.09724 23.20312,4.92499 23.81316,6.61857 36.93291,13.22704 45.49003,22.91345 6.08467,6.88774 5.83177,6.81501 10.90877,3.13727 8.0074,-5.80049 11.0966,-2.86489 9.3491,8.88412 -1.9905,13.3837 -0.5493,13.8484 5.2244,1.68448 5.5331,-11.65703 13.4027,-7.38445 13.4027,7.27667 0,6.06678 3.5161,3.73905 6.1854,-4.09485 2.5142,-7.37892 7.3569,-5.66804 6.9146,2.4429 -0.6001,11.00578 3.5418,13.04068 8.2018,4.02942 1.0554,-2.04098 1.268,-4.25664 0.824,-8.58967 -0.8588,-8.38223 2.2603,-10.68005 10.5666,-7.78446 5.0558,1.76244 5.6733,4.51089 1.9791,8.80764 -0.8866,1.03125 -1.8754,3.91483 -2.1973,6.40795 -0.3219,2.49313 -1.3472,5.6572 -2.2785,7.03125 -0.9314,1.37407 -2.1809,3.63614 -2.7768,5.02684 -3.2554,7.59712 -17.3187,6.2094 -20.048,-1.97825 -0.3212,-0.96351 -1.1109,-0.63124 -3.0074,1.2652 -1.5388,1.53878 -3.1508,2.34971 -4.0132,2.01881 -0.7926,-0.30417 -1.9717,-0.55305 -2.6203,-0.55305 -1.9093,0 -3.6023,-4.69178 -4.2017,-11.64432 -0.7575,-8.78348 -2.1605,-8.83951 -6.0781,-0.24275 -6.7687,14.85269 -16.5394,7.69957 -11.8443,-8.67114 1.4789,-5.15681 -0.4514,-6.51219 -4.1581,-2.91955 -4.7816,4.63449 -7.8548,4.00351 -11.26164,-2.31222 -6.48347,-12.01932 -21.65879,-20.82078 -45.96741,-26.66034 -15.67732,-3.76611 -19.57449,-4.57255 -27.48443,-5.68736 -3.44606,-0.48568 -8.37495,-1.32735 -10.95307,-1.87039 -10.25159,-2.15932 -11.43234,0.81919 -3.51563,8.86836 10.37123,10.54475 18.8055,13.54071 29.55544,10.49844 19.36481,-5.48034 21.99825,-5.61495 25.29478,-1.293 2.02191,2.6509 3.52735,3.36102 11.1256,5.24805 11.17612,2.77555 12.07106,3.27616 12.07106,6.75219 0,3.78012 -2.27269,7.01065 -6.67097,9.48264 -3.49847,1.96626 -4.73194,4.66681 -2.70403,5.92014 3.82762,2.36557 -1.42247,10.76596 -6.73584,10.77774 -7.34832,0.0163 -7.31213,3.45762 0.0581,5.54857 2.81269,0.79796 5.81925,2.83691 9.55716,6.48144 2.99943,2.92449 6.10978,5.86122 6.9119,6.52609 3.23016,2.67732 1.16353,7.68567 -3.18215,7.71176 -4.42228,0.0265 -4.62835,0.75571 -2.77828,9.8294 3.57168,17.51722 1.21509,24.26167 -6.38775,18.28125 -1.3111,-1.03125 -3.276,-1.88426 -4.36669,-1.89559 -3.79256,-0.0394 -9.54938,-3.47527 -13.86488,-8.27509 -5.09109,-5.66258 -5.22197,-5.69198 -8.78484,-1.97318 -2.18419,2.27976 -3.38738,2.80004 -5.96231,2.57813 -3.52444,-0.30375 -3.25885,0.18122 -6.18441,-11.29365 -1.95133,-7.65344 -2.3363,-7.72093 -6.68463,-1.17187 -1.88295,2.83594 -3.96213,5.15625 -4.62039,5.15625 -0.65827,0 -1.86951,0.25812 -2.69166,0.57361 -0.98553,0.37819 -2.5889,-0.62087 -4.70612,-2.93232 l -3.21131,-3.50593 -5.94245,1.60854 c -12.97738,3.51281 -16.42026,-0.18004 -10.19406,-10.93421 4.55516,-7.86787 4.5117,-7.30757 0.74991,-9.66611 -5.51193,-3.45584 -4.77613,-5.84507 4.8792,-15.84323 12.99465,-13.45608 13.92028,-20.36561 4.59497,-34.30035 -5.91149,-8.8335 -9.01258,-11.97822 -9.6637,-9.79969 -3.94664,13.20475 -17.93424,19.79376 -30.52304,14.37821 -4.24151,-1.82466 -5.10345,-1.89125 -10.73234,-0.82915 -13.0596,2.46416 -23.28025,-3.13451 -31.29499,-17.1428 l -3.06453,-5.35657 -13.65469,0 c -14.16563,0 -35.15524,1.73442 -34.46696,2.84809 0.21673,0.35067 3.25357,0.92535 6.74853,1.27705 10.2309,1.02957 18.99176,3.99302 29.20716,9.87962 22.12896,12.75177 20.67204,49.81371 -1.87303,47.64742 -9.97903,-0.95886 -16.69132,-12.52055 -10.28204,-17.71047 4.1453,-3.35666 5.88345,-2.40238 5.54131,3.04234 -0.26819,4.26784 -0.0276,5.00365 2.18266,6.67535 l 2.4841,1.87877 3.93594,-2.21212 c 17.70904,-9.95303 0.78997,-29.18215 -29.52912,-33.56088 -3.60938,-0.52127 -9.9375,-1.4401 -14.0625,-2.04185 -4.125,-0.60176 -10.03125,-1.92406 -13.125,-2.93846 -7.35615,-2.41199 -15.79598,-1.16789 -27.44695,4.04591 -2.2052,0.98683 -4.44606,1.79423 -4.97969,1.79423 -0.53363,0 -4.21375,1.521 -8.17805,3.38 -3.96429,1.85899 -10.37187,4.85262 -14.23906,6.6525 -3.86719,1.79987 -9.65763,4.9195 -12.86765,6.9325 -3.21002,2.013 -6.04948,3.66 -6.30992,3.66 -0.68757,0 -9.65913,6.0544 -14.57243,9.83412 -2.32031,1.78497 -4.74609,3.25564 -5.39063,3.26815 -0.64453,0.0125 -1.17187,0.68139 -1.17187,1.48642 0,1.62933 3.42539,1.36528 15,-1.15627 3.35156,-0.73015 10.52344,-1.54449 15.9375,-1.80964 13.32387,-0.65255 13.57702,-0.73558 16.88046,-5.53695 3.23942,-4.70835 7.24048,-5.85361 8.1604,-2.33583 0.74504,2.84902 1.5973,2.27434 3.11304,-2.09914 2.17692,-6.28116 7.4711,-5.70883 7.4711,0.80768 0,1.74155 0.37267,3.16646 0.82816,3.16646 1.04141,0 1.95483,-3.31971 1.97154,-7.16532 0.0209,-4.80904 6.53627,-5.18164 8.28807,-0.47397 0.50819,1.36567 1.23363,3.32679 1.61209,4.35804 0.58838,1.60321 0.79114,1.41696 1.39885,-1.28493 1.90052,-8.44984 7.95547,-8.17653 9.78382,0.44163 1.15651,5.45137 3.12183,6.03259 4.68635,1.38592 1.68305,-4.99872 7.2152,-5.49725 11.27095,-1.0157 0.8714,0.96289 3.75695,2.30699 6.41232,2.98689 3.3412,0.85551 6.05704,2.41368 8.81915,5.05986 7.17942,6.87807 3.98414,9.56336 -4.46437,3.75182 -2.56319,-1.76318 -6.03349,-3.50313 -7.71177,-3.86657 -1.67827,-0.36344 -4.17123,-1.4521 -5.53988,-2.41924 -3.52325,-2.48963 -3.945,-2.30923 -6.78033,2.90019 -3.9616,7.27877 -8.25182,7.82932 -9.42521,1.20949 -1.51145,-8.52697 -2.83756,-9.10545 -3.61459,-1.57674 -1.01706,9.85434 -9.05646,14.38092 -9.112,5.1305 -0.0417,-6.94777 -3.12946,-5.60806 -4.10996,1.78322 -1.15699,8.7219 -6.48504,10.58197 -8.85537,3.09149 -1.39419,-4.40581 -2.43072,-4.51019 -3.26696,-0.32899 -0.95073,4.75364 -6.72326,4.92197 -7.746,0.22588 -1.00804,-4.62856 -1.28002,-5.0776 -2.50283,-4.13229 -0.63842,0.49355 -6.59409,1.4298 -13.23481,2.08057 -6.64071,0.65076 -15.92196,2.24759 -20.625,3.5485 -4.70303,1.30092 -10.64682,2.94343 -13.2084,3.65003 -2.56159,0.70659 -6.95145,1.28472 -9.75526,1.28472 -4.02147,0 -5.76037,0.50534 -8.23574,2.39341 -1.72587,1.31637 -4.4024,2.8342 -5.94787,3.37296 -7.00879,2.44327 -1.27094,5.84294 8.62598,5.11088 20.3507,-1.5053 28.67831,-1.64349 37.15494,-0.61659 11.93828,1.44627 19.67824,3.03139 34.18925,7.00186 14.4927,3.96545 19.27935,1.69463 32.7156,-15.5205 9.91141,-12.69892 18.56678,-14.43736 18.56678,-3.72915 0,2.63505 0.74789,2.82769 5.92647,1.52651 21.24065,-5.33695 22.56719,-4.53236 15.67467,9.50717 l -3.93708,8.01954 1.93787,1.8054 c 4.77257,4.44633 3.78804,9.03398 -2.63722,12.2888 -2.7866,1.41159 -5.25214,2.75213 -5.47898,2.97898 -0.22684,0.22685 2.04971,1.53865 5.059,2.91514 3.00929,1.37647 7.92243,4.34513 10.91808,6.597 3.06845,2.3066 6.96052,4.34804 8.91379,4.6754 8.20076,1.37442 12.13557,3.22653 18.23547,8.58342 4.58737,4.02859 8.8329,4.17354 13.00687,0.4441 l 2.96103,-2.64568 -1.87143,-5.55745 -1.87143,-5.55745 -6.19004,0.28931 c -11.08404,0.51805 -13.69282,-3.57285 -4.92388,-7.72123 16.36733,-7.74298 33.09039,9.44006 23.83834,24.49404 -6.07029,9.87694 -20.11249,10.46574 -30.45829,1.27713 -13.6659,-12.13734 -24.83877,-10.12326 -19.11667,3.44607 10.4235,24.71812 9.04318,31.55828 -4.43593,21.9822 -3.20809,-2.27916 -9.30145,-4.86127 -11.47181,-4.86127 -0.89632,0 -3.21778,-1.07771 -5.15878,-2.39491 l -3.52911,-2.39492 -1.79448,1.92617 c -2.58846,2.77838 -9.2166,0.78524 -10.75949,-3.23545 -1.00768,-2.62596 -2.21197,-1.4095 -2.21197,2.23432 0,5.05903 -1.68495,6.2463 -6.97441,4.9144 -5.94271,-1.49639 -5.89772,-1.51626 -8.08622,3.57105 -4.58704,10.66284 -10.61566,10.64222 -13.01214,-0.0445 -1.67981,-7.49083 -2.91389,-10.20113 -4.64486,-10.20113 -7.77332,0 -8.30541,-5.2838 -3.25921,-32.36514 0.65561,-3.51848 -1.90644,-12.61492 -4.4715,-15.87587 -6.26011,-7.95844 -36.69881,-13.89189 -55.53732,-10.82593 -17.53962,2.85454 -26.59318,3.63777 -32.86074,2.84275 -7.55057,-0.95775 -6.17558,-1.72866 -19.18362,10.75544 -16.88711,16.20692 -37.64298,46.64108 -22.28218,32.67219 16.00605,-14.55567 41.35211,-19.54131 68.59345,-13.49252 15.54597,3.4519 21.3959,1.82654 21.8062,-6.0587 0.2759,-5.30195 -0.0658,-5.98653 -3.9937,-8.00066 -4.14283,-2.12438 -3.84631,-5.14794 0.4935,-5.03197 14.49707,0.38739 15.6508,22.48537 1.31437,25.17489 -4.82687,0.90554 -5.06899,2.93828 -0.76352,6.41054 2.00373,1.61595 6.37096,5.59174 9.70495,8.83506 11.42577,11.11506 24.70619,10.82286 20.45117,-0.44998 -2.31254,-6.12662 1.81401,-7.7431 5.56343,-2.17934 6.04616,8.97188 -0.20244,17.4456 -12.62328,17.1184 -6.3626,-0.1676 -7.32715,0.97653 -4.80159,5.6956 0.58179,1.08707 1.44601,7.23706 1.9205,13.66665 1.22115,16.54722 3.6325,20.38704 10.96126,17.45465 9.60202,-3.84197 15.88715,4.73202 7.30488,9.96512 -5.60742,3.41916 -11.91294,1.89523 -18.58167,-4.49086 -4.06663,-3.89427 -4.94013,-3.56919 -7.81698,2.90907 -1.17283,2.64103 -3.47216,6.27842 -5.10962,8.08311 -10.50727,11.58029 -11.66762,14.34974 -8.0174,19.13542 3.11932,4.08962 3.07132,6.89625 -0.13165,7.70014 -5.91432,1.4844 -11.5871,-4.14842 -11.5871,-11.50545 0,-2.24406 -0.31641,-4.07279 -0.70313,-4.06383 -0.38671,0.009 -3.64808,0.64009 -7.24748,1.40252 -3.59939,0.76244 -10.56033,1.62533 -15.46875,1.91752 C 629.91085,532.87403 630,532.8401 630,537.09057 c 0,6.6889 -6.12466,7.73216 -9.07474,1.54579 -2.12261,-4.45117 -0.46713,-8.32597 4.49203,-10.51394 4.52932,-1.99833 4.5391,-2.84829 0.0855,-7.42948 -1.95782,-2.01393 -5.19305,-5.71797 -7.18939,-8.23122 -8.64515,-10.8836 -19.90323,-11.67086 -21.79696,-1.52422 -1.38992,7.4472 -8.70394,5.65683 -8.70394,-2.13059 0,-3.08485 0.63679,-4.35179 3.75418,-7.46918 l 3.75418,-3.75418 8.51387,0.40706 8.51387,0.40705 -0.57475,-2.87071 c -1.93329,-9.65604 -1.77522,-12.59472 0.86357,-16.05436 2.21099,-2.89873 2.47322,-3.90446 1.94191,-7.44754 -0.73655,-4.91164 1.3902,-9.73495 6.19789,-14.0563 5.40217,-4.85569 7.33173,-5.56898 15.31653,-5.66198 4.22493,-0.0492 8.48827,-0.62229 9.76316,-1.31235 9.67171,-5.23506 29.14309,7.39286 29.14309,18.90039 0,1.47597 0.86266,3.60955 1.91703,4.74127 8.71253,9.35182 3.57122,32.55142 -7.21379,32.55142 -0.64756,0 -2.47781,1.6182 -4.06721,3.596 -8.33399,10.37054 -28.69387,11.30835 -35.04569,1.61426 -1.69745,-2.59065 -3.40284,-3.16322 -3.40284,-1.14248 0,23.3843 48.80864,14.27856 61.07513,-11.39417 25.08023,-52.49086 -54.15505,-91.96758 -93.44326,-46.55545 -2.56472,2.96448 -5.08499,5.8598 -5.60062,6.43404 -0.51562,0.57423 -2.59678,3.10722 -4.6248,5.62884 -2.02801,2.52162 -5.11331,5.42615 -6.85622,6.45448 -5.4161,3.19557 -13.93166,24.41927 -17.57464,43.80198 -0.72684,3.86719 -1.60298,8.19526 -1.94699,9.61793 -0.74175,3.06763 5.55733,9.49013 10.25185,10.45273 12.72162,2.60852 12.87763,15.55434 0.18743,15.55434 -9.581,0 -12.12875,4.11726 -6.96146,11.25 0.93385,1.28906 2.38563,5.05943 3.22615,8.37859 2.1054,8.31394 6.01998,15.39403 14.1217,25.54114 3.79265,4.75016 6.89573,9.31303 6.89573,10.13971 0,4.8527 -8.20862,5.24189 -13.65937,0.64762 -10.46507,-8.82066 -13.2861,-6.87925 -14.04834,9.66794 -0.15439,3.35156 -0.63347,7.78125 -1.06463,9.84375 l -0.78393,3.75 -5.6125,0.21848 c -3.54009,0.13781 -6.52772,-0.28672 -8.09117,-1.14972 z m 12.30565,-28.52528 1.95013,-5.08152 -3.02557,-3.12161 c -7.50612,-7.74434 -11.76157,3.43133 -5.74032,15.07515 l 1.42348,2.75272 1.72108,-2.27161 c 0.94658,-1.24939 2.59862,-4.55829 3.6712,-7.35313 z M 540.091,582.65625 c 1.48715,-2.57813 2.70786,-5.3604 2.71271,-6.18282 0.0407,-6.92071 5.8366,-5.41335 12.9591,3.37032 6.29908,7.76821 9.58968,10.75209 8.15674,7.39643 -0.41604,-0.97428 -2.42637,-6.41205 -4.4674,-12.08393 -5.01142,-13.92636 -19.18502,-23.13862 -19.22623,-12.49627 -0.005,1.20107 -0.93128,4.92596 -2.05917,8.27752 -2.20206,6.54348 -5.60851,18.66453 -5.64468,20.08529 -0.0436,1.71237 4.91994,-3.77423 7.56893,-8.36654 z m 24.11344,-40.50577 c -0.76109,-3.95203 -39.53843,-4.42976 -40.84727,-0.50324 -0.28254,0.84763 4.46162,1.19459 19.14925,1.40049 10.73866,0.15053 20.08311,0.37012 20.76544,0.48799 0.71733,0.1239 1.1107,-0.46039 0.93258,-1.38524 z M 450.72969,520.52407 c 1.36763,-0.89611 2.07227,-2.15896 1.89547,-3.39708 -0.29772,-2.08498 -0.50107,-2.1088 -8.33647,-0.97627 -3.68891,0.5332 -4.8812,0.25854 -8.33075,-1.91907 -4.7573,-3.00315 -8.45794,-2.24485 -8.45794,1.73312 0,1.85017 0.88352,2.60144 4.92188,4.18508 8.29517,3.25298 13.74427,3.36436 18.30781,0.37422 z m 14.23032,-7.69017 c 4.19902,-2.24725 7.75133,-11.87421 6.03344,-16.35097 -1.07083,-2.79054 -5.03641,-1.81499 -5.67881,1.39699 -0.3168,1.58397 -2.62699,5.12406 -5.13377,7.86689 -4.53367,4.96054 -4.54539,4.99006 -2.21309,5.57543 1.2896,0.32366 2.34472,1.00232 2.34472,1.50812 0,1.1803 2.44523,1.18217 4.64751,0.004 z m 188.94624,-0.83091 c 7.10204,-3.23066 8.23609,-8.57471 1.50189,-7.07751 -1.85729,0.41293 -7.0683,0.7744 -11.58002,0.80328 -7.56557,0.0484 -8.202,0.19821 -8.18877,1.92749 0.0441,5.75618 9.97402,8.11909 18.2669,4.34674 z m -230.64137,-5.72651 c 0.30968,-0.50106 -0.19277,-2.06466 -1.11654,-3.47466 -1.9934,-3.04264 -2.20301,-12.66248 -0.35093,-16.10559 1.743,-3.24034 0.11654,-4.31688 -3.95304,-2.6165 -8.22725,3.43757 -5.88784,23.10777 2.74823,23.10777 1.16008,0 2.36262,-0.40996 2.67228,-0.91102 z m 24.50172,-4.62828 c 3.48221,-2.12337 4.51002,-5.42509 3.20153,-10.28444 -2.2507,-8.35847 -11.55833,-9.94154 -15.96419,-2.71526 -5.6027,9.18928 3.61474,18.57791 12.76266,12.9997 z m 88.13924,-19.07008 c -0.352,-19.89157 -0.35689,-19.9314 -3.21857,-26.18834 -1.57631,-3.44656 -4.19696,-11.88406 -5.82365,-18.75 -1.6267,-6.86594 -3.6124,-15.22572 -4.4127,-18.57728 -0.80029,-3.35156 -1.7501,-7.57031 -2.11068,-9.375 -0.36057,-1.80469 -1.73948,-5.60156 -3.06424,-8.4375 -1.32474,-2.83594 -3.87647,-8.37874 -5.67051,-12.31733 -9.37853,-20.58946 -19.01572,-25.32756 -37.01017,-18.19591 -10.77336,4.26975 -14.34796,4.22784 -15.64675,-0.18343 -0.96398,-3.27408 -1.09706,-3.32387 -11.99544,-4.48763 -6.67815,-0.7131 -6.68416,-0.78136 0.60442,6.8643 10.60824,11.12796 13.44971,15.48962 15.6471,24.01836 0.90293,3.50459 2.4349,5.86608 6.41273,9.8851 12.93324,13.06717 20.68675,22.26494 27.84258,33.02885 8.22267,12.36866 7.5502,7.82705 -2.0387,-13.76856 -7.90937,-17.81305 -3.65664,-37.03125 8.19453,-37.03125 6.20536,0 13.14179,12.19279 10.13384,17.81317 -1.87828,3.50961 -3.66428,1.77273 -5.58814,-5.43443 -1.43592,-5.37923 -4.774,-7.12257 -7.81061,-4.07916 -3.38698,3.39458 -2.35455,15.30915 2.40841,27.79417 0.59013,1.54687 3.42823,6.60937 6.30687,11.25 6.79505,10.95419 9.11589,17.14262 9.67573,25.79993 0.41455,6.41057 1.09136,8.36609 7.4629,21.5625 3.85385,7.98192 7.29715,15.46179 7.65178,16.62194 1.7898,5.85525 2.37767,0.74537 2.04927,-17.8125 z m 95.03166,19.4169 c 0,-0.27773 -1.6926,-2.26646 -3.76133,-4.4194 -3.74894,-3.90152 -5.59852,-8.22912 -5.60844,-13.1225 -0.006,-2.87747 -0.7153,-3.16789 -3.23606,-1.32467 -5.37617,3.93115 1.40818,19.37155 8.51166,19.37155 2.2518,0 4.09417,-0.22724 4.09417,-0.50498 z m -76.90426,-9.57183 c 0.0447,-1.79093 6.36737,-20.51988 7.97984,-23.63805 0.78343,-1.51499 1.42442,-4.96037 1.42442,-7.6564 0,-2.69603 0.38654,-6.19744 0.85897,-7.78093 3.49415,-11.71157 5.43771,-17.12512 8.94319,-24.91031 8.96874,-19.91827 9.16781,-37.5 0.42463,-37.5 -3.37366,0 -5.43122,9.74103 -3.55974,16.85274 0.9634,3.661 -3.94238,2.05765 -5.45037,-1.78133 -1.18647,-3.02044 -2.94013,-5.03603 -3.12092,-3.58704 -2.10642,16.88261 -2.90663,24.33449 -3.34739,31.17188 -0.59865,9.28703 -3.72628,21.57905 -6.81705,26.792 -2.64009,4.45283 -3.31646,11.95798 -2.48191,27.53982 l 0.68943,12.87221 2.21382,-3.60201 c 1.21761,-1.98111 2.22699,-4.12877 2.24308,-4.77258 z m 118.50861,5.14901 c 4.60974,-7.96207 2.62058,-20.18876 -3.06405,-18.83367 -3.66313,0.8732 -3.72276,0.97372 -2.83161,4.7721 0.51114,2.17866 0.45218,5.37951 -0.15471,8.39742 -1.64476,8.17903 2.40134,11.96685 6.05037,5.66415 z m -25.86368,-3.17291 c 6.83815,-1.83178 6.52417,-14.90137 -0.42778,-17.80608 -8.91863,-3.72644 -16.38303,5.55909 -11.0035,13.68811 2.9227,4.41649 6.07616,5.55248 11.43128,4.11797 z m -180.69411,-7.39211 c 3.68246,-1.90428 3.65719,-5.49552 -0.0749,-10.64754 -5.25389,-7.25278 -13.22528,-9.95115 -16.32474,-5.52604 -1.81886,2.59678 -1.87312,4.4789 -0.12914,4.4789 2.99197,0 7.35746,3.57025 10.03028,8.20312 3.22762,5.59453 2.83732,5.38483 6.49851,3.49156 z M 288.30787,473.25692 c 5.38855,-10.73703 23.2454,-30.92139 33.95775,-38.38388 4.22331,-2.94207 5.0425,-4.54466 2.34375,-4.58517 -7.35547,-0.11042 -28.54466,-7.63758 -29.53985,-10.49361 -1.32667,-3.80732 2.11077,-4.5426 7.76094,-1.66009 15.94132,8.13265 28.76031,7.89008 42.04877,-0.79568 2.9125,-1.9037 0.56225,-2.99481 -5.03548,-2.33771 -4.74638,0.55717 -12.99621,-2.25571 -18.85615,-6.42921 -11.4205,-8.13376 -15.24555,-9.10757 -19.18356,-4.8839 -2.21657,2.37736 -2.47571,2.422 -10.47592,1.80461 -9.56504,-0.73814 -9.93277,-0.27456 -5.85937,7.38645 2.72166,5.11873 2.97469,9.0368 0.79814,12.35864 -0.89659,1.36836 -1.19184,2.68347 -0.70312,3.13185 1.82154,1.6712 16.09102,5.69328 20.1985,5.69328 8.80349,0 6.76821,5.44055 -3.17363,8.4835 -9.5489,2.92269 -13.04034,4.86999 -18.4739,10.30355 -6.4376,6.43759 -6.27844,7.45763 1.34325,8.60909 2.76354,0.41751 2.80409,3.07711 0.12995,8.52484 C 282.71116,475.84407 282.06242,480 284.02438,480 c 0.49465,0 2.42223,-3.03439 4.2835,-6.74308 z m 142.6723,2.88791 c 0.57346,-0.57346 3.29455,-1.77678 6.04687,-2.67402 6.57472,-2.14334 7.73465,-7.7719 1.70635,-8.28005 -6.30381,-0.53136 -16.85839,5.89129 -16.85839,10.25863 0,2.01553 7.23266,2.56795 9.10517,0.69544 z m 235.78344,-3.41046 c 3.19689,-3.66975 2.37433,-6.82034 -3.17149,-12.14762 -7.02781,-6.75088 -15.72088,-7.03134 -15.76527,-0.50863 -0.0206,3.03436 -4.77008,2.89342 -7.89787,-0.23437 -5.3666,-5.3666 -17.38243,-0.0279 -19.54557,8.68415 -1.12949,4.54899 5.25363,4.39742 8.26351,-0.19622 0.8628,-1.3168 2.27958,-2.39418 3.1484,-2.39418 0.86882,0 1.98046,-0.39378 2.4703,-0.87505 1.65538,-1.62643 12.02984,-1.96872 14.87835,-0.49089 1.44808,0.75127 3.36543,1.36594 4.26079,1.36594 4.10008,0 7.44917,2.06239 8.49499,5.23124 1.17231,3.55213 2.70387,4.04513 4.86386,1.56563 z M 510.9375,466.38391 c 0,-1.9229 -3.33922,-3.39774 -6.11534,-2.70097 -3.16013,0.79315 -2.5017,2.46029 1.49826,3.79353 3.51909,1.17297 4.61708,0.91315 4.61708,-1.09256 z m 63.14213,-0.22133 c 0.66455,-1.07524 -1.96651,-6.78758 -3.1263,-6.78758 -1.82354,0 -2.12821,2.77931 -0.56605,5.16349 1.54156,2.35271 2.87859,2.9408 3.69235,1.62409 z m 170.1216,-10.15975 c 2.04757,-3.16002 2.41778,-3.33125 6.5625,-3.03527 l 4.39252,0.31369 -0.0458,-4.24457 c -0.0353,-3.26789 -0.79033,-5.31724 -3.28125,-8.90625 l -3.23541,-4.66168 -0.30945,2.8125 c -1.50314,13.66173 -10.75103,7.79947 -11.83148,-7.5 -0.79332,-11.23338 -2.66387,-18.97147 -5.19884,-21.50644 -1.85902,-1.85901 -1.86102,-1.85606 -0.93349,1.37802 1.28888,4.49409 1.09838,16.8783 -0.38894,25.28467 -1.36613,7.72138 -0.7114,11.25 2.08744,11.25 2.43348,0 4.59946,2.66306 6.35391,7.81208 1.78629,5.24248 2.95153,5.44305 5.82833,1.00325 z m -197.87266,-0.14346 c 0.24341,-0.73106 -0.50003,-1.17187 -1.97637,-1.17187 -1.30159,0 -2.62728,-0.42188 -2.94595,-0.9375 -0.83962,-1.35854 -3.50874,-1.1535 -3.05096,0.23437 0.93459,2.83348 7.16621,4.29891 7.97328,1.875 z m 245.85893,-3.34883 c 0,-4.57265 -43.04277,-40.40527 -45.53809,-37.90995 -2.10514,2.10513 1.19258,12.32163 4.28809,13.28475 3.69796,1.15057 7.5,3.45099 7.5,4.53789 0,1.39326 4.1155,9.64769 6.77691,13.59239 3.21765,4.76917 5.0799,5.05366 6.14613,0.93894 1.12354,-4.33586 3.36788,-4.27797 7.66821,0.19781 5.53214,5.75786 13.15875,8.86336 13.15875,5.35817 z M 116.44114,430.54687 c 3.03437,-4.24982 9.57472,-17.12939 15.35328,-30.23437 1.47785,-3.35156 4.07132,-8.56362 5.76327,-11.58234 l 3.07625,-5.48861 -7.27009,0.63844 c -7.74476,0.68012 -12.42635,-0.3368 -12.42635,-2.69919 0,-0.7511 -1.26562,-2.26683 -2.8125,-3.3683 -3.13882,-2.23504 -3.83642,-6.42064 -1.40625,-8.4375 1.9429,-1.61246 1.76074,-2.57364 -0.63169,-3.33296 -2.37013,-0.75225 -4.52456,1.54195 -4.52456,4.81809 0,2.66459 -1.56797,3.20237 -9.33688,3.20237 -9.148522,0 -10.021672,1.45114 -4.370542,7.26366 3.884082,3.99499 4.331452,4.90313 4.331912,8.79343 5e-4,4.2521 1.74446,7.21397 3.57975,6.07969 1.7027,-1.05232 16.9157,-2.32202 19.52164,-1.62931 5.70758,1.5172 3.91974,5.01578 -5.40187,10.57086 -5.43984,3.24178 -17.01708,14.91592 -15.35526,15.48376 5.34272,1.82561 7.03125,4.03626 7.03125,9.20538 0,6.32328 0.79254,6.43973 4.87864,0.71691 z m 420.42007,-15.9375 c -0.33815,-9.66796 -0.89227,-35.85262 -1.23138,-58.18812 -0.52211,-34.38936 -0.84495,-41.06703 -2.10757,-43.59375 -2.43241,-4.86765 -4.67407,-3.95475 -8.32808,3.39159 -3.2319,6.49766 -3.3837,9.09341 -0.5318,9.09341 8.01332,0 5.13462,9.432 -6.35546,20.82356 -10.14287,10.05591 -10.6188,12.68112 -4.72292,26.05144 0.7958,1.80469 2.57692,5.8125 3.95803,8.90625 1.38111,3.09375 3.46837,7.94531 4.63836,10.78125 1.16999,2.83594 2.48632,6 2.92517,7.03125 1.66233,3.9063 10.20694,30.63409 10.20694,31.92761 0,0.7445 0.4868,1.35364 1.08176,1.35364 0.80076,0 0.92205,-4.56634 0.46695,-17.57813 z m 49.00004,10.78125 c 3.46549,-6.14835 22.51871,-28.20588 28.26688,-32.724 3.29683,-2.59133 4.74855,-4.63736 6.29815,-8.87646 1.10757,-3.0299 5.45168,-10.71183 9.65358,-17.07095 8.45075,-12.78929 8.64724,-14.31636 1.61207,-12.52854 -2.21963,0.56405 -5.61431,1.27664 -7.54375,1.58351 -2.85063,0.45339 -3.61201,1.03341 -4.06267,3.09501 -0.9823,4.4935 -1.24561,4.893 -3.88961,5.90114 -3.08032,1.1745 -8.48366,0.51209 -17.92602,-2.19763 -5.94444,-1.70591 -7.45301,-1.82466 -11.02908,-0.8682 -2.27849,0.6094 -4.90041,1.108 -5.8265,1.108 -1.91001,0 -12.3518,11.60638 -12.3518,13.72942 0,0.76286 -0.67474,3.4499 -1.49941,5.9712 -1.93765,5.92404 -1.48124,7.22018 1.66971,4.74165 12.74289,-10.02357 22.7845,9.61611 15.80784,30.91748 -1.70221,5.19725 -2.48313,7.17987 -4.50488,11.43712 -1.59383,3.35616 3.19354,-0.4363 5.32549,-4.21875 z m -402.69484,-6.09375 c -0.34062,-1.41796 -2.28434,-5.40754 -4.31938,-8.86572 l -3.70006,-6.28759 2.08741,-3.71405 c 2.55315,-4.5427 2.10689,-5.88819 -3.0281,-9.12977 -2.20456,-1.39167 -4.56576,-3.08779 -5.24711,-3.76914 -0.68136,-0.68136 -2.00113,-1.77557 -2.93282,-2.43159 -2.19448,-1.54516 -5.2866,-7.73537 -6.09833,-12.20839 -1.20947,-6.66481 -4.16117,-2.21936 -3.0545,4.60028 0.63521,3.9143 5.3183,14.25449 7.39761,16.33381 2.81441,2.81441 5.25375,8.79082 4.72246,11.57011 -0.44584,2.33223 0.0902,3.22002 3.98294,6.5971 2.47395,2.14622 4.55894,4.72799 4.63329,5.73726 0.2134,2.89656 1.37942,4.14582 3.86962,4.14582 2.04108,0 2.23507,-0.29647 1.68697,-2.57813 z m 367.14609,-0.81971 c 0,-3.09484 5.31952,-25.45864 7.92562,-33.32012 8.48336,-25.59062 8.09591,-29.50999 -4.10621,-41.53815 l -6.63191,-6.53735 0,-5.30098 c 0,-3.56828 0.45966,-5.68245 1.40625,-6.46806 1.82436,-1.51408 1.79502,-4.13527 -0.0636,-5.67774 -0.8084,-0.67092 -2.2898,-2.72648 -3.29201,-4.56793 l -1.8222,-3.34808 0.55295,15.9375 c 0.30412,8.76562 0.89035,17.20312 1.30274,18.75 0.41239,1.54687 0.82444,8.29687 0.91567,15 0.0912,6.70312 0.55363,16.19531 1.02757,21.09375 0.47394,4.89844 0.87259,15.12891 0.88589,22.73437 0.015,8.57763 0.38016,13.82813 0.96169,13.82813 0.51563,0 0.9375,-0.2634 0.9375,-0.58534 z m 417.09919,-16.05529 c -3.15375,-5.23931 -5.5276,-8.56543 -8.07422,-11.31333 -1.25588,-1.35508 -3.76219,-5.42839 -5.5695,-9.05179 -1.80741,-3.6234 -5.25788,-9.21643 -7.66772,-12.42897 -2.40984,-3.21253 -5.41556,-7.53675 -6.67931,-9.60938 -2.49144,-4.08584 -4.73344,-4.93999 -4.73344,-1.80332 0,6.83334 -9.38087,26.42979 -12.89062,26.92825 -2.94374,0.41808 -2.83735,-3.4585 0.22178,-8.08115 5.68917,-8.59693 8.15635,-22.48872 5.16475,-29.08083 -2.18411,-4.81277 -3.07979,-4.53708 -4.70326,1.44763 -1.96267,7.23517 -5.11151,12.66853 -10.20603,17.6106 -5.6581,5.48878 -5.80749,6.27258 -1.49287,7.83277 4.18929,1.51487 4.87228,5.86796 1.31194,8.36173 -1.83114,1.28258 -4.59319,5.88693 -4.59319,7.65686 0,1.39921 2.96202,1.21762 6.88665,-0.42219 4.46726,-1.86654 5.86832,-1.77628 8.171,0.5264 3.91989,3.91989 8.47208,-0.0493 11.35573,-9.9014 3.6664,-12.52641 7.86621,-9.85992 9.11309,5.786 1.10653,13.88484 1.86375,14.81959 8.13206,10.03854 3.68128,-2.80786 3.48703,-2.89052 10.73231,4.56609 5.51307,5.67384 8.69738,6.21456 5.52085,0.9375 z M 452.1612,402.1239 c 3.1959,-0.88748 5.35444,-3.04577 4.20034,-4.19987 -0.74234,-0.74234 -11.40592,2.99035 -11.78411,4.12493 -0.4488,1.34641 2.88633,1.37937 7.58377,0.0749 z m 178.74089,-12.0858 c -3.98262,-3.40418 -4.32067,-3.44083 -4.87733,-0.52888 -0.5764,3.0152 -0.19874,3.30328 4.33045,3.30328 l 3.79271,0 -3.24583,-2.7744 z M 103.76522,367.77323 c 0.68803,-0.26402 1.50567,-1.49487 1.81698,-2.73522 1.44451,-5.75538 10.3095,-7.69138 20.51155,-4.47944 12.17791,3.83401 16.1848,4.22346 22.29078,2.1665 12.29359,-4.14142 23.83793,-12.32688 21.44746,-15.20723 -0.67561,-0.81406 -2.14467,-3.29563 -3.26457,-5.5146 l -2.03617,-4.03449 -7.96875,0.29762 c -4.78043,0.17855 -11.34462,1.23906 -16.40625,2.65063 -4.64063,1.29415 -9.49219,2.56783 -10.78125,2.83038 -9.27585,1.88927 -38.391062,19.80454 -39.225269,24.13624 -0.324142,1.68313 9.141635,1.60638 13.615489,-0.1104 z m 368.35364,-2.23443 c 10.22087,-3.61998 15.49829,-4.56213 19.98419,-3.56767 6.01371,1.33314 6.80427,-0.22879 1.91021,-3.77403 -3.80827,-2.75869 -14.17612,-6.6346 -17.74722,-6.6346 -0.9138,0 -2.21332,-0.66497 -2.88784,-1.47771 -2.74368,-3.30592 4.13867,-4.24499 12.1496,-1.65775 6.75079,2.18026 5.65409,-2.63086 -3.01512,-13.2271 l -2.26528,-2.76882 -0.69403,2.18669 c -0.66265,2.08781 -0.95439,2.15445 -6.45182,1.47374 -15.44801,-1.91283 -23.88215,0.59726 -17.4342,5.18861 3.603,2.56556 3.50337,4.32582 -0.33563,5.92986 -3.14176,1.3127 -9.08172,9.18746 -9.08172,12.03986 0,1.61657 8.71623,3.06148 12.59517,2.08792 3.16512,-0.79439 6.15483,1.07644 6.15483,3.85143 0,2.80214 0.17046,2.81051 7.11886,0.34957 z M 76.677979,360.05279 c 1.51784,-1.51784 3.765137,-4.86991 4.993991,-7.44905 2.200709,-4.61886 2.304713,-4.69361 6.92178,-4.97466 l 4.6875,-0.28533 3.409191,-6.88056 c 1.875047,-3.78431 3.689039,-8.63587 4.031099,-10.78125 0.40294,-2.52727 1.65569,-4.96854 3.55798,-6.93352 3.84887,-3.97572 2.70101,-4.87624 -2.81571,-2.20899 -6.965919,3.36791 -13.290394,8.61539 -15.921916,13.21057 -5.956832,10.40186 -10.602666,10.85569 -6.325026,0.61785 1.614341,-3.86365 13.26971,-16.02801 16.269682,-16.98016 10.98932,-3.48787 -27.129963,-3.95905 -41.5803,-0.51396 -4.937116,1.17705 -15.839798,1.17545 -22.055031,-0.003 -2.731959,-0.51811 -5.169971,-0.73924 -5.417804,-0.49141 -0.813572,0.81357 1.884198,3.30842 3.577517,3.30842 2.873906,0 5.939456,3.3478 6.966681,7.60811 l 0.991137,4.11021 5.15625,-0.28415 c 6.248604,-0.34433 9.308341,-1.42692 15.575458,-5.51083 4.880813,-3.18054 13.175754,-6.22682 14.584587,-5.3561 1.783379,1.10219 0.743339,6.16501 -1.679393,8.17515 -13.690861,11.35924 -15.687652,15.63218 -7.305095,15.63218 3.809663,0 4.646577,1.33726 5.5739,8.90625 1.277976,10.43108 2.345227,11.54233 6.803522,7.08404 z M 209.44691,358.6894 c 7.74768,-3.23718 3.46508,-9.9876 -6.62332,-10.43996 -4.63103,-0.20765 -12.51109,-3.54399 -12.51109,-5.29707 0,-1.64886 -2.67732,-0.64206 -4.11093,1.5459 -3.04549,4.64801 -1.53263,8.87259 4.23016,11.81255 6.74626,3.44169 14.23026,4.37786 19.01518,2.37858 z m 361.75817,-13.7035 c -0.0396,-8.43965 -0.98222,-11.39122 -5.56278,-17.41814 -3.42205,-4.50261 -2.83562,-7.61714 1.09685,-5.82538 1.97095,0.89802 7.94835,12.09575 7.94835,14.89 0,7.77289 2.95981,4.6487 11.16835,-11.78863 11.77731,-23.58365 22.64786,-40.78125 25.77768,-40.78125 0.69404,0 1.78707,-0.63281 2.42897,-1.40625 5.51394,-6.64389 -7.04603,1.50275 -14.4969,9.40297 -3.64134,3.86094 -5.37554,4.07271 -7.44814,0.90953 -4.34669,-6.63388 -8.05496,1.44368 -8.05496,17.54573 0,12.47887 -3.70945,16.65326 -6.61977,7.44949 -2.45496,-7.76368 -7.47911,-12.1361 -8.67784,-7.55215 -0.46455,1.77642 -0.96885,1.91365 -5.03122,1.36915 -9.34853,-1.25303 -13.34483,-0.5045 -13.40682,2.51117 -0.008,0.38412 2.09502,2.85263 4.67315,5.48559 5.4431,5.55887 5.41941,11.2279 -0.0328,7.85822 -1.42673,-0.88176 -5.59248,2.11851 -5.59035,4.02628 9.4e-4,0.89334 2.12949,3.06919 4.7487,4.85438 6.15235,4.1933 10.3308,8.87816 13.14391,14.73693 2.9604,6.16551 3.98631,4.53171 3.93566,-6.26764 z m -461.31916,1.02962 c 8.4073,-4.60275 20.00772,-8.70459 29.33283,-10.3719 3.60937,-0.64535 7.78561,-1.54636 9.28052,-2.00224 1.49492,-0.45589 4.051,-0.82888 5.68019,-0.82888 5.99818,0 8.55527,-7.41221 3.76537,-10.91467 -6.23826,-4.56153 -44.66345,-1.25152 -48.92795,4.21474 -3.12744,4.00876 -6.85922,11.52521 -8.6791,17.48118 -1.102852,3.60937 -2.403464,7.29505 -2.890243,8.1904 -1.51079,2.77889 -0.996703,2.89812 2.161838,0.5014 1.675785,-1.2716 6.300225,-4.09312 10.276545,-6.27003 z m 125.39911,2.56049 c 6.49647,-5.39701 10.84185,-16.70836 8.0535,-20.96391 -1.80043,-2.74781 -7.51332,-3.06668 -7.60731,-0.4246 -0.21137,5.94257 -5.95562,14.7341 -10.64131,16.28647 -4.98815,1.65256 -5.82841,3.94614 -2.50409,6.83514 3.54784,3.08325 7.56091,2.53557 12.69921,-1.7331 z m 34.18848,-2.60608 c 8.37969,-4.70659 20.14962,-7.53241 31.37353,-7.53242 9.45662,-10e-6 11.26257,-0.27051 15.64378,-2.34315 l 4.95299,-2.34314 -1.13178,-3.90907 c -1.17363,-4.05364 -8.35713,-9.4804 -21.71828,-16.40704 -2.57813,-1.33654 -6.16406,-3.57955 -7.96875,-4.98445 -8.89149,-6.92178 -9.57255,-4.57938 -0.81904,2.81696 6.533,5.5201 16.5837,12.95084 19.73697,14.59204 5.52544,2.87586 4.44735,6.92906 -1.86389,7.00751 -19.06607,0.23699 -31.44915,3.72455 -39.69287,11.17908 -4.41897,3.99595 -3.74776,4.86406 1.48734,1.92368 z m -91.46897,-4.62565 c 2.19704,-1.39173 2.25448,-14.88571 0.0663,-15.58021 -3.23265,-1.026 -3.42247,-9.35933 -0.32451,-14.24671 1.6111,-2.54171 1.64247,-3.07986 0.17949,-3.07986 -0.62515,0 -2.00541,-1.08952 -3.06723,-2.42117 -6.56993,-8.23948 -13.60168,10.77329 -8.77051,23.71413 3.87668,10.38411 7.80849,14.21607 11.91644,11.61382 z m 36.68296,-11.16714 c 9.06369,-4.37375 9.59422,-20.54433 0.82282,-25.0802 -11.17532,-5.77898 -20.808,-1.18087 -22.0306,10.51619 -1.39463,13.3432 8.9773,20.46591 21.20778,14.56401 z m 595.95744,-0.52684 c -3.52232,-2.88229 -11.51125,-7.1503 -13.38405,-7.1503 -0.82656,0 -2.62262,-0.62077 -3.99124,-1.37951 -1.36862,-0.75873 -7.65859,-2.01962 -13.97772,-2.80198 -11.97129,-1.48214 -18.06563,-3.30286 -18.00822,-5.38004 0.0687,-2.48709 8.04363,-9.82539 14.17146,-13.04025 3.21299,-1.68566 12.98233,-10.14663 12.98233,-11.24368 0,-1.46111 -2.45715,-0.91358 -4.11344,0.91659 -0.87534,0.96724 -5.228,3.60396 -9.67255,5.85937 -27.09805,13.75101 -24.22546,27.56374 5.81724,27.97208 5.12201,0.0697 18.81883,3.22343 20.66948,4.75933 1.28831,1.0692 8.54987,3.49497 10.73677,3.58669 0.85863,0.036 0.37962,-0.78112 -1.23006,-2.0983 z M 478.125,328.75717 c 0,-0.68355 -1.09598,-2.26559 -2.43553,-3.51563 -3.25627,-3.03869 -14.43872,-19.79415 -17.3042,-25.9281 -3.07401,-6.58036 -3.69777,-6.21911 -3.69777,2.14158 0,7.02381 -0.0223,7.0878 -2.8125,8.06046 -8.06018,2.8098 4.39349,15.5989 18.52509,19.02405 6.96482,1.6881 7.72491,1.70952 7.72491,0.21764 z m 410.39302,-3.43867 c 8.66263,-5.78468 12.40536,-15.43058 7.54879,-19.45493 -1.50094,-1.24375 -4.8759,1.18898 -5.83299,4.20452 -0.79656,2.50975 -9.96199,8.67586 -12.887,8.66983 -10.15111,-0.0209 -11.86861,0.86113 -9.51696,4.88769 3.95489,6.7717 12.08617,7.43707 20.68816,1.69289 z m -29.82126,-2.02795 c 2.14804,-2.62865 1.84627,-2.97022 -4.01874,-4.54871 -5.14639,-1.38508 -9.88301,-7.28011 -11.82363,-14.71528 -2.18509,-8.37179 -7.59099,-8.62555 -10.97962,-0.51541 -4.6645,11.16372 19.37572,28.89175 26.82199,19.7794 z m 150.52194,-5.97148 0,-7.47532 3.2813,-0.30122 c 5.7775,-0.53037 5.5039,-1.64863 -2.333,-9.53167 -11.7325,-11.80181 -7.7367,-17.19384 6.3516,-8.57084 5.675,3.47341 7.0045,3.88984 13.1017,4.10347 l 6.786,0.23776 0.3042,-3.73811 c 0.3813,-4.68499 1.5404,-6.10564 4.9816,-6.10564 3.2926,0 10.1829,-2.05756 10.1829,-3.04076 0,-0.39009 -3.498,-0.70924 -7.7733,-0.70924 -4.2754,0 -12.8183,-0.67398 -18.9844,-1.49774 -13.3042,-1.77737 -40.7423,-0.75645 -40.7423,1.51595 0,0.39277 2.63672,2.30058 5.85937,4.23958 8.65594,5.20807 16.52573,16.36721 11.54263,16.36721 -2.01659,0 -13.754,-2.7306 -16.6415,-3.87148 -2.06869,-0.81734 -2.85769,-0.68211 -4.39912,0.75402 -4.11619,3.83481 2.96343,12.48687 9.19725,11.2401 3.82987,-0.76597 5.48062,4.2e-4 7.21181,3.34818 6.12976,11.85366 12.07336,13.34812 12.07336,3.03575 z m -765.70308,-1.37129 c 8.42325,-5.13575 -4.05542,-30.01028 -15.05508,-30.01028 -5.86429,0 -8.23904,5.25531 -3.69492,8.17678 4.9996,3.21429 8.62543,9.67552 8.65776,15.42813 0.007,1.38114 0.64693,3.14397 1.42037,3.91741 0.77344,0.77344 1.40625,2.0692 1.40625,2.87946 0,2.05932 3.56068,1.86745 7.26562,-0.39151 z m -83.25241,-4.46341 c 1.58641,-5.71243 0.97558,-6.79687 -3.82851,-6.79687 -7.46996,0 -50.11403,-17.19124 -53.3097,-21.4909 -0.68227,-0.91797 -6.284925,-4.7591 -6.941597,-4.7591 -1.164037,0 -0.476156,2.8222 1.785347,7.32475 1.289062,2.56647 2.34375,5.2918 2.34375,6.05628 0,6.2897 6.29899,14.04774 14.83046,18.26566 7.63464,3.77454 6.46185,3.63268 39.2661,4.74971 l 4.87781,0.1661 0.97634,-3.51563 z m 380.20353,-5.05215 c 2.43053,-1.66543 3.35696,-3.45293 5.46623,-10.54688 6.00587,-20.19902 12.01703,-35.53176 15.16384,-38.67857 0.71562,-0.71563 2.24552,-2.98146 3.39979,-5.03521 1.15426,-2.05373 2.42802,-3.73406 2.83055,-3.73406 0.40253,0 1.20053,-0.87568 1.77333,-1.94596 1.22645,-2.29164 -0.91252,-1.45361 -4.25673,1.66776 -1.03125,0.96253 -2.81242,2.39956 -3.95814,3.19339 -7.96251,5.51696 -17.1046,24.97617 -18.67066,39.74106 -0.74981,7.06917 -1.69012,8.90625 -4.5587,8.90625 -2.69983,0 -3.51003,-1.41194 -5.11058,-8.90625 -3.51394,-16.45341 -6.56878,-23.12 -15.4653,-33.75 -2.58924,-3.09375 -4.81968,-5.80078 -4.95654,-6.01563 -1.84739,-2.90009 -0.50533,2.12273 1.76387,6.60147 5.10628,10.07836 5.4873,10.91669 5.4873,12.07337 0,0.61596 0.59887,2.44931 1.33084,4.07411 0.73195,1.6248 2.00912,5.76932 2.83814,9.21006 3.36147,13.95138 6.79328,21.61274 10.60843,23.68282 3.26952,1.77402 2.89386,1.80602 6.31433,-0.53773 z m 335.12,-4.20014 c 5.76946,-4.85468 6.84008,-9.3922 3.79771,-16.09549 -6.12031,-13.48495 -27.83676,-4.16877 -23.55967,10.10689 2.27456,7.59179 13.73084,11.06346 19.76196,5.9886 z m -706.70635,-2.81883 c 2.11122,-1.91063 1.64675,-2.8729 -6.36126,-13.1792 -9.76868,-12.5723 -15.38875,-14.45028 -27.25803,-9.10843 -11.16901,5.02669 -18.44523,5.11756 -20.28128,0.25329 -1.16378,-3.0832 -1.87652,-3.43144 -8.65333,-4.22793 -14.264097,-1.67645 10.46667,14.94155 31.01726,20.84227 25.42887,7.30143 28.81469,7.88332 31.53664,5.42 z m 735.07259,-2.92888 c 9.10854,-10.44223 -5.18568,-35.6494 -14.77684,-26.05823 -2.7902,2.79019 -2.89452,3.8875 -0.43087,4.53176 1.02865,0.269 2.15513,1.26742 2.50331,2.21872 0.34817,0.9513 1.61592,2.92216 2.81722,4.37969 1.73555,2.10571 2.1842,3.77495 2.1842,8.12645 0,8.40226 3.56272,11.54809 7.70298,6.80161 z m -715.58204,-0.34946 c 3.49648,-1.09932 4.80664,-1.70584 10.06727,-4.66057 3.94756,-2.21721 5.58218,-2.25254 6.76466,-0.14622 0.87718,1.56251 0.95114,1.56251 1.55314,0 0.79702,-2.0687 2.33817,-2.07329 5.91999,-0.0176 5.40845,3.10403 4.04046,-3.85791 -1.96506,-10.00049 -8.27582,-8.46472 -32.8429,2.91168 -31.75639,14.7056 0.13487,1.46407 4.9454,1.52501 9.41639,0.11928 z m 648.40215,-5.28989 c 2.246,-1.5597 4.16497,-5.52856 4.17351,-8.63175 0.009,-3.25675 4.7632,-10.64793 8.03667,-12.49423 3.8349,-2.16295 0.56756,-6.28154 -4.98327,-6.28154 -4.12855,0 -6.31131,1.54871 -11.81154,8.38052 -6.29515,7.81918 -5.25863,19.71576 1.71779,19.71576 1.03125,0 2.32132,-0.30993 2.86684,-0.68876 z M 406.21011,280.75843 c 2.35815,-1.48641 4.9959,-2.27001 13.11059,-3.89477 3.15542,-0.63178 5.49168,-3.69445 4.83085,-6.33288 -0.70059,-2.79716 1.22216,-4.65432 7.29599,-7.04706 5.67428,-2.23535 7.85181,-4.0239 6.85757,-5.63262 -0.59433,-0.96163 -8.16769,-4.7261 -9.50799,-4.7261 -0.37439,0 -1.45223,-0.69819 -2.39518,-1.55155 -1.60473,-1.45227 -1.71444,-1.43561 -1.71444,0.2604 0,0.99657 -0.84375,2.53439 -1.875,3.41737 -1.03125,0.88299 -1.875,2.19461 -1.875,2.91472 0,0.7201 -2.3359,3.57189 -5.19089,6.3373 -2.85499,2.7654 -6.67149,7.00972 -8.48113,9.43181 -1.80964,2.42209 -4.11899,4.66683 -5.1319,4.98831 -2.16907,0.68844 -4.64838,5.07699 -4.59838,8.13946 0.0326,1.99911 0.25428,1.9082 3.04688,-1.24963 1.65642,-1.87307 4.18903,-4.1477 5.62803,-5.05476 z M 390,286.99287 c 0,-5.83186 -8.24727,-17.6549 -17.36977,-24.90079 -3.85288,-3.06029 -7.00523,-6.11888 -7.00523,-6.79687 0,-1.44378 4.30133,-1.67849 5.16453,-0.28181 0.32323,0.52299 2.19375,1.77024 4.1567,2.77167 1.96297,1.00143 5.72808,3.99122 8.36692,6.64397 5.7544,5.78473 5.50066,6.27052 6.14918,-11.77279 0.5091,-14.16442 1.60215,-25.49472 3.21074,-33.28125 0.47933,-2.32031 1.34313,-6.50973 1.91955,-9.30982 1.06441,-5.17068 3.15746,-8.50268 5.3411,-8.50268 1.69945,0 2.64706,-1.85672 1.52188,-2.9819 -2.48582,-2.48583 -14.2681,12.12769 -14.2681,17.69669 0,3.5633 -2.19484,4.15992 -6.03853,1.64143 -6.6799,-4.37684 -6.73267,8.90397 -0.0875,22.0176 4.69259,9.26036 1.30356,12.38523 -5.93783,5.475 -10.07154,-9.61095 -12.31117,-10.5853 -12.31117,-5.35599 0,3.27013 -2.9033,6.50146 -5.85938,6.5214 -11.63724,0.0786 -13.72544,6.01527 -3.69428,10.50289 4.91803,2.20017 5.40021,3.26495 3.51821,7.76918 -2.85147,6.82455 -2.05128,7.75036 10.02458,11.59849 8.59307,2.7383 15.59831,6.02441 18.97962,8.90324 2.95536,2.51617 4.21875,3.008 4.21875,1.64234 z m 543.28125,-2.33803 c 15.43125,-1.3208 17.75372,-2.09739 24.82031,-8.29938 5.50331,-4.82988 9.06225,-10.31585 10.81313,-16.66796 0.78169,-2.83594 1.90959,-6.75095 2.5064,-8.70003 1.73175,-5.65564 -0.10809,-6.32236 -5.0054,-1.81386 -2.2396,2.06171 -7.55597,5.5277 -11.81419,7.70221 -4.25822,2.17449 -7.96753,4.31821 -8.24297,4.76382 -0.98794,1.59858 -23.67369,10.08018 -31.05937,11.61228 -4.09372,0.8492 -5.32674,2.61013 -4.58734,6.55141 1.24761,6.65037 1.33458,6.66906 22.56943,4.85151 z M 664.6875,280.53299 c 0,-6.19537 -2.68586,-10.78751 -10.63385,-18.18115 -5.62967,-5.23703 -6.43751,-6.35057 -5.01796,-6.91687 2.62735,-1.04811 7.84563,2.24236 13.12542,8.27644 6.23926,7.13063 6.3259,6.89919 6.31635,-16.87399 -0.008,-20.10994 -0.74678,-25.83823 -5.56646,-43.16555 -1.85872,-6.68233 -3.72503,-5.16781 -4.04344,3.28125 l -0.27381,7.26563 -4.36076,0 c -2.39843,0 -4.65663,0.28945 -5.01824,0.64324 -1.84341,1.80349 8.34951,24.20051 11.01368,24.20051 2.02535,0 4.45907,3.14938 4.45907,5.7703 0,3.26899 -1.58264,3.41148 -7.5,0.67522 C 652.66277,243.41573 643.30478,240 642.09732,240 c -0.40377,0 -0.86507,1.58203 -1.0251,3.51562 -0.25592,3.09207 -0.80661,3.798 -4.57096,5.85938 -10.29633,5.63834 -12.23466,9.00174 -6.43389,11.16416 1.50981,0.56284 3.98777,1.48688 5.50656,2.05342 2.26854,0.84622 2.81237,1.64106 3.04687,4.45312 0.28055,3.36431 0.38198,3.44472 5.91045,4.68534 10.18038,2.28455 18.28125,7.68428 18.28125,12.18558 0,0.59586 0.42187,1.08338 0.9375,1.08338 0.51562,0 0.9375,-2.01015 0.9375,-4.46701 z m -531.261,-8.63767 c 3.18574,-1.43755 8.0298,-2.91667 10.76459,-3.28694 6.51198,-0.88166 6.18314,-2.43472 -1.49812,-7.07543 -7.69011,-4.64604 -16.65824,-6.33651 -24.63526,-4.64367 -7.74156,1.64287 -11.70049,-0.86298 -6.26084,-3.96288 2.87355,-1.63754 22.65035,-1.66668 24.28125,-0.0358 1.35683,1.35682 4.20095,1.55255 4.94995,0.34065 0.44923,-0.72687 -3.31201,-6.71217 -14.24404,-22.66672 -4.49364,-6.55817 -9.60881,-16.58421 -12.1382,-23.79163 -1.25623,-3.57958 -2.81797,-7.58739 -3.47054,-8.90625 -0.65257,-1.31887 -1.93793,-5.67397 -2.85635,-9.67804 -2.74884,-11.98412 -3.65461,-10.16615 -3.1036,6.2292 0.53533,15.92847 0.36208,16.51966 -4.84121,16.51966 -2.807464,0 -2.500311,3.44794 0.75616,8.48833 4.1257,6.38578 6.13346,8.07636 13.79639,11.61685 10.31547,4.76604 10.10451,8.215 -0.55168,9.01922 -12.86326,0.97078 -20.153034,6.46283 -12.46041,9.38756 2.72543,1.03621 2.83064,4.42972 0.23948,7.72385 -6.270404,7.97153 -4.690351,10.32734 7.34415,10.94991 8.84948,0.4578 9.10367,0.53394 9.39622,2.81428 0.68292,5.32292 4.32639,5.56307 14.53206,0.95782 z m 795.39349,-8.13638 c 5.28068,-1.77777 11.84754,-3.81739 14.59292,-4.53248 3.61462,-0.94148 6.26793,-2.49776 9.61753,-5.64099 2.54418,-2.38745 6.31331,-5.41706 8.37581,-6.73248 10.74516,-6.85306 11.37197,-9.66549 2.154,-9.66549 -6.34744,0 -6.94087,0.18266 -9.89887,3.04687 -3.7501,3.6311 -11.30166,4.08451 -15.94163,0.95716 -10.08554,-6.79781 -14.57178,-6.79985 -24.77119,-0.0112 -4.79523,3.19164 -6.65882,5.22744 -12.22156,13.351 -8.08589,11.80821 6.34642,16.54878 28.09299,9.22769 z M 535.3125,254.53125 c 0,-7.8125 -0.3588,-12.65625 -0.9375,-12.65625 -1.0534,0 -1.25833,12.66202 -0.33002,20.39062 0.94051,7.83013 1.26752,5.83472 1.26752,-7.73437 z m 348.66381,10.40424 c 7.8315,-8.33624 -14.63849,-17.76749 -25.92944,-10.88326 -5.57503,3.39916 -0.39346,11.92963 6.14901,10.12317 3.43103,-0.94736 12.65622,0.45279 14.66349,2.22554 1.47939,1.30653 2.8932,0.90163 5.11694,-1.46545 z M 950.625,235.75183 c 0,-1.80545 -0.95325,-2.10072 -8.21709,-2.54528 -3.624,-0.2218 -5.53917,-0.0253 -5.00079,0.51307 3.34094,3.34098 13.21788,4.85952 13.21788,2.03221 z m -421.47322,-3.78755 c 3.12859,-3.12857 1.03671,-9.77678 -3.07628,-9.77678 -1.4965,0 -3.2461,-0.63281 -3.888,-1.40625 -0.6419,-0.77344 -2.3294,-1.40625 -3.75,-1.40625 -3.19985,0 -4.02712,-0.97714 -6.56102,-7.74959 -1.79615,-4.80062 -5.62648,-9.09511 -5.62648,-6.30828 0,0.55446 -1.72476,2.60069 -3.8328,4.54719 -3.74902,3.46171 -3.81098,3.6201 -2.83482,7.24528 2.81993,10.47245 23.54171,20.88239 29.5694,14.85468 z m 26.63738,-1.275 c 11.83968,-6.07951 16.48524,-19.38271 7.90743,-22.644 -2.85965,-1.08723 -3.29154,-0.70218 -4.87086,4.34263 -0.81518,2.60395 -1.96914,4.11927 -3.67864,4.8306 -4.09149,1.70248 -12.00759,3.2685 -14.8415,2.93604 -2.82925,-0.3319 -3.3323,2.00406 -1.77112,8.22429 1.25233,4.9897 9.80629,6.13509 17.25469,2.31044 z m 358.26418,-7.97229 c -0.0118,-8.50144 -6.59624,-23.02949 -10.43755,-23.02949 -0.53696,0 -2.04896,-0.84375 -3.35997,-1.875 -3.4147,-2.68599 -4.30625,-2.3641 -3.6177,1.30615 0.47733,2.54443 0.13996,3.72405 -1.68558,5.89359 -2.81353,3.34368 -2.37265,4.37162 4.99329,11.64205 4.49515,4.43687 5.49879,6.06047 6.49326,10.5042 l 1.17628,5.25616 3.22356,-1.53721 3.22357,-1.53721 -0.009,-6.62324 z m -230.58015,5.02883 c 1.1684,-2.18317 3.71431,-11.48643 3.71431,-13.57281 0,-2.25659 -3.57752,-5.11051 -6.40625,-5.11051 -3.945,0 -4.11002,0.79389 -0.9757,4.69412 2.46485,3.06717 2.73624,3.95094 2.05319,6.68575 -1.44907,5.80176 -0.31867,10.91549 1.61445,7.30345 z m 238.31125,-15.63645 c 1.89587,-2.14503 10.77424,-19.96328 15.74922,-31.60751 2.15793,-5.05086 4.75818,-10.59798 5.77828,-12.32694 2.63222,-4.46129 1.74075,-5.76208 -1.86788,-2.72559 -2.71359,2.28332 -3.48562,2.47323 -7.69879,1.89377 -2.69968,-0.3713 -4.68277,-0.27783 -4.68277,0.2207 0,0.4756 -1.28344,2.80238 -2.85208,5.17059 -2.75831,4.16429 -2.84452,4.61683 -2.6223,13.76518 0.35536,14.6289 -3.89475,16.71875 -9.99371,4.91406 -5.27843,-10.21654 -6.41715,-11.09089 -9.90367,-7.60437 -1.75543,1.75543 -2.62219,1.87425 -9.375,1.28519 -4.94331,-0.4312 -7.44074,-0.32174 -7.44074,0.32616 0,1.89712 5.76112,5.82939 8.5406,5.82939 5.5092,0 20.5219,11.13482 20.5219,15.22096 0,4.4717 3.71326,8.05252 5.84694,5.63841 z m -380.77351,-5.17856 c 12.70568,-8.56235 8.9108,-24.54751 -6.12357,-25.79428 -6.46297,-0.53596 -9.48612,0.7255 -13.40298,5.59265 -9.7059,12.06065 6.58979,28.91972 19.52655,20.20163 z m -38.08905,-4.55479 c 0.55016,-0.50252 0.46056,-0.81352 -0.23438,-0.81352 -1.63661,0 -1.38034,-3.45142 0.30428,-4.09786 1.48456,-0.56968 1.09653,-4.77189 -0.61282,-6.63652 -1.37079,-1.49529 -0.91163,-4.26562 0.70698,-4.26562 1.18047,0 1.40122,-0.61108 0.98055,-2.71442 -0.40746,-2.03729 -0.14436,-2.85309 1.05468,-3.27033 5.74813,-2.00018 10.07564,-7.14025 6.0115,-7.14025 -0.99952,0 -2.82342,-0.77942 -4.05311,-1.73204 -7.24676,-5.61393 -14.02215,0.19185 -16.65205,14.26899 -2.37876,12.73291 5.37196,22.90743 12.49436,16.40157 z m 73.66382,-3.2183 c 5.12426,-13.47782 -6.37733,-36.01062 -15.09229,-29.56737 -1.46712,1.08468 -3.04106,1.97215 -3.49765,1.97215 -1.28198,0 -4.01653,3.35423 -3.31031,4.06045 0.34488,0.34488 1.52047,0.62705 2.61242,0.62705 5.02401,0 8.26129,16.11475 3.59377,17.88934 -3.00643,1.14304 -1.31726,3.67316 2.4523,3.67316 1.36915,0 3.2118,0.84375 4.09478,1.875 2.47816,2.89427 7.966,2.57643 9.14698,-0.52978 z m -58.47792,-31.11085 c 1.4187,-5.3848 19.44854,-7.23395 22.73635,-2.33185 4.09594,6.10701 15.09337,2.00175 15.09337,-5.63424 0,-11.74162 -38.02493,-14.33083 -44.08791,-3.00206 -1.69832,3.17336 1.21216,12.60878 3.88936,12.60878 1.06512,0 2.1311,-0.73828 2.36883,-1.64063 z m -84.00576,-4.55502 c 3.57294,-3.42077 8.91945,-4.41686 9.90614,-1.84559 1.22288,3.18677 6.92934,1.64492 6.92934,-1.87226 0,-4.86888 12.59266,-13.83846 20.98412,-14.9467 8.44693,-1.11558 3.499,-3.65716 -6.66012,-3.42107 -9.89456,0.22993 -18.66673,3.91859 -25.97768,10.92349 -5.30408,5.08204 -6.61674,5.24532 -8.01867,0.99744 -1.12118,-3.39722 -0.15593,-6.74433 2.37827,-8.24682 0.65021,-0.38551 0.96665,-1.52517 0.70321,-2.53259 -0.31228,-1.19417 0.37066,-2.61912 1.96219,-4.09409 7.51319,-6.96299 -1.31842,-4.71075 -11.08195,2.82613 -5.7443,4.43427 -6.07883,5.41899 -2.47416,7.28304 l 2.87229,1.48532 0,8.25717 c 0,10.9364 1.50782,11.85894 8.47702,5.18653 z m 72.56028,-8.88721 c 1.63261,-2.46704 4.00168,-4.48098 6.64825,-5.65169 4.65618,-2.05965 5.70015,-3.22248 4.35726,-4.85339 -0.51212,-0.62194 -2.48992,-5.77144 -4.39514,-11.44331 -3.19744,-9.51888 -9.14882,-22.10694 -13.40293,-28.34922 -0.97015,-1.42355 -2.99007,-4.451374 -4.4887,-6.728486 C 491.83282,92.18716 476.61378,76.875 474.80341,76.875 c -1.5187,0 -1.43422,0.891086 0.97784,10.3125 0.72606,2.835937 1.54648,6.268718 1.82318,7.6284 0.39389,1.935497 1.21565,2.605828 3.78553,3.087938 2.58099,0.4842 3.40095,1.157943 3.83703,3.152852 0.30504,1.39538 0.71635,3.0625 0.91402,3.70471 0.55576,1.80558 -1.36605,11.40631 -3.38581,16.91439 -4.0047,10.92122 -2.58149,14.52795 10.98111,27.82862 10.56763,10.36354 9.67578,10.01164 12.92599,5.10023 z m 57.07449,-4.15387 c 1.23304,-1.81458 3.96154,-5.13397 6.06333,-7.37641 7.76573,-8.28543 9.35715,-20.74701 4.0545,-31.7487 -5.94356,-12.331444 -5.74053,-16.71691 0.87446,-18.888953 3.54731,-1.164765 3.42085,-0.502531 2.20709,-11.557813 l -0.64116,-5.839857 -2.63672,2.57788 c -1.4502,1.417835 -3.27283,4.100309 -4.0503,5.961055 -0.77747,1.860746 -2.41029,4.59426 -3.62849,6.074476 -1.99253,2.421099 -3.82299,6.698824 -12.37153,28.911942 -1.52083,3.95185 -2.84888,9.87845 -3.36124,15 -0.46586,4.65678 -1.06626,9.39499 -1.33422,10.52936 -0.38795,1.64233 0.15929,2.36928 2.68634,3.56844 1.74546,0.82828 4.14205,2.53687 5.32577,3.79688 2.89333,3.07981 4.16181,2.89206 6.81217,-1.0083 z m 74.86819,-1.20094 c -0.16571,-1.18604 -1.10566,-3.92823 -2.08879,-6.09375 -2.57638,-5.67498 -2.33781,-7.10153 1.45256,-8.68525 3.81803,-1.59527 3.76432,-1.47143 1.63971,-3.78051 -3.62612,-3.94095 -9.38816,-7.60353 -13.82721,-8.78913 -13.43435,-3.5881 -10.83552,-8.46369 4.51137,-8.46369 13.61279,0 19.47789,-3.22432 14.17002,-7.78996 -2.89381,-2.48915 -2.64025,-5.33504 0.47532,-5.33504 3.29879,0 12.62693,-10.24761 10.90007,-11.974477 -0.52144,-0.521431 -13.08382,4.714993 -15.76592,6.571768 -1.42127,0.983925 -5.03005,2.782809 -8.01949,3.997528 -2.98944,1.214721 -7.59084,3.609851 -10.22532,5.322511 -2.63449,1.71266 -6.78763,4.37955 -9.22918,5.92642 -2.44155,1.54688 -5.76249,3.65625 -7.37985,4.6875 -4.73457,3.01882 -3.02859,7.28557 3.56281,8.91077 9.8688,2.43327 10.90701,2.90223 12.27294,5.54366 0.7576,1.46502 2.86943,3.54397 4.69296,4.61988 2.38237,1.40563 3.31552,2.61233 3.31552,4.28746 0,1.28219 0.50335,3.436 1.11857,4.78626 0.90793,1.99267 0.8689,2.6093 -0.20723,3.27438 -1.47814,0.91355 -1.14305,1.40816 2.59718,3.83355 3.59267,2.3297 6.42249,1.93112 6.03395,-0.84988 z M 445.98817,129.16182 c 6.22074,-1.44626 6.22643,-2.6726 0.0275,-5.91365 -2.70703,-1.41535 -6.1875,-3.51936 -7.73437,-4.67558 -2.38863,-1.7854 -26.82442,-14.60705 -31.55772,-16.55858 -2.75782,-1.13705 -0.34228,4.58439 3.8604,9.14377 4.4776,4.85762 4.5414,5.2581 1.31434,8.25039 -5.06654,4.69796 3.59294,9.31605 17.20847,9.17723 4.23527,-0.0432 7.95158,0.32776 8.25845,0.8243 0.73786,1.19387 2.65922,1.13865 8.62298,-0.24788 z m 140.60767,-9.07386 c 2.43733,-7.77599 1.30643,-23.696038 -2.07155,-29.161717 -1.06936,-1.730264 -2.33679,-0.93549 -2.33679,1.465345 0,1.863565 -0.75161,2.705628 -3.40426,3.813978 -4.33531,1.811409 -4.08805,7.079724 0.76698,16.341754 2.38734,4.55439 3.10603,7.08226 3.10603,10.92501 0,6.05397 1.34277,4.90044 3.93959,-3.38437 z M 544.96741,86.324282 c 11.07636,-5.516935 11.0161,-5.445337 9.5469,-11.345536 -0.5155,-2.070189 -0.16917,-2.516783 2.77822,-3.582572 2.48974,-0.900306 4.33986,-2.714579 7.10023,-6.962692 4.43489,-6.825152 3.83203,-8.207265 -2.3811,-5.458901 -5.84758,2.586666 -7.94518,2.54809 -7.96351,-0.146456 -0.007,-1.160156 -0.42331,-2.742188 -0.92315,-3.515625 -0.74423,-1.151604 -0.91139,-1.047176 -0.92315,0.576695 -0.008,1.09062 -0.88872,3.094526 -1.95739,4.453125 -1.06868,1.358599 -1.70149,2.522914 -1.40625,2.587367 0.29523,0.06445 0.92351,0.169922 1.39617,0.234375 2.21794,0.302447 2.19806,1.875111 -0.047,3.716847 -2.38082,1.9531 -7.17234,7.427548 -12.06238,13.78162 -5.654,7.346736 -10.70658,19.595751 -5.35892,12.991677 0.935,-1.154666 6.42559,-4.453132 12.20133,-7.329924 z M 524.52787,75.234375 c -0.27186,-1.933594 -0.7182,-13.429688 -0.99186,-25.546875 -0.77984,-34.530027 -0.80403,-34.971715 -1.93613,-35.350655 -1.44599,-0.484006 -2.32091,1.854177 -3.58075,9.569405 l -1.07161,6.5625 -5.58314,0 -5.58313,0 0.21207,5.009512 c 0.22396,5.290188 1.88906,8.793611 7.46759,15.712043 6.09384,7.557512 2.28266,12.421554 -4.36156,5.566465 -2.99659,-3.091697 -10.85021,-6.719769 -11.61582,-5.366067 -0.19925,0.352301 -0.64774,2.222578 -0.99663,4.156172 -0.60783,3.368546 -0.79073,3.515625 -4.37199,3.515625 -5.12465,0 -10.38904,2.270531 -9.66132,4.166928 0.40038,1.043394 1.8603,1.458072 5.13326,1.458072 10.70836,0 31.90247,7.776476 34.88161,12.798655 1.4508,2.445723 2.55077,1.243002 2.05941,-2.25178 z"
     id="path3388"
     inkscape:connector-curvature="0" />
</svg>
