<?xml version="1.0" encoding="utf-8"?>

<!DOCTYPE svg PUBLIC "-//W3C//DTD SVG 1.1//EN" "http://www.w3.org/Graphics/SVG/1.1/DTD/svg11.dtd">
<svg version="1.1" id="Layer_1" xmlns="http://www.w3.org/2000/svg" xmlns:xlink="http://www.w3.org/1999/xlink" x="0px" y="0px"
	 viewBox="0 0 2560 1600" enable-background="new 0 0 2560 1600" xml:space="preserve">
<pattern  width="200" height="200" patternUnits="userSpaceOnUse" id="New_Pattern" viewBox="0 -200 200 200" overflow="visible">
	<g>
		<polygon fill="none" points="0,-200 200,-200 200,0 0,0 		"/>
		<path d="M121.0136-119.5166c0.5348-0.3617,1.0629-0.7304,1.5808-1.1091c4.0699-2.9765,7.3008-6.9164,11.0885-10.2178
			c3.1412-2.7379,6.6322-4.9181,10.6567-6.0797c5.434-1.5684,11.4177-1.6294,16.7417,0.304
			c-1.9334-5.324-1.8725-11.3077-0.304-16.7417c1.1616-4.0245,3.3418-7.5155,6.0797-10.6567
			c3.3014-3.7877,7.2413-7.0187,10.2178-11.0885c0.3788-0.5179,0.7475-1.046,1.1091-1.5808
			c-1.1647,0.7389-2.3595,1.4347-3.582,2.085c0.6504-1.2226,1.3461-2.4173,2.085-3.582c-0.5348,0.3617-1.0629,0.7304-1.5808,1.1091
			c-4.0699,2.9765-7.3008,6.9164-11.0885,10.2178c-3.1412,2.7378-6.6322,4.9181-10.6567,6.0797
			c-5.434,1.5684-11.4177,1.6294-16.7417-0.304c1.9334,5.324,1.8725,11.3077,0.304,16.7417
			c-1.1616,4.0246-3.3418,7.5155-6.0797,10.6567c-3.3014,3.7877-7.2413,7.0187-10.2178,11.0885
			c-0.3788,0.5179-0.7475,1.046-1.1091,1.5808c1.1647-0.7389,2.3594-1.4347,3.582-2.085
			C122.4482-121.876,121.7525-120.6813,121.0136-119.5166z M119.5166-78.9864c0.3617,0.5348,0.7304,1.0629,1.1091,1.5808
			c2.9765,4.0699,6.9164,7.3008,10.2178,11.0885c2.7379,3.1412,4.9181,6.6322,6.0797,10.6567
			c1.5684,5.434,1.6294,11.4177-0.304,16.7417c5.324-1.9334,11.3077-1.8725,16.7417-0.304
			c4.0245,1.1616,7.5155,3.3418,10.6567,6.0797c3.7877,3.3014,7.0187,7.2413,11.0885,10.2178
			c0.5179,0.3788,1.046,0.7475,1.5808,1.1091c-0.7389-1.1647-1.4347-2.3594-2.085-3.582c1.2226,0.6504,2.4173,1.3461,3.582,2.085
			c-0.3617-0.5348-0.7304-1.0629-1.1091-1.5808c-2.9765-4.0699-6.9164-7.3008-10.2178-11.0885
			c-2.7378-3.1412-4.9181-6.6322-6.0797-10.6567c-1.5684-5.434-1.6294-11.4177,0.304-16.7417
			c-5.324,1.9334-11.3077,1.8725-16.7417,0.304c-4.0246-1.1616-7.5155-3.3418-10.6567-6.0797
			c-3.7877-3.3014-7.0187-7.2413-11.0885-10.2178c-0.5179-0.3788-1.046-0.7475-1.5808-1.1091
			c0.7389,1.1647,1.4347,2.3594,2.085,3.582C121.876-77.5518,120.6813-78.2475,119.5166-78.9864z M78.9864-80.4834
			c-0.5348,0.3617-1.0629,0.7304-1.5808,1.1091c-4.0699,2.9765-7.3008,6.9164-11.0885,10.2178
			c-3.1412,2.7378-6.6322,4.9181-10.6567,6.0797c-5.434,1.5684-11.4177,1.6294-16.7417-0.304
			c1.9334,5.324,1.8725,11.3077,0.304,16.7417c-1.1616,4.0245-3.3418,7.5155-6.0797,10.6567
			c-3.3014,3.7877-7.2413,7.0187-10.2178,11.0885c-0.3788,0.5179-0.7475,1.046-1.1091,1.5808
			c1.1647-0.7389,2.3594-1.4347,3.582-2.085c-0.6504,1.2226-1.3461,2.4173-2.085,3.582c0.5348-0.3617,1.0629-0.7304,1.5808-1.1091
			c4.0699-2.9765,7.3008-6.9164,11.0885-10.2178c3.1412-2.7379,6.6322-4.9181,10.6567-6.0797
			c5.434-1.5684,11.4177-1.6294,16.7417,0.304c-1.9334-5.324-1.8725-11.3077-0.304-16.7417
			c1.1616-4.0245,3.3418-7.5155,6.0797-10.6567c3.3014-3.7877,7.2413-7.0187,10.2178-11.0885
			c0.3788-0.5179,0.7475-1.046,1.1091-1.5808c-1.1647,0.7389-2.3594,1.4347-3.582,2.085
			C77.5518-78.124,78.2475-79.3187,78.9864-80.4834z M80.4834-121.0136c-0.3617-0.5348-0.7304-1.0629-1.1091-1.5808
			c-2.9765-4.0699-6.9164-7.3008-10.2178-11.0885c-2.7378-3.1412-4.9181-6.6322-6.0797-10.6567
			c-1.5684-5.434-1.6294-11.4177,0.304-16.7417c-5.324,1.9334-11.3077,1.8725-16.7417,0.304
			c-4.0245-1.1616-7.5155-3.3418-10.6567-6.0797c-3.7877-3.3014-7.0187-7.2413-11.0885-10.2178
			c-0.5179-0.3788-1.046-0.7475-1.5808-1.1091c0.7389,1.1647,1.4347,2.3595,2.085,3.582c-1.2226-0.6504-2.4173-1.3461-3.582-2.085
			c0.3617,0.5348,0.7304,1.0629,1.1091,1.5808c2.9765,4.0699,6.9164,7.3008,10.2178,11.0885
			c2.7379,3.1412,4.9181,6.6322,6.0797,10.6567c1.5684,5.434,1.6294,11.4177-0.304,16.7417
			c5.324-1.9334,11.3077-1.8725,16.7417-0.304c4.0245,1.1616,7.5155,3.3418,10.6567,6.0797
			c3.7877,3.3014,7.0187,7.2413,11.0885,10.2178c0.5179,0.3788,1.046,0.7475,1.5808,1.1091
			c-0.7389-1.1647-1.4347-2.3594-2.085-3.582C78.124-122.4482,79.3187-121.7525,80.4834-121.0136z M194.49-191.5265
			c-4.2214,7.2333-7.7782,11.8869-7.7782,11.8869c-0.8695,1.5074-14.7568,18.155-17.5764,22.3392
			c-3.7203,5.5208-4.4512,12.8064-2.1231,18.8932c2.0564,5.1038,6.5641,8.2504,11.7244,9.8127
			c2.8707,0.8691,6.0775,1.2279,8.8821-0.0702c2.9074-1.3456,4.5212-4.2298,5.2278-7.2393c0.3796-1.858,0.4105-3.7975-0.353-5.5721
			c-0.1409-0.3273-0.3116-0.6373-0.5041-0.9308c-1.2021,1.6544-3.1992,2.6939-5.4312,2.5533
			c-3.1404-0.1978-5.6633-2.7693-5.8055-5.9127c-0.1564-3.4578,2.5146-6.328,5.8965-6.4947
			c2.0768-0.2987,4.3586,0.2904,6.2954,1.3528c4.2048,2.3065,6.7615,6.7126,7.0295,11.4619
			c0.2265,4.0133-1.0479,8.2443-3.3467,11.5259c-2.8266,4.0351-7.3579,6.3947-12.2636,6.573
			c-3.5043,0.1274-6.9461-0.7773-10.1507-2.14c1.3627,3.2046,2.2673,6.6463,2.14,10.1507c-0.1783,4.9057-2.538,9.4371-6.573,12.2636
			c-0.5532,0.3875-1.1335,0.746-1.7351,1.073c0.6016,0.327,1.1818,0.6855,1.7351,1.073c4.0351,2.8266,6.3947,7.358,6.573,12.2636
			c0.1274,3.5043-0.7773,6.9461-2.14,10.1507c3.2046-1.3627,6.6463-2.2673,10.1507-2.14c4.9057,0.1783,9.4371,2.538,12.2636,6.573
			c2.2988,3.2816,3.5732,7.5127,3.3467,11.5259c-0.268,4.7493-2.8247,9.1554-7.0295,11.4619
			c-1.9368,1.0624-4.2186,1.6515-6.2954,1.3528c-3.382-0.1667-6.053-3.0369-5.8965-6.4947
			c0.1422-3.1434,2.6651-5.7149,5.8055-5.9127c2.2319-0.1406,4.229,0.8989,5.4312,2.5533c0.1925-0.2935,0.3633-0.6035,0.5041-0.9308
			c0.7636-1.7745,0.7326-3.7141,0.353-5.5721c-0.7065-3.0096-2.3204-5.8937-5.2278-7.2393
			c-2.8046-1.298-6.0114-0.9393-8.8821-0.0702c-5.1603,1.5623-9.6681,4.7089-11.7244,9.8127
			c-2.3281,6.0868-1.5972,13.3723,2.1231,18.8932c2.8196,4.1842,16.7068,20.8317,17.5764,22.3392c0,0,3.5569,4.6536,7.7782,11.8869
			c1.1546,1.9784,2.232,4.0409,3.2105,6.1739c-2.133-0.9785-4.1956-2.0559-6.1739-3.2105
			c-7.2333-4.2214-11.8869-7.7782-11.8869-7.7782c-1.5074-0.8695-18.155-14.7568-22.3392-17.5764
			c-5.5208-3.7203-12.8064-4.4512-18.8932-2.1231c-5.1038,2.0564-8.2504,6.5642-9.8127,11.7244
			c-0.8691,2.8707-1.2279,6.0775,0.0702,8.8821c1.3456,2.9074,4.2298,4.5212,7.2393,5.2278
			c1.858,0.3796,3.7975,0.4105,5.5721-0.3531c0.3273-0.1408,0.6373-0.3116,0.9308-0.5041
			c-1.6544-1.2021-2.6939-3.1992-2.5533-5.4312c0.1978-3.1404,2.7693-5.6633,5.9127-5.8055
			c3.4578-0.1565,6.328,2.5146,6.4947,5.8965c0.2987,2.0768-0.2904,4.3586-1.3528,6.2954
			c-2.3065,4.2048-6.7126,6.7615-11.4619,7.0296c-4.0133,0.2265-8.2443-1.0479-11.5259-3.3467
			c-4.0351-2.8265-6.3947-7.3579-6.573-12.2636c-0.1274-3.5043,0.7773-6.9461,2.14-10.1507
			c-3.2046,1.3627-6.6463,2.2673-10.1507,2.14c-4.9057-0.1783-9.4371-2.538-12.2636-6.573c-0.3875-0.5532-0.746-1.1335-1.073-1.7351
			c-0.327,0.6016-0.6855,1.1818-1.073,1.7351c-2.8266,4.0351-7.358,6.3947-12.2636,6.573c-3.5043,0.1274-6.9461-0.7773-10.1507-2.14
			c1.3627,3.2046,2.2673,6.6463,2.14,10.1507c-0.1783,4.9057-2.538,9.4371-6.573,12.2636
			C68.798-1.0737,64.567,0.2006,60.5537-0.0258c-4.7493-0.268-9.1554-2.8247-11.4619-7.0296
			c-1.0624-1.9368-1.6515-4.2186-1.3528-6.2954c0.1667-3.382,3.0369-6.053,6.4947-5.8965c3.1434,0.1422,5.7149,2.6651,5.9127,5.8055
			c0.1406,2.2319-0.8989,4.229-2.5533,5.4312c0.2935,0.1925,0.6035,0.3633,0.9308,0.5041c1.7745,0.7636,3.7141,0.7326,5.5721,0.3531
			c3.0096-0.7065,5.8937-2.3204,7.2393-5.2278c1.298-2.8045,0.9393-6.0113,0.0702-8.8821
			c-1.5623-5.1603-4.7089-9.6681-9.8127-11.7244c-6.0868-2.3281-13.3723-1.5972-18.8932,2.1231
			c-4.1842,2.8196-20.8317,16.7068-22.3392,17.5764c0,0-4.6536,3.5569-11.8869,7.7782C6.4951-4.3554,4.4326-3.278,2.2995-2.2995
			C3.278-4.4326,4.3554-6.4951,5.51-8.4735c4.2214-7.2333,7.7782-11.8869,7.7782-11.8869
			c0.8695-1.5074,14.7568-18.155,17.5764-22.3392c3.7203-5.5208,4.4512-12.8064,2.1231-18.8932
			c-2.0564-5.1038-6.5642-8.2504-11.7244-9.8127c-2.8707-0.8691-6.0775-1.2279-8.8821,0.0702
			c-2.9074,1.3456-4.5212,4.2298-5.2278,7.2393c-0.3796,1.858-0.4105,3.7975,0.3531,5.5721
			c0.1408,0.3273,0.3116,0.6373,0.5041,0.9308c1.2021-1.6544,3.1992-2.6939,5.4312-2.5533
			c3.1404,0.1978,5.6633,2.7693,5.8055,5.9127c0.1565,3.4578-2.5146,6.328-5.8965,6.4947
			c-2.0768,0.2987-4.3586-0.2904-6.2954-1.3528c-4.2048-2.3065-6.7615-6.7126-7.0296-11.4619
			c-0.2265-4.0133,1.0479-8.2443,3.3467-11.5259c2.8265-4.0351,7.3579-6.3947,12.2636-6.573
			c3.5043-0.1274,6.9461,0.7773,10.1507,2.14c-1.3627-3.2046-2.2673-6.6463-2.14-10.1507c0.1783-4.9057,2.538-9.4371,6.573-12.2636
			c0.5532-0.3875,1.1335-0.746,1.7351-1.073c-0.6016-0.327-1.1818-0.6855-1.7351-1.073c-4.0351-2.8266-6.3947-7.358-6.573-12.2636
			c-0.1274-3.5043,0.7773-6.9461,2.14-10.1507c-3.2046,1.3627-6.6463,2.2673-10.1507,2.14
			c-4.9057-0.1783-9.4371-2.538-12.2636-6.573c-2.2988-3.2816-3.5732-7.5127-3.3467-11.5259
			c0.268-4.7493,2.8247-9.1554,7.0296-11.4619c1.9368-1.0624,4.2186-1.6516,6.2954-1.3528c3.382,0.1667,6.053,3.0369,5.8965,6.4947
			c-0.1422,3.1434-2.6651,5.7149-5.8055,5.9127c-2.2319,0.1406-4.229-0.8989-5.4312-2.5533
			c-0.1925,0.2935-0.3633,0.6035-0.5041,0.9308c-0.7636,1.7746-0.7326,3.7141-0.3531,5.5721
			c0.7065,3.0096,2.3204,5.8937,5.2278,7.2393c2.8045,1.298,6.0113,0.9393,8.8821,0.0702
			c5.1603-1.5623,9.6681-4.7089,11.7244-9.8127c2.3281-6.0868,1.5972-13.3723-2.1231-18.8932
			c-2.8196-4.1842-16.7068-20.8317-17.5764-22.3392c0,0-3.5569-4.6536-7.7782-11.8869c-1.1546-1.9784-2.232-4.0409-3.2105-6.1739
			c2.133,0.9785,4.1956,2.0559,6.1739,3.2105c7.2333,4.2214,11.8869,7.7782,11.8869,7.7782
			c1.5074,0.8695,18.155,14.7568,22.3392,17.5764c5.5208,3.7203,12.8064,4.4512,18.8932,2.1231
			c5.1038-2.0564,8.2504-6.5641,9.8127-11.7244c0.8691-2.8707,1.2279-6.0775-0.0702-8.8821
			c-1.3456-2.9074-4.2298-4.5212-7.2393-5.2278c-1.858-0.3796-3.7975-0.4105-5.5721,0.353
			c-0.3273,0.1409-0.6373,0.3116-0.9308,0.5041c1.6544,1.2021,2.6939,3.1992,2.5533,5.4312
			c-0.1978,3.1404-2.7693,5.6633-5.9127,5.8055c-3.4578,0.1564-6.328-2.5146-6.4947-5.8965
			c-0.2987-2.0768,0.2904-4.3586,1.3528-6.2954c2.3065-4.2048,6.7126-6.7615,11.4619-7.0295
			c4.0133-0.2265,8.2443,1.0479,11.5259,3.3467c4.0351,2.8266,6.3947,7.3579,6.573,12.2636
			c0.1274,3.5043-0.7773,6.9461-2.14,10.1507c3.2046-1.3627,6.6463-2.2673,10.1507-2.14c4.9057,0.1783,9.4371,2.538,12.2636,6.573
			c0.3875,0.5532,0.746,1.1335,1.073,1.7351c0.327-0.6016,0.6855-1.1818,1.073-1.7351c2.8266-4.0351,7.358-6.3947,12.2636-6.573
			c3.5043-0.1274,6.9461,0.7773,10.1507,2.14c-1.3627-3.2046-2.2673-6.6463-2.14-10.1507c0.1783-4.9057,2.538-9.4371,6.573-12.2636
			c3.2816-2.2988,7.5127-3.5732,11.5259-3.3467c4.7493,0.268,9.1554,2.8247,11.4619,7.0295
			c1.0624,1.9368,1.6516,4.2186,1.3528,6.2954c-0.1667,3.382-3.0369,6.053-6.4947,5.8965
			c-3.1434-0.1422-5.7149-2.6651-5.9127-5.8055c-0.1406-2.2319,0.8989-4.229,2.5533-5.4312
			c-0.2935-0.1925-0.6035-0.3633-0.9308-0.5041c-1.7746-0.7636-3.7141-0.7326-5.5721-0.353
			c-3.0096,0.7065-5.8937,2.3204-7.2393,5.2278c-1.298,2.8046-0.9393,6.0114-0.0702,8.8821
			c1.5623,5.1603,4.7089,9.6681,9.8127,11.7244c6.0868,2.3281,13.3723,1.5972,18.8932-2.1231
			c4.1842-2.8196,20.8317-16.7068,22.3392-17.5764c0,0,4.6536-3.5569,11.8869-7.7782c1.9784-1.1546,4.0409-2.232,6.1739-3.2105
			C196.722-195.5674,195.6446-193.5049,194.49-191.5265z M95.2441-146.7922c-1.9368,1.0624-4.2186,1.6515-6.2954,1.3528
			c-3.382-0.1667-6.053-3.0369-5.8966-6.4947c0.1422-3.1434,2.6651-5.7149,5.8055-5.9127c2.2319-0.1406,4.229,0.8989,5.4312,2.5533
			c0.1925-0.2935,0.3633-0.6035,0.5041-0.9308c0.7636-1.7745,0.7326-3.7141,0.3531-5.5721
			c-0.7065-3.0096-2.3204-5.8937-5.2278-7.2393c-2.8046-1.298-6.0114-0.9393-8.8821-0.0702
			c-5.1603,1.5623-9.6681,4.7089-11.7244,9.8127c-2.3281,6.0867-1.5972,13.3723,2.1231,18.8932
			c2.8196,4.1842,16.7068,20.8317,17.5764,22.3392c0,0,3.5569,4.6536,7.7782,11.8869c1.1546,1.9784,2.232,4.0409,3.2105,6.1739
			c-2.133-0.9785-4.1956-2.0559-6.1739-3.2105c-7.2333-4.2214-11.8869-7.7782-11.8869-7.7782
			c-1.5074-0.8695-18.155-14.7568-22.3392-17.5764c-5.5208-3.7203-12.8064-4.4512-18.8932-2.1231
			c-5.1038,2.0564-8.2504,6.5642-9.8127,11.7244c-0.8691,2.8707-1.2279,6.0775,0.0702,8.8821
			c1.3456,2.9074,4.2297,4.5212,7.2393,5.2278c1.858,0.3796,3.7975,0.4105,5.5721-0.3531c0.3273-0.1408,0.6373-0.3116,0.9308-0.5041
			c-1.6544-1.2021-2.6939-3.1992-2.5533-5.4312c0.1978-3.1404,2.7693-5.6633,5.9127-5.8055
			c3.4578-0.1564,6.328,2.5146,6.4947,5.8966c0.2987,2.0768-0.2904,4.3586-1.3528,6.2954
			c-1.0797,1.9683-2.6195,3.5755-4.4393,4.7559c1.8197,1.1803,3.3595,2.7875,4.4393,4.7559
			c1.0624,1.9368,1.6515,4.2186,1.3528,6.2954c-0.1667,3.382-3.0369,6.053-6.4947,5.8966
			c-3.1434-0.1422-5.7149-2.6651-5.9127-5.8055c-0.1406-2.2319,0.8989-4.229,2.5533-5.4312
			c-0.2935-0.1925-0.6035-0.3633-0.9308-0.5041c-1.7745-0.7636-3.7141-0.7326-5.5721-0.3531
			c-3.0096,0.7065-5.8937,2.3204-7.2393,5.2278c-1.298,2.8046-0.9393,6.0114-0.0702,8.8821
			c1.5623,5.1603,4.7089,9.6681,9.8127,11.7244c6.0868,2.3281,13.3723,1.5972,18.8932-2.1231
			c4.1842-2.8196,20.8317-16.7068,22.3392-17.5764c0,0,4.6536-3.5569,11.8869-7.7782C95.8044-97.9441,97.867-99.0215,100-100
			c-0.9785,2.133-2.0559,4.1956-3.2105,6.1739c-4.2214,7.2333-7.7782,11.8869-7.7782,11.8869
			C88.1417-80.4317,74.2545-63.7842,71.4349-59.6c-3.7203,5.5208-4.4512,12.8064-2.1231,18.8932
			c2.0563,5.1038,6.5641,8.2504,11.7244,9.8127c2.8707,0.8691,6.0775,1.2279,8.8821-0.0702
			c2.9074-1.3456,4.5212-4.2297,5.2278-7.2393c0.3796-1.858,0.4105-3.7975-0.3531-5.5721
			c-0.1408-0.3273-0.3116-0.6373-0.5041-0.9308c-1.2021,1.6544-3.1992,2.6939-5.4312,2.5533
			c-3.1404-0.1978-5.6633-2.7693-5.8055-5.9127c-0.1564-3.4578,2.5146-6.328,5.8966-6.4947
			c2.0768-0.2987,4.3586,0.2904,6.2954,1.3528c1.9683,1.0797,3.5755,2.6195,4.7559,4.4393
			c1.1803-1.8197,2.7875-3.3595,4.7559-4.4393c1.9368-1.0624,4.2186-1.6515,6.2954-1.3528c3.382,0.1667,6.053,3.0369,5.8966,6.4947
			c-0.1422,3.1434-2.6651,5.7149-5.8055,5.9127c-2.2319,0.1406-4.229-0.8989-5.4312-2.5533
			c-0.1925,0.2935-0.3633,0.6035-0.5041,0.9308c-0.7636,1.7745-0.7326,3.7141-0.3531,5.5721
			c0.7065,3.0096,2.3204,5.8937,5.2278,7.2393c2.8046,1.298,6.0114,0.9393,8.8821,0.0702
			c5.1603-1.5623,9.6681-4.7089,11.7244-9.8127c2.328-6.0868,1.5972-13.3723-2.1231-18.8932
			c-2.8196-4.1842-16.7068-20.8317-17.5764-22.3392c0,0-3.5569-4.6536-7.7782-11.8869C102.0559-95.8044,100.9785-97.867,100-100
			c2.133,0.9785,4.1956,2.0559,6.1739,3.2105c7.2333,4.2214,11.8869,7.7782,11.8869,7.7782
			c1.5074,0.8695,18.155,14.7568,22.3392,17.5764c5.5208,3.7203,12.8064,4.4512,18.8932,2.1231
			c5.1038-2.0563,8.2504-6.5641,9.8127-11.7244c0.8691-2.8707,1.2279-6.0775-0.0702-8.8821
			c-1.3456-2.9074-4.2298-4.5212-7.2393-5.2278c-1.858-0.3796-3.7975-0.4105-5.5721,0.3531
			c-0.3273,0.1408-0.6373,0.3116-0.9308,0.5041c1.6544,1.2021,2.6939,3.1992,2.5533,5.4312
			c-0.1978,3.1404-2.7693,5.6633-5.9127,5.8055c-3.4578,0.1564-6.328-2.5146-6.4947-5.8966
			c-0.2987-2.0768,0.2904-4.3586,1.3528-6.2954c1.0797-1.9683,2.6195-3.5755,4.4393-4.7559
			c-1.8197-1.1803-3.3596-2.7875-4.4393-4.7559c-1.0624-1.9368-1.6515-4.2186-1.3528-6.2954
			c0.1667-3.382,3.0369-6.053,6.4947-5.8966c3.1434,0.1422,5.7149,2.6651,5.9127,5.8055c0.1406,2.2319-0.8989,4.229-2.5533,5.4312
			c0.2935,0.1925,0.6035,0.3633,0.9308,0.5041c1.7745,0.7636,3.7141,0.7326,5.5721,0.3531
			c3.0096-0.7065,5.8937-2.3204,7.2393-5.2278c1.298-2.8046,0.9393-6.0114,0.0702-8.8821
			c-1.5623-5.1603-4.7089-9.6681-9.8127-11.7244c-6.0867-2.328-13.3723-1.5972-18.8932,2.1231
			c-4.1842,2.8196-20.8317,16.7068-22.3392,17.5764c0,0-4.6536,3.5569-11.8869,7.7782c-1.9784,1.1546-4.0409,2.232-6.1739,3.2105
			c0.9785-2.133,2.0559-4.1956,3.2105-6.1739c4.2214-7.2333,7.7782-11.8869,7.7782-11.8869
			c0.8695-1.5074,14.7568-18.155,17.5764-22.3392c3.7203-5.5208,4.4512-12.8064,2.1231-18.8932
			c-2.0564-5.1038-6.5642-8.2504-11.7244-9.8127c-2.8707-0.8691-6.0775-1.2279-8.8821,0.0702
			c-2.9074,1.3456-4.5212,4.2298-5.2278,7.2393c-0.3796,1.858-0.4105,3.7975,0.3531,5.5721
			c0.1408,0.3273,0.3116,0.6373,0.5041,0.9308c1.2021-1.6544,3.1992-2.6939,5.4312-2.5533
			c3.1404,0.1978,5.6633,2.7693,5.8055,5.9127c0.1564,3.4578-2.5146,6.328-5.8966,6.4947
			c-2.0768,0.2987-4.3586-0.2904-6.2954-1.3528c-1.9683-1.0797-3.5755-2.6195-4.7559-4.4393
			C98.8197-149.4118,97.2125-147.872,95.2441-146.7922z"/>
	</g>
</pattern>
<rect fill="url(#New_Pattern)" width="2560" height="1600"/>
</svg>
