<?xml version="1.0" encoding="utf-8"?>

<!DOCTYPE svg PUBLIC "-//W3C//DTD SVG 1.1//EN" "http://www.w3.org/Graphics/SVG/1.1/DTD/svg11.dtd">
<svg version="1.1" id="Layer_1" xmlns="http://www.w3.org/2000/svg" xmlns:xlink="http://www.w3.org/1999/xlink" x="0px" y="0px"
	 viewBox="0 0 1656.6675 1624.9393" enable-background="new 0 0 1656.6675 1624.9393" xml:space="preserve">
<g>
	<circle fill="#2E3436" cx="787.9279" cy="660.3996" r="28.0709"/>
	<circle fill="#2E3436" cx="664.7781" cy="757.944" r="28.0709"/>
	<circle fill="#2E3436" cx="664.259" cy="915.0443" r="28.0709"/>
	<circle fill="#2E3436" cx="786.761" cy="1013.4006" r="28.0709"/>
	<circle fill="#2E3436" cx="940.038" cy="978.9488" r="28.0709"/>
	<circle fill="#2E3436" cx="1008.6691" cy="837.6317" r="28.0709"/>
	<circle fill="#2E3436" cx="940.9738" cy="695.8639" r="28.0709"/>
	<circle fill="#2E3436" cx="865.3511" cy="659.9661" r="28.0709"/>
	<circle fill="#2E3436" cx="712.7119" cy="697.1418" r="28.0709"/>
	<circle fill="#2E3436" cx="646.6081" cy="839.6587" r="28.0709"/>
	<circle fill="#2E3436" cx="716.8171" cy="980.1985" r="28.0709"/>
	<circle fill="#2E3436" cx="870.4703" cy="1012.932" r="28.0709"/>
	<circle fill="#2E3436" cx="991.8635" cy="913.2102" r="28.0709"/>
	<circle fill="#2E3436" cx="989.5853" cy="756.1255" r="28.0709"/>
	<polygon fill="#2E3436" points="603.4133,253.7677 603.4154,253.766 603.4135,253.7672 	"/>
	<polygon fill="#2E3436" points="231.8176,648.6725 231.8176,648.6698 231.8174,648.6721 	"/>
	<polygon fill="#2E3436" points="308.8806,1185.4169 308.8784,1185.4152 308.88,1185.4167 	"/>
	<polygon fill="#2E3436" points="776.5721,1459.8212 776.5695,1459.8219 776.5717,1459.8215 	"/>
	<polygon fill="#2E3436" points="1282.7109,1265.2535 1282.7098,1265.2561 1282.7111,1265.2542 	"/>
	<polygon fill="#2E3436" points="1446.1643,748.2274 1446.1655,748.2297 1446.1648,748.2276 	"/>
	<polygon fill="#2E3436" points="1143.8484,298.0738 1143.8511,298.0743 1143.8489,298.0736 	"/>
	<polygon fill="#2E3436" points="1045.3013,251.2938 1045.2992,251.2921 1045.301,251.2933 	"/>
	<polygon fill="#2E3436" points="505.3961,301.6482 505.3934,301.6487 505.3956,301.648 	"/>
	<polygon fill="#2E3436" points="208.1393,755.1584 208.1381,755.1609 208.1389,755.1587 	"/>
	<polygon fill="#2E3436" points="377.3714,1270.3221 377.3726,1270.3246 377.3713,1270.3226 	"/>
	<polygon fill="#2E3436" points="885.6571,1459.2104 885.6597,1459.2112 885.6574,1459.2108 	"/>
	<polygon fill="#2E3436" points="1350.2468,1179.5867 1350.249,1179.5851 1350.2474,1179.5867 	"/>
	<polygon fill="#2E3436" points="1421.2952,642.0132 1421.2953,642.0105 1421.2955,642.0128 	"/>
	<path fill="#2E3436" d="M1179.0027,867.4156l0.0032,0.0002c41.152-12.6024,113.1855,2.2607,128.4871-21.6691
		c-14.8575,5.8094-102.2125-46.1304-140.2532-34.4819c-27.1133,8.3032-33.3838,37.3234-38.8821,63.0019
		c-5.4312-17.5933-15.6042-39.6137-5.8811-69.7465c4.2612-13.2098,11.45-27.1192,19.8477-41.1699
		c-13.7626-8.8621-26.3792-18.1343-36.0618-28.0792c-22.0897-22.684-22.7499-46.9319-25.6938-65.1075
		c16.3267,20.5683,34.8287,43.7883,62.8098,39.1916c39.2578-6.4503,94.4742-91.772,110.3665-93.1623
		c-24.3345-14.6494-82.2821,30.6476-124.7512,37.6244l-0.0027,0.0015c-27.4462,4.509-42.7866-11.3304-56.1287-14.6083
		c-0.3806-13.7335-12.6155-32.0781-2.4011-57.9487l0.002-0.0024c15.8049-40.0313,72.3376-87.0825,63.1688-113.9657
		c-4.7216,15.2383-99.7947,51.1511-114.4056,88.1553c-10.4132,26.3749,8.3663,49.3712,25.0143,69.6803
		c-17.1411-6.7231-40.7005-12.4988-58.1968-38.8882c-7.671-11.5677-14.0637-25.8605-19.8131-41.1866
		c-15.5094,5.2346-30.6251,9.3174-44.4374,10.6871c-31.5078,3.1272-50.8771-11.475-66.9229-20.5057
		c26.2605,0.0594,55.9504,0.0715,69.8025-24.6711c19.4338-34.7147-12.8464-131.0818-4.0249-144.3737
		c-26.6256,9.8917-27.3408,83.4392-48.3652,120.9929l-0.0005,0.0031c-13.587,24.2695-35.5354,26.3875-46.4167,34.7749
		c-10.9746-8.2651-32.9453-10.1371-46.8032-34.2531l-0.0006-0.0031c-21.4435-37.3159-22.9821-110.8508-49.7169-120.4438
		c8.97,13.1923-22.2294,109.9149-2.4081,144.4098c14.1283,24.5859,43.8163,24.2415,70.0743,23.8879
		c-15.9436,9.2098-35.1482,24.028-66.6891,21.2537c-13.8268-1.2149-28.9872-5.1283-44.5542-10.189
		c-5.5774,15.3895-11.8097,29.753-19.3507,41.4059c-17.1998,26.5836-40.6929,32.6228-57.7577,39.5374
		c16.4196-20.4942,34.9403-43.6993,24.2325-69.956c-15.0243-36.8383-110.4936-71.6843-115.3854-86.8688
		c-8.8671,26.9842,48.1887,73.3994,64.4409,113.2513l0.0022,0.0023c10.5032,25.7546-1.5255,44.235-1.7524,57.972
		c-13.3044,3.4271-28.4666,19.4373-55.9614,15.2358l-0.0028-0.0015c-42.5445-6.5009-100.9957-51.1462-125.1647-36.2252
		c15.9069,1.2123,72.0751,85.9105,111.4027,91.9207c28.0308,4.2831,46.2716-19.1426,62.367-39.8924
		c-2.7402,18.2074-3.1289,42.4611-24.9633,65.3911c-9.5707,10.0527-22.0826,19.4656-35.7451,28.4812
		c8.5546,13.9558,15.8986,27.7839,20.3074,40.9451c10.0599,30.022,0.134,52.155-5.0998,69.8079
		c-5.7855-25.6153-12.3805-54.5635-39.585-62.5626c-38.1688-11.2219-124.9367,41.6929-139.8584,36.0501
		c15.5685,23.757,87.4312,8.0884,128.7216,20.2291l0.0032-0.0002c26.6845,7.8459,33.6332,28.7728,44.2317,37.5149
		c-5.6158,12.5386-2.5519,34.3751-22.9795,53.2518l-0.0029,0.0012c-31.6087,29.2095-102.9575,47.0726-106.361,75.2717
		c10.8655-11.6805,112.1055-2.7863,141.3249-29.7864c20.8256-19.2449,13.8837-48.1119,7.696-73.6331
		c12.5267,13.4946,31.2468,28.9203,35.5605,60.2877c1.8923,13.7505,1.4506,29.4016-0.0192,45.7045
		c16.2448,2.0131,31.6349,4.8929,44.6737,9.6519c29.7444,10.8533,40.8599,32.4133,51.3983,47.5117
		c-23.6342-11.4475-50.3785-24.3403-73.5942-8.0583c-32.5714,22.8448-45.2999,123.6746-59.0152,131.8225
		c28.2808,2.6404,60.8361-63.3134,96.0724-88.0259l0.0017-0.0026c22.7717-15.9709,43.4655-8.3561,56.9084-11.1917
		c6.3018,12.2084,25.2844,23.4276,27.3064,51.1681l-0.0007,0.0031c3.1292,42.9244-27.3901,109.8446-7.4653,130.0875
		c-2.3577-15.7778,67.7183-89.385,64.8267-129.064c-2.0616-28.281-28.959-40.8519-52.7701-51.9264
		c18.3607-1.38,42.0928-6.3982,69.3064,9.7864c11.9303,7.0939,23.8915,17.1974,35.7212,28.5112
		c11.7023-11.4454,23.5494-21.6825,35.3998-28.9093c27.0306-16.4883,50.8174-11.7362,69.1924-10.5619
		c-23.6855,11.3405-50.4406,24.2115-52.1854,52.514c-2.4471,39.709,68.4486,112.5267,66.2677,128.33
		c19.697-20.4646-11.5698-87.0389-8.9214-129.9957l-0.0009-0.0031c1.7113-27.7614,20.5673-39.1925,26.7318-51.4706
		c13.4739,2.6848,34.0811-5.1613,57.0302,10.5537l0.0018,0.0026c35.5108,24.3165,68.8026,89.9015,97.0521,86.9447
		c-13.8057-7.9939-27.6622-108.6748-60.4874-131.1536c-23.3966-16.021-49.9951-2.8296-73.4995,8.8818
		c10.3687-15.2153,21.2422-36.8987,50.8631-48.0841c12.9846-4.9047,28.3417-7.9567,44.5629-10.1515
		c-1.6522-16.2855-2.2692-31.9306-0.5309-45.7014c3.9623-31.4138,22.5084-47.0481,34.8833-60.6821
		c-5.9016,25.5888-12.5199,54.5317,8.5199,73.5422c29.5199,26.6714,130.6539,16.644,141.6497,28.2023
		c-3.719-28.1592-75.2633-45.2224-107.1971-74.076l-0.0029-0.0012c-20.6377-18.6469-17.8185-40.5162-23.5743-52.9912
		C1145.6937,896.5632,1152.4077,875.5599,1179.0027,867.4156z M1115.4341,901.0789
		c-31.8378,20.5735-96.545,29.5582-113.0491,73.7237c-39.093,26.3574-32.7253,91.3743-45.2988,127.1349
		c-0.094-0.2053-0.1892-0.4102-0.2833-0.6155c-0.0405,0.0156-0.0779,0.0337-0.1205,0.0438
		c0.1062,0.2045,0.2112,0.4094,0.3175,0.6138c-35.9357-12.0643-83.3043-57.0526-128.1244-42.4193
		c-44.9812-14.1305-91.8433,31.3853-127.6414,43.8513c0.0796-0.1572,0.158-0.3147,0.2374-0.4719
		c-0.0375-0.0153-0.077-0.0232-0.1127-0.0431c-0.0703,0.1581-0.1415,0.3157-0.2117,0.4738
		c-12.9731-35.6177-7.3337-100.7017-46.7195-126.6197c-16.9976-43.978-81.8013-52.2375-113.8674-72.4533
		c0.2151-0.0447,0.4298-0.0907,0.6449-0.1354c-0.0148-0.0406-0.0292-0.0791-0.0386-0.1205
		c-0.2094,0.0546-0.4189,0.1078-0.6282,0.1624c19.7583-32.35,74.1591-68.5203,69.8661-115.4729
		c23.7855-40.709-10.1613-96.5244-14.3489-134.199c0.1995,0.1656,0.3999,0.3299,0.5996,0.4954
		c0.0313-0.0328,0.0608-0.0646,0.0964-0.0925c-0.2125-0.1591-0.424-0.3194-0.6365-0.4784
		c37.6113-4.7222,99.8086,15.2582,133.8411-17.3727c46.6577-6.7854,69.1304-68.1263,95.9746-94.8901
		c-0.0046,0.2374-0.0078,0.4747-0.0125,0.7122c0.0436,0.0062,0.0864,0.0039,0.1295,0.0162c-0.0074-0.243-0.0133-0.486-0.0209-0.7289
		c27.1422,26.4615,50.3003,87.547,97.031,93.8096c34.3955,32.2478,96.3654,11.5721,134.0273,15.873
		c-0.2031,0.1555-0.4052,0.3123-0.6083,0.468c0.0304,0.0323,0.0669,0.0572,0.092,0.0944c0.1919-0.1629,0.3848-0.3246,0.5767-0.4875
		c-3.7656,37.7192-37.0854,93.9111-12.8455,134.3513c-3.7671,46.9977,51.0354,82.5566,71.1545,114.6833
		c-0.1782-0.0444-0.3568-0.088-0.5352-0.132c-0.0076,0.0406-0.0127,0.0797-0.025,0.1188
		C1115.0745,901.0076,1115.2542,901.0436,1115.4341,901.0789z"/>
	<path fill="#2E3436" d="M549.3764,269.152c0.1526-0.2695,0.3035-0.54,0.4524-0.8116c0.3057,0.0496,0.6118,0.0969,0.9182,0.1422
		c11.2532,1.6614,22.9368,0.3935,33.5795-3.6193c6.9247-2.6109,13.3824-6.3787,19.0905-11.0877
		c-3.2528,2.042-6.6953,3.7819-10.2889,5.1369c-9.1378,3.4454-19.172,4.5136-28.8331,3.0871
		c-7.5079-1.1086-14.7852-3.735-21.2947-7.6382c-0.9227,7.5337-3.3244,14.8883-7.0651,21.4917
		c-4.8134,8.4971-11.824,15.7551-20.1586,20.8448c-3.2778,2.0016-6.7663,3.6474-10.3765,4.9579
		c7.2231-1.6077,14.1645-4.3853,20.4804-8.2423C535.5875,287.4857,543.7695,279.0495,549.3764,269.152z"/>
	<path fill="#2E3436" d="M325.2946,706.5068c10.9744,7.0308,24.8209,9.7585,37.4688,6.6113
		c7.2747-1.8101,14.0707-5.4957,19.551-10.6109c5.4799-5.1153,9.6277-11.6569,11.9333-18.7899
		c1.5001-4.6407,2.2123-9.5165,2.1313-14.3924c-0.2845,2.5151-0.8025,5.0037-1.5811,7.4124
		c-1.9794,6.124-5.5523,11.7335-10.2571,16.1253c-4.7047,4.3917-10.5474,7.554-16.7928,9.1078
		c-10.8587,2.7019-22.7208,0.3649-32.1422-5.6706c-9.4221-6.0364-16.405-15.5801-19.9631-26.1891
		c-3.5576-10.6093-3.7792-22.2186-1.3616-33.1442c2.4175-10.9257,7.4138-21.1791,13.9414-30.267
		c10.5255-14.6542,25.0258-26.315,41.2778-34.1493c16.2525-7.834,34.2213-11.8972,52.2488-12.614
		c24.0224-0.9551,47.8443,3.9814,70.3779,12.602c-13.6423-19.8989-24.0031-41.9103-28.6817-65.4921
		c-3.511-17.6968-3.7545-36.1176,0.0695-53.7498c3.8243-17.6318,11.7781-34.4535,23.5707-48.1088
		c7.3132-8.4686,16.1171-15.7203,26.1766-20.6213c10.0594-4.9011,21.3999-7.3956,32.5465-6.4127
		c11.1466,0.9835,22.0565,5.5457,30.1255,13.2985c8.068,7.7523,13.1093,18.7412,13.0167,29.9306
		c-0.0532,6.4356-1.7642,12.8551-4.9365,18.455c-3.1722,5.6-7.7927,10.3835-13.2855,13.7377
		c-2.1603,1.3193-4.4594,2.4039-6.8385,3.2676c4.76-1.0594,9.335-2.8901,13.4973-5.4319
		c6.3977-3.907,11.7904-9.4671,15.4854-15.9896c3.6946-6.5229,5.692-13.9915,5.754-21.4878
		c0.108-13.0332-5.7764-25.8604-15.1747-34.8906c-9.3979-9.0305-22.0989-14.3199-35.082-15.4647
		c-12.9833-1.1447-26.1802,1.7454-37.8973,7.4539c-7.3228,3.5674-14.0953,8.1985-20.2131,13.5869l0.0024,0.0024
		c-3.6706,3.233-7.0972,6.7457-10.2917,10.4448c-13.7346,15.9049-22.9927,35.4848-27.4468,56.0221
		c-4.4541,20.5375-4.1762,42.0019-0.0863,62.6149c2.4959,12.5811,6.3859,24.7752,11.3917,36.5261
		c-12.5948-2.1246-25.3601-3.0607-38.1762-2.5509c-20.9982,0.8346-41.9346,5.5746-60.8649,14.6996
		c-18.9303,9.125-35.8082,22.6977-48.0678,39.7654c-2.8513,3.9697-5.4672,8.1216-7.754,12.4455l-0.0029-0.0018
		c-3.8115,7.2065-6.7338,14.873-8.4933,22.8262c-2.8157,12.7259-2.5456,26.2328,1.5981,38.5903
		C306.2119,688.361,314.3199,699.4764,325.2946,706.5068z"/>
	<path fill="#2E3436" d="M335.9035,1234.6755c-0.2967-0.0889-0.5941-0.1758-0.892-0.2604c-0.0197-0.3092-0.0416-0.618-0.0657-0.9269
		c-0.8844-11.3408-4.7203-22.4493-11.0007-31.9323c-4.0863-6.17-9.1966-11.6274-15.0577-16.1447
		c2.7146,2.717,5.1769,5.686,7.2977,8.8879c5.3923,8.1421,8.6666,17.687,9.4257,27.4233
		c0.5899,7.5664-0.3514,15.2456-2.7081,22.4604c7.5501-0.7767,15.2548-0.0719,22.525,2.1057
		c9.3552,2.8019,17.9911,8.0217,24.8079,15.0146c2.6808,2.7502,5.0616,5.7852,7.1426,9.0132
		c-3.1747-6.6843-7.4272-12.8335-12.593-18.1329C356.8458,1244.0391,346.8004,1237.9395,335.9035,1234.6755z"/>
	<path fill="#2E3436" d="M213.8637,684.3889c-5.5479,5.1788-12.1387,9.2308-19.2488,11.8867
		c5.3148,5.4186,9.5674,11.8818,12.3978,18.9236c3.6423,9.0612,4.9457,19.0676,3.7285,28.7572
		c-0.4788,3.8107-1.3671,7.5642-2.5934,11.2039c3.2466-6.6497,5.4029-13.8085,6.3253-21.1512
		c1.4177-11.2853-0.0766-22.9421-4.3188-33.4968c-0.1155-0.2874-0.233-0.574-0.3526-0.8597
		c0.2294-0.2082,0.4573-0.418,0.6837-0.6293c8.3152-7.7623,14.6086-17.6874,18.1068-28.5101
		c2.2762-7.0417,3.3567-14.4398,3.234-21.8386c-0.4316,3.8164-1.2177,7.5927-2.3989,11.2471
		C226.4236,669.214,221.0025,677.7251,213.8637,684.3889z"/>
	<path fill="#2E3436" d="M1101.5703,360.4811c-12.9695,1.2901-25.6105,6.7214-34.9067,15.8565
		c-9.2966,9.1348-15.037,22.0272-14.783,35.0583c0.1459,7.4951,2.2268,14.9409,5.9943,21.422
		c3.7677,6.4808,9.2223,11.9802,15.6635,15.8153c4.1904,2.4951,8.7856,4.2744,13.5573,5.2805
		c-2.3888-0.837-4.6998-1.8958-6.8748-3.1909c-5.5299-3.2925-10.2037-8.024-13.4386-13.5881
		c-3.2346-5.564-5.0176-11.9639-5.1427-18.3986c-0.2179-11.1876,4.7001-22.2323,12.6808-30.0745
		c7.9817-7.8427,18.8398-12.5268,29.9746-13.6349c11.135-1.1077,22.5027,1.2597,32.6163,6.0479
		c10.1139,4.7881,18.9984,11.9407,26.4059,20.3269c11.9447,13.5224,20.0864,30.254,24.1079,47.8419
		c4.0211,17.5883,3.9839,36.0106,0.6711,53.7457c-4.4143,23.6326-14.5278,45.7588-27.9465,65.8091
		c22.4358-8.8723,46.2008-14.0753,70.2324-13.3892c18.0344,0.5149,36.0475,4.3765,52.3867,12.0281
		c16.3387,7.6519,30.9688,19.1495,41.6576,33.6849c6.629,9.0143,11.7399,19.2111,14.2794,30.109
		c2.5398,10.8979,2.4482,22.509-0.9904,33.1575c-3.4391,10.6482-10.3146,20.2695-19.6686,26.4109
		c-9.3533,6.1406-21.1885,8.6103-32.0767,6.0302c-6.2625-1.4839-12.1403-4.5805-16.8938-8.9193
		c-4.7537-4.3389-8.3892-9.908-10.437-16.0094c-0.8055-2.3998-1.3513-4.8824-1.6641-7.3942
		c-0.0264,4.8765,0.7405,9.744,2.2924,14.3676c2.3854,7.1068,6.6061,13.6015,12.1429,18.6552
		c5.5374,5.0535,12.3741,8.6628,19.6687,10.3913c12.6824,3.0055,26.4973,0.1229,37.3923-7.0303
		c10.8954-7.1528,18.8784-18.3583,22.8835-30.7612c4.005-12.4031,4.1239-25.9122,1.1659-38.6058
		c-1.8485-7.933-4.8566-15.5663-8.7484-22.7297l-0.0029,0.0018c-2.3351-4.298-4.9973-8.4203-7.8928-12.3578
		c-12.45-16.9294-29.4788-30.3123-48.51-39.2247c-19.0314-8.9125-40.0195-13.4178-61.0258-14.0173
		c-12.8209-0.3662-25.5751,0.7127-38.1453,2.9782c4.8739-11.8063,8.6271-24.0432,10.9821-36.6514
		c3.8588-20.6575,3.8964-42.1237-0.7875-62.6099c-4.6837-20.4862-14.1605-39.9611-28.0724-55.7112
		c-3.2356-3.6631-6.7014-7.1373-10.408-10.329l0.0024-0.0024c-6.1777-5.3195-13.0017-9.8745-20.364-13.3597
		C1127.7683,361.9333,1114.54,359.1912,1101.5703,360.4811z"/>
	<path fill="#2E3436" d="M634.6711,396.3264c5.9509,4.559,13.0696,7.5744,20.4858,8.6698
		c7.4159,1.095,15.1165,0.2593,22.1309-2.3855c4.5635-1.7206,8.8196-4.2038,12.5813-7.3072
		c-2.1438,1.3458-4.4126,2.4924-6.7811,3.3854c-6.0221,2.2706-12.6354,2.9747-19.0024,2.0346
		c-6.3668-0.9401-12.4822-3.5364-17.5909-7.4505c-8.8828-6.8051-14.4514-17.5363-15.6069-28.6654
		c-1.1552-11.1301,1.9526-22.5399,8.0287-31.9364c6.0765-9.3962,15.015-16.8078,25.0643-21.7296
		c10.0493-4.922,21.1809-7.4086,32.356-7.9713c18.0198-0.9077,36.1772,3.1588,52.4353,10.9806
		c16.2583,7.8223,30.6382,19.3375,42.4386,32.985c15.7245,18.186,26.7177,39.8885,34.0272,62.8809
		c7.0518-23.0728,17.8013-44.897,33.3212-63.2579c11.6469-13.7788,25.897-25.4543,42.0665-33.4581
		c16.1694-8.0033,34.2805-12.2728,52.3091-11.567c11.1807,0.4376,22.3394,2.7994,32.4432,7.6086
		c10.1039,4.809,19.1246,12.12,25.306,21.4476c6.1809,9.3279,9.4163,20.7022,8.3857,31.8445
		c-1.0306,11.1413-6.479,21.9342-15.2849,28.8383c-5.0647,3.971-11.1504,6.6357-17.5063,7.647
		c-6.3562,1.0113-12.9771,0.3813-19.0242-1.8218c-2.3784-0.8665-4.6597-1.9875-6.8185-3.3092
		c3.7961,3.061,8.0798,5.4964,12.6622,7.1658c7.0437,2.566,14.7531,3.3155,22.1563,2.1375
		c7.4034-1.1783,14.488-4.2733,20.3875-8.8986c10.2571-8.0416,16.617-20.6399,17.8173-33.618
		c1.2008-12.978-2.5826-26.2059-9.7825-37.0703c-7.2001-10.8645-17.6877-19.3802-29.4563-24.9819
		c-7.3549-3.5009-15.1981-5.9084-23.2252-7.332l-0.0005,0.0034c-4.8162-0.8541-9.699-1.3429-14.5828-1.5341
		c-20.9984-0.8215-42.0789,4.148-60.9127,13.4704c-18.8339,9.3225-35.4423,22.9227-49.0081,38.9722
		c-8.2802,9.7955-15.3885,20.4398-21.4547,31.6801c-6.1917-11.1717-13.4188-21.7356-21.8081-31.4378
		c-13.7446-15.8967-30.5042-29.3101-49.4414-38.4211c-18.937-9.111-40.0718-13.8442-61.0596-12.7875
		c-4.8813,0.2458-9.7584,0.7894-14.5647,1.6973l-0.0005-0.0035c-8.0107,1.5133-15.8267,4.0085-23.1417,7.5916
		c-11.7051,5.733-22.0968,14.3657-29.1747,25.3101c-7.0779,10.9443-10.7129,24.2137-9.3669,37.1775
		C617.824,375.8738,624.3245,388.4001,634.6711,396.3264z"/>
	<path fill="#2E3436" d="M1098.129,265.418c0.3059-0.0486,0.6115-0.0995,0.9166-0.1524c0.1519,0.2699,0.3057,0.5388,0.4614,0.8065
		c5.7173,9.834,13.9932,18.1781,23.7661,23.9969c6.3588,3.786,13.3308,6.4857,20.5715,8.0125
		c-3.6248-1.27-7.1313-2.8766-10.4314-4.8414c-8.3911-4.9961-15.4824-12.1751-20.3906-20.6179
		c-3.8146-6.5611-6.2983-13.8884-7.3054-21.4112c-6.4653,3.9757-13.7129,6.6835-21.208,7.876
		c-9.6443,1.5347-19.6899,0.5788-28.8657-2.764c-3.6086-1.3147-7.0703-3.016-10.3459-5.0214
		c5.7605,4.6448,12.26,8.3401,19.2135,10.8733C1075.198,266.0683,1086.895,267.2053,1098.129,265.418z"/>
	<path fill="#2E3436" d="M440.9095,1123.2205c3.1205-6.8162,4.4762-14.4275,3.8939-21.9014
		c-0.5826-7.4738-3.111-14.7952-7.2502-21.0452c-2.693-4.0663-6.061-7.6631-9.9236-10.6399
		c1.7891,1.7905,3.4117,3.7472,4.8094,5.8577c3.5538,5.3658,5.7117,11.6567,6.212,18.0732s-0.6702,12.9562-3.3493,18.8079
		c-4.6579,10.1743-13.8809,17.9913-24.4739,21.5942c-10.594,3.6029-22.4092,3.1118-32.9222-0.7209
		c-10.5128-3.8333-19.7275-10.8984-26.7621-19.6006c-7.0348-8.7021-11.936-19.0012-14.9714-29.771
		c-4.8947-17.3658-4.9705-35.973-0.9626-53.564c4.0084-17.5912,12.035-34.173,22.7146-48.7144
		c14.231-19.377,32.9432-34.9238,53.7325-47.1664c-24.0635-1.7408-47.7325-7.3644-69.0865-18.4095
		c-16.0251-8.2887-30.5788-19.5836-41.98-33.5667c-11.4007-13.9832-19.5933-30.6899-22.9169-48.4236
		c-2.0613-10.9978-2.2418-22.4023,0.1985-33.3229c2.4401-10.9207,7.5605-21.3422,15.2787-29.4442
		c7.7186-8.1016,18.0878-13.7869,29.1801-15.2616c11.0913-1.4742,22.826,1.4357,31.5165,8.4846
		c4.9984,4.0541,8.9506,9.3943,11.3509,15.366c2.4003,5.9717,3.2594,12.5667,2.4572,18.9525
		c-0.3155,2.5116-0.9009,4.9852-1.709,7.3839c2.1396-4.3821,3.5607-9.1003,4.1686-13.9394
		c0.9344-7.438-0.0505-15.1208-2.8463-22.0763c-2.7963-6.9556-7.3901-13.1738-13.2122-17.8962
		c-10.1224-8.2105-23.82-11.6075-36.7398-9.8898c-12.9198,1.7172-24.9741,8.3492-33.9641,17.7861
		c-8.9899,9.4371-14.9584,21.5568-17.8008,34.2767c-1.7765,7.9495-2.3784,16.1319-1.98,24.2745l0.0035-0.0004
		c0.239,4.8855,0.8489,9.7548,1.7493,14.5587c3.8716,20.6547,13.4074,40.1008,26.687,56.3879
		c13.2797,16.2873,30.2346,29.4529,48.9004,39.1072c11.3925,5.8928,23.3516,10.4545,35.6599,13.8673
		c-9.5138,8.5223-18.2047,17.919-25.7969,28.2569c-12.4396,16.9374-21.7874,36.2615-26.456,56.7513
		c-4.6687,20.4896-4.5803,42.1477,1.1201,62.3741c1.3259,4.7043,2.941,9.3381,4.8958,13.822l-0.0032,0.0011
		c3.2579,7.4731,7.4297,14.5378,12.5507,20.8722c8.1939,10.136,18.9225,18.3462,31.1675,22.8113
		c12.2448,4.465,25.9904,5.0563,38.3297,0.8593C424.7185,1144.1962,435.4842,1135.0713,440.9095,1123.2205z"/>
	<path fill="#2E3436" d="M1423.8115,653.2348c-1.2222-3.6411-2.0503-7.4083-2.5247-11.2195
		c-0.0399,7.3997,1.1234,14.7852,3.4783,21.801c3.6191,10.7829,10.0232,20.6369,18.4248,28.3056
		c0.2289,0.2089,0.4591,0.4161,0.6907,0.6216c-0.1162,0.287-0.2305,0.5749-0.3428,0.8636
		c-4.1239,10.6014-5.4875,22.2742-3.9436,33.543c1.0045,7.332,3.2408,14.4662,6.5616,21.0791
		c-1.267-3.6257-2.1971-7.369-2.7186-11.1741c-1.3257-9.6754-0.1343-19.6957,3.4063-28.7971
		c2.7515-7.0731,6.9314-13.5835,12.1852-19.0613c-7.1395-2.576-13.7753-6.554-19.3807-11.6703
		C1432.4351,670.9429,1426.9189,662.493,1423.8115,653.2348z"/>
	<path fill="#2E3436" d="M1643.8049,954.77c-0.385-4.8052-1.4871-9.539-3.1357-14.0728c-0.2473-0.6801-0.4978-1.3669-0.7703-2.0377
		l0.0015-0.0006c-0.8169-2.012-1.75-3.975-2.7617-5.894c-5.7988-11.0016-14.5872-20.3389-24.9424-27.2266
		c-10.355-6.8873-22.2349-11.3604-34.4756-13.5566c-11.1064-1.9925-22.4088-2.1039-33.6064-0.7896
		c5.5256-5.5586,10.7561-11.4074,15.6436-17.54c19.8711-24.9427,34.0083-54.6078,39.5254-86.0118
		c1.2844-7.3041,2.1272-14.7028,2.4067-22.1196l0.0088-0.0081c0.4663-12.3618-0.5862-24.7662-3.4167-36.7977
		c-4.5286-19.251-13.7908-37.5387-27.5913-51.7053c-3.9216-4.0254-8.215-7.7029-12.8025-10.96
		c2.6648-4.9551,4.8792-10.1564,6.6061-15.5045c6.0768-18.8206,6.2574-39.3193,1.769-58.5797
		c-2.8049-12.0375-7.3689-23.6197-13.2748-34.4895l-0.011-0.0034c-3.5435-6.5217-7.5833-12.7772-11.9768-18.7519
		c-18.885-25.6904-44.7224-45.9957-73.6012-59.5242c-7.1021-3.3253-14.3854-6.2441-21.8043-8.7718
		c10.6172-3.7935,20.6953-8.9109,29.7627-15.627c9.9933-7.4021,18.6526-16.6843,24.8738-27.4528
		c6.2209-10.7688,9.9504-23.0371,10.2627-35.4695c0.0544-2.1686,0.0189-4.3419-0.1423-6.5074l-0.0012,0.0001
		c-0.054-0.7219-0.1343-1.4487-0.2146-2.1678c-0.5355-4.7944-1.6497-9.5253-3.4377-14.0021
		c-2.8608-7.1623-7.5052-13.6628-13.6478-18.3275c-6.1416-4.6647-13.797-7.4134-21.507-7.1976
		c-7.7104,0.2162-15.4017,3.5092-20.5405,9.2609c-2.9554,3.3083-5.0479,7.3734-6.0247,11.7007
		c-0.9768,4.3275-0.8345,8.9044,0.4132,13.1616c0.8118,2.7697,2.0901,5.3876,3.7535,7.746
		c-0.6985-1.3249-1.2655-2.705-1.6868-4.1425c-1.0713-3.6549-1.2063-7.6038-0.3677-11.3191s2.6479-7.2041,5.1853-10.0444
		c4.4117-4.938,10.998-7.7374,17.6173-7.9227c6.619-0.1846,13.2114,2.147,18.485,6.1517c5.2734,4.0043,9.25,9.6108,11.7063,15.7601
		c2.4563,6.1495,3.4362,12.8264,3.2699,19.4462c-0.2689,10.6734-3.4807,21.2017-8.8217,30.4467
		c-5.3416,9.2453-12.7771,17.2381-21.3567,23.5929c-12.6516,9.3708-27.5898,15.1271-43.0916,18.2474
		c-18.0283-4.7332-36.6528-7.293-55.281-7.823c-31.6331-0.9035-63.0015,3.9691-93.3323,12.9954
		c15.2397-27.7343,26.6392-57.3615,32.4495-88.4694c3.4236-18.3186,4.8623-37.063,4.051-55.6846
		c6.3296-14.4905,15.1165-27.8726,26.9521-38.2548c8.0262-7.0409,17.4114-12.6168,27.5775-15.8811
		c10.1659-3.2639,21.1354-4.1754,31.6239-2.1797c6.5051,1.2382,12.8235,3.6086,18.314,7.3104
		c5.4905,3.7018,10.1287,8.7748,12.9264,14.776c2.7982,6.0016,3.6823,12.938,2.1012,19.3682
		c-1.5817,6.4302-5.7113,12.275-11.4709,15.542c-3.3127,1.879-7.1055,2.9091-10.9141,2.9426
		c-3.8086,0.0335-7.6396-0.934-10.9851-2.7543c-1.3157-0.7159-2.5447-1.5621-3.6918-2.5251
		c1.953,2.1248,4.2411,3.9281,6.7764,5.3076c3.8969,2.1203,8.34,3.2278,12.7761,3.1887c4.436-0.0391,8.8519-1.2239,12.7106-3.4125
		c6.7087-3.8054,11.5547-10.6257,13.3973-18.1158c1.8424-7.4897,0.7758-15.5535-2.4839-22.543
		c-3.2593-6.9905-8.6299-12.9052-15.0248-17.2168c-3.9969-2.6948-8.385-4.7847-12.9575-6.3226
		c-0.686-0.2307-1.3793-0.463-2.0734-0.6684l0.0002-0.0013c-2.0824-0.6158-4.1989-1.1104-6.33-1.5159
		c-12.2169-2.3256-24.9966-1.2763-36.8379,2.5252c-11.8408,3.8018-22.7451,10.301-32.0942,18.5018
		c-8.4824,7.4411-15.6165,16.2082-21.5706,25.7822c-0.9008-7.7858-2.2124-15.5218-3.9597-23.1666
		c-7.1116-31.0873-21.4902-60.6362-42.603-84.5295c-4.9097-5.5583-10.1688-10.8301-15.7932-15.6732l-0.001-0.0117
		c-9.374-8.072-19.7283-14.9833-30.8998-20.2718c-17.8746-8.4621-37.9474-12.6229-57.6277-10.666
		c-5.5924,0.5563-11.1444,1.62-16.5511,3.1759c-2.2126-5.1729-4.8986-10.147-8.0029-14.8317
		c-10.9258-16.4855-26.8397-29.4074-44.6967-37.9069c-11.16-5.3123-23.0609-8.9654-35.2416-11.1253l-0.0096,0.0066
		c-7.3081-1.2959-14.7177-2.0378-22.1281-2.3279c-31.8604-1.2527-63.845,6.2877-92.4277,20.4311
		c-7.0278,3.4793-13.851,7.3538-20.4528,11.5781c3.6538-10.666,5.9363-21.736,6.3391-33.0126
		c0.4434-12.4282-1.4147-24.9857-5.955-36.5636c-4.5406-11.578-11.8071-22.143-21.3326-30.1386
		c-1.6614-1.3947-3.3826-2.7219-5.1763-3.946l-0.0007,0.001c-0.598-0.408-1.2163-0.7983-1.8286-1.1838
		c-4.0823-2.5706-8.4758-4.6492-13.0907-6.0424c-7.3834-2.229-15.3615-2.6508-22.8383-0.7567
		c-7.4763,1.8933-14.3984,6.1648-19.0366,12.3273c-4.6384,6.1631-6.8594,14.2294-5.5664,21.8332
		c0.7439,4.3734,2.6174,8.5438,5.3916,12.0056c2.7744,3.4619,6.4414,6.2043,10.5479,7.8831
		c2.6715,1.0922,5.5154,1.7251,8.3964,1.8949c-1.4713-0.28-2.9039-0.6971-4.2905-1.264c-3.5254-1.4412-6.6969-3.7979-9.0787-6.7699
		c-2.3818-2.9721-3.9816-6.5619-4.6201-10.3167c-1.11-6.528,0.8079-13.4227,4.79-18.7134
		c3.9824-5.2901,9.9158-8.9905,16.3348-10.6166c6.4186-1.6262,13.2813-1.2397,19.6205,0.6739
		c6.3394,1.9138,12.1705,5.3107,17.2424,9.5681c8.177,6.8649,14.4059,15.9404,18.304,25.8803
		c3.8978,9.9405,5.511,20.7372,5.1299,31.4072c-0.5615,15.734-5.375,31.0021-12.6006,45.0673
		c-14.941,11.144-28.5546,24.1092-40.5835,38.3429c-20.4292,24.1684-36.1775,51.7312-48.0315,81.0726
		c-12.1818-29.2068-28.2378-56.5916-48.9363-80.5297c-12.1875-14.0981-25.9453-26.91-41.0103-37.8861
		c-7.3826-13.9834-12.3667-29.1967-13.1045-44.9234c-0.5004-10.6652,0.9917-21.4792,4.7781-31.4627
		c3.7865-9.983,9.9133-19.1276,18.0131-26.0836c5.0238-4.3139,10.8167-7.7759,17.1342-9.7605
		c6.3174-1.9846,13.1753-2.4479,19.6117-0.8936c6.4369,1.5541,12.4113,5.1879,16.4528,10.4331
		c4.0411,5.2457,6.036,12.1186,4.9991,18.6586c-0.5964,3.7617-2.1559,7.3691-4.5043,10.3677
		c-2.3484,2.9985-5.4933,5.3906-9.0024,6.8712c-1.3801,0.5823-2.8079,1.0156-4.276,1.312c2.8789-0.202,5.7155-0.8667,8.3746-1.9888
		c4.0873-1.7246,7.7234-4.5079,10.4587-8.0007c2.7354-3.4926,4.5623-7.6837,5.257-12.0651
		c1.2076-7.6177-1.1034-15.6588-5.8104-21.7695c-4.707-6.1102-11.6765-10.3038-19.1736-12.1133
		c-7.4974-1.8103-15.4702-1.2991-22.8284,1.0123c-4.5989,1.4448-8.9689,3.5725-13.0221,6.1887
		c-0.608,0.3924-1.2218,0.7896-1.8153,1.2043l-0.0007-0.0011c-1.7798,1.2441-3.4861,2.5905-5.1318,4.0038
		c-9.4353,8.1017-16.583,18.7474-20.9938,30.3755c-4.4103,11.6281-6.1278,24.2055-5.545,36.6281
		c0.5288,11.2713,2.9352,22.3151,6.7083,32.9395c-6.6488-4.1501-13.5149-7.948-20.5812-11.3484
		c-28.7391-13.8225-60.8063-21.0042-92.6505-19.3949c-7.4067,0.373-14.8075,1.1978-22.1006,2.5755l-0.0098-0.0065
		c-12.1556,2.2961-24.0149,6.0823-35.1149,11.5192c-17.7606,8.6989-33.5288,21.7982-44.2693,38.405
		c-3.0519,4.7191-5.6818,9.7231-7.8365,14.9203c-5.4238-1.4952-10.9874-2.4968-16.5856-2.9904
		c-19.701-1.7364-39.726,2.6489-57.5047,11.3106c-11.1115,5.4132-21.3878,12.44-30.6709,20.6165l-0.0009,0.0117
		c-5.5697,4.9058-10.7695,10.2361-15.6166,15.8491c-20.8439,24.1283-34.8909,53.8363-41.654,85.0013
		c-1.6616,7.6639-2.8865,15.4141-3.7,23.2095c-6.0609-9.5068-13.2927-18.1935-21.8579-25.5391
		c-9.4403-8.0956-20.4166-14.4724-32.2994-18.1413c-11.8831-3.6687-24.6736-4.5748-36.8638-2.1126
		c-2.1264,0.4294-4.2372,0.9476-6.3126,1.5867l0.0003,0.0013c-0.6918,0.2131-1.3824,0.4532-2.0657,0.6915
		c-4.5551,1.5889-8.9195,3.7278-12.886,6.4673c-6.3462,4.3829-11.6502,10.3574-14.8311,17.3839
		c-3.1811,7.0256-4.1574,15.1008-2.2313,22.5694c1.9265,7.4691,6.8484,14.2347,13.5994,17.9647
		c3.883,2.1452,8.3118,3.2805,12.7479,3.27c4.4364-0.0106,8.8669-1.1678,12.7397-3.3316c2.5196-1.4077,4.7875-3.2365,6.7165-5.3831
		c-1.1362,0.9758-2.3556,1.8357-3.6633,2.5663c-3.3248,1.8577-7.1448,2.868-10.9535,2.8771
		c-3.8087,0.0091-7.6127-0.9784-10.9464-2.8203c-5.7959-3.2023-9.9907-9.0005-11.6442-15.4126
		c-1.653-6.412-0.8467-13.3579,1.8842-19.3904c2.7305-6.0322,7.3115-11.1567,12.7601-14.9198
		c5.4487-3.763,11.7402-6.2041,18.231-7.515c10.4656-2.113,21.4446-1.3244,31.6464,1.8255
		c10.2021,3.1502,19.649,8.6207,27.7537,15.5712c11.9511,10.2491,20.8871,23.5319,27.3787,37.9506
		c-0.6028,18.6296,1.0458,37.3567,4.6743,55.6358c6.1581,31.041,17.8887,60.5387,33.4379,88.1005
		c-30.43-8.6861-61.851-13.2072-93.472-11.9495c-18.6211,0.7385-37.2158,3.5067-55.1899,8.4414
		c-15.5356-2.9465-30.5374-8.5352-43.293-17.7638c-8.6504-6.2584-16.1749-14.1674-21.6195-23.3523
		c-5.4442-9.1846-8.7737-19.6763-9.162-30.3461c-0.2404-6.6174,0.6647-13.3049,3.0519-19.4815
		c2.3873-6.1765,6.301-11.8271,11.5291-15.8902c5.2285-4.0636,11.7943-6.4689,18.415-6.3583
		c6.621,0.1111,13.2382,2.8366,17.7048,7.7249c2.5692,2.8116,4.4173,6.28,5.2975,9.9857s0.7894,7.6559-0.2408,11.3225
		c-0.4052,1.4421-0.9567,2.8286-1.6404,4.1611c1.637-2.3768,2.8859-5.0089,3.6666-7.7875c1.2-4.2709,1.2911-8.8491,0.2658-13.1654
		c-1.0252-4.3161-3.163-8.3575-6.1553-11.6324c-5.2028-5.6938-12.9305-8.9005-20.6429-9.0303
		c-7.7119-0.1295-15.3361,2.7047-21.425,7.4379c-6.09,4.7332-10.6613,11.2853-13.4418,18.4791
		c-1.7379,4.4965-2.799,9.2396-3.2808,14.0397c-0.0723,0.72-0.1445,1.4476-0.1902,2.1701h-0.0013
		c-0.137,2.1672-0.1481,4.3406-0.0693,6.5085c0.4513,12.4281,4.318,24.6539,10.6591,35.3524
		c6.3414,10.6981,15.1041,19.8828,25.1796,27.1725c9.142,6.614,19.2768,11.6183,29.9357,15.2927
		c-7.3901,2.6107-14.6403,5.6108-21.7047,9.0154c-28.7254,13.851-54.3339,34.4444-72.9302,60.3445
		c-4.3264,6.0235-8.2958,12.3239-11.7659,18.8848l-0.0111,0.0035c-5.7838,10.9353-10.2177,22.5678-12.8877,34.636
		c-4.2725,19.3094-3.8623,39.8048,2.4248,58.5563c1.7867,5.3283,4.0593,10.5045,6.7792,15.4294
		c-4.5507,3.3083-8.8026,7.0337-12.679,11.1027c-13.641,14.3203-22.6978,32.7105-27.0106,52.011
		c-2.6957,12.0624-3.6091,24.4778-3.0044,36.8337l0.0086,0.0079c0.3628,7.4133,1.2883,14.802,2.6545,22.0913
		c5.8683,31.3401,20.3368,60.8451,40.4858,85.5638c4.9559,6.0774,10.2515,11.8673,15.839,17.3636
		c-11.2116-1.1888-22.512-0.9508-33.5955,1.1658c-12.2153,2.3332-24.0445,6.939-34.3218,13.9418
		c-10.2773,7.0032-18.9605,16.4384-24.6359,27.5042c-0.9901,1.9302-1.901,3.9036-2.6953,5.9246l0.0012,0.0005
		c-0.2646,0.6738-0.5076,1.3634-0.7473,2.0462c-1.5977,4.5519-2.6467,9.2978-2.978,14.107
		c-0.5301,7.6943,0.8339,15.5662,4.3443,22.4341c3.5095,6.8674,9.2142,12.6655,16.2543,15.8163
		c7.0406,3.1507,15.399,3.5209,22.5244,0.5684c4.0982-1.6983,7.7471-4.453,10.5048-7.928
		c2.7578-3.4751,4.6154-7.6605,5.3383-12.0374c0.4704-2.8476,0.4546-5.7609-0.021-8.6075c0.0545,1.4968-0.0334,2.9862-0.2776,4.4642
		c-0.6206,3.7578-2.2124,7.3741-4.58,10.3577c-2.3676,2.9835-5.5114,5.3418-9.0299,6.7998
		c-6.1172,2.5349-13.2659,2.1993-19.3101-0.5057c-6.0437-2.7055-10.9716-7.6666-13.9854-13.5629
		c-3.0137-5.8958-4.164-12.6724-3.7089-19.2786c0.4552-6.6061,2.4694-13.0471,5.4913-18.9391
		c4.8732-9.4998,12.3351-17.5918,21.1584-23.6039c8.8239-6.0121,18.991-9.9872,29.4783-11.9902
		c15.4645-2.9536,31.4209-1.6583,46.7413,2.2563c14.1893,12.0866,29.8588,22.4738,46.4122,31.0338
		c28.1083,14.5391,58.4844,23.7593,89.728,28.787c-25.7639,18.3754-48.8893,40.1226-67.6213,65.629
		c-11.0327,15.019-20.4619,31.2828-27.8105,48.4124c-11.9901,10.3092-25.7128,18.5535-40.8811,22.7723
		c-10.2864,2.8611-21.1613,3.8129-31.7371,2.3429c-10.5753-1.4701-20.8539-5.4084-29.4379-11.7573
		c-5.3236-3.938-9.9879-8.8152-13.3285-14.5325c-3.3405-5.7175-5.3183-12.3005-5.2352-18.9213
		c0.0828-6.6213,2.2961-13.2544,6.5104-18.3618c4.215-5.1072,10.4716-8.5813,17.0784-9.0258c3.8-0.2556,7.664,0.462,11.11,2.0842
		c3.4459,1.6223,6.4777,4.1561,8.7021,7.2478c0.8749,1.2159,1.6149,2.5116,2.2306,3.877c-0.8376-2.7618-2.1168-5.3794-3.8024-7.7222
		c-2.5909-3.6011-6.1135-6.5266-10.1274-8.4163c-4.0137-1.8895-8.5063-2.7379-12.9324-2.4403
		c-7.6955,0.5177-15.0207,4.5601-19.9308,10.5089c-4.9095,5.9486-7.4473,13.6766-7.5432,21.3882
		c-0.0965,7.7124,2.176,15.3716,6.0668,22.0308c2.4319,4.1621,5.4787,7.9491,8.9312,11.3186
		c0.5179,0.5054,1.0417,1.0155,1.578,1.5017l-0.0008,0.0011c1.6089,1.4583,3.3013,2.8221,5.0453,4.1122
		c9.9981,7.396,21.9674,11.9955,34.2855,13.7083c12.3179,1.7123,24.9622,0.5879,36.9436-2.7444
		c10.871-3.0238,21.1025-7.8274,30.6209-13.8699c-2.5666,7.4055-4.7413,14.9446-6.4841,22.5903
		c-7.0809,31.0945-6.947,63.9557,1.708,94.6433c2.0119,7.1382,4.4628,14.1698,7.4288,20.9735l-0.0042,0.0109
		c4.9435,11.34,11.2736,22.0593,19.0442,31.6711c12.4329,15.3796,28.7125,27.8376,47.293,34.6135
		c5.2799,1.9253,10.7437,3.3757,16.29,4.3198c-0.2509,5.6206,0.0108,11.2676,0.7753,16.8353
		c2.691,19.5934,11.4222,38.1405,23.8229,53.546c7.7501,9.6284,16.8873,18.0835,26.9246,25.3145l0.0115-0.0018
		c6.0221,4.3385,12.3759,8.2217,18.9267,11.6984c28.1616,14.9523,60.2504,22.0364,92.139,21.6951
		c7.8415-0.0854,15.67-0.6158,23.4509-1.5574c-7.9198,8.0244-14.7794,17.0078-20.035,26.9929
		c-5.792,11.005-9.5663,23.1251-10.4992,35.5264c-0.9324,12.4016,1.0303,25.073,6.1434,36.4097
		c0.8918,1.9775,1.8667,3.9202,2.9515,5.8013l0.0012-0.0006c0.3618,0.6271,0.7495,1.2469,1.1339,1.86
		c2.5627,4.0873,5.6192,7.8665,9.1725,11.1239c5.6851,5.2118,12.6901,9.0533,20.2483,10.5909
		c7.5573,1.538,15.6473,0.6929,22.5001-2.8468c6.8531-3.5402,12.3539-9.8441,14.4881-17.256
		c1.2274-4.2629,1.3488-8.8333,0.3513-13.1559c-0.9975-4.3229-3.1115-8.3846-6.0829-11.6788
		c-1.933-2.1433-4.2206-3.9473-6.7427-5.3503c1.2042,0.8906,2.3139,1.8881,3.3172,3.0005c2.551,2.8281,4.3859,6.3274,5.2424,10.0386
		c0.8564,3.7112,0.7401,7.6395-0.3137,11.2996c-1.8323,6.363-6.5517,11.7429-12.4351,14.7817
		c-5.8834,3.0383-12.8346,3.798-19.3235,2.4779c-6.4885-1.3197-12.504-4.6455-17.3851-9.1202
		c-4.8811-4.4747-8.6609-10.0653-11.3833-16.1016c-4.3889-9.7332-6.0631-20.6123-5.2623-31.2593
		c0.8011-10.6472,4.0323-21.0746,9.0051-30.5227c7.3328-13.9321,18.2941-25.5999,30.9068-35.137
		c18.2966-3.5579,36.1874-9.3323,53.2007-16.9373c28.8924-12.9111,55.0402-30.9114,78.4511-52.2039
		c-1.697,31.5999,0.887,63.2393,9.1494,93.7875c4.8636,17.9899,11.7002,35.5023,20.5107,51.9279
		c0.5845,15.8018-1.5259,31.671-7.6848,46.1604c-4.1765,9.826-10.2129,18.9219-17.9559,26.2738
		c-7.743,7.3514-17.2307,12.9321-27.5465,15.6849c-6.398,1.7069-13.1193,2.3126-19.6722,1.3597
		c-6.5529-0.953-12.9327-3.5111-18.0573-7.7042c-5.1251-4.1931-8.9311-10.0591-10.2965-16.5383
		c-1.3649-6.4797-0.1803-13.5376,3.5915-18.98c2.1695-3.1304,5.1396-5.7039,8.5565-7.3867
		c3.4169-1.6826,7.2883-2.4731,11.0922-2.2847c1.4962,0.0742,2.9705,0.3035,4.4219,0.6733
		c-2.6815-1.0671-5.5255-1.699-8.4081-1.8418c-4.4308-0.2196-8.9145,0.7104-12.8945,2.6704
		c-3.9797,1.96-7.4441,4.9434-9.9712,8.5895c-4.3933,6.3394-5.8,14.5868-4.2104,22.1346
		c1.5898,7.5474,6.0496,14.3499,12.019,19.2329c5.9696,4.884,13.3746,7.8828,21.0069,8.9927
		c4.7704,0.6938,9.6307,0.6729,14.4177,0.0745c0.7181-0.0898,1.4435-0.1814,2.158-0.2974l0.0003,0.0012
		c2.1433-0.3486,4.2648-0.8214,6.3608-1.3806c12.0161-3.2056,23.0748-9.6958,32.0941-18.2585
		c9.0187-8.563,16.0233-19.1497,20.8883-30.5947c4.4138-10.3846,7.0376-21.3789,8.2478-32.5881
		c4.1897,6.6238,8.728,13.0247,13.6191,19.1543c19.8958,24.9231,45.6713,45.3071,75.0602,57.6738
		c6.8351,2.8774,13.8607,5.3455,21.0294,7.2686l0.006,0.0101c11.9481,3.2054,24.2756,4.9397,36.6354,4.8573
		c19.7761-0.1313,39.6663-5.0919,56.5486-15.394c4.7971-2.9275,9.3379-6.2949,13.5341-10.0426
		c4.2379,3.7006,8.816,7.0167,13.6456,9.8905c16.9966,10.1124,36.9412,14.8499,56.7175,14.7599
		c12.3599-0.056,24.6672-1.9283,36.5786-5.2672l0.0059-0.0101c7.1466-2.0033,14.1443-4.5497,20.9468-7.5038
		c29.2485-12.6948,54.7942-33.3662,74.4097-58.5105c4.8223-6.184,9.2886-12.6353,13.4038-19.3057
		c1.3357,11.1951,4.0823,22.1592,8.6123,32.4938c4.9928,11.3899,12.1154,21.8976,21.2295,30.359
		c9.1145,8.4612,20.2454,14.8271,32.2966,17.8979c2.1021,0.5358,4.2288,0.9847,6.3757,1.3093l0.0002-0.0012
		c0.7158,0.1082,1.4423,0.1914,2.1613,0.2732c4.7933,0.5448,9.6536,0.5114,14.4159-0.2358
		c7.6194-1.1953,14.9905-4.2767,20.905-9.2273c5.9143-4.9497,10.2976-11.8015,11.8027-19.3662
		c1.505-7.5652,0.0061-15.7964-4.458-22.0862c-2.5676-3.6176-6.0652-6.562-10.0667-8.4773
		c-4.0017-1.9153-8.4955-2.795-12.9236-2.5259c-2.8809,0.175-5.7175,0.8389-8.387,1.9358c1.447-0.3862,2.9188-0.6318,4.4141-0.7227
		c3.8015-0.2312,7.6815,0.516,11.1169,2.1603c3.4355,1.6444,6.4343,4.1844,8.6388,7.2904
		c3.8324,5.3999,5.0961,12.4438,3.8038,18.9385c-1.2928,6.4941-5.033,12.4025-10.1108,16.6527
		c-5.0773,4.2501-11.4281,6.8795-17.9698,7.9059c-6.5419,1.0261-13.2694,0.4958-19.6862-1.1394
		c-10.3459-2.6371-19.8956-8.1113-27.7205-15.3755c-7.825-7.2649-13.9626-16.2925-18.249-26.0712
		c-6.3207-14.4196-8.6086-30.264-8.2012-46.0714c8.6262-16.5232,15.2661-34.1111,19.928-52.1543
		c7.9199-30.6389,10.1497-62.3051,8.0989-93.884c23.6477,21.0291,49.9955,38.7354,79.0308,51.3221
		c17.0974,7.4139,35.0518,12.9878,53.387,16.3405c12.7188,9.3955,23.8101,20.9397,31.2983,34.7888
		c5.0781,9.3918,8.426,19.7825,9.3462,30.42c0.9199,10.6373-0.6323,21.5345-4.9119,31.3162
		c-2.6547,6.0664-6.3717,11.6989-11.2024,16.2281c-4.8308,4.5289-10.8086,7.9219-17.282,9.3142
		c-6.4736,1.3926-13.433,0.7109-19.3501-2.2614c-5.917-2.9728-10.6963-8.2994-12.5997-14.6417
		c-1.0948-3.6479-1.255-7.5747-0.4403-11.2953c0.8149-3.7206,2.6106-7.2401,5.1296-10.0967
		c0.9908-1.1235,2.0894-2.1333,3.2834-3.0374c-2.5061,1.4312-4.7734,3.2607-6.6824,5.4254
		c-2.9343,3.3273-5.0027,7.4126-5.9517,11.7463c-0.949,4.3335-0.7766,8.9021,0.4985,13.1511
		c2.217,7.3875,7.7881,13.6294,14.6804,17.0927c6.8921,3.4628,14.991,4.2172,22.5305,2.5946
		c7.5405-1.6221,14.502-5.5417,20.1284-10.8169c3.5167-3.2971,6.5308-7.1101,9.0474-11.2258
		c0.3776-0.6174,0.7583-1.2417,1.113-1.8726l0.0012,0.0005c1.0637-1.8931,2.0168-3.8464,2.8865-5.8339
		c4.9857-11.3932,6.8065-24.0859,5.7352-36.4762c-1.0717-12.3901-4.9814-24.4672-10.8964-35.4067
		c-5.3669-9.9255-12.3267-18.8315-20.3359-26.7668c7.791,0.8544,15.625,1.2971,23.467,1.2947
		c31.8904-0.0157,63.8979-7.4587,91.8903-22.7253c6.5114-3.5498,12.8214-7.5039,18.7946-11.9095l0.0115,0.0016
		c9.9557-7.3428,18.9978-15.8995,26.6394-25.6141c12.2275-15.5435,20.7505-34.1871,23.222-53.8094
		c0.702-5.5759,0.9005-11.2255,0.5867-16.8429c5.5355-1.0061,10.9827-2.5177,16.2406-4.502
		c18.5034-6.9835,34.6426-19.6229,46.9026-35.1409c7.6624-9.6982,13.8721-20.4878,18.6882-31.8824l-0.0043-0.0107
		c2.8896-6.8367,5.2617-13.8953,7.1935-21.0554c8.3108-30.7827,8.0769-63.6433,0.6483-94.6565
		c-1.8282-7.6259-4.0873-15.14-6.7367-22.5164c9.5854,5.9355,19.8701,10.6243,30.7744,13.5261
		c12.0178,3.1979,24.6741,4.1807,36.9719,2.3306c12.2981-1.8506,24.2151-6.5837,34.1299-14.0913
		c1.7295-1.3093,3.4063-2.6921,4.999-4.1685l-0.001-0.001c0.5308-0.4922,1.0488-1.0081,1.561-1.5193
		c3.4146-3.408,6.4187-7.2288,8.804-11.418c3.8162-6.7021,6.0027-14.3865,5.8196-22.0972
		c-0.1821-7.7101-2.8062-15.4092-7.782-21.3025c-4.9763-5.8936-12.3464-9.8536-20.0471-10.2851
		c-4.4294-0.248-8.9121,0.6506-12.9043,2.585c-3.9927,1.9344-7.4822,4.8993-10.0327,8.5292
		c-1.6592,2.3615-2.9089,4.9932-3.7156,7.7642c0.6003-1.3722,1.3258-2.676,2.187-3.9017c2.1895-3.1163,5.1929-5.684,8.6204-7.3447
		c3.4277-1.6608,7.2832-2.4215,11.0859-2.2085c6.6113,0.3704,12.9065,3.7744,17.1785,8.834
		c4.2712,5.0599,6.5586,11.6677,6.7156,18.2878c0.1572,6.6194-1.7466,13.224-5.0229,18.9786
		c-3.2764,5.7544-7.8857,10.6836-13.165,14.6809c-8.5122,6.4446-18.7463,10.4976-29.3044,12.0861
		c-10.5586,1.5883-21.4435,0.7584-31.7612-1.9874c-15.2146-4.0486-29.0288-12.1389-41.1335-22.3131
		c-7.5399-17.0461-17.1506-33.2034-28.3508-48.0979c-19.0165-25.2951-42.3839-46.7819-68.3519-64.8677
		c31.1852-5.3772,61.4562-14.937,89.4-29.7899c16.4565-8.7448,32.0088-19.3068,46.0618-31.5515
		c15.2756-4.0859,31.2166-5.5598,46.7131-2.7795c10.509,1.8854,20.72,5.7464,29.6106,11.6594
		c8.8901,5.913,16.4421,13.921,21.4216,23.3656c3.0876,5.8578,5.1738,12.2758,5.7029,18.8764s-0.5452,13.3898-3.4929,19.3189
		c-2.9475,5.9297-7.8193,10.9456-13.8325,13.7186c-6.0134,2.7726-13.158,3.1881-19.3032,0.722
		c-3.5347-1.4185-6.7046-3.7416-9.1055-6.6983c-2.4009-2.9568-4.033-6.5552-4.6956-10.3057
		c-0.2607-1.4751-0.3655-2.9635-0.3276-4.4608c-0.4436,2.8517-0.4268,5.765,0.0754,8.6072
		c0.772,4.3686,2.6763,8.5329,5.4727,11.9769c2.7964,3.4438,6.4761,6.1575,10.593,7.8098
		c7.158,2.8726,15.5117,2.4088,22.5166-0.8205c7.0044-3.2294,12.6438-9.091,16.0762-15.9973
		C1643.1455,970.3446,1644.4211,962.4579,1643.8049,954.77z M1505.4957,901.0562c-0.2838,0.1096-0.5687,0.2167-0.8517,0.3276
		c-0.5652,0.2214-1.1248,0.4542-1.6875,0.6805c8.3015-6.3391,15.813-12.7233,22.3387-19.0309
		c8.5326-8.2474,24.1344-28.2891,29.1222-37.4104c7.8082-14.2787,12.7649-29.2824,14.8037-44.8116
		c1.533-11.6749-1.082-33.9019-5.1563-43.8252c-9.3909-22.872-28.7896-37.8158-50.032-38.5423
		c-23.5156-0.8037-42.13,18.9796-38.9583,41.4058c0.1534,1.0853,0.3159,2.0881,0.4816,3.0074
		c-3.7217,2.666-6.6122,6.2607-6.7892,9.777c-0.0221,0.4382,0.009,0.8481,0.0688,1.263
		c-6.2778-4.2139-11.8508-9.4918-16.387-15.5421c-2.3835-3.1793-4.5004-6.5746-6.2834-10.1252
		c1.9543,5.592,4.7404,10.8894,8.2937,15.6297c5.1256,6.837,11.7957,12.5065,19.355,16.4871
		c0.0519,0.0273,0.1099,0.0472,0.1619,0.0744c3.5686,2.1713,8.2834,3.4336,12.0151,3.6215
		c7.0116,0.3532,12.9821-5.0446,13.3352-12.0562c0.3533-7.0116-5.0446-12.982-12.0562-13.3351
		c-2.9878-0.1505-6.7231,1.096-10.0558,3.1154c-0.6808-11.9648,4.6234-22.5817,14.7384-29.2996
		c15.0131-9.9703,32.6227-8.8245,48.9182,3.1841c13.4988,9.9469,21.1636,24.4578,23.6543,44.7782
		c4.4539,36.3387-12.6249,72.6396-48.7205,103.5575c-12.1467,10.4041-45.0767,32.2125-62.2751,41.243
		c-4.6497,2.4413-9.8425,5.0015-15.197,7.5154c-36.7089,10.8044-75.9531,13.6816-114.3066,11.2896
		c-8.5574-0.5339-17.0784-1.316-25.5688-2.308c8.1107,2.6995,16.1603,5.602,24.1375,8.7448
		c35.7533,14.0864,70.0803,33.3229,98.7515,58.6654c3.7847,4.5461,7.4033,9.0656,10.5803,13.2472
		c11.7509,15.4678,32.3362,49.1758,38.9294,63.7469c19.5923,43.3008,19.6785,83.4185,0.245,114.4456
		c-10.8671,17.3502-23.9589,27.2455-40.4008,30.5348c-19.8491,3.9717-36.2849-2.4529-45.6582-17.8459
		c-6.3149-10.3711-6.6201-22.2354-0.9333-32.7842c2.1628,3.2412,5.0181,5.9532,7.7881,7.083
		c6.5005,2.6514,13.9198-0.469,16.5712-6.9695c2.6515-6.5006-0.4691-13.9199-6.9696-16.5713
		c-3.4597-1.411-8.2651-2.2656-12.4177-1.8113c-0.0586,0.0027-0.1195-0.0039-0.1782-0.0012
		c-8.5338,0.4021-16.9778,2.7108-24.5178,6.7314c-5.2273,2.7878-9.9956,6.4055-14.1355,10.6423
		c3.1196-2.4604,6.476-4.6387,9.9822-6.5083c6.6725-3.5579,13.957-5.9768,21.429-7.1333c-0.23,0.3503-0.4319,0.7085-0.5977,1.1147
		c-1.3296,3.26-0.2349,7.741,2.0063,11.7328c-0.5396,0.7626-1.1118,1.6019-1.7107,2.5199
		c-12.3763,18.969-3.8994,44.7764,17.741,54.0134c19.5485,8.344,43.4519,3.0288,61.6504-13.7085
		c7.8954-7.2617,19.6832-26.2861,23.2422-37.5105c4.734-14.9299,6.6025-30.6201,5.5808-46.8623
		c-0.6523-10.3755-6.2909-35.1401-10.5245-46.2263c-3.2379-8.4788-7.3361-17.4445-12.1691-26.7041
		c0.4138,0.4435,0.822,0.8914,1.24,1.3314c0.2095,0.2203,0.4221,0.4381,0.6328,0.6576
		c9.4275,16.2627,16.6688,33.7759,21.0471,52.043c6.3809,26.6228,6.5812,54.8571-0.55,81.2885
		c-4.4229,16.3932-11.6846,32.1031-22.2102,45.4259c-10.5261,13.3228-24.3879,24.1991-40.2731,30.1935
		c-11.9288,4.5018-25.0045,6.1563-37.6102,4.4625c4.5894,11.8623,6.0327,24.9629,4.4398,37.613
		c-2.1208,16.8455-9.4611,32.8633-19.9587,46.2083c-10.4977,13.3447-24.0787,24.073-38.9867,32.2002
		c-24.0366,13.1039-51.5376,19.4996-78.9144,19.5093c-18.7845,0.0068-37.504-2.9465-55.5182-8.3176
		c-0.2625-0.1536-0.5239-0.3096-0.7871-0.4617c-0.5254-0.3038-1.0564-0.5962-1.5841-0.895
		c10.132,2.5381,19.8066,4.4302,28.8069,5.5996c11.7682,1.5288,37.1649,1.231,47.4059-0.5564
		c16.032-2.7979,30.8528-8.2773,44.2654-16.3655c10.0835-6.0808,25.8308-21.9836,31.0488-31.3561
		c12.027-21.6024,11.6157-46.0863-1.0608-63.1472c-14.0333-18.8864-41.1064-21.1051-56.6624-4.6428
		c-0.7529,0.7968-1.4355,1.549-2.051,2.2516c-4.4048-1.2474-9.0175-1.266-11.877,0.7878c-0.3564,0.2561-0.6575,0.5359-0.9446,0.8414
		c-0.6196-7.5355,0.0321-15.1835,1.9342-22.5022c0.9996-3.8457,2.3344-7.6177,3.9987-11.2255
		c-3.1536,5.0144-5.5582,10.4955-7.0488,16.2291c-2.1497,8.2701-2.4236,17.0199-0.8225,25.4117
		c0.011,0.0577,0.0315,0.1155,0.0427,0.1731c0.5275,4.1438,2.4802,8.6172,4.6599,11.6519
		c4.0955,5.702,12.0381,7.0044,17.7402,2.9089s7.0044-12.0381,2.9089-17.7402c-1.7451-2.4297-5.0487-4.573-8.7053-5.9194
		c8.9299-7.9922,20.5376-10.4648,32.0964-6.7451c17.1558,5.5212,27.2393,20.0034,28.0106,40.2312
		c0.6395,16.7554-5.9266,31.7954-20.2609,46.4122c-25.6338,26.139-64.6633,35.4196-111.3412,26.476
		c-15.7076-3.01-53.2897-15.1582-71.073-22.9741c-4.8077-2.113-10.047-4.5767-15.351-7.1958
		c-31.3348-21.9636-58.0526-50.8521-80.0956-82.3296c-4.9181-7.0232-9.6193-14.1729-14.1375-21.4294
		c2.9464,8.0244,5.6959,16.1274,8.2125,24.3237c11.2786,36.7358,17.6414,75.5675,15.7041,113.7843
		c-1.1946,5.7935-2.4719,11.4403-3.7605,16.5314c-4.7666,18.8313-18.2859,55.9421-25.5673,70.1819
		c-21.6384,42.3154-52.9499,67.3959-89.3244,71.5472c-20.3403,2.3214-36.2395-1.7445-49.0625-12.5485
		c-15.4807-13.0422-20.7054-29.8979-14.5149-46.8237c4.1711-11.4036,13.2567-19.0394,25.0498-21.1704
		c-1.1855,3.7119-1.5258,7.6353-0.682,10.5052c1.9801,6.7355,9.0455,10.5905,15.781,8.6105
		c6.7355-1.9802,10.5905-9.0457,8.6104-15.7811c-1.0538-3.5846-3.3818-7.8746-6.326-10.8378
		c-0.0386-0.0443-0.0715-0.0959-0.1102-0.1401c-5.6351-6.4214-12.705-11.5837-20.5494-14.9718
		c-5.4388-2.3488-11.2402-3.8212-17.134-4.4161c3.8689,0.9049,7.6646,2.1708,11.3123,3.7463
		c6.9419,2.9985,13.375,7.1855,18.9379,12.3064c-0.4174,0.0386-0.8231,0.104-1.2443,0.2278
		c-3.3777,0.9929-6.1985,4.6426-7.9221,8.8838c-0.9326,0.0535-1.9456,0.1296-3.0367,0.2336
		c-22.547,2.1508-37.4388,24.8689-31.1681,47.5474c5.6648,20.4858,24.7239,35.8605,49.1561,39.6531
		c10.6002,1.6453,32.8236-1.0001,43.8181-5.2158c14.6244-5.6077,28.0565-13.9294,40.1183-24.855
		c7.705-6.9792,23.5512-26.8281,29.5792-37.05c4.6101-7.8179,9.0647-16.6121,13.2908-26.1639
		c-0.0887,0.6-0.1844,1.1984-0.2678,1.7997c-0.0417,0.301-0.0793,0.6031-0.1196,0.9045
		c-6.8367,17.5105-16.0142,34.0913-27.5662,48.9036c-16.8362,21.5879-38.7856,39.3483-63.8967,50.2526
		c-15.5743,6.7629-32.3845,10.8807-49.3633,10.9579c-16.979,0.077-34.1252-3.9792-48.7161-12.6614
		c-10.957-6.5195-20.4032-15.7109-26.9386-26.6224c-6.4127,10.984-15.7554,20.2806-26.6388,26.9225
		c-14.4927,8.8447-31.5924,13.0929-48.5712,13.2061c-16.9786,0.1128-33.8339-3.8164-49.4829-10.4045
		c-25.2316-10.6226-47.3785-28.136-64.4554-49.5339c-11.717-14.6821-21.0796-31.1591-28.1118-48.5919
		c-0.0437-0.3009-0.0848-0.6027-0.1299-0.9032c-0.0901-0.6003-0.1925-1.1975-0.288-1.7966
		c4.3329,9.504,8.8856,18.2478,13.5829,26.0134c6.1421,10.1541,22.2095,29.8242,29.9922,36.7166
		c12.1832,10.7899,25.7078,18.9609,40.3939,24.4043c11.0411,4.0924,33.2927,6.4888,43.8739,4.7249
		c24.3882-4.0659,43.2739-19.6528,48.709-40.2009c6.0164-22.7473-9.1289-45.2971-31.6985-47.1953
		c-1.0923-0.0918-2.1062-0.1566-3.0393-0.1997c-1.771-4.2216-4.6323-7.8394-8.021-8.7944c-0.4224-0.1191-0.8289-0.1799-1.2468-0.214
		c5.5054-5.1827,11.8911-9.4415,18.799-12.5177c3.63-1.6162,7.4113-2.9246,11.2695-3.8728
		c-5.8866,0.6611-11.6711,2.1984-17.0834,4.6079c-7.8062,3.4756-14.8176,8.7168-20.3806,15.2009
		c-0.0381,0.0444-0.0704,0.0967-0.1086,0.1412c-2.9108,2.996-5.1907,7.3118-6.2042,10.9081
		c-1.9047,6.7571,2.0293,13.7791,8.7865,15.6836s13.7791-2.0293,15.6836-8.7866c0.8115-2.8793,0.4275-6.7985-0.7996-10.4968
		c11.8162,1.9988,20.9867,9.5323,25.2852,20.8887c6.3798,16.8552,1.3442,33.7683-13.9895,46.9832
		c-12.7013,10.9468-28.554,15.1907-48.9191,13.097c-36.4187-3.7438-68.0092-28.472-90.1198-70.5426
		c-7.4404-14.1572-21.3744-51.1145-26.3516-69.8911c-1.3455-5.0764-2.6859-10.7087-3.9453-16.4883
		c-2.365-38.1929,3.5626-77.0933,14.4292-113.9531c2.4246-8.2239,5.0833-16.3572,7.9396-24.4141
		c-4.4366,7.3066-9.0575,14.5085-13.8966,21.5864c-21.6892,31.7223-48.0818,60.9081-79.1688,83.2212
		c-5.2743,2.6782-10.4857,5.2004-15.2694,7.3672c-17.6947,8.0144-55.1384,20.5828-70.8113,23.7683
		c-46.5748,9.4658-85.7059,0.6228-111.6307-25.2275c-14.497-14.4553-21.231-29.4209-20.7792-46.1825
		c0.5449-20.2351,10.4656-34.8292,27.5584-40.5422c11.5164-3.849,23.1511-1.5065,32.17,6.3853
		c-3.6413,1.3873-6.9207,3.5675-8.6385,6.0166c-4.0314,5.7476-2.6403,13.6752,3.1074,17.7065s13.6752,2.6403,17.7066-3.1074
		c2.1456-3.059,4.0481-7.5538,4.5291-11.7032c0.0105-0.0579,0.0305-0.1157,0.0408-0.1736
		c1.5069-8.4093,1.1351-17.1553-1.107-25.4009c-1.5547-5.7167-4.0206-11.1704-7.2301-16.1493
		c1.7047,3.589,3.0815,7.3458,4.124,11.1801c1.9839,7.2969,2.7213,14.937,2.186,22.4791c-0.2905-0.3022-0.5946-0.5787-0.9539-0.8307
		c-2.8824-2.0217-7.4945-1.9517-11.885-0.6548c-0.6233-0.6958-1.3145-1.4404-2.0761-2.2286
		c-15.7393-16.287-42.7859-13.7654-56.6069,5.277c-12.4846,17.2017-12.6218,41.6887-0.3536,63.1552
		c5.3227,9.3134,21.2471,25.0389,31.3981,31.0063c13.5022,7.9376,28.3834,13.2506,44.4457,15.8688
		c10.2604,1.6727,35.6589,1.6863,47.4092,0.0256c8.9866-1.27,18.6395-3.2703,28.7424-5.9218
		c-0.5244,0.3048-1.0519,0.603-1.5739,0.9127c-0.2615,0.1552-0.5211,0.314-0.7819,0.4705
		c-17.9529,5.5725-36.6382,8.7351-55.4216,8.9388c-27.3752,0.2968-54.9461-5.7906-79.128-18.6246
		c-14.9979-7.9597-28.6982-18.5352-39.3447-31.7616c-10.6464-13.2267-18.1656-29.1613-20.4749-45.9819
		c-1.7345-12.6315-0.4379-25.7474,4.0183-37.6603c-12.5859,1.8347-25.6794,0.3267-37.6578-4.0413
		c-15.9512-5.8162-29.934-16.5366-40.6086-29.7405c-10.6743-13.2041-18.1113-28.832-22.7175-45.1746
		c-7.4267-26.3499-7.5425-54.5845-1.4601-81.2771c4.1735-18.3149,11.2182-35.9081,20.4631-52.2754
		c0.2081-0.2217,0.4183-0.4419,0.6252-0.6647c0.4131-0.4447,0.8163-0.8971,1.2251-1.3451
		c-4.7291,9.3131-8.7266,18.3242-11.8693,26.8386c-4.1092,11.1328-9.4701,35.959-10.0063,46.3411
		c-0.8397,16.2527,1.2044,31.9211,6.1052,46.7971c3.6844,11.1838,15.6845,30.075,23.6608,37.2478
		c18.3846,16.5325,42.3461,21.5796,61.8,13.0175c21.5356-9.4789,29.723-35.3795,17.135-54.2086
		c-0.6092-0.9113-1.1907-1.7444-1.7388-2.5007c2.1964-4.0167,3.2408-8.5095,1.8748-11.7544
		c-0.1703-0.4045-0.3762-0.7603-0.6101-1.1082c7.4846,1.0728,14.7957,3.4099,21.5076,6.8929
		c3.5269,1.8302,6.9073,3.9708,10.0543,6.3962c-4.1871-4.1903-8.9955-7.7543-14.2538-10.4834
		c-7.5845-3.936-16.0538-6.15-24.5917-6.4567c-0.0587-0.002-0.1195,0.0052-0.1782,0.0033
		c-4.1572-0.4078-8.9529,0.5006-12.3965,1.9503c-6.4705,2.7239-9.5077,10.1776-6.7837,16.6482
		c2.724,6.4705,10.1777,9.5076,16.6482,6.7834c2.7571-1.1606,5.5818-3.9045,7.7083-7.1698
		c5.8046,10.4845,5.6323,22.3514-0.5662,32.7926c-9.2004,15.4971-25.5632,22.1052-45.4554,18.3562
		c-16.4777-3.1051-29.6796-12.8533-40.7402-30.0806c-19.7796-30.8076-20.1426-70.9238-1.0363-114.4412
		c6.4297-14.644,26.6362-48.5804,38.2133-64.1788c3.1299-4.2169,6.6976-8.7767,10.4312-13.3649
		c28.3857-25.6619,62.4951-45.2815,98.0884-59.7674c7.9415-3.2319,15.9581-6.2244,24.038-9.0145
		c-8.4787,1.0869-16.9904,1.9645-25.5413,2.5941c-38.3245,2.8213-77.5984,0.3837-114.426-10.0091
		c-5.3824-2.4537-10.6035-4.9556-15.2802-7.3447c-17.2985-8.8374-50.4706-30.2758-62.733-40.5432
		c-36.4396-30.5118-53.9236-66.6193-49.8768-103.0056c2.2629-20.347,9.7649-34.9427,23.1513-45.0402
		c16.1601-12.1904,33.7557-13.5333,48.8796-3.7317c10.1896,6.6041,15.6122,17.161,15.0654,29.1327
		c-3.3549-1.9819-7.1041-3.1865-10.09-3.0026c-7.0072,0.4317-12.3378,6.4622-11.9061,13.4694
		c0.4316,7.0072,6.4622,12.3378,13.4694,11.9061c3.7293-0.2297,8.4297-1.5448,11.9738-3.7559
		c0.0518-0.0278,0.1094-0.0483,0.1611-0.0762c7.5142-4.0651,14.1204-9.8088,19.1691-16.7028
		c3.5001-4.7798,6.2266-10.1081,8.1182-15.7216c-1.7432,3.5704-3.8219,6.9892-6.1697,10.1949
		c-4.468,6.1006-9.9816,11.4406-16.2119,15.7246c0.0552-0.4156,0.0818-0.8257,0.0547-1.2637
		c-0.2164-3.514-3.1469-7.0762-6.8982-9.7003c0.1553-0.9211,0.3066-1.9257,0.4479-3.0127
		c2.9204-22.4603-15.9143-42.0339-39.4195-40.9669c-21.2329,0.9642-40.4631,16.1244-49.5972,39.1001
		c-3.9629,9.9683-6.329,32.2232-4.6654,43.8801c2.2127,15.5055,7.3369,30.4527,15.3047,44.6431
		c5.0895,9.0648,20.9147,28.9305,29.5391,37.082c6.5959,6.2341,14.1784,12.5339,22.5504,18.7795
		c-0.5652-0.22-1.1273-0.4465-1.6949-0.6615c-0.2843-0.1077-0.5704-0.2117-0.8553-0.3181
		c-15.5501-10.5617-29.6729-23.1985-41.5434-37.757c-17.3002-21.2178-29.731-46.569-34.7742-73.477
		c-3.1277-16.6887-3.4016-33.9937,0.3012-50.564c3.7031-16.5704,11.4731-32.3841,23.1843-44.6772
		c8.7943-9.2316,19.8572-16.3956,31.9493-20.3391c-9.2816-8.6962-16.2662-19.8732-20.3197-31.9617
		c-5.3982-16.0975-5.7347-33.7138-2.0668-50.2921c3.6681-16.5781,11.2495-32.1364,21.1547-45.927
		c15.9707-22.2354,37.9733-39.9299,62.6346-51.8171c16.9214-8.1563,35.0685-13.6176,53.6291-16.5944
		c0.3032,0.0244,0.6063,0.0515,0.9095,0.0744c0.6053,0.0458,1.2104,0.0789,1.8156,0.1191
		c-10.2299,2.1093-19.7674,4.6022-28.3837,7.4538c-11.2661,3.7285-34.0185,15.0161-42.4698,21.0699
		c-13.2304,9.4768-24.2059,20.8441-32.7809,33.9507c-6.4467,9.8536-13.7345,31.0141-14.3693,41.7224
		c-1.463,24.6815,9.5308,46.5622,28.3542,56.4334c20.8381,10.9272,46.1928,1.1796,53.0656-20.4019
		c0.3326-1.0444,0.6213-2.0184,0.871-2.9186c4.5098-0.7872,8.6737-2.7719,10.3589-5.863c0.21-0.3853,0.3598-0.7681,0.4859-1.1678
		c3.8278,6.5205,6.559,13.6938,8.0207,21.113c0.7681,3.8986,1.2021,7.8762,1.268,11.8488
		c0.6655-5.8862,0.4539-11.8677-0.6909-17.6804c-1.6516-8.3839-5.2012-16.3859-10.2847-23.2521
		c-0.035-0.0472-0.0786-0.0903-0.1136-0.1374c-2.2731-3.5045-5.9734-6.6876-9.2539-8.476
		c-6.164-3.3605-13.8852-1.0877-17.2456,5.0763c-3.3605,6.164-1.0876,13.8851,5.0764,17.2455
		c2.6265,1.4319,6.5329,1.9296,10.4116,1.5562c-4.578,11.0752-13.9634,18.3394-25.9914,20.0032
		c-17.8524,2.4691-33.2209-6.2039-42.6923-24.0937c-7.8461-14.8187-8.4559-31.2182-1.8831-50.6069
		c11.7538-34.6725,42.8917-59.9683,88.8275-72.1631c15.458-4.1035,54.5892-9.4644,74.0026-10.1385
		c5.2485-0.1821,11.0378-0.2357,16.9528-0.1774c37.7614,6.1929,74.3676,20.6281,107.8852,39.4242
		c7.4783,4.1939,14.816,8.5958,22.0352,13.1733c-6.1362-5.9513-12.1292-12.0588-17.9528-18.3516
		c-26.1007-28.2042-48.6818-60.4296-63.518-95.7023c-1.4374-5.738-2.7367-11.3799-3.7847-16.5259
		c-3.876-19.0345-7.7974-58.3361-7.4155-74.3249c1.1354-47.5134,18.4642-83.6956,49.4352-103.2182
		c17.3188-10.9169,33.4077-14.1519,49.6485-9.9816c19.6065,5.0339,31.6271,17.9534,33.3934,35.8889
		c1.1898,12.0842-3.683,22.9058-13.3837,29.9426c-0.5423-3.8587-1.938-7.541-3.9435-9.7607
		c-4.7065-5.2093-12.7448-5.6171-17.9542-0.9106c-5.2093,4.7064-5.6169,12.7448-0.9105,17.9541
		c2.5048,2.7725,6.4636,5.6275,10.402,7.0198c0.054,0.0231,0.1061,0.0554,0.1601,0.0784c7.8632,3.3404,16.4727,4.9241,25.0105,4.573
		c5.9193-0.2437,11.785-1.4341,17.3531-3.4553c-3.8782,0.8633-7.8472,1.3696-11.8174,1.5328
		c-7.5554,0.3104-15.168-0.6708-22.4019-2.8708c0.3593-0.2159,0.6965-0.4509,1.0222-0.7451
		c2.6124-2.3602,3.5703-6.8723,3.2831-11.4413c0.817-0.4528,1.6967-0.9609,2.6346-1.5281
		c19.381-11.7205,22.941-38.6501,7.4515-56.3619c-13.9924-15.9994-37.8348-21.5819-61.493-14.3981
		c-10.2643,3.1168-29.1392,15.1426-37.2158,23.7112c-10.743,11.3975-19.2343,24.7232-25.361,39.8002
		c-3.9139,9.631-9.5787,34.3897-10.5745,46.2149c-0.7615,9.0438-0.9593,18.8998-0.6225,29.3395
		c-0.1804-0.5791-0.3538-1.1598-0.5396-1.7376c-0.0931-0.2894-0.1902-0.5779-0.2847-0.867
		c-1.4379-18.7427-0.3634-37.6633,3.6177-56.0211c5.8022-26.7549,17.8721-52.2799,35.7653-72.9997
		c11.0976-12.8506,24.4564-23.8542,39.7203-31.2906c15.2641-7.4363,32.4723-11.2211,49.3852-9.7296
		c12.7007,1.1198,25.1993,5.3024,35.8218,12.2977c1.012-12.6786,5.3957-25.1082,12.3195-35.8143
		c9.2198-14.2571,22.783-25.5038,38.0313-32.9725c15.2482-7.4685,32.139-11.2416,49.0969-12.0957
		c27.3419-1.3771,54.8944,4.7928,79.5643,16.6624c16.927,8.1443,32.5115,18.9272,46.4111,31.5825
		c0.1699,0.2523,0.3379,0.5062,0.5089,0.7574c0.3417,0.5018,0.693,0.9955,1.0389,1.4937
		c-8.0273-6.6829-15.9231-12.5853-23.5247-17.5439c-9.9393-6.4835-32.9502-17.2343-42.9526-20.0674
		c-15.6583-4.4352-31.3887-5.9289-46.9823-4.4611c-11.7233,1.1034-32.8112,8.5989-41.579,14.7791
		c-20.209,14.2449-30.4614,36.4825-26.4429,57.3539c4.4492,23.1049,27.8785,36.8504,49.0366,28.7679
		c1.0239-0.3911,1.9656-0.7727,2.825-1.1387c3.4272,3.0351,7.575,5.0532,11.0425,4.4434c0.4323-0.076,0.825-0.1975,1.2161-0.3482
		c-2.7113,7.0582-6.6167,13.6659-11.5059,19.4345c-2.5693,3.0313-5.4084,5.8506-8.4733,8.379
		c5.017-3.1497,9.5616-7.0446,13.3923-11.5637c5.525-6.5185,9.5681-14.2828,11.7668-22.5383
		c0.015-0.0568,0.0216-0.1177,0.0365-0.1745c1.3228-3.9622,1.5043-8.8398,0.8572-12.5197
		c-1.2158-6.9144-7.8069-11.5341-14.7213-10.3181c-6.9144,1.2159-11.5339,7.8069-10.318,14.7213
		c0.5181,2.9463,2.5645,6.3107,5.2749,9.1104c-11.5134,3.326-23.0444,0.5175-31.8446-7.8491
		c-13.0612-12.4181-15.8625-29.8411-7.781-48.4003c6.6937-15.3737,19.1351-26.0753,38.392-33.0252
		c34.4365-12.4284,73.6276-3.8556,111.8024,24.4551c12.8461,9.5271,41.4354,36.7786,54.0665,51.5364
		c3.4148,3.9898,7.0662,8.4827,10.7085,13.1436c18.7021,33.3843,30.2397,71.0043,36.4423,108.9286
		c1.3837,8.4616,2.5172,16.943,3.4396,25.4412c0.8269-8.5081,1.8655-17.0016,3.1543-25.4781
		c5.7776-37.9914,16.8933-75.7382,35.2203-109.3298c3.59-4.7014,7.1909-9.2349,10.5607-13.2627
		c12.4652-14.8983,40.7476-42.4682,53.4862-52.1385c37.8553-28.7364,76.9481-37.7475,111.5217-25.7054
		c19.3333,6.7338,31.8938,17.2955,38.7593,32.5933c8.2888,18.4675,5.6826,35.9209-7.2386,48.4844
		c-8.7059,8.4645-20.2048,11.4021-31.7546,8.2051c2.6788-2.8298,4.6874-6.217,5.1725-9.1689
		c1.1384-6.9276-3.5547-13.4664-10.4822-14.6048c-6.9276-1.1384-13.4665,3.5547-14.6049,10.4823
		c-0.6058,3.687-0.3698,8.5621,0.9972,12.5094c0.0156,0.0566,0.0229,0.1174,0.0386,0.174
		c2.291,8.2304,6.4208,15.949,12.0185,22.4052c3.8811,4.476,8.4691,8.3197,13.521,11.413c-3.093-2.494-5.9635-5.2813-8.5665-8.2836
		c-4.9534-5.7135-8.9326-12.2771-11.7229-19.3044c0.3929,0.1462,0.7869,0.2634,1.22,0.3345
		c3.4741,0.5709,7.5991-1.4934,10.9922-4.5667c0.8633,0.3564,1.8091,0.7274,2.8374,1.1071
		c21.2473,7.845,44.5212-6.1619,48.7114-29.3152c3.7847-20.9151-6.7162-43.0365-27.0833-57.0542
		c-8.8367-6.0817-30.0071-13.3406-41.742-14.3127c-15.6091-1.2931-31.3218,0.3766-46.9294,4.9869
		c-9.97,2.9448-32.8591,13.9526-42.7253,20.547c-7.5455,5.0433-15.3745,11.0339-23.3267,17.8062
		c0.3403-0.5021,0.6863-0.9998,1.0222-1.5052c0.1682-0.2532,0.3333-0.509,0.5002-0.7631
		c13.7572-12.8101,29.22-23.7668,46.0547-32.1002c24.5355-12.145,52.0173-18.623,79.3729-17.5521
		c16.9663,0.6642,33.8984,4.2479,49.2292,11.5452c15.3309,7.2975,29.0193,18.3917,38.3981,32.5446
		c7.0433,10.6279,11.5659,23.0076,12.7198,35.6742c10.5435-7.1139,22.9944-11.4362,35.6819-12.6981
		c16.895-1.6808,34.1445,1.9111,49.491,9.176c15.3462,7.2651,28.8274,18.1184,40.0681,30.844
		c18.124,20.5181,30.479,45.9064,36.5804,72.5947c4.1864,18.312,5.4728,37.2194,4.2448,55.9771
		c-0.0913,0.2902-0.1851,0.5797-0.2749,0.8702c-0.1793,0.5798-0.3462,1.1624-0.5201,1.7435
		c0.2198-10.4427-0.0883-20.296-0.9509-29.3307c-1.1281-11.8133-7.0698-36.507-11.0913-46.0936
		c-6.2952-15.0074-14.9352-28.2373-25.8051-39.5137c-8.172-8.4777-27.1804-20.2914-37.4789-23.2931
		c-23.7372-6.9185-47.5156-1.0693-61.328,15.0857c-15.29,17.8842-11.4287,44.7722,8.0823,56.2749
		c0.9441,0.5566,1.8296,1.0549,2.6516,1.4985c-0.2361,4.572,0.7722,9.0731,3.4109,11.4039
		c0.3289,0.2905,0.6687,0.5217,1.0304,0.7336c-7.2087,2.2809-14.8099,3.3473-22.3683,3.1215
		c-3.9718-0.1187-7.9463-0.5806-11.834-1.4004c5.5906,1.9586,11.4692,3.0834,17.3909,3.2607
		c8.5411,0.2554,17.1323-1.4246,24.9578-4.8527c0.0537-0.0236,0.1053-0.0565,0.1592-0.0803
		c3.9224-1.4363,7.8491-4.3354,10.3226-7.1358c4.6478-5.2617,4.1503-13.295-1.1115-17.9428
		c-5.2617-4.6478-13.295-4.1501-17.9429,1.1116c-1.9805,2.2421-3.335,5.9398-3.834,9.8043
		c-9.7788-6.9277-14.7725-17.6942-13.718-29.7908c1.5654-17.9542,13.4407-31.0075,32.9895-36.2606
		c16.1931-4.3519,32.3171-1.2971,49.7571,9.4252c31.1877,19.1746,48.9205,55.1605,50.5879,102.6582
		c0.5608,15.9836-2.9202,55.3265-6.5828,74.4033c-0.9904,5.1574-2.2263,10.8135-3.5995,16.5673
		c-14.4403,35.4366-36.6592,67.9128-62.4425,96.4075c-5.7527,6.3576-11.677,12.5319-17.7462,18.5515
		c7.1675-4.658,14.4554-9.1418,21.8864-13.4191c33.3051-19.1702,69.7473-34.0144,107.437-40.6297
		c5.9141-0.1246,11.7036-0.1358,16.9537-0.0125c19.4198,0.4567,58.6085,5.3792,74.1115,9.3093
		c46.0696,11.6797,77.4885,36.6252,89.6299,71.164c6.7896,19.3138,6.3633,35.7192-1.3164,50.6248
		c-9.2705,17.9948-24.541,26.8392-42.4198,24.5701c-12.0459-1.529-21.5121-8.6877-26.2137-19.7109
		c3.8827,0.33,7.7832-0.2114,10.3936-1.6727c6.126-3.4293,8.3123-11.1754,4.8831-17.3013
		c-3.4293-6.126-11.1755-8.3121-17.3015-4.8829c-3.2603,1.8251-6.9246,5.0493-9.1584,8.5791
		c-0.0344,0.0475-0.0776,0.0911-0.1121,0.1386c-5.0063,6.9228-8.4661,14.9641-10.0237,23.3658
		c-1.0796,5.8251-1.2241,11.8087-0.4928,17.687c0.0214-3.9731,0.4109-7.9553,1.1353-11.8622
		c1.3785-7.4351,4.0292-14.6385,7.7838-21.2015c0.1306,0.3984,0.2847,0.7794,0.4989,1.1624c1.7198,3.0721,5.9056,5.01,10.424,5.7466
		c0.2598,0.8973,0.5593,1.868,0.9036,2.9087c7.114,21.5031,32.5762,30.9662,53.2906,19.8064
		c18.7118-10.0814,29.4598-32.0838,27.7206-56.7473c-0.7546-10.7006-8.2788-31.7781-14.8354-41.559
		c-8.7212-13.0098-19.8232-24.2535-33.1589-33.5815c-8.5187-5.9589-31.396-16.991-42.7031-20.5931
		c-8.6477-2.7549-18.2125-5.1409-28.4653-7.1356c0.6047-0.047,1.2094-0.0869,1.8141-0.1394
		c0.3029-0.0263,0.6057-0.0568,0.9086-0.0846c18.5928,2.7688,36.7999,8.0266,53.8115,15.9929
		c24.793,11.6103,46.9922,29.0574,63.2109,51.1125c10.0591,13.679,17.8141,29.1514,21.6675,45.6873
		c3.8533,16.5361,3.7141,34.1551-1.5035,50.312c-3.9178,12.1331-10.7769,23.3876-19.9606,32.1872
		c12.1356,3.8079,23.2781,10.8475,32.175,19.9802c11.8481,12.1611,19.7947,27.8868,23.6831,44.4147
		c3.8882,16.5278,3.8081,33.8348,0.8672,50.5575c-4.7415,26.9628-16.8877,52.4516-33.9492,73.8618
		C1534.907,877.5269,1520.9266,890.321,1505.4957,901.0562z"/>
	<path fill="#2E3436" d="M1324.7214,1227.947c-0.0205,0.3091-0.0391,0.6182-0.0553,0.9275c-0.297,0.0881-0.5933,0.1782-0.889,0.2704
		c-10.8596,3.3857-20.8361,9.5974-28.6836,17.8304c-5.1062,5.3569-9.2896,11.5535-12.3892,18.2728
		c2.0447-3.2511,4.3914-6.3124,7.0411-9.0925c6.738-7.069,15.3151-12.3851,24.6383-15.2916
		c7.2454-2.2588,14.9417-3.0498,22.5-2.3577c-2.4374-7.188-3.4646-14.8562-2.9595-22.4287
		c0.6499-9.7441,3.8171-19.3252,9.118-27.5271c2.0847-3.2256,4.5137-6.2219,7.1976-8.9691
		c-5.8101,4.5824-10.859,10.0968-14.876,16.3121C1329.1902,1205.4463,1325.4788,1216.5969,1324.7214,1227.947z"/>
	<path fill="#2E3436" d="M1371.0122,754.0833c-9.095-9.3356-21.2227-15.8323-34.161-17.4047
		c-12.9382-1.5729-26.5969,1.9772-36.6268,10.3006c-5.7688,4.7872-10.2927,11.0565-13.011,18.043
		c-2.7177,6.9864-3.6165,14.6797-2.5989,22.1068c0.6621,4.832,2.1359,9.5339,4.3245,13.8918
		c-0.835-2.3895-1.448-4.8564-1.7916-7.3644c-0.8737-6.3763-0.0885-12.9805,2.2448-18.9788
		c2.3333-5.998,6.2253-11.3823,11.1782-15.4921c8.611-7.1457,20.3124-10.1869,31.4194-8.8369
		c11.1082,1.3505,21.5403,6.9193,29.3491,14.934c7.8086,8.015,13.0453,18.3786,15.6075,29.2712
		c2.5624,10.8926,2.5096,22.2984,0.5715,33.3186c-3.1249,17.7698-11.1298,34.5673-22.3732,48.6772
		c-11.2439,14.1099-25.6703,25.567-41.6016,34.0347c-21.229,11.2835-44.8337,17.1718-68.8761,19.1818
		c20.9252,12.0091,39.8102,27.3454,54.2572,46.5619c10.8418,14.4209,19.0536,30.9118,23.2587,48.457
		c4.2046,17.545,4.337,36.1519-0.3629,53.5715c-2.9146,10.803-7.7002,21.1564-14.637,29.9368
		c-6.9368,8.7803-16.0718,15.9482-26.541,19.8989c-10.4695,3.9503-22.2786,4.5735-32.9121,1.0895
		c-10.6326-3.484-19.9426-11.1974-24.7141-21.3187c-2.7444-5.8214-3.9882-12.3477-3.5598-18.7693
		c0.4285-6.4218,2.5159-12.7363,6.0094-18.1416c1.3739-2.126,2.9746-4.1007,4.7435-5.9113
		c-3.8291,3.0199-7.1565,6.6542-9.8038,10.7504c-4.0691,6.2959-6.5153,13.6453-7.0142,21.125
		c-0.4985,7.48,0.9423,15.0757,4.1389,21.8564c5.5575,11.7893,16.4247,20.7931,28.8104,24.8512
		c12.3854,4.0586,26.1235,3.3135,38.3176-1.2883c12.1942-4.6019,22.8303-12.9318,30.9102-23.1588
		c5.0497-6.3914,9.1422-13.5023,12.3162-21.0115l-0.0032-0.001c1.9043-4.5055,3.4675-9.1572,4.7407-13.876
		c5.4734-20.2891,5.3193-41.9468,0.4216-62.3829c-4.8979-20.4362-14.4614-39.6544-27.0898-56.4515
		c-7.7075-10.2522-16.5029-19.551-26.1116-27.9662c12.2693-3.5505,24.1765-8.2458,35.5023-14.2657
		c18.5565-9.8627,35.3629-23.2173,48.4595-39.6523c13.0964-16.4349,22.4139-35.9865,26.0541-56.6832
		c0.8464-4.8137,1.4019-9.6895,1.5862-14.5773l0.0034,0.0004c0.3071-8.1465-0.3862-16.3218-2.2517-24.2508
		C1386.2112,775.4713,1380.1073,763.4191,1371.0122,754.0833z"/>
	<path fill="#2E3436" d="M812.1557,1355.8186c4.4126-12.2639,3.9907-26.3701-1.8921-38.0005
		c-3.3835-6.6896-8.4889-12.4951-14.6953-16.6997c-6.2065-4.2043-13.507-6.7925-20.9744-7.4531
		c-4.8582-0.4297-9.77-0.0391-14.5057,1.1248c2.5155-0.2822,5.0569-0.3311,7.5784-0.1079
		c6.4109,0.5671,12.6748,2.8022,18.0034,6.4117c5.3285,3.6095,9.7115,8.6021,12.6163,14.3451
		c5.0503,9.9852,5.4116,22.0699,1.6238,32.5981c-3.7883,10.5292-11.5389,19.4606-21.0903,25.2903
		c-9.5515,5.8291-20.8206,8.6285-32.0103,8.7026c-11.1897,0.0743-22.2977-2.5151-32.6104-6.8568
		c-16.6289-7.0006-31.224-18.5427-42.4783-32.6439c-11.2542-14.1018-19.2139-30.7159-23.9241-48.132
		c-6.2767-23.2076-6.7649-47.5306-3.3745-71.4176c-16.3644,17.7283-35.5186,32.7272-57.468,42.5359
		c-16.4717,7.3611-34.3765,11.6973-52.4175,11.8928c-18.0407,0.1951-36.2105-3.8162-52.1476-12.2745
		c-9.8836-5.2454-18.9125-12.2148-25.9291-20.9316c-7.0167-8.7167-11.9721-19.2177-13.4942-30.3036
		c-1.5215-11.0859,0.4985-22.7375,6.2615-32.3293c5.7627-9.5907,15.3543-16.9509,26.2838-19.3506
		c6.2861-1.3801,12.9254-1.1405,19.0907,0.7061c6.1655,1.8467,11.8572,5.287,16.3496,9.8956
		c1.7669,1.8126,3.3359,3.8126,4.7074,5.9399c-2.092-4.4049-4.8948-8.4578-8.2992-11.9501
		c-5.2327-5.3682-11.8534-9.3883-19.0346-11.5392c-7.1815-2.1505-14.9073-2.4359-22.2294-0.8282
		c-12.7305,2.7947-23.9267,11.386-30.6391,22.5581c-6.7129,11.1716-9.0435,24.7312-7.2705,37.6436
		c1.7731,12.9126,7.5273,25.1355,15.7,35.2886c5.1075,6.3452,11.1295,11.9175,17.7441,16.6829l0.0018-0.0029
		c3.9687,2.8591,8.1559,5.4182,12.4731,7.7095c18.5624,9.8511,39.7114,14.52,60.7249,14.2925
		c21.0137-0.2275,41.8782-5.2747,61.0642-13.8489c11.7102-5.2329,22.733-11.7388,33.0754-19.2339
		c0.7312,12.7518,2.6592,25.4053,6.0081,37.7866c5.4862,20.2861,14.7661,39.6428,27.8748,56.0681
		c13.1086,16.425,30.0968,29.8596,49.4646,38.0139c4.5046,1.8965,9.1345,3.5228,13.8589,4.7903l-0.0012,0.0032
		c7.874,2.1123,15.9985,3.2554,24.1439,3.2012c13.0333-0.0867,26.1415-3.3557,37.2672-10.1453
		C798.7111,1378.4607,807.7437,1368.0825,812.1557,1355.8186z"/>
	<path fill="#2E3436" d="M863.6285,1457.7417c-11.3179,1.1292-22.3499,5.1799-31.6959,11.6643
		c-0.2544,0.1766-0.5077,0.355-0.7596,0.5352c-0.254-0.1774-0.5092-0.3528-0.7656-0.5266
		c-9.4181-6.3794-20.4948-10.3064-31.8245-11.3086c-7.3717-0.6522-14.8247-0.0594-22.0107,1.7065
		c3.8168-0.4285,7.6732-0.5024,11.4989-0.1641c9.7278,0.8606,19.2319,4.252,27.3171,9.729
		c6.2834,4.2563,11.7006,9.7802,15.8718,16.1211c4.1001-6.3872,9.4551-11.9714,15.6904-16.2979
		c8.0234-5.5673,17.489-9.0647,27.2065-10.0342c3.8217-0.3811,7.6787-0.3503,11.5,0.0354
		C878.4516,1457.5164,870.9924,1457.0071,863.6285,1457.7417z"/>
	<path fill="#2E3436" d="M1192.6948,1150.375c-7.3396-1.5256-15.0618-1.1537-22.2188,1.0771
		c-7.1567,2.2311-13.7319,6.3252-18.9043,11.7515c-3.365,3.5303-6.1222,7.6143-8.1648,12.0422
		c1.3477-2.1426,2.894-4.1599,4.6406-5.9922c4.4406-4.6587,10.0935-8.1624,16.2378-10.0781
		c6.1443-1.9154,12.7805-2.2295,19.0817-0.9197c10.9557,2.2771,20.629,9.5295,26.4987,19.0551
		c5.8701,9.5267,8.0205,21.1549,6.6232,32.2572c-1.3978,11.1023-6.2355,21.6581-13.1541,30.4528
		c-6.9186,8.7948-15.8688,15.8649-25.6931,21.2206c-15.8413,8.6362-33.9652,12.8508-52.007,12.8577
		c-18.042,0.0066-35.9941-4.1289-52.5474-11.3051c-22.0579-9.5624-41.3788-24.3459-57.9406-41.8898
		c3.6575,23.8474,3.4418,48.1744-2.5747,71.4509c-4.515,17.4675-12.2882,34.1698-23.3837,48.3967
		c-11.0957,14.2263-25.5605,25.9312-42.1101,33.1174c-10.2634,4.457-21.3418,7.1707-32.5316,7.2217s-22.4894-2.6219-32.1057-8.3438
		c-9.6161-5.7224-17.4662-14.5665-21.3722-25.0525c-3.9053-10.4852-3.6794-22.5732,1.2588-32.6144
		c2.8402-5.7753,7.1671-10.8165,12.4548-14.4855c5.288-3.6689,11.5264-5.9741,17.9305-6.6129
		c2.5189-0.2513,5.0607-0.2311,7.5791,0.0231c-4.7484-1.1108-9.6644-1.4463-14.5175-0.9622
		c-7.4595,0.7441-14.7305,3.4138-20.8895,7.6873c-6.1589,4.2739-11.1991,10.1362-14.5074,16.8633
		c-5.7522,11.6956-6.0161,25.8057-1.4666,38.0193c4.5491,12.2139,13.6973,22.4902,24.8979,29.1548
		c11.2009,6.6646,24.345,9.7865,37.3784,9.7273c8.1455-0.037,16.2566-1.271,24.1064-3.4713l-0.0011-0.0033
		c4.7098-1.3201,9.3212-2.9983,13.8043-4.9451c19.2754-8.3706,36.1119-21.9944,49.0359-38.5654
		c12.9238-16.5709,21.9866-36.0303,27.2453-56.3765c3.2101-12.4181,4.9962-25.0925,5.5846-37.8516
		c10.4257,7.3789,21.5208,13.7609,33.2888,18.8623c19.2808,8.3589,40.2004,13.1721,61.2153,13.1643
		c21.0148-0.0078,42.1102-4.9133,60.5612-14.9716c4.2913-2.3395,8.4496-4.9452,12.386-7.8486l0.0018,0.0029
		c6.5608-4.8392,12.52-10.4784,17.5562-16.8805c8.0585-10.244,13.6755-22.5305,15.304-35.4622
		c1.6282-12.9314-0.854-26.464-7.6917-37.5598C1216.7476,1161.4924,1205.4558,1153.0271,1192.6948,1150.375z"/>
	<path fill="#2E3436" d="M695.4538,389.78c-1.6935,1.9981-3.5651,3.8565-5.5854,5.5231l0.0001,0.0003
		c3.3068-2.0759,6.3024-4.643,8.8271-7.6217c3.6412-4.2959,6.3059-9.4126,7.7548-14.8534c0.0099-0.0375,0.0142-0.0776,0.024-0.115
		c0.8718-2.6112,0.9913-5.8258,0.5648-8.2509c-0.8013-4.5569-5.145-7.6013-9.7018-6.8c-4.5568,0.8013-7.6013,5.145-6.8,9.7018
		c0.8013,4.5568,7.1411,10.639,11.6979,9.8377c0.2848-0.0501,0.5436-0.1303,0.8014-0.2296
		C701.2499,381.6241,698.676,385.9785,695.4538,389.78z"/>
	<path fill="#2E3436" d="M395.5427,661.5146c0.5063,2.5698,0.7923,5.1918,0.8357,7.8104l0.0003,0.0002
		c0.4388-3.8797,0.2994-7.8223-0.4553-11.6533c-1.0885-5.5252-3.4274-10.7988-6.7779-15.3239
		c-0.0231-0.0311-0.0518-0.0594-0.0749-0.0905c-1.498-2.3096-3.9367-4.4073-6.0987-5.5859
		c-4.0623-2.2147-9.1508-0.7169-11.3654,3.3455c-2.2147,4.0623-0.7168,9.1508,3.3454,11.3654
		c4.0623,2.2147,12.7703,1.0502,14.9849-3.012c0.1384-0.254,0.237-0.5063,0.3202-0.7697
		C392.7799,651.8979,394.5795,656.6252,395.5427,661.5146z"/>
	<path fill="#2E3436" d="M421.0018,1065.4183c2.3248,1.2064,4.5531,2.6177,6.6275,4.2164l0.0003-0.0002
		c-2.7597-2.762-5.929-5.1112-9.3948-6.9097c-4.9985-2.594-10.5798-4.0533-16.2066-4.2552
		c-0.0388-0.0013-0.0788,0.0034-0.1175,0.0021c-2.7397-0.2688-5.9003,0.33-8.1697,1.2854
		c-4.2643,1.7953-6.2658,6.7074-4.4706,10.9717c1.7952,4.2643,6.7074,6.2659,10.9717,4.4707
		c4.2643-1.7953,8.7832-9.3295,6.988-13.5938c-0.1122-0.2665-0.248-0.5009-0.4022-0.7302
		C411.7606,1061.5825,416.5786,1063.1229,421.0018,1065.4183z"/>
	<path fill="#2E3436" d="M752.66,1297.3435c2.3927-1.0654,4.8854-1.9277,7.4286-2.5529l0.0001-0.0002
		c-3.8801,0.4355-7.6928,1.4486-11.2599,3.037c-5.1445,2.2906-9.7654,5.7444-13.4315,10.0178
		c-0.0253,0.0294-0.0464,0.0636-0.0716,0.093c-1.9183,1.9744-3.4208,4.8188-4.0888,7.1888
		c-1.2552,4.4532,1.3373,9.0808,5.7906,10.3361c4.4532,1.2551,9.0809-1.3374,10.336-5.7906
		c1.2552-4.4532-1.8178-12.6838-6.271-13.939c-0.2783-0.0785-0.5463-0.1184-0.8216-0.1409
		C743.8991,1302.1769,748.1075,1299.3705,752.66,1297.3435z"/>
	<path fill="#2E3436" d="M1140.7719,1182.6456c0.6588-2.535,1.5388-5.0215,2.6359-7.3995l-0.0002-0.0004
		c-2.0786,3.3052-3.6637,6.9177-4.646,10.6969c-1.4166,5.4503-1.5974,11.2164-0.5421,16.7471
		c0.0072,0.0381,0.0208,0.076,0.0281,0.1141c0.3475,2.7307,1.6346,5.6788,3.0712,7.6788c2.6991,3.7579,7.9335,4.6162,11.6914,1.9171
		c3.7578-2.6991,4.6162-7.9336,1.9171-11.6914s-11.05-6.4869-14.8079-3.788c-0.2349,0.1687-0.4331,0.3533-0.6224,0.5546
		C1139.0885,1192.5087,1139.5181,1187.4688,1140.7719,1182.6456z"/>
	<path fill="#2E3436" d="M1293.0812,807.6946c-1.5712-2.0956-2.9666-4.3339-4.1418-6.6744h-0.0002
		c1.288,3.6859,3.1241,7.1776,5.4663,10.3017c3.3781,4.5058,7.7734,8.2424,12.7555,10.8656
		c0.0343,0.0181,0.0724,0.0311,0.1067,0.0491c2.3517,1.4309,5.4591,2.2628,7.9183,2.3867c4.621,0.2327,8.5557-3.3245,8.7883-7.9454
		c0.2328-4.6209-3.3245-8.5555-7.9453-8.7883c-4.621-0.2328-11.9613,4.5947-12.1941,9.2155
		c-0.0145,0.2888,0.0061,0.559,0.0455,0.8324C1299.7429,815.1603,1296.0703,811.6819,1293.0812,807.6946z"/>
	<path fill="#2E3436" d="M1094.896,454.8362c-2.618-0.0782-5.2379-0.3828-7.8005-0.9232l-0.0002,0.0002
		c3.6848,1.2911,7.5594,2.0326,11.4624,2.1493c5.6289,0.1683,11.2908-0.9385,16.448-3.198
		c0.0355-0.0156,0.0695-0.0372,0.1049-0.0529c2.5851-0.9465,5.1729-2.8573,6.803-4.7028c3.0631-3.4676,2.7351-8.7618-0.7325-11.8249
		c-3.4677-3.0631-8.7618-2.7351-11.8248,0.7325c-3.0631,3.4676-3.8655,12.2164-0.3979,15.2794
		c0.2168,0.1914,0.4408,0.3437,0.6792,0.4834C1104.8865,454.2826,1099.8772,454.9853,1094.896,454.8362z"/>
	<path fill="#2E3436" d="M954.7894,388.3282c1.7158,1.979,3.6081,3.8163,5.6469,5.4602l-0.0001,0.0003
		c-3.3299-2.0388-6.354-4.5721-8.9119-7.5224c-3.689-4.2549-6.4109-9.3414-7.9207-14.7657
		c-0.0104-0.0374-0.015-0.0774-0.0253-0.1147c-0.9009-2.6013-1.0565-5.8143-0.6572-8.2441
		c0.7502-4.5656,5.0595-7.6584,9.6251-6.9082c4.5655,0.7502,7.6584,5.0595,6.9081,9.625s-7.0215,10.7182-11.587,9.968
		c-0.2853-0.0469-0.545-0.1242-0.8039-0.2206C948.9023,380.2376,951.5248,384.5629,954.7894,388.3282z"/>
	<path fill="#2E3436" d="M556.1006,457.8527c2.617-0.1075,5.2334-0.4415,7.7898-1.0105l0.0002,0.0002
		c-3.6701,1.3323-7.5363,2.1171-11.4377,2.2775c-5.6266,0.2313-11.3005-0.812-16.4827-3.0137
		c-0.0357-0.0151-0.0699-0.0365-0.1055-0.0517c-2.5955-0.9175-5.2045-2.7992-6.8552-4.6263
		c-3.1017-3.4331-2.833-8.7306,0.6001-11.8323c3.4331-3.1017,8.7307-2.833,11.8323,0.6001s4.002,12.1724,0.569,15.274
		c-0.2146,0.1939-0.437,0.3486-0.6737,0.491C546.1047,457.411,551.1215,458.0575,556.1006,457.8527z"/>
	<path fill="#2E3436" d="M361.8787,812.908c1.5476-2.1131,2.9178-4.3668,4.0668-6.7203h0.0003
		c-1.2467,3.7001-3.0436,7.2121-5.3507,10.3623c-3.3273,4.5433-7.6807,8.3289-12.633,11.0077
		c-0.0341,0.0184-0.0721,0.0319-0.1062,0.0503c-2.3356,1.4572-5.4335,2.3237-7.8912,2.4752
		c-4.618,0.2845-8.5923-3.2285-8.8767-7.8466c-0.2845-4.618,3.2285-8.5922,7.8465-8.8767s12.012,4.4604,12.2964,9.0784
		c0.0178,0.2886,0.0002,0.559-0.0362,0.8328C355.301,820.4478,358.9344,816.9285,361.8787,812.908z"/>
	<path fill="#2E3436" d="M518.3768,1186.1301c-0.6872-2.5275-1.595-5.0039-2.7186-7.3696l0.0002-0.0002
		c2.1155,3.2816,3.741,6.8762,4.7655,10.644c1.4775,5.4342,1.7229,11.198,0.7296,16.7401c-0.0068,0.0381-0.02,0.0763-0.0269,0.1144
		c-0.3169,2.7345-1.5709,5.6968-2.9849,7.7128c-2.6569,3.7878-7.8813,4.7047-11.6692,2.0479s-4.7047-7.8813-2.0479-11.6692
		s10.9767-6.6102,14.7644-3.9535c0.2368,0.1661,0.4371,0.3484,0.6286,0.5476
		C520.1704,1195.9738,519.6843,1190.9388,518.3768,1186.1301z"/>
	<path fill="#2E3436" d="M907.7485,1296.4752c-2.4045-1.0386-4.9066-1.8729-7.4568-2.4695l-0.0001-0.0002
		c3.8846,0.3921,7.7085,1.3624,11.2931,2.9106c5.1699,2.2329,9.8292,5.6348,13.5428,9.8668
		c0.0256,0.0292,0.0472,0.0632,0.0726,0.0923c1.9404,1.9528,3.4745,4.7802,4.1691,7.1426c1.3049,4.439-1.2357,9.0952-5.6746,10.4001
		c-4.4389,1.3051-9.0952-1.2356-10.4002-5.6744c-1.3049-4.439,1.6757-12.7034,6.1146-14.0083c0.2775-0.0815,0.5449-0.1245,0.82-0.15
		C916.5629,1301.2103,912.3234,1298.451,907.7485,1296.4752z"/>
	<path fill="#2E3436" d="M1236.7891,1060.8512c-2.3112,1.2323-4.5236,2.6685-6.5798,4.2903l-0.0004-0.0001
		c2.7286-2.7927,5.8713-5.1772,9.3168-7.0145c4.9691-2.6498,10.5338-4.1715,16.1581-4.4364
		c0.0387-0.0018,0.0787,0.0026,0.1174,0.0009c2.7365-0.2996,5.9036,0.2638,8.1836,1.1937c4.2842,1.7474,6.3406,6.6368,4.5933,10.921
		c-1.7474,4.2841-6.6368,6.3405-10.921,4.5931c-4.2841-1.7473-8.8871-9.2306-7.1398-13.5145
		c0.1093-0.2678,0.2424-0.5037,0.394-0.7347C1245.9868,1056.9121,1241.1863,1058.5063,1236.7891,1060.8512z"/>
	<path fill="#2E3436" d="M1257.7242,656.6877c-0.4775,2.5753-0.7341,5.2004-0.7483,7.8193l-0.0002,0.0002
		c-0.4822-3.8745-0.387-7.8184,0.3248-11.6577c1.0265-5.537,3.3063-10.8365,6.6058-15.3988
		c0.0227-0.0314,0.051-0.0601,0.0739-0.0914c1.4719-2.3262,3.8871-4.4511,6.0358-5.6539c4.0372-2.26,9.1421-0.8193,11.4021,3.218
		s0.8192,9.1422-3.218,11.4022c-4.0372,2.26-12.7577,1.1931-15.0176-2.8441c-0.1414-0.2523-0.2427-0.5035-0.3289-0.7661
		C1260.3792,647.0406,1258.6326,651.7878,1257.7242,656.6877z"/>
	<path fill="#2E3436" d="M772.8474,58.3206c-1.5137-2.2816-4.594-2.8884-6.8756-1.3747c-2.2816,1.5137-2.901,4.5752-1.3873,6.8567
		c0.8055,1.2143,2.1603,2.5661,3.5986,3.3309c0.0194,0.012,0.0434,0.001,0.0629,0.0127c2.8394,1.7438,6.0693,2.8655,9.3826,3.2243
		c2.2968,0.2487,4.6261,0.1331,6.8905-0.3241c-1.5457,0.1083-3.1024,0.0619-4.6428-0.1049
		c-2.9319-0.3176-5.8217-1.1369-8.4844-2.4043c0.1509-0.0625,0.3109-0.1246,0.4536-0.2193
		C774.1271,65.8043,774.3611,60.6022,772.8474,58.3206z"/>
	<path fill="#2E3436" d="M184.6514,394.3443c-2.7276-0.2391-5.1226,1.7908-5.3617,4.5184
		c-0.2391,2.7276,1.7683,5.1207,4.4958,5.3597c1.4516,0.1273,3.3531-0.0891,4.8479-0.7367
		c0.0215-0.0077,0.0278-0.0334,0.0492-0.0413c3.1337-1.1327,6.0245-2.9586,8.3708-5.3253c1.6264-1.6406,2.9883-3.5339,4.0428-5.5893
		c-0.879,1.276-1.8859,2.4641-2.9768,3.5645c-2.0763,2.0943-4.5187,3.8427-7.1697,5.1343c0.0452-0.157,0.0965-0.3208,0.1114-0.4914
		C191.3002,398.0099,187.379,394.5834,184.6514,394.3443z"/>
	<path fill="#2E3436" d="M80.631,1063.7218c-1.8876,1.9835-1.7938,5.1216,0.1897,7.0092c1.9834,1.8876,5.106,1.8102,6.9935-0.1732
		c1.0046-1.0555,2.021-2.6771,2.4466-4.2495c0.0074-0.0216-0.0087-0.0426-0.0016-0.0642c1.0682-3.1563,1.4431-6.5548,1.0556-9.8649
		c-0.2686-2.2944-0.8997-4.5397-1.8492-6.6456c0.4495,1.4828,0.7506,3.0109,0.9308,4.5498c0.3428,2.9291,0.187,5.9287-0.4561,8.8066
		c-0.0945-0.1332-0.1906-0.2754-0.3147-0.3934C87.6424,1060.809,82.5186,1061.7384,80.631,1063.7218z"/>
	<path fill="#2E3436" d="M539.1158,1562.3983c0.3738,2.7124,2.8858,4.5956,5.5983,4.2218c2.7124-0.3739,4.5988-2.8634,4.2249-5.5758
		c-0.1989-1.4435-0.833-3.2491-1.797-4.5624c-0.0123-0.0192-0.0387-0.0197-0.0511-0.0388c-1.8016-2.803-4.225-5.2151-7.0544-6.976
		c-1.9614-1.2206-4.1102-2.127-6.3488-2.6976c1.4396,0.573,2.822,1.2903,4.1375,2.109c2.5038,1.5582,4.7519,3.5503,6.601,5.8474
		c-0.1631-0.0092-0.3342-0.0227-0.5038,0.0007C541.21,1555.1005,538.742,1559.6858,539.1158,1562.3983z"/>
	<path fill="#2E3436" d="M1214.8574,1514.8601c2.3538,1.3989,5.3923,0.6091,6.7911-1.7446c1.3989-2.3538,0.6287-5.3809-1.725-6.7797
		c-1.2527-0.7444-3.0598-1.3745-4.6875-1.4396c-0.0227-0.0024-0.0396,0.0179-0.0623,0.0157
		c-3.3148-0.3391-6.7115,0.0518-9.8524,1.166c-2.1771,0.7725-4.2256,1.8873-6.0675,3.2816
		c1.3456-0.7682,2.7683-1.4019,4.2286-1.9199c2.7793-0.986,5.7384-1.5016,8.6874-1.515c-0.1089,0.1218-0.2262,0.2471-0.3136,0.3944
		C1210.4574,1508.6727,1212.5037,1513.4612,1214.8574,1514.8601z"/>
	<path fill="#2E3436" d="M1599.0085,956.9045c2.5613-0.968,3.8383-3.8361,2.8702-6.3973c-0.968-2.5612-3.8149-3.8463-6.3761-2.8782
		c-1.363,0.5151-2.9824,1.5351-4.0481,2.7672c-0.016,0.0163-0.0106,0.0421-0.0265,0.0585
		c-2.3319,2.3802-4.1442,5.2795-5.2312,8.4299c-0.7537,2.1838-1.1592,4.4805-1.2174,6.7899c0.2383-1.531,0.63-3.0384,1.1354-4.5031
		c0.962-2.7878,2.4039-5.4227,4.2321-7.7366c0.0273,0.1611,0.0522,0.3308,0.1128,0.491
		C1591.4277,956.4868,1596.4473,957.8726,1599.0085,956.9045z"/>
	<path fill="#2E3436" d="M1402.2955,308.6834c0.8401-2.606-0.606-5.3926-3.212-6.2327c-2.606-0.84-5.3857,0.5845-6.2257,3.1904
		c-0.4471,1.3869-0.6593,3.2889-0.3605,4.8903c0.0027,0.0227,0.0262,0.0345,0.0292,0.0572c0.407,3.3071,1.5439,6.5318,3.3291,9.3459
		c1.2375,1.9507,2.7803,3.6998,4.5496,5.1852c-1.0485-1.1409-1.9827-2.387-2.8127-3.6953
		c-1.5797-2.4903-2.7408-5.2605-3.4102-8.1324c0.1429,0.0791,0.2913,0.1654,0.4542,0.2179
		C1397.2424,314.3499,1401.4556,311.2895,1402.2955,308.6834z"/>
	<path fill="#2E3436" d="M873.6894,57.756c1.488-2.2984,4.5613-2.9397,6.8598-1.4516c2.2983,1.4881,2.952,4.5424,1.464,6.8407
		c-0.7919,1.2232-2.1315,2.5901-3.5611,3.371c-0.0193,0.0122-0.0434,0.0014-0.0628,0.0134
		c-2.8197,1.7755-6.0369,2.9333-9.3459,3.3292c-2.2938,0.2744-4.6243,0.1849-6.8937-0.2469
		c1.5468,0.091,3.1028,0.0271,4.6414-0.1569c2.9282-0.3504,5.8086-1.202,8.457-2.4991c-0.1517-0.0608-0.3123-0.1211-0.4561-0.2142
		C872.4936,65.2536,872.2013,60.0545,873.6894,57.756z"/>
	<path fill="#2E3436" d="M247.0839,315.1509c-0.8692-2.5965,0.5456-5.3991,3.1421-6.2683c2.5964-0.8691,5.392,0.5241,6.2611,3.1205
		c0.4626,1.3818,0.6961,3.2813,0.4153,4.886c-0.0025,0.0227-0.0259,0.0348-0.0287,0.0575
		c-0.3699,3.3115-1.4706,6.5487-3.2242,9.3826c-1.2156,1.9645-2.7387,3.7307-4.4912,5.2358
		c1.0355-1.1526,1.9558-2.409,2.7712-3.7266c1.5518-2.5078,2.6818-5.2908,3.3189-8.1701c-0.1421,0.0806-0.2894,0.1687-0.4518,0.223
		C252.2002,320.7604,247.9531,317.7473,247.0839,315.1509z"/>
	<path fill="#2E3436" d="M57.6412,965.5338c-2.5719-0.9393-3.881-3.7928-2.9417-6.3647c0.9393-2.5719,3.7716-3.8888,6.3434-2.9495
		c1.3687,0.4999,2.9994,1.5016,4.0789,2.7217c0.0162,0.0161,0.0111,0.042,0.0271,0.0582c2.3584,2.3539,4.203,5.2328,5.3253,8.3708
		c0.778,2.1752,1.2092,4.4672,1.2933,6.7758c-0.2555-1.5282-0.664-3.0311-1.1858-4.4901c-0.9932-2.7769-2.4644-5.3955-4.3183-7.6888
		c-0.0256,0.1614-0.0486,0.3315-0.1074,0.4923C65.2169,965.0313,60.2131,966.4731,57.6412,965.5338z"/>
	<path fill="#2E3436" d="M448.0155,1519.1532c-2.338,1.4253-5.3851,0.6696-6.8103-1.6685c-1.4251-2.3379-0.6888-5.3734,1.649-6.7985
		c1.2442-0.7584,3.0442-1.4088,4.6711-1.4921c0.0227-0.0026,0.0397,0.0176,0.0624,0.0151c3.3108-0.3762,6.7117-0.0234,9.8648,1.0555
		c2.1857,0.748,4.2466,1.84,6.1039,3.2135c-1.3541-0.7531-2.7838-1.3707-4.2498-1.8724c-2.7903-0.9548-5.7549-1.4373-8.7038-1.4177
		c0.1103,0.1206,0.2289,0.2446,0.3179,0.3909C452.3459,1512.917,450.3534,1517.728,448.0155,1519.1532z"/>
	<path fill="#2E3436" d="M1124.2469,1559.1224c-0.3435,2.7164-2.8342,4.6277-5.5507,4.2842
		c-2.7164-0.3434-4.6306-2.8116-4.2871-5.5281c0.1827-1.4456,0.7966-3.2583,1.7458-4.5822
		c0.0121-0.0194,0.0385-0.0201,0.0508-0.0394c1.77-2.823,4.1663-5.2621,6.9758-7.0544c1.9476-1.2426,4.0862-2.173,6.3181-2.7687
		c-1.4331,0.5891-2.8074,1.3219-4.1136,2.1552c-2.4862,1.5862-4.7118,3.6033-6.5352,5.921c0.1631-0.011,0.334-0.0264,0.5039-0.0049
		C1122.0712,1551.8485,1124.5903,1556.406,1124.2469,1559.1224z"/>
	<path fill="#2E3436" d="M1577.1195,1055.3438c1.9097,1.9622,1.851,5.1011-0.1112,7.0109c-1.9622,1.9095-5.0854,1.8672-6.995-0.095
		c-1.0164-1.0442-2.0508-2.6543-2.494-4.2219c-0.0077-0.0215,0.0082-0.0426,0.0009-0.0642c-1.1035-3.144-1.5164-6.5382-1.166-9.8524
		c0.2428-2.2972,0.8488-4.5494,1.7747-6.6659c-0.4329,1.4878-0.7169,3.019-0.8799,4.5599c-0.3099,2.9327-0.1206,5.9304,0.5547,8.801
		c0.093-0.1343,0.1875-0.2775,0.3103-0.3969C1570.076,1052.5096,1575.2098,1053.3816,1577.1195,1055.3438z"/>
	<path fill="#2E3436" d="M1465.6108,387.1728c2.7249-0.2696,5.1423,1.7334,5.412,4.4581c0.2697,2.7247-1.7108,5.1401-4.4354,5.4097
		c-1.4502,0.1435-3.354-0.0515-4.856-0.6824c-0.0215-0.0075-0.0281-0.0331-0.0496-0.0407c-3.1462-1.0975-6.0573-2.891-8.4299-5.2312
		c-1.6448-1.6223-3.0277-3.5002-4.1051-5.5436c0.8932,1.2661,1.9133,2.4428,3.0165,3.5309
		c2.0996,2.0709,4.5614,3.7919,7.2267,5.0537c-0.047-0.1565-0.1-0.3197-0.1168-0.4901
		C1459.0035,390.9126,1462.8861,387.4425,1465.6108,387.1728z"/>
	<polygon fill="#2E3436" points="784.5205,70.0462 784.5191,70.0464 784.5206,70.0463 	"/>
	<polygon fill="#2E3436" points="201.0969,392.5287 201.0962,392.5299 201.097,392.5287 	"/>
	<polygon fill="#2E3436" points="89.4651,1049.7322 89.4657,1049.7335 89.4653,1049.7322 	"/>
	<polygon fill="#2E3436" points="533.6863,1546.7692 533.6877,1546.7695 533.6863,1546.769 	"/>
	<polygon fill="#2E3436" points="1199.2528,1509.3605 1199.2539,1509.3596 1199.2527,1509.3604 	"/>
	<polygon fill="#2E3436" points="1584.9794,965.6757 1584.9795,965.6743 1584.9792,965.6757 	"/>
	<polygon fill="#2E3436" points="1400.4063,325.1206 1400.4052,325.1197 1400.4061,325.1207 	"/>
	<polygon fill="#2E3436" points="862.1483,69.6116 862.1497,69.6118 862.1483,69.6117 	"/>
	<polygon fill="#2E3436" points="249.1572,331.5659 249.1583,331.5649 249.1573,331.566 	"/>
	<polygon fill="#2E3436" points="71.7676,974.1475 71.7675,974.146 71.7678,974.1475 	"/>
	<polygon fill="#2E3436" points="463.5576,1513.4792 463.5564,1513.4784 463.5576,1513.4791 	"/>
	<polygon fill="#2E3436" points="1129.5011,1543.4335 1129.4998,1543.4338 1129.5011,1543.4333 	"/>
	<polygon fill="#2E3436" points="1568.1293,1041.4539 1568.1288,1041.4552 1568.1292,1041.4539 	"/>
	<polygon fill="#2E3436" points="1449.1461,385.5415 1449.1469,385.5427 1449.146,385.5415 	"/>
	<circle fill="#2E3436" cx="804.066" cy="733.9045" r="20.6569"/>
	<circle fill="#2E3436" cx="732.3087" cy="791.1563" r="20.6569"/>
	<circle fill="#2E3436" cx="732.3299" cy="882.9543" r="20.6569"/>
	<circle fill="#2E3436" cx="804.1137" cy="940.1729" r="20.6569"/>
	<circle fill="#2E3436" cx="893.6055" cy="919.7252" r="20.6569"/>
	<circle fill="#2E3436" cx="933.4161" cy="837.0088" r="20.6569"/>
	<circle fill="#2E3436" cx="893.5672" cy="754.3108" r="20.6569"/>
	<circle fill="#2E3436" cx="850.0369" cy="733.6472" r="20.6569"/>
	<circle fill="#2E3436" cx="760.7698" cy="755.0543" r="20.6569"/>
	<circle fill="#2E3436" cx="721.8494" cy="838.1933" r="20.6569"/>
	<circle fill="#2E3436" cx="762.5837" cy="920.4587" r="20.6569"/>
	<circle fill="#2E3436" cx="852.2988" cy="939.9031" r="20.6569"/>
	<circle fill="#2E3436" cx="923.4374" cy="881.8844" r="20.6569"/>
	<circle fill="#2E3436" cx="922.4308" cy="790.0919" r="20.6569"/>
	<path fill="#2E3436" d="M827.2329,766.1727c-3.322,2.3416-5.6292,6.076-6.0132,10.4417
		c-0.4679,5.3196,2.0396,10.2148,6.1447,13.0419c4.0731-2.8729,6.5256-7.7958,5.9982-13.1099
		C832.9298,772.1853,830.5809,768.4769,827.2329,766.1727z"/>
	<path fill="#2E3436" d="M882.7833,792.5423c-3.9019-1.1373-8.2601-0.6128-11.9128,1.809
		c-4.4508,2.951-6.7147,7.9635-6.3655,12.9357c4.7856,1.3932,10.1637,0.2413,13.9896-3.4843
		C881.6344,800.7451,883.0692,796.5966,882.7833,792.5423z"/>
	<path fill="#2E3436" d="M896.8018,852.4145c-1.5436-3.7598-4.671-6.8401-8.8419-8.1859
		c-5.0822-1.6399-10.4126-0.2845-14.0823,3.0884c1.8945,4.6104,6.1483,8.0968,11.4465,8.7651
		C889.6723,856.6306,893.8104,855.1658,896.8018,852.4145z"/>
	<path fill="#2E3436" d="M858.7323,900.7043c1.9771-3.5511,2.4355-7.9167,0.8872-12.0167
		c-1.8866-4.9959-6.2697-8.3184-11.1949-9.0844c-2.4232,4.3557-2.4969,9.8552,0.284,14.4142
		C850.9908,897.759,854.7161,900.0809,858.7323,900.7043z"/>
	<path fill="#2E3436" d="M797.2418,901.0486c4.009-0.6683,7.7081-3.0319,9.9482-6.7986c2.7297-4.5898,2.5945-10.0882,0.1226-14.4164
		c-4.9163,0.8211-9.2619,4.1924-11.0924,9.2091C794.7178,893.1597,795.2251,897.5199,797.2418,901.0486z"/>
	<path fill="#2E3436" d="M758.634,853.188c3.022,2.7177,7.1762,4.136,11.5179,3.5389c5.2904-0.7276,9.5049-4.2615,11.3477-8.8927
		c-3.7072-3.3317-9.0525-4.6273-14.116-2.9306C763.2281,846.296,760.1354,849.4112,758.634,853.188z"/>
	<path fill="#2E3436" d="M771.9813,793.1626c-0.2405,4.0572,1.2406,8.1895,4.4145,11.2116
		c3.8674,3.6826,9.2579,4.7742,14.0277,3.3275c0.2935-4.9758-2.0263-9.9626-6.5099-12.8636
		C780.234,792.4574,775.8702,791.9817,771.9813,793.1626z"/>
</g>
</svg>
