<?xml version="1.0" encoding="utf-8"?>

<!DOCTYPE svg PUBLIC "-//W3C//DTD SVG 1.1//EN" "http://www.w3.org/Graphics/SVG/1.1/DTD/svg11.dtd">
<svg version="1.1" id="Layer_1" xmlns="http://www.w3.org/2000/svg" xmlns:xlink="http://www.w3.org/1999/xlink" x="0px" y="0px"
	 viewBox="0 0 1615.9558 1615.9558" enable-background="new 0 0 1615.9558 1615.9558" xml:space="preserve">
<g>
	<circle cx="728.8187" cy="561.7181" r="24.264"/>
	<circle cx="561.7181" cy="887.1372" r="24.264"/>
	<circle cx="887.1371" cy="1054.2378" r="24.264"/>
	<circle cx="1054.2378" cy="728.8187" r="24.264"/>
	<circle cx="887.1371" cy="561.7181" r="24.264"/>
	<circle cx="561.7181" cy="728.8187" r="24.264"/>
	<circle cx="728.8187" cy="1054.2378" r="24.264"/>
	<circle cx="1054.2378" cy="887.1372" r="24.264"/>
	<polygon points="632.612,187.9217 632.614,187.9205 632.6122,187.9213 	"/>
	<polygon points="187.9217,983.3439 187.9205,983.3419 187.9213,983.3437 	"/>
	<polygon points="983.3439,1428.0342 983.3419,1428.0353 983.3437,1428.0345 	"/>
	<polygon points="1428.0342,632.612 1428.0353,632.614 1428.0345,632.6122 	"/>
	<polygon points="983.3439,187.9217 983.3419,187.9205 983.3437,187.9213 	"/>
	<polygon points="187.9217,632.612 187.9205,632.614 187.9213,632.6122 	"/>
	<polygon points="632.612,1428.0342 632.614,1428.0353 632.6122,1428.0345 	"/>
	<polygon points="1428.0342,983.3439 1428.0353,983.3419 1428.0345,983.3437 	"/>
	<path d="M1436.3044,807.9779c11.8669-4.7108,23.3719-10.3121,34.3844-16.8965c13.8265-8.2649,26.7931-18.0593,38.3926-29.2411
		c13.0095-4.1916,26.707-6.1572,40.2059-4.4309c9.1544,1.1706,18.1372,4.0598,26.0696,8.7777
		c7.9319,4.718,14.7997,11.3029,19.5089,19.2397c2.9204,4.9227,5.0004,10.3726,5.7443,16.0478
		c0.2819,2.1506,0.3661,4.3346,0.2375,6.5034c0.1285,2.1688,0.0443,4.3528-0.2375,6.5034
		c-0.7439,5.6752-2.8239,11.1251-5.7443,16.0478c-4.7092,7.9368-11.577,14.5217-19.5089,19.2397
		c-7.9324,4.718-16.9152,7.6071-26.0696,8.7777c-13.4989,1.7263-27.1964-0.2393-40.2059-4.4309
		c-11.5995-11.1818-24.566-20.9762-38.3926-29.2411C1459.6764,818.29,1448.1714,812.6887,1436.3044,807.9779z M1607.9753,807.9779
		c0.0217-1.8901-0.0934-3.7826-0.3387-5.6548c-0.5414-4.1315-1.6986-8.1702-3.319-12.0125
		c-0.243-0.5764-0.4894-1.1584-0.7535-1.7256l0.0011-0.0005c-0.7927-1.7014-1.6835-3.3555-2.6403-4.9682
		c-5.4846-9.2453-13.4775-16.924-22.7164-22.4197c-9.2389-5.4954-19.6893-8.8403-30.3521-10.204
		c-9.6747-1.2371-19.4368-0.8418-29.0464,0.7798c4.5284-5.039,8.7896-10.3156,12.7422-15.8223
		c16.0698-22.3969,26.9843-48.6212,30.3815-75.9717c0.7911-6.3614,1.1969-12.7852,1.116-19.2003l0.007-0.0073
		c-0.135-10.6921-1.5829-21.3549-4.5497-31.6184c-4.7467-16.4222-13.538-31.807-26.0677-43.4367
		c-12.5298-11.6288-28.8448-19.3386-45.897-20.5454c-17.0522-1.2068-34.7097,4.3449-47.2991,15.9094
		c-7.2408,6.6515-12.7532,15.1623-15.8517,24.4937c-3.0991,9.3314-3.7688,19.4677-1.9458,29.1287
		c1.186,6.2859,3.4269,12.3476,6.5813,17.912c-1.2515-3.0749-2.2174-6.2661-2.8329-9.5283
		c-1.5652-8.295-0.9724-16.9973,1.6882-25.0083s7.4038-15.3207,13.6204-21.0316c10.8083-9.9285,25.9349-14.6852,40.5743-13.6487
		c14.6395,1.0359,28.6727,7.6425,39.4298,17.6263c10.7572,9.9833,18.3013,23.2136,22.3767,37.3129
		c4.0753,14.0992,4.7588,29.0435,2.9474,43.6079c-2.9209,23.4828-12.2981,46.0152-26.0961,65.2402
		c-9.4674,13.1912-20.9802,24.8442-33.8347,34.7828c-0.2402,0.1069-0.4814,0.2118-0.7211,0.3198
		c-0.4783,0.2157-0.9512,0.4409-1.4271,0.6608c6.891-5.8334,13.0979-11.6714,18.4572-17.4005
		c7.0076-7.491,19.6047-25.4712,23.5139-33.5624c6.12-12.6662,9.7465-25.8342,10.8313-39.3291
		c0.8157-10.1454-2.4084-29.22-6.3572-37.6095c-9.1017-19.3367-26.4982-31.394-44.868-31.0974
		c-20.3357,0.3287-35.5449,18.2169-31.8317,37.4392c0.1797,0.9302,0.3636,1.7889,0.5465,2.5754
		c-3.0969,2.4633-5.4358,5.6923-5.4358,8.7356c0,0.3793,0.0447,0.7318,0.1144,1.0873c-5.6029-3.3649-10.6434-7.6788-14.8225-12.7047
		c-2.1959-2.6409-4.171-5.48-5.8647-8.4677c1.9303,4.7425,4.5658,9.1945,7.8395,13.1323
		c4.7223,5.6794,10.7269,10.2837,17.4259,13.3914c0.046,0.0213,0.0969,0.036,0.1431,0.0573
		c3.175,1.7192,7.3003,2.6039,10.5299,2.6039c6.0684,0,10.9879-4.9194,10.9879-10.9878c0-6.0684-4.9196-10.9879-10.9879-10.9879
		c-2.5858,0-5.7563,1.2385-8.5455,3.1268c-1.1079-10.2994,3.0093-19.6956,11.4493-25.9348
		c12.5271-9.2602,27.7791-9.0368,42.369,0.6215c12.0858,8.0001,19.3339,20.1938,22.3676,37.6278
		c5.4253,31.1771-7.74,63.2579-37.5564,91.5186c-10.0337,9.5099-37.5133,29.7689-51.9678,38.3127
		c-3.9078,2.3098-8.2794,4.7458-12.7926,7.1488c-31.2205,10.9237-64.9744,15.1141-98.1886,14.717
		c-13.9445-0.1669-27.8158-1.0986-41.6364-2.5711c11.5841-3.749,22.7523-8.6615,33.2407-14.9326
		c15.5908-9.3214,29.5188-21.5811,40.1102-36.3387c10.5913-14.7575,17.7847-32.0414,20.0271-50.067
		c0.5215-4.1924,0.7889-8.4257,0.7355-12.6534l0.0029,0.0002c-0.089-7.0462-1.0432-14.0736-2.9984-20.8375
		c-3.1283-10.823-8.9218-20.962-17.1794-28.626c-8.2576-7.6638-19.0099-12.7449-30.2477-13.5397
		c-11.2378-0.7953-22.8748,2.8635-31.1715,10.4851c-4.772,4.3836-8.4048,9.9926-10.4476,16.1421
		c-2.0424,6.1494-2.4836,12.8301-1.2822,19.1976c0.7816,4.1426,2.2584,8.1376,4.3373,11.8046
		c-0.8247-2.0265-1.4612-4.1295-1.8668-6.2796c-1.0316-5.4667-0.6409-11.2021,1.1125-16.4818
		c1.7534-5.2795,4.8793-10.0969,8.9762-13.8602c7.123-6.5433,17.0925-9.6776,26.7399-8.9951
		c9.6482,0.6828,18.8964,5.0366,25.9862,11.616c7.0895,6.5797,12.0609,15.2988,14.7466,24.5908
		c2.6858,9.2921,3.1362,19.1408,1.9424,28.7386c-1.9249,15.4764-8.1051,30.3255-17.1978,42.9954
		c-9.0933,12.6699-21.0491,23.188-34.4341,31.1908c-20.7268,12.3924-44.5398,18.6346-68.7104,20.6495
		c-28.7174-4.7764-57.2946-11.0788-85.924-16.9473c8.9624-7.8821,13.6233-26.7929,36.61-35.1185h0.0027
		c34.978-12.6689,97.8101-2.9703,109.979-24.2941c-12.5737,5.6613-90.2449-35.379-122.5784-23.6688
		c-23.0455,8.347-27.1967,33.6726-30.8267,56.0796c-5.4537-14.9519-15.1936-33.5195-8.1101-59.9555
		c12.2606-45.7735,63.473-102.956,63.7202-137.238l0.0033,0.0018c0.0037-0.5443-0.0065-1.0698-0.0286-1.6024
		c-0.1467-3.5261-0.8806-6.7887-2.2892-9.7572c-1.5663,8.3126-23.1312,23.7419-48.1285,42.2922
		c3.5872,8.9144,4.8604,17.1859,2.604,23.6064c-6.4597-5.0844-12.2798-9.1368-17.5979-12.3613
		c-6.339,4.8429-12.6992,9.8231-18.8276,14.9078c13.7659,14.4389,23.4315,30.364,21.2028,42.2344
		c-22.4738-12.701-37.3457-16.3032-48.7301-16.4249c-9.0769,10.1078-15.8041,20.2167-18.399,29.9015
		c-12.6971,47.3866,44.0328,78.5783,64.6039,108.022c-32.6576-6.4088-65.4319-11.757-98.6085-13.1385
		c-30.505-1.2703-61.1519,0.8491-91.1935,6.2951s-115.5096,22.4821-80.5206,16.1384c29.0773-5.2711,58.6388-7.8522,88.1893-7.7284
		c-23.3469,4.5128-51.9537,10.2898-34.3626,7.1004c23.0607-4.1805,46.5838-5.8027,69.9998-4.8276
		c39.3962,1.6407,78.0596,10.5627,116.7937,18.5197c-8.3467,2.1581-17.1947,4.2468-25.9185,6.7516
		c8.7238,2.5048,17.5718,4.5936,25.9185,6.7516c-38.7341,7.9569-77.3975,16.879-116.7937,18.5197
		c-23.416,0.9752-46.9391-0.6471-69.9998-4.8276c-17.5911-3.1894,11.0157,2.5876,34.3626,7.1004
		c-29.5505,0.1238-59.112-2.4573-88.1893-7.7284c-34.989-6.3437,50.479,10.6924,80.5206,16.1384s60.6885,7.5654,91.1935,6.2951
		c33.1766-1.3815,65.9509-6.7297,98.6085-13.1385c-20.571,29.4437-77.301,60.6354-64.6039,108.022
		c2.595,9.6848,9.3221,19.7936,18.399,29.9015c11.3844-0.1218,26.2563-3.7239,48.7301-16.4249
		c2.2288,11.8705-7.4369,27.7955-21.2028,42.2344c6.1284,5.0847,12.4886,10.0649,18.8276,14.9078
		c5.3181-3.2245,11.1382-7.277,17.5979-12.3613c2.2563,6.4206,0.9832,14.692-2.604,23.6064
		c24.9973,18.5503,46.5623,33.9796,48.1285,42.2922c1.4086-2.9685,2.1425-6.2311,2.2892-9.7572
		c0.0221-0.5326,0.0322-1.0581,0.0286-1.6024l-0.0033,0.0018c-0.2472-34.282-51.4596-91.4645-63.7202-137.238
		c-7.0835-26.436,2.6564-45.0036,8.1101-59.9555c3.63,22.407,7.7811,47.7325,30.8267,56.0796
		c32.3335,11.7103,110.0046-29.3301,122.5784-23.6688c-12.1689-21.3237-75.001-11.6251-109.979-24.2941h-0.0027
		c-22.9867-8.3256-27.6476-27.2363-36.61-35.1185c28.6294-5.8685,57.2065-12.171,85.924-16.9473
		c24.1707,2.015,47.9836,8.2571,68.7104,20.6495c13.385,8.0028,25.3408,18.5209,34.4341,31.1908
		c9.0927,12.6699,15.2728,27.519,17.1978,42.9954c1.1938,9.5978,0.7434,19.4466-1.9424,28.7386
		c-2.6857,9.292-7.6571,18.011-14.7466,24.5908c-7.0898,6.5793-16.338,10.9332-25.9862,11.616
		c-9.6473,0.6824-19.6168-2.4518-26.7399-8.9951c-4.0969-3.7633-7.2228-8.5806-8.9762-13.8602s-2.1442-11.0151-1.1125-16.4818
		c0.4056-2.1501,1.0421-4.2531,1.8668-6.2796c-2.0789,3.6669-3.5557,7.662-4.3373,11.8046
		c-1.2014,6.3675-0.7601,13.0482,1.2822,19.1976c2.0428,6.1495,5.6757,11.7585,10.4476,16.1421
		c8.2968,7.6216,19.9337,11.2804,31.1715,10.4851c11.2378-0.7948,21.9901-5.8759,30.2477-13.5397
		c8.2577-7.664,14.0511-17.803,17.1794-28.626c1.9552-6.7639,2.9094-13.7913,2.9984-20.8375l-0.0029,0.0002
		c0.0535-4.2277-0.214-8.461-0.7355-12.6534c-2.2424-18.0256-9.4358-35.3094-20.0271-50.067
		c-10.5914-14.7576-24.5194-27.0173-40.1102-36.3387c-10.4884-6.2711-21.6566-11.1836-33.2407-14.9326
		c13.8206-1.4725,27.6919-2.4042,41.6364-2.5711c33.2142-0.3972,66.9681,3.7933,98.1886,14.717
		c4.5132,2.403,8.8848,4.839,12.7926,7.1487c14.4545,8.5439,41.9341,28.8028,51.9678,38.3127
		c29.8164,28.2607,42.9817,60.3416,37.5564,91.5186c-3.0337,17.434-10.2817,29.6277-22.3676,37.6278
		c-14.59,9.6583-29.8419,9.8817-42.369,0.6215c-8.4401-6.2393-12.5573-15.6354-11.4493-25.9348
		c2.7892,1.8882,5.9597,3.1268,8.5455,3.1268c6.0684,0,10.9879-4.9194,10.9879-10.9879c0-6.0684-4.9196-10.9879-10.9879-10.9879
		c-3.2296,0-7.3549,0.8848-10.5299,2.6039c-0.0461,0.0212-0.097,0.0359-0.1431,0.0573c-6.699,3.1077-12.7036,7.712-17.4259,13.3914
		c-3.2737,3.9377-5.9092,8.3898-7.8395,13.1323c1.6937-2.9877,3.6688-5.8268,5.8647-8.4677
		c4.1791-5.0259,9.2196-9.3398,14.8225-12.7047c-0.0697,0.3556-0.1144,0.7081-0.1144,1.0873c0,3.0433,2.3389,6.2723,5.4358,8.7356
		c-0.1829,0.7864-0.3668,1.6451-0.5465,2.5754c-3.7133,19.2223,11.496,37.1105,31.8317,37.4392
		c18.3699,0.2966,35.7664-11.7607,44.868-31.0974c3.9487-8.3895,7.1729-27.4641,6.3572-37.6095
		c-1.0848-13.4949-4.7113-26.6629-10.8313-39.3291c-3.9092-8.0912-16.5063-26.0714-23.5139-33.5624
		c-5.3593-5.7291-11.5662-11.5671-18.4572-17.4005c0.476,0.2198,0.9489,0.4451,1.4271,0.6608
		c0.2396,0.108,0.4808,0.213,0.7211,0.3198c12.8545,9.9386,24.3673,21.5916,33.8347,34.7828
		c13.798,19.225,23.1752,41.7574,26.0961,65.2402c1.8114,14.5643,1.1279,29.5087-2.9474,43.6079
		c-4.0754,14.0992-11.6195,27.3295-22.3767,37.3129c-10.7571,9.9838-24.7903,16.5903-39.4298,17.6263
		c-14.6394,1.0365-29.766-3.7203-40.5743-13.6487c-6.2166-5.7109-10.9597-13.0206-13.6204-21.0317s-3.2534-16.7133-1.6882-25.0083
		c0.6155-3.2622,1.5814-6.4534,2.8329-9.5283c-3.1544,5.5644-5.3953,11.626-6.5813,17.912
		c-1.823,9.661-1.1533,19.7973,1.9458,29.1287c3.0985,9.3314,8.6108,17.8423,15.8517,24.4938
		c12.5894,11.5645,30.2468,17.1162,47.2991,15.9094c17.0521-1.2068,33.3672-8.9166,45.897-20.5454
		c12.5298-11.6298,21.321-27.0145,26.0677-43.4367c2.9668-10.2635,4.4147-20.9263,4.5497-31.6184l-0.007-0.0073
		c0.0809-6.415-0.3248-12.8389-1.116-19.2003c-3.3972-27.3505-14.3116-53.5748-30.3815-75.9717
		c-3.9526-5.5067-8.2137-10.7833-12.7422-15.8223c9.6096,1.6216,19.3717,2.0168,29.0464,0.7798
		c10.6627-1.3637,21.1132-4.7086,30.3521-10.204c9.2389-5.4957,17.2318-13.1744,22.7164-22.4197
		c0.9568-1.6127,1.8475-3.2668,2.6403-4.9682l-0.0011-0.0005c0.2642-0.5673,0.5105-1.1494,0.7535-1.7256
		c1.6204-3.8423,2.7776-7.881,3.319-12.0125C1607.882,811.7606,1607.9971,809.868,1607.9753,807.9779z"/>
	<path d="M807.9779,1436.3044c4.7108,11.8669,10.3121,23.3719,16.8966,34.3844c8.2649,13.8265,18.0593,26.7931,29.2411,38.3926
		c4.1916,13.0095,6.1572,26.707,4.4309,40.2059c-1.1706,9.1544-4.0598,18.1372-8.7777,26.0696
		c-4.718,7.9319-11.3029,14.7997-19.2397,19.5089c-4.9227,2.9204-10.3726,5.0004-16.0478,5.7443
		c-2.1506,0.2819-4.3347,0.3661-6.5034,0.2375c-2.1688,0.1285-4.3527,0.0443-6.5034-0.2375
		c-5.6752-0.7439-11.1251-2.8239-16.0478-5.7443c-7.9368-4.7092-14.5217-11.577-19.2397-19.5089
		c-4.718-7.9324-7.6071-16.9152-8.7777-26.0696c-1.7263-13.4989,0.2393-27.1964,4.4309-40.2059
		c11.1818-11.5995,20.9762-24.566,29.2411-38.3926C797.6658,1459.6764,803.2671,1448.1714,807.9779,1436.3044z M807.9779,1607.9753
		c1.8901,0.0217,3.7827-0.0934,5.6548-0.3387c4.1315-0.5414,8.1702-1.6986,12.0125-3.319c0.5763-0.243,1.1584-0.4894,1.7256-0.7535
		l0.0005,0.0011c1.7014-0.7927,3.3555-1.6835,4.9682-2.6403c9.2453-5.4846,16.924-13.4775,22.4197-22.7164
		c5.4954-9.2389,8.8403-19.6893,10.204-30.3521c1.2371-9.6747,0.8418-19.4368-0.7798-29.0464
		c5.039,4.5284,10.3156,8.7896,15.8223,12.7422c22.3969,16.0698,48.6212,26.9843,75.9717,30.3815
		c6.3614,0.7911,12.7852,1.1969,19.2003,1.116l0.0073,0.007c10.6921-0.135,21.3549-1.5829,31.6184-4.5497
		c16.4222-4.7467,31.8069-13.538,43.4367-26.0677c11.6288-12.5298,19.3386-28.8448,20.5454-45.897
		c1.2068-17.0522-4.345-34.7097-15.9094-47.2991c-6.6515-7.2408-15.1624-12.7532-24.4938-15.8517
		c-9.3314-3.0991-19.4677-3.7688-29.1287-1.9458c-6.2859,1.186-12.3476,3.4269-17.912,6.5813
		c3.0749-1.2515,6.2661-2.2174,9.5283-2.8329c8.295-1.5652,16.9973-0.9724,25.0083,1.6882s15.3207,7.4038,21.0317,13.6204
		c9.9283,10.8083,14.6852,25.9349,13.6487,40.5743c-1.036,14.6395-7.6426,28.6727-17.6263,39.4298
		c-9.9834,10.7572-23.2136,18.3013-37.3129,22.3767c-14.0992,4.0753-29.0436,4.7588-43.6079,2.9474
		c-23.4828-2.9209-46.0152-12.2981-65.2402-26.0961c-13.1912-9.4674-24.8442-20.9802-34.7828-33.8347
		c-0.1069-0.2402-0.2118-0.4814-0.3198-0.7211c-0.2157-0.4783-0.4409-0.9512-0.6608-1.4271
		c5.8334,6.891,11.6714,13.0979,17.4005,18.4572c7.491,7.0076,25.4712,19.6047,33.5624,23.5139
		c12.6662,6.12,25.8342,9.7465,39.3291,10.8313c10.1454,0.8157,29.22-2.4084,37.6095-6.3572
		c19.3367-9.1017,31.394-26.4982,31.0974-44.868c-0.3287-20.3357-18.2169-35.5449-37.4392-31.8317
		c-0.9302,0.1797-1.7889,0.3636-2.5754,0.5465c-2.4633-3.0969-5.6923-5.4358-8.7356-5.4358c-0.3793,0-0.7318,0.0447-1.0873,0.1144
		c3.3649-5.6029,7.6788-10.6434,12.7047-14.8225c2.6409-2.1959,5.48-4.171,8.4677-5.8647
		c-4.7425,1.9303-9.1945,4.5658-13.1323,7.8395c-5.6794,4.7223-10.2837,10.7269-13.3914,17.4259
		c-0.0213,0.046-0.036,0.0969-0.0573,0.1431c-1.7192,3.175-2.6039,7.3003-2.6039,10.5299c0,6.0684,4.9195,10.9879,10.9879,10.9879
		c6.0684,0,10.9879-4.9196,10.9879-10.9879c0-2.5858-1.2386-5.7563-3.1268-8.5455c10.2994-1.1079,19.6956,3.0093,25.9348,11.4493
		c9.2602,12.5271,9.0368,27.7791-0.6215,42.369c-8.0001,12.0858-20.1938,19.3339-37.6278,22.3676
		c-31.1771,5.4253-63.2579-7.74-91.5186-37.5564c-9.5099-10.0337-29.7689-37.5133-38.3127-51.9678
		c-2.3098-3.9078-4.7457-8.2794-7.1487-12.7926c-10.9237-31.2205-15.1141-64.9744-14.717-98.1886
		c0.1669-13.9445,1.0986-27.8158,2.5711-41.6364c3.749,11.5841,8.6615,22.7523,14.9326,33.2407
		c9.3214,15.5908,21.5811,29.5188,36.3387,40.1102c14.7575,10.5913,32.0414,17.7847,50.067,20.0271
		c4.1924,0.5215,8.4257,0.7889,12.6534,0.7355l-0.0002,0.0029c7.0462-0.089,14.0736-1.0432,20.8375-2.9984
		c10.823-3.1283,20.962-8.9218,28.626-17.1794c7.6638-8.2576,12.7449-19.0099,13.5397-30.2477
		c0.7953-11.2378-2.8635-22.8748-10.4851-31.1715c-4.3836-4.772-9.9926-8.4048-16.1421-10.4476
		c-6.1494-2.0424-12.8301-2.4836-19.1976-1.2822c-4.1426,0.7816-8.1376,2.2584-11.8046,4.3373
		c2.0265-0.8247,4.1295-1.4612,6.2796-1.8668c5.4667-1.0316,11.2021-0.6409,16.4818,1.1125s10.0969,4.8793,13.8602,8.9762
		c6.5433,7.123,9.6776,17.0925,8.9951,26.7399c-0.6828,9.6482-5.0366,18.8964-11.616,25.9862
		c-6.5797,7.0895-15.2988,12.0609-24.5908,14.7466c-9.2921,2.6858-19.1408,3.1362-28.7386,1.9424
		c-15.4764-1.9249-30.3255-8.1051-42.9954-17.1978c-12.6699-9.0933-23.188-21.0491-31.1908-34.4341
		c-12.3924-20.7268-18.6346-44.5398-20.6495-68.7104c4.7764-28.7174,11.0788-57.2946,16.9473-85.924
		c7.8821,8.9624,26.7928,13.6233,35.1185,36.61v0.0027c12.6689,34.978,2.9703,97.8101,24.2941,109.979
		c-5.6613-12.5737,35.379-90.2449,23.6688-122.5784c-8.347-23.0455-33.6726-27.1967-56.0796-30.8267
		c14.9519-5.4537,33.5195-15.1936,59.9555-8.1101c45.7734,12.2606,102.956,63.473,137.238,63.7202l-0.0018,0.0033
		c0.5443,0.0037,1.0698-0.0065,1.6024-0.0286c3.5261-0.1467,6.7887-0.8806,9.7572-2.2892
		c-8.3126-1.5663-23.7419-23.1312-42.2922-48.1285c-8.9144,3.5872-17.1858,4.8604-23.6064,2.604
		c5.0844-6.4597,9.1368-12.2798,12.3613-17.5979c-4.8429-6.339-9.8231-12.6992-14.9078-18.8276
		c-14.4389,13.7659-30.364,23.4315-42.2344,21.2028c12.701-22.4738,16.3032-37.3457,16.4249-48.7301
		c-10.1078-9.0769-20.2167-15.8041-29.9015-18.399c-47.3866-12.6971-78.5783,44.0328-108.022,64.6039
		c6.4088-32.6576,11.757-65.4319,13.1385-98.6085c1.2703-30.505-0.8491-61.1519-6.2951-91.1935s-22.4821-115.5096-16.1384-80.5206
		c5.2711,29.0773,7.8522,58.6388,7.7284,88.1893c-4.5128-23.3469-10.2898-51.9537-7.1004-34.3626
		c4.1805,23.0607,5.8027,46.5838,4.8276,69.9998c-1.6407,39.3962-10.5627,78.0596-18.5197,116.7937
		c-2.1581-8.3467-4.2468-17.1947-6.7516-25.9185c-2.5048,8.7238-4.5935,17.5718-6.7516,25.9185
		c-7.9569-38.7341-16.879-77.3975-18.5197-116.7937c-0.9752-23.416,0.6471-46.9391,4.8276-69.9998
		c3.1894-17.5911-2.5876,11.0157-7.1004,34.3626c-0.1238-29.5505,2.4573-59.112,7.7284-88.1893
		c6.3437-34.989-10.6924,50.479-16.1384,80.5206s-7.5654,60.6885-6.2951,91.1935c1.3815,33.1766,6.7297,65.9509,13.1385,98.6085
		c-29.4437-20.571-60.6354-77.301-108.022-64.6039c-9.6848,2.595-19.7936,9.3221-29.9015,18.399
		c0.1218,11.3844,3.7239,26.2563,16.4249,48.7301c-11.8705,2.2288-27.7955-7.4369-42.2344-21.2028
		c-5.0847,6.1284-10.0649,12.4886-14.9078,18.8276c3.2245,5.3181,7.277,11.1382,12.3613,17.5979
		c-6.4206,2.2563-14.692,0.9832-23.6064-2.604c-18.5502,24.9973-33.9796,46.5623-42.2922,48.1285
		c2.9685,1.4086,6.2311,2.1425,9.7572,2.2892c0.5326,0.0221,1.0582,0.0322,1.6024,0.0286l-0.0018-0.0033
		c34.282-0.2472,91.4645-51.4596,137.238-63.7202c26.436-7.0835,45.0036,2.6564,59.9555,8.1101
		c-22.407,3.63-47.7325,7.7811-56.0796,30.8267c-11.7103,32.3335,29.3301,110.0046,23.6688,122.5784
		c21.3237-12.1689,11.6251-75.001,24.2941-109.979v-0.0027c8.3256-22.9867,27.2363-27.6476,35.1185-36.61
		c5.8685,28.6294,12.171,57.2065,16.9473,85.924c-2.015,24.1707-8.2571,47.9836-20.6495,68.7104
		c-8.0028,13.385-18.5209,25.3408-31.1908,34.4341c-12.6699,9.0927-27.519,15.2728-42.9954,17.1978
		c-9.5978,1.1938-19.4466,0.7434-28.7386-1.9424c-9.292-2.6857-18.011-7.6571-24.5908-14.7466
		c-6.5793-7.0898-10.9332-16.338-11.616-25.9862c-0.6824-9.6473,2.4518-19.6168,8.9951-26.7399
		c3.7633-4.0969,8.5806-7.2228,13.8602-8.9762c5.2797-1.7534,11.0151-2.1442,16.4818-1.1125
		c2.1501,0.4056,4.2531,1.0421,6.2796,1.8668c-3.6669-2.0789-7.662-3.5557-11.8046-4.3373
		c-6.3675-1.2014-13.0482-0.7601-19.1976,1.2822c-6.1495,2.0428-11.7585,5.6757-16.1421,10.4476
		c-7.6216,8.2968-11.2804,19.9337-10.4851,31.1715c0.7948,11.2378,5.8759,21.9901,13.5397,30.2477
		c7.664,8.2577,17.803,14.0511,28.626,17.1794c6.7639,1.9552,13.7913,2.9094,20.8375,2.9984l-0.0002-0.0029
		c4.2277,0.0535,8.461-0.214,12.6534-0.7355c18.0256-2.2424,35.3094-9.4358,50.067-20.0271
		c14.7576-10.5914,27.0173-24.5194,36.3387-40.1102c6.2711-10.4884,11.1836-21.6566,14.9326-33.2407
		c1.4725,13.8206,2.4042,27.6919,2.5711,41.6364c0.3971,33.2142-3.7933,66.9681-14.717,98.1886
		c-2.403,4.5132-4.839,8.8848-7.1488,12.7926c-8.5438,14.4545-28.8027,41.9341-38.3127,51.9678
		c-28.2607,29.8164-60.3416,42.9817-91.5186,37.5564c-17.434-3.0337-29.6277-10.2817-37.6278-22.3676
		c-9.6583-14.59-9.8817-29.8419-0.6215-42.369c6.2393-8.4401,15.6354-12.5573,25.9348-11.4493
		c-1.8882,2.7892-3.1268,5.9597-3.1268,8.5455c0,6.0684,4.9194,10.9879,10.9879,10.9879c6.0684,0,10.9878-4.9196,10.9878-10.9879
		c0-3.2296-0.8847-7.3549-2.6039-10.5299c-0.0212-0.0461-0.0359-0.097-0.0573-0.1431c-3.1077-6.699-7.712-12.7036-13.3914-17.4259
		c-3.9377-3.2737-8.3898-5.9092-13.1323-7.8395c2.9877,1.6937,5.8268,3.6688,8.4677,5.8647
		c5.0259,4.1791,9.3398,9.2196,12.7047,14.8225c-0.3556-0.0697-0.7081-0.1144-1.0873-0.1144c-3.0433,0-6.2723,2.3389-8.7356,5.4358
		c-0.7864-0.1829-1.6451-0.3668-2.5754-0.5465c-19.2223-3.7133-37.1105,11.496-37.4392,31.8317
		c-0.2966,18.3699,11.7607,35.7664,31.0974,44.868c8.3895,3.9487,27.4641,7.1729,37.6095,6.3572
		c13.4949-1.0848,26.6629-4.7113,39.3291-10.8313c8.0912-3.9092,26.0714-16.5063,33.5624-23.5139
		c5.7291-5.3593,11.5671-11.5662,17.4005-18.4572c-0.2198,0.476-0.4451,0.9489-0.6608,1.4271
		c-0.108,0.2396-0.213,0.4808-0.3198,0.7211c-9.9386,12.8545-21.5916,24.3673-34.7828,33.8347
		c-19.225,13.798-41.7574,23.1752-65.2402,26.0961c-14.5644,1.8114-29.5087,1.1279-43.6079-2.9474
		c-14.0992-4.0754-27.3295-11.6195-37.3129-22.3767c-9.9838-10.7571-16.5903-24.7903-17.6263-39.4298
		c-1.0366-14.6394,3.7202-29.766,13.6487-40.5743c5.7109-6.2166,13.0206-10.9597,21.0316-13.6204s16.7133-3.2534,25.0083-1.6882
		c3.2622,0.6155,6.4534,1.5814,9.5283,2.8329c-5.5644-3.1544-11.626-5.3953-17.912-6.5813
		c-9.661-1.823-19.7973-1.1533-29.1287,1.9458c-9.3314,3.0985-17.8422,8.6108-24.4937,15.8517
		c-11.5645,12.5894-17.1162,30.2468-15.9094,47.2991c1.2068,17.0521,8.9166,33.3672,20.5454,45.897
		c11.6297,12.5298,27.0145,21.321,43.4367,26.0677c10.2635,2.9668,20.9263,4.4147,31.6184,4.5497l0.0073-0.007
		c6.415,0.0809,12.8389-0.3248,19.2003-1.116c27.3505-3.3972,53.5748-14.3116,75.9717-30.3815
		c5.5067-3.9526,10.7833-8.2137,15.8223-12.7422c-1.6216,9.6096-2.0168,19.3717-0.7798,29.0464
		c1.3637,10.6627,4.7086,21.1132,10.204,30.3521c5.4957,9.2389,13.1744,17.2318,22.4197,22.7164
		c1.6127,0.9568,3.2668,1.8475,4.9682,2.6403l0.0005-0.0011c0.5673,0.2642,1.1493,0.5105,1.7256,0.7535
		c3.8423,1.6204,7.881,2.7776,12.0125,3.319C804.1953,1607.882,806.0878,1607.9971,807.9779,1607.9753z"/>
	<path d="M179.6514,807.9779c-11.8669,4.7108-23.3719,10.3121-34.3843,16.8966c-13.8265,8.2649-26.7932,18.0593-38.3926,29.2411
		c-13.0095,4.1916-26.7071,6.1572-40.206,4.4309c-9.1544-1.1706-18.1372-4.0598-26.0695-8.7777
		c-7.9319-4.718-14.7997-11.3029-19.5089-19.2397c-2.9204-4.9227-5.0004-10.3726-5.7443-16.0478
		c-0.2818-2.1506-0.3661-4.3347-0.2376-6.5034c-0.1285-2.1688-0.0443-4.3527,0.2376-6.5034
		c0.7438-5.6752,2.8239-11.1251,5.7443-16.0478c4.7093-7.9368,11.5771-14.5217,19.5089-19.2397
		c7.9323-4.718,16.9152-7.6071,26.0695-8.7777c13.4989-1.7263,27.1964,0.2393,40.206,4.4309
		c11.5994,11.1818,24.5661,20.9762,38.3926,29.2411C156.2794,797.6658,167.7845,803.2671,179.6514,807.9779z M7.9805,807.9779
		c-0.0217,1.8901,0.0933,3.7827,0.3387,5.6548c0.5415,4.1315,1.6987,8.1702,3.319,12.0125c0.243,0.5763,0.4893,1.1584,0.7535,1.7256
		l-0.001,0.0005c0.7927,1.7014,1.6835,3.3555,2.6402,4.9682c5.4846,9.2453,13.4775,16.924,22.7164,22.4197
		c9.2389,5.4954,19.6893,8.8403,30.352,10.204c9.6747,1.2371,19.4367,0.8418,29.0463-0.7798
		c-4.5284,5.039-8.7895,10.3156-12.7422,15.8223c-16.0697,22.3969-26.9842,48.6212-30.3814,75.9717
		c-0.7912,6.3614-1.197,12.7852-1.116,19.2003l-0.007,0.0073c0.135,10.6921,1.5829,21.3549,4.5497,31.6184
		c4.7467,16.4222,13.5379,31.8069,26.0677,43.4367c12.5298,11.6288,28.8449,19.3386,45.897,20.5454
		c17.0522,1.2068,34.7097-4.345,47.299-15.9094c7.2409-6.6515,12.7533-15.1624,15.8518-24.4938
		c3.099-9.3314,3.7687-19.4677,1.9458-29.1287c-1.1861-6.2859-3.4269-12.3476-6.5813-17.912
		c1.2514,3.0749,2.2173,6.2661,2.8329,9.5283c1.5651,8.295,0.9724,16.9973-1.6883,25.0083
		c-2.6606,8.011-7.4038,15.3207-13.6203,21.0317c-10.8083,9.9283-25.935,14.6852-40.5744,13.6487
		c-14.6395-1.036-28.6727-7.6426-39.4298-17.6263c-10.7571-9.9834-18.3012-23.2136-22.3767-37.3129
		c-4.0753-14.0992-4.7588-29.0436-2.9473-43.6079c2.9208-23.4828,12.2981-46.0152,26.0961-65.2402
		c9.4674-13.1912,20.9802-24.8442,33.8347-34.7828c0.2402-0.1069,0.4815-0.2118,0.721-0.3198
		c0.4783-0.2157,0.9512-0.4409,1.4272-0.6608c-6.891,5.8334-13.0979,11.6714-18.4572,17.4005
		c-7.0075,7.491-19.6047,25.4712-23.5139,33.5624c-6.1199,12.6662-9.7464,25.8342-10.8313,39.3291
		c-0.8157,10.1454,2.4085,29.22,6.3573,37.6095c9.1016,19.3367,26.4981,31.394,44.868,31.0974
		c20.3357-0.3287,35.545-18.2169,31.8317-37.4392c-0.1797-0.9302-0.3636-1.7889-0.5466-2.5754
		c3.097-2.4633,5.4359-5.6923,5.4359-8.7356c0-0.3793-0.0447-0.7318-0.1144-1.0873c5.6028,3.3649,10.6435,7.6788,14.8225,12.7047
		c2.1959,2.6409,4.171,5.48,5.8647,8.4677c-1.9303-4.7425-4.5658-9.1945-7.8395-13.1323
		c-4.7222-5.6794-10.7269-10.2837-17.4258-13.3914c-0.0461-0.0213-0.097-0.036-0.1431-0.0573
		c-3.1751-1.7192-7.3003-2.6039-10.53-2.6039c-6.0684,0-10.9879,4.9195-10.9879,10.9879c0,6.0684,4.9195,10.9879,10.9879,10.9879
		c2.5858,0,5.7564-1.2386,8.5455-3.1268c1.108,10.2994-3.0093,19.6956-11.4493,25.9348c-12.5271,9.2602-27.779,9.0368-42.369-0.6215
		c-12.0858-8.0001-19.3338-20.1938-22.3676-37.6278c-5.4253-31.1771,7.74-63.2579,37.5564-91.5186
		c10.0337-9.5099,37.5134-29.7689,51.9679-38.3127c3.9078-2.3098,8.2793-4.7457,12.7926-7.1487
		c31.2205-10.9237,64.9744-15.1141,98.1886-14.717c13.9444,0.1669,27.8158,1.0986,41.6362,2.5711
		c-11.584,3.749-22.7523,8.6615-33.2407,14.9326c-15.5908,9.3214-29.5188,21.5811-40.1102,36.3387
		c-10.5913,14.7575-17.7847,32.0414-20.0272,50.067c-0.5215,4.1924-0.7889,8.4257-0.7354,12.6534l-0.003-0.0002
		c0.0891,7.0462,1.0432,14.0736,2.9984,20.8375c3.1284,10.823,8.9218,20.962,17.1794,28.626
		c8.2576,7.6638,19.0099,12.7449,30.2477,13.5397c11.2378,0.7953,22.8748-2.8635,31.1715-10.4851
		c4.772-4.3836,8.4048-9.9926,10.4476-16.1421c2.0424-6.1494,2.4837-12.8301,1.2823-19.1976
		c-0.7816-4.1426-2.2584-8.1376-4.3373-11.8046c0.8247,2.0265,1.4612,4.1295,1.8669,6.2796
		c1.0315,5.4667,0.6408,11.2021-1.1126,16.4818s-4.8793,10.0969-8.9762,13.8602c-7.123,6.5433-17.0925,9.6776-26.7398,8.9951
		c-9.6482-0.6828-18.8963-5.0366-25.9862-11.616c-7.0895-6.5797-12.061-15.2988-14.7466-24.5908
		c-2.6858-9.2921-3.1362-19.1408-1.9424-28.7386c1.9249-15.4764,8.105-30.3255,17.1978-42.9954
		c9.0931-12.6699,21.049-23.188,34.434-31.1908c20.7268-12.3924,44.5398-18.6346,68.7104-20.6495
		c28.7175,4.7764,57.2946,11.0788,85.924,16.9473c-8.9624,7.8821-13.6233,26.7928-36.61,35.1185h-0.0027
		c-34.9779,12.6689-97.81,2.9703-109.979,24.2941c12.5737-5.6613,90.2449,35.379,122.5784,23.6688
		c23.0455-8.347,27.1967-33.6726,30.8267-56.0796c5.4536,14.9519,15.1936,33.5195,8.1101,59.9555
		c-12.2606,45.7734-63.473,102.956-63.7203,137.238l-0.0033-0.0018c-0.0037,0.5443,0.0064,1.0698,0.0286,1.6024
		c0.1468,3.5261,0.8806,6.7887,2.2891,9.7572c1.5663-8.3126,23.1313-23.7419,48.1286-42.2922
		c-3.5872-8.9144-4.8603-17.1858-2.604-23.6064c6.4597,5.0844,12.2798,9.1368,17.5979,12.3613
		c6.339-4.8429,12.6992-9.8231,18.8277-14.9078c-13.7659-14.4389-23.4316-30.364-21.2029-42.2344
		c22.4738,12.701,37.3458,16.3032,48.7301,16.4249c9.0769-10.1078,15.8042-20.2167,18.3991-29.9015
		c12.6971-47.3866-44.0328-78.5783-64.6039-108.022c32.6576,6.4088,65.4319,11.757,98.6086,13.1385
		c30.5049,1.2703,61.1519-0.8491,91.1935-6.2951S772.088,821.45,737.099,827.7936c-29.0773,5.2711-58.6388,7.8522-88.1893,7.7284
		c23.3469-4.5128,51.9537-10.2898,34.3626-7.1004c-23.0607,4.1805-46.5838,5.8027-69.9998,4.8276
		c-39.3962-1.6407-78.0596-10.5627-116.7937-18.5197c8.3467-2.1581,17.1948-4.2468,25.9185-6.7516
		c-8.7237-2.5048-17.5718-4.5935-25.9185-6.7516c38.7341-7.9569,77.3975-16.879,116.7937-18.5197
		c23.416-0.9752,46.9391,0.6471,69.9998,4.8276c17.5911,3.1894-11.0157-2.5876-34.3626-7.1004
		c29.5505-0.1238,59.112,2.4573,88.1893,7.7284c34.989,6.3437-50.479-10.6924-80.5206-16.1384s-60.6885-7.5654-91.1935-6.2951
		c-33.1768,1.3815-65.951,6.7297-98.6086,13.1385c20.5711-29.4437,77.3011-60.6354,64.6039-108.022
		c-2.5949-9.6848-9.3222-19.7936-18.3991-29.9015c-11.3843,0.1218-26.2563,3.7239-48.7301,16.4249
		c-2.2287-11.8705,7.437-27.7955,21.2029-42.2344c-6.1285-5.0847-12.4887-10.0649-18.8277-14.9078
		c-5.3181,3.2245-11.1383,7.277-17.5979,12.3613c-2.2563-6.4206-0.9832-14.692,2.604-23.6064
		c-24.9973-18.5502-46.5623-33.9796-48.1286-42.2922c-1.4085,2.9685-2.1424,6.2311-2.2891,9.7572
		c-0.0221,0.5326-0.0323,1.0582-0.0286,1.6024l0.0033-0.0018c0.2473,34.282,51.4597,91.4645,63.7203,137.238
		c7.0835,26.436-2.6565,45.0036-8.1101,59.9555c-3.63-22.407-7.7812-47.7325-30.8267-56.0796
		c-32.3335-11.7103-110.0047,29.3301-122.5784,23.6688c12.169,21.3237,75.0011,11.6251,109.979,24.2941h0.0027
		c22.9867,8.3256,27.6476,27.2363,36.61,35.1185c-28.6294,5.8685-57.2065,12.171-85.924,16.9473
		c-24.1706-2.015-47.9836-8.2571-68.7104-20.6495c-13.385-8.0028-25.3409-18.5209-34.434-31.1908
		c-9.0927-12.6699-15.2729-27.519-17.1978-42.9954c-1.1939-9.5978-0.7434-19.4466,1.9424-28.7386
		c2.6856-9.292,7.6571-18.011,14.7466-24.5908c7.0898-6.5793,16.338-10.9332,25.9862-11.616
		c9.6473-0.6824,19.6168,2.4518,26.7398,8.9951c4.0969,3.7633,7.2228,8.5806,8.9762,13.8602
		c1.7534,5.2797,2.1441,11.0151,1.1126,16.4818c-0.4057,2.1501-1.0422,4.2531-1.8669,6.2796
		c2.0789-3.6669,3.5556-7.662,4.3373-11.8046c1.2015-6.3675,0.7601-13.0482-1.2823-19.1976
		c-2.0428-6.1495-5.6756-11.7585-10.4476-16.1421c-8.2967-7.6216-19.9337-11.2804-31.1715-10.4851
		c-11.2378,0.7948-21.9901,5.8759-30.2477,13.5397c-8.2576,7.664-14.0511,17.803-17.1794,28.626
		c-1.9552,6.7639-2.9094,13.7913-2.9984,20.8375l0.003-0.0002c-0.0534,4.2277,0.214,8.461,0.7354,12.6534
		c2.2424,18.0256,9.4359,35.3094,20.0272,50.067c10.5914,14.7576,24.5193,27.0173,40.1102,36.3387
		c10.4884,6.2711,21.6567,11.1836,33.2407,14.9326c-13.8205,1.4725-27.6919,2.4042-41.6362,2.5711
		c-33.2143,0.3971-66.9682-3.7933-98.1886-14.717c-4.5132-2.403-8.8847-4.839-12.7926-7.1488
		c-14.4545-8.5438-41.9342-28.8027-51.9679-38.3127c-29.8164-28.2607-42.9817-60.3416-37.5564-91.5186
		c3.0338-17.434,10.2818-29.6277,22.3676-37.6278c14.59-9.6583,29.842-9.8817,42.369-0.6215
		c8.44,6.2393,12.5573,15.6354,11.4493,25.9348c-2.7892-1.8882-5.9597-3.1268-8.5455-3.1268
		c-6.0684,0-10.9879,4.9194-10.9879,10.9879c0,6.0684,4.9195,10.9878,10.9879,10.9878c3.2296,0,7.3548-0.8847,10.53-2.6039
		c0.0461-0.0212,0.097-0.0359,0.1431-0.0573c6.6989-3.1077,12.7036-7.712,17.4258-13.3914
		c3.2737-3.9377,5.9092-8.3898,7.8395-13.1323c-1.6937,2.9877-3.6688,5.8268-5.8647,8.4677
		c-4.179,5.0259-9.2197,9.3398-14.8225,12.7047c0.0697-0.3556,0.1144-0.7081,0.1144-1.0873c0-3.0433-2.3389-6.2723-5.4359-8.7356
		c0.183-0.7864,0.3669-1.6451,0.5466-2.5754c3.7133-19.2223-11.496-37.1105-31.8317-37.4392
		c-18.3699-0.2966-35.7663,11.7607-44.868,31.0974c-3.9488,8.3895-7.1729,27.4641-6.3573,37.6095
		c1.0849,13.4949,4.7114,26.6629,10.8313,39.3291c3.9092,8.0912,16.5064,26.0714,23.5139,33.5624
		c5.3593,5.7291,11.5662,11.5671,18.4572,17.4005c-0.476-0.2198-0.9489-0.4451-1.4272-0.6608
		c-0.2395-0.108-0.4809-0.213-0.721-0.3198c-12.8545-9.9386-24.3673-21.5916-33.8347-34.7828
		c-13.798-19.225-23.1752-41.7574-26.0961-65.2402c-1.8115-14.5644-1.128-29.5087,2.9473-43.6079
		c4.0755-14.0992,11.6196-27.3295,22.3767-37.3129c10.7571-9.9838,24.7903-16.5903,39.4298-17.6263
		c14.6394-1.0366,29.7661,3.7202,40.5744,13.6487c6.2165,5.7109,10.9597,13.0206,13.6203,21.0316
		c2.6607,8.011,3.2534,16.7133,1.6883,25.0083c-0.6156,3.2622-1.5815,6.4534-2.8329,9.5283
		c3.1544-5.5644,5.3952-11.626,6.5813-17.912c1.8229-9.661,1.1532-19.7973-1.9458-29.1287
		c-3.0985-9.3314-8.6109-17.8422-15.8518-24.4937c-12.5893-11.5645-30.2467-17.1162-47.299-15.9094
		c-17.0522,1.2068-33.3672,8.9166-45.897,20.5454c-12.5298,11.6297-21.321,27.0145-26.0677,43.4367
		c-2.9668,10.2635-4.4147,20.9263-4.5497,31.6184l0.007,0.0073c-0.081,6.415,0.3247,12.8389,1.116,19.2003
		c3.3971,27.3505,14.3116,53.5748,30.3814,75.9717c3.9527,5.5067,8.2138,10.7833,12.7422,15.8223
		c-9.6096-1.6216-19.3717-2.0168-29.0463-0.7798c-10.6627,1.3637-21.1131,4.7086-30.352,10.204
		c-9.2389,5.4957-17.2318,13.1744-22.7164,22.4197c-0.9568,1.6127-1.8475,3.2668-2.6402,4.9682l0.001,0.0005
		c-0.2642,0.5673-0.5104,1.1493-0.7535,1.7256c-1.6204,3.8423-2.7776,7.881-3.319,12.0125
		C8.0739,804.1953,7.9588,806.0878,7.9805,807.9779z"/>
	<path d="M807.9779,179.6514c-4.7108-11.8669-10.3121-23.3719-16.8965-34.3843c-8.2649-13.8265-18.0593-26.7932-29.2411-38.3926
		c-4.1916-13.0095-6.1572-26.7071-4.4309-40.206c1.1706-9.1544,4.0598-18.1372,8.7777-26.0695
		c4.718-7.9319,11.3029-14.7997,19.2397-19.5089c4.9227-2.9204,10.3726-5.0004,16.0478-5.7443
		c2.1506-0.2818,4.3346-0.3661,6.5034-0.2376c2.1688-0.1285,4.3528-0.0443,6.5034,0.2376
		c5.6752,0.7438,11.1251,2.8239,16.0478,5.7443c7.9368,4.7093,14.5217,11.5771,19.2397,19.5089
		c4.718,7.9323,7.6071,16.9152,8.7777,26.0695c1.7263,13.4989-0.2393,27.1964-4.4309,40.206
		c-11.1818,11.5994-20.9762,24.5661-29.2411,38.3926C818.29,156.2794,812.6887,167.7845,807.9779,179.6514z M807.9779,7.9805
		c-1.8901-0.0217-3.7826,0.0933-5.6548,0.3387c-4.1315,0.5415-8.1702,1.6987-12.0125,3.319
		c-0.5764,0.243-1.1584,0.4893-1.7256,0.7535l-0.0005-0.001c-1.7014,0.7927-3.3555,1.6835-4.9682,2.6402
		c-9.2453,5.4846-16.924,13.4775-22.4197,22.7164c-5.4954,9.2389-8.8403,19.6893-10.204,30.352
		c-1.2371,9.6747-0.8418,19.4367,0.7798,29.0463c-5.039-4.5284-10.3156-8.7895-15.8223-12.7422
		c-22.3969-16.0697-48.6212-26.9842-75.9717-30.3814c-6.3614-0.7912-12.7852-1.197-19.2003-1.116l-0.0073-0.007
		c-10.6921,0.135-21.3549,1.5829-31.6184,4.5497c-16.4222,4.7467-31.807,13.5379-43.4367,26.0677
		c-11.6288,12.5298-19.3386,28.8449-20.5454,45.897c-1.2068,17.0522,4.3449,34.7097,15.9094,47.299
		c6.6515,7.2409,15.1623,12.7533,24.4937,15.8518c9.3314,3.099,19.4677,3.7687,29.1287,1.9458
		c6.2859-1.1861,12.3476-3.4269,17.912-6.5813c-3.0749,1.2514-6.2661,2.2173-9.5283,2.8329
		c-8.295,1.5651-16.9973,0.9724-25.0083-1.6883c-8.011-2.6606-15.3207-7.4038-21.0316-13.6203
		c-9.9285-10.8083-14.6852-25.935-13.6487-40.5744c1.0359-14.6395,7.6425-28.6727,17.6263-39.4298
		c9.9833-10.7571,23.2136-18.3012,37.3129-22.3767c14.0992-4.0753,29.0435-4.7588,43.6079-2.9473
		c23.4828,2.9208,46.0152,12.2981,65.2402,26.0961c13.1912,9.4674,24.8442,20.9802,34.7828,33.8347
		c0.1069,0.2402,0.2118,0.4815,0.3198,0.721c0.2157,0.4783,0.4409,0.9512,0.6608,1.4272
		c-5.8334-6.891-11.6714-13.0979-17.4005-18.4572c-7.491-7.0075-25.4712-19.6047-33.5624-23.5139
		c-12.6662-6.1199-25.8342-9.7464-39.3291-10.8313c-10.1454-0.8157-29.22,2.4085-37.6095,6.3573
		c-19.3367,9.1016-31.394,26.4981-31.0974,44.868c0.3287,20.3357,18.2169,35.545,37.4392,31.8317
		c0.9302-0.1797,1.7889-0.3636,2.5754-0.5466c2.4633,3.097,5.6923,5.4359,8.7356,5.4359c0.3793,0,0.7318-0.0447,1.0873-0.1144
		c-3.3649,5.6028-7.6788,10.6435-12.7047,14.8225c-2.6409,2.1959-5.48,4.171-8.4677,5.8647
		c4.7425-1.9303,9.1945-4.5658,13.1323-7.8395c5.6794-4.7222,10.2837-10.7269,13.3914-17.4258
		c0.0213-0.0461,0.036-0.097,0.0573-0.1431c1.7192-3.1751,2.6039-7.3003,2.6039-10.53c0-6.0684-4.9194-10.9879-10.9878-10.9879
		c-6.0684,0-10.9879,4.9195-10.9879,10.9879c0,2.5858,1.2385,5.7564,3.1268,8.5455c-10.2994,1.108-19.6956-3.0093-25.9348-11.4493
		c-9.2602-12.5271-9.0368-27.779,0.6215-42.369c8.0001-12.0858,20.1938-19.3338,37.6278-22.3676
		c31.1771-5.4253,63.2579,7.74,91.5186,37.5564c9.5099,10.0337,29.7689,37.5134,38.3127,51.9679
		c2.3098,3.9078,4.7458,8.2793,7.1488,12.7926c10.9237,31.2205,15.1141,64.9744,14.717,98.1886
		c-0.1669,13.9444-1.0986,27.8158-2.5711,41.6362c-3.749-11.584-8.6615-22.7523-14.9326-33.2407
		c-9.3214-15.5908-21.5811-29.5188-36.3387-40.1102c-14.7575-10.5913-32.0414-17.7847-50.067-20.0272
		c-4.1924-0.5215-8.4257-0.7889-12.6534-0.7354l0.0002-0.003c-7.0462,0.0891-14.0736,1.0432-20.8375,2.9984
		c-10.823,3.1284-20.962,8.9218-28.626,17.1794c-7.6638,8.2576-12.7449,19.0099-13.5397,30.2477
		c-0.7953,11.2378,2.8635,22.8748,10.4851,31.1715c4.3836,4.772,9.9926,8.4048,16.1421,10.4476
		c6.1494,2.0424,12.8301,2.4837,19.1976,1.2823c4.1426-0.7816,8.1376-2.2584,11.8046-4.3373
		c-2.0265,0.8247-4.1295,1.4612-6.2796,1.8669c-5.4667,1.0315-11.2021,0.6408-16.4818-1.1126
		c-5.2795-1.7534-10.0969-4.8793-13.8602-8.9762c-6.5433-7.123-9.6776-17.0925-8.9951-26.7398
		c0.6828-9.6482,5.0366-18.8963,11.616-25.9862c6.5797-7.0895,15.2988-12.061,24.5908-14.7466
		c9.2921-2.6858,19.1408-3.1362,28.7386-1.9424c15.4764,1.9249,30.3255,8.105,42.9954,17.1978
		c12.6699,9.0931,23.188,21.049,31.1908,34.434c12.3924,20.7268,18.6346,44.5398,20.6495,68.7104
		c-4.7764,28.7175-11.0788,57.2946-16.9473,85.924c-7.8821-8.9624-26.7929-13.6233-35.1185-36.61v-0.0027
		c-12.6689-34.9779-2.9703-97.81-24.2941-109.979c5.6613,12.5737-35.379,90.2449-23.6688,122.5784
		c8.347,23.0455,33.6726,27.1967,56.0796,30.8267c-14.9519,5.4536-33.5195,15.1936-59.9555,8.1101
		c-45.7735-12.2606-102.956-63.473-137.238-63.7203l0.0018-0.0033c-0.5443-0.0037-1.0698,0.0064-1.6024,0.0286
		c-3.5261,0.1468-6.7887,0.8806-9.7572,2.2891c8.3126,1.5663,23.7419,23.1313,42.2922,48.1286
		c8.9144-3.5872,17.1859-4.8603,23.6064-2.604c-5.0844,6.4597-9.1368,12.2798-12.3613,17.5979
		c4.8429,6.339,9.8231,12.6992,14.9078,18.8277c14.4389-13.7659,30.364-23.4316,42.2344-21.2029
		c-12.701,22.4738-16.3032,37.3458-16.4249,48.7301c10.1078,9.0769,20.2167,15.8042,29.9015,18.3991
		c47.3866,12.6971,78.5783-44.0328,108.022-64.6039c-6.4088,32.6576-11.757,65.4319-13.1385,98.6086
		c-1.2703,30.5049,0.8491,61.1519,6.2951,91.1935s22.4821,115.5096,16.1384,80.5206c-5.2711-29.0773-7.8522-58.6388-7.7284-88.1893
		c4.5128,23.3469,10.2898,51.9537,7.1004,34.3626c-4.1805-23.0607-5.8027-46.5838-4.8276-69.9998
		c1.6407-39.3962,10.5627-78.0596,18.5197-116.7937c2.1581,8.3467,4.2468,17.1948,6.7516,25.9185
		c2.5048-8.7237,4.5936-17.5718,6.7516-25.9185c7.9569,38.7341,16.879,77.3975,18.5197,116.7937
		c0.9752,23.416-0.6471,46.9391-4.8276,69.9998c-3.1894,17.5911,2.5876-11.0157,7.1004-34.3626
		c0.1238,29.5505-2.4573,59.112-7.7284,88.1893c-6.3437,34.989,10.6924-50.479,16.1384-80.5206s7.5654-60.6885,6.2951-91.1935
		c-1.3815-33.1768-6.7297-65.951-13.1385-98.6086c29.4437,20.5711,60.6354,77.3011,108.022,64.6039
		c9.6848-2.5949,19.7936-9.3222,29.9015-18.3991c-0.1218-11.3843-3.7239-26.2563-16.4249-48.7301
		c11.8705-2.2287,27.7955,7.437,42.2344,21.2029c5.0847-6.1285,10.0649-12.4887,14.9078-18.8277
		c-3.2245-5.3181-7.277-11.1383-12.3613-17.5979c6.4206-2.2563,14.692-0.9832,23.6064,2.604
		c18.5503-24.9973,33.9796-46.5623,42.2922-48.1286c-2.9685-1.4085-6.2311-2.1424-9.7572-2.2891
		c-0.5326-0.0221-1.0581-0.0323-1.6024-0.0286l0.0018,0.0033c-34.282,0.2473-91.4645,51.4597-137.238,63.7203
		c-26.436,7.0835-45.0036-2.6565-59.9555-8.1101c22.407-3.63,47.7325-7.7812,56.0796-30.8267
		c11.7103-32.3335-29.3301-110.0047-23.6688-122.5784c-21.3237,12.169-11.6251,75.0011-24.2941,109.979v0.0027
		c-8.3256,22.9867-27.2363,27.6476-35.1185,36.61c-5.8685-28.6294-12.171-57.2065-16.9473-85.924
		c2.015-24.1706,8.2571-47.9836,20.6495-68.7104c8.0028-13.385,18.5209-25.3409,31.1908-34.434
		c12.6699-9.0927,27.519-15.2729,42.9954-17.1978c9.5978-1.1939,19.4466-0.7434,28.7386,1.9424
		c9.292,2.6856,18.011,7.6571,24.5908,14.7466c6.5793,7.0898,10.9332,16.338,11.616,25.9862
		c0.6824,9.6473-2.4518,19.6168-8.9951,26.7398c-3.7633,4.0969-8.5806,7.2228-13.8602,8.9762s-11.0151,2.1441-16.4818,1.1126
		c-2.1501-0.4057-4.2531-1.0422-6.2796-1.8669c3.6669,2.0789,7.662,3.5556,11.8046,4.3373
		c6.3675,1.2015,13.0482,0.7601,19.1976-1.2823c6.1495-2.0428,11.7585-5.6756,16.1421-10.4476
		c7.6216-8.2967,11.2804-19.9337,10.4851-31.1715c-0.7948-11.2378-5.8759-21.9901-13.5397-30.2477
		c-7.664-8.2576-17.803-14.0511-28.626-17.1794c-6.7639-1.9552-13.7913-2.9094-20.8375-2.9984l0.0002,0.003
		c-4.2277-0.0534-8.461,0.214-12.6534,0.7354c-18.0256,2.2424-35.3094,9.4359-50.067,20.0272
		c-14.7576,10.5914-27.0173,24.5193-36.3387,40.1102c-6.2711,10.4884-11.1836,21.6567-14.9326,33.2407
		c-1.4725-13.8205-2.4042-27.6919-2.5711-41.6362c-0.3972-33.2143,3.7933-66.9682,14.717-98.1886
		c2.403-4.5132,4.839-8.8847,7.1487-12.7926c8.5439-14.4545,28.8028-41.9342,38.3127-51.9679
		c28.2607-29.8164,60.3416-42.9817,91.5186-37.5564c17.434,3.0338,29.6277,10.2818,37.6278,22.3676
		c9.6583,14.59,9.8817,29.842,0.6215,42.369c-6.2393,8.44-15.6354,12.5573-25.9348,11.4493
		c1.8882-2.7892,3.1268-5.9597,3.1268-8.5455c0-6.0684-4.9194-10.9879-10.9879-10.9879c-6.0684,0-10.9879,4.9195-10.9879,10.9879
		c0,3.2296,0.8848,7.3548,2.6039,10.53c0.0212,0.0461,0.0359,0.097,0.0573,0.1431c3.1077,6.6989,7.712,12.7036,13.3914,17.4258
		c3.9377,3.2737,8.3898,5.9092,13.1323,7.8395c-2.9877-1.6937-5.8268-3.6688-8.4677-5.8647
		c-5.0259-4.179-9.3398-9.2197-12.7047-14.8225c0.3556,0.0697,0.7081,0.1144,1.0873,0.1144c3.0433,0,6.2723-2.3389,8.7356-5.4359
		c0.7864,0.183,1.6451,0.3669,2.5754,0.5466c19.2223,3.7133,37.1105-11.496,37.4392-31.8317
		c0.2966-18.3699-11.7607-35.7663-31.0974-44.868c-8.3895-3.9488-27.4641-7.1729-37.6095-6.3573
		c-13.4949,1.0849-26.6629,4.7114-39.3291,10.8313c-8.0912,3.9092-26.0714,16.5064-33.5624,23.5139
		c-5.7291,5.3593-11.5671,11.5662-17.4005,18.4572c0.2198-0.476,0.4451-0.9489,0.6608-1.4272
		c0.108-0.2395,0.213-0.4809,0.3198-0.721c9.9386-12.8545,21.5916-24.3673,34.7828-33.8347
		c19.225-13.798,41.7574-23.1752,65.2402-26.0961c14.5643-1.8115,29.5087-1.128,43.6079,2.9473
		c14.0992,4.0755,27.3295,11.6196,37.3129,22.3767c9.9838,10.7571,16.5903,24.7903,17.6263,39.4298
		c1.0365,14.6394-3.7203,29.7661-13.6487,40.5744c-5.7109,6.2165-13.0206,10.9597-21.0317,13.6203
		c-8.011,2.6607-16.7133,3.2534-25.0083,1.6883c-3.2622-0.6156-6.4534-1.5815-9.5283-2.8329
		c5.5644,3.1544,11.626,5.3952,17.912,6.5813c9.661,1.8229,19.7973,1.1532,29.1287-1.9458
		c9.3314-3.0985,17.8423-8.6109,24.4938-15.8518c11.5645-12.5893,17.1162-30.2467,15.9094-47.299
		c-1.2068-17.0522-8.9166-33.3672-20.5454-45.897c-11.6298-12.5298-27.0145-21.321-43.4367-26.0677
		c-10.2635-2.9668-20.9263-4.4147-31.6184-4.5497l-0.0073,0.007c-6.415-0.081-12.8389,0.3247-19.2003,1.116
		c-27.3505,3.3971-53.5748,14.3116-75.9717,30.3814c-5.5067,3.9527-10.7833,8.2138-15.8223,12.7422
		c1.6216-9.6096,2.0168-19.3717,0.7798-29.0463c-1.3637-10.6627-4.7086-21.1131-10.204-30.352
		c-5.4957-9.2389-13.1744-17.2318-22.4197-22.7164c-1.6127-0.9568-3.2668-1.8475-4.9682-2.6402l-0.0005,0.001
		c-0.5673-0.2642-1.1494-0.5104-1.7256-0.7535c-3.8423-1.6204-7.881-2.7776-12.0125-3.319
		C811.7606,8.0739,809.868,7.9588,807.9779,7.9805z"/>
	<path d="M690.6064,317.4905c-1.7408,1.4474-3.6124,2.7494-5.5818,3.8658v0.0003c3.1259-1.2722,6.0604-3.0092,8.6556-5.167
		c3.7429-3.1121,6.7775-7.0691,8.8254-11.4841c0.0141-0.0304,0.0237-0.0639,0.0377-0.0943c1.133-2.0924,1.716-4.8112,1.716-6.9396
		c0-3.9993-3.2421-7.2413-7.2413-7.2413c-3.9993,0-7.2413,3.2421-7.2413,7.2413s4.4866,10.1262,8.4858,10.1262
		c0.25,0,0.4823-0.0296,0.7166-0.0755C696.7617,311.4149,693.9186,314.7366,690.6064,317.4905z"/>
	<path d="M317.4905,925.3495c1.4474,1.7408,2.7494,3.6124,3.8658,5.5818h0.0003c-1.2722-3.1259-3.0092-6.0604-5.167-8.6556
		c-3.1121-3.7429-7.0691-6.7775-11.4841-8.8254c-0.0304-0.0141-0.0639-0.0237-0.0943-0.0377
		c-2.0924-1.133-4.8112-1.716-6.9396-1.716c-3.9993,0-7.2413,3.2421-7.2413,7.2413c0,3.9993,3.2421,7.2413,7.2413,7.2413
		s10.1262-4.4866,10.1262-8.4858c0-0.25-0.0296-0.4823-0.0755-0.7166C311.4149,919.1942,314.7366,922.0373,317.4905,925.3495z"/>
	<path d="M925.3495,1298.4653c1.7408-1.4475,3.6124-2.7494,5.5818-3.8658v-0.0002c-3.1259,1.2722-6.0604,3.0092-8.6556,5.167
		c-3.7429,3.1122-6.7775,7.0692-8.8254,11.4841c-0.0141,0.0304-0.0237,0.064-0.0377,0.0944c-1.133,2.0924-1.716,4.8112-1.716,6.9396
		c0,3.9993,3.2421,7.2413,7.2413,7.2413c3.9993,0,7.2413-3.2421,7.2413-7.2413s-4.4866-10.1262-8.4858-10.1262
		c-0.25,0-0.4823,0.0295-0.7166,0.0754C919.1942,1304.541,922.0373,1301.2192,925.3495,1298.4653z"/>
	<path d="M1298.4653,690.6064c-1.4475-1.7408-2.7494-3.6124-3.8658-5.5818h-0.0002c1.2722,3.1259,3.0092,6.0604,5.167,8.6556
		c3.1122,3.7429,7.0692,6.7775,11.4841,8.8254c0.0304,0.0141,0.064,0.0237,0.0944,0.0377c2.0924,1.133,4.8112,1.716,6.9396,1.716
		c3.9993,0,7.2413-3.2421,7.2413-7.2413c0-3.9993-3.2421-7.2413-7.2413-7.2413s-10.1262,4.4866-10.1262,8.4858
		c0,0.25,0.0295,0.4823,0.0754,0.7166C1304.541,696.7617,1301.2192,693.9186,1298.4653,690.6064z"/>
	<path d="M925.3495,317.4905c1.7408,1.4474,3.6124,2.7494,5.5818,3.8658v0.0003c-3.1259-1.2722-6.0604-3.0092-8.6556-5.167
		c-3.7429-3.1121-6.7775-7.0691-8.8254-11.4841c-0.0141-0.0304-0.0237-0.0639-0.0377-0.0943
		c-1.133-2.0924-1.716-4.8112-1.716-6.9396c0-3.9993,3.2421-7.2413,7.2413-7.2413c3.9993,0,7.2413,3.2421,7.2413,7.2413
		s-4.4866,10.1262-8.4858,10.1262c-0.25,0-0.4823-0.0296-0.7166-0.0755C919.1942,311.4149,922.0373,314.7366,925.3495,317.4905z"/>
	<path d="M317.4905,690.6064c1.4474-1.7408,2.7494-3.6124,3.8658-5.5818h0.0003c-1.2722,3.1259-3.0092,6.0604-5.167,8.6556
		c-3.1121,3.7429-7.0691,6.7775-11.4841,8.8254c-0.0304,0.0141-0.0639,0.0237-0.0943,0.0377
		c-2.0924,1.133-4.8112,1.716-6.9396,1.716c-3.9993,0-7.2413-3.2421-7.2413-7.2413c0-3.9993,3.2421-7.2413,7.2413-7.2413
		s10.1262,4.4866,10.1262,8.4858c0,0.25-0.0296,0.4823-0.0755,0.7166C311.4149,696.7617,314.7366,693.9186,317.4905,690.6064z"/>
	<path d="M690.6064,1298.4653c-1.7408-1.4475-3.6124-2.7494-5.5818-3.8658v-0.0002c3.1259,1.2722,6.0604,3.0092,8.6556,5.167
		c3.7429,3.1122,6.7775,7.0692,8.8254,11.4841c0.0141,0.0304,0.0237,0.064,0.0377,0.0944c1.133,2.0924,1.716,4.8112,1.716,6.9396
		c0,3.9993-3.2421,7.2413-7.2413,7.2413c-3.9993,0-7.2413-3.2421-7.2413-7.2413s4.4866-10.1262,8.4858-10.1262
		c0.25,0,0.4823,0.0295,0.7166,0.0754C696.7617,1304.541,693.9186,1301.2192,690.6064,1298.4653z"/>
	<path d="M1298.4653,925.3495c-1.4475,1.7408-2.7494,3.6124-3.8658,5.5818h-0.0002c1.2722-3.1259,3.0092-6.0604,5.167-8.6556
		c3.1122-3.7429,7.0692-6.7775,11.4841-8.8254c0.0304-0.0141,0.064-0.0237,0.0944-0.0377c2.0924-1.133,4.8112-1.716,6.9396-1.716
		c3.9993,0,7.2413,3.2421,7.2413,7.2413c0,3.9993-3.2421,7.2413-7.2413,7.2413s-10.1262-4.4866-10.1262-8.4858
		c0-0.25,0.0295-0.4823,0.0754-0.7166C1304.541,919.1942,1301.2192,922.0373,1298.4653,925.3495z"/>
	<circle cx="731.5534" cy="626.7102" r="17.8555"/>
	<circle cx="626.7101" cy="884.4024" r="17.8555"/>
	<circle cx="884.4024" cy="989.2457" r="17.8555"/>
	<circle cx="989.2457" cy="731.5535" r="17.8555"/>
	<circle cx="884.4024" cy="626.7102" r="17.8555"/>
	<circle cx="626.7101" cy="731.5535" r="17.8555"/>
	<circle cx="731.5534" cy="989.2457" r="17.8555"/>
	<circle cx="989.2457" cy="884.4024" r="17.8555"/>
	<circle cx="751.7045" cy="668.8376" r="12.3629"/>
	<circle cx="668.8376" cy="864.2513" r="12.3629"/>
	<circle cx="864.2513" cy="947.1182" r="12.3629"/>
	<circle cx="947.1182" cy="751.7045" r="12.3629"/>
	<circle cx="864.2513" cy="668.8376" r="12.3629"/>
	<circle cx="668.8376" cy="751.7045" r="12.3629"/>
	<circle cx="751.7045" cy="947.1182" r="12.3629"/>
	<circle cx="947.1182" cy="864.2513" r="12.3629"/>
	<path d="M807.9779,581.3848c-6.6746-0.0042-12.7844,4.4486-14.594,11.202c-2.1597,8.0601,2.6235,16.3448,10.6835,18.5045
		c1.3066,0.3501,2.6191,0.5178,3.9105,0.5186c1.2914-0.0008,2.6039-0.1685,3.9106-0.5186
		c8.06-2.1597,12.8431-10.4445,10.6835-18.5045C820.7623,585.8334,814.6525,581.3806,807.9779,581.3848z"/>
	<path d="M1034.5712,807.9779c0.0042-6.6746-4.4486-12.7844-11.2021-14.594c-8.0601-2.1597-16.3448,2.6235-18.5045,10.6835
		c-0.3501,1.3066-0.5178,2.6191-0.5186,3.9105c0.0008,1.2914,0.1685,2.6039,0.5186,3.9106
		c2.1597,8.06,10.4445,12.8431,18.5045,10.6835C1030.1226,820.7623,1034.5753,814.6525,1034.5712,807.9779z"/>
	<path d="M807.9779,1034.5712c6.6746,0.0042,12.7844-4.4486,14.5941-11.2021c2.1597-8.0601-2.6235-16.3448-10.6835-18.5045
		c-1.3066-0.3501-2.6191-0.5178-3.9106-0.5186c-1.2914,0.0008-2.6039,0.1685-3.9105,0.5186
		c-8.06,2.1597-12.8431,10.4445-10.6835,18.5045C795.1935,1030.1226,801.3033,1034.5753,807.9779,1034.5712z"/>
	<path d="M581.3848,807.9779c-0.0042,6.6746,4.4486,12.7844,11.202,14.5941c8.0601,2.1597,16.3448-2.6235,18.5045-10.6835
		c0.3501-1.3066,0.5178-2.6191,0.5186-3.9106c-0.0008-1.2914-0.1685-2.6039-0.5186-3.9105
		c-2.1597-8.06-10.4445-12.8431-18.5045-10.6835C585.8334,795.1935,581.3806,801.3033,581.3848,807.9779z"/>
	<path d="M807.9779,640.2638c-3.6262,0.8561-6.6776,3.6268-7.7094,7.4778c-1.4953,5.5807,1.8166,11.3169,7.3972,12.8123
		c0.1041,0.0278,0.2081,0.054,0.3122,0.0786c0.1041-0.0246,0.2082-0.0508,0.3123-0.0786c5.5806-1.4954,8.8925-7.2316,7.3972-12.8123
		C814.6555,643.8906,811.6041,641.1199,807.9779,640.2638z"/>
	<path d="M975.6921,807.9779c-0.8561-3.6262-3.6268-6.6776-7.4778-7.7094c-5.5807-1.4953-11.3169,1.8166-12.8123,7.3972
		c-0.0278,0.1041-0.0541,0.2081-0.0786,0.3122c0.0245,0.1041,0.0508,0.2082,0.0786,0.3123
		c1.4954,5.5806,7.2316,8.8925,12.8123,7.3972C972.0653,814.6555,974.8359,811.6041,975.6921,807.9779z"/>
	<path d="M807.9779,975.6921c3.6262-0.8561,6.6776-3.6268,7.7095-7.4778c1.4953-5.5807-1.8166-11.3169-7.3972-12.8123
		c-0.1041-0.0278-0.2081-0.0541-0.3123-0.0786c-0.1041,0.0245-0.2081,0.0508-0.3122,0.0786
		c-5.5806,1.4954-8.8925,7.2316-7.3972,12.8123C801.3004,972.0653,804.3517,974.8359,807.9779,975.6921z"/>
	<path d="M640.2638,807.9779c0.8561,3.6262,3.6268,6.6776,7.4778,7.7095c5.5807,1.4953,11.3169-1.8166,12.8123-7.3972
		c0.0278-0.1041,0.054-0.2081,0.0786-0.3123c-0.0246-0.1041-0.0508-0.2081-0.0786-0.3122
		c-1.4954-5.5806-7.2316-8.8925-12.8123-7.3972C643.8906,801.3004,641.1199,804.3517,640.2638,807.9779z"/>
</g>
</svg>
