<?xml version="1.0" encoding="UTF-8" standalone="no"?>
<!-- Created with Inkscape (http://www.inkscape.org/) -->
<svg xmlns:rdf="http://www.w3.org/1999/02/22-rdf-syntax-ns#" xmlns="http://www.w3.org/2000/svg" xmlns:cc="http://creativecommons.org/ns#" xmlns:xlink="http://www.w3.org/1999/xlink" xmlns:dc="http://purl.org/dc/elements/1.1/" xmlns:svg="http://www.w3.org/2000/svg" xmlns:inkscape="http://www.inkscape.org/namespaces/inkscape" xmlns:sodipodi="http://sodipodi.sourceforge.net/DTD/sodipodi-0.dtd" xmlns:ns1="http://sozi.baierouge.fr" id="svg2" viewBox="0 0 326 157" version="1.1" inkscape:version="0.91 r13725">
  <defs id="defs4">
    <clipPath id="clipPath3937">
      <rect id="rect3939" y=".96535" width="326.11" x="-86.132" height="97.799"/>
    </clipPath>
  </defs>
  <g id="layer1">
    <g id="g3930" transform="translate(86.132 29.671)" clip-path="url(#clipPath3937)">
      <path id="path2996" style="fill-rule:evenodd;fill:#5e3900" d="m76.92 10.86c-16.136 0-26.377 4.6645-32.781 9.8125-22.096 17.708-20.017 47.681-7 63.562-7.1692 4.4148-15.228 9.9936-23.281 7.6875-5.1145-1.4645-6.5315-7.0974-5.7812-11.406 0.57654-3.3114 3.5607-5.0713 6.625-4.8125 1.3964 0.11792 2.6965 0.76062 3.4688 1.6562 0.86179 0.9995 1.6437 3.0032 0.6875 4.4062-1.9873 2.916-4.2222 1.3223-4.375-1.5-0.102-1.8847-3.5062-1.3295-3.4375 0.375 0.059 1.4627 0.0555 2.3809 1.2812 4.1875 3.144 4.634 9.4991 1.8731 10.438-2.1875 1.2925-5.5927-2.3169-10.524-7.7188-10.906-5.3584-0.37877-10.363 3.2748-10.938 8.1875-0.84136 7.197 1.7686 14.162 8.6875 15.844 10.096 2.4537 20.304-4.2076 27.5-9.1562 4.5638 3.144 9.9322 6.5716 14.719 7.4688 5.7856 1.0844 12.304-0.11009 15.781-4.5625 1.4037-1.972 1.927-4.3468 1.75-6.5938-0.6837-8.6967-8.842-10.685-15.437-9.875-6.7876 0.8331-11.84 4.9157-16.75 8.6875-15.759-17.437-10.311-45.907 6.0938-57.812 8.6886-6.3056 19.791-9.5688 30.469-9.0938 10.678-0.47501 21.78 2.7881 30.469 9.0938 16.405 11.906 21.853 40.376 6.0938 57.812-4.9105-3.7718-9.9625-7.8544-16.75-8.6875-6.5955-0.80952-14.754 1.1783-15.438 9.875-0.1766 2.247 0.3467 4.6218 1.75 6.5938 3.4773 4.4524 9.9957 5.6469 15.781 4.5625 4.7866-0.89715 10.155-4.3247 14.719-7.4688 7.1957 4.9487 17.404 11.61 27.5 9.1562 6.9192-1.6815 9.5289-8.6468 8.6876-15.844-0.5743-4.9127-5.579-8.5663-10.938-8.1875-5.4016 0.38185-9.0112 5.3136-7.7187 10.906 0.9384 4.0606 7.2935 6.8216 10.438 2.1875 1.2262-1.8066 1.2224-2.7248 1.2812-4.1875 0.069-1.7045-3.3355-2.2597-3.4374-0.375-0.1529 2.8223-2.3877 4.416-4.375 1.5-0.9564-1.403-0.1742-3.4068 0.6874-4.4062 0.7725-0.89563 2.0724-1.5383 3.4688-1.6562 3.0643-0.25877 6.0484 1.5011 6.625 4.8125 0.7502 4.3089-0.6669 9.9417-5.7812 11.406-8.0536 2.3061-16.112-3.2727-23.281-7.6875 13.017-15.881 15.096-45.854-7-63.562-6.4039-5.148-16.645-9.8125-32.781-9.8125zm-22.562-0.428c-45.17 4.387-54.637 33.378-52.813 68.085 3.687-10.559 13.305-14.027 22.594-8.438-5.805-23.122-0.759-45.455 30.219-59.647zm45.125 0c30.977 14.192 36.024 36.525 30.219 59.648 9.289-5.5888 18.907-2.1208 22.594 8.4375 1.8242-34.707-7.6428-63.698-52.812-68.085zm-22.563 7.46c-7.4207 0-10.03 5.7508-8 11.219 3.1315 8.3752 5.3781 16.749 6.5938 25.562-0.033 0.91278 0.4485 1.092 1.4062 1.125 0.958-0.033 1.4393-0.21222 1.4063-1.125 1.2157-8.8135 3.4624-17.187 6.5937-25.562 2.0301-5.4679-0.5789-11.219-8-11.219zm-25.875 8.8438c-2.812 0.0994-5.5363 0.79631-6.8437 3.4375-1.64 3.3131-0.2818 7.3287 3.0313 8.9688 1.0294 0.50958 2.1445 0.75365 3.2187 0.71875 4.8321 0.087 17.282 5.4139 20 17.344 0.5408 1.5474 2.4731 2.2071 2.1875-1.5312-0.2541-8.3041-5.662-29.501-21.594-28.938zm50.281 0c-14.802 0.73901-19.879 20.893-20.125 28.938-0.2856 3.7384 1.6467 3.0787 2.1875 1.5312 2.7183-11.93 15.168-17.257 20-17.344 1.0742 0.0349 2.1893-0.20917 3.2188-0.71875 3.313-1.64 4.6712-5.6556 3.0312-8.9688-1.3074-2.6412-4.0314-3.3381-6.8438-3.4375-0.4977-0.0176-0.9912-0.0238-1.4687 0zm-53.219 17.25c-2.5748-0.0693-4.6397 0.32309-5.7813 0.5-3.5823 0.55511-6.6982 2.9595-6.7188 6.6562s2.9595 6.6982 6.6562 6.7188c2.1736 0.0121 4.1354-0.97748 5.3438-2.5938 1.7177-2.2975 10.821-3.9082 19.687 4.875 1.1649 1.1536 3.2084 0.85948 1.3126-2.375-6.6385-11.324-14.836-13.629-20.5-13.781zm57.625 0c-5.6641 0.15257-13.862 2.4573-20.5 13.781-1.8961 3.2345 0.1478 3.5286 1.3124 2.375 8.867-8.7832 17.97-7.1725 19.688-4.875 1.2083 1.6163 3.1701 2.6058 5.3437 2.5938 3.6967-0.0206 6.6771-3.022 6.6563-6.7188-0.021-3.6968-3.1365-6.1011-6.7188-6.6562-1.1416-0.17691-3.2068-0.5693-5.7812-0.5zm-28.813 14.406c-1.0434 0-2.9709 0.30262-4.3124 1.7188-1.3415 1.4161-5.6159 7.2241-6.1876 8.0625-1.118 1.6397-0.613 2.435 0.2813 3.0312 0.8944 0.59627 1.8556 0.46657 2.75-0.875s3.1609-4.632 3.9063-5.75c0.7453-1.118 2.2527-2.0938 3.5624-2.0938 1.3098 0 2.786 0.97578 3.5313 2.0938s3.0431 4.4084 3.9375 5.75 1.8556 1.4713 2.75 0.875c0.8943-0.59623 1.3993-1.3916 0.2812-3.0312-0.5716-0.83841-4.846-6.6464-6.1874-8.0625-1.3416-1.4161-3.2691-1.7188-4.3126-1.7188zm-22.156 0.90625c-0.4604-0.007-0.9269 0.0136-1.375 0.0312-3.5847 0.14123-6.7085 1.0283-8.25 1.7188-3.0232 1.3541-5.2181 4.2057-4.3438 7.4688 0.87432 3.263 4.237 5.2181 7.5 4.3438 1.919-0.51412 3.5186-1.8417 4.0938-3.5938 0.9491-2.8913 3.2991-5.976 11.5-4.2188 1.4643 0.31392 3.3589-1.1431 0.5-3.0312-2.9442-1.9445-6.4022-2.6669-9.625-2.7188zm44.312 0c-3.2228 0.0518-6.6808 0.77425-9.625 2.7188-2.8589 1.8882-0.9643 3.3452 0.5 3.0312 8.2009-1.7573 10.551 1.3275 11.5 4.2188 0.5752 1.7521 2.1751 3.0796 4.0937 3.5938 3.263 0.87432 6.6259-1.0807 7.5-4.3438 0.8746-3.263-1.3205-6.1147-4.3437-7.4688-1.5415-0.69043-4.6653-1.5775-8.25-1.7188-0.4481-0.0177-0.9146-0.0387-1.375-0.0312zm-22.156 9.8438c-1.7288 0-3.125 1.3962-3.125 3.125s1.3962 3.125 3.125 3.125c1.7289 0 3.125-1.3962 3.125-3.125s-1.3961-3.125-3.125-3.125zm-16.781 7.25c4.5357 0.15265 8.3174 2.9035 8.4375 6.8125 0.216 7.0297-10.151 7.9668-13.938 6.625-4.1756-1.4796-7.6138-3.4212-10.875-5.6562 3.9915-2.5387 6.4737-5.0503 11.719-7 1.5701-0.58376 3.1443-0.83213 4.6562-0.78125zm33.562 0c1.5119-0.0509 3.0859 0.19749 4.6563 0.78125 5.2449 1.9497 7.7272 4.4613 11.719 7-3.2612 2.2351-6.6994 4.1766-10.875 5.6562-3.7866 1.3418-14.154 0.40469-13.938-6.625 0.1201-3.909 3.9018-6.6598 8.4375-6.8125zm-32.5 3.0312c-1.3216 0-6.6616 1.0344-10.75 3.7188 4.2981 2.9988 9.3236 3.7188 10.75 3.7188 2.0553 0 3.7187-1.6634 3.7187-3.7188 0-2.0553-1.6634-3.7188-3.7187-3.7188zm31.438 0c-2.0553 0-3.7188 1.6634-3.7188 3.7188 0 2.0553 1.6635 3.7188 3.7188 3.7188 1.4264 0 6.4519-0.71993 10.75-3.7188-4.0884-2.6843-9.4284-3.7188-10.75-3.7188z"/>
      <path id="path3014" style="fill:#5e3900" d="m-4.6062 4.0874c-2.3071 0-4.0698 0.50488-5 1.5-1.3669 1.4618-1.2347 3.8736-0.9376 6.3125 0.2255 1.8495 2.8017 10.077 3.2188 11.688 0.3063 1.1828 0.8657 1.8438 2.7188 1.8438 1.853 0 2.4124-0.66094 2.7187-1.8438 0.4171-1.6107 2.9933-9.838 3.2187-11.688 0.2972-2.4389 0.4294-4.8507-0.9374-6.3125-0.9303-0.99512-2.693-1.5-5-1.5zm-15.031 3.6875c-0.7382 0.004-1.5286 0.10263-2.4063 0.3125-3.5353 0.84549-4.7229 6.9406-1.2812 8.7813 2.231 1.1931 4.4834 1.9246 6.5312 3.875 2.0481 1.9505 3.4084 4.1223 4.9688 5 1.6127 0.90715 2.4097-0.83919 1.875-2.9375-1.5635-6.137-2.5525-15.075-9.6875-15.032zm30.062 0c-7.1358-0.0425-8.124 8.8952-9.6875 15.031-0.5347 2.0983 0.2623 3.8446 1.875 2.9375 1.5604-0.8777 2.9207-3.0495 4.9687-5 2.0479-1.9504 4.3003-2.6819 6.5313-3.875 3.4417-1.8407 2.2541-7.9358-1.2813-8.7813-0.8776-0.20987-1.668-0.3085-2.4062-0.3125zm-15.031 21.187c-2.8634-0.0494-7.6434 1.2004-6.0626 4.1875 1.8548 3.5044 4.5251 8.6312 4.7188 11.156 0.1005 1.31 0.6801 1.4693 1.3438 1.4693 0.6637-0.00001 1.2432-0.15925 1.3437-1.4693 0.1937-2.5251 2.864-7.6518 4.7187-11.156 1.5809-2.9871-3.1991-4.2369-6.0624-4.1875z"/>
      <use id="use3029" style="fill:#5e3900" xlink:href="#path2996" transform="translate(-163.05)" height="1052.3622" width="744.09448" y="0" x="0"/>
      <use id="use3031" style="fill:#5e3900" xlink:href="#path3014" transform="translate(163.05 2.4541e-8)" height="1052.3622" width="744.09448" y="0" x="0"/>
      <use id="use3033" style="fill:#5e3900" xlink:href="#path2996" transform="translate(163.05)" height="1052.3622" width="744.09448" y="0" x="0"/>
    </g>
    <rect id="rect3039" style="color:#000000;fill:#5e3900" height="6.7756" width="326.11" y="20" x="3.5449e-7"/>
    <rect id="rect3041" style="color:#000000;fill:#5e3900" height="5.4205" width="326.11" y="131.76" x="3.5449e-7"/>
  </g>
  <metadata>
    <rdf:RDF>
      <cc:Work>
        <dc:format>image/svg+xml</dc:format>
        <dc:type rdf:resource="http://purl.org/dc/dcmitype/StillImage"/>
        <cc:license rdf:resource="http://creativecommons.org/licenses/publicdomain/"/>
        <dc:publisher>
          <cc:Agent rdf:about="http://openclipart.org/">
            <dc:title>Openclipart</dc:title>
          </cc:Agent>
        </dc:publisher>
        <dc:title>Victorian Ornament 2</dc:title>
        <dc:date>2010-11-18T00:01:15</dc:date>
        <dc:description>Vertical repetitive Victorian ornament</dc:description>
        <dc:source>https://openclipart.org/detail/96379/victorian-ornament-2-by-kuba</dc:source>
        <dc:creator>
          <cc:Agent>
            <dc:title>kuba</dc:title>
          </cc:Agent>
        </dc:creator>
        <dc:subject>
          <rdf:Bag>
            <rdf:li>decoration</rdf:li>
            <rdf:li>design</rdf:li>
            <rdf:li>history</rdf:li>
            <rdf:li>motif</rdf:li>
            <rdf:li>ornament</rdf:li>
            <rdf:li>pattern</rdf:li>
            <rdf:li>repeat</rdf:li>
            <rdf:li>vertical</rdf:li>
            <rdf:li>victorian</rdf:li>
          </rdf:Bag>
        </dc:subject>
      </cc:Work>
      <cc:License rdf:about="http://creativecommons.org/licenses/publicdomain/">
        <cc:permits rdf:resource="http://creativecommons.org/ns#Reproduction"/>
        <cc:permits rdf:resource="http://creativecommons.org/ns#Distribution"/>
        <cc:permits rdf:resource="http://creativecommons.org/ns#DerivativeWorks"/>
      </cc:License>
    </rdf:RDF>
  </metadata>
</svg>
