<?xml version="1.0" encoding="utf-8"?>
<!-- Generator: Adobe Illustrator 13.0.0, SVG Export Plug-In . SVG Version: 6.00 Build 14948)  -->
<!DOCTYPE svg PUBLIC "-//W3C//DTD SVG 1.1//EN" "http://www.w3.org/Graphics/SVG/1.1/DTD/svg11.dtd">
<svg version="1.1" id="Layer_1" xmlns="http://www.w3.org/2000/svg" xmlns:xlink="http://www.w3.org/1999/xlink" x="0px" y="0px"
	 width="188.044px" height="885px" viewBox="0 0 188.044 885" enable-background="new 0 0 188.044 885" xml:space="preserve">
<g>
	<g>
		<path fill-rule="evenodd" clip-rule="evenodd" fill="#FFFFFF" d="M1.044,0c62.333,0,124.667,0,187,0c0,294.997,0,590.005,0,885
			c-62.667,0-125.333,0-188,0c0-294.007,0-587.986,0-882C-0.042,1.581-0.121,0.168,1.044,0z M89.044,11
			c-7.804,2.691-14.169,16.871-19,21c-0.785,4.118,1.535,5.132,1,9c-4.616,0.616-5.755-2.245-10-2c-0.067,3.924,5.106,6.164,2,10
			c-17.953-11.549-29.434,11.345-17,19c-2.356,0.022-2.944-1.723-6-1c-2.349,3.651-6.371,5.629-6,12c0.779,0.221,1.163,0.837,1,2
			c3.747,3.07,9.469,3.105,15,2c0.385,2.615,3.207,2.793,2,7c-5.586,3.747-10.646,8.021-14,14c4.721,4.668,0.344,11.266,1,20
			c10.963-1.63,15.628,3.039,23,5c-1.334,9.334,6.81,9.19,8,16c-24.633,4.708-38.053,28.853-31,56c2.171,8.359,9.95,15.438,11,24
			c-1.332,4.335-6.086,5.247-5,12c10.039,1.607,18.767,2.786,27,8c2.691-8.276-5.334-17.01,4-19c4.004,8.869,0.473,19.369,2,31
			c-19.039,22.165-37.114,45.719-36,79c0.926,27.646,14.285,50.054,26,67c6.783,9.812,14.989,14.162,12,27
			c-10.219-4.021-14.633,4.084-19,9c-5.501-0.499-13.103,1.103-17-1c1.653,5.347,5.092,8.908,7,14c-1.375,2.959-4.935,3.732-6,7
			c2.174,2.493,7.537,1.797,9,5c-19.574,13.273-8.873,52.474,6,63c-6.108,0.833-9.218,2.702-10,7c-3.278,18.021,29.81,7.367,34,20
			c-0.61,11.028,4,27.218-1,36c-4.834-3.166-6.406-9.594-12-12c-2.246,4.421-3.894,9.439-5,15c-12.579,1.742-12.743,21.661,1,22
			c-12.528,33.622-31.002,74.092-19,120c-19.979-4.555-27.893,19.132-38,31c-0.893,9.936,2.564,17.268,12,14
			c4.37,27.05,51.291,25.307,64,7c4.715,6.285,10.21,11.79,15,18c-5.136,6.092-14.475,4.098-23,6c-8.084,1.804-9.22,8.173-15,14
			c-1.764,1.778-4.483,0.31-6,2c-3.216,3.582,0.674,25.268,3,30c2.069,4.21,10.936,12.509,15,15c23.48,14.393,61.181-0.609,59-34
			c1.519-3.481,3.797-6.203,4-11c-8.803-8.867-17.646-23.016-23-32c25.629,18.34,65.477,3.756,68-26
			c1.107-13.055-6.342-24.586-12-35c-11.298-0.149-22.997-7.915-34-2c-3.457-3.218-14.02-4.854-17,0c-1.055,5.055,2.279,5.721,2,10
			c-7.991,13.012-2.779,32.938,5,42c4.357,5.075,21.582,0.129,28,2c-11.761,7.855-30.852-0.385-38-7
			c-17.534-16.225-14.997-56.164-14-84c1.333,0,2.667,0,4,0c-1.146,6.796-1.146,13.204,0,20c7.38-7.523,29.565-2.544,28-17
			c-0.428-3.954-2.868-4.064-5-8c4.992-5.028,5.408-12.589,8-19c1.319-3.264,3.881-4.026,4-8c0.229-7.631-10.974-28.486-12-33
			c-10.032-1.635-20.185-3.148-29-6c-0.368-11.375-3.828-24.857,7-27c1.859,2.141,2.034,5.966,6,6c13.05,1.504,14.44-15.29,8-22
			c1.277-3.723,3.196-6.804,4-11c-3.554,0.113-3.635,3.698-8,3c15.163-22.57,26.232-54.16,20-89c-3.46-19.342-14.731-36.732-19-53
			c17.866-3.383,1.052-15.989,1-27c-4.076-0.743-3.443,3.223-8,2c-4.537-2.463-5.366-8.634-11-10c-2.816,3.85-1.235,12.098-5,15
			c-4.438-5.895-0.832-19.834-2-29c4.179,0.322,7.381-3.889,10-2c2.554,2.779,0.996,9.671,5,11c4.096-6.237,9.966-10.701,19-12
			c3.82-4.878,2.295-16.205-4-17c15.405-17.116,9.429-50.645,1-67c-6.289-2.711-15.102-2.899-18-9c0.128,5.737-11.107,4.513-15,3
			c0.642-4.025-1.3-10.633,1-13c3.003,1.331,7.65,1.017,12,1c0.029-12.304,13.418-11.249,17-20c-3.732-1.601-9.617-1.049-10-6
			c0.203-3.654,4.037-7.233,1-11c4.846-9.953,13.339-20.006,16-31c7.786-32.174-12.367-56.445-33-67c1.171-1.496,1.243-4.09,3-5
			c3.22-0.22,4.231,1.769,8,1c1.047-2.829-1.65-6.86,0-7c7.327,1.994,3.52-7.147,8-8c3.773-2.56,11.614-1.052,16-3
			c-3.155-6.178-6.14-12.527-9-19c1.247-2.087,3.924-2.743,5-5c-4.756-2.244-11.058-2.942-14-7c3.124-2.209,2.105-8.562,5-11
			c2.348,0.319,3.754,1.58,7,1c13.888-14.605-13.184-13.806-16-24c24.646,5.459,2.711-26.657-9-7c-4.106-3.894-4.656,0.291-9,1
			c-2.455-6.76-11.033-19.241-4-26c5.242,0.091,7.46,3.207,8,8C114.476,29.624,105.072,5.473,89.044,11z"/>
		<path fill-rule="evenodd" clip-rule="evenodd" fill="#FFFFFF" d="M101.044,26c-5.703-0.964-5.662-7.671-14-6
			C90.18,10.396,105.215,17.527,101.044,26z"/>
		<path fill-rule="evenodd" clip-rule="evenodd" fill="#FFFFFF" d="M78.044,27c2.984,13.479,25.999,41.288,17,62
			c-6.636,15.274-26.705-1.427-24-18c2.826-0.826,2.591,1.409,5,1c0.007-5.131-1.464-6.561,0-11c7.269,0.731,8.124,7.876,12,12
			c5.649-13.821-17.836-15.37-20-28c4.589-0.923,4.832,2.502,9,2C74.586,41.736,73.749,30.876,78.044,27z"/>
		<path fill-rule="evenodd" clip-rule="evenodd" fill="#FFFFFF" d="M114.044,45c-19.343,5.671,1.434,40.709-16,49
			c3.187-11.239,3.217-27.92-2-40c3.948-1.281,2.42,2.914,5,3C102.275,50.154,106.047,41.906,114.044,45z"/>
		<path fill-rule="evenodd" clip-rule="evenodd" fill="#FFFFFF" d="M60.044,58c-2.101-1.249-5.124-4.583-8-2
			c0.15,1.85,3.386,0.614,4,2c-0.777,0.89-1.075,2.258-1,4C32.445,66.144,56.524,36.625,60.044,58z"/>
		<path fill-rule="evenodd" clip-rule="evenodd" fill="#FFFFFF" d="M113.044,50c2.615-0.282,4.302,0.365,4,3
			c-0.89,0.777-2.258,1.075-4,1C113.044,52.667,113.044,51.333,113.044,50z"/>
		<path fill-rule="evenodd" clip-rule="evenodd" fill="#FFFFFF" d="M66.044,52c8.334,3.197,1.073,9.356,0,16
			c-1.081,6.688,2.955,12.702-1,17c6.191-2.909,5.07,7.375,11,10C59.908,98.309,55.881,62.72,66.044,52z"/>
		<path fill-rule="evenodd" clip-rule="evenodd" fill="#FFFFFF" d="M52.044,67c6.643,7.732,2.75,22.515,13,28
			c-9.371,0.363-8.74-17.92-20-19c-2.931,0.847,0.598,3.22,0,5c-6.873,1.086-8.076-6.747-5-10c4.646-0.979,6.037,1.296,9,2
			C50.981,71.937,49.284,67.24,52.044,67z"/>
		<path fill-rule="evenodd" clip-rule="evenodd" fill="#FFFFFF" d="M89.044,99c2.296,9.637-13.453,10.809-13,2
			C78.104,98.355,85.103,96.572,89.044,99z"/>
		<path fill-rule="evenodd" clip-rule="evenodd" fill="#FFFFFF" d="M75.044,149c0,2.333,0,4.667,0,7
			c-34.684,0.759-35.133,60.564,2,59c0,2,0,4,0,6c-12.223,0.89-17.19-5.476-24-10c1.655,7.679,9.188,9.478,16,12
			c1.008,3.008-2.228,1.772-4,2c1.318,4.349,4.693,6.64,4,13c-6.513,0.846-7.925-3.409-10-7c-2.727,2.885-7.853,6.036-12,2
			c0.627-3.373,5.546-2.453,6-6c-0.066-15.61-11.698-23.342-12-41C40.702,165.985,51.487,151.847,75.044,149z"/>
		<path fill-rule="evenodd" clip-rule="evenodd" fill="#FFFFFF" d="M80.044,154c3.113-0.18,3.559,7.412,6,2
			c2.315,4.018,0.347,12.32,1,18C79.361,172.697,77.193,162.771,80.044,154z"/>
		<path fill-rule="evenodd" clip-rule="evenodd" fill="#FFFFFF" d="M90.044,158c39.492,7.086,25.819,67.779,3,83
			c-2.714-5.676-1.115-10.886-1-18c22.537-8.503,26.422-56.03-2-61C90.044,160.667,90.044,159.333,90.044,158z"/>
		<path fill-rule="evenodd" clip-rule="evenodd" fill="#FFFFFF" d="M74.044,160c2.078,0.56,2.119,1.56,1,3
			c-9.506,3.443-17.757,15.001-17,26c0.472,6.857,7.72,10.725,6,18C42.344,197.834,52.015,161.516,74.044,160z"/>
		<path fill-rule="evenodd" clip-rule="evenodd" fill="#FFFFFF" d="M91.044,167c22.022,2.938,20.063,45.178,1,50
			c0.904-14.16,12.673-19.198,8-33C97.955,177.832,89.496,177.04,91.044,167z"/>
		<path fill-rule="evenodd" clip-rule="evenodd" fill="#FFFFFF" d="M84.044,177c-0.429,1.904-2.154,2.512-2,5
			c-5.444-0.391-7.798,1.989-11-1C69.378,170.638,81.678,170.584,84.044,177z"/>
		<path fill-rule="evenodd" clip-rule="evenodd" fill="#FFFFFF" d="M88.044,191C75.504,171.294,109.637,183.634,88.044,191
			L88.044,191z"/>
		<path fill-rule="evenodd" clip-rule="evenodd" fill="#FFFFFF" d="M71.044,185c-1.071,3.595-0.944,8.39-5,9
			C56.839,192.814,64.881,176.711,71.044,185z"/>
		<path fill-rule="evenodd" clip-rule="evenodd" fill="#FFFFFF" d="M78.044,186c5.203-1.222,10.242,9.252,3,11
			C75.898,198.242,68.027,188.352,78.044,186z"/>
		<path fill-rule="evenodd" clip-rule="evenodd" fill="#FFFFFF" d="M83.044,203C90.84,180.182,101.067,214.904,83.044,203
			L83.044,203z"/>
		<path fill-rule="evenodd" clip-rule="evenodd" fill="#FFFFFF" d="M78.044,202c-0.553,4.114-3.728,5.605-9,5
			c-1.272-2.395-3.651-3.682-3-8C69.066,193.401,75.462,198.641,78.044,202z"/>
		<path fill-rule="evenodd" clip-rule="evenodd" fill="#FFFFFF" d="M80.044,208c3.601-0.267,4.819,1.847,8,2
			c-2.616,15.937,6.813,38.039-7,42C81.489,236.555,79.267,223.777,80.044,208z"/>
		<path fill-rule="evenodd" clip-rule="evenodd" fill="#FFFFFF" d="M87.044,272c1.909,4.757,2.125,11.208,2,18
			c-2.395,1.272-3.682,3.651-8,3C78.546,284.086,80.339,274.614,87.044,272z"/>
		<path fill-rule="evenodd" clip-rule="evenodd" fill="#FFFFFF" d="M106.044,293c3.034-0.367,2.076,3.257,3,5
			c3.46-0.207,5.322-2.012,8-3c8.037,0.488,7.011,14.829-2,10c-0.599-2.599,0.401-3.599,3-3c-16.848-1.134-3.575,30.379-18,35
			c-30.429,6.275-7.095-40.557,0-12c5.885-7.178-7.657-14.421-3-24c3.48,0.52,4.615,3.385,6,6
			C106.243,305.773,102.221,295.994,106.044,293z"/>
		<path fill-rule="evenodd" clip-rule="evenodd" fill="#FFFFFF" d="M80.044,296c-0.826,2.826,1.409,2.591,1,5
			c3.874-0.46,3.764-4.903,7-6c5.862,5.257-1.709,12.435-4,16c2.798,2.068,4.879-3.264,9-3c-3.368,4.966-10.017,6.65-13,12
			c2.103,4.896-2.252,12.861,3,16c-24.431-1.692,5.342-30.276-8-39c-1.904,0.429-2.512,2.154-5,2
			C70.08,294.268,76.654,294.533,80.044,296z"/>
		<path fill-rule="evenodd" clip-rule="evenodd" fill="#FFFFFF" d="M77.044,303c-1.494,1.586-5.701,1.462-5-2
			C73.538,299.414,77.745,299.538,77.044,303z"/>
		<path fill-rule="evenodd" clip-rule="evenodd" fill="#FFFFFF" d="M122.044,308c4.313,0.688,5.575,4.425,6,9
			C123.96,316.083,121.209,313.835,122.044,308z"/>
		<path fill-rule="evenodd" clip-rule="evenodd" fill="#FFFFFF" d="M118.044,312c1.546,1.454,0.881,5.119,1,8
			c2.27-0.663,8.386-2.585,9,1c-0.114,4.556-3.31-1.821-7,0c-7.52,7.086-9.447,32.574-25,22c6.837-2.164,8.924-9.076,16-11
			C112.573,323.863,109.761,312.383,118.044,312z"/>
		<path fill-rule="evenodd" clip-rule="evenodd" fill="#FFFFFF" d="M67.044,322c1.163-0.163,1.779,0.221,2,1
			c-5.088,17.948-5.926,40.361,10,47c-1.644,9.115,3.645,15.033,1,22C66.474,377.012,56.53,346.73,67.044,322z"/>
		<path fill-rule="evenodd" clip-rule="evenodd" fill="#FFFFFF" d="M119.044,329c5.04,13.683-9.181,29.903-25,26
			C107.006,350.961,117.117,344.073,119.044,329z"/>
		<path fill-rule="evenodd" clip-rule="evenodd" fill="#FFFFFF" d="M130.044,329c1.365,14.037-7.053,26.944-13,37
			c0.583,3.013,2.014,8.486,5,6c2.549-1.112-5.081-3.055-1-6c7.238-1.029,5.475,9.259,2,11c-3.589,0.589-4.838-1.162-7-2
			c-2.471,2.862-2.4,8.267-7,9c-0.89-2.444-2.331-4.336-2-8c-4.367-0.701-5.633,1.701-10,1c5.654-12.679,23.403-13.264,27-28
			c-5.548,6.791-17.914,15.416-30,19c0-2.333,0-4.667,0-7c19.245-0.755,29.225-10.775,30-30
			C124.738,329.027,129.624,331.246,130.044,329z"/>
		<path fill-rule="evenodd" clip-rule="evenodd" fill="#FFFFFF" d="M70.044,334c2.935,0.399,3.386,3.281,6,4
			c-4.275,9.775,4.702,13.603,3,24C68.265,360.567,65.901,344.208,70.044,334z"/>
		<path fill-rule="evenodd" clip-rule="evenodd" fill="#FFFFFF" d="M94.044,348c-4.802,0.135-8.573-0.761-10-4
			C85.474,336.04,95.062,341.762,94.044,348z"/>
		<path fill-rule="evenodd" clip-rule="evenodd" fill="#FFFFFF" d="M91.044,352c-1.505,34.779,2.344,87.53,0,119
			c-9.011,2.301-6.77-13.233-7-19c-0.977-24.435,0.036-49.434-1-73c-0.448-10.193-2.541-20.664,0-29
			C86.225,350.153,87.443,352.267,91.044,352z"/>
		<path fill-rule="evenodd" clip-rule="evenodd" fill="#FFFFFF" d="M103.044,403c3.756,2.244,5.935,6.065,8,10
			c3.545,0.211,1.976-4.691,6-4c0.822,5.178,0.922,11.078,6,12c0.64,3.973-1.27,5.397-3,7c-4.311,0.977-2.91-3.757-6-4
			c-0.132,14.648,8.979,26.713,14,41c13.022,37.059,6.574,83.476-15,111c-7.081-0.397-9.186,9.458-13,9
			c6.104-18.557,22.963-37.47,26-61c2.608-20.215-3.171-39.221-13-50c-5.208-5.711-13.178-5.732-17-13c4.894-0.227,6.285,3.049,11,3
			c-1.756-4.244-9.593-2.407-11-7c6.795-0.749,17.356,5.721,22,12c7.9,10.683,9.063,27.607,13,41c0.761-35.762-21.656-57.01-36-81
			c0-3.667,0-7.333,0-11c7.102,9.232,15.833,16.833,17,32c8.518-3.195-0.463-12.528-3-17c-3.621-6.382-8.371-12.532-10-18
			C104.618,415.342,99.022,406.06,103.044,403z"/>
		<path fill-rule="evenodd" clip-rule="evenodd" fill="#FFFFFF" d="M80.044,444c-1.667,0-3.333,0-5,0c-1.374-3.164-0.218-3.342,0-7
			c-12.784,6.517,3.315,13.977,6,20c-11.346,0.762-17.369,2.935-28,0c0.909-2.092,2.951-3.049,6-3c-1.576-4.424-6.846-5.154-7-11
			c5.226,0.107,9.63,1.037,13,3C59.77,433.84,85.826,427.119,80.044,444z"/>
		<path fill-rule="evenodd" clip-rule="evenodd" fill="#FFFFFF" d="M95.044,437c2.811,2.189,6.01,3.99,6,9
			c-5.075-3.182-2.75,1.262-3,6C92.317,451.727,96.167,441.877,95.044,437z"/>
		<path fill-rule="evenodd" clip-rule="evenodd" fill="#FFFFFF" d="M101.044,450c4.96-0.293,5.351,3.982,8,6
			C107.296,457.03,100.59,454.492,101.044,450z"/>
		<path fill-rule="evenodd" clip-rule="evenodd" fill="#FFFFFF" d="M81.044,461c-8.699,6.46-18.952,5.893-25,15
			c-12.198,18.368,3.284,45.743,27,46c-4.247,8.289-16.974-3.431-22-5c1.528,4.817,10.651,10.673,19,12c0.168,2.169-3.547,0.453-5,1
			c1.714,5.469,8.021,11.063,6,17c-5.255-1.744-8.205-5.796-12-9c-2.618,7.479-17.664,6.506-15-5c3.365,0.635,3.13,4.87,8,4
			c0.81-0.19,0.997-1.003,2-1c5.757-14.636-12.954-20.603-17-34c-5.076-16.81,1.54-30.463,15-39
			C68.613,467.981,72.625,456.485,81.044,461z"/>
		<path fill-rule="evenodd" clip-rule="evenodd" fill="#FFFFFF" d="M81.044,469c-9.271,6.174-23.127,17.42-20,33
			c1.164,5.799,6.777,7.617,10,13C48.841,512.497,52.792,461.521,81.044,469z"/>
		<path fill-rule="evenodd" clip-rule="evenodd" fill="#FFFFFF" d="M96.044,469c1,0,2,0,3,0c36.197,15.709,22.445,81.611,1,103
			c-1.054-15.577-4.021-32.526,0-46c10.261-7.594,16.925-20.223,13-35C110.198,480.283,99.282,477.779,96.044,469z"/>
		<path fill-rule="evenodd" clip-rule="evenodd" fill="#FFFFFF" d="M98.044,521c1.833-8.371,8.401-15.77,7-26
			c-1.008-7.356-6.434-13.516-12-17c-6.434-0.296-9.648,3.947-13-1C107.742,464.101,121.165,511.534,98.044,521z"/>
		<path fill-rule="evenodd" clip-rule="evenodd" fill="#FFFFFF" d="M82.044,482c-0.826,2.826,1.409,2.591,1,5
			c-2.917,4.161-9.154,6.239-13,2C68.089,480.431,77.25,477.896,82.044,482z"/>
		<path fill-rule="evenodd" clip-rule="evenodd" fill="#FFFFFF" d="M95.044,483c1.362,2.969,1.445,7.246-1,9
			c-5.45,0.117-8.867-1.8-9-7C86.478,481.877,91.518,481.254,95.044,483z"/>
		<path fill-rule="evenodd" clip-rule="evenodd" fill="#FFFFFF" d="M86.044,493c1.14,2.193,2.581,4.086,2,8
			c-3.135,3.012-7.457,1.63-10-1C77.507,494.464,80.062,492.018,86.044,493z"/>
		<path fill-rule="evenodd" clip-rule="evenodd" fill="#FFFFFF" d="M68.044,494c6.002-1.002,6.205,3.795,8,7
			c-1.999,3.237-6.249,6.462-11,4C64.741,500.03,65.216,495.839,68.044,494z"/>
		<path fill-rule="evenodd" clip-rule="evenodd" fill="#FFFFFF" d="M99.044,508c-2.333,0-4.667,0-7,0
			C82.654,493.203,108.827,492.081,99.044,508z"/>
		<path fill-rule="evenodd" clip-rule="evenodd" fill="#FFFFFF" d="M87.044,506c-0.086,1.419-0.165,2.832,1,3
			C82.585,525.486,62.773,501.55,87.044,506z"/>
		<path fill-rule="evenodd" clip-rule="evenodd" fill="#FFFFFF" d="M93.044,513c4.715,34.435,2.788,78.509,3,112
			c-2.319-0.319-3.839,0.161-5,1c-4.125-16.207-1.039-37.147-2-59c-0.751-17.093-4.743-39.803,0-51c-0.282-1.615,0.945-1.722,1-3
			C91.044,513,92.044,513,93.044,513z"/>
		<path fill-rule="evenodd" clip-rule="evenodd" fill="#FFFFFF" d="M118.044,579c2.916,1.71-2.266,3.64-1,7
			c4.431,1.625,7.269,5.354,5,11c-3.033,0.058-8.897,3.021-10-1c-1.026-3.36,3.11-1.557,5-2c-3.803-7.773-13.168,1.197-17,3
			C99.76,584.716,112.526,585.482,118.044,579z"/>
		<path fill-rule="evenodd" clip-rule="evenodd" fill="#FFFFFF" d="M72.044,586c4.792,1.209,6.73,5.27,8,10
			c0.691,2.497,2.667-1.855,5-1c-0.029,14.972-8.511,21.489-13,32c4.287-1.394,7.946-12.044,12-17c2.513,10.224-8.941,23.877-15,35
			c-4.859,8.922-10.403,18.754-13,28c-2.3,8.191-4.672,19.896-1,29c-0.799-19.107,5.476-38.966,15-51c2.518,5.435-2.511,11.507-5,18
			c-6.108,15.938-6.98,40.057-4,61c-4.538-0.23-6.631-4.445-9-4c-3.761-19.874-4.535-40.652,1-62c4.757-18.35,15.971-33.355,19-48
			c1.505-7.279-1.427-17.006-8-10c-0.451,2.784,5.451-0.784,5,2c0.472,4.531-4.677,2.728-7,2c-2.908-6.669,0.536-13.587,8-13
			C69.331,591.953,71.41,589.699,72.044,586z"/>
		<path fill-rule="evenodd" clip-rule="evenodd" fill="#FFFFFF" d="M86.044,625c0.301,2.635-1.385,3.282-4,3
			C81.743,625.365,83.429,624.718,86.044,625z"/>
		<path fill-rule="evenodd" clip-rule="evenodd" fill="#FFFFFF" d="M108.044,629c1.941,1.926-1.052,4.023-1,7
			c-5.783-0.783-8.549,1.451-14,1c-0.426-1.907-2.857-1.81-2-5c-4.152,1.084-5.545,7.166-11,4
			C85.167,629.456,95.831,628.454,108.044,629z"/>
		<path fill-rule="evenodd" clip-rule="evenodd" fill="#FFFFFF" d="M131.044,640c-1.515,2.871-5.83,4.028-8,1
			c0.85-1.483,2.517-2.15,5-2c-2.811-4.709-9.743,0.811-12,3c0.625,14.764-1.367,31.522-12,34c-28.851,6.724-1.25-44.019,2-11
			c7.701-3.494-1.59-12.043-4-15c0.246-3.087,1.014-5.652,2-8c5.179,0.487,4.979,6.354,8,9c3.379-5.082-3.489-8.483-2-15
			c2.665-2.546,3.297,2.579,5,4C116.558,631.79,130.447,628.284,131.044,640z"/>
		<path fill-rule="evenodd" clip-rule="evenodd" fill="#FFFFFF" d="M94.044,652c-3.332,4.668-6.959,9.041-11,13
			c3.539,4.461,6.543,9.457,9,15c-21.484,0.942,1.094-36.076-20-35c-0.072-3.405,2.941-3.725,5-5c3.869-0.869,3.558,2.442,6,3
			c4.794-7.281,9.48-1.439,8,8C91.206,652.172,92.867,651.844,94.044,652z"/>
		<path fill-rule="evenodd" clip-rule="evenodd" fill="#FFFFFF" d="M96.044,640c1.333,0,2.667,0,4,0c-0.961,3.039,0.144,8.144-4,8
			C94.574,646.545,94.574,641.455,96.044,640z"/>
		<path fill-rule="evenodd" clip-rule="evenodd" fill="#FFFFFF" d="M119.044,645c1.463-2.669,5.487,0.419,5,3
			C122.186,647.191,120.004,646.707,119.044,645z"/>
		<path fill-rule="evenodd" clip-rule="evenodd" fill="#FFFFFF" d="M129.044,646c4.562-0.895,4.045,3.288,5,6
			C129.264,653.113,129.436,649.274,129.044,646z"/>
		<path fill-rule="evenodd" clip-rule="evenodd" fill="#FFFFFF" d="M124.044,651c3.802-0.802,1.271,4.729,2,7
			c4.013-3.188,10.912-2.147,13,2c0.949,4.332-2.67,9.264-6,6c-1.008-3.008,2.228-1.772,4-2c-15.986-10.981-18.372,30.624-36,18
			c7.019-3.156,11.929-10.871,19-11C118.271,662.896,119.552,655.405,124.044,651z"/>
		<path fill-rule="evenodd" clip-rule="evenodd" fill="#FFFFFF" d="M77.044,654c2.668,9.817-1.333,30.969,9,36
			c0.205,21.437,2.858,44.494-1,68c-7.092-4.48-13.325-12.107-8-21c-1.103-5.897-5.301-8.698-11-10
			C60.829,701.654,63.647,669.306,77.044,654z"/>
		<path fill-rule="evenodd" clip-rule="evenodd" fill="#FFFFFF" d="M128.044,667c16.739,8.054-9.219,21.72-2,32
			c2.74-0.905-1.952-3.682,2-4c5.944,1.43,1.833,9.523-2,10c-3.775,0.442-4.694-1.972-7-3c-2.482,2.518-3.779,6.221-9,6
			c-3.408-4.401,4.873-9.341,0-12c2.992-7.008,14.671-5.329,17-13c-4.184,1.751-14.956,10.016-25,6
			C116.431,687.387,122.794,677.75,128.044,667z"/>
		<path fill-rule="evenodd" clip-rule="evenodd" fill="#FFFFFF" d="M98.044,682c-2.035,52.486-1.981,110.683,44,111
			c8.089,0.056,14.572-3.433,19-7c3.875-3.122,5.585-11.899,13-10c2.814,8.77-9.091,19.307-17,22c-27.745,9.447-61.433-12.01-61-40
			c-0.388,31.677-58.43,59.551-71,21c8.78,1.656,10.929,12.835,22,14c17.842,1.878,32.992-10.224,39-23
			c6.221-13.229,5.32-38.946,5-54c-0.251-11.838-4.362-24.857,2-33C95.87,683.826,95.635,681.591,98.044,682z"/>
		<path fill-rule="evenodd" clip-rule="evenodd" fill="#FFFFFF" d="M74.044,736c-1.181,1.485-0.865,4.468-4,4
			c-0.409-2.409,1.826-2.174,1-5c-16.08,8.093,7.049,23.42,1,37c-5.438-6.563-7.844-16.156-17-19c1.453-2.964,3.9,1.317,7,0
			c-2.181-5.486-8.564-6.77-7-16c4.342-0.342,1.927,6.073,4,8c0.81-0.19,0.997-1.003,2-1C58.221,735.264,68.731,725.681,74.044,736z
			"/>
		<path fill-rule="evenodd" clip-rule="evenodd" fill="#FFFFFF" d="M133.044,742c4.283,0.617,4.077-3.256,8-3
			c-0.285,6.049-3.263,9.404-7,12c0.31,1.357,2.504,0.829,4,1c-6.894,2.772-15.783,3.55-15,14c-4.567-8.678,8.055-17.197,8-28
			c-0.354-1.313-1.761-1.573-2-3c-3.081-0.748-1.219,3.447-5,2C123.646,724.168,140.968,735.582,133.044,742z"/>
		<path fill-rule="evenodd" clip-rule="evenodd" fill="#FFFFFF" d="M147.044,733c1,0,2,0,3,0c-0.394,5.272-4.665,6.669-4,13
			C143.598,742.836,146.399,736.394,147.044,733z"/>
		<path fill-rule="evenodd" clip-rule="evenodd" fill="#FFFFFF" d="M168.044,747c-2.17-2.081,0.122-3.232,1-5
			c-20.92,0.963-8.233,33.771-28,36c-12.593,1.421-21.183-17.066-4-21c0.027,0.973,1.224,0.775,2,1c2.972,3.909,1.811,6.236,3,11
			c8.595-3.694-4.059-13.484,1-20c6.625-0.625,2.438,9.562,8,10c3.714-5.754-4.946-14.933,1-20c3.206-0.872,3.128,1.539,4,3
			C159.352,730.97,182.621,741.821,168.044,747z"/>
		<path fill-rule="evenodd" clip-rule="evenodd" fill="#FFFFFF" d="M45.044,738c-7.695,19.53,34.142,23.281,17,46
			c-16.055,4.792-23.896-10.596-19-22c5.282,1.051,8.668,3.998,13,6c2.883-9.922-15.106-6.623-20-12c-0.212-4.629,3.566,0.983,5-2
			C38.355,747.861,32.793,738.682,45.044,738z"/>
		<path fill-rule="evenodd" clip-rule="evenodd" fill="#FFFFFF" d="M32.044,744c2.208,0.125,0.425,4.242,1,6
			c-2.465,0.132-4.818,0.151-6-1C26.46,745.083,31.157,746.447,32.044,744z"/>
		<path fill-rule="evenodd" clip-rule="evenodd" fill="#FFFFFF" d="M177.044,758c-2,0-4,0-6,0c-1.605-1.728-0.484-6.183-3-7
			C172.568,747.244,178.209,750.642,177.044,758z"/>
		<path fill-rule="evenodd" clip-rule="evenodd" fill="#FFFFFF" d="M161.044,750c2.09-0.424,2.647,0.686,4,1
			c-0.319,2.348-3.095,2.238-4,4C158.703,754.743,160.468,750.606,161.044,750z"/>
		<path fill-rule="evenodd" clip-rule="evenodd" fill="#FFFFFF" d="M27.044,757c4.462,0.871,5.75,4.916,7,9
			c0.934-0.733,1.515-1.818,2-3c0.542,10.903,1.812,19.015,9,25c-11.925-2.742-11.328-18.005-26-18c0.117,2.296,6.678,3.215,4,5
			c-4.164,7.583-12.693-1.604-9-8c2.91-1.221,7.474-4.549,11-2C27.518,764.141,24.75,758.039,27.044,757z"/>
		<path fill-rule="evenodd" clip-rule="evenodd" fill="#FFFFFF" d="M165.044,759c1.367,1.278,1.367,4.722,0,6
			c3.892,1.808,5.382-6.314,13-4c5.182,4.214,1.933,14.531-5,11c-0.144-4.02,2.564-2.646,5-2c0.817-3.817-2.129-3.871-4-5
			c-14.666,1.856-14.011,22.594-33,17c4.408-1.259,6.931-4.402,13-4C159.056,773.012,155.705,759.661,165.044,759z"/>
		<path fill-rule="evenodd" clip-rule="evenodd" fill="#FFFFFF" d="M95.044,772c2.613,1.387,2.834,5.166,4,8
			C92.582,784.324,89.556,774.176,95.044,772z"/>
		<path fill-rule="evenodd" clip-rule="evenodd" fill="#FFFFFF" d="M128.044,778c2.108,1.559,5.545,1.789,6,5
			C130.577,782.8,127.543,782.167,128.044,778z"/>
		<path fill-rule="evenodd" clip-rule="evenodd" fill="#FFFFFF" d="M89.044,782c3.233,0.768,5.233,2.768,6,6
			c3.541,0.541,2.459-3.541,6-3c7.24,12.094,19.508,19.159,24,34c-5.846,3.164-6.141-5.898-11-4
			C107.523,802.188,94.448,795.93,89.044,782z"/>
		<path fill-rule="evenodd" clip-rule="evenodd" fill="#FFFFFF" d="M107.044,817c-3.19,0.857-3.093-1.574-5-2
			c0.294-3.484,2.706,0.084,3-2c-0.56-1.44-1.56-2.44-3-3c-17.332,12.537,21.575,32.525,2,51c-4.595,2.306-10.286,0.522-13-2
			c-0.614-5.076-4.811-16.906,3-20c6.889-1.555,6.138,4.528,11,5c2.643-11.65-15.791-10.87-17-22c2.826-0.826,2.591,1.409,5,1
			C85.712,809.572,109.943,803.61,107.044,817z"/>
		<path fill-rule="evenodd" clip-rule="evenodd" fill="#FFFFFF" d="M83.044,816c0.016-1.527,7.411-2.192,6,1
			C85.988,817.723,85.4,815.978,83.044,816z"/>
		<path fill-rule="evenodd" clip-rule="evenodd" fill="#FFFFFF" d="M102.044,821c5.534-0.201,9.579,1.088,9,7
			C104.941,828.77,103.063,825.314,102.044,821z"/>
		<path fill-rule="evenodd" clip-rule="evenodd" fill="#FFFFFF" d="M73.044,822c1.333,0,2.667,0,4,0c5.002,5.972,0.628,14.521-4,19
			c0.18-6.154-6.377-12.895-11-8c0.785,2.215,6.19-0.19,5,4c-1.182,1.151-3.535,1.132-6,1c-1.362-2.969-1.446-7.246,1-9
			c3.986-0.319,7.388-0.055,9,2C71.483,828.465,72.386,826.465,73.044,822z"/>
		<path fill-rule="evenodd" clip-rule="evenodd" fill="#FFFFFF" d="M129.044,833c0.628-2.039,5.053-0.28,4-4
			c-20.47-6.132-4.157,33.173-23,32c4.92-7.6,3.45-23.219-1-30c2.487-0.154,3.096,1.571,5,2c1.798-2.202,0.874-7.126,2-10
			c3.921-0.921,0.726,5.274,3,6c5.028-2.178,3.953-7.603,10-7C134.401,822.534,138.914,832.325,129.044,833z"/>
		<path fill-rule="evenodd" clip-rule="evenodd" fill="#FFFFFF" d="M82.044,823c2.812-0.146,2.884,2.449,3,5
			C82.232,828.146,82.16,825.551,82.044,823z"/>
		<path fill-rule="evenodd" clip-rule="evenodd" fill="#FFFFFF" d="M89.044,836c-5.375,5.332-7.477,18.991-1,24
			c-6.422,1.738-12.637-5.351-13-13C78.976,843.141,80.651,829.048,89.044,836z"/>
		<path fill-rule="evenodd" clip-rule="evenodd" fill="#FFFFFF" d="M125.044,836c1,0,2,0,3,0c10.585,35.584-46.077,48.09-62,22
			c-2.847-4.665-6.705-14.171,2-17c0.751,15.868,12.418,26.907,29,30C113.18,866.45,128.673,857.115,125.044,836z"/>
		<path fill-rule="evenodd" clip-rule="evenodd" fill="#FFFFFF" d="M108.044,63c2.682-3.424,5.869,4.685,3,7
			c1.975-2.315,15.828-8.038,15,4c-1.304,1.747-6.349,3.654-6-1c3.19-0.593,3.093,1.877,5,0c-13.906-7.364-12.754,17.093-21,22
			C108.493,89.182,112.723,74.697,108.044,63z"/>
		<path fill-rule="evenodd" clip-rule="evenodd" fill="#FFFFFF" d="M90.044,153c3.006-10.987,20.323,2.269,24,6
			c9.626,9.769,16.15,27.817,12,46c-2.876,12.602-14.01,33.724-21,39c-3.005,2.268-7.203,2.198-10,4
			c-6.644,4.279-10.309,10.506-16,16c7.642-3.365,17.179-13.483,28-17c3.251,2.674-2.3,4.967-2,8c3.13,1.203,6.287,2.379,10,3
			c-2.413,3.587-5.671,6.329-12,6c0.593,3.607,1.688,6.706,0,10c-3.456,1.785-6.928,0.294-9-2c-0.708-4.042,0.958-5.708,5-5
			c-11.255-5.685-19.732,8.095-26,14c1.497,1.753,4.173-0.883,5,3c-0.349,9.318-9.268,10.065-13,16c0.908-3.341-0.367-4.891,2-8
			c-10.596,12.428-17.82,33.481-15,56c0.247-16.12,3.202-37.198,16-44c0.729,2.271,3.009,2.991,5,4
			c-22.62,21.257-11.969,74.085,7,91c0,4,0,8,0,12c-18.513-22.66-36.076-46.225-34-84c3.267-59.451,69.008-77.851,73-129
			C120.864,174.677,108.853,158.933,90.044,153z"/>
		<path fill-rule="evenodd" clip-rule="evenodd" d="M95.044,31c-0.54-4.793-2.758-7.909-8-8c-7.033,6.759,1.545,19.24,4,26
			c4.344-0.709,4.894-4.894,9-1c11.711-19.657,33.646,12.459,9,7c2.816,10.194,29.888,9.395,16,24c-3.246,0.58-4.652-0.681-7-1
			c-2.895,2.438-1.876,8.791-5,11c2.942,4.058,9.244,4.756,14,7c-1.076,2.257-3.753,2.913-5,5c2.86,6.473,5.845,12.822,9,19
			c-4.386,1.948-12.227,0.44-16,3c-4.48,0.853-0.673,9.994-8,8c-1.65,0.14,1.047,4.171,0,7c-3.769,0.769-4.78-1.22-8-1
			c-1.757,0.91-1.829,3.504-3,5c20.633,10.555,40.786,34.826,33,67c-2.661,10.994-11.154,21.047-16,31c3.037,3.767-0.797,7.346-1,11
			c0.383,4.951,6.268,4.399,10,6c-3.582,8.751-16.971,7.696-17,20c-4.35,0.017-8.997,0.331-12-1c-2.3,2.367-0.358,8.975-1,13
			c3.893,1.513,15.128,2.737,15-3c2.898,6.101,11.711,6.289,18,9c8.429,16.355,14.405,49.884-1,67c6.295,0.795,7.82,12.122,4,17
			c-9.034,1.299-14.904,5.763-19,12c-4.004-1.329-2.446-8.221-5-11c-2.619-1.889-5.821,2.322-10,2c1.168,9.166-2.438,23.105,2,29
			c3.765-2.902,2.184-11.15,5-15c5.634,1.366,6.463,7.537,11,10c4.557,1.223,3.924-2.743,8-2c0.052,11.011,16.866,23.617-1,27
			c4.269,16.268,15.54,33.658,19,53c6.232,34.84-4.837,66.43-20,89c4.365,0.698,4.446-2.887,8-3c-0.804,4.196-2.723,7.277-4,11
			c6.44,6.71,5.05,23.504-8,22c-3.966-0.034-4.141-3.859-6-6c-10.828,2.143-7.368,15.625-7,27c8.815,2.852,18.968,4.365,29,6
			c1.026,4.514,12.229,25.369,12,33c-0.119,3.974-2.681,4.736-4,8c-2.592,6.411-3.008,13.972-8,19c2.132,3.936,4.572,4.046,5,8
			c1.565,14.456-20.62,9.477-28,17c-1.146-6.796-1.146-13.204,0-20c-1.333,0-2.667,0-4,0c-0.997,27.836-3.534,67.775,14,84
			c7.148,6.615,26.239,14.855,38,7c-6.418-1.871-23.643,3.075-28-2c-7.779-9.063-12.991-28.988-5-42c0.279-4.279-3.055-4.945-2-10
			c2.98-4.854,13.543-3.218,17,0c11.003-5.915,22.702,1.851,34,2c5.658,10.414,13.107,21.945,12,35
			c-2.523,29.756-42.371,44.34-68,26c5.354,8.984,14.197,23.133,23,32c-0.203,4.797-2.481,7.519-4,11
			c2.181,33.391-35.52,48.393-59,34c-4.064-2.491-12.931-10.79-15-15c-2.326-4.732-6.216-26.418-3-30c1.517-1.69,4.236-0.222,6-2
			c5.78-5.827,6.916-12.196,15-14c8.525-1.902,17.864,0.092,23-6c-4.79-6.21-10.285-11.715-15-18c-12.709,18.307-59.63,20.05-64-7
			c-9.436,3.268-12.893-4.064-12-14c10.107-11.868,18.021-35.555,38-31c-12.002-45.908,6.472-86.378,19-120
			c-13.743-0.339-13.579-20.258-1-22c1.106-5.561,2.754-10.579,5-15c5.594,2.406,7.166,8.834,12,12c5-8.782,0.39-24.972,1-36
			c-4.19-12.633-37.278-1.979-34-20c0.782-4.298,3.892-6.167,10-7c-14.873-10.526-25.574-49.727-6-63c-1.463-3.203-6.826-2.507-9-5
			c1.065-3.268,4.625-4.041,6-7c-1.908-5.092-5.347-8.653-7-14c3.897,2.103,11.499,0.501,17,1c4.367-4.916,8.781-13.021,19-9
			c2.989-12.838-5.217-17.188-12-27c-11.715-16.946-25.074-39.354-26-67c-1.114-33.281,16.961-56.835,36-79
			c-1.527-11.631,2.004-22.131-2-31c-9.334,1.99-1.309,10.724-4,19c-8.233-5.214-16.961-6.393-27-8c-1.086-6.753,3.668-7.665,5-12
			c-1.05-8.562-8.829-15.641-11-24c-7.053-27.147,6.367-51.292,31-56c-1.19-6.81-9.334-6.666-8-16c-7.372-1.961-12.037-6.63-23-5
			c-0.656-8.734,3.721-15.332-1-20c3.354-5.979,8.414-10.253,14-14c1.207-4.207-1.615-4.385-2-7c-5.531,1.105-11.253,1.07-15-2
			c0.163-1.163-0.221-1.779-1-2c-0.371-6.371,3.651-8.349,6-12c3.056-0.723,3.644,1.022,6,1c-12.434-7.655-0.953-30.549,17-19
			c3.106-3.836-2.067-6.076-2-10c4.245-0.245,5.384,2.616,10,2c0.535-3.868-1.785-4.882-1-9c4.831-4.129,11.196-18.309,19-21
			C105.072,5.473,114.476,29.624,95.044,31z M119.044,198c-3.992,51.149-69.733,69.549-73,129c-2.076,37.775,15.487,61.34,34,84
			c0-4,0-8,0-12c-18.969-16.915-29.62-69.743-7-91c-1.991-1.009-4.271-1.729-5-4c-12.798,6.802-15.753,27.88-16,44
			c-2.82-22.519,4.404-43.572,15-56c-2.367,3.109-1.092,4.659-2,8c3.732-5.935,12.651-6.682,13-16c-0.827-3.883-3.503-1.247-5-3
			c6.268-5.905,14.745-19.685,26-14c-4.042-0.708-5.708,0.958-5,5c2.072,2.294,5.544,3.785,9,2c1.688-3.294,0.593-6.393,0-10
			c6.329,0.329,9.587-2.413,12-6c-3.713-0.621-6.87-1.797-10-3c-0.3-3.033,5.251-5.326,2-8c-10.821,3.517-20.358,13.635-28,17
			c5.691-5.494,9.356-11.721,16-16c2.797-1.802,6.995-1.732,10-4c6.99-5.276,18.124-26.398,21-39c4.15-18.183-2.374-36.231-12-46
			c-3.677-3.731-20.994-16.987-24-6C108.853,158.933,120.864,174.677,119.044,198z M87.044,20c8.338-1.671,8.297,5.036,14,6
			C105.215,17.527,90.18,10.396,87.044,20z M77.044,47c-4.168,0.502-4.411-2.923-9-2c2.164,12.63,25.649,14.179,20,28
			c-3.876-4.124-4.731-11.269-12-12c-1.464,4.439,0.007,5.869,0,11c-2.409,0.409-2.174-1.826-5-1c-2.705,16.573,17.364,33.274,24,18
			c8.999-20.712-14.016-48.521-17-62C73.749,30.876,74.586,41.736,77.044,47z M101.044,57c-2.58-0.086-1.052-4.281-5-3
			c5.217,12.08,5.187,28.761,2,40c17.434-8.291-3.343-43.329,16-49C106.047,41.906,102.275,50.154,101.044,57z M55.044,62
			c-0.075-1.742,0.223-3.11,1-4c-0.614-1.386-3.85-0.15-4-2c2.876-2.583,5.899,0.751,8,2C56.524,36.625,32.445,66.144,55.044,62z
			 M113.044,54c1.742,0.075,3.11-0.223,4-1c0.302-2.635-1.385-3.282-4-3C113.044,51.333,113.044,52.667,113.044,54z M76.044,95
			c-5.93-2.625-4.809-12.909-11-10c3.955-4.298-0.081-10.312,1-17c1.073-6.644,8.334-12.803,0-16
			C55.881,62.72,59.908,98.309,76.044,95z M104.044,95c8.246-4.907,7.094-29.364,21-22c-1.907,1.877-1.81-0.593-5,0
			c-0.349,4.654,4.696,2.747,6,1c0.828-12.038-13.025-6.315-15-4c2.869-2.315-0.318-10.424-3-7
			C112.723,74.697,108.493,89.182,104.044,95z M49.044,73c-2.963-0.704-4.354-2.979-9-2c-3.076,3.253-1.873,11.086,5,10
			c0.598-1.78-2.931-4.153,0-5c11.26,1.08,10.629,19.363,20,19c-10.25-5.485-6.357-20.268-13-28
			C49.284,67.24,50.981,71.937,49.044,73z M93.044,102c6.015,3.329,19.813,4.173,21,9c-7.359-3.877-22.279-8.489-28,0
			c-2.107,7.56,0.561,19.894-3,26c-2.139-8.194-0.15-20.516-4-27c-11.459-6.62-26.188,2.938-31,6c3.273-9.732,22.942-8.384,25-16
			c-10.093,4.564-22.725-11.951-28,2c0.275,2.059,3.725,0.941,4,3c-4.053,2.28-5.571,7.095-5,14c5.586-0.136,9.587,3.335,13,0
			c3.228,1.481-0.418,5.168,3,5c7.58,0.246,5.871-8.796,12-10c4.064,8.613-9.641,7.534-7,18c0.694,1.973,5.58-0.246,6,2
			c-2.235,8.248,7.335,13.322,14,16c3.384-5.936,11.68-8.904,9-18c3.027,0.306,3.572,3.094,8,2c0.531-10.198-8.852-10.481-10-19
			c11.016-1.683,4.611,14.055,17,11c0.595-2.072-1.236-6.569,1-7c6.084,0.75,9.02-1.647,14-2c0.431-8.43-5.951-10.049-10-14
			c1.718-1.949,4.304-3.029,5-6C108.369,91.694,104.12,102.013,93.044,102z M76.044,101c-0.453,8.809,15.296,7.637,13-2
			C85.103,96.572,78.104,98.355,76.044,101z M41.044,186c0.302,17.658,11.934,25.39,12,41c-0.454,3.547-5.373,2.627-6,6
			c4.147,4.036,9.273,0.885,12-2c2.075,3.591,3.487,7.846,10,7c0.693-6.36-2.682-8.651-4-13c1.772-0.228,5.008,1.008,4-2
			c-6.812-2.522-14.345-4.321-16-12c6.81,4.524,11.777,10.89,24,10c0-2,0-4,0-6c-37.133,1.564-36.684-58.241-2-59
			c0-2.333,0-4.667,0-7C51.487,151.847,40.702,165.985,41.044,186z M87.044,174c-0.653-5.68,1.315-13.982-1-18
			c-2.441,5.412-2.887-2.18-6-2C77.193,162.771,79.361,172.697,87.044,174z M90.044,162c28.422,4.97,24.537,52.497,2,61
			c-0.115,7.114-1.714,12.324,1,18c22.819-15.221,36.492-75.914-3-83C90.044,159.333,90.044,160.667,90.044,162z M64.044,207
			c1.72-7.275-5.528-11.143-6-18c-0.757-10.999,7.494-22.557,17-26c1.119-1.44,1.078-2.44-1-3
			C52.015,161.516,42.344,197.834,64.044,207z M66.044,178c0.538-6.462,7.484-6.517,10-11C70.028,166.85,63.287,175.972,66.044,178z
			 M100.044,184c4.673,13.802-7.096,18.84-8,33c19.063-4.822,21.022-47.062-1-50C89.496,177.04,97.955,177.832,100.044,184z
			 M71.044,181c3.202,2.989,5.556,0.609,11,1c-0.154-2.488,1.571-3.096,2-5C81.678,170.584,69.378,170.638,71.044,181z M88.044,191
			C109.637,183.634,75.504,171.294,88.044,191L88.044,191z M66.044,194c4.056-0.61,3.929-5.405,5-9
			C64.881,176.711,56.839,192.814,66.044,194z M81.044,197c7.242-1.748,2.203-12.222-3-11C68.027,188.352,75.898,198.242,81.044,197
			z M83.044,203C101.067,214.904,90.84,180.182,83.044,203L83.044,203z M66.044,199c-0.651,4.318,1.728,5.605,3,8
			c5.272,0.605,8.447-0.886,9-5C75.462,198.641,69.066,193.401,66.044,199z M81.044,252c13.813-3.961,4.384-26.063,7-42
			c-3.181-0.153-4.399-2.267-8-2C79.267,223.777,81.489,236.555,81.044,252z M81.044,293c4.318,0.651,5.605-1.728,8-3
			c0.125-6.792-0.091-13.243-2-18C80.339,274.614,78.546,284.086,81.044,293z M103.044,307c-1.385-2.615-2.52-5.48-6-6
			c-4.657,9.579,8.885,16.822,3,24c-7.095-28.557-30.429,18.275,0,12c14.425-4.621,1.152-36.134,18-35c-2.599-0.599-3.599,0.401-3,3
			c9.011,4.829,10.037-9.512,2-10c-2.678,0.988-4.54,2.793-8,3c-0.924-1.743,0.034-5.367-3-5
			C102.221,295.994,106.243,305.773,103.044,307z M70.044,299c2.488,0.154,3.096-1.571,5-2c13.342,8.724-16.431,37.308,8,39
			c-5.252-3.139-0.897-11.104-3-16c2.983-5.35,9.632-7.034,13-12c-4.121-0.264-6.202,5.068-9,3c2.291-3.565,9.862-10.743,4-16
			c-3.236,1.097-3.126,5.54-7,6c0.409-2.409-1.826-2.174-1-5C76.654,294.533,70.08,294.268,70.044,299z M72.044,301
			c-0.701,3.462,3.506,3.586,5,2C77.745,299.538,73.538,299.414,72.044,301z M128.044,317c-0.425-4.575-1.688-8.313-6-9
			C121.209,313.835,123.96,316.083,128.044,317z M112.044,332c-7.076,1.924-9.163,8.836-16,11c15.553,10.574,17.48-14.914,25-22
			c3.69-1.821,6.886,4.556,7,0c-0.614-3.585-6.73-1.663-9-1c-0.119-2.881,0.546-6.546-1-8
			C109.761,312.383,112.573,323.863,112.044,332z M80.044,392c2.645-6.967-2.644-12.885-1-22c-15.926-6.639-15.088-29.052-10-47
			c-0.221-0.779-0.837-1.163-2-1C56.53,346.73,66.474,377.012,80.044,392z M94.044,355c15.819,3.903,30.04-12.317,25-26
			C117.117,344.073,107.006,350.961,94.044,355z M124.044,331c-0.775,19.225-10.755,29.245-30,30c0,2.333,0,4.667,0,7
			c12.086-3.584,24.452-12.209,30-19c-3.597,14.736-21.346,15.321-27,28c4.367,0.701,5.633-1.701,10-1c-0.331,3.664,1.11,5.556,2,8
			c4.6-0.733,4.529-6.138,7-9c2.162,0.838,3.411,2.589,7,2c3.475-1.741,5.238-12.029-2-11c-4.081,2.945,3.549,4.888,1,6
			c-2.986,2.486-4.417-2.987-5-6c5.947-10.056,14.365-22.963,13-37C129.624,331.246,124.738,329.027,124.044,331z M79.044,362
			c1.702-10.397-7.275-14.225-3-24c-2.614-0.719-3.065-3.601-6-4C65.901,344.208,68.265,360.567,79.044,362z M84.044,344
			c1.427,3.239,5.198,4.135,10,4C95.062,341.762,85.474,336.04,84.044,344z M83.044,350c-2.541,8.336-0.448,18.807,0,29
			c1.036,23.566,0.023,48.565,1,73c0.23,5.767-2.011,21.301,7,19c2.344-31.47-1.505-84.221,0-119
			C87.443,352.267,86.225,350.153,83.044,350z M99.044,415c1.629,5.468,6.379,11.618,10,18c2.537,4.472,11.518,13.805,3,17
			c-1.167-15.167-9.898-22.768-17-32c0,3.667,0,7.333,0,11c14.344,23.99,36.761,45.238,36,81c-3.937-13.393-5.1-30.317-13-41
			c-4.644-6.279-15.205-12.749-22-12c1.407,4.593,9.244,2.756,11,7c-4.715,0.049-6.106-3.227-11-3c3.822,7.268,11.792,7.289,17,13
			c9.829,10.779,15.608,29.785,13,50c-3.037,23.53-19.896,42.443-26,61c3.814,0.458,5.919-9.397,13-9
			c21.574-27.524,28.022-73.941,15-111c-5.021-14.287-14.132-26.352-14-41c3.09,0.243,1.689,4.977,6,4c1.73-1.603,3.64-3.027,3-7
			c-5.078-0.922-5.178-6.822-6-12c-4.024-0.691-2.455,4.211-6,4c-2.065-3.935-4.244-7.756-8-10
			C99.022,406.06,104.618,415.342,99.044,415z M65.044,446c-3.37-1.963-7.774-2.893-13-3c0.154,5.846,5.424,6.576,7,11
			c-3.049-0.049-5.091,0.908-6,3c10.631,2.935,16.654,0.762,28,0c-2.685-6.023-18.784-13.483-6-20c-0.218,3.658-1.374,3.836,0,7
			c1.667,0,3.333,0,5,0C85.826,427.119,59.77,433.84,65.044,446z M98.044,452c0.25-4.738-2.075-9.182,3-6c0.01-5.01-3.189-6.811-6-9
			C96.167,441.877,92.317,451.727,98.044,452z M109.044,456c-2.649-2.018-3.04-6.293-8-6C100.59,454.492,107.296,457.03,109.044,456
			z M62.044,463c-13.46,8.537-20.076,22.19-15,39c4.046,13.397,22.757,19.364,17,34c-1.003-0.003-1.19,0.81-2,1
			c-4.87,0.87-4.635-3.365-8-4c-2.664,11.506,12.382,12.479,15,5c3.795,3.204,6.745,7.256,12,9c2.021-5.938-4.286-11.531-6-17
			c1.453-0.547,5.168,1.169,5-1c-8.349-1.327-17.472-7.183-19-12c5.026,1.569,17.753,13.289,22,5c-23.716-0.257-39.198-27.632-27-46
			c6.048-9.107,16.301-8.54,25-15C72.625,456.485,68.613,467.981,62.044,463z M71.044,515c-3.223-5.383-8.836-7.201-10-13
			c-3.127-15.58,10.729-26.826,20-33C52.792,461.521,48.841,512.497,71.044,515z M113.044,491c3.925,14.777-2.739,27.406-13,35
			c-4.021,13.474-1.054,30.423,0,46c21.445-21.389,35.197-87.291-1-103c-1,0-2,0-3,0C99.282,477.779,110.198,480.283,113.044,491z
			 M80.044,477c3.352,4.947,6.566,0.704,13,1c5.566,3.484,10.992,9.644,12,17c1.401,10.23-5.167,17.629-7,26
			C121.165,511.534,107.742,464.101,80.044,477z M70.044,489c3.846,4.239,10.083,2.161,13-2c0.409-2.409-1.826-2.174-1-5
			C77.25,477.896,68.089,480.431,70.044,489z M85.044,485c0.133,5.2,3.55,7.117,9,7c2.445-1.754,2.362-6.031,1-9
			C91.518,481.254,86.478,481.877,85.044,485z M78.044,500c2.543,2.63,6.865,4.012,10,1c0.581-3.914-0.86-5.807-2-8
			C80.062,492.018,77.507,494.464,78.044,500z M65.044,505c4.751,2.462,9.001-0.763,11-4c-1.795-3.205-1.998-8.002-8-7
			C65.216,495.839,64.741,500.03,65.044,505z M92.044,508c2.333,0,4.667,0,7,0C108.827,492.081,82.654,493.203,92.044,508z
			 M88.044,509c-1.165-0.168-1.086-1.581-1-3C62.773,501.55,82.585,525.486,88.044,509z M90.044,513c-0.055,1.278-1.282,1.385-1,3
			c-4.743,11.197-0.751,33.907,0,51c0.961,21.853-2.125,42.793,2,59c1.161-0.839,2.681-1.319,5-1c-0.212-33.491,1.715-77.565-3-112
			C92.044,513,91.044,513,90.044,513z M100.044,597c3.832-1.803,13.197-10.773,17-3c-1.89,0.443-6.026-1.36-5,2
			c1.103,4.021,6.967,1.058,10,1c2.269-5.646-0.569-9.375-5-11c-1.266-3.36,3.916-5.29,1-7
			C112.526,585.482,99.76,584.716,100.044,597z M70.044,597c-7.464-0.587-10.908,6.331-8,13c2.323,0.728,7.472,2.531,7-2
			c0.451-2.784-5.451,0.784-5-2c6.573-7.006,9.505,2.721,8,10c-3.029,14.645-14.243,29.65-19,48c-5.535,21.348-4.761,42.126-1,62
			c2.369-0.445,4.462,3.77,9,4c-2.98-20.943-2.108-45.062,4-61c2.489-6.493,7.518-12.565,5-18c-9.524,12.034-15.799,31.893-15,51
			c-3.672-9.104-1.3-20.809,1-29c2.597-9.246,8.141-19.078,13-28c6.059-11.123,17.513-24.776,15-35c-4.054,4.956-7.713,15.606-12,17
			c4.489-10.511,12.971-17.028,13-32c-2.333-0.855-4.309,3.497-5,1c-1.27-4.73-3.208-8.791-8-10
			C71.41,589.699,69.331,591.953,70.044,597z M82.044,628c2.615,0.282,4.301-0.365,4-3C83.429,624.718,81.743,625.365,82.044,628z
			 M80.044,636c5.455,3.166,6.848-2.916,11-4c-0.857,3.19,1.574,3.093,2,5c5.451,0.451,8.217-1.783,14-1
			c-0.052-2.977,2.941-5.074,1-7C95.831,628.454,85.167,629.456,80.044,636z M115.044,640c-1.703-1.421-2.335-6.546-5-4
			c-1.489,6.517,5.379,9.918,2,15c-3.021-2.646-2.821-8.513-8-9c-0.986,2.348-1.754,4.913-2,8c2.41,2.957,11.701,11.506,4,15
			c-3.25-33.019-30.851,17.724-2,11c10.633-2.478,12.625-19.236,12-34c2.257-2.189,9.189-7.709,12-3c-2.483-0.15-4.15,0.517-5,2
			c2.17,3.028,6.485,1.871,8-1C130.447,628.284,116.558,631.79,115.044,640z M91.044,651c1.48-9.439-3.206-15.281-8-8
			c-2.442-0.558-2.131-3.869-6-3c-2.059,1.275-5.072,1.595-5,5c21.094-1.076-1.484,35.942,20,35c-2.457-5.543-5.461-10.539-9-15
			c4.041-3.959,7.668-8.332,11-13C92.867,651.844,91.206,652.172,91.044,651z M96.044,648c4.144,0.144,3.039-4.961,4-8
			c-1.333,0-2.667,0-4,0C94.574,641.455,94.574,646.545,96.044,648z M124.044,648c0.487-2.581-3.537-5.669-5-3
			C120.004,646.707,122.186,647.191,124.044,648z M134.044,652c-0.955-2.712-0.438-6.895-5-6
			C129.436,649.274,129.264,653.113,134.044,652z M120.044,671c-7.071,0.129-11.981,7.844-19,11c17.628,12.624,20.014-28.981,36-18
			c-1.772,0.228-5.008-1.008-4,2c3.33,3.264,6.949-1.668,6-6c-2.088-4.147-8.987-5.188-13-2c-0.729-2.271,1.802-7.802-2-7
			C119.552,655.405,118.271,662.896,120.044,671z M66.044,727c5.699,1.302,9.897,4.103,11,10c-5.325,8.893,0.908,16.52,8,21
			c3.858-23.506,1.205-46.563,1-68c-10.333-5.031-6.332-26.183-9-36C63.647,669.306,60.829,701.654,66.044,727z M102.044,689
			c10.044,4.016,20.816-4.249,25-6c-2.329,7.671-14.008,5.992-17,13c4.873,2.659-3.408,7.599,0,12c5.221,0.221,6.518-3.482,9-6
			c2.306,1.028,3.225,3.442,7,3c3.833-0.477,7.944-8.57,2-10c-3.952,0.318,0.74,3.095-2,4c-7.219-10.28,18.739-23.946,2-32
			C122.794,677.75,116.431,687.387,102.044,689z M93.044,683c-6.362,8.143-2.251,21.162-2,33c0.32,15.054,1.221,40.771-5,54
			c-6.008,12.776-21.158,24.878-39,23c-11.071-1.165-13.22-12.344-22-14c12.57,38.551,70.612,10.677,71-21
			c-0.433,27.99,33.255,49.447,61,40c7.909-2.693,19.814-13.23,17-22c-7.415-1.899-9.125,6.878-13,10
			c-4.428,3.567-10.911,7.056-19,7c-45.981-0.317-46.035-58.514-44-111C95.635,681.591,95.87,683.826,93.044,683z M61.044,744
			c-1.003-0.003-1.19,0.81-2,1c-2.073-1.927,0.342-8.342-4-8c-1.564,9.23,4.819,10.514,7,16c-3.1,1.317-5.547-2.964-7,0
			c9.156,2.844,11.563,12.438,17,19c6.049-13.58-17.08-28.907-1-37c0.826,2.826-1.409,2.591-1,5c3.135,0.468,2.819-2.515,4-4
			C68.731,725.681,58.221,735.264,61.044,744z M124.044,737c3.781,1.447,1.919-2.748,5-2c0.239,1.427,1.646,1.687,2,3
			c0.055,10.803-12.567,19.322-8,28c-0.783-10.45,8.106-11.228,15-14c-1.496-0.171-3.69,0.357-4-1c3.737-2.596,6.715-5.951,7-12
			c-3.923-0.256-3.717,3.617-8,3C140.968,735.582,123.646,724.168,124.044,737z M146.044,746c-0.665-6.331,3.606-7.728,4-13
			c-1,0-2,0-3,0C146.399,736.394,143.598,742.836,146.044,746z M156.044,742c-0.872-1.461-0.794-3.872-4-3
			c-5.946,5.067,2.714,14.246-1,20c-5.562-0.438-1.375-10.625-8-10c-5.059,6.516,7.595,16.306-1,20c-1.189-4.764-0.028-7.091-3-11
			c-0.776-0.225-1.973-0.027-2-1c-17.183,3.934-8.593,22.421,4,21c19.767-2.229,7.08-35.037,28-36c-0.878,1.768-3.17,2.919-1,5
			C182.621,741.821,159.352,730.97,156.044,742z M41.044,754c-1.434,2.983-5.212-2.629-5,2c4.894,5.377,22.883,2.078,20,12
			c-4.332-2.002-7.718-4.949-13-6c-4.896,11.404,2.945,26.792,19,22c17.142-22.719-24.695-26.47-17-46
			C32.793,738.682,38.355,747.861,41.044,754z M27.044,749c1.182,1.151,3.535,1.132,6,1c-0.575-1.758,1.208-5.875-1-6
			C31.157,746.447,26.46,745.083,27.044,749z M70.044,748c5.061,5.605,5.716,15.617,7,25c4.181-0.818,4.841-5.159,6-9
			C78.166,760.428,73.012,746.857,70.044,748z M168.044,751c2.516,0.817,1.395,5.272,3,7c2,0,4,0,6,0
			C178.209,750.642,172.568,747.244,168.044,751z M161.044,755c0.905-1.762,3.681-1.652,4-4c-1.353-0.314-1.91-1.424-4-1
			C160.468,750.606,158.703,754.743,161.044,755z M22.044,760c1.613-1.12,3.257-7.319,2-8C23.069,753.759,19.465,757.998,22.044,760
			z M25.044,765c-3.526-2.549-8.09,0.779-11,2c-3.693,6.396,4.836,15.583,9,8c2.678-1.785-3.883-2.704-4-5
			c14.672-0.005,14.075,15.258,26,18c-7.188-5.985-8.458-14.097-9-25c-0.485,1.182-1.066,2.267-2,3c-1.25-4.084-2.538-8.129-7-9
			C24.75,758.039,27.518,764.141,25.044,765z M154.044,778c-6.069-0.402-8.592,2.741-13,4c18.989,5.594,18.334-15.144,33-17
			c1.871,1.129,4.817,1.183,4,5c-2.436-0.646-5.144-2.02-5,2c6.933,3.531,10.182-6.786,5-11c-7.618-2.314-9.108,5.808-13,4
			c1.367-1.278,1.367-4.722,0-6C155.705,759.661,159.056,773.012,154.044,778z M99.044,780c-1.166-2.834-1.387-6.613-4-8
			C89.556,774.176,92.582,784.324,99.044,780z M134.044,783c-0.455-3.211-3.892-3.441-6-5
			C127.543,782.167,130.577,782.8,134.044,783z M114.044,815c4.859-1.898,5.154,7.164,11,4c-4.492-14.841-16.76-21.906-24-34
			c-3.541-0.541-2.459,3.541-6,3c-0.767-3.232-2.767-5.232-6-6C94.448,795.93,107.523,802.188,114.044,815z M93.044,823
			c-2.409,0.409-2.174-1.826-5-1c1.209,11.13,19.643,10.35,17,22c-4.862-0.472-4.111-6.555-11-5c-7.811,3.094-3.614,14.924-3,20
			c2.714,2.522,8.405,4.306,13,2c19.575-18.475-19.332-38.463-2-51c1.44,0.56,2.44,1.56,3,3c-0.294,2.084-2.706-1.484-3,2
			c1.907,0.426,1.81,2.857,5,2C109.943,803.61,85.712,809.572,93.044,823z M89.044,817c1.411-3.192-5.984-2.527-6-1
			C85.4,815.978,85.988,817.723,89.044,817z M111.044,828c0.579-5.912-3.466-7.201-9-7C103.063,825.314,104.941,828.77,111.044,828z
			 M71.044,831c-1.612-2.055-5.014-2.319-9-2c-2.446,1.754-2.362,6.031-1,9c2.465,0.132,4.818,0.151,6-1c1.19-4.19-4.215-1.785-5-4
			c4.623-4.895,11.18,1.846,11,8c4.628-4.479,9.002-13.028,4-19c-1.333,0-2.667,0-4,0C72.386,826.465,71.483,828.465,71.044,831z
			 M129.044,822c-6.047-0.603-4.972,4.822-10,7c-2.274-0.726,0.921-6.921-3-6c-1.126,2.874-0.202,7.798-2,10
			c-1.904-0.429-2.513-2.154-5-2c4.45,6.781,5.92,22.4,1,30c18.843,1.173,2.53-38.132,23-32c1.053,3.72-3.372,1.961-4,4
			C138.914,832.325,134.401,822.534,129.044,822z M85.044,828c-0.116-2.551-0.188-5.146-3-5
			C82.16,825.551,82.232,828.146,85.044,828z M75.044,847c0.363,7.649,6.578,14.738,13,13c-6.477-5.009-4.375-18.668,1-24
			C80.651,829.048,78.976,843.141,75.044,847z M97.044,871c-16.582-3.093-28.249-14.132-29-30c-8.705,2.829-4.847,12.335-2,17
			c15.923,26.09,72.585,13.584,62-22c-1,0-2,0-3,0C128.673,857.115,113.18,866.45,97.044,871z"/>
		<path fill-rule="evenodd" clip-rule="evenodd" fill="#FFFFFF" d="M76.044,167c-2.516,4.483-9.462,4.538-10,11
			C63.287,175.972,70.028,166.85,76.044,167z"/>
		<path fill-rule="evenodd" clip-rule="evenodd" fill="#FFFFFF" d="M83.044,764c-1.159,3.841-1.819,8.182-6,9
			c-1.284-9.383-1.939-19.395-7-25C73.012,746.857,78.166,760.428,83.044,764z"/>
		<path fill-rule="evenodd" clip-rule="evenodd" fill="#FFFFFF" d="M24.044,752c1.257,0.681-0.387,6.88-2,8
			C19.465,757.998,23.069,753.759,24.044,752z"/>
		<path fill-rule="evenodd" clip-rule="evenodd" fill="#FFFFFF" d="M119.044,97c-0.696,2.971-3.282,4.051-5,6
			c4.049,3.951,10.431,5.57,10,14c-4.98,0.353-7.916,2.75-14,2c-2.236,0.431-0.405,4.928-1,7c-12.389,3.055-5.984-12.683-17-11
			c1.148,8.519,10.531,8.802,10,19c-4.428,1.094-4.973-1.694-8-2c2.68,9.096-5.616,12.064-9,18c-6.665-2.678-16.235-7.752-14-16
			c-0.42-2.246-5.306-0.027-6-2c-2.641-10.466,11.064-9.387,7-18c-6.129,1.204-4.42,10.246-12,10c-3.418,0.168,0.228-3.519-3-5
			c-3.413,3.335-7.414-0.136-13,0c-0.571-6.905,0.947-11.72,5-14c-0.275-2.059-3.725-0.941-4-3c5.275-13.951,17.907,2.564,28-2
			c-2.058,7.616-21.727,6.268-25,16c4.813-3.062,19.541-12.62,31-6c3.85,6.484,1.861,18.806,4,27c3.561-6.106,0.893-18.44,3-26
			c5.721-8.489,20.641-3.877,28,0c-1.187-4.827-14.985-5.671-21-9C104.12,102.013,108.369,91.694,119.044,97z"/>
	</g>
</g>
</svg>
