<?xml version="1.0" encoding="utf-8"?>

<!DOCTYPE svg PUBLIC "-//W3C//DTD SVG 1.1//EN" "http://www.w3.org/Graphics/SVG/1.1/DTD/svg11.dtd">
<svg version="1.1" id="Layer_1" xmlns="http://www.w3.org/2000/svg" xmlns:xlink="http://www.w3.org/1999/xlink" x="0px" y="0px"
	 viewBox="0 0 1613.6669 1613.6669" enable-background="new 0 0 1613.6669 1613.6669" xml:space="preserve">
<g>
	<path d="M1028.3026,1028.3026c4.2118-28.9537-3.6815-44.191-14.746-42.7424c6.6472,13.2835,5.5757,23.1935,2.306,30.3025
		c-7.109,3.2697-17.019,4.3412-30.3025-2.306C984.1116,1024.6211,999.3489,1032.5144,1028.3026,1028.3026z"/>
	<path d="M585.3643,1028.3026c28.9537,4.2118,44.191-3.6815,42.7424-14.746c-13.2834,6.6472-23.1934,5.5757-30.3024,2.306
		c-3.2697-7.109-4.3412-17.019,2.306-30.3025C589.0459,984.1116,581.1525,999.3489,585.3643,1028.3026z"/>
	<path d="M585.3643,585.3643c-4.2119,28.9537,3.6816,44.191,14.746,42.7424c-6.6472-13.2834-5.5757-23.1934-2.306-30.3024
		c7.109-3.2697,17.019-4.3412,30.3024,2.306C629.5554,589.0459,614.318,581.1525,585.3643,585.3643z"/>
	<path d="M1028.3026,585.3643c-28.9537-4.2119-44.191,3.6816-42.7424,14.746c13.2835-6.6472,23.1935-5.5757,30.3025-2.306
		c3.2697,7.109,4.3412,17.019-2.306,30.3024C1024.6211,629.5554,1032.5144,614.318,1028.3026,585.3643z"/>
	<path d="M1012.1931,1012.1931c0.7198-7.0789,1.9296-15.2383-5.4764-24.937c-3.2158,2.6975-5.7985,6.9258-6.8216,12.639
		c-5.7133,1.0231-9.9415,3.6058-12.639,6.8216C996.9548,1014.1227,1005.1143,1012.9129,1012.1931,1012.1931z"/>
	<path d="M601.4738,1012.1931c7.0788,0.7198,15.2383,1.9296,24.937-5.4764c-2.6976-3.2158-6.9258-5.7985-12.639-6.8216
		c-1.0231-5.7133-3.6058-9.9415-6.8216-12.639C599.5442,996.9548,600.754,1005.1143,601.4738,1012.1931z"/>
	<path d="M601.4738,601.4738c-0.7198,7.0788-1.9296,15.2383,5.4764,24.937c3.2158-2.6976,5.7985-6.9258,6.8216-12.639
		c5.7133-1.0231,9.9415-3.6058,12.639-6.8216C616.7121,599.5442,608.5526,600.754,601.4738,601.4738z"/>
	<path d="M1012.1931,601.4738c-7.0789-0.7198-15.2383-1.9296-24.937,5.4764c2.6975,3.2158,6.9258,5.7985,12.639,6.8216
		c1.0231,5.7133,3.6058,9.9415,6.8216,12.639C1014.1227,616.7121,1012.9129,608.5526,1012.1931,601.4738z"/>
	<path d="M983.9677,576.7092c11.0093-7.8083,17.6392-27.5565-7.7165-56.1124h-0.0001
		c-19.9293,40.0284-13.825,60.6542,0.5928,58.0598c-6.7263-14.0873-0.8903-24.27,5.3391-30.728
		C983.7569,555.4613,974.6089,565.3506,983.9677,576.7092z"/>
	<path d="M576.7092,629.6992c-7.8083-11.0093-27.5565-17.6392-56.1124,7.7165v0.0001c40.0284,19.9293,60.6542,13.825,58.0598-0.5928
		c-14.0873,6.7263-24.27,0.8903-30.728-5.3392C555.4613,629.91,565.3506,639.058,576.7092,629.6992z"/>
	<path d="M629.6992,1036.9576c-11.0093,7.8083-17.6392,27.5565,7.7165,56.1124h0.0001
		c19.9293-40.0284,13.825-60.6541-0.5928-58.0598c6.7263,14.0873,0.8903,24.27-5.3392,30.728
		C629.91,1058.2057,639.058,1048.3163,629.6992,1036.9576z"/>
	<path d="M1036.9576,983.9677c7.8083,11.0093,27.5565,17.6392,56.1124-7.7165v-0.0001
		c-40.0284-19.9293-60.6541-13.825-58.0598,0.5928c14.0873-6.7263,24.27-0.8903,30.728,5.3391
		C1058.2057,983.7569,1048.3163,974.6089,1036.9576,983.9677z"/>
	<path d="M1036.9576,629.6992c7.8083-11.0093,27.5565-17.6392,56.1124,7.7165v0.0001
		c-40.0284,19.9293-60.6541,13.825-58.0598-0.5928c14.0873,6.7263,24.27,0.8903,30.728-5.3392
		C1058.2057,629.91,1048.3163,639.058,1036.9576,629.6992z"/>
	<path d="M629.6992,576.7092c-11.0093-7.8083-17.6392-27.5565,7.7165-56.1124h0.0001c19.9293,40.0284,13.825,60.6542-0.5928,58.0598
		c6.7263-14.0873,0.8903-24.27-5.3392-30.728C629.91,555.4613,639.058,565.3506,629.6992,576.7092z"/>
	<path d="M576.7092,983.9677c-7.8083,11.0093-27.5565,17.6392-56.1124-7.7165v-0.0001
		c40.0284-19.9293,60.6542-13.825,58.0598,0.5928c-14.0873-6.7263-24.27-0.8903-30.728,5.3391
		C555.4613,983.7569,565.3506,974.6089,576.7092,983.9677z"/>
	<path d="M983.9677,1036.9576c11.0093,7.8083,17.6392,27.5565-7.7165,56.1124h-0.0001
		c-19.9293-40.0284-13.825-60.6541,0.5928-58.0598c-6.7263,14.0873-0.8903,24.27,5.3391,30.728
		C983.7569,1058.2057,974.6089,1048.3163,983.9677,1036.9576z"/>
	<path d="M863.5613,293.2497c4.2796-8.8112,0.8411-24.5839-27.6231-36.6646h-0.0004c2.6058,33.9627,14.9567,46.4358,23.6124,40.2057
		c-10.1546-7.7347-10.3021-16.6095-8.6961-23.0137C854.9239,278.5338,852.7278,288.2211,863.5613,293.2497z"/>
	<path d="M293.2497,750.1056c-8.8112-4.2796-24.5839-0.8411-36.6646,27.6231v0.0004c33.9627-2.6057,46.4358-14.9566,40.2057-23.6123
		c-7.7347,10.1546-16.6095,10.3021-23.0137,8.6961C278.5338,758.743,288.2211,760.9391,293.2497,750.1056z"/>
	<path d="M750.1056,1320.4172c-4.2796,8.8112-0.8411,24.5837,27.6231,36.6646h0.0004
		c-2.6057-33.9626-14.9566-46.4358-23.6123-40.2057c10.1546,7.7347,10.3021,16.6095,8.6961,23.0137
		C758.743,1335.1332,760.9391,1325.4458,750.1056,1320.4172z"/>
	<path d="M1320.4172,863.5613c8.8112,4.2796,24.5837,0.8411,36.6646-27.6231v-0.0004
		c-33.9626,2.6058-46.4358,14.9567-40.2057,23.6124c7.7347-10.1546,16.6095-10.3021,23.0137-8.6961
		C1335.1332,854.9239,1325.4458,852.7278,1320.4172,863.5613z"/>
	<path d="M1320.4172,750.1056c8.8112-4.2796,24.5837-0.8411,36.6646,27.6231v0.0004
		c-33.9626-2.6057-46.4358-14.9566-40.2057-23.6123c7.7347,10.1546,16.6095,10.3021,23.0137,8.6961
		C1335.1332,758.743,1325.4458,760.9391,1320.4172,750.1056z"/>
	<path d="M750.1056,293.2497c-4.2796-8.8112-0.8411-24.5839,27.6231-36.6646h0.0004
		c-2.6057,33.9627-14.9566,46.4358-23.6123,40.2057c10.1546-7.7347,10.3021-16.6095,8.6961-23.0137
		C758.743,278.5338,760.9391,288.2211,750.1056,293.2497z"/>
	<path d="M293.2497,863.5613c-8.8112,4.2796-24.5839,0.8411-36.6646-27.6231v-0.0004
		c33.9627,2.6058,46.4358,14.9567,40.2057,23.6124c-7.7347-10.1546-16.6095-10.3021-23.0137-8.6961
		C278.5338,854.9239,288.2211,852.7278,293.2497,863.5613z"/>
	<path d="M863.5613,1320.4172c4.2796,8.8112,0.8411,24.5837-27.6231,36.6646h-0.0004
		c2.6058-33.9626,14.9567-46.4358,23.6124-40.2057c-10.1546,7.7347-10.3021,16.6095-8.6961,23.0137
		C854.9239,1335.1332,852.7278,1325.4458,863.5613,1320.4172z"/>
	<path d="M828.6358,178.4788c-6.0315,2.8578-12.5114,4.7549-19.1089,5.6062C814.4988,183.0505,821.4241,181.2948,828.6358,178.4788z
		 M178.4788,785.0311c2.8578,6.0314,4.7549,12.5114,5.6062,19.1089C183.0505,799.1681,181.2948,792.2429,178.4788,785.0311z
		 M785.0311,1435.1881c6.0314-2.8578,12.5114-4.7549,19.1089-5.6062C799.1681,1430.6165,792.2429,1432.3721,785.0311,1435.1881z
		 M1435.1881,828.6358c-2.8578-6.0315-4.7549-12.5114-5.6062-19.1089C1430.6165,814.4988,1432.3721,821.4241,1435.1881,828.6358z
		 M1429.5819,804.1401c0.8513-6.5975,2.7484-13.0775,5.6062-19.1089C1432.3721,792.2429,1430.6165,799.1681,1429.5819,804.1401z
		 M804.1401,184.0851c-6.5975-0.8513-13.0775-2.7485-19.1089-5.6062C792.2429,181.2948,799.1681,183.0505,804.1401,184.0851z
		 M184.0851,809.5269c-0.8513,6.5975-2.7485,13.0775-5.6062,19.1089C181.2948,821.4241,183.0505,814.4988,184.0851,809.5269z
		 M809.5269,1429.5819c6.5975,0.8513,13.0775,2.7484,19.1089,5.6062C821.4241,1432.3721,814.4988,1430.6165,809.5269,1429.5819z
		 M806.8334,182.2458c0.944-0.1684,1.8842-0.3579,2.8197-0.5683c-1.0184,0.5243-1.9648,1.001-2.8197,1.4246
		c-0.8548-0.4236-1.8013-0.9003-2.8196-1.4246C804.9492,181.8879,805.8895,182.0774,806.8334,182.2458z M1431.4211,806.8334
		c0.1683,0.944,0.3579,1.8842,0.5682,2.8197c-0.5243-1.0184-1.001-1.9648-1.4246-2.8197c0.4236-0.8548,0.9003-1.8013,1.4246-2.8196
		C1431.7791,804.9492,1431.5895,805.8895,1431.4211,806.8334z M806.8334,1431.4211c-0.944,0.1683-1.8842,0.3579-2.8196,0.5682
		c1.0184-0.5243,1.9648-1.001,2.8196-1.4246c0.8549,0.4236,1.8013,0.9003,2.8197,1.4246
		C808.7177,1431.7791,807.7775,1431.5895,806.8334,1431.4211z M182.2458,806.8334c-0.1684-0.944-0.3579-1.8842-0.5683-2.8196
		c0.5243,1.0184,1.001,1.9648,1.4246,2.8196c-0.4236,0.8549-0.9003,1.8013-1.4246,2.8197
		C181.8879,808.7177,182.0774,807.7775,182.2458,806.8334z M1034.9177,478.8102L1034.9177,478.8102
		c-13.6756,2.26-28.3754-0.1053-39.5373-7.9522h-0.0001c-5.5935-3.9127-10.2931-9.1259-13.3671-15.149c0,0,0,0,0-0.0001
		c-3.0737-6.0173-4.5494-12.876-3.9919-19.5413c0.7917-9.9132,6.2181-19.3834,14.0636-25.535
		c7.855-6.175,18.1808-9.1228,28.1959-8.5765c10.0331,0.5401,19.8422,4.565,27.7639,10.8309
		c7.9338,6.2715,14.0292,14.8309,17.9143,24.2389c2.9739,7.1606,4.606,14.7941,5.0798,22.5575
		C1061.4237,469.6709,1048.5416,476.5381,1034.9177,478.8102z M478.8102,578.7491L478.8102,578.7491
		c2.26,13.6757-0.1053,28.3755-7.9522,39.5374l0,0c-3.9127,5.5936-9.1259,10.2932-15.149,13.3672c0,0,0,0-0.0001,0
		c-6.0173,3.0737-12.876,4.5493-19.5413,3.9919c-9.9132-0.7917-19.3834-6.2181-25.535-14.0636
		c-6.175-7.855-9.1228-18.1807-8.5765-28.1959c0.5401-10.0331,4.565-19.8422,10.8309-27.7639
		c6.2715-7.9338,14.8309-14.0292,24.2389-17.9142c7.1606-2.9739,14.7941-4.606,22.5575-5.0798
		C469.6709,552.2432,476.5381,565.1253,478.8102,578.7491z M578.7491,1134.8567L578.7491,1134.8567
		c13.6757-2.26,28.3755,0.1052,39.5374,7.9521l0,0c5.5936,3.9127,10.2932,9.126,13.3672,15.149c0,0,0,0,0,0.0001
		c3.0737,6.0173,4.5493,12.8761,3.9919,19.5413c-0.7917,9.9133-6.2181,19.3834-14.0636,25.535
		c-7.855,6.1749-18.1807,9.1228-28.1959,8.5764c-10.0331-0.54-19.8422-4.5651-27.7639-10.8308
		c-7.9338-6.2715-14.0292-14.8309-17.9142-24.2389c-2.9739-7.1606-4.606-14.7941-5.0798-22.5576
		C552.2432,1143.9961,565.1253,1137.1288,578.7491,1134.8567z M1134.8567,1034.9177L1134.8567,1034.9177
		c-2.26-13.6756,0.1052-28.3754,7.9521-39.5373v-0.0001c3.9127-5.5935,9.126-10.2931,15.149-13.3671c0,0,0,0,0.0001,0
		c6.0173-3.0737,12.8761-4.5494,19.5413-3.9919c9.9133,0.7917,19.3834,6.2181,25.535,14.0636
		c6.1749,7.855,9.1228,18.1808,8.5764,28.1959c-0.54,10.0331-4.5651,19.8422-10.8308,27.7639
		c-6.2715,7.9338-14.8309,14.0292-24.2389,17.9143c-7.1606,2.9739-14.7941,4.606-22.5576,5.0798
		C1143.9961,1061.4237,1137.1288,1048.5416,1134.8567,1034.9177z M1153.9834,542.6282c7.7635,0.4738,15.397,2.1059,22.5576,5.0798
		c9.408,3.8851,17.9674,9.9804,24.2389,17.9142c6.2657,7.9216,10.2908,17.7308,10.8308,27.7639
		c0.5464,10.0152-2.4015,20.3409-8.5764,28.1959c-6.1516,7.8455-15.6217,13.2719-25.535,14.0636
		c-6.6652,0.5574-13.5239-0.9182-19.5413-3.9919c-0.0001,0-0.0001,0-0.0001,0c-6.0231-3.074-11.2363-7.7736-15.149-13.3672l0,0
		c-7.8469-11.1619-10.2122-25.8617-7.9521-39.5373v-0.0001C1137.1288,565.1253,1143.9961,552.2432,1153.9834,542.6282z
		 M542.6282,459.6835c0.4738-7.7635,2.1059-15.397,5.0798-22.5575c3.8851-9.408,9.9804-17.9675,17.9142-24.2389
		c7.9216-6.2658,17.7308-10.2908,27.7639-10.8309c10.0152-0.5463,20.3409,2.4015,28.1959,8.5765
		c7.8455,6.1516,13.2719,15.6217,14.0636,25.535c0.5574,6.6653-0.9182,13.5239-3.9919,19.5413c0,0.0001,0,0.0001,0,0.0001
		c-3.074,6.0231-7.7736,11.2364-13.3672,15.149l0,0c-11.1619,7.8469-25.8617,10.2122-39.5373,7.9522h-0.0001
		C565.1253,476.5381,552.2432,469.6709,542.6282,459.6835z M459.6835,1071.0388c-7.7635-0.4739-15.397-2.106-22.5575-5.0798
		c-9.408-3.8851-17.9675-9.9805-24.2389-17.9143c-6.2658-7.9216-10.2908-17.7307-10.8309-27.7639
		c-0.5463-10.0151,2.4015-20.3409,8.5765-28.1959c6.1516-7.8455,15.6217-13.2719,25.535-14.0636
		c6.6653-0.5574,13.5239,0.9183,19.5413,3.9919c0.0001,0,0.0001,0,0.0001,0c6.0231,3.074,11.2364,7.7736,15.149,13.3671v0.0001
		c7.8469,11.1619,10.2122,25.8617,7.9522,39.5373l0,0C476.5381,1048.5416,469.6709,1061.4237,459.6835,1071.0388z
		 M1071.0388,1153.9834c-0.4739,7.7635-2.106,15.397-5.0798,22.5576c-3.8851,9.408-9.9805,17.9674-17.9143,24.2389
		c-7.9216,6.2657-17.7307,10.2908-27.7639,10.8308c-10.0151,0.5464-20.3409-2.4015-28.1959-8.5764
		c-7.8455-6.1516-13.2719-15.6217-14.0636-25.535c-0.5574-6.6652,0.9183-13.5239,3.9919-19.5413c0-0.0001,0-0.0001,0-0.0001
		c3.074-6.0231,7.7736-11.2363,13.3671-15.149h0.0001c11.1619-7.8469,25.8617-10.2122,39.5373-7.9521l0,0
		C1048.5416,1137.1288,1061.4237,1143.9961,1071.0388,1153.9834z M806.8334,12.0685c11.6536,2.5528,22.986,6.2619,33.5668,11.2112
		c-11.0717-3.431-22.3505-5.7852-33.5668-6.7202c-11.2162,0.935-22.4951,3.2892-33.5668,6.7202
		C783.8475,18.3303,795.1799,14.6213,806.8334,12.0685z M12.0685,806.8334c2.5528-11.6536,6.2619-22.986,11.2112-33.5668
		c-3.431,11.0717-5.7852,22.3505-6.7202,33.5668c0.935,11.2163,3.2892,22.4951,6.7202,33.5668
		C18.3303,829.8195,14.6213,818.4871,12.0685,806.8334z M806.8334,1601.5985c-11.6536-2.5529-22.986-6.262-33.5668-11.2113
		c11.0717,3.431,22.3505,5.7853,33.5668,6.7202c11.2163-0.9349,22.4951-3.2892,33.5668-6.7202
		C829.8195,1595.3365,818.4871,1599.0457,806.8334,1601.5985z M1601.5985,806.8334c-2.5529,11.6536-6.262,22.986-11.2113,33.5668
		c3.431-11.0717,5.7853-22.3505,6.7202-33.5668c-0.9349-11.2162-3.2892-22.4951-6.7202-33.5668
		C1595.3365,783.8475,1599.0457,795.1799,1601.5985,806.8334z M806.8334,22.3364c6.4016,0.492,12.8318,1.3389,19.2191,2.5255
		c-1.9952,0.0702-3.9893,0.1906-5.9797,0.3681c-4.449,0.3969-8.8748,1.0732-13.2394,2.0233
		c-4.3646-0.95-8.7903-1.6263-13.2393-2.0233c-1.9905-0.1775-3.9846-0.298-5.9797-0.3681
		C794.0016,23.6753,800.4319,22.8284,806.8334,22.3364z M22.3364,806.8334c0.492-6.4015,1.3389-12.8318,2.5255-19.2191
		c0.0702,1.9952,0.1906,3.9892,0.3681,5.9797c0.3969,4.449,1.0732,8.8748,2.0233,13.2393c-0.95,4.3646-1.6263,8.7904-2.0233,13.2394
		c-0.1775,1.9905-0.298,3.9846-0.3681,5.9797C23.6753,819.6653,22.8284,813.235,22.3364,806.8334z M806.8334,1591.3304
		c-6.4015-0.4919-12.8318-1.3389-19.2191-2.5254c1.9952-0.0702,3.9892-0.1907,5.9797-0.3682
		c4.449-0.397,8.8748-1.0732,13.2393-2.0233c4.3646,0.9501,8.7904,1.6263,13.2394,2.0233c1.9905,0.1775,3.9846,0.298,5.9797,0.3682
		C819.6653,1589.9916,813.235,1590.8385,806.8334,1591.3304z M1591.3304,806.8334c-0.4919,6.4016-1.3389,12.8318-2.5254,19.2191
		c-0.0702-1.9952-0.1907-3.9893-0.3682-5.9797c-0.397-4.449-1.0732-8.8748-2.0233-13.2394
		c0.9501-4.3646,1.6263-8.7903,2.0233-13.2393c0.1775-1.9905,0.298-3.9846,0.3682-5.9797
		C1589.9916,794.0016,1590.8385,800.4319,1591.3304,806.8334z M806.8334,186.1342c11.338-1.18,22.3344-5.377,31.474-12.0875
		c5.0634-2.718,9.8967-6.045,13.9025-10.1054c17.3317-17.5692,23.3372-39.1364,12.1066-52.1768
		c-11.2307-13.0405-34.7624-13.8873-46.8668-0.8599s-9.0615,29.6693,1.1486,33.132c8.338,2.8278,26.3464-6.6752,25.1255,8.2908
		c-0.8669,10.6339-21.5308,22.839-33.4235,29.0154c-1.1492,0.263-2.3055,0.4947-3.4669,0.6946
		c-1.1614-0.1998-2.3176-0.4316-3.4669-0.6946c-11.8928-6.1765-32.5566-18.3815-33.4235-29.0154
		c-1.2208-14.9659,16.7875-5.4629,25.1255-8.2908c10.2101-3.4627,13.253-20.1045,1.1486-33.132s-35.6361-12.1806-46.8668,0.8599
		c-11.2307,13.0404-5.2252,34.6076,12.1066,52.1768c4.0058,4.0604,8.8391,7.3875,13.9025,10.1054
		C784.4991,180.7572,795.4955,184.9542,806.8334,186.1342z M186.1342,806.8334c-1.18-11.3379-5.377-22.3343-12.0875-31.4739
		c-2.718-5.0634-6.045-9.8967-10.1054-13.9025c-17.5692-17.3318-39.1364-23.3372-52.1768-12.1066
		c-13.0405,11.2307-13.8873,34.7624-0.8599,46.8668s29.6693,9.0615,33.132-1.1486c2.8278-8.338-6.6752-26.3464,8.2908-25.1255
		c10.6339,0.8669,22.839,21.5308,29.0154,33.4235c0.263,1.1492,0.4947,2.3054,0.6946,3.4669
		c-0.1998,1.1614-0.4316,2.3177-0.6946,3.4669c-6.1765,11.8927-18.3815,32.5566-29.0154,33.4235
		c-14.9659,1.2208-5.4629-16.7875-8.2908-25.1255c-3.4627-10.2101-20.1045-13.253-33.132-1.1486s-12.1806,35.6361,0.8599,46.8668
		c13.0404,11.2307,34.6076,5.2252,52.1768-12.1066c4.0604-4.0058,7.3875-8.8391,10.1054-13.9025
		C180.7572,829.1678,184.9542,818.1714,186.1342,806.8334z M806.8334,1427.5327c-11.3379,1.1799-22.3343,5.377-31.4739,12.0875
		c-5.0634,2.7179-9.8967,6.0449-13.9025,10.1053c-17.3318,17.5692-23.3372,39.1365-12.1066,52.1769s34.7624,13.8873,46.8668,0.8599
		s9.0615-29.6693-1.1486-33.132c-8.338-2.8279-26.3464,6.6752-25.1255-8.2908c0.8669-10.6339,21.5308-22.839,33.4235-29.0155
		c1.1492-0.2629,2.3054-0.4946,3.4669-0.6946c1.1614,0.2,2.3177,0.4316,3.4669,0.6946
		c11.8927,6.1765,32.5566,18.3816,33.4235,29.0155c1.2208,14.9659-16.7875,5.4629-25.1255,8.2908
		c-10.2101,3.4626-13.253,20.1045-1.1486,33.132s35.6361,12.1805,46.8668-0.8599s5.2252-34.6077-12.1066-52.1769
		c-4.0058-4.0604-8.8391-7.3875-13.9025-10.1053C829.1678,1432.9097,818.1714,1428.7126,806.8334,1427.5327z M1427.5327,806.8334
		c1.1799,11.338,5.377,22.3344,12.0875,31.474c2.7179,5.0634,6.0449,9.8967,10.1053,13.9025
		c17.5692,17.3317,39.1365,23.3372,52.1769,12.1066s13.8873-34.7624,0.8599-46.8668s-29.6693-9.0615-33.132,1.1486
		c-2.8279,8.338,6.6752,26.3464-8.2908,25.1255c-10.6339-0.8669-22.839-21.5308-29.0155-33.4235
		c-0.2629-1.1492-0.4946-2.3055-0.6946-3.4669c0.2-1.1614,0.4316-2.3176,0.6946-3.4669
		c6.1765-11.8928,18.3816-32.5566,29.0155-33.4235c14.9659-1.2208,5.4629,16.7875,8.2908,25.1255
		c3.4626,10.2101,20.1045,13.253,33.132,1.1486s12.1805-35.6361-0.8599-46.8668s-34.6077-5.2252-52.1769,12.1066
		c-4.0604,4.0058-7.3875,8.8391-10.1053,13.9025C1432.9097,784.4991,1428.7126,795.4955,1427.5327,806.8334z M806.8334,34.13
		c4.5521-0.9563,9.1682-1.5966,13.796-1.9166c18.3602-1.2715,36.9794,2.4564,53.7835,9.9658c0.0001,0,0.0001,0,0.0001,0
		c6.9129,3.0887,13.5212,6.8311,19.7829,11.1001c0.2589,0.1893,0.5239,0.3731,0.7811,0.564l0.0051-0.0011l0.0247-0.0126
		c8.6558,5.9938,16.6296,13.0074,23.7711,20.7573c25.0546,27.1051,39.4062,62.9744,46.222,99.5863
		c7.6418,41.3589,5.7444,84.1826-1.797,125.7832c-0.8445,4.6487-1.7624,9.2832-2.7411,13.9058
		c-8.9516,34.3266-21.812,67.6237-36.4321,100.0578c-5.1034,11.3174-10.4086,22.5467-15.8232,33.7325
		c5.066-26.6915,4.1544-50.3264-5.9967-76.6178c-11.4811-29.7102-32.0714-55.6579-58.2038-73.5259
		c-11.6737-7.9482-24.2009-14.2359-37.1724-19.4286c-12.9715,5.1927-25.4987,11.4805-37.1724,19.4286
		c-26.1324,17.868-46.7227,43.8156-58.2038,73.5259c-10.1511,26.2914-11.0627,49.9263-5.9967,76.6178
		c-5.4146-11.1858-10.7199-22.4152-15.8232-33.7325c-14.6201-32.434-27.4805-65.7311-36.4321-100.0578
		c-0.9788-4.6225-1.8967-9.2571-2.7411-13.9058c-7.5414-41.6006-9.4388-84.4243-1.797-125.7832
		c6.8158-36.6119,21.1674-72.4812,46.2219-99.5863c7.1415-7.7499,15.1154-14.7636,23.7712-20.7573l0.0247,0.0126l0.005,0.0011
		c0.2572-0.1908,0.5222-0.3747,0.7811-0.564c6.2617-4.269,12.8699-8.0114,19.7829-11.1001c0,0,0,0,0.0001,0
		c16.8041-7.5094,35.4233-11.2373,53.7835-9.9658C797.6653,32.5334,802.2814,33.1738,806.8334,34.13z M34.13,806.8334
		c-0.9563-4.552-1.5966-9.1682-1.9166-13.796c-1.2715-18.3602,2.4564-36.9794,9.9658-53.7835c0-0.0001,0-0.0001,0-0.0001
		c3.0887-6.913,6.8311-13.5212,11.1001-19.7829c0.1893-0.259,0.3731-0.5239,0.564-0.7811l-0.0011-0.005l-0.0126-0.0247
		c5.9938-8.6558,13.0074-16.6296,20.7573-23.7712c27.1051-25.0546,62.9744-39.4061,99.5863-46.2219
		c41.3589-7.6418,84.1826-5.7444,125.7832,1.797c4.6487,0.8445,9.2832,1.7623,13.9058,2.7411
		c34.3266,8.9515,67.6237,21.812,100.0578,36.4321c11.3174,5.1033,22.5467,10.4086,33.7325,15.8232
		c-26.6915-5.066-50.3264-4.1544-76.6178,5.9967c-29.7102,11.4811-55.6579,32.0714-73.5259,58.2038
		c-7.9482,11.6737-14.2359,24.2009-19.4286,37.1724c5.1927,12.9715,11.4805,25.4987,19.4286,37.1724
		c17.868,26.1324,43.8156,46.7227,73.5259,58.2038c26.2914,10.1511,49.9263,11.0627,76.6178,5.9967
		c-11.1858,5.4146-22.4152,10.7198-33.7325,15.8232c-32.434,14.6201-65.7311,27.4805-100.0578,36.4321
		c-4.6225,0.9788-9.2571,1.8966-13.9058,2.7411c-41.6006,7.5414-84.4243,9.4388-125.7832,1.797
		c-36.6119-6.8158-72.4812-21.1674-99.5863-46.222c-7.7499-7.1415-14.7636-15.1153-20.7573-23.7711l0.0126-0.0247l0.0011-0.0051
		c-0.1908-0.2571-0.3747-0.5222-0.564-0.7811c-4.269-6.2617-8.0114-12.87-11.1001-19.7829c0,0,0,0,0-0.0001
		c-7.5094-16.8041-11.2373-35.4233-9.9658-53.7835C32.5334,816.0016,33.1738,811.3855,34.13,806.8334z M806.8334,1579.5369
		c-4.552,0.9563-9.1682,1.5967-13.796,1.9166c-18.3602,1.2715-36.9794-2.4564-53.7835-9.9658c-0.0001,0-0.0001,0-0.0001,0
		c-6.913-3.0887-13.5212-6.8311-19.7829-11.1001c-0.259-0.1893-0.5239-0.3732-0.7811-0.564l-0.005,0.0011l-0.0247,0.0126
		c-8.6558-5.9939-16.6296-13.0074-23.7712-20.7574c-25.0546-27.1051-39.4061-62.9744-46.2219-99.5863
		c-7.6418-41.3589-5.7444-84.1826,1.797-125.7832c0.8445-4.6487,1.7623-9.2832,2.7411-13.9058
		c8.9515-34.3267,21.812-67.6238,36.4321-100.0577c5.1033-11.3174,10.4086-22.5468,15.8232-33.7325
		c-5.066,26.6914-4.1544,50.3264,5.9967,76.6177c11.4811,29.7103,32.0714,55.658,58.2038,73.526
		c11.6737,7.9481,24.2009,14.2358,37.1724,19.4286c12.9715-5.1927,25.4987-11.4805,37.1724-19.4286
		c26.1324-17.868,46.7227-43.8157,58.2038-73.526c10.1511-26.2913,11.0627-49.9263,5.9967-76.6177
		c5.4146,11.1858,10.7198,22.4152,15.8232,33.7325c14.6201,32.434,27.4805,65.7311,36.4321,100.0577
		c0.9788,4.6226,1.8966,9.2571,2.7411,13.9058c7.5414,41.6006,9.4388,84.4243,1.797,125.7832
		c-6.8158,36.6119-21.1674,72.4812-46.222,99.5863c-7.1415,7.75-15.1153,14.7635-23.7711,20.7574l-0.0247-0.0126l-0.0051-0.0011
		c-0.2571,0.1908-0.5222,0.3746-0.7811,0.564c-6.2617,4.269-12.87,8.0114-19.7829,11.1001c0,0,0,0-0.0001,0
		c-16.8041,7.5094-35.4233,11.2373-53.7835,9.9658C816.0016,1581.1335,811.3855,1580.4932,806.8334,1579.5369z M1579.5369,806.8334
		c0.9563,4.5521,1.5967,9.1682,1.9166,13.796c1.2715,18.3602-2.4564,36.9794-9.9658,53.7835c0,0.0001,0,0.0001,0,0.0001
		c-3.0887,6.9129-6.8311,13.5212-11.1001,19.7829c-0.1893,0.2589-0.3732,0.5239-0.564,0.7811l0.0011,0.0051l0.0126,0.0247
		c-5.9939,8.6558-13.0074,16.6296-20.7574,23.7711c-27.1051,25.0546-62.9744,39.4062-99.5863,46.222
		c-41.3589,7.6418-84.1826,5.7444-125.7832-1.797c-4.6487-0.8445-9.2832-1.7624-13.9058-2.7411
		c-34.3267-8.9516-67.6238-21.812-100.0577-36.4321c-11.3174-5.1034-22.5468-10.4086-33.7325-15.8232
		c26.6914,5.066,50.3264,4.1544,76.6177-5.9967c29.7103-11.4811,55.658-32.0714,73.526-58.2038
		c7.9481-11.6737,14.2358-24.2009,19.4286-37.1724c-5.1927-12.9715-11.4805-25.4987-19.4286-37.1724
		c-17.868-26.1324-43.8157-46.7227-73.526-58.2038c-26.2913-10.1511-49.9263-11.0627-76.6177-5.9967
		c11.1858-5.4146,22.4152-10.7199,33.7325-15.8232c32.434-14.6201,65.7311-27.4805,100.0577-36.4321
		c4.6226-0.9788,9.2571-1.8967,13.9058-2.7411c41.6006-7.5414,84.4243-9.4388,125.7832-1.797
		c36.6119,6.8158,72.4812,21.1674,99.5863,46.2219c7.75,7.1415,14.7635,15.1154,20.7574,23.7712l-0.0126,0.0247l-0.0011,0.005
		c0.1908,0.2572,0.3746,0.5222,0.564,0.7811c4.269,6.2617,8.0114,12.8699,11.1001,19.7829c0,0,0,0,0,0.0001
		c7.5094,16.8041,11.2373,35.4233,9.9658,53.7835C1581.1335,797.6653,1580.4932,802.2814,1579.5369,806.8334z M806.8334,284.7593
		c11.7043,5.0916,22.884,11.1022,33.1738,18.4767c24.5936,17.5488,43.6599,42.6958,53.9007,70.9122
		c9.4353,25.9706,12.8698,59.7088,7.5024,87.4219c-10.0281,20.3777-20.2976,40.6696-30.2551,61.1423v0.0001
		c-0.9391,1.9301-1.8739,3.8632-2.8072,5.7974c1.0836-22.2267-2.9212-44.6839-12.0997-64.8852
		c-7.6907-17.0179-19.2479-32.7569-34.9483-43.2299c-4.5285-3.0095-9.3854-5.5442-14.4666-7.491
		c-5.0811,1.9468-9.938,4.4815-14.4666,7.491c-15.7003,10.473-27.2575,26.212-34.9482,43.2299
		c-9.1786,20.2013-13.1833,42.6585-12.0998,64.8852c-0.9332-1.9341-1.868-3.8672-2.8072-5.7974v-0.0001
		c-9.9575-20.4727-20.227-40.7646-30.2551-61.1423c-5.3674-27.7131-1.9329-61.4513,7.5024-87.4219
		c10.2408-28.2164,29.3072-53.3634,53.9007-70.9122C783.9495,295.8615,795.1292,289.8509,806.8334,284.7593z M284.7593,806.8334
		c5.0916-11.7043,11.1022-22.8839,18.4767-33.1738c17.5488-24.5935,42.6958-43.6599,70.9122-53.9007
		c25.9706-9.4353,59.7088-12.8698,87.4219-7.5024c20.3777,10.0281,40.6696,20.2976,61.1423,30.2551h0.0001
		c1.9301,0.9391,3.8632,1.874,5.7974,2.8072c-22.2267-1.0836-44.6839,2.9212-64.8852,12.0998
		c-17.0179,7.6907-32.7569,19.2479-43.2299,34.9482c-3.0095,4.5286-5.5442,9.3855-7.491,14.4666
		c1.9468,5.0812,4.4815,9.9381,7.491,14.4666c10.473,15.7004,26.212,27.2576,43.2299,34.9483
		c20.2013,9.1785,42.6585,13.1833,64.8852,12.0997c-1.9341,0.9333-3.8672,1.8681-5.7974,2.8072h-0.0001
		c-20.4727,9.9575-40.7646,20.2271-61.1423,30.2551c-27.7131,5.3674-61.4513,1.9329-87.4219-7.5024
		c-28.2164-10.2408-53.3634-29.3071-70.9122-53.9007C295.8615,829.7174,289.8509,818.5377,284.7593,806.8334z M806.8334,1328.9076
		c-11.7043-5.0916-22.8839-11.1022-33.1738-18.4767c-24.5935-17.5488-43.6599-42.6958-53.9007-70.9122
		c-9.4353-25.9706-12.8698-59.7087-7.5024-87.4219c10.0281-20.3777,20.2976-40.6696,30.2551-61.1423l0,0
		c0.9391-1.9302,1.874-3.8633,2.8072-5.7974c-1.0836,22.2267,2.9212,44.6838,12.0998,64.8851
		c7.6907,17.0181,19.2479,32.757,34.9482,43.23c4.5286,3.0095,9.3855,5.5442,14.4666,7.491
		c5.0812-1.9468,9.9381-4.4814,14.4666-7.491c15.7004-10.473,27.2576-26.2119,34.9483-43.23
		c9.1785-20.2013,13.1833-42.6584,12.0997-64.8851c0.9333,1.9341,1.8681,3.8672,2.8072,5.7974l0,0
		c9.9575,20.4728,20.2271,40.7646,30.2551,61.1423c5.3674,27.7131,1.9329,61.4513-7.5024,87.4219
		c-10.2408,28.2164-29.3071,53.3634-53.9007,70.9122C829.7174,1317.8054,818.5377,1323.816,806.8334,1328.9076z M1328.9076,806.8334
		c-5.0916,11.7043-11.1022,22.884-18.4767,33.1738c-17.5488,24.5936-42.6958,43.6599-70.9122,53.9007
		c-25.9706,9.4353-59.7087,12.8698-87.4219,7.5024c-20.3777-10.0281-40.6696-20.2976-61.1423-30.2551l0,0
		c-1.9302-0.9391-3.8633-1.8739-5.7974-2.8072c22.2267,1.0836,44.6838-2.9212,64.8851-12.0997
		c17.0181-7.6907,32.757-19.2479,43.23-34.9483c3.0095-4.5285,5.5442-9.3854,7.491-14.4666
		c-1.9468-5.0811-4.4814-9.938-7.491-14.4666c-10.473-15.7003-26.2119-27.2575-43.23-34.9482
		c-20.2013-9.1786-42.6584-13.1833-64.8851-12.0998c1.9341-0.9332,3.8672-1.868,5.7974-2.8072l0,0
		c20.4728-9.9575,40.7646-20.227,61.1423-30.2551c27.7131-5.3674,61.4513-1.9329,87.4219,7.5024
		c28.2164,10.2408,53.3634,29.3072,70.9122,53.9007C1317.8054,783.9495,1323.816,795.1292,1328.9076,806.8334z M806.8334,418.8295
		c3.9109,1.7737,7.6563,3.9305,11.1769,6.395c14.3247,9.9883,24.6666,25.0782,31.606,41.318
		c1.577,3.7124,2.9667,7.5001,4.1749,11.3441c-2.4208-4.254-5.2554-8.2622-8.4697-11.9389
		c-10.1063-11.5413-23.7773-19.6425-38.488-23.0164c-14.7107,3.3739-28.3817,11.4751-38.488,23.0164
		c-3.2144,3.6767-6.049,7.6849-8.4697,11.9389c1.2083-3.844,2.598-7.6317,4.1749-11.3441
		c6.9394-16.2398,17.2812-31.3297,31.606-41.318C799.1772,422.76,802.9226,420.6032,806.8334,418.8295z M418.8295,806.8334
		c1.7737-3.9108,3.9305-7.6563,6.395-11.1768c9.9883-14.3248,25.0782-24.6666,41.318-31.606
		c3.7124-1.577,7.5001-2.9667,11.3441-4.1749c-4.254,2.4207-8.2622,5.2554-11.9389,8.4697
		c-11.5413,10.1063-19.6425,23.7773-23.0164,38.488c3.3739,14.7107,11.4751,28.3817,23.0164,38.488
		c3.6767,3.2144,7.6849,6.049,11.9389,8.4697c-3.844-1.2083-7.6317-2.598-11.3441-4.1749
		c-16.2398-6.9394-31.3297-17.2813-41.318-31.606C422.76,814.4897,420.6032,810.7443,418.8295,806.8334z M806.8334,1194.8374
		c-3.9108-1.7737-7.6563-3.9304-11.1768-6.395c-14.3248-9.9883-24.6666-25.0782-31.606-41.318
		c-1.577-3.7124-2.9667-7.5001-4.1749-11.3441c2.4207,4.254,5.2554,8.2622,8.4697,11.939
		c10.1063,11.5413,23.7773,19.6425,38.488,23.0164c14.7107-3.3739,28.3817-11.4751,38.488-23.0164
		c3.2144-3.6768,6.049-7.6849,8.4697-11.939c-1.2083,3.844-2.598,7.6317-4.1749,11.3441
		c-6.9394,16.2397-17.2813,31.3297-31.606,41.318C814.4897,1190.907,810.7443,1193.0637,806.8334,1194.8374z M1194.8374,806.8334
		c-1.7737,3.9109-3.9304,7.6563-6.395,11.1769c-9.9883,14.3247-25.0782,24.6666-41.318,31.606
		c-3.7124,1.577-7.5001,2.9667-11.3441,4.1749c4.254-2.4208,8.2622-5.2554,11.939-8.4697
		c11.5413-10.1063,19.6425-23.7773,23.0164-38.488c-3.3739-14.7107-11.4751-28.3817-23.0164-38.488
		c-3.6768-3.2144-7.6849-6.049-11.939-8.4697c3.844,1.2083,7.6317,2.598,11.3441,4.1749
		c16.2397,6.9394,31.3297,17.2812,41.318,31.606C1190.907,799.1772,1193.0637,802.9226,1194.8374,806.8334z M806.8334,449.4061
		c12.6245,3.9258,23.9755,11.7288,32.0131,21.9375c8.5009,14.4087,15.1052,22.9807,19.7452,28.1142
		c1.4297,10.5109,1.6168,21.1924,0.5884,31.7239c-0.7368,7.4877-1.5074,15.0599-2.6931,22.5019
		c-12.0684,26.321-23.1705,53.1304-32.0674,80.7874c-7.6237,23.7244-13.4749,47.9937-17.5862,72.564
		c-4.1113-24.5703-9.9625-48.8397-17.5862-72.564c-8.8969-27.6569-19.999-54.4664-32.0674-80.7874
		c-1.1857-7.442-1.9564-15.0142-2.6931-22.5019c-1.0284-10.5314-0.8412-21.213,0.5884-31.7239
		c4.64-5.1334,11.2444-13.7055,19.7452-28.1142C782.858,461.1349,794.209,453.3318,806.8334,449.4061z M449.4061,806.8334
		c3.9258-12.6245,11.7288-23.9754,21.9375-32.013c14.4087-8.5009,22.9807-15.1052,28.1142-19.7452
		c10.5109-1.4297,21.1924-1.6168,31.7239-0.5884c7.4877,0.7368,15.0599,1.5074,22.5019,2.6931
		c26.321,12.0684,53.1304,23.1705,80.7874,32.0674c23.7244,7.6237,47.9937,13.4749,72.564,17.5862
		c-24.5703,4.1113-48.8397,9.9625-72.564,17.5862c-27.6569,8.8969-54.4664,19.999-80.7874,32.0674
		c-7.442,1.1857-15.0142,1.9564-22.5019,2.6931c-10.5314,1.0284-21.213,0.8412-31.7239-0.5884
		c-5.1334-4.64-13.7055-11.2444-28.1142-19.7452C461.1349,830.8089,453.3318,819.4579,449.4061,806.8334z M806.8334,1164.2609
		c-12.6245-3.9258-23.9754-11.7289-32.013-21.9375c-8.5009-14.4087-15.1052-22.9808-19.7452-28.1143
		c-1.4297-10.5109-1.6168-21.1924-0.5884-31.7238c0.7368-7.4878,1.5074-15.0599,2.6931-22.502
		c12.0684-26.321,23.1705-53.1304,32.0674-80.7874c7.6237-23.7244,13.4749-47.9937,17.5862-72.564
		c4.1113,24.5703,9.9625,48.8397,17.5862,72.564c8.8969,27.6569,19.999,54.4663,32.0674,80.7874
		c1.1857,7.442,1.9564,15.0142,2.6931,22.502c1.0284,10.5314,0.8412,21.2129-0.5884,31.7238
		c-4.64,5.1334-11.2444,13.7056-19.7452,28.1143C830.8089,1152.532,819.4579,1160.3351,806.8334,1164.2609z M1164.2609,806.8334
		c-3.9258,12.6245-11.7289,23.9755-21.9375,32.0131c-14.4087,8.5009-22.9808,15.1052-28.1143,19.7452
		c-10.5109,1.4297-21.1924,1.6168-31.7238,0.5884c-7.4878-0.7368-15.0599-1.5074-22.502-2.6931
		c-26.321-12.0684-53.1304-23.1705-80.7874-32.0674c-23.7244-7.6237-47.9937-13.4749-72.564-17.5862
		c24.5703-4.1113,48.8397-9.9625,72.564-17.5862c27.6569-8.8969,54.4663-19.999,80.7874-32.0674
		c7.442-1.1857,15.0142-1.9564,22.502-2.6931c10.5314-1.0284,21.2129-0.8412,31.7238,0.5884
		c5.1334,4.64,13.7056,11.2444,28.1143,19.7452C1152.532,782.858,1160.3351,794.209,1164.2609,806.8334z M808.0208,805.6461
		c-1.4384-57.1205,6.1541-114.474,23.2535-168.9976c11.9529-38.152,28.2604-74.9197,45.575-111.1888
		c17.3619-36.3573,35.7888-72.3222,52.1543-109.3189c0.8025-1.8134,1.5978-3.6306,2.389-5.4498
		c-1.5775,4.2159-3.1818,8.4229-4.8125,12.6202l-0.0001,0.0001c-15.5778,40.0553-33.3147,79.4776-49.7964,119.7435
		c-16.4526,40.1391-31.6382,81.2594-41.8704,124.1175c-9.8077,41.2462-14.5901,83.652-14.5158,126.0973
		c42.4452,0.0743,84.851-4.7081,126.0972-14.5158c42.8582-10.2323,83.9785-25.4178,124.1175-41.8705
		c40.2659-16.4816,79.6882-34.2186,119.7435-49.7964l0,0c4.1974-1.6307,8.4044-3.2351,12.6202-4.8125
		c-1.8192,0.7913-3.6364,1.5865-5.4497,2.389c-36.9968,16.3655-72.9618,34.7924-109.319,52.1543
		c-36.269,17.3145-73.0369,33.6221-111.1888,45.5749C922.4949,799.4919,865.1414,807.0845,808.0208,805.6461z M805.6461,805.6461
		c-57.1205,1.4385-114.474-6.1541-168.9976-23.2535c-38.152-11.9528-74.9197-28.2604-111.1888-45.5749
		c-36.3573-17.3619-72.3222-35.7888-109.3189-52.1543c-1.8134-0.8025-3.6306-1.5978-5.4498-2.389
		c4.2159,1.5774,8.4229,3.1818,12.6202,4.8125h0.0001c40.0553,15.5778,79.4776,33.3148,119.7435,49.7964
		c40.1391,16.4526,81.2594,31.6382,124.1175,41.8705c41.2462,9.8077,83.652,14.5901,126.0973,14.5158
		c0.0743-42.4453-4.7081-84.8511-14.5158-126.0973c-10.2323-42.8581-25.4178-83.9784-41.8705-124.1175
		c-16.4816-40.2659-34.2186-79.6881-49.7964-119.7435v-0.0001c-1.6307-4.1973-3.2351-8.4044-4.8125-12.6202
		c0.7913,1.8192,1.5865,3.6364,2.389,5.4498c16.3655,36.9967,34.7924,72.9617,52.1543,109.3189
		c17.3145,36.269,33.6221,73.0368,45.5749,111.1888C799.4919,691.1721,807.0845,748.5255,805.6461,805.6461z M805.6461,808.0208
		c1.4385,57.1206-6.1541,114.4741-23.2535,168.9976c-11.9528,38.152-28.2604,74.9198-45.5749,111.1888
		c-17.3619,36.3572-35.7888,72.3221-52.1543,109.319c-0.8025,1.8134-1.5978,3.6305-2.389,5.4497
		c1.5774-4.2158,3.1818-8.4229,4.8125-12.6202l0,0c15.5778-40.0553,33.3148-79.4777,49.7964-119.7435
		c16.4526-40.139,31.6382-81.2593,41.8705-124.1175c9.8077-41.2462,14.5901-83.652,14.5158-126.0972
		c-42.4453-0.0743-84.8511,4.7081-126.0973,14.5158c-42.8581,10.2322-83.9784,25.4178-124.1175,41.8704
		c-40.2659,16.4817-79.6881,34.2186-119.7435,49.7964l-0.0001,0.0001c-4.1973,1.6307-8.4044,3.235-12.6202,4.8125
		c1.8192-0.7913,3.6364-1.5865,5.4498-2.389c36.9967-16.3655,72.9617-34.7924,109.3189-52.1543
		c36.269-17.3145,73.0368-33.6221,111.1888-45.575C691.1721,814.1749,748.5255,806.5824,805.6461,808.0208z M808.0208,808.0208
		c57.1206-1.4384,114.4741,6.1541,168.9976,23.2535c38.152,11.9529,74.9198,28.2604,111.1888,45.575
		c36.3572,17.3619,72.3221,35.7888,109.319,52.1543c1.8134,0.8025,3.6305,1.5978,5.4497,2.389
		c-4.2158-1.5775-8.4229-3.1818-12.6202-4.8125v-0.0001c-40.0553-15.5778-79.4777-33.3147-119.7435-49.7964
		c-40.139-16.4526-81.2593-31.6382-124.1175-41.8704c-41.2462-9.8077-83.652-14.5901-126.0972-14.5158
		c-0.0743,42.4452,4.7081,84.851,14.5158,126.0972c10.2322,42.8582,25.4178,83.9785,41.8704,124.1175
		c16.4817,40.2659,34.2186,79.6882,49.7964,119.7435h0.0001c1.6307,4.1974,3.235,8.4044,4.8125,12.6202
		c-0.7913-1.8192-1.5865-3.6364-2.389-5.4497c-16.3655-36.9968-34.7924-72.9618-52.1543-109.319
		c-17.3145-36.269-33.6221-73.0369-45.575-111.1888C814.1749,922.4949,806.5824,865.1414,808.0208,808.0208z M853.2504,760.4165
		c3.6074-18.9242,9.5885-37.4354,17.6937-54.9567c14.2485-30.7742,35.0966-58.6058,61.1098-80.3954h0.0001
		c15.8347-13.2898,33.5598-24.4915,51.23-35.9993c0,0,0,0,0.0001,0c17.6487-11.4672,35.3824-23.3522,51.0656-37.9048
		c15.7208-14.5622,29.2825-32.0971,36.9-52.4154c4.89-13.0298,7.0474-27.2722,5.7397-41.1376
		c0.7861-0.9903,1.5471-2.0007,2.2748-3.0358c10.1699-14.4849,14.2603-33.0418,11.0652-50.3778
		c-1.8872-10.1704-6.1339-19.7208-11.4058-28.4936c-5.3389-8.8925-11.6757-17.0857-18.0669-25.1535
		c-6.3821-8.0604-12.7878-16.0883-18.2871-24.7096c0,0,0,0,0-0.0001c-5.4287-8.5151-9.9739-17.6735-12.3375-27.4565
		c-4.3771-18.0754-0.9186-38.0101,9.3635-53.6105c8.0234-12.1766,20.1418-21.6182,33.8739-26.6694
		c-6.6139,3.0835-13.4978,7.4373-17.771,18.1093c15.0374,5.1692,41.2708-4.2523,59.7686-54.9281l0.0012-0.001
		c-56.7831,12.214-76.9337,35.8704-65.9536,48.9968c12.3419-18.8686,27.2126-21.162,38.0488-19.9369
		c-3.2128,3.3043-7.9231,4.9819-12.8876,7.2088c-14.3186,4.7857-27.1012,14.3198-35.5779,26.8883
		c-10.5415,15.6348-14.2881,35.7597-10.0299,54.2178c2.3077,9.9796,6.812,19.3296,12.2162,27.9918
		c5.4669,8.7675,11.8229,16.9148,18.1184,25.0374c6.2948,8.1266,12.4978,16.3193,17.651,25.1234
		c5.0763,8.6813,9.125,18.0227,10.8179,27.8251c2.9011,16.6773-1.2537,34.4851-11.0919,48.1725
		c-0.1047,0.1459-0.2137,0.2885-0.3198,0.4335c-0.9351-6.2885-2.6049-12.4642-5.0919-18.3735c0,0,0,0,0-0.0001
		c-4.3242-10.222-11.1017-19.4726-19.9164-26.3259c-8.8248-6.8576-19.696-11.1415-30.9127-11.6617
		c-11.2307-0.5133-22.6418,2.9239-31.463,9.9561c-8.8259,7.0529-14.717,17.6983-15.5499,28.9901
		c-0.5334,7.5728,1.1849,15.1986,4.687,21.8563c3.502,6.6531,8.7056,12.3128,14.8643,16.5139c0,0,0,0,0,0
		c12.3333,8.3719,27.9939,10.7588,42.4519,8.1626c0,0,0,0,0,0c13.3884-2.3856,25.9377-8.9188,35.6543-18.3433
		c0.0681,10.9912-2.1045,22.1154-6.043,32.4167c0,0,0,0,0,0.0001c-7.2781,19.0168-20.429,35.5157-35.6672,49.4277
		c-15.2479,13.897-32.7505,25.3201-50.4477,36.5862c-17.7433,11.2682-35.8403,22.4645-52.4229,36.0434c0,0,0,0-0.0001,0
		c-27.262,22.3677-49.2354,51.0097-64.3887,82.8747c-6.1645,12.952-11.21,26.4539-15.0386,40.2986
		c1.7422-23.3282,5.0514-46.542,9.9936-69.4277c8.879-41.2891,22.8805-81.7022,38.2767-121.764
		c15.4618-40.1767,32.412-80.1052,47.3514-121.0439c8.6207-23.5951,16.4844-47.5846,22.947-71.9719
		c35.3182-35.7952,61.0135-80.7367,73.8588-129.0246c13.3682-50.2746,12.7653-103.9787-1.5444-153.6288
		c-3.6263-12.7331-8.5742-25.8025-18.1818-35.2481c-4.8176-4.7194-10.7964-8.3545-17.3693-9.9166
		c-6.5798-1.563-13.7411-0.9012-19.666,2.3162c0,0,0,0,0,0c-6.789,3.7026-11.5397,10.7631-12.5213,18.3293
		c-1.1246,5.4153-2.5406,15.0597-0.0137,21.0823c3.6669,8.7394,11.034,11.8604,18.2775,6.3452
		c7.2437-5.5157,11.9926-17.2318,9.1342-23.3404c-2.8591-6.1079-9.9842-4.6926-13.264,0.3724
		c-2.6785,4.1364-2.3154,13.1641-7.9807,12.4655c-4.4726-0.551-5.1225-13.2884-5.198-18.6278
		c1.5826-6.622,6.1237-12.518,12.1158-15.5872c5.6993-2.9327,12.5332-3.358,18.7149-1.7415
		c6.1909,1.6182,11.7712,5.2353,16.2495,9.8228c8.9847,9.1687,13.3404,21.9229,16.689,34.5572
		c12.9341,49.4288,12.1292,102.2355-2.1226,150.9313c-11.9983,41.0123-33.5297,79.0973-62.1409,110.5169
		c2.6253-11.4668,4.9101-23.0196,6.7817-34.6606c6.9418-43.073,7.8665-87.5518-0.9429-130.512
		c-7.7638-38.1047-23.8746-75.4325-50.9808-103.7756c-13.5789-14.157-29.8552-25.8251-47.9543-33.4845
		c-6.5019-2.751-13.2382-4.962-20.108-6.5896c-15.8043-9.3415-33.0133-16.7076-50.743-21.2217
		c-17.7297,4.5142-34.9387,11.8802-50.743,21.2217c-6.8698,1.6276-13.606,3.8387-20.108,6.5896
		c-18.0991,7.6594-34.3754,19.3275-47.9543,33.4845c-27.1061,28.3431-43.217,65.6709-50.9807,103.7756
		c-8.8094,42.9601-7.8848,87.439-0.9429,130.512c1.8716,11.641,4.1564,23.1938,6.7817,34.6606
		c-28.6112-31.4196-50.1426-69.5046-62.1409-110.5169c-14.2518-48.6959-15.0566-101.5025-2.1226-150.9313
		c3.3488-12.6343,7.7044-25.3885,16.6891-34.5572c4.4783-4.5875,10.0587-8.2046,16.2495-9.8228
		c6.1818-1.6165,13.0157-1.1912,18.7149,1.7415c5.9922,3.0692,10.5332,8.9652,12.1158,15.5872
		c-0.0755,5.3394-0.7255,18.0768-5.1981,18.6278c-5.6653,0.6986-5.3021-8.3291-7.9807-12.4655
		c-3.2797-5.065-10.4048-6.4803-13.264-0.3724c-2.8585,6.1086,1.8906,17.8247,9.1342,23.3404
		c7.2435,5.5152,14.6107,2.3942,18.2775-6.3452c2.527-6.0226,1.111-15.667-0.0136-21.0823
		c-0.9816-7.5662-5.7323-14.6266-12.5213-18.3293c0,0,0,0,0,0c-5.9249-3.2174-13.0862-3.8792-19.666-2.3162
		c-6.5729,1.5621-12.5518,5.1972-17.3694,9.9166c-9.6076,9.4455-14.5554,22.5149-18.1818,35.2481
		c-14.3096,49.6502-14.9126,103.3543-1.5443,153.6288c12.8452,48.2878,38.5405,93.2293,73.8587,129.0246
		c6.4626,24.3873,14.3264,48.3768,22.947,71.9719c14.9394,40.9387,31.8896,80.8672,47.3514,121.0439
		c15.3962,40.0618,29.3976,80.4749,38.2766,121.764c4.9422,22.8857,8.2515,46.0994,9.9937,69.4277
		c-3.8286-13.8447-8.8741-27.3466-15.0386-40.2986c-15.1533-31.865-37.1267-60.507-64.3887-82.8747c-0.0001,0-0.0001,0-0.0001,0
		c-16.5826-13.5789-34.6796-24.7751-52.423-36.0434c-17.6971-11.2661-35.1998-22.6891-50.4476-36.5862
		c-15.2383-13.912-28.3892-30.4109-35.6673-49.4277c0-0.0001,0-0.0001,0-0.0001c-3.9385-10.3013-6.111-21.4255-6.0428-32.4167
		c9.7165,9.4245,22.2658,15.9577,35.6542,18.3433c0.0001,0,0.0001,0,0.0001,0c14.458,2.5962,30.1185,0.2093,42.4519-8.1626
		c0,0,0,0,0,0c6.1586-4.2011,11.3623-9.8608,14.8642-16.5139c3.5021-6.6577,5.2205-14.2834,4.687-21.8563
		c-0.8329-11.2918-6.724-21.9372-15.5499-28.9901c-8.8212-7.0322-20.2324-10.4694-31.463-9.9561
		c-11.2166,0.5202-22.0879,4.8041-30.9128,11.6617c-8.8146,6.8533-15.5922,16.1039-19.9164,26.3259c0,0.0001,0,0.0001,0,0.0001
		c-2.487,5.9093-4.1568,12.0851-5.0919,18.3735c-0.106-0.145-0.215-0.2876-0.3198-0.4335
		c-9.8383-13.6874-13.993-31.4952-11.092-48.1725c1.6929-9.8024,5.7417-19.1438,10.8179-27.8251
		c5.1532-8.804,11.3562-16.9968,17.6509-25.1234c6.2957-8.1226,12.6515-16.2699,18.1184-25.0374
		c5.4042-8.6621,9.9085-18.0121,12.2162-27.9918c4.2582-18.4581,0.5117-38.583-10.0299-54.2178
		c-8.4767-12.5685-21.2592-22.1026-35.5778-26.8883c-4.9645-2.2269-9.6748-3.9045-12.8876-7.2088
		c10.8362-1.2251,25.7069,1.0683,38.0488,19.9369c10.9802-13.1264-9.1705-36.7828-65.9536-48.9968l0.0011,0.001
		c18.4978,50.6758,44.7314,60.0973,59.7686,54.9281c-4.2732-10.672-11.157-15.0258-17.771-18.1093
		c13.7321,5.0512,25.8505,14.4928,33.874,26.6694c10.2821,15.6004,13.7406,35.535,9.3635,53.6105
		c-2.3636,9.783-6.9088,18.9414-12.3375,27.4565c0,0.0001,0,0.0001,0,0.0001c-5.4993,8.6213-11.9051,16.6492-18.2872,24.7096
		c-6.3912,8.0678-12.728,16.2611-18.0668,25.1535c-5.2719,8.7728-9.5186,18.3232-11.4058,28.4936
		c-3.195,17.336,0.8953,35.8929,11.0652,50.3778c0.7276,1.0351,1.4886,2.0456,2.2748,3.0358
		c-1.3077,13.8654,0.8496,28.1078,5.7397,41.1376c7.6175,20.3183,21.1792,37.8532,36.9,52.4154
		c15.6832,14.5526,33.4169,26.4377,51.0656,37.9048c0.0001,0,0.0001,0,0.0001,0c17.6703,11.5079,35.3953,22.7095,51.23,35.9993l0,0
		c26.0132,21.7896,46.8614,49.6212,61.1099,80.3954c8.1052,17.5214,14.0863,36.0325,17.6937,54.9567
		c-18.9242-3.6074-37.4354-9.5885-54.9567-17.6937c-30.7742-14.2485-58.6058-35.0967-80.3954-61.1099l0,0
		c-13.2898-15.8347-24.4915-33.5598-35.9993-51.23c0,0,0,0,0-0.0001c-11.4672-17.6487-23.3522-35.3824-37.9048-51.0656
		c-14.5622-15.7208-32.0971-29.2825-52.4154-36.9c-13.0298-4.8901-27.2722-7.0474-41.1376-5.7397
		c-0.9903-0.7862-2.0007-1.5472-3.0358-2.2748c-14.4849-10.17-33.0418-14.2603-50.3778-11.0652
		c-10.1704,1.8872-19.7208,6.1339-28.4936,11.4058c-8.8925,5.3388-17.0857,11.6756-25.1535,18.0668
		c-8.0604,6.3821-16.0883,12.7879-24.7096,18.2872c0,0,0,0-0.0001,0c-8.5151,5.4287-17.6735,9.9739-27.4565,12.3375
		c-18.0754,4.3771-38.0101,0.9186-53.6105-9.3635c-12.1766-8.0235-21.6182-20.1418-26.6694-33.874
		c3.0835,6.614,7.4373,13.4978,18.1093,17.771c5.1692-15.0372-4.2523-41.2708-54.9281-59.7686l-0.001-0.0011
		c12.214,56.7831,35.8704,76.9337,48.9968,65.9536c-18.8686-12.3419-21.162-27.2126-19.9369-38.0488
		c3.3043,3.2128,4.9819,7.9232,7.2088,12.8876c4.7857,14.3186,14.3198,27.1011,26.8883,35.5778
		c15.6348,10.5416,35.7597,14.2881,54.2178,10.0299c9.9796-2.3077,19.3296-6.812,27.9918-12.2162
		c8.7675-5.4669,16.9148-11.8228,25.0374-18.1184c8.1266-6.2947,16.3193-12.4977,25.1234-17.6509
		c8.6813-5.0762,18.0227-9.1251,27.8251-10.8179c16.6773-2.9011,34.4851,1.2537,48.1725,11.092
		c0.1459,0.1047,0.2885,0.2137,0.4335,0.3198c-6.2885,0.9351-12.4642,2.6049-18.3735,5.0919c0,0,0,0-0.0001,0
		c-10.222,4.3242-19.4726,11.1017-26.3259,19.9164c-6.8576,8.8249-11.1415,19.6962-11.6617,30.9128
		c-0.5133,11.2307,2.9239,22.6418,9.9561,31.463c7.0529,8.8259,17.6983,14.717,28.9901,15.5499
		c7.5728,0.5334,15.1986-1.1849,21.8563-4.687c6.6531-3.5019,12.3128-8.7056,16.5139-14.8642c0,0,0,0,0,0
		c8.3719-12.3334,10.7588-27.9939,8.1626-42.4519c0,0,0,0,0-0.0001c-2.3856-13.3884-8.9188-25.9377-18.3433-35.6542
		c10.9912-0.0682,22.1154,2.1044,32.4167,6.0428c0,0,0,0,0.0001,0c19.0168,7.2781,35.5157,20.429,49.4277,35.6673
		c13.897,15.2479,25.3201,32.7505,36.5862,50.4476c11.2682,17.7434,22.4645,35.8403,36.0434,52.423c0,0,0,0,0,0.0001
		c22.3677,27.262,51.0097,49.2354,82.8747,64.3887c12.952,6.1644,26.4539,11.21,40.2986,15.0386
		c-23.3282-1.7422-46.542-5.0515-69.4277-9.9937c-41.2891-8.879-81.7022-22.8804-121.764-38.2766
		c-40.1767-15.4618-80.1052-32.412-121.0439-47.3514c-23.5951-8.6207-47.5846-16.4844-71.9719-22.947
		c-35.7952-35.3182-80.7367-61.0135-129.0246-73.8587c-50.2746-13.3683-103.9787-12.7653-153.6288,1.5443
		c-12.7331,3.6264-25.8025,8.5742-35.2481,18.1818c-4.7194,4.8176-8.3545,10.7965-9.9166,17.3694
		c-1.563,6.5798-0.9012,13.7411,2.3162,19.666c0,0,0,0,0,0c3.7026,6.789,10.7631,11.5397,18.3293,12.5213
		c5.4153,1.1246,15.0597,2.5406,21.0823,0.0136c8.7394-3.6668,11.8604-11.0339,6.3452-18.2775
		c-5.5157-7.2436-17.2318-11.9926-23.3404-9.1342c-6.1079,2.8592-4.6926,9.9843,0.3724,13.264
		c4.1364,2.6785,13.1641,2.3154,12.4655,7.9807c-0.551,4.4726-13.2884,5.1226-18.6278,5.1981
		c-6.622-1.5826-12.518-6.1237-15.5872-12.1158c-2.9327-5.6992-3.358-12.5331-1.7415-18.7149
		c1.6182-6.1908,5.2353-11.7712,9.8228-16.2495c9.1687-8.9847,21.9229-13.3403,34.5572-16.6891
		c49.4288-12.934,102.2355-12.1292,150.9313,2.1226c41.0123,11.9983,79.0973,33.5297,110.5169,62.1409
		c-11.4668-2.6253-23.0196-4.9101-34.6606-6.7817c-43.073-6.9418-87.5518-7.8665-130.512,0.9429
		c-38.1047,7.7637-75.4325,23.8746-103.7756,50.9807c-14.157,13.5789-25.8251,29.8553-33.4845,47.9543
		c-2.751,6.502-4.962,13.2382-6.5896,20.108c-9.3415,15.8044-16.7076,33.0134-21.2217,50.743
		c4.5142,17.7297,11.8802,34.9387,21.2217,50.743c1.6276,6.8698,3.8387,13.6061,6.5896,20.108
		c7.6594,18.0991,19.3275,34.3755,33.4845,47.9543c28.3431,27.1062,65.6709,43.217,103.7756,50.9808
		c42.9601,8.8094,87.439,7.8847,130.512,0.9429c11.641-1.8716,23.1938-4.1564,34.6606-6.7817
		c-31.4196,28.6112-69.5046,50.1426-110.5169,62.1409c-48.6959,14.2517-101.5025,15.0566-150.9313,2.1226
		c-12.6343-3.3486-25.3885-7.7043-34.5572-16.689c-4.5875-4.4783-8.2046-10.0587-9.8228-16.2495
		c-1.6165-6.1817-1.1912-13.0156,1.7415-18.7149c3.0692-5.9921,8.9652-10.5332,15.5872-12.1158
		c5.3394,0.0755,18.0768,0.7254,18.6278,5.198c0.6986,5.6653-8.3291,5.3022-12.4655,7.9807
		c-5.065,3.2798-6.4803,10.4048-0.3724,13.264c6.1086,2.8585,17.8247-1.8905,23.3404-9.1342
		c5.5152-7.2435,2.3942-14.6106-6.3452-18.2775c-6.0226-2.527-15.667-1.111-21.0823,0.0137
		c-7.5662,0.9816-14.6266,5.7323-18.3293,12.5213c0,0,0,0,0,0c-3.2174,5.9249-3.8792,13.0862-2.3162,19.666
		c1.5621,6.5729,5.1972,12.5518,9.9166,17.3693c9.4455,9.6076,22.5149,14.5555,35.2481,18.1818
		c49.6502,14.3097,103.3543,14.9126,153.6288,1.5444c48.2878-12.8452,93.2293-38.5406,129.0246-73.8588
		c24.3873-6.4626,48.3768-14.3264,71.9719-22.947c40.9387-14.9395,80.8672-31.8896,121.0439-47.3514
		c40.0618-15.3962,80.4749-29.3976,121.764-38.2767c22.8857-4.9422,46.0994-8.2514,69.4277-9.9936
		c-13.8447,3.8286-27.3466,8.8741-40.2986,15.0386c-31.865,15.1533-60.507,37.1267-82.8747,64.3887c0,0.0001,0,0.0001,0,0.0001
		c-13.5789,16.5826-24.7751,34.6796-36.0434,52.4229c-11.2661,17.6971-22.6891,35.1998-36.5862,50.4477
		c-13.912,15.2383-30.4109,28.3892-49.4277,35.6672c-0.0001,0-0.0001,0-0.0001,0c-10.3013,3.9385-21.4255,6.1111-32.4167,6.043
		c9.4245-9.7166,15.9577-22.2659,18.3433-35.6543c0,0,0,0,0,0c2.5962-14.458,0.2093-30.1186-8.1626-42.4519c0,0,0,0,0,0
		c-4.2011-6.1586-9.8608-11.3623-16.5139-14.8643c-6.6577-3.5021-14.2834-5.2205-21.8563-4.687
		c-11.2918,0.8329-21.9372,6.724-28.9901,15.5499c-7.0322,8.8212-10.4694,20.2323-9.9561,31.463
		c0.5202,11.2167,4.8041,22.0879,11.6617,30.9127c6.8533,8.8147,16.1039,15.5922,26.3259,19.9164c0.0001,0,0.0001,0,0.0001,0
		c5.9093,2.4871,12.0851,4.1569,18.3735,5.0919c-0.145,0.1061-0.2876,0.2151-0.4335,0.3198
		c-13.6874,9.8383-31.4952,13.993-48.1725,11.0919c-9.8024-1.6929-19.1438-5.7416-27.8251-10.8179
		c-8.804-5.1532-16.9968-11.3562-25.1234-17.651c-8.1226-6.2955-16.2699-12.6515-25.0374-18.1184
		c-8.6621-5.4042-18.0121-9.9084-27.9918-12.2162c-18.4581-4.2582-38.583-0.5116-54.2178,10.0299
		c-12.5685,8.4767-22.1026,21.2593-26.8883,35.5779c-2.2269,4.9645-3.9045,9.6748-7.2088,12.8876
		c-1.2251-10.8362,1.0683-25.7069,19.9369-38.0488c-13.1264-10.9801-36.7828,9.1705-48.9968,65.9536l0.001-0.0012
		c50.6758-18.4978,60.0973-44.7312,54.9281-59.7686c-10.672,4.2732-15.0258,11.1571-18.1093,17.771
		c5.0512-13.7321,14.4928-25.8505,26.6694-33.8739c15.6004-10.2821,35.535-13.7406,53.6105-9.3635
		c9.783,2.3636,18.9414,6.9088,27.4565,12.3375c0.0001,0,0.0001,0,0.0001,0c8.6213,5.4993,16.6492,11.905,24.7096,18.2871
		c8.0678,6.3912,16.2611,12.728,25.1535,18.0669c8.7728,5.2719,18.3232,9.5186,28.4936,11.4058
		c17.336,3.1951,35.8929-0.8953,50.3778-11.0652c1.0351-0.7277,2.0456-1.4886,3.0358-2.2748
		c13.8654,1.3076,28.1078-0.8497,41.1376-5.7397c20.3183-7.6176,37.8532-21.1792,52.4154-36.9
		c14.5526-15.6832,26.4377-33.4168,37.9048-51.0656c0-0.0001,0-0.0001,0-0.0001c11.5079-17.6703,22.7095-35.3954,35.9993-51.23
		v-0.0001c21.7896-26.0132,49.6212-46.8613,80.3954-61.1098c17.5214-8.1052,36.0325-14.0863,54.9567-17.6937
		c-3.6074,18.9243-9.5885,37.4354-17.6937,54.9568c-14.2485,30.7742-35.0967,58.6057-61.1099,80.3954l0,0
		c-15.8347,13.2898-33.5598,24.4914-51.23,35.9993c0,0,0,0-0.0001,0c-17.6487,11.4672-35.3824,23.3523-51.0656,37.9049
		c-15.7208,14.5621-29.2825,32.097-36.9,52.4154c-4.8901,13.0298-7.0474,27.2722-5.7397,41.1376
		c-0.7862,0.9902-1.5472,2.0007-2.2748,3.0358c-10.17,14.485-14.2603,33.0419-11.0652,50.3778
		c1.8872,10.1705,6.1339,19.7208,11.4058,28.4937c5.3388,8.8925,11.6756,17.0857,18.0668,25.1536
		c6.3821,8.0603,12.7879,16.0883,18.2872,24.7096c0,0,0,0,0,0c5.4287,8.5151,9.9739,17.6735,12.3375,27.4565
		c4.3771,18.0754,0.9186,38.01-9.3635,53.6105c-8.0235,12.1765-20.1418,21.6182-33.874,26.6693
		c6.614-3.0834,13.4978-7.4373,17.771-18.1093c-15.0372-5.1691-41.2708,4.2523-59.7686,54.9281l-0.0011,0.0011
		c56.7831-12.214,76.9337-35.8705,65.9536-48.9968c-12.3419,18.8685-27.2126,21.162-38.0488,19.9369
		c3.2128-3.3043,7.9232-4.9819,12.8876-7.2089c14.3186-4.7858,27.1011-14.3198,35.5778-26.8883
		c10.5416-15.6348,14.2881-35.7598,10.0299-54.2178c-2.3077-9.9796-6.812-19.3296-12.2162-27.9918
		c-5.4669-8.7675-11.8228-16.9148-18.1184-25.0374c-6.2947-8.1266-12.4977-16.3193-17.6509-25.1233
		c-5.0762-8.6814-9.1251-18.0228-10.8179-27.8252c-2.9011-16.6772,1.2537-34.4851,11.092-48.1725
		c0.1047-0.1459,0.2137-0.2885,0.3198-0.4335c0.9351,6.2885,2.6049,12.4642,5.0919,18.3735c0,0,0,0,0,0.0001
		c4.3242,10.2219,11.1017,19.4727,19.9164,26.3259c8.8249,6.8575,19.6962,11.1415,30.9128,11.6616
		c11.2307,0.5133,22.6418-2.9238,31.463-9.9561c8.8259-7.0529,14.717-17.6982,15.5499-28.9901
		c0.5334-7.5728-1.1849-15.1985-4.687-21.8562c-3.5019-6.6532-8.7056-12.3129-14.8642-16.5139c0,0,0,0,0,0
		c-12.3334-8.3719-27.9939-10.7589-42.4519-8.1626c0,0,0,0-0.0001,0c-13.3884,2.3856-25.9377,8.9187-35.6542,18.3433
		c-0.0682-10.9912,2.1044-22.1155,6.0428-32.4167c0,0,0,0,0-0.0001c7.2781-19.0168,20.429-35.5156,35.6673-49.4277
		c15.2479-13.897,32.7505-25.3201,50.4476-36.5862c17.7434-11.2682,35.8403-22.4645,52.423-36.0433c0,0,0,0,0.0001,0
		c27.262-22.3678,49.2354-51.0098,64.3887-82.8748c6.1644-12.9519,11.21-26.4538,15.0386-40.2986
		c-1.7422,23.3282-5.0515,46.5421-9.9937,69.4277c-8.879,41.2891-22.8804,81.7022-38.2766,121.7639
		c-15.4618,40.1768-32.412,80.1052-47.3514,121.0439c-8.6207,23.595-16.4844,47.5845-22.947,71.9718
		c-35.3182,35.7953-61.0135,80.7368-73.8587,129.0247c-13.3683,50.2745-12.7653,103.9786,1.5443,153.6288
		c3.6264,12.7332,8.5742,25.8026,18.1818,35.248c4.8176,4.7195,10.7965,8.3546,17.3694,9.9166
		c6.5798,1.563,13.7411,0.9012,19.666-2.3162c0,0,0,0,0,0c6.789-3.7026,11.5397-10.7631,12.5213-18.3292
		c1.1246-5.4153,2.5406-15.0597,0.0136-21.0823c-3.6668-8.7394-11.0339-11.8605-18.2775-6.3452
		c-7.2436,5.5156-11.9926,17.2318-9.1342,23.3403c2.8592,6.1079,9.9843,4.6926,13.264-0.3723
		c2.6785-4.1365,2.3154-13.1642,7.9807-12.4656c4.4726,0.551,5.1226,13.2885,5.1981,18.6278
		c-1.5826,6.6219-6.1237,12.5181-12.1158,15.5872c-5.6992,2.9327-12.5331,3.358-18.7149,1.7416
		c-6.1908-1.6183-11.7712-5.2354-16.2495-9.8229c-8.9847-9.1686-13.3403-21.9229-16.6891-34.5571
		c-12.934-49.4288-12.1292-102.2355,2.1226-150.9314c11.9983-41.0123,33.5297-79.0973,62.1409-110.5168
		c-2.6253,11.4668-4.9101,23.0197-6.7817,34.6606c-6.9418,43.073-7.8665,87.5519,0.9429,130.512
		c7.7637,38.1047,23.8746,75.4325,50.9807,103.7756c13.5789,14.157,29.8553,25.8251,47.9543,33.4845
		c6.502,2.751,13.2382,4.962,20.108,6.5896c15.8044,9.3416,33.0134,16.7076,50.743,21.2218
		c17.7297-4.5142,34.9387-11.8802,50.743-21.2218c6.8698-1.6276,13.6061-3.8386,20.108-6.5896
		c18.0991-7.6594,34.3755-19.3275,47.9543-33.4845c27.1062-28.3431,43.217-65.6709,50.9808-103.7756
		c8.8094-42.9601,7.8847-87.439,0.9429-130.512c-1.8716-11.641-4.1564-23.1938-6.7817-34.6606
		c28.6112,31.4196,50.1426,69.5045,62.1409,110.5168c14.2517,48.6959,15.0566,101.5026,2.1226,150.9314
		c-3.3486,12.6343-7.7043,25.3885-16.689,34.5571c-4.4783,4.5875-10.0587,8.2046-16.2495,9.8229
		c-6.1817,1.6165-13.0156,1.1912-18.7149-1.7416c-5.9921-3.0691-10.5332-8.9652-12.1158-15.5872
		c0.0755-5.3394,0.7254-18.0768,5.198-18.6278c5.6653-0.6986,5.3022,8.3291,7.9807,12.4656
		c3.2798,5.0649,10.4048,6.4802,13.264,0.3723c2.8585-6.1085-1.8905-17.8247-9.1342-23.3403
		c-7.2435-5.5153-14.6106-2.3942-18.2775,6.3452c-2.527,6.0226-1.111,15.667,0.0137,21.0823
		c0.9816,7.5662,5.7323,14.6266,12.5213,18.3292c0,0,0,0,0,0c5.9249,3.2174,13.0862,3.8792,19.666,2.3162
		c6.5729-1.562,12.5518-5.1971,17.3693-9.9166c9.6076-9.4454,14.5555-22.5149,18.1818-35.248
		c14.3097-49.6501,14.9126-103.3542,1.5444-153.6288c-12.8452-48.2878-38.5406-93.2294-73.8588-129.0247
		c-6.4626-24.3873-14.3264-48.3768-22.947-71.9718c-14.9395-40.9387-31.8896-80.8672-47.3514-121.0439
		c-15.3962-40.0617-29.3976-80.4749-38.2767-121.7639c-4.9422-22.8857-8.2514-46.0995-9.9936-69.4277
		c3.8286,13.8448,8.8741,27.3467,15.0386,40.2986c15.1533,31.865,37.1267,60.507,64.3887,82.8748c0.0001,0,0.0001,0,0.0001,0
		c16.5826,13.5789,34.6796,24.7751,52.4229,36.0433c17.6971,11.2661,35.1998,22.6892,50.4477,36.5862
		c15.2383,13.9121,28.3892,30.4109,35.6672,49.4277c0,0.0001,0,0.0001,0,0.0001c3.9385,10.3013,6.1111,21.4255,6.043,32.4167
		c-9.7166-9.4246-22.2659-15.9576-35.6543-18.3433c0,0,0,0,0,0c-14.458-2.5963-30.1186-0.2094-42.4519,8.1626c0,0,0,0,0,0
		c-6.1586,4.201-11.3623,9.8607-14.8643,16.5139c-3.5021,6.6577-5.2205,14.2834-4.687,21.8562
		c0.8329,11.2919,6.724,21.9373,15.5499,28.9901c8.8212,7.0322,20.2323,10.4694,31.463,9.9561
		c11.2167-0.5201,22.0879-4.8041,30.9127-11.6616c8.8147-6.8533,15.5922-16.104,19.9164-26.3259c0-0.0001,0-0.0001,0-0.0001
		c2.4871-5.9093,4.1569-12.0851,5.0919-18.3735c0.1061,0.145,0.2151,0.2876,0.3198,0.4335
		c9.8383,13.6874,13.993,31.4952,11.0919,48.1725c-1.6929,9.8024-5.7416,19.1438-10.8179,27.8252
		c-5.1532,8.804-11.3562,16.9967-17.651,25.1233c-6.2955,8.1226-12.6515,16.2699-18.1184,25.0374
		c-5.4042,8.6622-9.9084,18.0122-12.2162,27.9918c-4.2582,18.458-0.5116,38.583,10.0299,54.2178
		c8.4767,12.5685,21.2593,22.1025,35.5779,26.8883c4.9645,2.2269,9.6748,3.9045,12.8876,7.2089
		c-10.8362,1.2251-25.7069-1.0684-38.0488-19.9369c-10.9801,13.1263,9.1705,36.7828,65.9536,48.9968l-0.0012-0.0011
		c-18.4978-50.6758-44.7312-60.0972-59.7686-54.9281c4.2732,10.672,11.1571,15.0259,17.771,18.1093
		c-13.7321-5.0511-25.8505-14.4928-33.8739-26.6693c-10.2821-15.6005-13.7406-35.535-9.3635-53.6105
		c2.3636-9.7831,6.9088-18.9414,12.3375-27.4565c0,0,0,0,0,0c5.4993-8.6213,11.905-16.6493,18.2871-24.7096
		c6.3912-8.0679,12.728-16.2611,18.0669-25.1536c5.2719-8.7728,9.5186-18.3231,11.4058-28.4937
		c3.1951-17.3359-0.8953-35.8928-11.0652-50.3778c-0.7277-1.035-1.4886-2.0455-2.2748-3.0358
		c1.3076-13.8654-0.8497-28.1078-5.7397-41.1376c-7.6176-20.3184-21.1792-37.8533-36.9-52.4154
		c-15.6832-14.5526-33.4168-26.4377-51.0656-37.9049c-0.0001,0-0.0001,0-0.0001,0c-17.6703-11.5079-35.3954-22.7095-51.23-35.9993
		h-0.0001c-26.0132-21.7897-46.8613-49.6212-61.1098-80.3954c-8.1052-17.5214-14.0863-36.0325-17.6937-54.9568
		c18.9243,3.6074,37.4354,9.5885,54.9568,17.6937c30.7742,14.2485,58.6057,35.0966,80.3954,61.1098v0.0001
		c13.2898,15.8347,24.4914,33.5598,35.9993,51.23c0,0,0,0,0,0.0001c11.4672,17.6487,23.3523,35.3824,37.9049,51.0656
		c14.5621,15.7208,32.097,29.2825,52.4154,36.9c13.0298,4.89,27.2722,7.0474,41.1376,5.7397
		c0.9902,0.7861,2.0007,1.5471,3.0358,2.2748c14.485,10.1699,33.0419,14.2603,50.3778,11.0652
		c10.1705-1.8872,19.7208-6.1339,28.4937-11.4058c8.8925-5.3389,17.0857-11.6757,25.1536-18.0669
		c8.0603-6.3821,16.0883-12.7878,24.7096-18.2871c0,0,0,0,0,0c8.5151-5.4287,17.6735-9.9739,27.4565-12.3375
		c18.0754-4.3771,38.01-0.9186,53.6105,9.3635c12.1765,8.0234,21.6182,20.1418,26.6693,33.8739
		c-3.0834-6.6139-7.4373-13.4978-18.1093-17.771c-5.1691,15.0374,4.2523,41.2708,54.9281,59.7686l0.0011,0.0012
		c-12.214-56.7831-35.8705-76.9337-48.9968-65.9536c18.8685,12.3419,21.162,27.2126,19.9369,38.0488
		c-3.3043-3.2128-4.9819-7.9231-7.2089-12.8876c-4.7858-14.3186-14.3198-27.1012-26.8883-35.5779
		c-15.6348-10.5415-35.7598-14.2881-54.2178-10.0299c-9.9796,2.3077-19.3296,6.812-27.9918,12.2162
		c-8.7675,5.4669-16.9148,11.8229-25.0374,18.1184c-8.1266,6.2948-16.3193,12.4978-25.1233,17.651
		c-8.6814,5.0763-18.0228,9.125-27.8252,10.8179c-16.6772,2.9011-34.4851-1.2537-48.1725-11.0919
		c-0.1459-0.1047-0.2885-0.2137-0.4335-0.3198c6.2885-0.9351,12.4642-2.6049,18.3735-5.0919c0,0,0,0,0.0001,0
		c10.2219-4.3242,19.4727-11.1017,26.3259-19.9164c6.8575-8.8248,11.1415-19.696,11.6616-30.9127
		c0.5133-11.2307-2.9238-22.6418-9.9561-31.463c-7.0529-8.8259-17.6982-14.717-28.9901-15.5499
		c-7.5728-0.5334-15.1985,1.1849-21.8562,4.687c-6.6532,3.502-12.3129,8.7056-16.5139,14.8643c0,0,0,0,0,0
		c-8.3719,12.3333-10.7589,27.9939-8.1626,42.4519c0,0,0,0,0,0c2.3856,13.3884,8.9187,25.9377,18.3433,35.6543
		c-10.9912,0.0681-22.1155-2.1045-32.4167-6.043c0,0,0,0-0.0001,0c-19.0168-7.2781-35.5156-20.429-49.4277-35.6672
		c-13.897-15.2479-25.3201-32.7505-36.5862-50.4477c-11.2682-17.7433-22.4645-35.8403-36.0433-52.4229c0,0,0,0,0-0.0001
		c-22.3678-27.262-51.0098-49.2354-82.8748-64.3887c-12.9519-6.1645-26.4538-11.21-40.2986-15.0386
		c23.3282,1.7422,46.5421,5.0514,69.4277,9.9936c41.2891,8.879,81.7022,22.8805,121.7639,38.2767
		c40.1768,15.4618,80.1052,32.412,121.0439,47.3514c23.595,8.6207,47.5845,16.4844,71.9718,22.947
		c35.7953,35.3182,80.7368,61.0135,129.0247,73.8588c50.2745,13.3682,103.9786,12.7653,153.6288-1.5444
		c12.7332-3.6263,25.8026-8.5742,35.248-18.1818c4.7195-4.8176,8.3546-10.7964,9.9166-17.3693
		c1.563-6.5798,0.9012-13.7411-2.3162-19.666c0,0,0,0,0,0c-3.7026-6.789-10.7631-11.5397-18.3292-12.5213
		c-5.4153-1.1246-15.0597-2.5406-21.0823-0.0137c-8.7394,3.6669-11.8605,11.034-6.3452,18.2775
		c5.5156,7.2437,17.2318,11.9926,23.3403,9.1342c6.1079-2.8591,4.6926-9.9842-0.3723-13.264
		c-4.1365-2.6785-13.1642-2.3154-12.4656-7.9807c0.551-4.4726,13.2885-5.1225,18.6278-5.198
		c6.6219,1.5826,12.5181,6.1237,15.5872,12.1158c2.9327,5.6993,3.358,12.5332,1.7416,18.7149
		c-1.6183,6.1909-5.2354,11.7712-9.8229,16.2495c-9.1686,8.9847-21.9229,13.3404-34.5571,16.689
		c-49.4288,12.9341-102.2355,12.1292-150.9314-2.1226c-41.0123-11.9983-79.0973-33.5297-110.5168-62.1409
		c11.4668,2.6253,23.0197,4.9101,34.6606,6.7817c43.073,6.9418,87.5519,7.8665,130.512-0.9429
		c38.1047-7.7638,75.4325-23.8746,103.7756-50.9808c14.157-13.5789,25.8251-29.8552,33.4845-47.9543
		c2.751-6.5019,4.962-13.2382,6.5896-20.108c9.3416-15.8043,16.7076-33.0133,21.2218-50.743
		c-4.5142-17.7297-11.8802-34.9387-21.2218-50.743c-1.6276-6.8698-3.8386-13.606-6.5896-20.108
		c-7.6594-18.0991-19.3275-34.3754-33.4845-47.9543c-28.3431-27.1061-65.6709-43.217-103.7756-50.9807
		c-42.9601-8.8094-87.439-7.8848-130.512-0.9429c-11.641,1.8716-23.1938,4.1564-34.6606,6.7817
		c31.4196-28.6112,69.5045-50.1426,110.5168-62.1409c48.6959-14.2518,101.5026-15.0566,150.9314-2.1226
		c12.6343,3.3488,25.3885,7.7044,34.5571,16.6891c4.5875,4.4783,8.2046,10.0587,9.8229,16.2495
		c1.6165,6.1818,1.1912,13.0157-1.7416,18.7149c-3.0691,5.9922-8.9652,10.5332-15.5872,12.1158
		c-5.3394-0.0755-18.0768-0.7255-18.6278-5.1981c-0.6986-5.6653,8.3291-5.3021,12.4656-7.9807
		c5.0649-3.2797,6.4802-10.4048,0.3723-13.264c-6.1085-2.8585-17.8247,1.8906-23.3403,9.1342
		c-5.5153,7.2435-2.3942,14.6107,6.3452,18.2775c6.0226,2.527,15.667,1.111,21.0823-0.0136
		c7.5662-0.9816,14.6266-5.7323,18.3292-12.5213c0,0,0,0,0,0c3.2174-5.9249,3.8792-13.0862,2.3162-19.666
		c-1.562-6.5729-5.1971-12.5518-9.9166-17.3694c-9.4454-9.6076-22.5149-14.5554-35.248-18.1818
		c-49.6501-14.3096-103.3542-14.9126-153.6288-1.5443c-48.2878,12.8452-93.2294,38.5405-129.0247,73.8587
		c-24.3873,6.4626-48.3768,14.3264-71.9718,22.947c-40.9387,14.9394-80.8672,31.8896-121.0439,47.3514
		c-40.0617,15.3962-80.4749,29.3976-121.7639,38.2766c-22.8857,4.9422-46.0995,8.2515-69.4277,9.9937
		c13.8448-3.8286,27.3467-8.8741,40.2986-15.0386c31.865-15.1533,60.507-37.1267,82.8748-64.3887c0-0.0001,0-0.0001,0-0.0001
		c13.5789-16.5826,24.7751-34.6796,36.0433-52.423c11.2661-17.6971,22.6892-35.1998,36.5862-50.4476
		c13.9121-15.2383,30.4109-28.3892,49.4277-35.6673c0.0001,0,0.0001,0,0.0001,0c10.3013-3.9385,21.4255-6.111,32.4167-6.0428
		c-9.4246,9.7165-15.9576,22.2658-18.3433,35.6542c0,0.0001,0,0.0001,0,0.0001c-2.5963,14.458-0.2094,30.1185,8.1626,42.4519
		c0,0,0,0,0,0c4.201,6.1586,9.8607,11.3623,16.5139,14.8642c6.6577,3.5021,14.2834,5.2205,21.8562,4.687
		c11.2919-0.8329,21.9373-6.724,28.9901-15.5499c7.0322-8.8212,10.4694-20.2324,9.9561-31.463
		c-0.5201-11.2166-4.8041-22.0879-11.6616-30.9128c-6.8533-8.8146-16.104-15.5922-26.3259-19.9164c-0.0001,0-0.0001,0-0.0001,0
		c-5.9093-2.487-12.0851-4.1568-18.3735-5.0919c0.145-0.106,0.2876-0.215,0.4335-0.3198
		c13.6874-9.8383,31.4952-13.993,48.1725-11.092c9.8024,1.6929,19.1438,5.7417,27.8252,10.8179
		c8.804,5.1532,16.9967,11.3562,25.1233,17.6509c8.1226,6.2957,16.2699,12.6515,25.0374,18.1184
		c8.6622,5.4042,18.0122,9.9085,27.9918,12.2162c18.458,4.2582,38.583,0.5117,54.2178-10.0299
		c12.5685-8.4767,22.1025-21.2592,26.8883-35.5778c2.2269-4.9645,3.9045-9.6748,7.2089-12.8876
		c1.2251,10.8362-1.0684,25.7069-19.9369,38.0488c13.1263,10.9802,36.7828-9.1705,48.9968-65.9536l-0.0011,0.0011
		c-50.6758,18.4978-60.0972,44.7314-54.9281,59.7686c10.672-4.2732,15.0259-11.157,18.1093-17.771
		c-5.0511,13.7321-14.4928,25.8505-26.6693,33.874c-15.6005,10.2821-35.535,13.7406-53.6105,9.3635
		c-9.7831-2.3636-18.9414-6.9088-27.4565-12.3375c0,0,0,0,0,0c-8.6213-5.4993-16.6493-11.9051-24.7096-18.2872
		c-8.0679-6.3912-16.2611-12.728-25.1536-18.0668c-8.7728-5.2719-18.3231-9.5186-28.4937-11.4058
		c-17.3359-3.195-35.8928,0.8953-50.3778,11.0652c-1.035,0.7276-2.0455,1.4886-3.0358,2.2748
		c-13.8654-1.3077-28.1078,0.8496-41.1376,5.7397c-20.3184,7.6175-37.8533,21.1792-52.4154,36.9
		c-14.5526,15.6832-26.4377,33.4169-37.9049,51.0656c0,0.0001,0,0.0001,0,0.0001c-11.5079,17.6703-22.7095,35.3953-35.9993,51.23
		l0,0c-21.7897,26.0132-49.6212,46.8614-80.3954,61.1099C890.6858,750.828,872.1746,756.8091,853.2504,760.4165z"/>
	<path d="M1039.6285,132.9405c0.776-12.4234-11.4142-29.5991-52.3509-30.9729c20.3774,39.174,41.8016,48.3637,49.2365,37.0105
		c-16.3378-4.5604-21.0105-15.0393-22.2872-23.3834C1021.6136,119.3913,1023.8302,131.9055,1039.6285,132.9405z"/>
	<path d="M132.9405,574.0383c-12.4234-0.7759-29.5991,11.4142-30.9729,52.351c39.174-20.3774,48.3637-41.8016,37.0105-49.2365
		c-4.5604,16.3376-15.0393,21.0104-23.3834,22.2872C119.3913,592.0533,131.9055,589.8367,132.9405,574.0383z"/>
	<path d="M574.0383,1480.7264c-0.7759,12.4235,11.4142,29.5991,52.351,30.9729c-20.3774-39.174-41.8016-48.3636-49.2365-37.0105
		c16.3376,4.5604,21.0104,15.0393,22.2872,23.3833C592.0533,1494.2756,589.8367,1481.7614,574.0383,1480.7264z"/>
	<path d="M1480.7264,1039.6285c12.4235,0.776,29.5991-11.4142,30.9729-52.3509c-39.174,20.3774-48.3636,41.8016-37.0105,49.2365
		c4.5604-16.3378,15.0393-21.0105,23.3833-22.2872C1494.2756,1021.6136,1481.7614,1023.8302,1480.7264,1039.6285z"/>
	<path d="M1480.7264,574.0383c12.4235-0.7759,29.5991,11.4142,30.9729,52.351c-39.174-20.3774-48.3636-41.8016-37.0105-49.2365
		c4.5604,16.3376,15.0393,21.0104,23.3833,22.2872C1494.2756,592.0533,1481.7614,589.8367,1480.7264,574.0383z"/>
	<path d="M574.0383,132.9405c-0.7759-12.4234,11.4142-29.5991,52.351-30.9729c-20.3774,39.174-41.8016,48.3637-49.2365,37.0105
		c16.3376-4.5604,21.0104-15.0393,22.2872-23.3834C592.0533,119.3913,589.8367,131.9055,574.0383,132.9405z"/>
	<path d="M132.9405,1039.6285c-12.4234,0.776-29.5991-11.4142-30.9729-52.3509c39.174,20.3774,48.3637,41.8016,37.0105,49.2365
		c-4.5604-16.3378-15.0393-21.0105-23.3834-22.2872C119.3913,1021.6136,131.9055,1023.8302,132.9405,1039.6285z"/>
	<path d="M1039.6285,1480.7264c0.776,12.4235-11.4142,29.5991-52.3509,30.9729c20.3774-39.174,41.8016-48.3636,49.2365-37.0105
		c-16.3378,4.5604-21.0105,15.0393-22.2872,23.3833C1021.6136,1494.2756,1023.8302,1481.7614,1039.6285,1480.7264z"/>
	<polygon points="987.2766,101.9674 987.2776,101.9675 987.2776,101.9674 	"/>
	<polygon points="101.9674,626.3904 101.9675,626.3893 101.9674,626.3893 	"/>
	<polygon points="626.3904,1511.6995 626.3893,1511.6993 626.3893,1511.6995 	"/>
	<polygon points="1511.6995,987.2766 1511.6993,987.2776 1511.6995,987.2776 	"/>
	<polygon points="1511.6995,626.3904 1511.6993,626.3893 1511.6995,626.3893 	"/>
	<polygon points="626.3904,101.9674 626.3893,101.9675 626.3893,101.9674 	"/>
	<polygon points="101.9674,987.2766 101.9675,987.2776 101.9674,987.2776 	"/>
	<polygon points="987.2766,1511.6995 987.2776,1511.6993 987.2776,1511.6995 	"/>
	<path d="M1056.9613,135.9422c2.7933-16.731,12.7148-22.4936,20.8751-24.6516c-2.9879,7.7492-15.1952,11.2866-14.5397,27.1062
		c12.4353-0.5524,28.2153-14.5032,25.2179-55.3548l0,0C1051.735,107.4786,1044.8806,129.7594,1056.9613,135.9422z"/>
	<path d="M135.9422,556.7056c-16.731-2.7933-22.4936-12.7148-24.6516-20.8751c7.7492,2.9879,11.2866,15.1952,27.1062,14.5397
		c-0.5524-12.4354-14.5032-28.2153-55.3548-25.218v0.0001C107.4786,561.9319,129.7594,568.7863,135.9422,556.7056z"/>
	<path d="M556.7056,1477.7247c-2.7933,16.731-12.7148,22.4935-20.8751,24.6516c2.9879-7.7491,15.1952-11.2865,14.5397-27.1062
		c-12.4354,0.5524-28.2153,14.5032-25.218,55.3547h0.0001C561.9319,1506.1882,568.7863,1483.9075,556.7056,1477.7247z"/>
	<path d="M1477.7247,1056.9613c16.731,2.7933,22.4935,12.7148,24.6516,20.8751c-7.7491-2.9879-11.2865-15.1952-27.1062-14.5397
		c0.5524,12.4353,14.5032,28.2153,55.3547,25.2179l0,0C1506.1882,1051.735,1483.9075,1044.8806,1477.7247,1056.9613z"/>
	<path d="M1477.7247,556.7056c16.731-2.7933,22.4935-12.7148,24.6516-20.8751c-7.7491,2.9879-11.2865,15.1952-27.1062,14.5397
		c0.5524-12.4354,14.5032-28.2153,55.3547-25.218v0.0001C1506.1882,561.9319,1483.9075,568.7863,1477.7247,556.7056z"/>
	<path d="M556.7056,135.9422c-2.7933-16.731-12.7148-22.4936-20.8751-24.6516c2.9879,7.7492,15.1952,11.2866,14.5397,27.1062
		c-12.4354-0.5524-28.2153-14.5032-25.218-55.3548h0.0001C561.9319,107.4786,568.7863,129.7594,556.7056,135.9422z"/>
	<path d="M135.9422,1056.9613c-16.731,2.7933-22.4936,12.7148-24.6516,20.8751c7.7492-2.9879,11.2866-15.1952,27.1062-14.5397
		c-0.5524,12.4353-14.5032,28.2153-55.3548,25.2179l0,0C107.4786,1051.735,129.7594,1044.8806,135.9422,1056.9613z"/>
	<path d="M1056.9613,1477.7247c2.7933,16.731,12.7148,22.4935,20.8751,24.6516c-2.9879-7.7491-15.1952-11.2865-14.5397-27.1062
		c12.4353,0.5524,28.2153,14.5032,25.2179,55.3547l0,0C1051.735,1506.1882,1044.8806,1483.9075,1056.9613,1477.7247z"/>
</g>
</svg>
