<?xml version="1.0" encoding="utf-8"?>

<!DOCTYPE svg PUBLIC "-//W3C//DTD SVG 1.1//EN" "http://www.w3.org/Graphics/SVG/1.1/DTD/svg11.dtd">
<svg version="1.1" id="Layer_1" xmlns="http://www.w3.org/2000/svg" xmlns:xlink="http://www.w3.org/1999/xlink" x="0px" y="0px"
	 viewBox="0 0 1630.969 1630.969" enable-background="new 0 0 1630.969 1630.969" xml:space="preserve">
<g>
	<path d="M913.056,663.8272c4.9617,4.4228,14.7813,4.2115,24.4836-14.8672c-20.7386-3.0591-29.318,4.162-26.2836,11.4119
		c5.5306-6.3052,10.9045-5.1155,14.6375-3.0026C922.676,659.6541,917.0088,656.6289,913.056,663.8272z"/>
	<path d="M777.2401,639.2531c6.6359-0.381,13.4299-7.4739,6.7998-27.8252c-16.8275,12.5013-17.7879,23.6739-10.5159,26.6547
		c-0.5477-8.3692,4.0935-11.3278,8.2272-12.4734C781.0916,629.4999,774.9451,631.3681,777.2401,639.2531z"/>
	<path d="M663.8272,717.913c4.4228-4.9617,4.2115-14.7813-14.8672-24.4836c-3.0591,20.7385,4.162,29.3179,11.4119,26.2836
		c-6.3052-5.5307-5.1155-10.9045-3.0026-14.6376C659.6541,708.293,656.6289,713.9602,663.8272,717.913z"/>
	<path d="M639.2531,853.7289c-0.381-6.6358-7.4739-13.4299-27.8252-6.7998c12.5013,16.8275,23.6739,17.788,26.6547,10.5159
		c-8.3692,0.5477-11.3278-4.0935-12.4734-8.2271C629.4999,849.8774,631.3681,856.0239,639.2531,853.7289z"/>
	<path d="M717.913,967.1418c-4.9617-4.4229-14.7813-4.2115-24.4836,14.8672c20.7385,3.059,29.3179-4.162,26.2836-11.4119
		c-5.5307,6.3052-10.9045,5.1154-14.6376,3.0026C708.293,971.3149,713.9602,974.3401,717.913,967.1418z"/>
	<path d="M853.7289,991.7159c-6.6358,0.381-13.4299,7.4739-6.7998,27.8253c16.8275-12.5013,17.788-23.674,10.5159-26.6547
		c0.5477,8.3692-4.0935,11.3278-8.2271,12.4734C849.8774,1001.4691,856.0239,999.6009,853.7289,991.7159z"/>
	<path d="M967.1418,913.056c-4.4229,4.9617-4.2115,14.7813,14.8672,24.4836c3.059-20.7386-4.162-29.318-11.4119-26.2836
		c6.3052,5.5306,5.1154,10.9045,3.0026,14.6375C971.3149,922.676,974.3401,917.0088,967.1418,913.056z"/>
	<path d="M991.7159,777.2401c0.381,6.6359,7.4739,13.4299,27.8253,6.7998c-12.5013-16.8275-23.674-17.7879-26.6547-10.5159
		c8.3692-0.5477,11.3278,4.0935,12.4734,8.2272C1001.4691,781.0916,999.6009,774.9451,991.7159,777.2401z"/>
	<path d="M967.1418,717.913c-4.4229-4.9617-4.2115-14.7813,14.8672-24.4836c3.059,20.7385-4.162,29.3179-11.4119,26.2836
		c6.3052-5.5307,5.1154-10.9045,3.0026-14.6376C971.3149,708.293,974.3401,713.9602,967.1418,717.913z"/>
	<path d="M853.7289,639.2531c-6.6358-0.381-13.4299-7.4739-6.7998-27.8252c16.8275,12.5013,17.788,23.6739,10.5159,26.6547
		c0.5477-8.3692-4.0935-11.3278-8.2271-12.4734C849.8774,629.4999,856.0239,631.3681,853.7289,639.2531z"/>
	<path d="M717.913,663.8272c-4.9617,4.4228-14.7813,4.2115-24.4836-14.8672c20.7385-3.0591,29.3179,4.162,26.2836,11.4119
		c-5.5307-6.3052-10.9045-5.1155-14.6376-3.0026C708.293,659.6541,713.9602,656.6289,717.913,663.8272z"/>
	<path d="M639.2531,777.2401c-0.381,6.6359-7.4739,13.4299-27.8252,6.7998c12.5013-16.8275,23.6739-17.7879,26.6547-10.5159
		c-8.3692-0.5477-11.3278,4.0935-12.4734,8.2272C629.4999,781.0916,631.3681,774.9451,639.2531,777.2401z"/>
	<path d="M663.8272,913.056c4.4228,4.9617,4.2115,14.7813-14.8672,24.4836c-3.0591-20.7386,4.162-29.318,11.4119-26.2836
		c-6.3052,5.5306-5.1155,10.9045-3.0026,14.6375C659.6541,922.676,656.6289,917.0088,663.8272,913.056z"/>
	<path d="M777.2401,991.7159c6.6359,0.381,13.4299,7.4739,6.7998,27.8253c-16.8275-12.5013-17.7879-23.674-10.5159-26.6547
		c-0.5477,8.3692,4.0935,11.3278,8.2272,12.4734C781.0916,1001.4691,774.9451,999.6009,777.2401,991.7159z"/>
	<path d="M913.056,967.1418c4.9617-4.4229,14.7813-4.2115,24.4836,14.8672c-20.7386,3.059-29.318-4.162-26.2836-11.4119
		c5.5306,6.3052,10.9045,5.1154,14.6375,3.0026C922.676,971.3149,917.0088,974.3401,913.056,967.1418z"/>
	<path d="M991.7159,853.7289c0.381-6.6358,7.4739-13.4299,27.8253-6.7998c-12.5013,16.8275-23.674,17.788-26.6547,10.5159
		c8.3692,0.5477,11.3278-4.0935,12.4734-8.2271C1001.4691,849.8774,999.6009,856.0239,991.7159,853.7289z"/>
	<polygon points="937.5397,648.9599 937.5396,648.96 937.5397,648.96 	"/>
	<polygon points="784.0399,611.4278 784.0399,611.4279 784.04,611.4278 	"/>
	<polygon points="648.9599,693.4294 648.96,693.4294 648.96,693.4293 	"/>
	<polygon points="611.4278,846.9291 611.4279,846.9291 611.4278,846.9291 	"/>
	<polygon points="693.4294,982.0091 693.4294,982.009 693.4293,982.009 	"/>
	<polygon points="846.9291,1019.5412 846.9291,1019.5411 846.9291,1019.5412 	"/>
	<polygon points="982.0091,937.5397 982.009,937.5396 982.009,937.5397 	"/>
	<polygon points="1019.5412,784.0399 1019.5411,784.0399 1019.5412,784.04 	"/>
	<polygon points="982.0091,693.4294 982.009,693.4294 982.009,693.4293 	"/>
	<polygon points="846.9291,611.4278 846.9291,611.4279 846.9291,611.4278 	"/>
	<polygon points="693.4294,648.9599 693.4294,648.96 693.4293,648.96 	"/>
	<polygon points="611.4278,784.0399 611.4279,784.0399 611.4278,784.04 	"/>
	<polygon points="648.9599,937.5397 648.96,937.5396 648.96,937.5397 	"/>
	<polygon points="784.0399,1019.5412 784.0399,1019.5411 784.04,1019.5412 	"/>
	<polygon points="937.5397,982.0091 937.5396,982.009 937.5397,982.009 	"/>
	<polygon points="1019.5412,846.9291 1019.5411,846.9291 1019.5412,846.9291 	"/>
	<path d="M1234.3286,641.9936c-2.972,5.502-7.0313,11.688-3.4429,21.4932c7.5831-2.6251,14.8789-10.8235,14.9296-26.2512
		c-10.9448-10.8732-21.9009-11.5114-29.1191-8.0056C1221.092,638.7007,1228.3365,640.2047,1234.3286,641.9936z"/>
	<path d="M1234.3286,988.9755c-5.9921,1.7889-13.2366,3.2928-17.6324,12.7634c7.2183,3.5059,18.1743,2.8677,29.1191-8.0056
		c-0.0507-15.4277-7.3464-23.626-14.9296-26.2511C1227.2974,977.2874,1231.3566,983.4734,1234.3286,988.9755z"/>
	<path d="M988.9755,1234.3286c-5.502-2.972-11.6881-7.0313-21.4932-3.4429c2.6251,7.5831,10.8234,14.8789,26.2511,14.9296
		c10.8733-10.9448,11.5115-21.9009,8.0056-29.1191C992.2683,1221.092,990.7643,1228.3365,988.9755,1234.3286z"/>
	<path d="M641.9936,1234.3286c-1.7889-5.9921-3.2929-13.2366-12.7635-17.6324c-3.5059,7.2183-2.8677,18.1743,8.0056,29.1191
		c15.4277-0.0507,23.6261-7.3464,26.2512-14.9296C653.6816,1227.2974,647.4956,1231.3566,641.9936,1234.3286z"/>
	<path d="M396.6404,988.9755c2.9721-5.502,7.0312-11.6881,3.443-21.4932c-7.5832,2.6251-14.879,10.8234-14.9296,26.2511
		c10.9448,10.8733,21.9009,11.5115,29.1192,8.0056C409.8769,992.2683,402.6324,990.7643,396.6404,988.9755z"/>
	<path d="M396.6404,641.9936c5.9921-1.7889,13.2365-3.2929,17.6325-12.7635c-7.2183-3.5059-18.1744-2.8677-29.1192,8.0056
		c0.0506,15.4277,7.3465,23.6261,14.9296,26.2512C403.6716,653.6816,399.6125,647.4956,396.6404,641.9936z"/>
	<path d="M641.9936,396.6404c5.502,2.9721,11.688,7.0312,21.4932,3.443c-2.6251-7.5832-10.8235-14.879-26.2512-14.9296
		c-10.8732,10.9448-11.5114,21.9009-8.0056,29.1192C638.7007,409.8769,640.2047,402.6324,641.9936,396.6404z"/>
	<path d="M988.9755,396.6404c1.7889,5.9921,3.2928,13.2365,12.7634,17.6325c3.5059-7.2183,2.8677-18.1744-8.0056-29.1192
		c-15.4277,0.0506-23.626,7.3465-26.2511,14.9296C977.2874,403.6716,983.4734,399.6125,988.9755,396.6404z"/>
	<path d="M1215.7606,649.6848c-0.5209,7.7241,2.6959,12.449,8.4503,13.3866c-1.0413-7.6975,0.2527-13.5375,2.6719-17.9936
		c-4.8615-1.4403-9.906-4.6548-14.6127-10.8341C1208.8641,638.9756,1209.9305,644.5912,1215.7606,649.6848z"/>
	<path d="M1215.7606,981.2843c-5.8301,5.0934-6.8965,10.709-3.4905,15.441c4.7067-6.1793,9.7512-9.3938,14.6127-10.8341
		c-2.4192-4.456-3.7131-10.296-2.6719-17.9936C1218.4565,968.8353,1215.2397,973.5602,1215.7606,981.2843z"/>
	<path d="M981.2843,1215.7606c-7.7241-0.5209-12.449,2.6959-13.3867,8.4503c7.6976-1.0413,13.5376,0.2527,17.9936,2.6719
		c1.4403-4.8615,4.6548-9.906,10.8341-14.6127C991.9933,1208.8641,986.3777,1209.9305,981.2843,1215.7606z"/>
	<path d="M649.6848,1215.7606c-5.0935-5.8301-10.7091-6.8965-15.4411-3.4905c6.1793,4.7067,9.3938,9.7512,10.8341,14.6127
		c4.4561-2.4192,10.2961-3.7131,17.9936-2.6719C662.1337,1218.4565,657.4089,1215.2397,649.6848,1215.7606z"/>
	<path d="M415.2084,981.2843c0.5208-7.7241-2.696-12.449-8.4503-13.3867c1.0412,7.6976-0.2527,13.5376-2.6718,17.9936
		c4.8615,1.4403,9.9059,4.6548,14.6127,10.8341C422.1049,991.9933,421.0385,986.3777,415.2084,981.2843z"/>
	<path d="M415.2084,649.6848c5.8301-5.0935,6.8964-10.7091,3.4905-15.4411c-4.7067,6.1793-9.7512,9.3938-14.6127,10.8341
		c2.4191,4.4561,3.7131,10.2961,2.6718,17.9936C412.5125,662.1337,415.7293,657.4089,415.2084,649.6848z"/>
	<path d="M649.6848,415.2084c7.7241,0.5208,12.449-2.696,13.3866-8.4503c-7.6975,1.0412-13.5375-0.2527-17.9936-2.6718
		c-1.4403,4.8615-4.6548,9.9059-10.8341,14.6127C638.9756,422.1049,644.5912,421.0385,649.6848,415.2084z"/>
	<path d="M981.2843,415.2084c5.0934,5.8301,10.709,6.8964,15.441,3.4905c-6.1793-4.7067-9.3938-9.7512-10.8341-14.6127
		c-4.456,2.4191-10.296,3.7131-17.9936,2.6718C968.8353,412.5125,973.5602,415.7293,981.2843,415.2084z"/>
	<path d="M1373.5596,815.4845c0.0321-0.0528,0.0643-0.1056,0.0966-0.1583c12.1067-19.8438,32.7817-34.4055,55.657-39.1058
		c17.8529-3.6706,36.9078-1.3049,53.5085,6.3674c-8.5706-3.1203-18.5026-5.3563-31.7112,0.2989
		c8.7216,17.8586,40.2336,32.7172,101.3698,4.2781l0.002,0.0001c-60.9801-39.3905-99.6971-36.2921-101.594-14.9865
		c27.5841-5.7683,42.7538,5.3475,51.2482,16.0074c-5.7599,0.0809-11.4055-2.5995-17.7614-5.019
		c-16.8845-8.4252-36.6082-11.2963-55.2081-7.6798c-23.1348,4.5014-44.2327,18.9767-56.7826,39.0535
		c-0.1957,0.3135-0.3893,0.6281-0.5809,0.9438c0.1917,0.3158,0.3853,0.6304,0.5809,0.9439
		c12.5499,20.0768,33.6478,34.5521,56.7826,39.0535c18.6,3.6164,38.3236,0.7454,55.2081-7.6798
		c6.3558-2.4195,12.0015-5.0999,17.7614-5.019c-8.4944,10.6599-23.6641,21.7758-51.2482,16.0074
		c1.8969,21.3056,40.6139,24.404,101.594-14.9865l-0.002,0.0001c-61.1361-28.4391-92.6482-13.5806-101.3698,4.2781
		c13.2086,5.6553,23.1406,3.4193,31.7112,0.299c-16.6007,7.6723-35.6556,10.038-53.5085,6.3674
		c-22.8752-4.7003-43.5503-19.2621-55.657-39.1058C1373.6239,815.5901,1373.5917,815.5374,1373.5596,815.4845z M1210.1031,1210.1031
		c0.0601-0.0146,0.1201-0.0292,0.1803-0.0437c22.5923-5.4709,47.5085-1.1481,67.0073,11.7035
		c15.2195,10.0284,27.0205,25.175,33.3339,42.3387c-3.854-8.2667-9.2958-16.8708-22.6346-22.2119
		c-6.4608,18.795,5.3149,51.5841,68.6543,74.7045l0.0012,0.0013c-15.2661-70.9728-44.8341-96.1589-61.2407-82.4348
		c23.5837,15.426,26.4502,34.0127,24.9189,47.5569c-4.13-4.0156-6.2268-9.9031-9.0103-16.1082
		c-5.9817-17.8967-17.8982-33.8735-33.6075-44.4685c-19.5419-13.1758-44.6958-17.8586-67.7664-12.5363
		c-0.3601,0.0833-0.7195,0.1688-1.0782,0.2566c-0.0878,0.3588-0.1733,0.7181-0.2566,1.0782
		c-5.3224,23.0706-0.6395,48.2245,12.5363,67.7664c10.595,15.7094,26.5718,27.6259,44.4685,33.6075
		c6.2051,2.7834,12.0925,4.8802,16.1082,9.0103c-13.5442,1.5313-32.1309-1.3352-47.5569-24.9189
		c-13.7241,16.4066,11.462,45.9746,82.4348,61.2407l-0.0013-0.0012c-23.1204-63.3394-55.9094-75.1151-74.7045-68.6543
		c5.3411,13.3389,13.9452,18.7806,22.2119,22.6346c-17.1637-6.3134-32.3103-18.1144-42.3387-33.3339
		c-12.8516-19.4988-17.1744-44.415-11.7035-67.0073C1210.074,1210.2233,1210.0885,1210.1632,1210.1031,1210.1031z
		 M815.4845,1373.5596c0.0529,0.0321,0.1057,0.0643,0.1584,0.0966c19.8437,12.1067,34.4055,32.7817,39.1058,55.657
		c3.6706,17.8529,1.3049,36.9078-6.3674,53.5085c3.1203-8.5706,5.3563-18.5026-0.299-31.7112
		c-17.8586,8.7216-32.7172,40.2336-4.2781,101.3698l-0.0001,0.002c39.3904-60.9801,36.2921-99.6971,14.9865-101.594
		c5.7683,27.5841-5.3476,42.7538-16.0074,51.2482c-0.0809-5.7599,2.5995-11.4055,5.019-17.7614
		c8.4252-16.8845,11.2962-36.6082,7.6798-55.2081c-4.5015-23.1348-18.9767-44.2327-39.0535-56.7826
		c-0.3135-0.1957-0.6281-0.3893-0.9439-0.5809c-0.3157,0.1917-0.6304,0.3853-0.9438,0.5809
		c-20.0768,12.5499-34.5521,33.6478-39.0535,56.7826c-3.6165,18.6-0.7454,38.3236,7.6798,55.2081
		c2.4195,6.3558,5.0999,12.0015,5.019,17.7614c-10.6599-8.4944-21.7758-23.6641-16.0074-51.2482
		c-21.3056,1.8969-24.4041,40.6139,14.9865,101.594l-0.0001-0.002c28.4391-61.1361,13.5806-92.6482-4.2781-101.3698
		c-5.6552,13.2086-3.4192,23.1406-0.2989,31.7112c-7.6723-16.6007-10.038-35.6556-6.3674-53.5085
		c4.7003-22.8752,19.262-43.5503,39.1058-55.657C815.3789,1373.6239,815.4317,1373.5917,815.4845,1373.5596z M420.8658,1210.1031
		c0.0146,0.0601,0.0292,0.1201,0.0437,0.1803c5.4709,22.5923,1.1481,47.5085-11.7035,67.0073
		c-10.0285,15.2195-25.1751,27.0205-42.3388,33.3339c8.2668-3.854,16.8708-9.2958,22.2119-22.6346
		c-18.795-6.4608-51.584,5.3149-74.7043,68.6543l-0.0014,0.0012c70.9727-15.2661,96.1589-44.8341,82.4348-61.2407
		c-15.4261,23.5837-34.0128,26.4502-47.5569,24.9189c4.0157-4.13,9.9031-6.2268,16.1082-9.0103
		c17.8967-5.9817,33.8735-17.8982,44.4685-33.6075c13.1758-19.5419,17.8587-44.6958,12.5363-67.7664
		c-0.0833-0.3601-0.1688-0.7195-0.2566-1.0782c-0.3588-0.0878-0.7182-0.1733-1.0782-0.2566
		c-23.0706-5.3224-48.2246-0.6395-67.7664,12.5363c-15.7093,10.595-27.6259,26.5718-33.6075,44.4685
		c-2.7834,6.2051-4.8802,12.0925-9.0103,16.1082c-1.5312-13.5442,1.3353-32.1309,24.919-47.5569
		c-16.4066-13.7241-45.9746,11.462-61.2408,82.4348l0.0013-0.0013c63.3393-23.1204,75.1151-55.9094,68.6542-74.7045
		c-13.3388,5.3411-18.7806,13.9452-22.6346,22.2119c6.3134-17.1637,18.1144-32.3103,33.3339-42.3387
		c19.4988-12.8516,44.415-17.1744,67.0074-11.7035C420.7457,1210.074,420.8058,1210.0885,420.8658,1210.1031z M257.4094,815.4845
		c-0.0321,0.0529-0.0643,0.1057-0.0965,0.1584c-12.1068,19.8437-32.7818,34.4055-55.657,39.1058
		c-17.853,3.6706-36.9078,1.3049-53.5087-6.3674c8.5707,3.1203,18.5026,5.3563,31.7113-0.299
		c-8.7215-17.8586-40.2337-32.7172-101.3698-4.2781l-0.0019-0.0001c60.9801,39.3904,99.6972,36.2921,101.594,14.9865
		c-27.5841,5.7683-42.7538-5.3476-51.2482-16.0074c5.7599-0.0809,11.4055,2.5995,17.7614,5.019
		c16.8846,8.4252,36.6082,11.2962,55.2081,7.6798c23.1348-4.5015,44.2327-18.9767,56.7826-39.0535
		c0.1957-0.3135,0.3894-0.6281,0.581-0.9439c-0.1916-0.3157-0.3853-0.6304-0.581-0.9438
		c-12.5499-20.0768-33.6477-34.5521-56.7826-39.0535c-18.5999-3.6165-38.3235-0.7454-55.2081,7.6798
		c-6.3559,2.4195-12.0015,5.0999-17.7614,5.019c8.4944-10.6599,23.6641-21.7758,51.2482-16.0074
		c-1.8968-21.3056-40.6139-24.4041-101.594,14.9865l0.0019-0.0001c61.1362,28.4391,92.6483,13.5806,101.3698-4.2781
		c-13.2086-5.6552-23.1406-3.4192-31.7113-0.2989c16.6008-7.6723,35.6557-10.038,53.5087-6.3674
		c22.8752,4.7003,43.5502,19.262,55.657,39.1058C257.3452,815.3789,257.3773,815.4317,257.4094,815.4845z M420.8658,420.8658
		c-0.0601,0.0146-0.1201,0.0292-0.1802,0.0437c-22.5924,5.4709-47.5086,1.1481-67.0074-11.7035
		c-15.2195-10.0285-27.0204-25.1751-33.3339-42.3388c3.854,8.2668,9.2958,16.8708,22.6346,22.2119
		c6.4609-18.795-5.3149-51.584-68.6542-74.7043l-0.0013-0.0014c15.2662,70.9727,44.8342,96.1589,61.2408,82.4348
		c-23.5837-15.4261-26.4502-34.0128-24.919-47.5569c4.1301,4.0157,6.2268,9.9031,9.0103,16.1082
		c5.9816,17.8967,17.8983,33.8735,33.6075,44.4685c19.5418,13.1758,44.6958,17.8587,67.7664,12.5363
		c0.36-0.0833,0.7195-0.1688,1.0782-0.2566c0.0878-0.3588,0.1733-0.7182,0.2566-1.0782
		c5.3224-23.0706,0.6395-48.2246-12.5363-67.7664c-10.5949-15.7093-26.5717-27.6259-44.4685-33.6075
		c-6.2051-2.7834-12.0925-4.8802-16.1082-9.0103c13.5442-1.5312,32.1309,1.3353,47.5569,24.919
		c13.7241-16.4066-11.4621-45.9746-82.4348-61.2408l0.0014,0.0013c23.1203,63.3393,55.9094,75.1151,74.7043,68.6542
		c-5.341-13.3388-13.9451-18.7806-22.2119-22.6346c17.1637,6.3134,32.3103,18.1144,42.3388,33.3339
		c12.8516,19.4988,17.1743,44.415,11.7035,67.0074C420.8951,420.7457,420.8805,420.8058,420.8658,420.8658z M815.4845,257.4094
		c-0.0528-0.0321-0.1056-0.0643-0.1583-0.0965c-19.8438-12.1068-34.4055-32.7818-39.1058-55.657
		c-3.6706-17.853-1.3049-36.9078,6.3674-53.5087c-3.1203,8.5707-5.3563,18.5026,0.2989,31.7113
		c17.8586-8.7215,32.7172-40.2337,4.2781-101.3698l0.0001-0.0019c-39.3905,60.9801-36.2921,99.6972-14.9865,101.594
		c-5.7683-27.5841,5.3475-42.7538,16.0074-51.2482c0.0809,5.7599-2.5995,11.4055-5.019,17.7614
		c-8.4252,16.8846-11.2963,36.6082-7.6798,55.2081c4.5014,23.1348,18.9767,44.2327,39.0535,56.7826
		c0.3135,0.1957,0.6281,0.3894,0.9438,0.581c0.3158-0.1916,0.6304-0.3853,0.9439-0.581
		c20.0768-12.5499,34.5521-33.6477,39.0535-56.7826c3.6164-18.5999,0.7454-38.3235-7.6798-55.2081
		c-2.4195-6.3559-5.0999-12.0015-5.019-17.7614c10.6599,8.4944,21.7758,23.6641,16.0074,51.2482
		c21.3056-1.8968,24.404-40.6139-14.9865-101.594l0.0001,0.0019c-28.4391,61.1362-13.5806,92.6483,4.2781,101.3698
		c5.6553-13.2086,3.4193-23.1406,0.299-31.7113c7.6723,16.6008,10.038,35.6557,6.3674,53.5087
		c-4.7003,22.8752-19.2621,43.5502-39.1058,55.657C815.5901,257.3452,815.5374,257.3773,815.4845,257.4094z M1210.1031,420.8658
		c-0.0146-0.0601-0.0292-0.1201-0.0437-0.1802c-5.4709-22.5924-1.1481-47.5086,11.7035-67.0074
		c10.0284-15.2195,25.175-27.0204,42.3387-33.3339c-8.2667,3.854-16.8708,9.2958-22.2119,22.6346
		c18.795,6.4609,51.5841-5.3149,74.7045-68.6542l0.0013-0.0013c-70.9728,15.2662-96.1589,44.8342-82.4348,61.2408
		c15.426-23.5837,34.0127-26.4502,47.5569-24.919c-4.0156,4.1301-9.9031,6.2268-16.1082,9.0103
		c-17.8967,5.9816-33.8735,17.8983-44.4685,33.6075c-13.1758,19.5418-17.8586,44.6958-12.5363,67.7664
		c0.0833,0.36,0.1688,0.7195,0.2566,1.0782c0.3588,0.0878,0.7181,0.1733,1.0782,0.2566
		c23.0706,5.3224,48.2245,0.6395,67.7664-12.5363c15.7094-10.5949,27.6259-26.5717,33.6075-44.4685
		c2.7834-6.2051,4.8802-12.0925,9.0103-16.1082c1.5313,13.5442-1.3352,32.1309-24.9189,47.5569
		c16.4066,13.7241,45.9746-11.4621,61.2407-82.4348l-0.0012,0.0014c-63.3394,23.1203-75.1151,55.9094-68.6543,74.7043
		c13.3389-5.341,18.7806-13.9451,22.6346-22.2119c-6.3134,17.1637-18.1144,32.3103-33.3339,42.3388
		c-19.4988,12.8516-44.415,17.1743-67.0073,11.7035C1210.2233,420.8951,1210.1632,420.8805,1210.1031,420.8658z M836.0687,765.79
		c2.6065,1.5867,5.1267,3.3248,7.5536,5.1962c0.6089,5.3807,0.6878,10.826,0.181,16.1795c5.3535-0.5068,10.7988-0.428,16.1796,0.181
		c1.8714,2.4269,3.6096,4.9471,5.1962,7.5536c0.7211,2.965,1.2742,5.9761,1.6669,9.0155
		c-3.3741,4.2353-7.1689,8.1415-11.3127,11.5686c4.1438,3.4271,7.9385,7.3333,11.3127,11.5686
		c-0.3928,3.0394-0.9458,6.0505-1.6669,9.0156c-1.5867,2.6065-3.3248,5.1267-5.1962,7.5536
		c-5.3807,0.6089-10.826,0.6878-16.1796,0.181c0.5068,5.3535,0.428,10.7988-0.181,16.1796
		c-2.4269,1.8714-4.9471,3.6096-7.5536,5.1962c-2.9651,0.7211-5.9761,1.2742-9.0156,1.6669
		c-4.2353-3.3741-8.1415-7.1689-11.5686-11.3127c-3.4271,4.1438-7.3333,7.9385-11.5686,11.3127
		c-3.0394-0.3928-6.0505-0.9458-9.0155-1.6669c-2.6066-1.5867-5.1267-3.3248-7.5536-5.1962
		c-0.6089-5.3807-0.6877-10.826-0.181-16.1796c-5.3535,0.5068-10.7988,0.428-16.1795-0.181
		c-1.8715-2.4269-3.6096-4.9471-5.1962-7.5536c-0.7212-2.9651-1.2742-5.9761-1.6669-9.0156
		c3.3741-4.2353,7.1688-8.1415,11.3127-11.5686c-4.1439-3.4271-7.9385-7.3333-11.3127-11.5686
		c0.3928-3.0394,0.9457-6.0505,1.6669-9.0155c1.5867-2.6066,3.3248-5.1267,5.1962-7.5536c5.3807-0.6089,10.826-0.6877,16.1795-0.181
		c-0.5068-5.3535-0.428-10.7988,0.181-16.1795c2.4269-1.8715,4.9471-3.6096,7.5536-5.1962c2.965-0.7212,5.9761-1.2742,9.0155-1.6669
		c4.2353,3.3741,8.1415,7.1688,11.5686,11.3127c3.4271-4.1439,7.3333-7.9385,11.5686-11.3127
		C830.0925,764.5159,833.1036,765.0688,836.0687,765.79z M1086.7004,160.7114c21.6488,30.6588,34.8737,67.3847,41.8257,104.7288
		c9.5514,51.6942,7.1799,105.2192-2.246,157.2156c-1.0555,5.8103-2.2028,11.6031-3.4261,17.3807
		c-9.3195,35.7371-22.0284,70.5815-36.5748,104.6533c34.0719-14.5463,68.9163-27.2554,104.6533-36.5748
		c5.7777-1.2234,11.5704-2.3706,17.3807-3.4261c51.9963-9.4259,105.5214-11.7975,157.2156-2.2461
		c37.3441,6.9521,74.0699,20.1769,104.7288,41.8257c-6.371,36.9871-22.9888,72.3076-44.4791,103.6297
		c-29.7994,43.3072-69.3243,79.4781-112.7565,109.58c-4.8549,3.3621-9.7621,6.647-14.7126,9.8674
		c-31.8597,18.6801-65.4851,34.3322-99.8633,48.1388c34.3782,13.8066,68.0035,29.4587,99.8633,48.1389
		c4.9506,3.2203,9.8578,6.5052,14.7126,9.8674c43.4321,30.1018,82.957,66.2728,112.7565,109.58
		c21.4904,31.3221,38.1082,66.6425,44.4791,103.6297c-30.6588,21.6488-67.3846,34.8737-104.7288,41.8257
		c-51.6942,9.5514-105.2192,7.1799-157.2156-2.246c-5.8103-1.0555-11.603-2.2028-17.3807-3.4261
		c-35.7371-9.3195-70.5814-22.0284-104.6533-36.5748c14.5464,34.0719,27.2554,68.9163,36.5748,104.6533
		c1.2234,5.7777,2.3706,11.5704,3.4261,17.3807c9.4259,51.9963,11.7974,105.5214,2.246,157.2156
		c-6.952,37.3441-20.1769,74.0699-41.8257,104.7288c-36.9872-6.371-72.3076-22.9888-103.6297-44.4791
		c-43.3073-29.7994-79.4782-69.3243-109.58-112.7565c-3.3621-4.8549-6.647-9.7621-9.8674-14.7126
		c-18.6802-31.8597-34.3322-65.4851-48.1389-99.8633c-13.8066,34.3782-29.4587,68.0035-48.1388,99.8633
		c-3.2203,4.9506-6.5052,9.8578-9.8674,14.7126c-30.1019,43.4321-66.2728,82.957-109.58,112.7565
		c-31.3221,21.4904-66.6426,38.1082-103.6297,44.4791c-21.6489-30.6588-34.8737-67.3846-41.8257-104.7288
		c-9.5514-51.6942-7.1799-105.2192,2.2461-157.2156c1.0555-5.8103,2.2027-11.603,3.4261-17.3807
		c9.3194-35.7371,22.0284-70.5814,36.5748-104.6533c-34.0718,14.5464-68.9162,27.2554-104.6533,36.5748
		c-5.7776,1.2234-11.5704,2.3706-17.3807,3.4261c-51.9964,9.4259-105.5214,11.7974-157.2156,2.246
		c-37.3441-6.952-74.0699-20.1769-104.7288-41.8257c6.371-36.9872,22.9888-72.3076,44.4792-103.6297
		c29.7995-43.3073,69.3243-79.4782,112.7564-109.58c4.8549-3.3621,9.7622-6.647,14.7126-9.8674
		c31.8598-18.6802,65.4851-34.3322,99.8633-48.1389c-34.3782-13.8066-68.0035-29.4587-99.8633-48.1388
		c-4.9505-3.2203-9.8578-6.5052-14.7126-9.8674c-43.4321-30.1019-82.9569-66.2728-112.7564-109.58
		c-21.4904-31.3221-38.1082-66.6426-44.4792-103.6297c30.6588-21.6489,67.3847-34.8737,104.7288-41.8257
		c51.6942-9.5514,105.2192-7.1799,157.2156,2.2461c5.8103,1.0555,11.6031,2.2027,17.3807,3.4261
		c35.7371,9.3194,70.5815,22.0284,104.6533,36.5748c-14.5463-34.0718-27.2554-68.9162-36.5748-104.6533
		c-1.2234-5.7776-2.3706-11.5704-3.4261-17.3807c-9.4259-51.9964-11.7975-105.5214-2.2461-157.2156
		c6.9521-37.3441,20.1769-74.0699,41.8257-104.7288c36.9871,6.371,72.3076,22.9888,103.6297,44.4792
		c43.3072,29.7995,79.4781,69.3243,109.58,112.7564c3.3621,4.8549,6.647,9.7622,9.8674,14.7126
		c18.6801,31.8598,34.3322,65.4851,48.1388,99.8633c13.8066-34.3782,29.4587-68.0035,48.1389-99.8633
		c3.2203-4.9505,6.5052-9.8578,9.8674-14.7126c30.1018-43.4321,66.2728-82.9569,109.58-112.7564
		C1014.3928,183.7002,1049.7133,167.0824,1086.7004,160.7114z M1061.2982,569.6708c-0.0563-19.2383-3.4968-38.0862-11.2531-58.1748
		c-14.1022-36.493-39.1998-68.4443-71.0617-90.7329c-38.2902-6.7693-78.6299-1.9231-114.4061,13.9096
		c-19.6893,8.7203-35.4495,19.6149-49.0929,33.1787c-13.6433-13.5638-29.4036-24.4584-49.0928-33.1787
		c-35.7762-15.8328-76.1159-20.679-114.4061-13.9096c-31.8619,22.2886-56.9596,54.2398-71.0618,90.7329
		c-7.7562,20.0886-11.1967,38.9365-11.253,58.1748c-19.2383,0.0563-38.0862,3.4968-58.1748,11.253
		c-36.493,14.1022-68.4443,39.1998-90.7329,71.0618c-6.7693,38.2902-1.9231,78.6298,13.9096,114.4061
		c8.7203,19.6893,19.6149,35.4495,33.1787,49.0928c-13.5638,13.6434-24.4584,29.4036-33.1787,49.0929
		c-15.8328,35.7762-20.679,76.1159-13.9096,114.4061c22.2886,31.8619,54.2398,56.9595,90.7329,71.0617
		c20.0886,7.7562,38.9365,11.1968,58.1748,11.2531c0.0563,19.2383,3.4968,38.0862,11.253,58.1748
		c14.1022,36.493,39.1998,68.4442,71.0618,90.7328c38.2902,6.7694,78.6298,1.9232,114.4061-13.9095
		c19.6893-8.7203,35.4495-19.615,49.0928-33.1787c13.6434,13.5637,29.4036,24.4584,49.0929,33.1787
		c35.7762,15.8328,76.1159,20.679,114.4061,13.9095c31.8619-22.2886,56.9595-54.2397,71.0617-90.7328
		c7.7562-20.0886,11.1968-38.9365,11.2531-58.1748c19.2383-0.0563,38.0862-3.4968,58.1748-11.2531
		c36.493-14.1022,68.4442-39.1998,90.7328-71.0617c6.7694-38.2902,1.9232-78.6299-13.9095-114.4061
		c-8.7203-19.6893-19.615-35.4495-33.1787-49.0929c13.5637-13.6433,24.4584-29.4036,33.1787-49.0928
		c15.8328-35.7762,20.679-76.1159,13.9095-114.4061c-22.2886-31.8619-54.2397-56.9596-90.7328-71.0618
		C1099.3844,573.1676,1080.5365,569.7271,1061.2982,569.6708z M975.5257,429.1109c29.1799,21.8,51.7949,52.253,64.1432,86.2764
		c6.9121,19.0256,11.2477,41.3863,12.3016,63.6111c22.2249,1.054,44.5856,5.3895,63.6111,12.3016
		c34.0234,12.3484,64.4764,34.9634,86.2765,64.1432c5.2184,36.0483-0.324,73.5729-15.6505,106.3629
		c-8.5656,18.3406-21.3113,37.2178-36.2814,53.6783c14.9701,16.4606,27.7158,35.3377,36.2814,53.6784
		c15.3265,32.7899,20.8689,70.3146,15.6505,106.3628c-21.8,29.1799-52.2531,51.7949-86.2765,64.1432
		c-19.0255,6.9121-41.3862,11.2477-63.6111,12.3016c-1.054,22.2249-5.3895,44.5856-12.3016,63.6111
		c-12.3484,34.0234-34.9633,64.4764-64.1432,86.2765c-36.0482,5.2184-73.5729-0.324-106.3628-15.6505
		c-18.3407-8.5656-37.2178-21.3113-53.6784-36.2814c-16.4606,14.9701-35.3377,27.7158-53.6783,36.2814
		c-32.7899,15.3265-70.3146,20.8689-106.3629,15.6505c-29.1799-21.8-51.7948-52.2531-64.1432-86.2765
		c-6.9121-19.0255-11.2476-41.3862-12.3016-63.6111c-22.2248-1.054-44.5855-5.3895-63.6111-12.3016
		c-34.0234-12.3484-64.4764-34.9633-86.2764-64.1432c-5.2184-36.0482,0.324-73.5729,15.6505-106.3628
		c8.5655-18.3407,21.3112-37.2178,36.2813-53.6784c-14.97-16.4606-27.7158-35.3377-36.2813-53.6783
		c-15.3265-32.7899-20.8689-70.3146-15.6505-106.3629c21.8-29.1799,52.253-51.7948,86.2764-64.1432
		c19.0256-6.9121,41.3863-11.2476,63.6111-12.3016c1.054-22.2248,5.3895-44.5855,12.3016-63.6111
		c12.3484-34.0234,34.9634-64.4764,64.1432-86.2764c36.0483-5.2184,73.5729,0.324,106.3629,15.6505
		c18.3406,8.5655,37.2178,21.3112,53.6783,36.2813c16.4606-14.97,35.3377-27.7158,53.6784-36.2813
		C901.9528,429.4349,939.4775,423.8925,975.5257,429.1109z M995.915,635.054c-1.038-2.6375-2.1434-5.2488-3.3165-7.8307
		c-9.6126-21.2706-24.0579-40.9426-43.6816-54.0328c-8.5199-5.662-17.9697-9.9792-27.9055-12.4703
		c-8.7872-5.2643-18.5219-8.8936-28.55-10.9144c-23.1322-4.62-47.2568-0.9241-69.0945,7.3194
		c-2.6552,0.9962-5.2833,2.061-7.8823,3.192c-2.5989-1.131-5.2271-2.1959-7.8823-3.192
		c-21.8378-8.2435-45.9623-11.9394-69.0945-7.3194c-10.0281,2.0208-19.7629,5.6501-28.55,10.9144
		c-9.9359,2.491-19.3856,6.8082-27.9055,12.4703c-19.6238,13.0901-34.069,32.7622-43.6816,54.0328
		c-1.1731,2.5819-2.2786,5.1932-3.3165,7.8307c-2.6375,1.038-5.2488,2.1434-7.8307,3.3165
		c-21.2706,9.6126-40.9426,24.0579-54.0328,43.6816c-5.662,8.5199-9.9792,17.9697-12.4703,27.9055
		c-5.2643,8.7871-8.8936,18.5219-10.9144,28.55c-4.62,23.1322-0.9241,47.2568,7.3194,69.0945
		c0.9962,2.6552,2.061,5.2833,3.192,7.8823c-1.131,2.599-2.1959,5.2272-3.192,7.8823
		c-8.2435,21.8378-11.9394,45.9623-7.3194,69.0945c2.0208,10.0281,5.6501,19.7628,10.9144,28.55
		c2.491,9.9359,6.8082,19.3856,12.4703,27.9055c13.0901,19.6237,32.7622,34.069,54.0328,43.6816
		c2.5819,1.1731,5.1932,2.2786,7.8307,3.3165c1.038,2.6375,2.1434,5.2489,3.3165,7.8307
		c9.6126,21.2706,24.0579,40.9426,43.6816,54.0328c8.5199,5.662,17.9697,9.9792,27.9055,12.4702
		c8.7871,5.2643,18.5219,8.8936,28.55,10.9144c23.1322,4.6199,47.2568,0.9241,69.0945-7.3195
		c2.6552-0.9961,5.2833-2.0609,7.8823-3.192c2.599,1.1311,5.2272,2.1959,7.8823,3.192
		c21.8378,8.2435,45.9623,11.9393,69.0945,7.3195c10.0281-2.0209,19.7628-5.6501,28.55-10.9144
		c9.9359-2.491,19.3856-6.8082,27.9055-12.4702c19.6237-13.0902,34.069-32.7622,43.6816-54.0328
		c1.1731-2.5818,2.2786-5.1932,3.3165-7.8307c2.6375-1.038,5.2489-2.1434,7.8307-3.3165
		c21.2706-9.6126,40.9426-24.0579,54.0328-43.6816c5.662-8.5199,9.9792-17.9697,12.4702-27.9055
		c5.2643-8.7872,8.8936-18.5219,10.9144-28.55c4.6199-23.1322,0.9241-47.2568-7.3195-69.0945
		c-0.9961-2.6552-2.0609-5.2833-3.192-7.8823c1.1311-2.5989,2.1959-5.2271,3.192-7.8823
		c8.2435-21.8378,11.9393-45.9623,7.3195-69.0945c-2.0209-10.0281-5.6501-19.7629-10.9144-28.55
		c-2.491-9.9359-6.8082-19.3856-12.4702-27.9055c-13.0902-19.6238-32.7622-34.069-54.0328-43.6816
		C1001.1639,637.1974,998.5525,636.092,995.915,635.054z M859.7922,708.5162c9.6895,9.354,21.1105,16.8726,33.5178,21.9338
		c3.2717-31.3354-10.1852-38.4863-25.3792-41.582c-12.9327-8.5549-27.5046-13.0139-47.3487,11.4571
		C832.9341,705.5196,846.3265,708.279,859.7922,708.5162z M771.1768,708.5162c13.4658-0.2372,26.8581-2.9966,39.2101-8.1911
		c-19.8441-24.4709-34.416-20.012-47.3487-11.4571c-15.194,3.0956-28.6509,10.2465-25.3792,41.582
		C750.0663,725.3888,761.4873,717.8702,771.1768,708.5162z M708.5162,771.1768c9.354-9.6895,16.8726-21.1104,21.9338-33.5177
		c-31.3354-3.2717-38.4863,10.1852-41.582,25.3792c-8.5549,12.9327-13.0139,27.5046,11.4571,47.3487
		C705.5196,798.0349,708.279,784.6426,708.5162,771.1768z M708.5162,859.7922c-0.2372-13.4658-2.9966-26.8581-8.1911-39.2101
		c-24.4709,19.8441-20.012,34.416-11.4571,47.3487c3.0956,15.194,10.2465,28.6509,41.582,25.3792
		C725.3888,880.9027,717.8702,869.4817,708.5162,859.7922z M771.1768,922.4528c-9.6895-9.354-21.1104-16.8726-33.5177-21.9338
		c-3.2717,31.3354,10.1852,38.4864,25.3792,41.582c12.9327,8.5549,27.5046,13.0139,47.3487-11.4571
		C798.0349,925.4495,784.6426,922.6901,771.1768,922.4528z M859.7922,922.4528c-13.4658,0.2372-26.8581,2.9966-39.2101,8.1911
		c19.8441,24.4709,34.416,20.012,47.3487,11.4571c15.194-3.0956,28.6509-10.2465,25.3792-41.582
		C880.9027,905.5802,869.4817,913.0988,859.7922,922.4528z M922.4528,859.7922c-9.354,9.6895-16.8726,21.1105-21.9338,33.5178
		c31.3354,3.2717,38.4864-10.1852,41.582-25.3792c8.5549-12.9327,13.0139-27.5046-11.4571-47.3487
		C925.4495,832.9341,922.6901,846.3265,922.4528,859.7922z M922.4528,771.1768c0.2372,13.4658,2.9966,26.8581,8.1911,39.2101
		c24.4709-19.8441,20.012-34.416,11.4571-47.3487c-3.0956-15.194-10.2465-28.6509-41.582-25.3792
		C905.5802,750.0663,913.0988,761.4873,922.4528,771.1768z M918.4879,566.8123c9.4032,2.4931,18.3237,6.8193,26.3171,12.415
		c17.9044,12.4843,30.8306,31.3451,39.504,51.6431c1.5975,3.7606,3.0412,7.583,4.335,11.4547
		c3.8716,1.2938,7.694,2.7375,11.4547,4.335c20.298,8.6735,39.1588,21.5997,51.643,39.5041
		c5.5957,7.9933,9.9219,16.9139,12.415,26.3171c4.8861,8.4119,8.1349,17.7788,9.8303,27.3876
		c3.8325,21.488-0.3639,43.9649-8.5836,64.4508c-1.5297,3.7887-3.2117,7.5124-5.0344,11.1649
		c1.8228,3.6525,3.5048,7.3763,5.0344,11.165c8.2197,20.4859,12.4161,42.9627,8.5836,64.4507
		c-1.6954,9.6088-4.9442,18.9758-9.8303,27.3877c-2.4932,9.4032-6.8193,18.3237-12.415,26.3171
		c-12.4843,17.9044-31.345,30.8306-51.643,39.504c-3.7606,1.5975-7.5831,3.0412-11.4547,4.335
		c-1.2938,3.8716-2.7375,7.694-4.335,11.4547c-8.6734,20.298-21.5997,39.1588-39.504,51.643
		c-7.9933,5.5957-16.9139,9.9219-26.3171,12.415c-8.4119,4.8861-17.7789,8.1349-27.3877,9.8303
		c-21.488,3.8325-43.9648-0.3639-64.4507-8.5836c-3.7887-1.5297-7.5125-3.2117-11.165-5.0344
		c-3.6525,1.8228-7.3762,3.5048-11.1649,5.0344c-20.4859,8.2197-42.9628,12.4161-64.4508,8.5836
		c-9.6088-1.6954-18.9757-4.9442-27.3876-9.8303c-9.4032-2.4932-18.3238-6.8193-26.3171-12.415
		c-17.9044-12.4843-30.8306-31.345-39.5041-51.643c-1.5974-3.7606-3.0411-7.5831-4.335-11.4547
		c-3.8716-1.2938-7.694-2.7375-11.4547-4.335c-20.298-8.6734-39.1588-21.5997-51.6431-39.504
		c-5.5956-7.9933-9.9219-16.9139-12.415-26.3171c-4.8862-8.4119-8.1349-17.7789-9.8303-27.3877
		c-3.8326-21.488,0.3638-43.9648,8.5836-64.4507c1.5296-3.7887,3.2116-7.5125,5.0344-11.165
		c-1.8228-3.6525-3.5048-7.3762-5.0344-11.1649c-8.2198-20.4859-12.4162-42.9628-8.5836-64.4508
		c1.6954-9.6088,4.9442-18.9757,9.8303-27.3876c2.4931-9.4032,6.8193-18.3238,12.415-26.3171
		c12.4843-17.9044,31.3451-30.8306,51.6431-39.5041c3.7606-1.5974,7.583-3.0411,11.4547-4.335
		c1.2938-3.8716,2.7375-7.694,4.335-11.4547c8.6735-20.298,21.5997-39.1588,39.5041-51.6431
		c7.9933-5.5956,16.9139-9.9219,26.3171-12.415c8.4119-4.8862,17.7788-8.1349,27.3876-9.8303
		c21.488-3.8326,43.9649,0.3638,64.4508,8.5836c3.7887,1.5296,7.5124,3.2116,11.1649,5.0344
		c3.6525-1.8228,7.3763-3.5048,11.165-5.0344c20.4859-8.2198,42.9627-12.4162,64.4507-8.5836
		C900.709,558.6774,910.076,561.9261,918.4879,566.8123z M988.1916,642.7775c-2.7176-4.4759-5.8101-8.7151-9.2506-12.6506
		c-13.2163-15.0929-31.3101-25.4791-50.6666-29.3154c-7.5645-1.5099-15.4126-2.0167-23.1566-1.0443
		c-0.0987,0.0124-0.1974,0.025-0.296,0.0379c-0.0607-0.0789-0.1215-0.1576-0.1826-0.2361
		c-4.7881-6.1635-10.696-11.3545-17.1125-15.6357c-16.3998-10.9744-36.5381-16.4245-56.5558-15.0976
		c-5.2156,0.35-10.3999,1.1609-15.4865,2.4042c-5.0865-1.2433-10.2708-2.0542-15.4864-2.4042
		c-20.0177-1.3269-40.1561,4.1232-56.5558,15.0976c-6.4165,4.2813-12.3244,9.4723-17.1125,15.6357
		c-0.061,0.0786-0.1219,0.1572-0.1825,0.2361c-0.0987-0.0129-0.1973-0.0255-0.296-0.0379
		c-7.744-0.9725-15.5921-0.4656-23.1566,1.0443c-19.3565,3.8363-37.4503,14.2225-50.6666,29.3154
		c-3.4406,3.9354-6.533,8.1747-9.2505,12.6506c-4.4759,2.7176-8.7151,5.81-12.6506,9.2505
		c-15.0929,13.2164-25.4791,31.3101-29.3154,50.6666c-1.5099,7.5645-2.0167,15.4126-1.0443,23.1566
		c0.0124,0.0987,0.025,0.1973,0.0379,0.296c-0.0789,0.0606-0.1576,0.1215-0.2361,0.1825
		c-6.1635,4.7881-11.3545,10.696-15.6357,17.1125c-10.9744,16.3998-16.4245,36.5381-15.0976,56.5558
		c0.35,5.2156,1.1609,10.3999,2.4042,15.4864c-1.2433,5.0865-2.0542,10.2709-2.4042,15.4865
		c-1.3269,20.0177,4.1232,40.156,15.0976,56.5558c4.2813,6.4165,9.4723,12.3244,15.6357,17.1125
		c0.0786,0.061,0.1572,0.1219,0.2361,0.1826c-0.0129,0.0986-0.0255,0.1973-0.0379,0.296
		c-0.9725,7.744-0.4656,15.5921,1.0443,23.1566c3.8363,19.3564,14.2225,37.4503,29.3154,50.6666
		c3.9354,3.4406,8.1747,6.533,12.6506,9.2506c2.7176,4.4758,5.81,8.7151,9.2505,12.6505
		c13.2164,15.093,31.3101,25.4791,50.6666,29.3154c7.5645,1.5099,15.4126,2.0167,23.1566,1.0443
		c0.0987-0.0125,0.1973-0.025,0.296-0.038c0.0606,0.079,0.1215,0.1576,0.1825,0.2362c4.7881,6.1635,10.696,11.3545,17.1125,15.6357
		c16.3998,10.9744,36.5381,16.4244,56.5558,15.0975c5.2156-0.35,10.3999-1.1609,15.4864-2.4042
		c5.0865,1.2433,10.2709,2.0542,15.4865,2.4042c20.0177,1.3269,40.156-4.1232,56.5558-15.0975
		c6.4165-4.2813,12.3244-9.4723,17.1125-15.6357c0.061-0.0786,0.1219-0.1572,0.1826-0.2362c0.0986,0.0129,0.1973,0.0255,0.296,0.038
		c7.744,0.9724,15.5921,0.4656,23.1566-1.0443c19.3564-3.8363,37.4503-14.2224,50.6666-29.3154
		c3.4406-3.9354,6.533-8.1747,9.2506-12.6505c4.4758-2.7176,8.7151-5.8101,12.6505-9.2506
		c15.093-13.2163,25.4791-31.3101,29.3154-50.6666c1.5099-7.5645,2.0167-15.4126,1.0443-23.1566
		c-0.0125-0.0987-0.025-0.1974-0.038-0.296c0.079-0.0607,0.1576-0.1215,0.2362-0.1826c6.1635-4.7881,11.3545-10.696,15.6357-17.1125
		c10.9744-16.3998,16.4244-36.5381,15.0975-56.5558c-0.35-5.2156-1.1609-10.3999-2.4042-15.4865
		c1.2433-5.0865,2.0542-10.2708,2.4042-15.4864c1.3269-20.0177-4.1232-40.1561-15.0975-56.5558
		c-4.2813-6.4165-9.4723-12.3244-15.6357-17.1125c-0.0786-0.061-0.1572-0.1219-0.2362-0.1825
		c0.0129-0.0987,0.0255-0.1973,0.038-0.296c0.9724-7.744,0.4656-15.5921-1.0443-23.1566
		c-3.8363-19.3565-14.2224-37.4503-29.3154-50.6666C996.9067,648.5875,992.6674,645.4951,988.1916,642.7775z M878.3506,663.7122
		c3.2427,2.1758,6.8995,3.6957,10.6968,4.4412c5.0932,0.999,10.4097,0.5985,15.2353-1.1113
		c4.8256-1.7104,9.1412-4.7235,12.3778-8.5986c-3.4307,3.7042-7.8469,6.4411-12.6184,7.8613
		c-4.7712,1.4208-9.8974,1.5256-14.6591,0.3347c-3.7087-0.9269-7.2014-2.6408-10.1904-4.9602
		c-3.7536-0.4734-7.4352-1.7313-10.7131-3.6983c-4.2091-2.5248-7.7598-6.2236-10.1289-10.6021
		c-2.3698-4.3782-3.5572-9.4362-3.3638-14.4813c-0.4515,5.0287,0.4695,10.2109,2.6723,14.8325
		c2.2031,4.6212,5.6793,8.6638,9.9872,11.5588C870.8587,661.4468,874.5192,662.9578,878.3506,663.7122z M752.6183,663.7122
		c3.8314-0.7544,7.4919-2.2654,10.7042-4.4233c4.3079-2.8951,7.7841-6.9376,9.9872-11.5588
		c2.2028-4.6216,3.1238-9.8038,2.6722-14.8325c0.1934,5.0452-0.994,10.1031-3.3638,14.4813
		c-2.3691,4.3785-5.9198,8.0773-10.1289,10.6021c-3.2778,1.967-6.9595,3.2249-10.7131,3.6983
		c-2.989,2.3194-6.4817,4.0333-10.1904,4.9602c-4.7616,1.191-9.8878,1.0862-14.6591-0.3347
		c-4.7715-1.4202-9.1877-4.157-12.6183-7.8613c3.2366,3.8751,7.5522,6.8882,12.3777,8.5986
		c4.8256,1.7098,10.1421,2.1102,15.2354,1.1113C745.7189,667.4079,749.3757,665.888,752.6183,663.7122z M663.7122,752.6183
		c2.1758-3.2427,3.6957-6.8995,4.4412-10.6968c0.999-5.0933,0.5985-10.4098-1.1113-15.2354
		c-1.7104-4.8256-4.7235-9.1412-8.5986-12.3777c3.7042,3.4307,6.4411,7.8468,7.8613,12.6183
		c1.4208,4.7713,1.5256,9.8975,0.3347,14.6591c-0.9269,3.7087-2.6408,7.2014-4.9602,10.1904
		c-0.4734,3.7536-1.7313,7.4353-3.6983,10.7131c-2.5248,4.2091-6.2236,7.7598-10.6021,10.1289
		c-4.3782,2.3698-9.4362,3.5572-14.4813,3.3638c5.0287,0.4515,10.2109-0.4695,14.8325-2.6722
		c4.6212-2.2032,8.6638-5.6794,11.5588-9.9872C661.4468,760.1103,662.9578,756.4498,663.7122,752.6183z M663.7122,878.3506
		c-0.7544-3.8314-2.2654-7.4919-4.4233-10.7042c-2.8951-4.3079-6.9376-7.7841-11.5588-9.9872
		c-4.6216-2.2028-9.8038-3.1238-14.8325-2.6723c5.0452-0.1934,10.1031,0.994,14.4813,3.3638
		c4.3785,2.3691,8.0773,5.9198,10.6021,10.1289c1.967,3.2778,3.2249,6.9595,3.6983,10.7131
		c2.3194,2.989,4.0333,6.4817,4.9602,10.1904c1.191,4.7617,1.0862,9.8878-0.3347,14.6591
		c-1.4202,4.7715-4.157,9.1877-7.8613,12.6184c3.8751-3.2366,6.8882-7.5522,8.5986-12.3778
		c1.7098-4.8256,2.1102-10.1421,1.1113-15.2353C667.4079,885.2501,665.888,881.5933,663.7122,878.3506z M752.6183,967.2568
		c-3.2427-2.1758-6.8995-3.6957-10.6968-4.4412c-5.0933-0.999-10.4098-0.5985-15.2354,1.1113
		c-4.8256,1.7103-9.1412,4.7234-12.3777,8.5986c3.4307-3.7042,7.8468-6.441,12.6183-7.8613
		c4.7713-1.4208,9.8975-1.5256,14.6591-0.3346c3.7087,0.9268,7.2014,2.6407,10.1904,4.9602
		c3.7536,0.4734,7.4353,1.7312,10.7131,3.6983c4.2091,2.5248,7.7598,6.2236,10.1289,10.6021
		c2.3698,4.3782,3.5572,9.4361,3.3638,14.4813c0.4515-5.0287-0.4695-10.2109-2.6722-14.8325
		c-2.2032-4.6212-5.6794-8.6637-9.9872-11.5588C760.1103,969.5222,756.4498,968.0112,752.6183,967.2568z M878.3506,967.2568
		c-3.8314,0.7544-7.4919,2.2654-10.7042,4.4234c-4.3079,2.8951-7.7841,6.9376-9.9872,11.5588
		c-2.2028,4.6216-3.1238,9.8038-2.6723,14.8325c-0.1934-5.0452,0.994-10.1031,3.3638-14.4813
		c2.3691-4.3785,5.9198-8.0773,10.1289-10.6021c3.2778-1.9671,6.9595-3.2249,10.7131-3.6983
		c2.989-2.3195,6.4817-4.0334,10.1904-4.9602c4.7617-1.191,9.8878-1.0862,14.6591,0.3346c4.7715,1.4202,9.1877,4.157,12.6184,7.8613
		c-3.2366-3.8751-7.5522-6.8882-12.3778-8.5986c-4.8256-1.7098-10.1421-2.1103-15.2353-1.1113
		C885.2501,963.5611,881.5933,965.0811,878.3506,967.2568z M967.2568,878.3506c-2.1758,3.2427-3.6957,6.8995-4.4412,10.6968
		c-0.999,5.0932-0.5985,10.4097,1.1113,15.2353c1.7103,4.8256,4.7234,9.1412,8.5986,12.3778
		c-3.7042-3.4307-6.441-7.8469-7.8613-12.6184c-1.4208-4.7712-1.5256-9.8974-0.3346-14.6591
		c0.9268-3.7087,2.6407-7.2014,4.9602-10.1904c0.4734-3.7536,1.7312-7.4352,3.6983-10.7131
		c2.5248-4.2091,6.2236-7.7598,10.6021-10.1289c4.3782-2.3698,9.4361-3.5572,14.4813-3.3638
		c-5.0287-0.4515-10.2109,0.4695-14.8325,2.6723c-4.6212,2.2031-8.6637,5.6793-11.5588,9.9872
		C969.5222,870.8587,968.0112,874.5192,967.2568,878.3506z M967.2568,752.6183c0.7544,3.8314,2.2654,7.4919,4.4234,10.7042
		c2.8951,4.3079,6.9376,7.7841,11.5588,9.9872c4.6216,2.2028,9.8038,3.1238,14.8325,2.6722
		c-5.0452,0.1934-10.1031-0.994-14.4813-3.3638c-4.3785-2.3691-8.0773-5.9198-10.6021-10.1289
		c-1.9671-3.2778-3.2249-6.9595-3.6983-10.7131c-2.3195-2.989-4.0334-6.4817-4.9602-10.1904
		c-1.191-4.7616-1.0862-9.8878,0.3346-14.6591c1.4202-4.7715,4.157-9.1877,7.8613-12.6183
		c-3.8751,3.2366-6.8882,7.5522-8.5986,12.3777c-1.7098,4.8256-2.1103,10.1421-1.1113,15.2354
		C963.5611,745.7189,965.0811,749.3757,967.2568,752.6183z M901.9794,606.6674c1.262-0.1902,2.5311-0.3336,3.8022-0.4318
		c6.94-0.5346,13.9861,0.3184,20.8273,2.0281c17.4611,4.3915,33.3036,14.7181,44.2391,28.6075
		c3.189,5.4053,6.1646,10.1535,8.9243,14.3255c4.172,2.7597,8.9202,5.7352,14.3256,8.9243
		c13.8893,10.9355,24.2159,26.778,28.6075,44.239c1.7098,6.8413,2.5627,13.8874,2.0282,20.8273
		c-0.0983,1.2711-0.2417,2.5402-0.4319,3.8022c1.0269,0.7579,2.0258,1.5539,2.994,2.3832
		c5.2853,4.5294,9.6644,10.1147,13.293,16.1613c9.2416,15.4521,13.1418,33.9565,11.0532,51.5103
		c-1.5673,6.0771-2.8207,11.5386-3.8193,16.4401c0.9987,4.9015,2.2521,10.363,3.8193,16.4401
		c2.0886,17.5538-1.8116,36.0582-11.0532,51.5103c-3.6285,6.0466-8.0077,11.632-13.293,16.1613
		c-0.9683,0.8293-1.9672,1.6254-2.994,2.3832c0.1902,1.262,0.3336,2.5311,0.4319,3.8022c0.5345,6.94-0.3184,13.9861-2.0282,20.8273
		c-4.3915,17.4611-14.7181,33.3036-28.6075,44.2391c-5.4053,3.189-10.1536,6.1646-14.3256,8.9243
		c-2.7597,4.172-5.7352,8.9202-8.9243,14.3256c-10.9355,13.8893-26.778,24.2159-44.2391,28.6075
		c-6.8412,1.7098-13.8873,2.5627-20.8273,2.0282c-1.2711-0.0983-2.5402-0.2417-3.8022-0.4319
		c-0.7579,1.0269-1.554,2.0258-2.3832,2.994c-4.5293,5.2853-10.1147,9.6644-16.1613,13.293
		c-15.4521,9.2416-33.9564,13.1418-51.5103,11.0532c-6.0771-1.5673-11.5386-2.8207-16.4401-3.8193
		c-4.9014,0.9987-10.3629,2.2521-16.4401,3.8193c-17.5538,2.0886-36.0582-1.8116-51.5103-11.0532
		c-6.0466-3.6285-11.632-8.0077-16.1613-13.293c-0.8293-0.9683-1.6253-1.9672-2.3832-2.994
		c-1.262,0.1902-2.5311,0.3336-3.8022,0.4319c-6.9399,0.5345-13.986-0.3184-20.8273-2.0282
		c-17.4611-4.3915-33.3035-14.7181-44.239-28.6075c-3.1891-5.4053-6.1646-10.1536-8.9243-14.3256
		c-4.172-2.7597-8.9202-5.7352-14.3255-8.9243c-13.8894-10.9355-24.216-26.778-28.6075-44.2391
		c-1.7098-6.8412-2.5627-13.8873-2.0281-20.8273c0.0983-1.2711,0.2416-2.5402,0.4318-3.8022
		c-1.0269-0.7579-2.0257-1.554-2.994-2.3832c-5.2853-4.5293-9.6645-10.1147-13.293-16.1613
		c-9.2416-15.4521-13.1419-33.9564-11.0532-51.5103c1.5672-6.0771,2.8206-11.5386,3.8193-16.4401
		c-0.9987-4.9014-2.2521-10.3629-3.8193-16.4401c-2.0887-17.5538,1.8116-36.0582,11.0532-51.5103
		c3.6285-6.0466,8.0077-11.632,13.293-16.1613c0.9683-0.8293,1.9671-1.6253,2.994-2.3832c-0.1902-1.262-0.3336-2.5311-0.4318-3.8022
		c-0.5346-6.9399,0.3184-13.986,2.0281-20.8273c4.3915-17.4611,14.7181-33.3035,28.6075-44.239
		c5.4053-3.1891,10.1535-6.1646,14.3255-8.9243c2.7597-4.172,5.7352-8.9202,8.9243-14.3255
		c10.9355-13.8894,26.778-24.216,44.239-28.6075c6.8413-1.7098,13.8874-2.5627,20.8273-2.0281
		c1.2711,0.0983,2.5402,0.2416,3.8022,0.4318c0.7579-1.0269,1.5539-2.0257,2.3832-2.994
		c4.5294-5.2853,10.1147-9.6645,16.1613-13.293c15.4521-9.2416,33.9565-13.1419,51.5103-11.0532
		c6.0771,1.5672,11.5386,2.8206,16.4401,3.8193c4.9015-0.9987,10.363-2.2521,16.4401-3.8193
		c17.5538-2.0887,36.0582,1.8116,51.5103,11.0532c6.0466,3.6285,11.632,8.0077,16.1613,13.293
		C900.4255,604.6417,901.2216,605.6405,901.9794,606.6674z M857.6441,773.325c-3.4195-3.3356-7.0734-6.4248-10.9383-9.2167
		c-0.1429-0.7029-0.2915-1.4043-0.4516-2.1022c0-0.0001,0-0.0001,0-0.0001c-0.9447-4.1217-2.1601-8.1556-3.6066-12.0991
		c-3.8113,1.7656-7.5231,3.7586-11.1055,6.0051c-0.0001,0.0001-0.0001,0.0001-0.0001,0.0001
		c-0.6067,0.3802-1.2077,0.7712-1.8058,1.1672c-4.7071-0.7589-9.4752-1.1581-14.2517-1.2174
		c-4.7765,0.0593-9.5446,0.4586-14.2517,1.2174c-0.5981-0.396-1.1991-0.7869-1.8057-1.1672c-0.0001,0-0.0001,0-0.0001-0.0001
		c-3.5825-2.2465-7.2943-4.2395-11.1055-6.0051c-1.4465,3.9434-2.6619,7.9774-3.6066,12.0991c0,0.0001,0,0.0001,0,0.0001
		c-0.1602,0.6979-0.3087,1.3992-0.4516,2.1022c-3.865,2.7919-7.5189,5.8811-10.9383,9.2167
		c-3.3356,3.4194-6.4248,7.0733-9.2167,10.9383c-0.7029,0.1429-1.4043,0.2914-2.1022,0.4516c-0.0001,0-0.0001,0-0.0001,0
		c-4.1217,0.9446-8.1556,2.16-12.0991,3.6066c1.7656,3.8112,3.7586,7.5231,6.0051,11.1055
		c0.0001,0.0001,0.0001,0.0001,0.0001,0.0001c0.3802,0.6066,0.7712,1.2076,1.1672,1.8057
		c-0.7589,4.7071-1.1581,9.4752-1.2174,14.2517c0.0593,4.7766,0.4586,9.5446,1.2174,14.2517
		c-0.396,0.5981-0.7869,1.1991-1.1672,1.8058c0,0.0001,0,0.0001-0.0001,0.0001c-2.2465,3.5824-4.2395,7.2943-6.0051,11.1055
		c3.9434,1.4465,7.9774,2.6619,12.0991,3.6066c0.0001,0,0.0001,0,0.0001,0c0.6979,0.1601,1.3992,0.3087,2.1022,0.4516
		c2.7919,3.8649,5.8811,7.5188,9.2167,10.9383c3.4194,3.3355,7.0733,6.4247,10.9383,9.2166
		c0.1429,0.7029,0.2914,1.4044,0.4516,2.1022c0,0.0001,0,0.0001,0,0.0002c0.9446,4.1216,2.16,8.1556,3.6066,12.099
		c3.8112-1.7656,7.5231-3.7586,11.1055-6.0051c0.0001-0.0001,0.0001-0.0001,0.0001-0.0001
		c0.6066-0.3802,1.2076-0.7711,1.8057-1.1671c4.7071,0.7588,9.4752,1.1581,14.2517,1.2174
		c4.7766-0.0593,9.5446-0.4586,14.2517-1.2174c0.5981,0.396,1.1991,0.7869,1.8058,1.1671c0.0001,0.0001,0.0001,0.0001,0.0001,0.0001
		c3.5824,2.2465,7.2943,4.2395,11.1055,6.0051c1.4465-3.9434,2.6619-7.9774,3.6066-12.099c0-0.0001,0-0.0001,0-0.0002
		c0.1601-0.6978,0.3087-1.3992,0.4516-2.1022c3.8649-2.7919,7.5188-5.8811,10.9383-9.2166
		c3.3355-3.4195,6.4247-7.0734,9.2166-10.9383c0.7029-0.1429,1.4044-0.2915,2.1022-0.4516c0.0001,0,0.0001,0,0.0002,0
		c4.1216-0.9447,8.1556-2.1601,12.099-3.6066c-1.7656-3.8113-3.7586-7.5231-6.0051-11.1055
		c-0.0001-0.0001-0.0001-0.0001-0.0001-0.0001c-0.3802-0.6067-0.7711-1.2077-1.1671-1.8058
		c0.7588-4.7071,1.1581-9.4752,1.2174-14.2517c-0.0593-4.7765-0.4586-9.5446-1.2174-14.2517
		c0.396-0.5981,0.7869-1.1991,1.1671-1.8057c0.0001-0.0001,0.0001-0.0001,0.0001-0.0001c2.2465-3.5825,4.2395-7.2943,6.0051-11.1055
		c-3.9434-1.4465-7.9774-2.6619-12.099-3.6066c-0.0001,0-0.0001,0-0.0002,0c-0.6978-0.1602-1.3992-0.3087-2.1022-0.4516
		C864.0688,780.3983,860.9796,776.7444,857.6441,773.325z M840.3514,755.4506c0.5389,1.7695,1.0263,3.554,1.4584,5.353
		c-0.9691-0.6092-1.9498-1.2001-2.9417-1.772c-1.1058-0.2971-2.2171-0.5726-3.3331-0.8271
		C837.1127,757.2379,838.7191,756.3208,840.3514,755.4506z M790.6177,755.4506c1.6323,0.8702,3.2387,1.7873,4.8163,2.7538
		c-1.116,0.2545-2.2273,0.53-3.3331,0.8271c-0.9919,0.5719-1.9726,1.1628-2.9417,1.772
		C789.5914,759.0046,790.0787,757.2201,790.6177,755.4506z M755.4506,790.6177c1.7695-0.5389,3.554-1.0263,5.353-1.4584
		c-0.6092,0.9691-1.2001,1.9498-1.772,2.9417c-0.2971,1.1058-0.5726,2.2171-0.8271,3.3331
		C757.2379,793.8564,756.3208,792.2499,755.4506,790.6177z M755.4506,840.3514c0.8702-1.6323,1.7873-3.2387,2.7538-4.8164
		c0.2545,1.116,0.53,2.2274,0.8271,3.3331c0.5719,0.9919,1.1628,1.9726,1.772,2.9417
		C759.0046,841.3777,757.2201,840.8903,755.4506,840.3514z M790.6177,875.5184c-0.5389-1.7695-1.0263-3.554-1.4584-5.353
		c0.9691,0.6092,1.9498,1.2001,2.9417,1.772c1.1058,0.297,2.2171,0.5726,3.3331,0.8271
		C793.8564,873.7311,792.2499,874.6483,790.6177,875.5184z M840.3514,875.5184c-1.6323-0.8702-3.2387-1.7874-4.8164-2.7538
		c1.116-0.2545,2.2274-0.5301,3.3331-0.8271c0.9919-0.5719,1.9726-1.1628,2.9417-1.772
		C841.3777,871.9645,840.8903,873.7489,840.3514,875.5184z M875.5184,840.3514c-1.7695,0.5389-3.554,1.0263-5.353,1.4584
		c0.6092-0.9691,1.2001-1.9498,1.772-2.9417c0.297-1.1058,0.5726-2.2171,0.8271-3.3331
		C873.7311,837.1127,874.6483,838.7191,875.5184,840.3514z M875.5184,790.6177c-0.8702,1.6323-1.7874,3.2387-2.7538,4.8163
		c-0.2545-1.116-0.5301-2.2273-0.8271-3.3331c-0.5719-0.9919-1.1628-1.9726-1.772-2.9417
		C871.9645,789.5914,873.7489,790.0787,875.5184,790.6177z M848.3804,782.5886c0.0582-2.6141-0.0118-5.2323-0.2043-7.8394
		c1.4194,1.2546,2.8017,2.5555,4.1449,3.8989c1.3433,1.3433,2.6443,2.7255,3.8989,4.145
		C853.6127,782.6005,850.9946,782.5304,848.3804,782.5886z M815.4845,768.9627c-1.8073-1.8896-3.7082-3.6914-5.6878-5.3988
		c1.8908-0.1166,3.7881-0.174,5.6878-0.174c1.8997,0,3.797,0.0574,5.6879,0.174
		C819.1927,765.2713,817.2919,767.0731,815.4845,768.9627z M782.5886,782.5886c-2.6141-0.0582-5.2323,0.0119-7.8394,0.2044
		c1.2546-1.4195,2.5555-2.8017,3.8989-4.145c1.3433-1.3433,2.7255-2.6443,4.145-3.8989
		C782.6005,777.3563,782.5304,779.9745,782.5886,782.5886z M768.9627,815.4845c-1.8896,1.8074-3.6914,3.7082-5.3988,5.6879
		c-0.1166-1.8909-0.174-3.7881-0.174-5.6879c0-1.8997,0.0574-3.797,0.174-5.6878
		C765.2713,811.7763,767.0731,813.6772,768.9627,815.4845z M782.5886,848.3804c-0.0582,2.6142,0.0119,5.2323,0.2044,7.8394
		c-1.4195-1.2545-2.8017-2.5555-4.145-3.8989c-1.3433-1.3432-2.6443-2.7255-3.8989-4.1449
		C777.3563,848.3685,779.9745,848.4386,782.5886,848.3804z M815.4845,862.0063c1.8074,1.8897,3.7082,3.6914,5.6879,5.3988
		c-1.8909,0.1166-3.7881,0.1741-5.6879,0.174c-1.8997,0.0001-3.797-0.0574-5.6878-0.174
		C811.7763,865.6977,813.6772,863.896,815.4845,862.0063z M848.3804,848.3804c2.6142,0.0582,5.2323-0.0118,7.8394-0.2043
		c-1.2545,1.4194-2.5555,2.8017-3.8989,4.1449c-1.3432,1.3433-2.7255,2.6443-4.1449,3.8989
		C848.3685,853.6127,848.4386,850.9946,848.3804,848.3804z M862.0063,815.4845c1.8897-1.8073,3.6914-3.7082,5.3988-5.6878
		c0.1166,1.8908,0.1741,3.7881,0.174,5.6878c0.0001,1.8997-0.0574,3.797-0.174,5.6879
		C865.6977,819.1927,863.896,817.2919,862.0063,815.4845z M1126.8516,504.1174c0.887-3.1934,1.7555-6.3923,2.6046-9.5967
		c44.1439-44.7402,76.2604-100.9123,92.3156-161.2669c16.7089-62.8378,15.9552-129.9622-1.9303-192.0196
		c-4.5326-15.915-10.7169-32.2504-22.7253-44.0563c-6.0215-5.8987-13.4945-10.4423-21.7098-12.3947
		c-8.2241-1.9535-17.175-1.1265-24.5804,2.895c0,0,0,0,0,0c-8.4856,4.6279-14.4233,13.4527-15.6503,22.9096
		c-1.4056,6.7685-3.1755,18.823-0.0171,26.3506c4.5831,10.9233,13.7913,14.8243,22.8448,7.9308
		c9.0538-6.894,14.9895-21.5379,11.4167-29.173c-3.5736-7.6342-12.4792-5.8652-16.5785,0.4655
		c-3.3479,5.17-2.894,16.4537-9.975,15.5806c-5.5903-0.6888-6.4026-16.6091-6.4971-23.2828
		c1.9781-8.2767,7.6539-15.6462,15.1436-19.4823c7.1234-3.6655,15.6652-4.1972,23.3916-2.1767
		c7.7379,2.0226,14.7128,6.5436,20.3102,12.2775c11.2299,11.4598,16.674,27.4013,20.8595,43.1928
		c16.1661,61.7808,15.1602,127.7834-2.6531,188.648c-14.9966,51.261-41.9086,98.8632-77.6694,138.1343
		c3.2813-14.3323,6.1371-28.7721,8.4763-43.3221c8.6765-53.8367,9.8323-109.4305-1.1786-163.126
		c-8.413-41.2909-24.6676-81.852-50.921-114.9981c-42.0018,4.8738-82.1766,22.0611-117.3226,45.3093
		c-45.7544,30.1827-84.2479,70.3107-116.1809,114.5141c-8.6343,11.9426-16.8255,24.1724-24.6396,36.627
		c2.4821-53.0557,17.1122-105.7451,42.7551-152.5963c30.442-55.6336,76.4015-103.0159,131.5183-135.2703
		c14.1259-8.2066,29.2478-15.6293,45.2919-15.792c8.0123-0.0965,16.1411,1.6387,23.0428,5.68
		c6.8922,4.0348,12.5562,10.4506,15.0012,18.0795c2.5834,8.0085,1.3859,17.2329-3.068,24.4841
		c-4.7858,4.6523-16.6176,15.3353-21.0575,11.8694c-5.6244-4.3896,2.6753-12.0474,3.9637-18.0705
		c1.5779-7.3751-3.4685-14.9232-11.3937-12.0519c-7.9252,2.8725-14.0826,17.4245-12.5555,28.7013
		c1.5275,11.2763,10.797,15.029,21.7617,10.5458c7.5562-3.0895,14.8285-12.8647,18.6206-18.6448
		c5.8195-7.5546,7.861-17.9934,5.1332-27.2659c-0.0001,0-0.0001,0-0.0001,0c-2.3928-8.08-8.1372-14.9941-15.3339-19.4281
		c-7.1897-4.4285-15.6866-6.5-24.1156-6.5868c-16.8392-0.1432-32.763,7.0347-47.2217,15.0833
		c-56.5283,31.2342-104.5252,78.1655-137.1433,134.4135c-31.3245,54.0298-48.3344,116.4593-48.756,179.3098
		c-1.6654,2.8663-3.3132,5.7424-4.9442,8.6277c-1.6309-2.8853-3.2787-5.7614-4.9442-8.6277
		c-0.4216-62.8505-17.4315-125.28-48.756-179.3098c-32.6181-56.248-80.6151-103.1792-137.1433-134.4135
		c-14.4587-8.0486-30.3824-15.2265-47.2217-15.0833c-8.4289,0.0868-16.9258,2.1582-24.1156,6.5868
		c-7.1967,4.434-12.941,11.348-15.3339,19.4281c0,0,0,0-0.0001,0c-2.7278,9.2726-0.6863,19.7114,5.1331,27.2659
		c3.7921,5.78,11.0645,15.5553,18.6207,18.6448c10.9647,4.4831,20.2343,0.7304,21.7617-10.5458
		c1.5271-11.2768-4.6304-25.8288-12.5556-28.7013c-7.9252-2.8712-12.9715,4.6768-11.3937,12.0519
		c1.2885,6.0231,9.5882,13.6809,3.9637,18.0705c-4.4399,3.4659-16.2717-7.2171-21.0575-11.8694
		c-4.4538-7.2513-5.6514-16.4756-3.068-24.4841c2.4451-7.629,8.1091-14.0448,15.0012-18.0795
		c6.9017-4.0413,15.0305-5.7765,23.0429-5.68c16.044,0.1626,31.1659,7.5853,45.2919,15.792
		c55.1168,32.2544,101.0763,79.6367,131.5182,135.2703c25.6429,46.8512,40.273,99.5406,42.7551,152.5963
		c-7.8142-12.4547-16.0054-24.6845-24.6397-36.627c-31.933-44.2035-70.4265-84.3315-116.1808-114.5141
		c-35.1459-23.2482-75.3207-40.4355-117.3226-45.3093c-26.2535,33.1461-42.5081,73.7072-50.9211,114.9981
		c-11.0108,53.6956-9.8551,109.2894-1.1786,163.126c2.3393,14.55,5.195,28.9898,8.4763,43.3221
		c-35.7609-39.2711-62.6729-86.8733-77.6695-138.1343c-17.8132-60.8646-18.8192-126.8672-2.6531-188.648
		c4.1856-15.7915,9.6297-31.7329,20.8596-43.1928c5.5974-5.7339,12.5723-10.2548,20.3102-12.2775
		c7.7265-2.0205,16.2682-1.4888,23.3916,2.1767c7.4896,3.8362,13.1654,11.2056,15.1435,19.4823
		c-0.0944,6.6737-0.9067,22.5941-6.497,23.2828c-7.081,0.8731-6.6271-10.4105-9.975-15.5806
		c-4.0993-6.3307-13.0049-8.0997-16.5786-0.4655c-3.5728,7.6351,2.363,22.279,11.4167,29.173
		c9.0536,6.8934,18.2617,2.9925,22.8449-7.9308c3.1584-7.5276,1.3886-19.5821-0.0171-26.3506
		c-1.2269-9.4569-7.1647-18.2817-15.6502-22.9096c-0.0001,0-0.0001,0-0.0001,0c-7.4054-4.0215-16.3563-4.8485-24.5804-2.895
		c-8.2154,1.9525-15.6884,6.496-21.7098,12.3947c-12.0085,11.8059-18.1927,28.1413-22.7253,44.0563
		c-17.8856,62.0574-18.6392,129.1818-1.9303,192.0196c16.0551,60.3546,48.1716,116.5267,92.3155,161.2669
		c0.8492,3.2044,1.7177,6.4033,2.6046,9.5967c-3.1934-0.8869-6.3923-1.7554-9.5967-2.6046
		c-44.7402-44.1439-100.9123-76.2604-161.2669-92.3155c-62.8378-16.7089-129.9622-15.9553-192.0196,1.9303
		c-15.915,4.5326-32.2504,10.7169-44.0563,22.7253c-5.8987,6.0214-10.4423,13.4944-12.3947,21.7098
		c-1.9535,8.2241-1.1265,17.175,2.895,24.5804c0,0,0,0,0,0.0001c4.6279,8.4855,13.4527,14.4233,22.9096,15.6502
		c6.7685,1.4057,18.823,3.1755,26.3506,0.0171c10.9233-4.5832,14.8243-13.7913,7.9308-22.8449
		c-6.894-9.0537-21.5379-14.9895-29.173-11.4167c-7.6342,3.5737-5.8652,12.4792,0.4655,16.5786
		c5.17,3.3479,16.4537,2.894,15.5806,9.975c-0.6888,5.5902-16.6091,6.4026-23.2828,6.497
		c-8.2767-1.9781-15.6462-7.6539-19.4823-15.1435c-3.6655-7.1234-4.1972-15.6651-2.1767-23.3916
		c2.0226-7.7379,6.5436-14.7128,12.2775-20.3102c11.4598-11.2298,27.4013-16.674,43.1928-20.8596
		c61.7808-16.1661,127.7834-15.1601,188.648,2.6531c51.261,14.9965,98.8632,41.9085,138.1343,77.6695
		c-14.3323-3.2813-28.7721-6.1371-43.3221-8.4763c-53.8367-8.6765-109.4305-9.8323-163.126,1.1786
		c-41.2909,8.4129-81.852,24.6676-114.9981,50.9211c4.8738,42.0018,22.0611,82.1766,45.3093,117.3226
		c30.1827,45.7543,70.3107,84.2479,114.5141,116.1808c11.9426,8.6343,24.1724,16.8255,36.627,24.6397
		c-53.0557-2.4821-105.7451-17.1122-152.5963-42.7551c-55.6336-30.442-103.0159-76.4015-135.2703-131.5182
		c-8.2066-14.126-15.6293-29.2479-15.792-45.2919c-0.0965-8.0124,1.6387-16.1412,5.68-23.0429
		c4.0348-6.8922,10.4506-12.5561,18.0795-15.0012c8.0085-2.5834,17.2329-1.3858,24.4841,3.068
		c4.6523,4.7858,15.3353,16.6176,11.8694,21.0575c-4.3896,5.6245-12.0474-2.6753-18.0705-3.9637
		c-7.3751-1.5778-14.9232,3.4685-12.0519,11.3937c2.8725,7.9252,17.4245,14.0827,28.7013,12.5556
		c11.2763-1.5275,15.029-10.797,10.5458-21.7617c-3.0895-7.5562-12.8647-14.8286-18.6448-18.6207
		c-7.5546-5.8195-17.9934-7.8609-27.2659-5.1331c0,0.0001,0,0.0001,0,0.0001c-8.08,2.3928-14.9941,8.1372-19.4281,15.3339
		c-4.4285,7.1898-6.5,15.6867-6.5868,24.1156c-0.1432,16.8393,7.0347,32.7631,15.0833,47.2217
		c31.2342,56.5282,78.1655,104.5252,134.4135,137.1433c54.0298,31.3245,116.4593,48.3344,179.3098,48.756
		c2.8663,1.6654,5.7424,3.3132,8.6277,4.9442c-2.8853,1.6309-5.7614,3.2787-8.6277,4.9442
		c-62.8505,0.4216-125.28,17.4315-179.3098,48.756c-56.248,32.6181-103.1792,80.6151-134.4135,137.1433
		c-8.0486,14.4587-15.2265,30.3824-15.0833,47.2217c0.0868,8.429,2.1582,16.9259,6.5868,24.1156
		c4.434,7.1967,11.348,12.941,19.4281,15.3339c0,0,0,0,0,0.0001c9.2726,2.7278,19.7114,0.6863,27.2659-5.1332
		c5.78-3.7921,15.5553-11.0645,18.6448-18.6206c4.4831-10.9647,0.7304-20.2343-10.5458-21.7617
		c-11.2768-1.5271-25.8288,4.6304-28.7013,12.5555c-2.8712,7.9252,4.6768,12.9716,12.0519,11.3937
		c6.0231-1.2885,13.6809-9.5881,18.0705-3.9637c3.4659,4.4399-7.2171,16.2717-11.8694,21.0575
		c-7.2513,4.4539-16.4756,5.6514-24.4841,3.068c-7.629-2.4451-14.0448-8.109-18.0795-15.0012
		c-4.0413-6.9017-5.7765-15.0305-5.68-23.0428c0.1626-16.0441,7.5853-31.166,15.792-45.2919
		c32.2544-55.1168,79.6367-101.0764,135.2703-131.5183c46.8512-25.6429,99.5406-40.273,152.5963-42.7551
		c-12.4547,7.8141-24.6845,16.0053-36.627,24.6396c-44.2035,31.933-84.3315,70.4265-114.5141,116.1809
		c-23.2482,35.1459-40.4355,75.3207-45.3093,117.3226c33.1461,26.2534,73.7072,42.5081,114.9981,50.921
		c53.6956,11.0109,109.2894,9.8551,163.126,1.1786c14.55-2.3392,28.9898-5.1951,43.3221-8.4763
		c-39.2711,35.7609-86.8733,62.6729-138.1343,77.6694c-60.8646,17.8132-126.8672,18.8192-188.648,2.6531
		c-15.7915-4.1855-31.7329-9.6296-43.1928-20.8595c-5.7339-5.5974-10.2548-12.5723-12.2775-20.3102
		c-2.0205-7.7264-1.4888-16.2682,2.1767-23.3916c3.8362-7.4896,11.2056-13.1654,19.4823-15.1436
		c6.6737,0.0945,22.5941,0.9067,23.2828,6.4971c0.8731,7.0809-10.4105,6.6271-15.5806,9.975
		c-6.3307,4.0992-8.0997,13.0049-0.4655,16.5785c7.6351,3.5728,22.279-2.3629,29.173-11.4167
		c6.8934-9.0536,2.9925-18.2617-7.9308-22.8448c-7.5276-3.1584-19.5821-1.3885-26.3506,0.0171
		c-9.4569,1.2269-18.2817,7.1647-22.9096,15.6503c0,0,0,0,0,0c-4.0215,7.4054-4.8485,16.3563-2.895,24.5804
		c1.9525,8.2153,6.496,15.6884,12.3947,21.7098c11.8059,12.0084,28.1413,18.1927,44.0563,22.7253
		c62.0574,17.8855,129.1818,18.6392,192.0196,1.9303c60.3546-16.0552,116.5267-48.1716,161.2669-92.3156
		c3.2044-0.8491,6.4033-1.7177,9.5967-2.6046c-0.8869,3.1935-1.7554,6.3923-2.6046,9.5967
		c-44.1439,44.7402-76.2604,100.9124-92.3155,161.267c-16.7089,62.8378-15.9553,129.9622,1.9303,192.0197
		c4.5326,15.915,10.7169,32.2504,22.7253,44.0563c6.0214,5.8987,13.4944,10.4423,21.7098,12.3948
		c8.2241,1.9535,17.175,1.1265,24.5804-2.895c0,0,0,0,0.0001,0c8.4855-4.6279,14.4233-13.4528,15.6502-22.9097
		c1.4057-6.7686,3.1755-18.823,0.0171-26.3506c-4.5832-10.9232-13.7913-14.8242-22.8449-7.9308
		c-9.0537,6.894-14.9895,21.5378-11.4167,29.173c3.5737,7.6342,12.4792,5.8652,16.5786-0.4655
		c3.3479-5.17,2.894-16.4537,9.975-15.5806c5.5902,0.6887,6.4026,16.6091,6.497,23.2827
		c-1.9781,8.2767-7.6539,15.6462-15.1435,19.4824c-7.1234,3.6654-15.6651,4.1971-23.3916,2.1766
		c-7.7379-2.0226-14.7128-6.5436-20.3102-12.2775c-11.2298-11.4598-16.674-27.4012-20.8596-43.1927
		c-16.1661-61.7808-15.1601-127.7834,2.6531-188.6481c14.9965-51.261,41.9085-98.8632,77.6695-138.1343
		c-3.2813,14.3323-6.1371,28.7721-8.4763,43.3221c-8.6765,53.8367-9.8323,109.4304,1.1786,163.126
		c8.4129,41.2909,24.6676,81.8519,50.9211,114.998c42.0018-4.8738,82.1766-22.061,117.3226-45.3092
		c45.7543-30.1827,84.2479-70.3107,116.1808-114.5142c8.6343-11.9426,16.8255-24.1724,24.6397-36.6271
		c-2.4821,53.0557-17.1122,105.7451-42.7551,152.5963c-30.442,55.6337-76.4015,103.0159-131.5182,135.2703
		c-14.126,8.2067-29.2479,15.6294-45.2919,15.792c-8.0124,0.0966-16.1412-1.6387-23.0429-5.6799
		c-6.8922-4.0348-12.5561-10.4506-15.0012-18.0795c-2.5834-8.0085-1.3858-17.2329,3.068-24.4841
		c4.7858-4.6523,16.6176-15.3353,21.0575-11.8694c5.6245,4.3895-2.6753,12.0474-3.9637,18.0704
		c-1.5778,7.3751,3.4685,14.9232,11.3937,12.052c7.9252-2.8726,14.0827-17.4244,12.5556-28.7013
		c-1.5275-11.2762-10.797-15.0289-21.7617-10.5458c-7.5562,3.0894-14.8286,12.8646-18.6207,18.6447
		c-5.8195,7.5546-7.8609,17.9934-5.1331,27.266c0.0001,0,0.0001,0,0.0001,0c2.3928,8.0801,8.1372,14.9941,15.3339,19.4281
		c7.1898,4.4286,15.6867,6.5,24.1156,6.5868c16.8393,0.1432,32.7631-7.0348,47.2217-15.0834
		c56.5282-31.2341,104.5252-78.1654,137.1433-134.4135c31.3245-54.0298,48.3344-116.4592,48.756-179.3098
		c1.6654-2.8663,3.3132-5.7424,4.9442-8.6276c1.6309,2.8851,3.2787,5.7612,4.9442,8.6276
		c0.4216,62.8506,17.4315,125.28,48.756,179.3098c32.6181,56.248,80.6151,103.1793,137.1433,134.4135
		c14.4587,8.0486,30.3824,15.2266,47.2217,15.0834c8.429-0.0868,16.9259-2.1582,24.1156-6.5868
		c7.1967-4.434,12.941-11.348,15.3339-19.4281c0,0,0,0,0.0001,0c2.7278-9.2726,0.6863-19.7114-5.1332-27.266
		c-3.7921-5.78-11.0645-15.5553-18.6206-18.6447c-10.9647-4.4832-20.2343-0.7305-21.7617,10.5458
		c-1.5271,11.2769,4.6304,25.8287,12.5555,28.7013c7.9252,2.8712,12.9716-4.6769,11.3937-12.052
		c-1.2885-6.0231-9.5881-13.6809-3.9637-18.0704c4.4399-3.4659,16.2717,7.217,21.0575,11.8694
		c4.4539,7.2512,5.6514,16.4756,3.068,24.4841c-2.4451,7.6289-8.109,14.0447-15.0012,18.0795
		c-6.9017,4.0413-15.0305,5.7765-23.0428,5.6799c-16.0441-0.1626-31.166-7.5853-45.2919-15.792
		c-55.1168-32.2544-101.0764-79.6366-131.5183-135.2703c-25.6429-46.8512-40.273-99.5406-42.7551-152.5963
		c7.8141,12.4547,16.0053,24.6844,24.6396,36.6271c31.933,44.2035,70.4265,84.3314,116.1809,114.5142
		c35.1459,23.2482,75.3207,40.4354,117.3226,45.3092c26.2534-33.1461,42.5081-73.7072,50.921-114.998
		c11.0109-53.6956,9.8551-109.2893,1.1786-163.126c-2.3392-14.55-5.1951-28.9899-8.4763-43.3221
		c35.7609,39.2711,62.6729,86.8733,77.6694,138.1343c17.8132,60.8646,18.8192,126.8673,2.6531,188.6481
		c-4.1855,15.7915-9.6296,31.7329-20.8595,43.1927c-5.5974,5.7339-12.5723,10.2549-20.3102,12.2775
		c-7.7264,2.0205-16.2682,1.4888-23.3916-2.1766c-7.4896-3.8362-13.1654-11.2057-15.1436-19.4824
		c0.0945-6.6736,0.9067-22.594,6.4971-23.2827c7.0809-0.8732,6.6271,10.4105,9.975,15.5806
		c4.0992,6.3307,13.0049,8.0996,16.5785,0.4655c3.5728-7.6351-2.3629-22.2789-11.4167-29.173
		c-9.0536-6.8934-18.2617-2.9924-22.8448,7.9308c-3.1584,7.5276-1.3885,19.582,0.0171,26.3506
		c1.2269,9.4569,7.1647,18.2817,15.6503,22.9097c0,0,0,0,0,0c7.4054,4.0215,16.3563,4.8485,24.5804,2.895
		c8.2153-1.9525,15.6884-6.4961,21.7098-12.3948c12.0084-11.8059,18.1927-28.1412,22.7253-44.0563
		c17.8855-62.0575,18.6392-129.1819,1.9303-192.0197c-16.0552-60.3546-48.1716-116.5267-92.3156-161.267
		c-0.8491-3.2043-1.7177-6.4032-2.6046-9.5967c3.1935,0.887,6.3923,1.7555,9.5967,2.6046
		c44.7402,44.1439,100.9124,76.2604,161.267,92.3156c62.8378,16.7089,129.9622,15.9552,192.0197-1.9303
		c15.915-4.5326,32.2504-10.7169,44.0563-22.7253c5.8987-6.0215,10.4423-13.4945,12.3948-21.7098
		c1.9535-8.2241,1.1265-17.175-2.895-24.5804c0,0,0,0,0,0c-4.6279-8.4856-13.4528-14.4233-22.9097-15.6503
		c-6.7686-1.4056-18.823-3.1755-26.3506-0.0171c-10.9232,4.5831-14.8242,13.7913-7.9308,22.8448
		c6.894,9.0538,21.5378,14.9895,29.173,11.4167c7.6342-3.5736,5.8652-12.4792-0.4655-16.5785
		c-5.17-3.3479-16.4537-2.894-15.5806-9.975c0.6887-5.5903,16.6091-6.4026,23.2827-6.4971
		c8.2767,1.9781,15.6462,7.6539,19.4824,15.1436c3.6654,7.1234,4.1971,15.6652,2.1766,23.3916
		c-2.0226,7.7379-6.5436,14.7128-12.2775,20.3102c-11.4598,11.2299-27.4012,16.674-43.1927,20.8595
		c-61.7808,16.1661-127.7834,15.1602-188.6481-2.6531c-51.261-14.9966-98.8632-41.9086-138.1343-77.6694
		c14.3323,3.2813,28.7721,6.1371,43.3221,8.4763c53.8367,8.6765,109.4304,9.8323,163.126-1.1786
		c41.2909-8.413,81.8519-24.6676,114.998-50.921c-4.8738-42.0018-22.061-82.1766-45.3092-117.3226
		c-30.1827-45.7544-70.3107-84.2479-114.5142-116.1809c-11.9426-8.6343-24.1724-16.8255-36.6271-24.6396
		c53.0557,2.4821,105.7451,17.1122,152.5963,42.7551c55.6337,30.442,103.0159,76.4015,135.2703,131.5183
		c8.2067,14.1259,15.6294,29.2478,15.792,45.2919c0.0966,8.0123-1.6387,16.1411-5.6799,23.0428
		c-4.0348,6.8922-10.4506,12.5562-18.0795,15.0012c-8.0085,2.5834-17.2329,1.3859-24.4841-3.068
		c-4.6523-4.7858-15.3353-16.6176-11.8694-21.0575c4.3895-5.6244,12.0474,2.6753,18.0704,3.9637
		c7.3751,1.5779,14.9232-3.4685,12.052-11.3937c-2.8726-7.9252-17.4244-14.0826-28.7013-12.5555
		c-11.2762,1.5275-15.0289,10.797-10.5458,21.7617c3.0894,7.5562,12.8646,14.8285,18.6447,18.6206
		c7.5546,5.8195,17.9934,7.861,27.266,5.1332c0-0.0001,0-0.0001,0-0.0001c8.0801-2.3928,14.9941-8.1372,19.4281-15.3339
		c4.4286-7.1897,6.5-15.6866,6.5868-24.1156c0.1432-16.8392-7.0348-32.763-15.0834-47.2217
		c-31.2341-56.5283-78.1654-104.5252-134.4135-137.1433c-54.0298-31.3245-116.4592-48.3344-179.3098-48.756
		c-2.8663-1.6654-5.7424-3.3132-8.6276-4.9442c2.8851-1.6309,5.7612-3.2787,8.6276-4.9442
		c62.8506-0.4216,125.28-17.4315,179.3098-48.756c56.248-32.6181,103.1793-80.6151,134.4135-137.1433
		c8.0486-14.4587,15.2266-30.3824,15.0834-47.2217c-0.0868-8.4289-2.1582-16.9258-6.5868-24.1156
		c-4.434-7.1967-11.348-12.941-19.4281-15.3339c0,0,0,0,0-0.0001c-9.2726-2.7278-19.7114-0.6863-27.266,5.1331
		c-5.78,3.7921-15.5553,11.0645-18.6447,18.6207c-4.4832,10.9647-0.7305,20.2343,10.5458,21.7617
		c11.2769,1.5271,25.8287-4.6304,28.7013-12.5556c2.8712-7.9252-4.6769-12.9715-12.052-11.3937
		c-6.0231,1.2885-13.6809,9.5882-18.0704,3.9637c-3.4659-4.4399,7.217-16.2717,11.8694-21.0575
		c7.2512-4.4538,16.4756-5.6514,24.4841-3.068c7.6289,2.4451,14.0447,8.1091,18.0795,15.0012
		c4.0413,6.9017,5.7765,15.0305,5.6799,23.0429c-0.1626,16.044-7.5853,31.1659-15.792,45.2919
		c-32.2544,55.1168-79.6366,101.0763-135.2703,131.5182c-46.8512,25.6429-99.5406,40.273-152.5963,42.7551
		c12.4547-7.8142,24.6844-16.0054,36.6271-24.6397c44.2035-31.933,84.3314-70.4265,114.5142-116.1808
		c23.2482-35.1459,40.4354-75.3207,45.3092-117.3226c-33.1461-26.2535-73.7072-42.5081-114.998-50.9211
		c-53.6956-11.0108-109.2893-9.8551-163.126-1.1786c-14.55,2.3393-28.9899,5.195-43.3221,8.4763
		c39.2711-35.7609,86.8733-62.6729,138.1343-77.6695c60.8646-17.8132,126.8673-18.8192,188.6481-2.6531
		c15.7915,4.1856,31.7329,9.6297,43.1927,20.8596c5.7339,5.5974,10.2549,12.5723,12.2775,20.3102
		c2.0205,7.7265,1.4888,16.2682-2.1766,23.3916c-3.8362,7.4896-11.2057,13.1654-19.4824,15.1435
		c-6.6736-0.0944-22.594-0.9067-23.2827-6.497c-0.8732-7.081,10.4105-6.6271,15.5806-9.975
		c6.3307-4.0993,8.0996-13.0049,0.4655-16.5786c-7.6351-3.5728-22.2789,2.363-29.173,11.4167
		c-6.8934,9.0536-2.9924,18.2617,7.9308,22.8449c7.5276,3.1584,19.582,1.3886,26.3506-0.0171
		c9.4569-1.2269,18.2817-7.1647,22.9097-15.6502c0-0.0001,0-0.0001,0-0.0001c4.0215-7.4054,4.8485-16.3563,2.895-24.5804
		c-1.9525-8.2154-6.4961-15.6884-12.3948-21.7098c-11.8059-12.0085-28.1412-18.1927-44.0563-22.7253
		c-62.0575-17.8856-129.1819-18.6392-192.0197-1.9303c-60.3546,16.0551-116.5267,48.1716-161.267,92.3155
		C1133.2439,502.362,1130.045,503.2305,1126.8516,504.1174z"/>
	<path d="M1221.8042,213.9035c0.9698-15.528-14.2666-36.9957-65.4331-38.7129c25.4696,48.9633,52.2476,60.4495,61.5403,46.2592
		c-20.4204-5.7-26.2609-18.7975-27.8566-29.2267C1199.2874,196.9684,1202.0579,212.6099,1221.8042,213.9035z"/>
	<path d="M677.4139,102.7911c-10.2942-11.6657-36.2479-16.0719-73.6423,18.8941c52.632,16.6125,79.6888,5.7996,76.2258-10.8054
		c-18.4699,10.4089-31.861,5.2773-40.364-0.9688C649.5172,106.738,662.5364,115.8391,677.4139,102.7911z"/>
	<path d="M213.9035,409.1649c-15.528-0.9698-36.9957,14.2666-38.7129,65.4331c48.9633-25.4696,60.4495-52.2476,46.2592-61.5403
		c-5.7,20.4203-18.7975,26.2608-29.2267,27.8566C196.9684,431.6817,212.6099,428.9112,213.9035,409.1649z"/>
	<path d="M102.7911,953.5552c-11.6657,10.2941-16.0719,36.2479,18.8941,73.6423c16.6125-52.6321,5.7996-79.6889-10.8054-76.2258
		c10.4089,18.4699,5.2773,31.8611-0.9688,40.364C106.738,981.4518,115.8391,968.4326,102.7911,953.5552z"/>
	<path d="M409.1649,1417.0656c-0.9698,15.528,14.2666,36.9957,65.4331,38.7129c-25.4696-48.9633-52.2476-60.4496-61.5403-46.2593
		c20.4203,5.7001,26.2608,18.7976,27.8566,29.2267C431.6817,1434.0006,428.9112,1418.3591,409.1649,1417.0656z"/>
	<path d="M953.5552,1528.1779c10.2941,11.6658,36.2479,16.072,73.6423-18.894c-52.6321-16.6124-79.6889-5.7996-76.2258,10.8054
		c18.4699-10.4088,31.8611-5.2773,40.364,0.9688C981.4518,1524.231,968.4326,1515.1299,953.5552,1528.1779z"/>
	<path d="M1417.0656,1221.8042c15.528,0.9698,36.9957-14.2666,38.7129-65.4331c-48.9633,25.4696-60.4496,52.2476-46.2593,61.5403
		c5.7001-20.4204,18.7976-26.2609,29.2267-27.8566C1434.0006,1199.2874,1418.3591,1202.0579,1417.0656,1221.8042z"/>
	<path d="M1528.1779,677.4139c11.6658-10.2942,16.072-36.2479-18.894-73.6423c-16.6124,52.632-5.7996,79.6888,10.8054,76.2258
		c-10.4088-18.4699-5.2773-31.861,0.9688-40.364C1524.231,649.5172,1515.1299,662.5364,1528.1779,677.4139z"/>
	<path d="M1417.0656,409.1649c15.528-0.9698,36.9957,14.2666,38.7129,65.4331c-48.9633-25.4696-60.4496-52.2476-46.2593-61.5403
		c5.7001,20.4203,18.7976,26.2608,29.2267,27.8566C1434.0006,431.6817,1418.3591,428.9112,1417.0656,409.1649z"/>
	<path d="M953.5552,102.7911c10.2941-11.6657,36.2479-16.0719,73.6423,18.8941c-52.6321,16.6125-79.6889,5.7996-76.2258-10.8054
		c18.4699,10.4089,31.8611,5.2773,40.364-0.9688C981.4518,106.738,968.4326,115.8391,953.5552,102.7911z"/>
	<path d="M409.1649,213.9035c-0.9698-15.528,14.2666-36.9957,65.4331-38.7129c-25.4696,48.9633-52.2476,60.4495-61.5403,46.2592
		c20.4203-5.7,26.2608-18.7975,27.8566-29.2267C431.6817,196.9684,428.9112,212.6099,409.1649,213.9035z"/>
	<path d="M102.7911,677.4139c-11.6657-10.2942-16.0719-36.2479,18.8941-73.6423c16.6125,52.632,5.7996,79.6888-10.8054,76.2258
		c10.4089-18.4699,5.2773-31.861-0.9688-40.364C106.738,649.5172,115.8391,662.5364,102.7911,677.4139z"/>
	<path d="M213.9035,1221.8042c-15.528,0.9698-36.9957-14.2666-38.7129-65.4331c48.9633,25.4696,60.4495,52.2476,46.2592,61.5403
		c-5.7-20.4204-18.7975-26.2609-29.2267-27.8566C196.9684,1199.2874,212.6099,1202.0579,213.9035,1221.8042z"/>
	<path d="M677.4139,1528.1779c-10.2942,11.6658-36.2479,16.072-73.6423-18.894c52.632-16.6124,79.6888-5.7996,76.2258,10.8054
		c-18.4699-10.4088-31.861-5.2773-40.364,0.9688C649.5172,1524.231,662.5364,1515.1299,677.4139,1528.1779z"/>
	<path d="M1221.8042,1417.0656c0.9698,15.528-14.2666,36.9957-65.4331,38.7129c25.4696-48.9633,52.2476-60.4496,61.5403-46.2593
		c-20.4204,5.7001-26.2609,18.7976-27.8566,29.2267C1199.2874,1434.0006,1202.0579,1418.3591,1221.8042,1417.0656z"/>
	<path d="M1528.1779,953.5552c11.6658,10.2941,16.072,36.2479-18.894,73.6423c-16.6124-52.6321-5.7996-79.6889,10.8054-76.2258
		c-10.4088,18.4699-5.2773,31.8611,0.9688,40.364C1524.231,981.4518,1515.1299,968.4326,1528.1779,953.5552z"/>
	<polygon points="1156.3698,175.1905 1156.3711,175.1906 1156.371,175.1905 	"/>
	<polygon points="603.7705,121.686 603.7715,121.6852 603.7714,121.6851 	"/>
	<polygon points="175.1905,474.5993 175.1906,474.598 175.1905,474.598 	"/>
	<polygon points="121.686,1027.1985 121.6852,1027.1975 121.6851,1027.1976 	"/>
	<polygon points="474.5993,1455.7786 474.598,1455.7784 474.598,1455.7786 	"/>
	<polygon points="1027.1985,1509.283 1027.1975,1509.2838 1027.1976,1509.2839 	"/>
	<polygon points="1455.7786,1156.3698 1455.7784,1156.3711 1455.7786,1156.371 	"/>
	<polygon points="1509.283,603.7705 1509.2838,603.7715 1509.2839,603.7714 	"/>
	<polygon points="1455.7786,474.5993 1455.7784,474.598 1455.7786,474.598 	"/>
	<polygon points="1027.1985,121.686 1027.1975,121.6852 1027.1976,121.6851 	"/>
	<polygon points="474.5993,175.1905 474.598,175.1906 474.598,175.1905 	"/>
	<polygon points="121.686,603.7705 121.6852,603.7715 121.6851,603.7714 	"/>
	<polygon points="175.1905,1156.3698 175.1906,1156.3711 175.1905,1156.371 	"/>
	<polygon points="603.7705,1509.283 603.7715,1509.2838 603.7714,1509.2839 	"/>
	<polygon points="1156.3698,1455.7786 1156.3711,1455.7784 1156.371,1455.7786 	"/>
	<polygon points="1509.283,1027.1985 1509.2838,1027.1975 1509.2839,1027.1976 	"/>
	<path d="M1243.4683,217.6553c3.4913-20.912,15.8921-28.1146,26.0916-30.8119c-3.7345,9.6857-18.9923,14.107-18.173,33.8799
		c15.5428-0.6904,35.2661-18.1274,31.5197-69.1876l0,0C1236.9359,182.0789,1228.3687,209.9275,1243.4683,217.6553z"/>
	<path d="M695.3856,90.1252c-12.3182-17.2558-8.6425-31.1174-3.3378-40.2368c4.2081,9.4895-3.4545,23.4048,11.1064,36.8069
		c10.5023-11.4787,12.1189-37.7549-26.6352-71.2108l-0.0001,0.0001C665.6102,69.588,679.2441,95.3379,695.3856,90.1252z"/>
	<path d="M217.6553,387.5008c-20.912-3.4914-28.1146-15.8922-30.8119-26.0916c9.6857,3.7345,14.107,18.9924,33.8799,18.173
		c-0.6904-15.5429-18.1274-35.2661-69.1876-31.5197v0.0001C182.0789,394.0331,209.9275,402.6004,217.6553,387.5008z"/>
	<path d="M90.1252,935.5834c-17.2558,12.3182-31.1174,8.6426-40.2368,3.3378c9.4895-4.208,23.4048,3.4545,36.8069-11.1064
		c-11.4787-10.5023-37.7549-12.1189-71.2108,26.6352h0.0001C69.588,965.3588,95.3379,951.7249,90.1252,935.5834z"/>
	<path d="M387.5008,1413.3137c-3.4914,20.912-15.8922,28.1145-26.0916,30.8119c3.7345-9.6857,18.9924-14.1069,18.173-33.8799
		c-15.5429,0.6904-35.2661,18.1274-31.5197,69.1876h0.0001C394.0331,1448.8901,402.6004,1421.0415,387.5008,1413.3137z"/>
	<path d="M935.5834,1540.8438c12.3182,17.2559,8.6426,31.1174,3.3378,40.2369c-4.208-9.4896,3.4545-23.4049-11.1064-36.807
		c-10.5023,11.4786-12.1189,37.7549,26.6352,71.2108l0,0C965.3588,1561.3811,951.7249,1535.6311,935.5834,1540.8438z"/>
	<path d="M1413.3137,1243.4683c20.912,3.4913,28.1145,15.8921,30.8119,26.0916c-9.6857-3.7345-14.1069-18.9923-33.8799-18.173
		c0.6904,15.5428,18.1274,35.2661,69.1876,31.5197l0,0C1448.8901,1236.9359,1421.0415,1228.3687,1413.3137,1243.4683z"/>
	<path d="M1540.8438,695.3856c17.2559-12.3182,31.1174-8.6425,40.2369-3.3378c-9.4896,4.2081-23.4049-3.4545-36.807,11.1064
		c11.4786,10.5023,37.7549,12.1189,71.2108-26.6352v-0.0001C1561.3811,665.6102,1535.6311,679.2441,1540.8438,695.3856z"/>
	<path d="M1413.3137,387.5008c20.912-3.4914,28.1145-15.8922,30.8119-26.0916c-9.6857,3.7345-14.1069,18.9924-33.8799,18.173
		c0.6904-15.5429,18.1274-35.2661,69.1876-31.5197v0.0001C1448.8901,394.0331,1421.0415,402.6004,1413.3137,387.5008z"/>
	<path d="M935.5834,90.1252c12.3182-17.2558,8.6426-31.1174,3.3378-40.2368c-4.208,9.4895,3.4545,23.4048-11.1064,36.8069
		c-10.5023-11.4787-12.1189-37.7549,26.6352-71.2108v0.0001C965.3588,69.588,951.7249,95.3379,935.5834,90.1252z"/>
	<path d="M387.5008,217.6553c-3.4914-20.912-15.8922-28.1146-26.0916-30.8119c3.7345,9.6857,18.9924,14.107,18.173,33.8799
		c-15.5429-0.6904-35.2661-18.1274-31.5197-69.1876h0.0001C394.0331,182.0789,402.6004,209.9275,387.5008,217.6553z"/>
	<path d="M90.1252,695.3856c-17.2558-12.3182-31.1174-8.6425-40.2368-3.3378c9.4895,4.2081,23.4048-3.4545,36.8069,11.1064
		c-11.4787,10.5023-37.7549,12.1189-71.2108-26.6352l0.0001-0.0001C69.588,665.6102,95.3379,679.2441,90.1252,695.3856z"/>
	<path d="M217.6553,1243.4683c-20.912,3.4913-28.1146,15.8921-30.8119,26.0916c9.6857-3.7345,14.107-18.9923,33.8799-18.173
		c-0.6904,15.5428-18.1274,35.2661-69.1876,31.5197l0,0C182.0789,1236.9359,209.9275,1228.3687,217.6553,1243.4683z"/>
	<path d="M695.3856,1540.8438c-12.3182,17.2559-8.6425,31.1174-3.3378,40.2369c4.2081-9.4896-3.4545-23.4049,11.1064-36.807
		c10.5023,11.4786,12.1189,37.7549-26.6352,71.2108h-0.0001C665.6102,1561.3811,679.2441,1535.6311,695.3856,1540.8438z"/>
	<path d="M1243.4683,1413.3137c3.4913,20.912,15.8921,28.1145,26.0916,30.8119c-3.7345-9.6857-18.9923-14.1069-18.173-33.8799
		c15.5428,0.6904,35.2661,18.1274,31.5197,69.1876l0,0C1236.9359,1448.8901,1228.3687,1421.0415,1243.4683,1413.3137z"/>
	<path d="M1540.8438,935.5834c17.2559,12.3182,31.1174,8.6426,40.2369,3.3378c-9.4896-4.208-23.4049,3.4545-36.807-11.1064
		c11.4786-10.5023,37.7549-12.1189,71.2108,26.6352l0,0C1561.3811,965.3588,1535.6311,951.7249,1540.8438,935.5834z"/>
</g>
</svg>
